M48
;DRILL file {KiCad 4.0.2-stable} date 12/08/2016 19:46:17
;FORMAT={-:-/ absolute / inch / decimal}
FMAT,2
INCH,TZ
T1C0.030
T2C0.040
T3C0.060
%
G90
G05
M72
T1
X5.825Y-1.525
X5.825Y-1.825
X5.925Y-1.525
X5.925Y-1.825
X6.025Y-1.525
X6.025Y-1.825
X6.125Y-1.525
X6.125Y-1.825
X6.225Y-1.525
X6.225Y-1.825
X6.325Y-1.525
X6.325Y-1.825
X6.425Y-1.525
X6.425Y-1.825
X6.525Y-1.525
X6.525Y-1.825
X6.625Y-1.525
X6.625Y-1.825
X6.725Y-1.525
X6.725Y-1.825
X6.825Y-1.525
X6.825Y-1.825
X6.925Y-1.525
X6.925Y-1.825
X7.025Y-1.525
X7.025Y-1.825
X7.125Y-1.525
X7.125Y-1.825
T2
X7.375Y-1.525
X7.375Y-1.7
X7.375Y-1.85
X7.475Y-1.525
X7.475Y-1.7
X7.475Y-1.85
X7.575Y-1.525
X7.575Y-1.7
X7.575Y-1.85
X7.825Y-1.6
X7.825Y-1.7
X7.825Y-1.8
X7.825Y-1.9
T3
X3.Y-0.765
X3.Y-0.95
X3.Y-1.135
X3.5Y-0.765
X3.5Y-0.95
X3.5Y-1.135
X4.Y-0.765
X4.Y-0.95
X4.Y-1.135
X4.5Y-0.765
X4.5Y-0.95
X4.5Y-1.135
X5.Y-0.765
X5.Y-0.95
X5.Y-1.135
X5.5Y-0.765
X5.5Y-0.95
X5.5Y-1.135
X6.Y-0.765
X6.Y-0.95
X6.Y-1.135
X6.5Y-0.765
X6.5Y-0.95
X6.5Y-1.135
X7.Y-0.765
X7.Y-0.95
X7.Y-1.135
X7.5Y-0.765
X7.5Y-0.95
X7.5Y-1.135
X8.Y-0.765
X8.Y-0.95
X8.Y-1.135
X8.5Y-0.765
X8.5Y-0.95
X8.5Y-1.135
X9.Y-0.765
X9.Y-0.95
X9.Y-1.135
X9.5Y-0.765
X9.5Y-0.95
X9.5Y-1.135
X10.Y-0.765
X10.Y-0.95
X10.Y-1.135
X10.5Y-0.765
X10.5Y-0.95
X10.5Y-1.135
T0
M30
