M48
;DRILL file {KiCad 4.0.2-stable} date Friday, 12 August 2016 'pmt' 16:35:18
;FORMAT={-:-/ absolute / inch / decimal}
FMAT,2
INCH,TZ
T1C0.039
T2C0.039
T3C0.040
T4C0.118
%
G90
G05
M72
T1
X2.Y-3.275
X2.4966Y-3.264
X3.Y-3.2364
X3.5Y-3.2089
X4.Y-3.1813
X4.5Y-3.1537
X5.Y-3.1262
T2
X1.5Y-3.4
X1.5Y-3.5
X2.Y-3.4
X2.Y-3.5
X2.5Y-3.4
X2.5Y-3.5
X3.Y-3.4
X3.Y-3.5
X3.5Y-3.4
X3.5Y-3.5
X4.Y-3.4
X4.Y-3.5
X4.5Y-3.4
X4.5Y-3.5
X5.Y-3.4
X5.Y-3.5
X5.5Y-3.4
X5.5Y-3.5
X6.Y-3.4
X6.Y-3.5
X6.5Y-3.4
X6.5Y-3.5
X7.Y-3.4
X7.Y-3.5
X7.5Y-3.4
X7.5Y-3.5
X8.Y-3.4
X8.Y-3.5
X8.5Y-3.4
X8.5Y-3.5
X9.Y-3.4
X9.Y-3.5
T3
X1.85Y-2.95
X1.85Y-3.05
X1.95Y-2.95
X1.95Y-3.05
X2.05Y-2.95
X2.05Y-3.05
X2.15Y-2.95
X2.15Y-3.05
X2.25Y-2.95
X2.25Y-3.05
T4
X1.75Y-3.25
X8.75Y-3.25
T0
M30
