G04 #@! TF.FileFunction,Copper,L1,Top,Signal*
%FSLAX46Y46*%
G04 Gerber Fmt 4.6, Leading zero omitted, Abs format (unit mm)*
G04 Created by KiCad (PCBNEW 4.0.2-stable) date 13/08/2016 22:29:21*
%MOMM*%
G01*
G04 APERTURE LIST*
%ADD10C,0.100000*%
%ADD11R,1.300000X1.300000*%
%ADD12C,1.300000*%
%ADD13R,1.400000X1.400000*%
%ADD14C,1.400000*%
%ADD15R,3.500120X3.500120*%
%ADD16C,1.800000*%
%ADD17R,2.032000X1.727200*%
%ADD18O,2.032000X1.727200*%
%ADD19R,1.727200X2.032000*%
%ADD20O,1.727200X2.032000*%
%ADD21R,1.727200X1.727200*%
%ADD22O,1.727200X1.727200*%
%ADD23C,1.998980*%
%ADD24R,2.032000X2.032000*%
%ADD25C,2.032000*%
%ADD26C,1.524000*%
%ADD27C,1.600000*%
%ADD28C,0.600000*%
%ADD29C,0.400000*%
G04 APERTURE END LIST*
D10*
D11*
X29210000Y-118650000D03*
D12*
X29210000Y-120650000D03*
D13*
X36195000Y-117555000D03*
D14*
X36195000Y-122555000D03*
D13*
X49530000Y-158750000D03*
D14*
X49530000Y-163750000D03*
D15*
X102423000Y-104148140D03*
X102423000Y-98148660D03*
X97724000Y-101148400D03*
D16*
X102423000Y-93948000D03*
D15*
X84008000Y-104148140D03*
X84008000Y-98148660D03*
X79309000Y-101148400D03*
D16*
X84008000Y-93948000D03*
D17*
X22860000Y-186690000D03*
D18*
X22860000Y-189230000D03*
X22860000Y-191770000D03*
X22860000Y-194310000D03*
D17*
X22860000Y-170180000D03*
D18*
X22860000Y-172720000D03*
X22860000Y-175260000D03*
X22860000Y-177800000D03*
D17*
X27940000Y-186690000D03*
D18*
X27940000Y-189230000D03*
X27940000Y-191770000D03*
X27940000Y-194310000D03*
D17*
X27940000Y-170180000D03*
D18*
X27940000Y-172720000D03*
X27940000Y-175260000D03*
X27940000Y-177800000D03*
D17*
X33020000Y-186690000D03*
D18*
X33020000Y-189230000D03*
X33020000Y-191770000D03*
X33020000Y-194310000D03*
D17*
X33020000Y-170180000D03*
D18*
X33020000Y-172720000D03*
X33020000Y-175260000D03*
X33020000Y-177800000D03*
D17*
X38100000Y-186690000D03*
D18*
X38100000Y-189230000D03*
X38100000Y-191770000D03*
X38100000Y-194310000D03*
D17*
X38100000Y-170180000D03*
D18*
X38100000Y-172720000D03*
X38100000Y-175260000D03*
X38100000Y-177800000D03*
D17*
X43180000Y-186690000D03*
D18*
X43180000Y-189230000D03*
X43180000Y-191770000D03*
X43180000Y-194310000D03*
D17*
X43180000Y-170180000D03*
D18*
X43180000Y-172720000D03*
X43180000Y-175260000D03*
X43180000Y-177800000D03*
D17*
X48260000Y-186690000D03*
D18*
X48260000Y-189230000D03*
X48260000Y-191770000D03*
X48260000Y-194310000D03*
D17*
X48260000Y-170180000D03*
D18*
X48260000Y-172720000D03*
X48260000Y-175260000D03*
X48260000Y-177800000D03*
D17*
X53340000Y-186690000D03*
D18*
X53340000Y-189230000D03*
X53340000Y-191770000D03*
X53340000Y-194310000D03*
D17*
X53340000Y-170180000D03*
D18*
X53340000Y-172720000D03*
X53340000Y-175260000D03*
X53340000Y-177800000D03*
D17*
X58420000Y-186690000D03*
D18*
X58420000Y-189230000D03*
X58420000Y-191770000D03*
X58420000Y-194310000D03*
D17*
X58420000Y-170180000D03*
D18*
X58420000Y-172720000D03*
X58420000Y-175260000D03*
X58420000Y-177800000D03*
D17*
X63500000Y-186690000D03*
D18*
X63500000Y-189230000D03*
X63500000Y-191770000D03*
X63500000Y-194310000D03*
D17*
X63500000Y-170180000D03*
D18*
X63500000Y-172720000D03*
X63500000Y-175260000D03*
X63500000Y-177800000D03*
D19*
X52070000Y-110490000D03*
D20*
X54610000Y-110490000D03*
X57150000Y-110490000D03*
X59690000Y-110490000D03*
X62230000Y-110490000D03*
D21*
X95885000Y-194945000D03*
D22*
X95885000Y-192405000D03*
X98425000Y-194945000D03*
X98425000Y-192405000D03*
X100965000Y-194945000D03*
X100965000Y-192405000D03*
X103505000Y-194945000D03*
X103505000Y-192405000D03*
X106045000Y-194945000D03*
X106045000Y-192405000D03*
D21*
X78740000Y-184150000D03*
D22*
X78740000Y-181610000D03*
X81280000Y-184150000D03*
X81280000Y-181610000D03*
X83820000Y-184150000D03*
X83820000Y-181610000D03*
X86360000Y-184150000D03*
X86360000Y-181610000D03*
X88900000Y-184150000D03*
X88900000Y-181610000D03*
D21*
X95885000Y-173778000D03*
D22*
X95885000Y-171238000D03*
X98425000Y-173778000D03*
X98425000Y-171238000D03*
X100965000Y-173778000D03*
X100965000Y-171238000D03*
X103505000Y-173778000D03*
X103505000Y-171238000D03*
X106045000Y-173778000D03*
X106045000Y-171238000D03*
D21*
X78740000Y-162983000D03*
D22*
X78740000Y-160443000D03*
X81280000Y-162983000D03*
X81280000Y-160443000D03*
X83820000Y-162983000D03*
X83820000Y-160443000D03*
X86360000Y-162983000D03*
X86360000Y-160443000D03*
X88900000Y-162983000D03*
X88900000Y-160443000D03*
D21*
X78740000Y-141817000D03*
D22*
X78740000Y-139277000D03*
X81280000Y-141817000D03*
X81280000Y-139277000D03*
X83820000Y-141817000D03*
X83820000Y-139277000D03*
X86360000Y-141817000D03*
X86360000Y-139277000D03*
X88900000Y-141817000D03*
X88900000Y-139277000D03*
D21*
X78752400Y-120650000D03*
D22*
X78752400Y-118110000D03*
X81292400Y-120650000D03*
X81292400Y-118110000D03*
X83832400Y-120650000D03*
X83832400Y-118110000D03*
X86372400Y-120650000D03*
X86372400Y-118110000D03*
X88912400Y-120650000D03*
X88912400Y-118110000D03*
D21*
X95885000Y-152612000D03*
D22*
X95885000Y-150072000D03*
X98425000Y-152612000D03*
X98425000Y-150072000D03*
X100965000Y-152612000D03*
X100965000Y-150072000D03*
X103505000Y-152612000D03*
X103505000Y-150072000D03*
X106045000Y-152612000D03*
X106045000Y-150072000D03*
D21*
X95885000Y-131445000D03*
D22*
X95885000Y-128905000D03*
X98425000Y-131445000D03*
X98425000Y-128905000D03*
X100965000Y-131445000D03*
X100965000Y-128905000D03*
X103505000Y-131445000D03*
X103505000Y-128905000D03*
X106045000Y-131445000D03*
X106045000Y-128905000D03*
D19*
X77470000Y-107950000D03*
D20*
X80010000Y-107950000D03*
X82550000Y-107950000D03*
D17*
X68580000Y-92710000D03*
D18*
X68580000Y-95250000D03*
X68580000Y-97790000D03*
D17*
X52070000Y-92710000D03*
D18*
X52070000Y-95250000D03*
X52070000Y-97790000D03*
X52070000Y-100330000D03*
D23*
X26670000Y-137160000D03*
X26670000Y-127000000D03*
X36830000Y-137160000D03*
X36830000Y-127000000D03*
X26670000Y-149860000D03*
X26670000Y-139700000D03*
X36830000Y-149860000D03*
X36830000Y-139700000D03*
X26670000Y-162560000D03*
X26670000Y-152400000D03*
X36830000Y-162560000D03*
X36830000Y-152400000D03*
X40640000Y-137160000D03*
X50800000Y-137160000D03*
X29210000Y-113030000D03*
X39370000Y-113030000D03*
X25400000Y-95250000D03*
X15240000Y-95250000D03*
X38100000Y-95250000D03*
X27940000Y-95250000D03*
X25400000Y-91440000D03*
X15240000Y-91440000D03*
X38100000Y-91440000D03*
X27940000Y-91440000D03*
D21*
X19050000Y-104140000D03*
D22*
X21590000Y-104140000D03*
X19050000Y-106680000D03*
X21590000Y-106680000D03*
X19050000Y-109220000D03*
X21590000Y-109220000D03*
X19050000Y-111760000D03*
X21590000Y-111760000D03*
X19050000Y-114300000D03*
X21590000Y-114300000D03*
X19050000Y-116840000D03*
X21590000Y-116840000D03*
X19050000Y-119380000D03*
X21590000Y-119380000D03*
X19050000Y-121920000D03*
X21590000Y-121920000D03*
X19050000Y-124460000D03*
X21590000Y-124460000D03*
X19050000Y-127000000D03*
X21590000Y-127000000D03*
X19050000Y-129540000D03*
X21590000Y-129540000D03*
X19050000Y-132080000D03*
X21590000Y-132080000D03*
X19050000Y-134620000D03*
X21590000Y-134620000D03*
X19050000Y-137160000D03*
X21590000Y-137160000D03*
X19050000Y-139700000D03*
X21590000Y-139700000D03*
X19050000Y-142240000D03*
X21590000Y-142240000D03*
X19050000Y-144780000D03*
X21590000Y-144780000D03*
X19050000Y-147320000D03*
X21590000Y-147320000D03*
X19050000Y-149860000D03*
X21590000Y-149860000D03*
X19050000Y-152400000D03*
X21590000Y-152400000D03*
D24*
X44450000Y-154305000D03*
D25*
X46990000Y-154305000D03*
X49530000Y-154305000D03*
X52070000Y-154305000D03*
X54610000Y-154305000D03*
X57150000Y-154305000D03*
X59690000Y-154305000D03*
X62230000Y-154305000D03*
X64770000Y-154305000D03*
X67310000Y-154305000D03*
X69850000Y-154305000D03*
X72390000Y-154305000D03*
X72390000Y-146685000D03*
X69850000Y-146685000D03*
X67310000Y-146685000D03*
X64770000Y-146685000D03*
X62230000Y-146685000D03*
X59690000Y-146685000D03*
X57150000Y-146685000D03*
X54610000Y-146685000D03*
X52070000Y-146685000D03*
X49530000Y-146685000D03*
X46990000Y-146685000D03*
X44450000Y-146685000D03*
D24*
X44450000Y-128270000D03*
D25*
X46990000Y-128270000D03*
X49530000Y-128270000D03*
X52070000Y-128270000D03*
X54610000Y-128270000D03*
X57150000Y-128270000D03*
X59690000Y-128270000D03*
X62230000Y-128270000D03*
X64770000Y-128270000D03*
X67310000Y-128270000D03*
X69850000Y-128270000D03*
X72390000Y-128270000D03*
X72390000Y-120650000D03*
X69850000Y-120650000D03*
X67310000Y-120650000D03*
X64770000Y-120650000D03*
X62230000Y-120650000D03*
X59690000Y-120650000D03*
X57150000Y-120650000D03*
X54610000Y-120650000D03*
X52070000Y-120650000D03*
X49530000Y-120650000D03*
X46990000Y-120650000D03*
X44450000Y-120650000D03*
D11*
X43180000Y-160560000D03*
D12*
X43180000Y-162560000D03*
D26*
X17780000Y-182245000D03*
X20320000Y-182245000D03*
X15240000Y-182245000D03*
X21590000Y-163195000D03*
X24130000Y-163195000D03*
X19050000Y-163195000D03*
X31115000Y-127000000D03*
X28575000Y-127000000D03*
X33655000Y-127000000D03*
X31115000Y-139700000D03*
X28575000Y-139700000D03*
X33655000Y-139700000D03*
X30480000Y-152400000D03*
X27940000Y-152400000D03*
X33020000Y-152400000D03*
D27*
X64770000Y-107950000D03*
X44155600Y-108717900D03*
X14735020Y-167005000D03*
X15240000Y-118745000D03*
X29782500Y-122743200D03*
X80248400Y-153559500D03*
X91432100Y-167912500D03*
X83312400Y-172722600D03*
X92582400Y-178707800D03*
X81610100Y-167773800D03*
X92888700Y-192962200D03*
X90380100Y-165665200D03*
X85469400Y-187252700D03*
X90970700Y-163274900D03*
X89621700Y-189148200D03*
X88143400Y-172896100D03*
X101183600Y-185626200D03*
X104655300Y-185766300D03*
X105455700Y-180224300D03*
X102577500Y-180128900D03*
X90685300Y-176337500D03*
X74236900Y-164606500D03*
X73383300Y-157231000D03*
X77848543Y-131626543D03*
X76809391Y-129917681D03*
X81531100Y-130659800D03*
X89807900Y-147594200D03*
X86039900Y-131595100D03*
X92991500Y-132595700D03*
X87059300Y-145676700D03*
X83820000Y-133930700D03*
X91832400Y-134544600D03*
X89307000Y-132818200D03*
X92108000Y-122278000D03*
X88005900Y-135077700D03*
X87941300Y-124730200D03*
X104969000Y-134780500D03*
X96075800Y-145303800D03*
X69850000Y-132368900D03*
X92673800Y-125444100D03*
X18905784Y-156989227D03*
X21552543Y-155537529D03*
X39115000Y-124473400D03*
D28*
X57150000Y-120650000D02*
X53340000Y-116840000D01*
X53340000Y-116840000D02*
X39370000Y-116840000D01*
X39370000Y-116840000D02*
X38655000Y-117555000D01*
X38655000Y-117555000D02*
X36195000Y-117555000D01*
X38735000Y-156115000D02*
X43180000Y-160560000D01*
X38735000Y-151765000D02*
X38735000Y-156115000D01*
X36830000Y-149860000D02*
X38735000Y-151765000D01*
X53340000Y-142875000D02*
X57150000Y-146685000D01*
X43815000Y-142875000D02*
X53340000Y-142875000D01*
X40640000Y-146050000D02*
X43815000Y-142875000D01*
X37829500Y-148861000D02*
X40640000Y-146050000D01*
X36830000Y-149860000D02*
X37829500Y-148861000D01*
X29210000Y-118650000D02*
X29210000Y-113030000D01*
X30305000Y-117555000D02*
X29210000Y-118650000D01*
X36195000Y-117555000D02*
X30305000Y-117555000D01*
X40640000Y-137160000D02*
X36830000Y-137160000D01*
X40640000Y-146050000D02*
X40640000Y-137160000D01*
X49530000Y-160050000D02*
X49530000Y-158750000D01*
X49020000Y-160560000D02*
X49530000Y-160050000D01*
X43180000Y-160560000D02*
X49020000Y-160560000D01*
X38830000Y-160560000D02*
X36830000Y-162560000D01*
X43180000Y-160560000D02*
X38830000Y-160560000D01*
X21590000Y-109220000D02*
X23495000Y-107315000D01*
X23495000Y-107315000D02*
X23495000Y-103505000D01*
X18602806Y-101600000D02*
X17145000Y-103057806D01*
X23495000Y-103505000D02*
X21590000Y-101600000D01*
X21590000Y-101600000D02*
X18602806Y-101600000D01*
X17145000Y-103057806D02*
X17145000Y-112395000D01*
X17145000Y-112395000D02*
X19050000Y-114300000D01*
X22860000Y-127000000D02*
X23495000Y-127635000D01*
X23495000Y-127635000D02*
X23495000Y-139065000D01*
X23495000Y-139065000D02*
X22860000Y-139700000D01*
X21590000Y-119380000D02*
X23495000Y-121285000D01*
X23495000Y-121285000D02*
X23495000Y-126365000D01*
X23495000Y-126365000D02*
X22860000Y-127000000D01*
X22860000Y-127000000D02*
X22225000Y-127000000D01*
X21590000Y-109220000D02*
X23495000Y-111125000D01*
X23495000Y-111125000D02*
X23495000Y-118110000D01*
X23495000Y-118110000D02*
X22225000Y-119380000D01*
X22225000Y-119380000D02*
X21590000Y-119380000D01*
X21590000Y-127000000D02*
X22225000Y-127000000D01*
X21590000Y-139700000D02*
X22860000Y-139700000D01*
X23495000Y-144145000D02*
X22860000Y-144780000D01*
X22860000Y-139700000D02*
X23495000Y-140335000D01*
X23495000Y-140335000D02*
X23495000Y-144145000D01*
X22860000Y-144780000D02*
X21590000Y-144780000D01*
X52070000Y-108874000D02*
X52070000Y-100330000D01*
X52070000Y-161210000D02*
X52070000Y-154305000D01*
X49530000Y-163750000D02*
X52070000Y-161210000D01*
X49530000Y-168910000D02*
X48260000Y-170180000D01*
X49530000Y-163750000D02*
X49530000Y-168910000D01*
X58420000Y-170180000D02*
X63500000Y-170180000D01*
X53340000Y-170180000D02*
X58420000Y-170180000D01*
X48260000Y-170180000D02*
X53340000Y-170180000D01*
X43180000Y-170180000D02*
X48260000Y-170180000D01*
X38100000Y-170180000D02*
X43180000Y-170180000D01*
X33020000Y-170180000D02*
X38100000Y-170180000D01*
X27940000Y-170180000D02*
X33020000Y-170180000D01*
X22860000Y-170180000D02*
X27940000Y-170180000D01*
X58420000Y-186690000D02*
X63500000Y-186690000D01*
X53340000Y-186690000D02*
X58420000Y-186690000D01*
X48260000Y-186690000D02*
X53340000Y-186690000D01*
X43180000Y-186690000D02*
X48260000Y-186690000D01*
X38100000Y-186690000D02*
X43180000Y-186690000D01*
X33020000Y-186690000D02*
X38100000Y-186690000D01*
X27940000Y-186690000D02*
X33020000Y-186690000D01*
X22860000Y-186690000D02*
X27940000Y-186690000D01*
X60960000Y-132080000D02*
X64770000Y-128270000D01*
X48260000Y-132080000D02*
X60960000Y-132080000D01*
X52994000Y-107950000D02*
X64770000Y-107950000D01*
X52070000Y-108874000D02*
X52994000Y-107950000D01*
X22860000Y-120650000D02*
X21590000Y-119380000D01*
X29210000Y-120650000D02*
X22860000Y-120650000D01*
X34290000Y-120650000D02*
X36195000Y-122555000D01*
X29210000Y-120650000D02*
X34290000Y-120650000D01*
X48340000Y-162560000D02*
X49530000Y-163750000D01*
X43180000Y-162560000D02*
X48340000Y-162560000D01*
X20613600Y-153964000D02*
X19050000Y-152400000D01*
X22566400Y-153964000D02*
X20613600Y-153964000D01*
X23495000Y-153035000D02*
X22566400Y-153964000D01*
X23495000Y-146685000D02*
X23495000Y-153035000D01*
X21590000Y-144780000D02*
X23495000Y-146685000D01*
X63500000Y-170180000D02*
X63652400Y-170180000D01*
X63754000Y-161036000D02*
X62230000Y-162560000D01*
X63754000Y-155321000D02*
X63754000Y-161036000D01*
X64770000Y-154305000D02*
X63754000Y-155321000D01*
X62230000Y-162560000D02*
X61595000Y-163195000D01*
X61040000Y-163750000D02*
X61595000Y-163195000D01*
X49530000Y-163750000D02*
X61040000Y-163750000D01*
X61595000Y-163195000D02*
X62230000Y-162560000D01*
X52070000Y-110490000D02*
X52070000Y-108874000D01*
X41910000Y-132080000D02*
X48260000Y-132080000D01*
X39370000Y-129540000D02*
X41910000Y-132080000D01*
X39370000Y-127000000D02*
X39370000Y-129540000D01*
X36195000Y-123825000D02*
X39370000Y-127000000D01*
X36195000Y-122555000D02*
X36195000Y-123825000D01*
X48260000Y-132080000D02*
X52070000Y-128270000D01*
X84008000Y-104148000D02*
X84008000Y-104148100D01*
X84008000Y-106492000D02*
X82550000Y-107950000D01*
X84008000Y-104148100D02*
X84008000Y-106492000D01*
X26670000Y-162560000D02*
X25670511Y-161560511D01*
X25670511Y-161560511D02*
X15140522Y-161560511D01*
X13600011Y-160020000D02*
X15140522Y-161560511D01*
X19050000Y-124460000D02*
X13600011Y-129909989D01*
X13600011Y-129909989D02*
X13600011Y-160020000D01*
X27940000Y-189230000D02*
X33020000Y-189230000D01*
X58420000Y-172720000D02*
X63500000Y-172720000D01*
X53340000Y-172720000D02*
X58420000Y-172720000D01*
X48260000Y-172720000D02*
X53340000Y-172720000D01*
X43180000Y-172720000D02*
X48260000Y-172720000D01*
X38100000Y-172720000D02*
X43180000Y-172720000D01*
X33020000Y-172720000D02*
X38100000Y-172720000D01*
X27940000Y-172720000D02*
X33020000Y-172720000D01*
X22860000Y-172720000D02*
X27940000Y-172720000D01*
X58420000Y-189230000D02*
X63500000Y-189230000D01*
X53340000Y-189230000D02*
X58420000Y-189230000D01*
X48260000Y-189230000D02*
X53340000Y-189230000D01*
X43180000Y-189230000D02*
X48260000Y-189230000D01*
X38100000Y-189230000D02*
X43180000Y-189230000D01*
X33020000Y-189230000D02*
X38100000Y-189230000D01*
X22860000Y-172720000D02*
X22707600Y-172720000D01*
X22860000Y-189230000D02*
X26670000Y-189230000D01*
X26670000Y-189230000D02*
X26940000Y-189230000D01*
X27940000Y-189230000D02*
X26940000Y-189230000D01*
X26940000Y-189230000D02*
X26670000Y-189230000D01*
X44155600Y-100624400D02*
X52070000Y-92710000D01*
X44155600Y-108717900D02*
X44155600Y-100624400D01*
D29*
X22860000Y-175260000D02*
X22225000Y-175260000D01*
X22225000Y-175260000D02*
X20955000Y-173990000D01*
X19050000Y-167005000D02*
X14735020Y-167005000D01*
X20955000Y-173990000D02*
X20955000Y-168910000D01*
X20955000Y-168910000D02*
X19050000Y-167005000D01*
X22860000Y-191770000D02*
X22707600Y-191770000D01*
D28*
X58420000Y-191770000D02*
X63500000Y-191770000D01*
X53340000Y-191770000D02*
X58420000Y-191770000D01*
X48260000Y-191770000D02*
X53340000Y-191770000D01*
X43180000Y-191770000D02*
X48260000Y-191770000D01*
X38100000Y-191770000D02*
X43180000Y-191770000D01*
X33020000Y-191770000D02*
X38100000Y-191770000D01*
X27940000Y-191770000D02*
X33020000Y-191770000D01*
X22860000Y-191770000D02*
X27940000Y-191770000D01*
X58420000Y-175260000D02*
X63500000Y-175260000D01*
X53340000Y-175260000D02*
X58420000Y-175260000D01*
X48260000Y-175260000D02*
X53340000Y-175260000D01*
X43180000Y-175260000D02*
X48260000Y-175260000D01*
X38100000Y-175260000D02*
X43180000Y-175260000D01*
X33020000Y-175260000D02*
X38100000Y-175260000D01*
X27940000Y-175260000D02*
X33020000Y-175260000D01*
X22860000Y-175260000D02*
X27940000Y-175260000D01*
D29*
X12700000Y-164465000D02*
X12700000Y-121285000D01*
X12700000Y-121285000D02*
X15240000Y-118745000D01*
X15240000Y-182245000D02*
X15240000Y-181167370D01*
X15240000Y-181167370D02*
X13970000Y-179897370D01*
X13970000Y-179897370D02*
X13970000Y-170180000D01*
X13970000Y-170180000D02*
X12700000Y-168910000D01*
X13970000Y-163195000D02*
X19050000Y-163195000D01*
X12700000Y-168910000D02*
X12700000Y-164465000D01*
X12700000Y-164465000D02*
X13970000Y-163195000D01*
X59690000Y-146050000D02*
X59690000Y-146685000D01*
X50800000Y-137160000D02*
X59690000Y-146050000D01*
X54610000Y-115570000D02*
X59690000Y-120650000D01*
X41910000Y-115570000D02*
X54610000Y-115570000D01*
X39370000Y-113030000D02*
X41910000Y-115570000D01*
X25400000Y-95250000D02*
X22860000Y-95250000D01*
X22860000Y-95250000D02*
X15875000Y-102235000D01*
X15875000Y-102235000D02*
X15875000Y-113665000D01*
X15875000Y-113665000D02*
X19050000Y-116840000D01*
X25400000Y-91440000D02*
X14605000Y-102235000D01*
X14605000Y-102235000D02*
X14605000Y-114935000D01*
X14605000Y-114935000D02*
X19050000Y-119380000D01*
D28*
X77658000Y-98149000D02*
X84007700Y-98149000D01*
X76388000Y-99419000D02*
X77658000Y-98149000D01*
X76388000Y-105252000D02*
X76388000Y-99419000D01*
X77470000Y-106334000D02*
X76388000Y-105252000D01*
X77470000Y-107950000D02*
X77470000Y-106334000D01*
X84007700Y-98149000D02*
X84008000Y-98149000D01*
X84007700Y-98149000D02*
X84008000Y-98148700D01*
D29*
X22707600Y-194310000D02*
X20955000Y-192557400D01*
X20955000Y-192557400D02*
X20955000Y-183957630D01*
X20320000Y-183322630D02*
X20320000Y-182245000D01*
X20955000Y-183957630D02*
X20320000Y-183322630D01*
D28*
X58420000Y-194310000D02*
X63500000Y-194310000D01*
X53340000Y-194310000D02*
X58420000Y-194310000D01*
X48260000Y-194310000D02*
X53340000Y-194310000D01*
X43180000Y-194310000D02*
X48260000Y-194310000D01*
X38100000Y-194310000D02*
X43180000Y-194310000D01*
X33020000Y-194310000D02*
X38100000Y-194310000D01*
X27940000Y-194310000D02*
X33020000Y-194310000D01*
X22860000Y-194310000D02*
X27940000Y-194310000D01*
X58420000Y-177800000D02*
X63500000Y-177800000D01*
X53340000Y-177800000D02*
X58420000Y-177800000D01*
X48260000Y-177800000D02*
X53340000Y-177800000D01*
X43180000Y-177800000D02*
X48260000Y-177800000D01*
X38100000Y-177800000D02*
X43180000Y-177800000D01*
X33020000Y-177800000D02*
X38100000Y-177800000D01*
X27940000Y-177800000D02*
X33020000Y-177800000D01*
X22860000Y-177800000D02*
X27940000Y-177800000D01*
D29*
X24765000Y-128270000D02*
X24765000Y-126537752D01*
X24765000Y-126537752D02*
X28559552Y-122743200D01*
X28559552Y-122743200D02*
X28651130Y-122743200D01*
X28651130Y-122743200D02*
X29782500Y-122743200D01*
X30480000Y-133985000D02*
X24765000Y-128270000D01*
X33655000Y-138622370D02*
X30480000Y-135447370D01*
X30480000Y-135447370D02*
X30480000Y-133985000D01*
X33655000Y-139700000D02*
X33655000Y-138622370D01*
X36830000Y-139700000D02*
X33655000Y-139700000D01*
X59690000Y-110490000D02*
X59690000Y-110642000D01*
X59690000Y-110642000D02*
X67158000Y-118110000D01*
X67158000Y-118110000D02*
X70485000Y-118110000D01*
X70485000Y-118110000D02*
X72390000Y-120015000D01*
X72390000Y-120015000D02*
X72390000Y-120650000D01*
X36830000Y-127000000D02*
X36830000Y-128413492D01*
X36830000Y-128413492D02*
X41410808Y-132994300D01*
X41410808Y-132994300D02*
X41482800Y-132994300D01*
X67665700Y-132994300D02*
X67665700Y-141325700D01*
X72752700Y-142240000D02*
X80248400Y-149735700D01*
X67665700Y-141325700D02*
X68580000Y-142240000D01*
X68580000Y-142240000D02*
X72752700Y-142240000D01*
X80248400Y-149735700D02*
X80248400Y-153559500D01*
X41482800Y-132994300D02*
X67665700Y-132994300D01*
X67665700Y-132573000D02*
X67665700Y-132994300D01*
X69270100Y-130968600D02*
X67665700Y-132573000D01*
X69691400Y-130968600D02*
X69270100Y-130968600D01*
X72390000Y-128270000D02*
X69691400Y-130968600D01*
X77244600Y-182654600D02*
X78740000Y-184150000D01*
X77244600Y-165942300D02*
X77244600Y-182654600D01*
X78740000Y-164446900D02*
X77244600Y-165942300D01*
X78740000Y-162983000D02*
X78740000Y-164446900D01*
X77244600Y-161487600D02*
X78740000Y-162983000D01*
X77244600Y-152231600D02*
X77244600Y-161487600D01*
X73615500Y-148602500D02*
X77244600Y-152231600D01*
X71767500Y-148602500D02*
X73615500Y-148602500D01*
X69850000Y-146685000D02*
X71767500Y-148602500D01*
X91432100Y-169325100D02*
X95885000Y-173778000D01*
X91432100Y-167912500D02*
X91432100Y-169325100D01*
X95885000Y-192405000D02*
X94615000Y-192405000D01*
X92582400Y-190372400D02*
X92582400Y-178707800D01*
X94615000Y-192405000D02*
X92582400Y-190372400D01*
X78740000Y-181610000D02*
X78740000Y-180146100D01*
X83312400Y-175573700D02*
X83312400Y-172722600D01*
X78740000Y-180146100D02*
X83312400Y-175573700D01*
X81610100Y-171020300D02*
X81610100Y-167773800D01*
X83312400Y-172722600D02*
X81610100Y-171020300D01*
X98425000Y-194945000D02*
X98425000Y-196408900D01*
X81280000Y-184150000D02*
X81280000Y-185613900D01*
X92888700Y-194567300D02*
X92888700Y-192962200D01*
X94730300Y-196408900D02*
X92888700Y-194567300D01*
X98425000Y-196408900D02*
X94730300Y-196408900D01*
X77596600Y-185613900D02*
X81280000Y-185613900D01*
X76444200Y-184461500D02*
X77596600Y-185613900D01*
X76444200Y-152677900D02*
X76444200Y-184461500D01*
X74036400Y-150270100D02*
X76444200Y-152677900D01*
X68355100Y-150270100D02*
X74036400Y-150270100D01*
X64770000Y-146685000D02*
X68355100Y-150270100D01*
X98425000Y-173778000D02*
X98425000Y-175241900D01*
X94763500Y-175241900D02*
X98425000Y-175241900D01*
X90031800Y-170510200D02*
X94763500Y-175241900D01*
X90031800Y-166013500D02*
X90031800Y-170510200D01*
X90380100Y-165665200D02*
X90031800Y-166013500D01*
X78064800Y-187252700D02*
X85469400Y-187252700D01*
X75643900Y-184831800D02*
X78064800Y-187252700D01*
X75643900Y-153009300D02*
X75643900Y-184831800D01*
X73705000Y-151070400D02*
X75643900Y-153009300D01*
X50224600Y-151070400D02*
X73705000Y-151070400D01*
X46990000Y-154305000D02*
X50224600Y-151070400D01*
X100965000Y-173778000D02*
X100965000Y-175241900D01*
X100137900Y-176069000D02*
X92503300Y-176069000D01*
X100965000Y-175241900D02*
X100137900Y-176069000D01*
X90734300Y-163274900D02*
X90970700Y-163274900D01*
X88950000Y-165059200D02*
X90734300Y-163274900D01*
X88950000Y-170560200D02*
X88950000Y-165059200D01*
X92503300Y-174113500D02*
X88950000Y-170560200D01*
X92503300Y-176069000D02*
X92503300Y-174113500D01*
X85284000Y-185614000D02*
X89541200Y-185614000D01*
X83820000Y-184150000D02*
X85284000Y-185614000D01*
X92503300Y-176720800D02*
X92503300Y-176069000D01*
X91182000Y-178042100D02*
X92503300Y-176720800D01*
X91182000Y-183973200D02*
X91182000Y-178042100D01*
X89541200Y-185614000D02*
X91182000Y-183973200D01*
X100965000Y-194945000D02*
X100965000Y-196408900D01*
X91022000Y-187094800D02*
X89541200Y-185614000D01*
X91022000Y-193837100D02*
X91022000Y-187094800D01*
X94406100Y-197221200D02*
X91022000Y-193837100D01*
X100152700Y-197221200D02*
X94406100Y-197221200D01*
X100965000Y-196408900D02*
X100152700Y-197221200D01*
X78828600Y-189148200D02*
X89621700Y-189148200D01*
X69850000Y-180169600D02*
X78828600Y-189148200D01*
X69850000Y-154305000D02*
X69850000Y-180169600D01*
X86360000Y-162983000D02*
X86360000Y-171112700D01*
X103505000Y-173778000D02*
X103505000Y-175241900D01*
X88143400Y-172896100D02*
X86360000Y-171112700D01*
X101323700Y-185766300D02*
X101183600Y-185626200D01*
X104655300Y-185766300D02*
X101323700Y-185766300D01*
X101177200Y-185619800D02*
X101183600Y-185626200D01*
X101177200Y-177569700D02*
X101177200Y-185619800D01*
X103505000Y-175241900D02*
X101177200Y-177569700D01*
X86360000Y-160443000D02*
X86360000Y-157480000D01*
X86360000Y-157480000D02*
X84640100Y-155760100D01*
X78047700Y-154537000D02*
X78047700Y-150054700D01*
X78047700Y-150054700D02*
X73032500Y-145039500D01*
X84640100Y-155760100D02*
X79270800Y-155760100D01*
X79270800Y-155760100D02*
X78047700Y-154537000D01*
X73032500Y-145039500D02*
X68955500Y-145039500D01*
X68955500Y-145039500D02*
X67310000Y-146685000D01*
X103505000Y-192405000D02*
X103505000Y-190941100D01*
X106055600Y-180824200D02*
X105455700Y-180224300D01*
X106055600Y-188390500D02*
X106055600Y-180824200D01*
X103505000Y-190941100D02*
X106055600Y-188390500D01*
X102672900Y-180224300D02*
X102577500Y-180128900D01*
X105455700Y-180224300D02*
X102672900Y-180224300D01*
X107521800Y-193468200D02*
X106045000Y-194945000D01*
X107521800Y-176718700D02*
X107521800Y-193468200D01*
X106045000Y-175241900D02*
X107521800Y-176718700D01*
X106045000Y-173778000D02*
X106045000Y-175241900D01*
X90381600Y-182668400D02*
X88900000Y-184150000D01*
X90381600Y-176337500D02*
X90381600Y-182668400D01*
X90685300Y-176337500D02*
X90381600Y-176337500D01*
X88149700Y-163733300D02*
X88900000Y-162983000D01*
X88149700Y-170891700D02*
X88149700Y-163733300D01*
X90381600Y-173123600D02*
X88149700Y-170891700D01*
X90381600Y-176337500D02*
X90381600Y-173123600D01*
X64675800Y-144239200D02*
X62230000Y-146685000D01*
X73363900Y-144239200D02*
X64675800Y-144239200D01*
X78848000Y-149723300D02*
X73363900Y-144239200D01*
X88900000Y-158888614D02*
X84971186Y-154959800D01*
X79649000Y-154959800D02*
X78848000Y-154158800D01*
X88900000Y-160443000D02*
X88900000Y-158888614D01*
X84971186Y-154959800D02*
X79649000Y-154959800D01*
X78848000Y-154158800D02*
X78848000Y-149723300D01*
X95250000Y-160443000D02*
X106045000Y-171238000D01*
X88900000Y-160443000D02*
X95250000Y-160443000D01*
X74843600Y-163999800D02*
X74236900Y-164606500D01*
X74843600Y-153340700D02*
X74843600Y-163999800D01*
X73373600Y-151870700D02*
X74843600Y-153340700D01*
X51964300Y-151870700D02*
X73373600Y-151870700D01*
X49530000Y-154305000D02*
X51964300Y-151870700D01*
X74006400Y-156607900D02*
X73383300Y-157231000D01*
X74006400Y-153635400D02*
X74006400Y-156607900D01*
X73042100Y-152671100D02*
X74006400Y-153635400D01*
X56243900Y-152671100D02*
X73042100Y-152671100D01*
X54610000Y-154305000D02*
X56243900Y-152671100D01*
X76717173Y-131626543D02*
X77848543Y-131626543D01*
X74764990Y-133578726D02*
X76717173Y-131626543D01*
X74764990Y-139105590D02*
X74764990Y-133578726D01*
X77476400Y-141817000D02*
X74764990Y-139105590D01*
X78740000Y-141817000D02*
X77476400Y-141817000D01*
X78752400Y-120650000D02*
X78752400Y-130722686D01*
X78752400Y-130722686D02*
X77848543Y-131626543D01*
X89535000Y-152612000D02*
X78740000Y-141817000D01*
X95885000Y-152612000D02*
X89535000Y-152612000D01*
X95885000Y-150072000D02*
X95462000Y-150072000D01*
X94421100Y-128905000D02*
X95885000Y-128905000D01*
X95462000Y-150072000D02*
X93345000Y-147955000D01*
X93345000Y-147955000D02*
X93345000Y-146685000D01*
X93345000Y-146685000D02*
X94421100Y-145608900D01*
X94421100Y-145608900D02*
X94421100Y-128905000D01*
X78740000Y-139277000D02*
X77682000Y-139277000D01*
X75565000Y-134620000D02*
X76835000Y-133350000D01*
X77682000Y-139277000D02*
X75565000Y-137160000D01*
X75565000Y-137160000D02*
X75565000Y-134620000D01*
X76835000Y-133350000D02*
X78105000Y-133350000D01*
X78105000Y-133350000D02*
X80795200Y-130659800D01*
X80795200Y-130659800D02*
X81531100Y-130659800D01*
X77287488Y-128308214D02*
X76809391Y-128786311D01*
X78752400Y-118110000D02*
X77888801Y-118973599D01*
X77888801Y-118973599D02*
X77791701Y-118973599D01*
X76809391Y-128786311D02*
X76809391Y-129917681D01*
X77791701Y-118973599D02*
X77287488Y-119477812D01*
X77287488Y-119477812D02*
X77287488Y-128308214D01*
X81292400Y-126847600D02*
X86039900Y-131595100D01*
X81292400Y-120650000D02*
X81292400Y-126847600D01*
X86969200Y-147594200D02*
X89807900Y-147594200D01*
X81280000Y-141905000D02*
X86969200Y-147594200D01*
X81280000Y-141817000D02*
X81280000Y-141905000D01*
X93232700Y-132836900D02*
X92991500Y-132595700D01*
X93232700Y-144169400D02*
X93232700Y-132836900D01*
X89807900Y-147594200D02*
X93232700Y-144169400D01*
X54610000Y-120650000D02*
X56226400Y-122266400D01*
X82457000Y-115028000D02*
X84455000Y-113030000D01*
X108354500Y-127955300D02*
X108354500Y-131271600D01*
X56226400Y-122266400D02*
X73110200Y-122266400D01*
X73110200Y-122266400D02*
X74030600Y-121346000D01*
X108354500Y-131271600D02*
X106669800Y-132956300D01*
X74030600Y-121346000D02*
X74030600Y-118376500D01*
X74030600Y-118376500D02*
X77379100Y-115028000D01*
X77379100Y-115028000D02*
X82457000Y-115028000D01*
X84455000Y-113030000D02*
X93429200Y-113030000D01*
X93429200Y-113030000D02*
X108354500Y-127955300D01*
X107541900Y-133828400D02*
X106669800Y-132956300D01*
X107541900Y-153212700D02*
X107541900Y-133828400D01*
X106646500Y-154108100D02*
X107541900Y-153212700D01*
X102461100Y-154108100D02*
X106646500Y-154108100D01*
X100965000Y-152612000D02*
X102461100Y-154108100D01*
X102476300Y-132956300D02*
X100965000Y-131445000D01*
X106669800Y-132956300D02*
X102476300Y-132956300D01*
X83820000Y-141817000D02*
X83820000Y-143280900D01*
X86215800Y-145676700D02*
X83820000Y-143280900D01*
X87059300Y-145676700D02*
X86215800Y-145676700D01*
X83820000Y-139277000D02*
X83820000Y-133930700D01*
X91832400Y-141012000D02*
X91832400Y-134544600D01*
X89563400Y-143281000D02*
X91832400Y-141012000D01*
X87824000Y-143281000D02*
X89563400Y-143281000D01*
X86360000Y-141817000D02*
X87824000Y-143281000D01*
X86372400Y-120650000D02*
X86372400Y-122113900D01*
X87305300Y-122113900D02*
X86372400Y-122113900D01*
X89341600Y-124150200D02*
X87305300Y-122113900D01*
X89341600Y-132783600D02*
X89341600Y-124150200D01*
X89307000Y-132818200D02*
X89341600Y-132783600D01*
X86360000Y-139277000D02*
X86360000Y-137813100D01*
X88005900Y-136167200D02*
X86360000Y-137813100D01*
X88005900Y-135077700D02*
X88005900Y-136167200D01*
X92108000Y-119186000D02*
X92108000Y-122278000D01*
X89568000Y-116646000D02*
X92108000Y-119186000D01*
X87836400Y-116646000D02*
X89568000Y-116646000D01*
X86372400Y-118110000D02*
X87836400Y-116646000D01*
X87871200Y-134943000D02*
X88005900Y-135077700D01*
X87871200Y-124800300D02*
X87871200Y-134943000D01*
X87941300Y-124730200D02*
X87871200Y-124800300D01*
X88912400Y-120650000D02*
X88912400Y-122113900D01*
X103311100Y-124043800D02*
X90707600Y-124043800D01*
X107554100Y-128286800D02*
X103311100Y-124043800D01*
X107554100Y-129935900D02*
X107554100Y-128286800D01*
X106045000Y-131445000D02*
X107554100Y-129935900D01*
X90707600Y-123909100D02*
X90707600Y-124043800D01*
X88912400Y-122113900D02*
X90707600Y-123909100D01*
X90364100Y-140352900D02*
X88900000Y-141817000D01*
X90364100Y-133887000D02*
X90364100Y-140352900D01*
X90707600Y-133543500D02*
X90364100Y-133887000D01*
X90707600Y-124043800D02*
X90707600Y-133543500D01*
X104969000Y-145303800D02*
X96075800Y-145303800D01*
X106045000Y-146379800D02*
X104969000Y-145303800D01*
X106045000Y-150072000D02*
X106045000Y-146379800D01*
X104969000Y-145303800D02*
X104969000Y-134780500D01*
X70612700Y-132368900D02*
X69850000Y-132368900D01*
X76390800Y-126590800D02*
X70612700Y-132368900D01*
X76390800Y-118378200D02*
X76390800Y-126590800D01*
X78140200Y-116628800D02*
X76390800Y-118378200D01*
X79811200Y-116628800D02*
X78140200Y-116628800D01*
X81292400Y-118110000D02*
X79811200Y-116628800D01*
X61820000Y-126140000D02*
X59690000Y-128270000D01*
X70391500Y-126140000D02*
X61820000Y-126140000D01*
X74927600Y-121603900D02*
X70391500Y-126140000D01*
X74927600Y-118686500D02*
X74927600Y-121603900D01*
X77785700Y-115828400D02*
X74927600Y-118686500D01*
X81550800Y-115828400D02*
X77785700Y-115828400D01*
X83832400Y-118110000D02*
X81550800Y-115828400D01*
X92673800Y-125444100D02*
X94229700Y-127000000D01*
X94229700Y-127000000D02*
X96520000Y-127000000D01*
X96520000Y-127000000D02*
X98425000Y-128905000D01*
X26670000Y-139700000D02*
X25670511Y-140699489D01*
X25670511Y-140699489D02*
X25670511Y-141969489D01*
X25670511Y-141969489D02*
X24765000Y-142875000D01*
X28575000Y-139700000D02*
X26670000Y-139700000D01*
X19050000Y-132080000D02*
X15544979Y-135585021D01*
X15544979Y-135585021D02*
X15544979Y-155700424D01*
X15544979Y-155700424D02*
X18233783Y-158389228D01*
X18233783Y-158389228D02*
X21315772Y-158389228D01*
X21315772Y-158389228D02*
X24765000Y-154940000D01*
X24765000Y-154940000D02*
X24765000Y-142875000D01*
X26670000Y-152400000D02*
X27940000Y-152400000D01*
X19050000Y-127000000D02*
X14605000Y-131445000D01*
X14605000Y-156845000D02*
X17780000Y-160020000D01*
X21733492Y-160020000D02*
X27940000Y-153813492D01*
X14605000Y-131445000D02*
X14605000Y-156845000D01*
X17780000Y-160020000D02*
X21733492Y-160020000D01*
X27940000Y-153813492D02*
X27940000Y-152400000D01*
X36830000Y-152400000D02*
X33020000Y-152400000D01*
X16344989Y-154428432D02*
X18105785Y-156189228D01*
X18105785Y-156189228D02*
X18905784Y-156989227D01*
X19050000Y-139700000D02*
X16344989Y-142405011D01*
X16344989Y-142405011D02*
X16344989Y-154428432D01*
X17145000Y-144145000D02*
X17145000Y-152896356D01*
X19050000Y-142240000D02*
X17145000Y-144145000D01*
X17145000Y-152896356D02*
X19786173Y-155537529D01*
X19786173Y-155537529D02*
X20421173Y-155537529D01*
X20421173Y-155537529D02*
X21552543Y-155537529D01*
X44450000Y-128270000D02*
X42833700Y-128270000D01*
X42833700Y-128192100D02*
X39115000Y-124473400D01*
X42833700Y-128270000D02*
X42833700Y-128192100D01*
M02*
