<?xml version="1.0" standalone="no"?>
 <!DOCTYPE svg PUBLIC "-//W3C//DTD SVG 1.1//EN" 
 "http://www.w3.org/Graphics/SVG/1.1/DTD/svg11.dtd"> 
<svg xmlns="http://www.w3.org/2000/svg" version="1.1" 
    width="9.02462cm" height="4.1783cm" viewBox="0 0 35530 16450 ">
<title>SVG Picture created as delaylineselect-brd.svg date 2016/08/08 20:27:01 </title>
  <desc>Picture generated by PCBNEW </desc>
<g style="fill:#000000; fill-opacity:1;stroke:#000000; stroke-opacity:1;
stroke-linecap:round; stroke-linejoin:round; "
 transform="translate(0 0) scale(1 1)">
</g>
<g style="fill:#000000; fill-opacity:0.0; 
stroke:#000000; stroke-width:-0.000393701; stroke-opacity:1; 
stroke-linecap:round; stroke-linejoin:round;">
</g>
<g style="fill:#840000; fill-opacity:0.0; 
stroke:#840000; stroke-width:-0.000393701; stroke-opacity:1; 
stroke-linecap:round; stroke-linejoin:round;">
</g>
<g style="fill:#840000; fill-opacity:0.0; 
stroke:#840000; stroke-width:59.0551; stroke-opacity:1; 
stroke-linecap:round; stroke-linejoin:round;">
<circle cx="29100.4" cy="7519.69" r="1968.5" /> 
</g>
<g style="fill:#000000; fill-opacity:0.0; 
stroke:#000000; stroke-width:59.0551; stroke-opacity:1; 
stroke-linecap:round; stroke-linejoin:round;">
</g>
<g style="fill:#C2C200; fill-opacity:0.0; 
stroke:#C2C200; stroke-width:59.0551; stroke-opacity:1; 
stroke-linecap:round; stroke-linejoin:round;">
</g>
<g style="fill:#C2C200; fill-opacity:0.0; 
stroke:#C2C200; stroke-width:39.3701; stroke-opacity:1; 
stroke-linecap:round; stroke-linejoin:round;">
<path d="M19769 19
L21269 1519
" />
<path d="M8269 12269
L7269 11269
" />
<path d="M14269 19
L19769 19
" />
<path d="M13269 1269
L14269 19
" />
<path d="M13269 9269
L13269 1269
" />
<path d="M12519 10019
L13269 9269
" />
<path d="M10019 10019
L12519 10019
" />
<path d="M7019 7019
L10019 10019
" />
<path d="M7019 5019
L7019 7019
" />
<path d="M6269 4269
L7019 5019
" />
<path d="M19 5019
L769 4269
" />
<path d="M8269 15019
L9519 16269
" />
<path d="M8269 12269
L8269 15019
" />
<path d="M1269 11269
L7269 11269
" />
<path d="M21269 1519
L33019 1519
" />
<path d="M769 4269
L6269 4269
" />
<path d="M19 10019
L19 5019
" />
<path d="M1269 11269
L19 10019
" />
<path d="M18019 16269
L9519 16269
" />
<path d="M20519 13769
L18019 16269
" />
<path d="M33019 13769
L20519 13769
" />
<path d="M35519 11269
L33019 13769
" />
<path d="M35519 4019
L35519 11269
" />
<path d="M33019 1519
L35519 4019
" />
</g> 
</svg>
