M48
;DRILL file {KiCad 4.0.2-stable} date Monday, 29 August 2016 'amt' 10:07:03
;FORMAT={-:-/ absolute / inch / decimal}
FMAT,2
INCH,TZ
T1C0.030
T2C0.039
T3C0.040
T4C0.118
%
G90
G05
M72
T1
X4.55Y-1.95
X4.55Y-2.05
X4.55Y-2.15
X4.55Y-2.25
X4.55Y-2.35
X4.55Y-2.45
X4.55Y-2.55
X4.55Y-2.65
X4.55Y-2.75
X4.55Y-2.85
X4.55Y-2.95
X4.55Y-3.05
X4.55Y-3.15
X4.55Y-3.25
X4.85Y-1.95
X4.85Y-2.05
X4.85Y-2.15
X4.85Y-2.25
X4.85Y-2.35
X4.85Y-2.45
X4.85Y-2.55
X4.85Y-2.65
X4.85Y-2.75
X4.85Y-2.85
X4.85Y-2.95
X4.85Y-3.05
X4.85Y-3.15
X4.85Y-3.25
T2
X5.0669Y-2.5
X5.2244Y-2.7717
X5.3268Y-2.7717
X5.4252Y-2.7717
X5.5Y-2.0669
X5.626Y-2.7717
X5.7244Y-2.7717
X5.9331Y-2.5
T3
X4.2Y-1.95
X4.2Y-2.05
X4.25Y-3.05
X4.25Y-3.15
X4.25Y-3.25
X4.25Y-3.35
T4
X4.65Y-3.5
T2
X5.5Y-2.9331G85X5.5Y-2.9331
G05
T0
M30
