M48
;DRILL file {KiCad 4.0.2-stable} date 08/08/2016 20:26:43
;FORMAT={-:-/ absolute / inch / decimal}
FMAT,2
INCH,TZ
T1C0.030
T2C0.030
T3C0.039
T4C0.040
T5C0.045
%
G90
G05
M72
T2
X4.4Y-1.875
X4.4Y-1.975
X4.4Y-2.075
X4.4Y-2.175
X4.4Y-2.275
X4.4Y-2.375
X4.4Y-2.475
X4.4Y-2.575
X4.4Y-2.675
X4.4Y-2.775
X4.4Y-2.875
X4.4Y-2.975
X4.4Y-3.075
X4.4Y-3.175
X4.7Y-1.875
X4.7Y-1.975
X4.7Y-2.075
X4.7Y-2.175
X4.7Y-2.275
X4.7Y-2.375
X4.7Y-2.475
X4.7Y-2.575
X4.7Y-2.675
X4.7Y-2.775
X4.7Y-2.875
X4.7Y-2.975
X4.7Y-3.075
X4.7Y-3.175
T3
X5.5075Y-2.7717
X5.6098Y-2.7717
X5.7083Y-2.7717
X5.9091Y-2.7717
X6.0075Y-2.7717
T4
X3.85Y-3.05
X3.85Y-3.15
X3.95Y-3.05
X3.95Y-3.15
T5
X3.1Y-2.7
X3.3Y-2.3
T1
X5.35Y-2.564G85X5.35Y-2.436
G05
X5.7191Y-2.0669G85X5.847Y-2.0669
G05
X5.7191Y-2.9331G85X5.847Y-2.9331
G05
X6.2161Y-2.564G85X6.2161Y-2.436
G05
T0
M30
