G04 #@! TF.FileFunction,Copper,L1,Top,Signal*
%FSLAX46Y46*%
G04 Gerber Fmt 4.6, Leading zero omitted, Abs format (unit mm)*
G04 Created by KiCad (PCBNEW 4.0.2-stable) date 08/08/2016 20:26:41*
%MOMM*%
G01*
G04 APERTURE LIST*
%ADD10C,0.100000*%
%ADD11O,4.500000X1.250000*%
%ADD12O,1.250000X4.500000*%
%ADD13R,1.600000X1.600000*%
%ADD14C,1.600000*%
%ADD15R,1.727200X1.727200*%
%ADD16O,1.727200X1.727200*%
%ADD17C,2.540000*%
%ADD18R,2.032000X2.032000*%
%ADD19C,2.032000*%
G04 APERTURE END LIST*
D10*
D11*
X146890000Y-52500000D03*
X146890000Y-74500000D03*
D12*
X157890000Y-63500000D03*
X135890000Y-63500000D03*
D13*
X144990000Y-70400000D03*
D14*
X142490000Y-70400000D03*
X139890000Y-70400000D03*
X150090000Y-70400000D03*
X152590000Y-70400000D03*
D15*
X100330000Y-80010000D03*
D16*
X97790000Y-80010000D03*
X100330000Y-77470000D03*
X97790000Y-77470000D03*
D17*
X83820000Y-58420000D03*
X78740000Y-68580000D03*
D18*
X111760000Y-47625000D03*
D19*
X111760000Y-50165000D03*
X111760000Y-52705000D03*
X111760000Y-55245000D03*
X111760000Y-57785000D03*
X111760000Y-60325000D03*
X111760000Y-62865000D03*
X111760000Y-65405000D03*
X111760000Y-67945000D03*
X111760000Y-70485000D03*
X111760000Y-73025000D03*
X111760000Y-75565000D03*
X111760000Y-78105000D03*
X111760000Y-80645000D03*
X119380000Y-80645000D03*
X119380000Y-78105000D03*
X119380000Y-75565000D03*
X119380000Y-73025000D03*
X119380000Y-70485000D03*
X119380000Y-67945000D03*
X119380000Y-65405000D03*
X119380000Y-62865000D03*
X119380000Y-60325000D03*
X119380000Y-57785000D03*
X119380000Y-55245000D03*
X119380000Y-52705000D03*
X119380000Y-50165000D03*
X119380000Y-47625000D03*
M02*
