G04 #@! TF.FileFunction,Copper,L1,Top,Signal*
%FSLAX46Y46*%
G04 Gerber Fmt 4.6, Leading zero omitted, Abs format (unit mm)*
G04 Created by KiCad (PCBNEW 4.0.2-stable) date Monday, 29 August 2016 'amt' 11:12:33*
%MOMM*%
G01*
G04 APERTURE LIST*
%ADD10C,0.100000*%
%ADD11R,2.032000X2.032000*%
%ADD12C,2.032000*%
%ADD13R,2.032000X1.727200*%
%ADD14O,2.032000X1.727200*%
%ADD15R,1.727200X1.727200*%
%ADD16O,1.727200X1.727200*%
%ADD17C,5.000000*%
%ADD18O,4.500000X1.250000*%
%ADD19O,1.250000X4.500000*%
%ADD20R,1.600000X1.600000*%
%ADD21C,1.600000*%
G04 APERTURE END LIST*
D10*
D11*
X115570000Y-49530000D03*
D12*
X115570000Y-52070000D03*
X115570000Y-54610000D03*
X115570000Y-57150000D03*
X115570000Y-59690000D03*
X115570000Y-62230000D03*
X115570000Y-64770000D03*
X115570000Y-67310000D03*
X115570000Y-69850000D03*
X115570000Y-72390000D03*
X115570000Y-74930000D03*
X115570000Y-77470000D03*
X115570000Y-80010000D03*
X115570000Y-82550000D03*
X123190000Y-82550000D03*
X123190000Y-80010000D03*
X123190000Y-77470000D03*
X123190000Y-74930000D03*
X123190000Y-72390000D03*
X123190000Y-69850000D03*
X123190000Y-67310000D03*
X123190000Y-64770000D03*
X123190000Y-62230000D03*
X123190000Y-59690000D03*
X123190000Y-57150000D03*
X123190000Y-54610000D03*
X123190000Y-52070000D03*
X123190000Y-49530000D03*
D13*
X107950000Y-85090000D03*
D14*
X107950000Y-82550000D03*
X107950000Y-80010000D03*
X107950000Y-77470000D03*
D15*
X106680000Y-49530000D03*
D16*
X106680000Y-52070000D03*
D17*
X118110000Y-88900000D03*
D18*
X139700000Y-52500000D03*
X139700000Y-74500000D03*
D19*
X150700000Y-63500000D03*
X128700000Y-63500000D03*
D20*
X137800000Y-70400000D03*
D21*
X135300000Y-70400000D03*
X132700000Y-70400000D03*
X142900000Y-70400000D03*
X145400000Y-70400000D03*
M02*
