<?xml version="1.0" standalone="no"?>
 <!DOCTYPE svg PUBLIC "-//W3C//DTD SVG 1.1//EN" 
 "http://www.w3.org/Graphics/SVG/1.1/DTD/svg11.dtd"> 
<svg xmlns="http://www.w3.org/2000/svg" version="1.1" 
    width="9.90854cm" height="6.18744cm" viewBox="0 0 39010 24360 ">
<title>SVG Picture created as delaylineselect-brd.svg date 2016/08/09 13:03:54 </title>
  <desc>Picture generated by PCBNEW </desc>
<g style="fill:#000000; fill-opacity:1;stroke:#000000; stroke-opacity:1;
stroke-linecap:round; stroke-linejoin:round; "
 transform="translate(0 0) scale(1 1)">
</g>
<g style="fill:#000000; fill-opacity:0.0; 
stroke:#000000; stroke-width:-0.000393701; stroke-opacity:1; 
stroke-linecap:round; stroke-linejoin:round;">
</g>
<g style="fill:#840000; fill-opacity:0.0; 
stroke:#840000; stroke-width:-0.000393701; stroke-opacity:1; 
stroke-linecap:round; stroke-linejoin:round;">
</g>
<g style="fill:#840000; fill-opacity:0.0; 
stroke:#840000; stroke-width:78.7402; stroke-opacity:1; 
stroke-linecap:round; stroke-linejoin:round;">
<circle cx="16000" cy="12622" r="2500" /> 
</g>
<g style="fill:#840000; fill-opacity:0.0; 
stroke:#840000; stroke-width:59.0551; stroke-opacity:1; 
stroke-linecap:round; stroke-linejoin:round;">
<circle cx="32000" cy="12622" r="1968.5" /> 
<circle cx="23500" cy="22622" r="590.551" /> 
</g>
<g style="fill:#000000; fill-opacity:0.0; 
stroke:#000000; stroke-width:59.0551; stroke-opacity:1; 
stroke-linecap:round; stroke-linejoin:round;">
</g>
<g style="fill:#C2C200; fill-opacity:0.0; 
stroke:#C2C200; stroke-width:59.0551; stroke-opacity:1; 
stroke-linecap:round; stroke-linejoin:round;">
</g>
<g style="fill:#C2C200; fill-opacity:0.0; 
stroke:#C2C200; stroke-width:39.3701; stroke-opacity:1; 
stroke-linecap:round; stroke-linejoin:round;">
<path d="M18000 5622
L18000 6122
" />
<path d="M34500 5622
L18000 5622
" />
<path d="M39000 10122
L34500 5622
" />
<path d="M39000 15622
L39000 10122
" />
<path d="M35000 19622
L39000 15622
" />
<path d="M30000 19622
L35000 19622
" />
<path d="M25500 24122
L30000 19622
" />
<path d="M19000 24122
L25500 24122
" />
<path d="M18000 23122
L19000 24122
" />
<path d="M18000 17122
L18000 23122
" />
<path d="M21000 14122
L18000 17122
" />
<path d="M21000 10122
L21000 14122
" />
<path d="M20000 9122
L21000 10122
" />
<path d="M18000 9122
L20000 9122
" />
<path d="M18000 6122
L18000 9122
" />
</g> 
</svg>
