G04 #@! TF.FileFunction,Copper,L2,Bot,Signal*
%FSLAX46Y46*%
G04 Gerber Fmt 4.6, Leading zero omitted, Abs format (unit mm)*
G04 Created by KiCad (PCBNEW 4.0.2-stable) date 08/08/2016 20:26:41*
%MOMM*%
G01*
G04 APERTURE LIST*
%ADD10C,0.100000*%
%ADD11O,4.500000X1.250000*%
%ADD12O,1.250000X4.500000*%
%ADD13R,1.600000X1.600000*%
%ADD14C,1.600000*%
%ADD15R,1.727200X1.727200*%
%ADD16O,1.727200X1.727200*%
%ADD17C,2.540000*%
%ADD18R,2.032000X2.032000*%
%ADD19C,2.032000*%
%ADD20C,0.400000*%
G04 APERTURE END LIST*
D10*
D11*
X146890000Y-52500000D03*
X146890000Y-74500000D03*
D12*
X157890000Y-63500000D03*
X135890000Y-63500000D03*
D13*
X144990000Y-70400000D03*
D14*
X142490000Y-70400000D03*
X139890000Y-70400000D03*
X150090000Y-70400000D03*
X152590000Y-70400000D03*
D15*
X100330000Y-80010000D03*
D16*
X97790000Y-80010000D03*
X100330000Y-77470000D03*
X97790000Y-77470000D03*
D17*
X83820000Y-58420000D03*
X78740000Y-68580000D03*
D18*
X111760000Y-47625000D03*
D19*
X111760000Y-50165000D03*
X111760000Y-52705000D03*
X111760000Y-55245000D03*
X111760000Y-57785000D03*
X111760000Y-60325000D03*
X111760000Y-62865000D03*
X111760000Y-65405000D03*
X111760000Y-67945000D03*
X111760000Y-70485000D03*
X111760000Y-73025000D03*
X111760000Y-75565000D03*
X111760000Y-78105000D03*
X111760000Y-80645000D03*
X119380000Y-80645000D03*
X119380000Y-78105000D03*
X119380000Y-75565000D03*
X119380000Y-73025000D03*
X119380000Y-70485000D03*
X119380000Y-67945000D03*
X119380000Y-65405000D03*
X119380000Y-62865000D03*
X119380000Y-60325000D03*
X119380000Y-57785000D03*
X119380000Y-55245000D03*
X119380000Y-52705000D03*
X119380000Y-50165000D03*
X119380000Y-47625000D03*
D20*
X111760000Y-70485000D02*
X109220000Y-73025000D01*
X97790000Y-73025000D02*
X95250000Y-75565000D01*
X109220000Y-73025000D02*
X97790000Y-73025000D01*
X144145000Y-72390000D02*
X123395000Y-72390000D01*
X123395000Y-72390000D02*
X120855000Y-74930000D01*
X120015000Y-74930000D02*
X119380000Y-75565000D01*
X120855000Y-74930000D02*
X120015000Y-74930000D01*
X119380000Y-80645000D02*
X116205000Y-83820000D01*
X116205000Y-83820000D02*
X106045000Y-83820000D01*
X106045000Y-83820000D02*
X102235000Y-80010000D01*
X102235000Y-80010000D02*
X100330000Y-80010000D01*
X95250000Y-75565000D02*
X94615000Y-76200000D01*
X94615000Y-76200000D02*
X94615000Y-79375000D01*
X94615000Y-79375000D02*
X96613601Y-81373601D01*
X100229999Y-81373601D02*
X100330000Y-81273600D01*
X96613601Y-81373601D02*
X100229999Y-81373601D01*
X100330000Y-81273600D02*
X100330000Y-80010000D01*
X95250000Y-72858093D02*
X95250000Y-75565000D01*
X78740000Y-68580000D02*
X90971907Y-68580000D01*
X90971907Y-68580000D02*
X95250000Y-72858093D01*
X144990000Y-70400000D02*
X144990000Y-71600000D01*
X144200000Y-72390000D02*
X144145000Y-72390000D01*
X144990000Y-71600000D02*
X144200000Y-72390000D01*
X146890000Y-74500000D02*
X144780000Y-72390000D01*
X144780000Y-72390000D02*
X144145000Y-72390000D01*
X146890000Y-74500000D02*
X151560000Y-74500000D01*
X151560000Y-74500000D02*
X157890000Y-68170000D01*
X157890000Y-68170000D02*
X157890000Y-66675000D01*
X157890000Y-66675000D02*
X157890000Y-63500000D01*
X146890000Y-52500000D02*
X147115000Y-52500000D01*
X147115000Y-52500000D02*
X157890000Y-63275000D01*
X157890000Y-63275000D02*
X157890000Y-63500000D01*
X119380000Y-75565000D02*
X121285000Y-77470000D01*
X121285000Y-77470000D02*
X121285000Y-78740000D01*
X121285000Y-78740000D02*
X120395999Y-79629001D01*
X120395999Y-79629001D02*
X119380000Y-80645000D01*
X144990000Y-70400000D02*
X144990000Y-69200000D01*
X144990000Y-69200000D02*
X139290000Y-63500000D01*
X139290000Y-63500000D02*
X136915000Y-63500000D01*
X136915000Y-63500000D02*
X135890000Y-63500000D01*
X145265000Y-74500000D02*
X146890000Y-74500000D01*
X97790000Y-80010000D02*
X95885000Y-78105000D01*
X110490000Y-74295000D02*
X111760000Y-75565000D01*
X95885000Y-78105000D02*
X95885000Y-76835000D01*
X95885000Y-76835000D02*
X98425000Y-74295000D01*
X98425000Y-74295000D02*
X110490000Y-74295000D01*
X100330000Y-77470000D02*
X101600000Y-77470000D01*
X101600000Y-77470000D02*
X106614989Y-82484989D01*
X106614989Y-82484989D02*
X115000011Y-82484989D01*
X115000011Y-82484989D02*
X118364001Y-79120999D01*
X118364001Y-79120999D02*
X119380000Y-78105000D01*
X119380000Y-78105000D02*
X117863999Y-76588999D01*
X117863999Y-76588999D02*
X117863999Y-74541001D01*
X118364001Y-74040999D02*
X119380000Y-73025000D01*
X117863999Y-74541001D02*
X118364001Y-74040999D01*
X111760000Y-67945000D02*
X114300000Y-67945000D01*
X114300000Y-67945000D02*
X119380000Y-73025000D01*
X97790000Y-77470000D02*
X99629989Y-75630011D01*
X109285011Y-75630011D02*
X110744001Y-77089001D01*
X99629989Y-75630011D02*
X109285011Y-75630011D01*
X110744001Y-77089001D02*
X111760000Y-78105000D01*
X111760000Y-47625000D02*
X110344000Y-47625000D01*
X110344000Y-47625000D02*
X109220000Y-48749000D01*
X109220000Y-48749000D02*
X109220000Y-70485000D01*
X109220000Y-70485000D02*
X107950000Y-71755000D01*
X107950000Y-71755000D02*
X97155000Y-71755000D01*
X97155000Y-71755000D02*
X85089999Y-59689999D01*
X85089999Y-59689999D02*
X83820000Y-58420000D01*
X119380000Y-60325000D02*
X127635000Y-68580000D01*
X127635000Y-68580000D02*
X140670000Y-68580000D01*
X141690001Y-69600001D02*
X142490000Y-70400000D01*
X140670000Y-68580000D02*
X141690001Y-69600001D01*
X139890000Y-70400000D02*
X124375000Y-70400000D01*
X124375000Y-70400000D02*
X119380000Y-65405000D01*
X120395999Y-58800999D02*
X119380000Y-57785000D01*
X121840035Y-60325000D02*
X120395999Y-58880964D01*
X150090000Y-70400000D02*
X140015000Y-60325000D01*
X140015000Y-60325000D02*
X121840035Y-60325000D01*
X120395999Y-58880964D02*
X120395999Y-58800999D01*
X119380000Y-62865000D02*
X118745000Y-62865000D01*
X141245000Y-59055000D02*
X152590000Y-70400000D01*
X118745000Y-62865000D02*
X116840000Y-60960000D01*
X116840000Y-60960000D02*
X116840000Y-46990000D01*
X116840000Y-46990000D02*
X118110000Y-45720000D01*
X118110000Y-45720000D02*
X120650000Y-45720000D01*
X120650000Y-45720000D02*
X121920000Y-46990000D01*
X121920000Y-46990000D02*
X121920000Y-56240000D01*
X121920000Y-56240000D02*
X124735000Y-59055000D01*
X124735000Y-59055000D02*
X141245000Y-59055000D01*
M02*
