G04 #@! TF.FileFunction,Copper,L1,Top,Signal*
%FSLAX46Y46*%
G04 Gerber Fmt 4.6, Leading zero omitted, Abs format (unit mm)*
G04 Created by KiCad (PCBNEW 4.0.2-stable) date Wednesday, 10 August 2016 'pmt' 16:25:39*
%MOMM*%
G01*
G04 APERTURE LIST*
%ADD10C,0.100000*%
%ADD11R,2.032000X1.727200*%
%ADD12O,2.032000X1.727200*%
%ADD13R,1.727200X2.032000*%
%ADD14O,1.727200X2.032000*%
%ADD15R,2.540000X2.540000*%
%ADD16C,2.540000*%
%ADD17R,2.032000X2.032000*%
%ADD18C,2.032000*%
G04 APERTURE END LIST*
D10*
D11*
X142240000Y-58420000D03*
D12*
X142240000Y-55880000D03*
X142240000Y-53340000D03*
X142240000Y-50800000D03*
D11*
X193040000Y-48260000D03*
D12*
X193040000Y-50800000D03*
X193040000Y-53340000D03*
X193040000Y-55880000D03*
X193040000Y-58420000D03*
X193040000Y-60960000D03*
X193040000Y-63500000D03*
X193040000Y-66040000D03*
D13*
X80645000Y-35433000D03*
D14*
X83185000Y-35433000D03*
X85725000Y-35433000D03*
X88265000Y-35433000D03*
X90805000Y-35433000D03*
X93345000Y-35433000D03*
X95885000Y-35433000D03*
X98425000Y-35433000D03*
D15*
X152400000Y-33401000D03*
D16*
X152400000Y-38100000D03*
X152400000Y-42799000D03*
D15*
X177800000Y-33401000D03*
D16*
X177800000Y-38100000D03*
X177800000Y-42799000D03*
D15*
X215900000Y-33401000D03*
D16*
X215900000Y-38100000D03*
X215900000Y-42799000D03*
D15*
X136144000Y-35433000D03*
D16*
X131445000Y-35433000D03*
X126746000Y-35433000D03*
D15*
X115824000Y-35433000D03*
D16*
X111125000Y-35433000D03*
X106426000Y-35433000D03*
D15*
X41656000Y-35433000D03*
D16*
X46355000Y-35433000D03*
X51054000Y-35433000D03*
D17*
X184150000Y-50800000D03*
D18*
X181610000Y-50800000D03*
X179070000Y-50800000D03*
X176530000Y-50800000D03*
X173990000Y-50800000D03*
X171450000Y-50800000D03*
X168910000Y-50800000D03*
X166370000Y-50800000D03*
X163830000Y-50800000D03*
X161290000Y-50800000D03*
X158750000Y-50800000D03*
X156210000Y-50800000D03*
X153670000Y-50800000D03*
X151130000Y-50800000D03*
X151130000Y-58420000D03*
X153670000Y-58420000D03*
X156210000Y-58420000D03*
X158750000Y-58420000D03*
X161290000Y-58420000D03*
X163830000Y-58420000D03*
X166370000Y-58420000D03*
X168910000Y-58420000D03*
X171450000Y-58420000D03*
X173990000Y-58420000D03*
X176530000Y-58420000D03*
X179070000Y-58420000D03*
X181610000Y-58420000D03*
X184150000Y-58420000D03*
M02*
