M48
;DRILL file {KiCad 4.0.2-stable} date Monday, 08 August 2016 'pmt' 13:54:20
;FORMAT={-:-/ absolute / inch / decimal}
FMAT,2
INCH,TZ
T1C0.030
T2C0.040
T3C0.060
%
G90
G05
M72
T1
X6.85Y-3.425
X6.85Y-3.725
X6.95Y-3.425
X6.95Y-3.725
X7.05Y-3.425
X7.05Y-3.725
X7.15Y-3.425
X7.15Y-3.725
X7.25Y-3.425
X7.25Y-3.725
X7.35Y-3.425
X7.35Y-3.725
X7.45Y-3.425
X7.45Y-3.725
X7.55Y-3.425
X7.55Y-3.725
X7.65Y-3.425
X7.65Y-3.725
X7.75Y-3.425
X7.75Y-3.725
X7.85Y-3.425
X7.85Y-3.725
X7.95Y-3.425
X7.95Y-3.725
X8.05Y-3.425
X8.05Y-3.725
X8.15Y-3.425
X8.15Y-3.725
T2
X8.425Y-3.425
X8.425Y-3.6
X8.425Y-3.775
X8.525Y-3.425
X8.525Y-3.6
X8.525Y-3.775
X8.625Y-3.425
X8.625Y-3.6
X8.625Y-3.775
X8.95Y-3.5
X8.95Y-3.6
X9.05Y-3.5
X9.05Y-3.6
T3
X5.5Y-2.855
X5.5Y-3.04
X5.5Y-3.225
X6.Y-2.855
X6.Y-3.04
X6.Y-3.225
X6.5Y-2.855
X6.5Y-3.04
X6.5Y-3.225
X7.Y-2.855
X7.Y-3.04
X7.Y-3.225
X7.5Y-2.855
X7.5Y-3.04
X7.5Y-3.225
X8.Y-2.855
X8.Y-3.04
X8.Y-3.225
X8.5Y-2.855
X8.5Y-3.04
X8.5Y-3.225
X9.Y-2.855
X9.Y-3.04
X9.Y-3.225
T0
M30
