<?xml version="1.0" standalone="no"?>
 <!DOCTYPE svg PUBLIC "-//W3C//DTD SVG 1.1//EN" 
 "http://www.w3.org/Graphics/SVG/1.1/DTD/svg11.dtd"> 
<svg xmlns="http://www.w3.org/2000/svg" version="1.1" 
    width="17.2796cm" height="4.84632cm" viewBox="0 0 68030 19080 ">
<title>SVG Picture created as keys-9-brd.svg date 2016/08/10 17:47:08 </title>
  <desc>Picture generated by PCBNEW </desc>
<g style="fill:#000000; fill-opacity:1;stroke:#000000; stroke-opacity:1;
stroke-linecap:round; stroke-linejoin:round; "
 transform="translate(0 0) scale(1 1)">
</g>
<g style="fill:#000000; fill-opacity:0.0; 
stroke:#000000; stroke-width:-0.000393701; stroke-opacity:1; 
stroke-linecap:round; stroke-linejoin:round;">
</g>
<g style="fill:#840000; fill-opacity:0.0; 
stroke:#840000; stroke-width:-0.000393701; stroke-opacity:1; 
stroke-linecap:round; stroke-linejoin:round;">
</g>
<g style="fill:#840000; fill-opacity:0.0; 
stroke:#840000; stroke-width:59.0551; stroke-opacity:1; 
stroke-linecap:round; stroke-linejoin:round;">
<path d="M1929 13775
L1929 12988
" />
<path d="M3110 13775
L1929 13775
" />
<path d="M3110 12988
L3110 13775
" />
<path d="M1929 12988
L3110 12988
" />
<circle cx="2519.69" cy="11019.7" r="1250" /> 
<path d="M6929 13775
L6929 12988
" />
<path d="M8110 13775
L6929 13775
" />
<path d="M8110 12988
L8110 13775
" />
<path d="M6929 12988
L8110 12988
" />
<circle cx="7519.69" cy="11019.7" r="1250" /> 
<path d="M11929 13775
L11929 12988
" />
<path d="M13110 13775
L11929 13775
" />
<path d="M13110 12988
L13110 13775
" />
<path d="M11929 12988
L13110 12988
" />
<circle cx="12519.7" cy="11019.7" r="1250" /> 
<path d="M19429 13775
L19429 12988
" />
<path d="M20610 13775
L19429 13775
" />
<path d="M20610 12988
L20610 13775
" />
<path d="M19429 12988
L20610 12988
" />
<circle cx="20019.7" cy="11019.7" r="1250" /> 
<path d="M26929 13775
L26929 12988
" />
<path d="M28110 13775
L26929 13775
" />
<path d="M28110 12988
L28110 13775
" />
<path d="M26929 12988
L28110 12988
" />
<circle cx="27519.7" cy="11019.7" r="1250" /> 
<path d="M34429 13775
L34429 12988
" />
<path d="M35610 13775
L34429 13775
" />
<path d="M35610 12988
L35610 13775
" />
<path d="M34429 12988
L35610 12988
" />
<circle cx="35019.7" cy="11019.7" r="1250" /> 
<path d="M41929 13775
L41929 12988
" />
<path d="M43110 13775
L41929 13775
" />
<path d="M43110 12988
L43110 13775
" />
<path d="M41929 12988
L43110 12988
" />
<circle cx="42519.7" cy="11019.7" r="1250" /> 
<path d="M49429 13775
L49429 12988
" />
<path d="M50610 13775
L49429 13775
" />
<path d="M50610 12988
L50610 13775
" />
<path d="M49429 12988
L50610 12988
" />
<circle cx="50019.7" cy="11019.7" r="1250" /> 
<path d="M64429 13775
L64429 12988
" />
<path d="M65610 13775
L64429 13775
" />
<path d="M65610 12988
L65610 13775
" />
<path d="M64429 12988
L65610 12988
" />
<circle cx="65019.7" cy="11019.7" r="1250" /> 
</g>
<g style="fill:#000000; fill-opacity:0.0; 
stroke:#000000; stroke-width:59.0551; stroke-opacity:1; 
stroke-linecap:round; stroke-linejoin:round;">
</g>
<g style="fill:#C2C200; fill-opacity:0.0; 
stroke:#C2C200; stroke-width:59.0551; stroke-opacity:1; 
stroke-linecap:round; stroke-linejoin:round;">
</g>
<g style="fill:#C2C200; fill-opacity:0.0; 
stroke:#C2C200; stroke-width:39.3701; stroke-opacity:1; 
stroke-linecap:round; stroke-linejoin:round;">
<path d="M66519 15019
L68019 13519
" />
<path d="M1519 15019
L66519 15019
" />
<path d="M19 13519
L1519 15019
" />
<path d="M19 8519
L19 13519
" />
<path d="M1519 7019
L19 8519
" />
<path d="M3019 7019
L1519 7019
" />
<path d="M5519 4519
L3019 7019
" />
<path d="M40519 4519
L5519 4519
" />
<path d="M43519 1519
L40519 4519
" />
<path d="M47519 1519
L43519 1519
" />
<path d="M49019 19
L47519 1519
" />
<path d="M64019 19
L49019 19
" />
<path d="M68019 4019
L64019 19
" />
<path d="M68019 13519
L68019 4019
" />
</g> 
</svg>
