G04 #@! TF.FileFunction,Copper,L2,Bot,Signal*
%FSLAX46Y46*%
G04 Gerber Fmt 4.6, Leading zero omitted, Abs format (unit mm)*
G04 Created by KiCad (PCBNEW 4.0.2-stable) date Monday, 08 August 2016 'pmt' 13:54:17*
%MOMM*%
G01*
G04 APERTURE LIST*
%ADD10C,0.100000*%
%ADD11R,1.727200X2.032000*%
%ADD12O,1.727200X2.032000*%
%ADD13R,2.032000X2.032000*%
%ADD14C,2.032000*%
%ADD15R,1.727200X1.727200*%
%ADD16O,1.727200X1.727200*%
%ADD17R,2.540000X2.540000*%
%ADD18C,2.540000*%
%ADD19C,0.400000*%
G04 APERTURE END LIST*
D10*
D11*
X213995000Y-91440000D03*
D12*
X216535000Y-91440000D03*
X219075000Y-91440000D03*
D11*
X213995000Y-95885000D03*
D12*
X216535000Y-95885000D03*
X219075000Y-95885000D03*
D11*
X213995000Y-86995000D03*
D12*
X216535000Y-86995000D03*
X219075000Y-86995000D03*
D13*
X173990000Y-94615000D03*
D14*
X176530000Y-94615000D03*
X179070000Y-94615000D03*
X181610000Y-94615000D03*
X184150000Y-94615000D03*
X186690000Y-94615000D03*
X189230000Y-94615000D03*
X191770000Y-94615000D03*
X194310000Y-94615000D03*
X196850000Y-94615000D03*
X199390000Y-94615000D03*
X201930000Y-94615000D03*
X204470000Y-94615000D03*
X207010000Y-94615000D03*
X207010000Y-86995000D03*
X204470000Y-86995000D03*
X201930000Y-86995000D03*
X199390000Y-86995000D03*
X196850000Y-86995000D03*
X194310000Y-86995000D03*
X191770000Y-86995000D03*
X189230000Y-86995000D03*
X186690000Y-86995000D03*
X184150000Y-86995000D03*
X181610000Y-86995000D03*
X179070000Y-86995000D03*
X176530000Y-86995000D03*
X173990000Y-86995000D03*
D15*
X229870000Y-88900000D03*
D16*
X229870000Y-91440000D03*
X227330000Y-88900000D03*
X227330000Y-91440000D03*
D17*
X139700000Y-81915000D03*
D18*
X139700000Y-77216000D03*
X139700000Y-72517000D03*
D17*
X165100000Y-81915000D03*
D18*
X165100000Y-77216000D03*
X165100000Y-72517000D03*
D17*
X177800000Y-81915000D03*
D18*
X177800000Y-77216000D03*
X177800000Y-72517000D03*
D17*
X190500000Y-81915000D03*
D18*
X190500000Y-77216000D03*
X190500000Y-72517000D03*
D17*
X203200000Y-81915000D03*
D18*
X203200000Y-77216000D03*
X203200000Y-72517000D03*
D17*
X215900000Y-81915000D03*
D18*
X215900000Y-77216000D03*
X215900000Y-72517000D03*
D17*
X228600000Y-81915000D03*
D18*
X228600000Y-77216000D03*
X228600000Y-72517000D03*
D17*
X152400000Y-81915000D03*
D18*
X152400000Y-77216000D03*
X152400000Y-72517000D03*
D19*
X197865999Y-95630999D02*
X196850000Y-94615000D01*
X199536000Y-97301000D02*
X197865999Y-95630999D01*
X211315400Y-97301000D02*
X199536000Y-97301000D01*
X212731400Y-95885000D02*
X211315400Y-97301000D01*
X213995000Y-95885000D02*
X212731400Y-95885000D01*
X213995000Y-95885000D02*
X216535000Y-95885000D01*
X219075000Y-95885000D02*
X216535000Y-95885000D01*
X231140000Y-86366400D02*
X231233601Y-86460001D01*
X231233601Y-86460001D02*
X231233601Y-92616399D01*
X231233601Y-92616399D02*
X229870000Y-93980000D01*
X229870000Y-93980000D02*
X223520000Y-93980000D01*
X223520000Y-93980000D02*
X221615000Y-95885000D01*
X221615000Y-95885000D02*
X219075000Y-95885000D01*
X231140000Y-79756000D02*
X231140000Y-86366400D01*
X231140000Y-86366400D02*
X229870000Y-87636400D01*
X229870000Y-87636400D02*
X229870000Y-88900000D01*
X231140000Y-79756000D02*
X228600000Y-77216000D01*
X215900000Y-77216000D02*
X228600000Y-77216000D01*
X203200000Y-77216000D02*
X215900000Y-77216000D01*
X190500000Y-77216000D02*
X203200000Y-77216000D01*
X190500000Y-77216000D02*
X177800000Y-77216000D01*
X165100000Y-77216000D02*
X177800000Y-77216000D01*
X152400000Y-77216000D02*
X165100000Y-77216000D01*
X139700000Y-77216000D02*
X152400000Y-77216000D01*
X202945999Y-95630999D02*
X201930000Y-94615000D01*
X229870000Y-91440000D02*
X228353990Y-92956010D01*
X203446001Y-96131001D02*
X202945999Y-95630999D01*
X207737681Y-96131001D02*
X203446001Y-96131001D01*
X220219733Y-94356032D02*
X209512650Y-94356032D01*
X228353990Y-92956010D02*
X221619755Y-92956010D01*
X221619755Y-92956010D02*
X220219733Y-94356032D01*
X209512650Y-94356032D02*
X207737681Y-96131001D01*
X219075000Y-86995000D02*
X225425000Y-86995000D01*
X225425000Y-86995000D02*
X227330000Y-88900000D01*
X216535000Y-86995000D02*
X219075000Y-86995000D01*
X213995000Y-86995000D02*
X216535000Y-86995000D01*
X199390000Y-86995000D02*
X199686318Y-86995000D01*
X211215399Y-85478999D02*
X212731400Y-86995000D01*
X199686318Y-86995000D02*
X201202319Y-85478999D01*
X212731400Y-86995000D02*
X213995000Y-86995000D01*
X201202319Y-85478999D02*
X211215399Y-85478999D01*
X194310000Y-94615000D02*
X194310000Y-92075000D01*
X194310000Y-92075000D02*
X199390000Y-86995000D01*
X221510800Y-92075000D02*
X224790000Y-92075000D01*
X224790000Y-92075000D02*
X224967802Y-92075000D01*
X227330000Y-91440000D02*
X226108686Y-91440000D01*
X226108686Y-91440000D02*
X225473686Y-92075000D01*
X225473686Y-92075000D02*
X224790000Y-92075000D01*
X204470000Y-94615000D02*
X206128990Y-92956010D01*
X219929779Y-93656021D02*
X221510800Y-92075000D01*
X206128990Y-92956010D02*
X211741443Y-92956010D01*
X212441454Y-93656021D02*
X219929779Y-93656021D01*
X211741443Y-92956010D02*
X212441454Y-93656021D01*
X201930000Y-86995000D02*
X205105000Y-90170000D01*
X205105000Y-90170000D02*
X212725000Y-90170000D01*
X212725000Y-90170000D02*
X213995000Y-91440000D01*
X205485999Y-88010999D02*
X204470000Y-86995000D01*
X216535000Y-91287600D02*
X214458412Y-89211012D01*
X214458412Y-89211012D02*
X206686012Y-89211012D01*
X216535000Y-91440000D02*
X216535000Y-91287600D01*
X206686012Y-89211012D02*
X205485999Y-88010999D01*
X207010000Y-86995000D02*
X208526001Y-88511001D01*
X208526001Y-88511001D02*
X216298401Y-88511001D01*
X216298401Y-88511001D02*
X219075000Y-91287600D01*
X219075000Y-91287600D02*
X219075000Y-91440000D01*
X169545000Y-84989035D02*
X169385922Y-84829957D01*
X169385922Y-84829957D02*
X144284957Y-84829957D01*
X144284957Y-84829957D02*
X141370000Y-81915000D01*
X141370000Y-81915000D02*
X139700000Y-81915000D01*
X169799000Y-84989035D02*
X169545000Y-84989035D01*
X169545000Y-84989035D02*
X171984035Y-84989035D01*
X171984035Y-84989035D02*
X173990000Y-86995000D01*
X139700000Y-72517000D02*
X135124978Y-77092022D01*
X135124978Y-77092022D02*
X135124978Y-83816978D01*
X135124978Y-83816978D02*
X138237989Y-86929989D01*
X138237989Y-86929989D02*
X168209989Y-86929989D01*
X168209989Y-86929989D02*
X173990000Y-92710000D01*
X173990000Y-92710000D02*
X173990000Y-94615000D01*
X173990000Y-93980000D02*
X173990000Y-94615000D01*
X152400000Y-81915000D02*
X161659998Y-81915000D01*
X161659998Y-81915000D02*
X163564998Y-83820000D01*
X163564998Y-83820000D02*
X173355000Y-83820000D01*
X173355000Y-83820000D02*
X176530000Y-86995000D01*
X152400000Y-72517000D02*
X150629999Y-70746999D01*
X150629999Y-70746999D02*
X138448038Y-70746999D01*
X138448038Y-70746999D02*
X134424969Y-74770068D01*
X137795000Y-87630000D02*
X167359964Y-87630000D01*
X167359964Y-87630000D02*
X172150011Y-92420046D01*
X172150011Y-92420046D02*
X172150011Y-95950011D01*
X172150011Y-95950011D02*
X172720000Y-96520000D01*
X134424969Y-74770068D02*
X134424969Y-84259969D01*
X134424969Y-84259969D02*
X137795000Y-87630000D01*
X172720000Y-96520000D02*
X175260000Y-96520000D01*
X175260000Y-96520000D02*
X176530000Y-95250000D01*
X176530000Y-95250000D02*
X176530000Y-94615000D01*
X165100000Y-81915000D02*
X173990000Y-81915000D01*
X173990000Y-81915000D02*
X179070000Y-86995000D01*
X165100000Y-72517000D02*
X162871012Y-74745988D01*
X162871012Y-74745988D02*
X138560445Y-74745988D01*
X135824989Y-77481444D02*
X135824989Y-83347954D01*
X168499942Y-86229978D02*
X175325010Y-93055046D01*
X138560445Y-74745988D02*
X135824989Y-77481444D01*
X135824989Y-83347954D02*
X138707013Y-86229978D01*
X138707013Y-86229978D02*
X168499942Y-86229978D01*
X175325010Y-93055046D02*
X177510046Y-93055046D01*
X177510046Y-93055046D02*
X179070000Y-94615000D01*
X177800000Y-81915000D02*
X179470000Y-81915000D01*
X179470000Y-81915000D02*
X181610000Y-84055000D01*
X181610000Y-84055000D02*
X181610000Y-85558160D01*
X181610000Y-85558160D02*
X181610000Y-86995000D01*
X164942860Y-85529967D02*
X164465000Y-85529967D01*
X164465000Y-85529967D02*
X138996967Y-85529967D01*
X169095969Y-85529967D02*
X164465000Y-85529967D01*
X172331001Y-88511001D02*
X169509045Y-85689045D01*
X169509045Y-85689045D02*
X169255047Y-85689045D01*
X169255047Y-85689045D02*
X169095969Y-85529967D01*
X138996967Y-85529967D02*
X136525000Y-83058000D01*
X138850399Y-75445999D02*
X174871001Y-75445999D01*
X176530001Y-73786999D02*
X177800000Y-72517000D01*
X136525000Y-83058000D02*
X136525000Y-77771398D01*
X181610000Y-94615000D02*
X175506001Y-88511001D01*
X175506001Y-88511001D02*
X172331001Y-88511001D01*
X174871001Y-75445999D02*
X176530001Y-73786999D01*
X136525000Y-77771398D02*
X138850399Y-75445999D01*
X190500000Y-81915000D02*
X188830000Y-81915000D01*
X188830000Y-81915000D02*
X184150000Y-86595000D01*
X184150000Y-86595000D02*
X184150000Y-86995000D01*
X188029991Y-70046991D02*
X138158081Y-70046991D01*
X181544989Y-97220011D02*
X183134001Y-95630999D01*
X137505047Y-88330010D02*
X167070010Y-88330010D01*
X133724958Y-84549923D02*
X137505047Y-88330010D01*
X171450000Y-92710000D02*
X171450000Y-96239965D01*
X183134001Y-95630999D02*
X184150000Y-94615000D01*
X172430046Y-97220011D02*
X181544989Y-97220011D01*
X138158081Y-70046991D02*
X133724958Y-74480114D01*
X190500000Y-72517000D02*
X188029991Y-70046991D01*
X133724958Y-74480114D02*
X133724958Y-84549923D01*
X167070010Y-88330010D02*
X171450000Y-92710000D01*
X171450000Y-96239965D02*
X172430046Y-97220011D01*
X195166389Y-81915000D02*
X201530000Y-81915000D01*
X188906012Y-84778988D02*
X192302401Y-84778988D01*
X186690000Y-86995000D02*
X188906012Y-84778988D01*
X201530000Y-81915000D02*
X203200000Y-81915000D01*
X192302401Y-84778988D02*
X195166389Y-81915000D01*
X185674001Y-95630999D02*
X186690000Y-94615000D01*
X183384978Y-97920022D02*
X185674001Y-95630999D01*
X170310021Y-96089951D02*
X172140092Y-97920022D01*
X172140092Y-97920022D02*
X183384978Y-97920022D01*
X133024947Y-74190160D02*
X133024947Y-84989735D01*
X170310021Y-92765092D02*
X170310021Y-96089951D01*
X166949908Y-89404978D02*
X170310021Y-92765092D01*
X137440190Y-89404978D02*
X166949908Y-89404978D01*
X133024947Y-84989735D02*
X137440190Y-89404978D01*
X137868127Y-69346980D02*
X133024947Y-74190160D01*
X200029980Y-69346980D02*
X137868127Y-69346980D01*
X203200000Y-72517000D02*
X200029980Y-69346980D01*
X189230000Y-86995000D02*
X190746001Y-85478999D01*
X190746001Y-85478999D02*
X192592355Y-85478999D01*
X192592355Y-85478999D02*
X194251354Y-83820000D01*
X194251354Y-83820000D02*
X212325000Y-83820000D01*
X212325000Y-83820000D02*
X214230000Y-81915000D01*
X214230000Y-81915000D02*
X215900000Y-81915000D01*
X169610010Y-93055046D02*
X169610010Y-96379904D01*
X169610010Y-96379904D02*
X171850139Y-98620033D01*
X188214001Y-95630999D02*
X189230000Y-94615000D01*
X185224967Y-98620033D02*
X188214001Y-95630999D01*
X171850139Y-98620033D02*
X185224967Y-98620033D01*
X137150236Y-90104989D02*
X166659954Y-90104989D01*
X137093031Y-68646969D02*
X132324934Y-73415066D01*
X132324934Y-73415066D02*
X132324934Y-85279687D01*
X212029969Y-68646969D02*
X137093031Y-68646969D01*
X215900000Y-72517000D02*
X212029969Y-68646969D01*
X166659954Y-90104989D02*
X169610010Y-93055046D01*
X132324934Y-85279687D02*
X137150236Y-90104989D01*
X192066318Y-86995000D02*
X191770000Y-86995000D01*
X199670035Y-85090000D02*
X193971318Y-85090000D01*
X212768953Y-84778988D02*
X199981047Y-84778988D01*
X199981047Y-84778988D02*
X199670035Y-85090000D01*
X213079965Y-85090000D02*
X212768953Y-84778988D01*
X223755000Y-85090000D02*
X213079965Y-85090000D01*
X226930000Y-81915000D02*
X223755000Y-85090000D01*
X193971318Y-85090000D02*
X192066318Y-86995000D01*
X228600000Y-81915000D02*
X226930000Y-81915000D01*
X228600000Y-72517000D02*
X224029958Y-67946958D01*
X224029958Y-67946958D02*
X136803077Y-67946958D01*
X131624923Y-85569641D02*
X136860282Y-90805000D01*
X171560176Y-99320037D02*
X187064963Y-99320037D01*
X136803077Y-67946958D02*
X131624923Y-73125112D01*
X131624923Y-73125112D02*
X131624923Y-85569641D01*
X166370000Y-90805000D02*
X168910000Y-93345000D01*
X168910000Y-96669857D02*
X169395139Y-97154995D01*
X136860282Y-90805000D02*
X166370000Y-90805000D01*
X168910000Y-93345000D02*
X168910000Y-96669857D01*
X169395139Y-97154995D02*
X169395139Y-97155000D01*
X190754001Y-95630999D02*
X191770000Y-94615000D01*
X169395139Y-97155000D02*
X171560176Y-99320037D01*
X187064963Y-99320037D02*
X190754001Y-95630999D01*
M02*
