M48
;DRILL file {KiCad 4.0.2-stable} date Wednesday, 10 August 2016 'pmt' 17:47:00
;FORMAT={-:-/ absolute / inch / decimal}
FMAT,2
INCH,TZ
T1C0.030
T2C0.040
T3C0.060
%
G90
G05
M72
T1
X6.5Y-1.7
X6.5Y-2.
X6.6Y-1.7
X6.6Y-2.
X6.7Y-1.7
X6.7Y-2.
X6.8Y-1.7
X6.8Y-2.
X6.9Y-1.7
X6.9Y-2.
X7.Y-1.7
X7.Y-2.
X7.1Y-1.7
X7.1Y-2.
X7.2Y-1.7
X7.2Y-2.
X7.3Y-1.7
X7.3Y-2.
X7.4Y-1.7
X7.4Y-2.
X7.5Y-1.7
X7.5Y-2.
X7.6Y-1.7
X7.6Y-2.
X7.7Y-1.7
X7.7Y-2.
X7.8Y-1.7
X7.8Y-2.
T2
X8.25Y-1.7
X8.25Y-1.8
X8.25Y-1.9
X8.25Y-2.
T3
X2.25Y-2.315
X2.25Y-2.5
X2.25Y-2.685
X2.75Y-2.315
X2.75Y-2.5
X2.75Y-2.685
X3.25Y-2.315
X3.25Y-2.5
X3.25Y-2.685
X4.Y-2.315
X4.Y-2.5
X4.Y-2.685
X4.75Y-2.315
X4.75Y-2.5
X4.75Y-2.685
X5.5Y-2.315
X5.5Y-2.5
X5.5Y-2.685
X6.25Y-2.315
X6.25Y-2.5
X6.25Y-2.685
X7.Y-2.315
X7.Y-2.5
X7.Y-2.685
X8.5Y-2.315
X8.5Y-2.5
X8.5Y-2.685
T0
M30
