<?xml version="1.0" standalone="no"?>
 <!DOCTYPE svg PUBLIC "-//W3C//DTD SVG 1.1//EN" 
 "http://www.w3.org/Graphics/SVG/1.1/DTD/svg11.dtd"> 
<svg xmlns="http://www.w3.org/2000/svg" version="1.1" 
    width="11.5976cm" height="5.7023cm" viewBox="0 0 45660 22450 ">
<title>SVG Picture created as keys-8-brd.svg date 2016/08/09 12:59:37 </title>
  <desc>Picture generated by PCBNEW </desc>
<g style="fill:#000000; fill-opacity:1;stroke:#000000; stroke-opacity:1;
stroke-linecap:round; stroke-linejoin:round; "
 transform="translate(0 0) scale(1 1)">
</g>
<g style="fill:#000000; fill-opacity:0.0; 
stroke:#000000; stroke-width:-0.000393701; stroke-opacity:1; 
stroke-linecap:round; stroke-linejoin:round;">
</g>
<g style="fill:#840000; fill-opacity:0.0; 
stroke:#840000; stroke-width:-0.000393701; stroke-opacity:1; 
stroke-linecap:round; stroke-linejoin:round;">
</g>
<g style="fill:#840000; fill-opacity:0.0; 
stroke:#840000; stroke-width:59.0551; stroke-opacity:1; 
stroke-linecap:round; stroke-linejoin:round;">
<path d="M4110 6540
L4110 7328
" />
<path d="M2929 6540
L4110 6540
" />
<path d="M2929 7328
L2929 6540
" />
<path d="M4110 7328
L2929 7328
" />
<circle cx="3519.69" cy="9296.85" r="1250" /> 
<path d="M14110 6540
L14110 7328
" />
<path d="M12929 6540
L14110 6540
" />
<path d="M12929 7328
L12929 6540
" />
<path d="M14110 7328
L12929 7328
" />
<circle cx="13519.7" cy="9296.85" r="1250" /> 
<path d="M19110 6540
L19110 7328
" />
<path d="M17929 6540
L19110 6540
" />
<path d="M17929 7328
L17929 6540
" />
<path d="M19110 7328
L17929 7328
" />
<circle cx="18519.7" cy="9296.85" r="1250" /> 
<path d="M24110 6540
L24110 7328
" />
<path d="M22929 6540
L24110 6540
" />
<path d="M22929 7328
L22929 6540
" />
<path d="M24110 7328
L22929 7328
" />
<circle cx="23519.7" cy="9296.85" r="1250" /> 
<path d="M29110 6540
L29110 7328
" />
<path d="M27929 6540
L29110 6540
" />
<path d="M27929 7328
L27929 6540
" />
<path d="M29110 7328
L27929 7328
" />
<circle cx="28519.7" cy="9296.85" r="1250" /> 
<path d="M34110 6540
L34110 7328
" />
<path d="M32929 6540
L34110 6540
" />
<path d="M32929 7328
L32929 6540
" />
<path d="M34110 7328
L32929 7328
" />
<circle cx="33519.7" cy="9296.85" r="1250" /> 
<path d="M39110 6540
L39110 7328
" />
<path d="M37929 6540
L39110 6540
" />
<path d="M37929 7328
L37929 6540
" />
<path d="M39110 7328
L37929 7328
" />
<circle cx="38519.7" cy="9296.85" r="1250" /> 
<path d="M9110 6540
L9110 7328
" />
<path d="M7929 6540
L9110 6540
" />
<path d="M7929 7328
L7929 6540
" />
<path d="M9110 7328
L7929 7328
" />
<circle cx="8519.69" cy="9296.85" r="1250" /> 
</g>
<g style="fill:#000000; fill-opacity:0.0; 
stroke:#000000; stroke-width:59.0551; stroke-opacity:1; 
stroke-linecap:round; stroke-linejoin:round;">
</g>
<g style="fill:#C2C200; fill-opacity:0.0; 
stroke:#C2C200; stroke-width:59.0551; stroke-opacity:1; 
stroke-linecap:round; stroke-linejoin:round;">
</g>
<g style="fill:#C2C200; fill-opacity:0.0; 
stroke:#C2C200; stroke-width:39.3701; stroke-opacity:1; 
stroke-linecap:round; stroke-linejoin:round;">
<path d="M36019 17396
L36019 18146
" />
<path d="M36519 16896
L36019 17396
" />
<path d="M13519 14896
L14519 15896
" />
<path d="M14519 16896
L14519 15896
" />
<path d="M15769 18146
L14519 16896
" />
<path d="M36519 16896
L39769 16896
" />
<path d="M15769 18146
L36019 18146
" />
<path d="M13519 14896
L10519 14896
" />
<path d="M1769 14896
L10519 14896
" />
<path d="M19 13146
L19 7396
" />
<path d="M1769 14896
L19 13146
" />
<path d="M39769 6396
L39769 16896
" />
<path d="M38519 5396
L39769 6396
" />
<path d="M2269 5396
L38519 5396
" />
<path d="M19 7396
L2269 5396
" />
</g> 
</svg>
