G04 #@! TF.FileFunction,Copper,L2,Bot,Signal*
%FSLAX46Y46*%
G04 Gerber Fmt 4.6, Leading zero omitted, Abs format (unit mm)*
G04 Created by KiCad (PCBNEW 4.0.2-stable) date Wednesday, 10 August 2016 'pmt' 17:01:05*
%MOMM*%
G01*
G04 APERTURE LIST*
%ADD10C,0.100000*%
%ADD11R,2.032000X1.727200*%
%ADD12O,2.032000X1.727200*%
%ADD13R,2.540000X2.540000*%
%ADD14C,2.540000*%
%ADD15R,2.032000X2.032000*%
%ADD16C,2.032000*%
%ADD17C,0.600000*%
%ADD18C,0.400000*%
G04 APERTURE END LIST*
D10*
D11*
X154305000Y-73660000D03*
D12*
X154305000Y-76200000D03*
X154305000Y-78740000D03*
X154305000Y-81280000D03*
D13*
X69850000Y-68199000D03*
D14*
X69850000Y-63500000D03*
X69850000Y-58801000D03*
D13*
X82550000Y-68199000D03*
D14*
X82550000Y-63500000D03*
X82550000Y-58801000D03*
D13*
X95250000Y-68199000D03*
D14*
X95250000Y-63500000D03*
X95250000Y-58801000D03*
D13*
X114300000Y-68199000D03*
D14*
X114300000Y-63500000D03*
X114300000Y-58801000D03*
D13*
X165100000Y-68199000D03*
D14*
X165100000Y-63500000D03*
X165100000Y-58801000D03*
D13*
X184150000Y-68199000D03*
D14*
X184150000Y-63500000D03*
X184150000Y-58801000D03*
D15*
X106680000Y-83185000D03*
D16*
X109220000Y-83185000D03*
X111760000Y-83185000D03*
X114300000Y-83185000D03*
X116840000Y-83185000D03*
X119380000Y-83185000D03*
X121920000Y-83185000D03*
X124460000Y-83185000D03*
X127000000Y-83185000D03*
X129540000Y-83185000D03*
X132080000Y-83185000D03*
X134620000Y-83185000D03*
X137160000Y-83185000D03*
X139700000Y-83185000D03*
X139700000Y-75565000D03*
X137160000Y-75565000D03*
X134620000Y-75565000D03*
X132080000Y-75565000D03*
X129540000Y-75565000D03*
X127000000Y-75565000D03*
X124460000Y-75565000D03*
X121920000Y-75565000D03*
X119380000Y-75565000D03*
X116840000Y-75565000D03*
X114300000Y-75565000D03*
X111760000Y-75565000D03*
X109220000Y-75565000D03*
X106680000Y-75565000D03*
D17*
X144391001Y-85725000D02*
X128270000Y-85725000D01*
X128270000Y-85725000D02*
X127635000Y-85725000D01*
X127635000Y-85090000D02*
X128270000Y-85725000D01*
X102870000Y-85090000D02*
X127000000Y-85090000D01*
X127635000Y-85725000D02*
X127000000Y-85090000D01*
X127000000Y-85090000D02*
X127635000Y-85090000D01*
X68580000Y-72390000D02*
X90170000Y-72390000D01*
X127635000Y-85090000D02*
X129540000Y-83185000D01*
X90170000Y-72390000D02*
X102870000Y-85090000D01*
X64770000Y-68580000D02*
X68580000Y-72390000D01*
X144391001Y-85725000D02*
X146296001Y-83820000D01*
X146296001Y-83820000D02*
X156210000Y-83820000D01*
X156210000Y-83820000D02*
X157480000Y-82550000D01*
X157480000Y-82550000D02*
X157480000Y-73660000D01*
X184150000Y-63500000D02*
X186944000Y-66294000D01*
X186944000Y-66294000D02*
X186944000Y-70231000D01*
X172720000Y-71120000D02*
X171831000Y-72009000D01*
X186944000Y-70231000D02*
X186055000Y-71120000D01*
X186055000Y-71120000D02*
X172720000Y-71120000D01*
X171831000Y-72009000D02*
X158242000Y-72009000D01*
X158242000Y-72009000D02*
X157480000Y-72771000D01*
X157480000Y-72771000D02*
X157480000Y-73660000D01*
X67945000Y-55880000D02*
X86995000Y-55880000D01*
X86995000Y-55880000D02*
X106680000Y-55880000D01*
X95250000Y-63500000D02*
X87630000Y-55880000D01*
X87630000Y-55880000D02*
X86995000Y-55880000D01*
X114300000Y-63500000D02*
X107950000Y-57150000D01*
X107950000Y-57150000D02*
X107830999Y-57030999D01*
X66794001Y-57030999D02*
X67945000Y-55880000D01*
X106680000Y-55880000D02*
X107950000Y-57150000D01*
X66794001Y-57030999D02*
X64770000Y-59055000D01*
X64770000Y-59055000D02*
X64770000Y-68580000D01*
X157480000Y-73660000D02*
X154305000Y-73660000D01*
X134620000Y-78105000D02*
X133985000Y-78740000D01*
X133985000Y-78740000D02*
X129540000Y-83185000D01*
X137160000Y-75565000D02*
X133985000Y-78740000D01*
X187960000Y-57150000D02*
X187960000Y-59690000D01*
X187960000Y-59690000D02*
X184150000Y-63500000D01*
X186690000Y-55880000D02*
X187960000Y-57150000D01*
X182245000Y-55880000D02*
X186690000Y-55880000D01*
X174625000Y-63500000D02*
X182245000Y-55880000D01*
X165100000Y-63500000D02*
X174625000Y-63500000D01*
X92710000Y-60960000D02*
X93980001Y-62230001D01*
X93980001Y-62230001D02*
X95250000Y-63500000D01*
X134620000Y-75565000D02*
X134620000Y-78105000D01*
X82550000Y-63500000D02*
X69850000Y-63500000D01*
X95250000Y-63500000D02*
X82550000Y-63500000D01*
X132080000Y-75565000D02*
X127000000Y-80645000D01*
X127000000Y-80645000D02*
X127000000Y-83185000D01*
X139700000Y-75565000D02*
X137795000Y-73660000D01*
X137795000Y-73660000D02*
X133985000Y-73660000D01*
X133985000Y-73660000D02*
X132080000Y-75565000D01*
D18*
X139700000Y-75565000D02*
X153670000Y-75565000D01*
X153670000Y-75565000D02*
X154305000Y-76200000D01*
X137160000Y-83185000D02*
X141605000Y-78740000D01*
X141605000Y-78740000D02*
X154305000Y-78740000D01*
X140427681Y-84701001D02*
X136136001Y-84701001D01*
X135635999Y-84200999D02*
X134620000Y-83185000D01*
X154305000Y-81280000D02*
X143848682Y-81280000D01*
X143848682Y-81280000D02*
X140427681Y-84701001D01*
X136136001Y-84701001D02*
X135635999Y-84200999D01*
X109220000Y-81748160D02*
X109005840Y-81534000D01*
X90832750Y-70789978D02*
X80672750Y-70789978D01*
X101576772Y-81534000D02*
X90832750Y-70789978D01*
X109220000Y-83185000D02*
X109220000Y-81748160D01*
X109005840Y-81534000D02*
X101576772Y-81534000D01*
X80672750Y-70789978D02*
X78081772Y-68199000D01*
X78081772Y-68199000D02*
X71520000Y-68199000D01*
X71520000Y-68199000D02*
X69850000Y-68199000D01*
X105264000Y-83185000D02*
X106680000Y-83185000D01*
X102237806Y-83185000D02*
X105264000Y-83185000D01*
X68580000Y-70369002D02*
X79261809Y-70369002D01*
X66609989Y-68398991D02*
X68580000Y-70369002D01*
X90542796Y-71489989D02*
X102237806Y-83185000D01*
X69850000Y-58801000D02*
X66609989Y-62041011D01*
X66609989Y-62041011D02*
X66609989Y-68398991D01*
X79261809Y-70369002D02*
X80382796Y-71489989D01*
X80382796Y-71489989D02*
X90542796Y-71489989D01*
X110744000Y-79629000D02*
X101651702Y-79629000D01*
X84220000Y-68199000D02*
X82550000Y-68199000D01*
X114300000Y-83185000D02*
X110744000Y-79629000D01*
X101651702Y-79629000D02*
X90221702Y-68199000D01*
X90221702Y-68199000D02*
X84220000Y-68199000D01*
X67310000Y-64770000D02*
X68580000Y-66040000D01*
X76912737Y-66040000D02*
X80962703Y-70089967D01*
X67310000Y-62865000D02*
X67310000Y-64770000D01*
X91122704Y-70089967D02*
X101550737Y-80518000D01*
X82550000Y-58801000D02*
X80391000Y-60960000D01*
X80391000Y-60960000D02*
X69215000Y-60960000D01*
X69215000Y-60960000D02*
X67310000Y-62865000D01*
X68580000Y-66040000D02*
X76912737Y-66040000D01*
X101550737Y-80518000D02*
X109093000Y-80518000D01*
X109093000Y-80518000D02*
X110744001Y-82169001D01*
X110744001Y-82169001D02*
X111760000Y-83185000D01*
X80962703Y-70089967D02*
X91122704Y-70089967D01*
X119380000Y-83185000D02*
X114046000Y-77851000D01*
X114046000Y-77851000D02*
X105410000Y-77851000D01*
X105410000Y-77851000D02*
X95758000Y-68199000D01*
X95758000Y-68199000D02*
X95250000Y-68199000D01*
X116840000Y-83185000D02*
X112395000Y-78740000D01*
X97536000Y-65532000D02*
X98298000Y-64770000D01*
X112395000Y-78740000D02*
X101752666Y-78740000D01*
X92600055Y-69587389D02*
X92600055Y-66784945D01*
X92600055Y-66784945D02*
X93853000Y-65532000D01*
X101752666Y-78740000D02*
X92600055Y-69587389D01*
X93853000Y-65532000D02*
X97536000Y-65532000D01*
X98298000Y-64770000D02*
X98298000Y-61849000D01*
X98298000Y-61849000D02*
X96519999Y-60070999D01*
X96519999Y-60070999D02*
X95250000Y-58801000D01*
X114300000Y-68199000D02*
X114300000Y-75565000D01*
X114300000Y-58801000D02*
X115951000Y-60452000D01*
X117602000Y-62103000D02*
X115951000Y-60452000D01*
X117602000Y-65151000D02*
X117602000Y-62103000D01*
X116840000Y-65913000D02*
X117602000Y-65151000D01*
X113157000Y-65913000D02*
X111760000Y-67310000D01*
X113157000Y-65913000D02*
X116840000Y-65913000D01*
X111760000Y-67310000D02*
X111760000Y-75565000D01*
X164719000Y-68580000D02*
X126365000Y-68580000D01*
X165100000Y-68199000D02*
X164719000Y-68580000D01*
X126365000Y-68580000D02*
X119380000Y-75565000D01*
X163303949Y-58801000D02*
X154921949Y-67183000D01*
X165100000Y-58801000D02*
X163303949Y-58801000D01*
X154921949Y-67183000D02*
X125222000Y-67183000D01*
X125222000Y-67183000D02*
X116840000Y-75565000D01*
X184150000Y-68199000D02*
X173482000Y-68199000D01*
X173482000Y-68199000D02*
X170572011Y-71108989D01*
X170572011Y-71108989D02*
X150887011Y-71108989D01*
X125475999Y-74549001D02*
X124460000Y-75565000D01*
X150887011Y-71108989D02*
X150252011Y-71743989D01*
X150252011Y-71743989D02*
X128281011Y-71743989D01*
X128281011Y-71743989D02*
X125475999Y-74549001D01*
X184150000Y-58801000D02*
X181229000Y-58801000D01*
X181229000Y-58801000D02*
X169672000Y-70358000D01*
X169672000Y-70358000D02*
X127127000Y-70358000D01*
X127127000Y-70358000D02*
X122935999Y-74549001D01*
X122935999Y-74549001D02*
X121920000Y-75565000D01*
M02*
