<?xml version="1.0" standalone="no"?>
 <!DOCTYPE svg PUBLIC "-//W3C//DTD SVG 1.1//EN" 
 "http://www.w3.org/Graphics/SVG/1.1/DTD/svg11.dtd"> 
<svg xmlns="http://www.w3.org/2000/svg" version="1.1" 
    width="21.6941cm" height="12.6086cm" viewBox="0 0 85410 49640 ">
<title>SVG Picture created as keys-3-3-brd.svg date 2016/08/10 16:25:27 </title>
  <desc>Picture generated by PCBNEW </desc>
<g style="fill:#000000; fill-opacity:1;stroke:#000000; stroke-opacity:1;
stroke-linecap:round; stroke-linejoin:round; "
 transform="translate(0 0) scale(1 1)">
</g>
<g style="fill:#000000; fill-opacity:0.0; 
stroke:#000000; stroke-width:-0.000393701; stroke-opacity:1; 
stroke-linecap:round; stroke-linejoin:round;">
</g>
<g style="fill:#840000; fill-opacity:0.0; 
stroke:#840000; stroke-width:-0.000393701; stroke-opacity:1; 
stroke-linecap:round; stroke-linejoin:round;">
</g>
<g style="fill:#840000; fill-opacity:0.0; 
stroke:#840000; stroke-width:59.0551; stroke-opacity:1; 
stroke-linecap:round; stroke-linejoin:round;">
<path d="M44179 8901
L44179 8114
" />
<path d="M45360 8901
L44179 8901
" />
<path d="M45360 8114
L45360 8901
" />
<path d="M44179 8114
L45360 8114
" />
<circle cx="44769.7" cy="6145.55" r="1250" /> 
<path d="M54179 8901
L54179 8114
" />
<path d="M55360 8901
L54179 8901
" />
<path d="M55360 8114
L55360 8901
" />
<path d="M54179 8114
L55360 8114
" />
<circle cx="54769.7" cy="6145.55" r="1250" /> 
<path d="M69179 8901
L69179 8114
" />
<path d="M70360 8901
L69179 8901
" />
<path d="M70360 8114
L70360 8901
" />
<path d="M69179 8114
L70360 8114
" />
<circle cx="69769.7" cy="6145.55" r="1250" /> 
<path d="M33763 4504
L34551 4504
" />
<path d="M33763 5686
L33763 4504
" />
<path d="M34551 5686
L33763 5686
" />
<path d="M34551 4504
L34551 5686
" />
<circle cx="36519.7" cy="5095.55" r="1250" /> 
<path d="M25763 4504
L26551 4504
" />
<path d="M25763 5686
L25763 4504
" />
<path d="M26551 5686
L25763 5686
" />
<path d="M26551 4504
L26551 5686
" />
<circle cx="28519.7" cy="5095.55" r="1250" /> 
<path d="M5775 5686
L4988 5686
" />
<path d="M5775 4504
L5775 5686
" />
<path d="M4988 4504
L5775 4504
" />
<path d="M4988 5686
L4988 4504
" />
<circle cx="3019.69" cy="5095.55" r="1250" /> 
</g>
<g style="fill:#000000; fill-opacity:0.0; 
stroke:#000000; stroke-width:59.0551; stroke-opacity:1; 
stroke-linecap:round; stroke-linejoin:round;">
</g>
<g style="fill:#C2C200; fill-opacity:0.0; 
stroke:#C2C200; stroke-width:59.0551; stroke-opacity:1; 
stroke-linecap:round; stroke-linejoin:round;">
</g>
<g style="fill:#C2C200; fill-opacity:0.0; 
stroke:#C2C200; stroke-width:39.3701; stroke-opacity:1; 
stroke-linecap:round; stroke-linejoin:round;">
<path d="M39769 15895
L39769 11145
" />
<path d="M40769 16645
L39769 15895
" />
<path d="M58269 16645
L40769 16645
" />
<path d="M59769 17895
L58269 16645
" />
<path d="M62269 17895
L59769 17895
" />
<path d="M62269 9645
L62269 17895
" />
<path d="M72269 9645
L62269 9645
" />
<path d="M72269 2645
L72269 9645
" />
<path d="M42519 2645
L72269 2645
" />
<path d="M42519 9895
L42519 2645
" />
<path d="M41019 9895
L42519 9895
" />
<path d="M39769 11145
L41019 9895
" />
<path d="M17519 7645
L40019 7645
" />
<path d="M16519 6645
L17519 7645
" />
<path d="M40019 2645
L40019 3145
" />
<path d="M25519 2645
L40019 2645
" />
<path d="M24519 3645
L25519 2645
" />
<path d="M19 3645
L24519 3645
" />
<path d="M19 6645
L19 3645
" />
<path d="M16519 6645
L19 6645
" />
<path d="M40019 3145
L40019 7645
" />
</g> 
</svg>
