G04 #@! TF.FileFunction,Copper,L1,Top,Signal*
%FSLAX46Y46*%
G04 Gerber Fmt 4.6, Leading zero omitted, Abs format (unit mm)*
G04 Created by KiCad (PCBNEW 4.0.2-stable) date Friday, 05 August 2016 'pmt' 17:35:23*
%MOMM*%
G01*
G04 APERTURE LIST*
%ADD10C,0.100000*%
%ADD11R,1.727200X1.727200*%
%ADD12O,1.727200X1.727200*%
%ADD13R,1.727200X2.032000*%
%ADD14O,1.727200X2.032000*%
%ADD15R,2.540000X2.540000*%
%ADD16C,2.540000*%
%ADD17R,2.032000X2.032000*%
%ADD18C,2.032000*%
G04 APERTURE END LIST*
D10*
D11*
X229235000Y-90170000D03*
D12*
X229235000Y-92710000D03*
X226695000Y-90170000D03*
X226695000Y-92710000D03*
D13*
X215900000Y-89535000D03*
D14*
X218440000Y-89535000D03*
X220980000Y-89535000D03*
D13*
X215900000Y-99060000D03*
D14*
X218440000Y-99060000D03*
X220980000Y-99060000D03*
D13*
X215900000Y-94615000D03*
D14*
X218440000Y-94615000D03*
X220980000Y-94615000D03*
D15*
X139700000Y-81915000D03*
D16*
X139700000Y-77216000D03*
X139700000Y-72517000D03*
D15*
X152400000Y-81915000D03*
D16*
X152400000Y-77216000D03*
X152400000Y-72517000D03*
D15*
X165100000Y-81915000D03*
D16*
X165100000Y-77216000D03*
X165100000Y-72517000D03*
D15*
X177800000Y-81915000D03*
D16*
X177800000Y-77216000D03*
X177800000Y-72517000D03*
D15*
X190500000Y-81915000D03*
D16*
X190500000Y-77216000D03*
X190500000Y-72517000D03*
D15*
X203200000Y-81915000D03*
D16*
X203200000Y-77216000D03*
X203200000Y-72517000D03*
D15*
X215900000Y-81915000D03*
D16*
X215900000Y-77216000D03*
X215900000Y-72517000D03*
D15*
X228600000Y-81915000D03*
D16*
X228600000Y-77216000D03*
X228600000Y-72517000D03*
D17*
X173990000Y-98425000D03*
D18*
X176530000Y-98425000D03*
X179070000Y-98425000D03*
X181610000Y-98425000D03*
X184150000Y-98425000D03*
X186690000Y-98425000D03*
X189230000Y-98425000D03*
X191770000Y-98425000D03*
X194310000Y-98425000D03*
X196850000Y-98425000D03*
X199390000Y-98425000D03*
X201930000Y-98425000D03*
X204470000Y-98425000D03*
X207010000Y-98425000D03*
X207010000Y-90805000D03*
X204470000Y-90805000D03*
X201930000Y-90805000D03*
X199390000Y-90805000D03*
X196850000Y-90805000D03*
X194310000Y-90805000D03*
X191770000Y-90805000D03*
X189230000Y-90805000D03*
X186690000Y-90805000D03*
X184150000Y-90805000D03*
X181610000Y-90805000D03*
X179070000Y-90805000D03*
X176530000Y-90805000D03*
X173990000Y-90805000D03*
M02*
