G04 #@! TF.FileFunction,Copper,L2,Bot,Signal*
%FSLAX46Y46*%
G04 Gerber Fmt 4.6, Leading zero omitted, Abs format (unit mm)*
G04 Created by KiCad (PCBNEW 4.0.2-stable) date Wednesday, 10 August 2016 'pmt' 16:25:39*
%MOMM*%
G01*
G04 APERTURE LIST*
%ADD10C,0.100000*%
%ADD11R,2.032000X1.727200*%
%ADD12O,2.032000X1.727200*%
%ADD13R,1.727200X2.032000*%
%ADD14O,1.727200X2.032000*%
%ADD15R,2.540000X2.540000*%
%ADD16C,2.540000*%
%ADD17R,2.032000X2.032000*%
%ADD18C,2.032000*%
%ADD19C,0.400000*%
%ADD20C,0.600000*%
G04 APERTURE END LIST*
D10*
D11*
X142240000Y-58420000D03*
D12*
X142240000Y-55880000D03*
X142240000Y-53340000D03*
X142240000Y-50800000D03*
D11*
X193040000Y-48260000D03*
D12*
X193040000Y-50800000D03*
X193040000Y-53340000D03*
X193040000Y-55880000D03*
X193040000Y-58420000D03*
X193040000Y-60960000D03*
X193040000Y-63500000D03*
X193040000Y-66040000D03*
D13*
X80645000Y-35433000D03*
D14*
X83185000Y-35433000D03*
X85725000Y-35433000D03*
X88265000Y-35433000D03*
X90805000Y-35433000D03*
X93345000Y-35433000D03*
X95885000Y-35433000D03*
X98425000Y-35433000D03*
D15*
X152400000Y-33401000D03*
D16*
X152400000Y-38100000D03*
X152400000Y-42799000D03*
D15*
X177800000Y-33401000D03*
D16*
X177800000Y-38100000D03*
X177800000Y-42799000D03*
D15*
X215900000Y-33401000D03*
D16*
X215900000Y-38100000D03*
X215900000Y-42799000D03*
D15*
X136144000Y-35433000D03*
D16*
X131445000Y-35433000D03*
X126746000Y-35433000D03*
D15*
X115824000Y-35433000D03*
D16*
X111125000Y-35433000D03*
X106426000Y-35433000D03*
D15*
X41656000Y-35433000D03*
D16*
X46355000Y-35433000D03*
X51054000Y-35433000D03*
D17*
X184150000Y-50800000D03*
D18*
X181610000Y-50800000D03*
X179070000Y-50800000D03*
X176530000Y-50800000D03*
X173990000Y-50800000D03*
X171450000Y-50800000D03*
X168910000Y-50800000D03*
X166370000Y-50800000D03*
X163830000Y-50800000D03*
X161290000Y-50800000D03*
X158750000Y-50800000D03*
X156210000Y-50800000D03*
X153670000Y-50800000D03*
X151130000Y-50800000D03*
X151130000Y-58420000D03*
X153670000Y-58420000D03*
X156210000Y-58420000D03*
X158750000Y-58420000D03*
X161290000Y-58420000D03*
X163830000Y-58420000D03*
X166370000Y-58420000D03*
X168910000Y-58420000D03*
X171450000Y-58420000D03*
X173990000Y-58420000D03*
X176530000Y-58420000D03*
X179070000Y-58420000D03*
X181610000Y-58420000D03*
X184150000Y-58420000D03*
D19*
X125896840Y-119380000D02*
X124460000Y-119380000D01*
D20*
X161290000Y-50800000D02*
X157480000Y-46990000D01*
X157480000Y-46990000D02*
X149860000Y-46990000D01*
X149860000Y-46990000D02*
X148590000Y-45720000D01*
X148590000Y-45720000D02*
X148590000Y-36830000D01*
X148590000Y-36830000D02*
X148717000Y-36830000D01*
X148717000Y-36830000D02*
X149987000Y-38100000D01*
X149987000Y-38100000D02*
X152400000Y-38100000D01*
X148590000Y-36957000D02*
X148590000Y-31750000D01*
X148590000Y-31750000D02*
X149860000Y-30480000D01*
X149860000Y-30480000D02*
X179578000Y-30480000D01*
X179578000Y-30480000D02*
X181229000Y-32131000D01*
X181229000Y-32131000D02*
X181229000Y-34671000D01*
X181229000Y-34671000D02*
X184658000Y-38100000D01*
X184658000Y-38100000D02*
X185420000Y-38100000D01*
X193040000Y-48260000D02*
X193192400Y-48260000D01*
X193192400Y-48260000D02*
X195732400Y-45720000D01*
X195732400Y-45720000D02*
X218440000Y-45720000D01*
X218440000Y-45720000D02*
X220357700Y-43802300D01*
X220357700Y-43802300D02*
X220357700Y-33667700D01*
X220357700Y-33667700D02*
X217538300Y-30848300D01*
X217538300Y-30848300D02*
X212991700Y-30848300D01*
X212991700Y-30848300D02*
X211391500Y-32448500D01*
X211391500Y-32448500D02*
X211391500Y-33591500D01*
X211391500Y-33591500D02*
X215900000Y-38100000D01*
X215900000Y-38100000D02*
X185420000Y-38100000D01*
X185420000Y-38100000D02*
X177800000Y-38100000D01*
X156210000Y-55880000D02*
X156210000Y-56983160D01*
X161290000Y-50800000D02*
X156210000Y-55880000D01*
X156210000Y-56983160D02*
X156210000Y-58420000D01*
X151130000Y-58420000D02*
X142240000Y-58420000D01*
X151130000Y-58420000D02*
X153670000Y-58420000D01*
X153670000Y-58420000D02*
X156210000Y-58420000D01*
X142240000Y-55880000D02*
X140970000Y-55880000D01*
X140970000Y-55880000D02*
X140335000Y-56515000D01*
X140335000Y-56515000D02*
X140335000Y-60960000D01*
X140335000Y-60960000D02*
X141605000Y-62230000D01*
X141605000Y-62230000D02*
X156845000Y-62230000D01*
X156845000Y-62230000D02*
X158750000Y-60325000D01*
X158750000Y-60325000D02*
X158750000Y-58420000D01*
X158750000Y-58420000D02*
X158750000Y-55880000D01*
X158750000Y-55880000D02*
X163830000Y-50800000D01*
D19*
X153670000Y-50800000D02*
X151130000Y-53340000D01*
X151130000Y-53340000D02*
X142240000Y-53340000D01*
X142240000Y-50800000D02*
X143656000Y-50800000D01*
X143656000Y-50800000D02*
X145172001Y-49283999D01*
X145172001Y-49283999D02*
X154693999Y-49283999D01*
X154693999Y-49283999D02*
X155194001Y-49784001D01*
X155194001Y-49784001D02*
X156210000Y-50800000D01*
X179070000Y-58420000D02*
X179070000Y-55880000D01*
X190500000Y-50800000D02*
X193040000Y-50800000D01*
X179070000Y-55880000D02*
X180340000Y-54610000D01*
X180340000Y-54610000D02*
X186690000Y-54610000D01*
X186690000Y-54610000D02*
X190500000Y-50800000D01*
X193040000Y-53340000D02*
X191770000Y-53340000D01*
X191770000Y-53340000D02*
X184410044Y-60699956D01*
X184410044Y-60699956D02*
X178809956Y-60699956D01*
X178809956Y-60699956D02*
X177545999Y-59435999D01*
X177545999Y-59435999D02*
X176530000Y-58420000D01*
X175005999Y-59435999D02*
X173990000Y-58420000D01*
X176969967Y-61399967D02*
X175005999Y-59435999D01*
X185817597Y-61399967D02*
X176969967Y-61399967D01*
X191337564Y-55880000D02*
X185817597Y-61399967D01*
X193040000Y-55880000D02*
X191337564Y-55880000D01*
X175129978Y-62099978D02*
X172465999Y-59435999D01*
X189787529Y-58420000D02*
X186107551Y-62099978D01*
X172465999Y-59435999D02*
X171450000Y-58420000D01*
X186107551Y-62099978D02*
X175129978Y-62099978D01*
X193040000Y-58420000D02*
X189787529Y-58420000D01*
X173289989Y-62799989D02*
X169925999Y-59435999D01*
X188237494Y-60960000D02*
X186397505Y-62799989D01*
X193040000Y-60960000D02*
X188237494Y-60960000D01*
X186397505Y-62799989D02*
X173289989Y-62799989D01*
X169925999Y-59435999D02*
X168910000Y-58420000D01*
X171450000Y-63500000D02*
X167385999Y-59435999D01*
X193040000Y-63500000D02*
X171450000Y-63500000D01*
X167385999Y-59435999D02*
X166370000Y-58420000D01*
X51054000Y-35433000D02*
X52832000Y-33655000D01*
X52832000Y-33655000D02*
X91719400Y-33655000D01*
X91719400Y-33655000D02*
X93345000Y-35280600D01*
X93345000Y-35280600D02*
X93345000Y-35433000D01*
X41656000Y-35433000D02*
X42418000Y-35433000D01*
X92989400Y-32385000D02*
X95885000Y-35280600D01*
X42418000Y-35433000D02*
X45466000Y-32385000D01*
X45466000Y-32385000D02*
X92989400Y-32385000D01*
X95885000Y-35280600D02*
X95885000Y-35433000D01*
X115824000Y-35433000D02*
X114154000Y-35433000D01*
X114154000Y-35433000D02*
X111487000Y-32766000D01*
X111487000Y-32766000D02*
X104902000Y-32766000D01*
X92506800Y-37287200D02*
X90805000Y-35585400D01*
X104902000Y-32766000D02*
X100380800Y-37287200D01*
X100380800Y-37287200D02*
X92506800Y-37287200D01*
X90805000Y-35585400D02*
X90805000Y-35433000D01*
D20*
X111125000Y-35433000D02*
X113753900Y-38061900D01*
X113753900Y-38061900D02*
X117640100Y-38061900D01*
X117640100Y-38061900D02*
X125349000Y-30353000D01*
X125349000Y-30353000D02*
X135255000Y-30353000D01*
X135255000Y-30353000D02*
X139065000Y-34163000D01*
X139065000Y-36703000D02*
X136525000Y-39243000D01*
X139065000Y-34163000D02*
X139065000Y-36703000D01*
X136525000Y-39243000D02*
X135255000Y-39243000D01*
X135255000Y-39243000D02*
X132714999Y-36702999D01*
X132714999Y-36702999D02*
X131445000Y-35433000D01*
X80645000Y-35433000D02*
X80645000Y-35585400D01*
X80645000Y-35585400D02*
X86207600Y-41148000D01*
X86207600Y-41148000D02*
X125730000Y-41148000D01*
X125730000Y-41148000D02*
X130175001Y-36702999D01*
X130175001Y-36702999D02*
X131445000Y-35433000D01*
X46355000Y-35433000D02*
X48387000Y-37465000D01*
X48387000Y-37465000D02*
X77349400Y-37465000D01*
X77349400Y-37465000D02*
X79381400Y-35433000D01*
X79381400Y-35433000D02*
X80645000Y-35433000D01*
D19*
X106426000Y-35433000D02*
X103657400Y-38201600D01*
X103657400Y-38201600D02*
X90881200Y-38201600D01*
X90881200Y-38201600D02*
X88265000Y-35585400D01*
X88265000Y-35585400D02*
X88265000Y-35433000D01*
X136144000Y-35433000D02*
X135255000Y-35433000D01*
X135255000Y-35433000D02*
X132080000Y-32258000D01*
X85725000Y-35585400D02*
X85725000Y-35433000D01*
X132080000Y-32258000D02*
X125957965Y-32258000D01*
X125957965Y-32258000D02*
X119112665Y-39103300D01*
X119112665Y-39103300D02*
X89242900Y-39103300D01*
X89242900Y-39103300D02*
X85725000Y-35585400D01*
X126746000Y-35433000D02*
X122105967Y-40073033D01*
X122105967Y-40073033D02*
X87672633Y-40073033D01*
X87672633Y-40073033D02*
X83185000Y-35585400D01*
X83185000Y-35585400D02*
X83185000Y-35433000D01*
X184150000Y-50800000D02*
X184150000Y-49384000D01*
X184150000Y-49384000D02*
X185420000Y-48114000D01*
X218948000Y-34798000D02*
X217551000Y-33401000D01*
X185420000Y-48114000D02*
X185420000Y-45720000D01*
X185420000Y-45720000D02*
X190500000Y-40640000D01*
X190500000Y-40640000D02*
X217284300Y-40640000D01*
X217284300Y-40640000D02*
X218948000Y-38976300D01*
X218948000Y-38976300D02*
X218948000Y-34798000D01*
X217551000Y-33401000D02*
X215900000Y-33401000D01*
X215900000Y-42799000D02*
X193421000Y-42799000D01*
X186690000Y-52070000D02*
X185420000Y-53340000D01*
X193421000Y-42799000D02*
X186690000Y-49530000D01*
X182713160Y-53340000D02*
X181610000Y-52236840D01*
X186690000Y-49530000D02*
X186690000Y-52070000D01*
X185420000Y-53340000D02*
X182713160Y-53340000D01*
X181610000Y-52236840D02*
X181610000Y-50800000D01*
X152400000Y-33401000D02*
X156591000Y-33401000D01*
X156591000Y-33401000D02*
X173990000Y-50800000D01*
X171450000Y-50800000D02*
X163449000Y-42799000D01*
X163449000Y-42799000D02*
X152400000Y-42799000D01*
X181610000Y-43989398D02*
X181610000Y-48260000D01*
X181610000Y-48260000D02*
X179070000Y-50800000D01*
X174009000Y-40640000D02*
X178260602Y-40640000D01*
X178260602Y-40640000D02*
X181610000Y-43989398D01*
X171450000Y-38081000D02*
X174009000Y-40640000D01*
X177800000Y-33401000D02*
X176130000Y-33401000D01*
X176130000Y-33401000D02*
X171450000Y-38081000D01*
X177800000Y-42799000D02*
X177800000Y-49530000D01*
X177800000Y-49530000D02*
X176530000Y-50800000D01*
M02*
