<?xml version="1.0" standalone="no"?>
 <!DOCTYPE svg PUBLIC "-//W3C//DTD SVG 1.1//EN" 
 "http://www.w3.org/Graphics/SVG/1.1/DTD/svg11.dtd"> 
<svg xmlns="http://www.w3.org/2000/svg" version="1.1" 
    width="12.5806cm" height="4.48056cm" viewBox="0 0 49530 17640 ">
<title>SVG Picture created as keys-6-brd.svg date 2016/08/10 17:00:59 </title>
  <desc>Picture generated by PCBNEW </desc>
<g style="fill:#000000; fill-opacity:1;stroke:#000000; stroke-opacity:1;
stroke-linecap:round; stroke-linejoin:round; "
 transform="translate(0 0) scale(1 1)">
</g>
<g style="fill:#000000; fill-opacity:0.0; 
stroke:#000000; stroke-width:-0.000393701; stroke-opacity:1; 
stroke-linecap:round; stroke-linejoin:round;">
</g>
<g style="fill:#840000; fill-opacity:0.0; 
stroke:#840000; stroke-width:-0.000393701; stroke-opacity:1; 
stroke-linecap:round; stroke-linejoin:round;">
</g>
<g style="fill:#840000; fill-opacity:0.0; 
stroke:#840000; stroke-width:59.0551; stroke-opacity:1; 
stroke-linecap:round; stroke-linejoin:round;">
<path d="M3110 5366
L3110 6153
" />
<path d="M1929 5366
L3110 5366
" />
<path d="M1929 6153
L1929 5366
" />
<path d="M3110 6153
L1929 6153
" />
<circle cx="2519.69" cy="8122.05" r="1250" /> 
<path d="M8110 5366
L8110 6153
" />
<path d="M6929 5366
L8110 5366
" />
<path d="M6929 6153
L6929 5366
" />
<path d="M8110 6153
L6929 6153
" />
<circle cx="7519.69" cy="8122.05" r="1250" /> 
<path d="M13110 5366
L13110 6153
" />
<path d="M11929 5366
L13110 5366
" />
<path d="M11929 6153
L11929 5366
" />
<path d="M13110 6153
L11929 6153
" />
<circle cx="12519.7" cy="8122.05" r="1250" /> 
<path d="M20610 5366
L20610 6153
" />
<path d="M19429 5366
L20610 5366
" />
<path d="M19429 6153
L19429 5366
" />
<path d="M20610 6153
L19429 6153
" />
<circle cx="20019.7" cy="8122.05" r="1250" /> 
<path d="M40610 5366
L40610 6153
" />
<path d="M39429 5366
L40610 5366
" />
<path d="M39429 6153
L39429 5366
" />
<path d="M40610 6153
L39429 6153
" />
<circle cx="40019.7" cy="8122.05" r="1250" /> 
<path d="M48110 5366
L48110 6153
" />
<path d="M46929 5366
L48110 5366
" />
<path d="M46929 6153
L46929 5366
" />
<path d="M48110 6153
L46929 6153
" />
<circle cx="47519.7" cy="8122.05" r="1250" /> 
</g>
<g style="fill:#000000; fill-opacity:0.0; 
stroke:#000000; stroke-width:59.0551; stroke-opacity:1; 
stroke-linecap:round; stroke-linejoin:round;">
</g>
<g style="fill:#C2C200; fill-opacity:0.0; 
stroke:#C2C200; stroke-width:59.0551; stroke-opacity:1; 
stroke-linecap:round; stroke-linejoin:round;">
</g>
<g style="fill:#C2C200; fill-opacity:0.0; 
stroke:#C2C200; stroke-width:39.3701; stroke-opacity:1; 
stroke-linecap:round; stroke-linejoin:round;">
<path d="M10019 12122
L15519 17622
" />
<path d="M1519 12122
L10019 12122
" />
<path d="M21519 4622
L25519 8622
" />
<path d="M34519 8622
L25519 8622
" />
<path d="M38519 4622
L34519 8622
" />
<path d="M49019 4622
L38519 4622
" />
<path d="M49519 5122
L49019 4622
" />
<path d="M49519 10622
L49519 5122
" />
<path d="M48019 12122
L49519 10622
" />
<path d="M37519 12122
L48019 12122
" />
<path d="M37519 16122
L37519 12122
" />
<path d="M36019 17622
L37519 16122
" />
<path d="M15519 17622
L36019 17622
" />
<path d="M19 10622
L1519 12122
" />
<path d="M19 5622
L19 10622
" />
<path d="M1019 4622
L19 5622
" />
<path d="M21519 4622
L1019 4622
" />
</g> 
</svg>
