G04 #@! TF.FileFunction,Copper,L1,Top,Signal*
%FSLAX46Y46*%
G04 Gerber Fmt 4.6, Leading zero omitted, Abs format (unit mm)*
G04 Created by KiCad (PCBNEW 4.0.2-stable) date Wednesday, 10 August 2016 'pmt' 17:01:05*
%MOMM*%
G01*
G04 APERTURE LIST*
%ADD10C,0.100000*%
%ADD11R,2.032000X1.727200*%
%ADD12O,2.032000X1.727200*%
%ADD13R,2.540000X2.540000*%
%ADD14C,2.540000*%
%ADD15R,2.032000X2.032000*%
%ADD16C,2.032000*%
G04 APERTURE END LIST*
D10*
D11*
X154305000Y-73660000D03*
D12*
X154305000Y-76200000D03*
X154305000Y-78740000D03*
X154305000Y-81280000D03*
D13*
X69850000Y-68199000D03*
D14*
X69850000Y-63500000D03*
X69850000Y-58801000D03*
D13*
X82550000Y-68199000D03*
D14*
X82550000Y-63500000D03*
X82550000Y-58801000D03*
D13*
X95250000Y-68199000D03*
D14*
X95250000Y-63500000D03*
X95250000Y-58801000D03*
D13*
X114300000Y-68199000D03*
D14*
X114300000Y-63500000D03*
X114300000Y-58801000D03*
D13*
X165100000Y-68199000D03*
D14*
X165100000Y-63500000D03*
X165100000Y-58801000D03*
D13*
X184150000Y-68199000D03*
D14*
X184150000Y-63500000D03*
X184150000Y-58801000D03*
D15*
X106680000Y-83185000D03*
D16*
X109220000Y-83185000D03*
X111760000Y-83185000D03*
X114300000Y-83185000D03*
X116840000Y-83185000D03*
X119380000Y-83185000D03*
X121920000Y-83185000D03*
X124460000Y-83185000D03*
X127000000Y-83185000D03*
X129540000Y-83185000D03*
X132080000Y-83185000D03*
X134620000Y-83185000D03*
X137160000Y-83185000D03*
X139700000Y-83185000D03*
X139700000Y-75565000D03*
X137160000Y-75565000D03*
X134620000Y-75565000D03*
X132080000Y-75565000D03*
X129540000Y-75565000D03*
X127000000Y-75565000D03*
X124460000Y-75565000D03*
X121920000Y-75565000D03*
X119380000Y-75565000D03*
X116840000Y-75565000D03*
X114300000Y-75565000D03*
X111760000Y-75565000D03*
X109220000Y-75565000D03*
X106680000Y-75565000D03*
M02*
