M48
;DRILL file {KiCad 4.0.2-stable} date Friday, 05 August 2016 'pmt' 17:35:25
;FORMAT={-:-/ absolute / inch / decimal}
FMAT,2
INCH,TZ
T1C0.030
T2C0.040
T3C0.060
%
G90
G05
M72
T1
X6.85Y-3.575
X6.85Y-3.875
X6.95Y-3.575
X6.95Y-3.875
X7.05Y-3.575
X7.05Y-3.875
X7.15Y-3.575
X7.15Y-3.875
X7.25Y-3.575
X7.25Y-3.875
X7.35Y-3.575
X7.35Y-3.875
X7.45Y-3.575
X7.45Y-3.875
X7.55Y-3.575
X7.55Y-3.875
X7.65Y-3.575
X7.65Y-3.875
X7.75Y-3.575
X7.75Y-3.875
X7.85Y-3.575
X7.85Y-3.875
X7.95Y-3.575
X7.95Y-3.875
X8.05Y-3.575
X8.05Y-3.875
X8.15Y-3.575
X8.15Y-3.875
T2
X8.5Y-3.525
X8.5Y-3.725
X8.5Y-3.9
X8.6Y-3.525
X8.6Y-3.725
X8.6Y-3.9
X8.7Y-3.525
X8.7Y-3.725
X8.7Y-3.9
X8.925Y-3.55
X8.925Y-3.65
X9.025Y-3.55
X9.025Y-3.65
T3
X5.5Y-2.855
X5.5Y-3.04
X5.5Y-3.225
X6.Y-2.855
X6.Y-3.04
X6.Y-3.225
X6.5Y-2.855
X6.5Y-3.04
X6.5Y-3.225
X7.Y-2.855
X7.Y-3.04
X7.Y-3.225
X7.5Y-2.855
X7.5Y-3.04
X7.5Y-3.225
X8.Y-2.855
X8.Y-3.04
X8.Y-3.225
X8.5Y-2.855
X8.5Y-3.04
X8.5Y-3.225
X9.Y-2.855
X9.Y-3.04
X9.Y-3.225
T0
M30
