G04 #@! TF.FileFunction,Copper,L1,Top,Signal*
%FSLAX46Y46*%
G04 Gerber Fmt 4.6, Leading zero omitted, Abs format (unit mm)*
G04 Created by KiCad (PCBNEW 4.0.2-stable) date Wednesday, 10 August 2016 'pmt' 17:46:57*
%MOMM*%
G01*
G04 APERTURE LIST*
%ADD10C,0.100000*%
%ADD11R,2.032000X1.727200*%
%ADD12O,2.032000X1.727200*%
%ADD13R,2.540000X2.540000*%
%ADD14C,2.540000*%
%ADD15R,2.032000X2.032000*%
%ADD16C,2.032000*%
G04 APERTURE END LIST*
D10*
D11*
X209550000Y-43180000D03*
D12*
X209550000Y-45720000D03*
X209550000Y-48260000D03*
X209550000Y-50800000D03*
D13*
X57150000Y-58801000D03*
D14*
X57150000Y-63500000D03*
X57150000Y-68199000D03*
D13*
X69850000Y-58801000D03*
D14*
X69850000Y-63500000D03*
X69850000Y-68199000D03*
D13*
X82550000Y-58801000D03*
D14*
X82550000Y-63500000D03*
X82550000Y-68199000D03*
D13*
X101600000Y-58801000D03*
D14*
X101600000Y-63500000D03*
X101600000Y-68199000D03*
D13*
X120650000Y-58801000D03*
D14*
X120650000Y-63500000D03*
X120650000Y-68199000D03*
D13*
X139700000Y-58801000D03*
D14*
X139700000Y-63500000D03*
X139700000Y-68199000D03*
D13*
X158750000Y-58801000D03*
D14*
X158750000Y-63500000D03*
X158750000Y-68199000D03*
D13*
X177800000Y-58801000D03*
D14*
X177800000Y-63500000D03*
X177800000Y-68199000D03*
D13*
X215900000Y-58801000D03*
D14*
X215900000Y-63500000D03*
X215900000Y-68199000D03*
D15*
X165100000Y-50800000D03*
D16*
X167640000Y-50800000D03*
X170180000Y-50800000D03*
X172720000Y-50800000D03*
X175260000Y-50800000D03*
X177800000Y-50800000D03*
X180340000Y-50800000D03*
X182880000Y-50800000D03*
X185420000Y-50800000D03*
X187960000Y-50800000D03*
X190500000Y-50800000D03*
X193040000Y-50800000D03*
X195580000Y-50800000D03*
X198120000Y-50800000D03*
X198120000Y-43180000D03*
X195580000Y-43180000D03*
X193040000Y-43180000D03*
X190500000Y-43180000D03*
X187960000Y-43180000D03*
X185420000Y-43180000D03*
X182880000Y-43180000D03*
X180340000Y-43180000D03*
X177800000Y-43180000D03*
X175260000Y-43180000D03*
X172720000Y-43180000D03*
X170180000Y-43180000D03*
X167640000Y-43180000D03*
X165100000Y-43180000D03*
M02*
