M48
;DRILL file {KiCad 4.0.2-stable} date Wednesday, 10 August 2016 'pmt' 17:00:50
;FORMAT={-:-/ absolute / inch / decimal}
FMAT,2
INCH,TZ
T1C0.030
T2C0.040
T3C0.060
%
G90
G05
M72
T1
X4.2Y-2.975
X4.2Y-3.275
X4.3Y-2.975
X4.3Y-3.275
X4.4Y-2.975
X4.4Y-3.275
X4.5Y-2.975
X4.5Y-3.275
X4.6Y-2.975
X4.6Y-3.275
X4.7Y-2.975
X4.7Y-3.275
X4.8Y-2.975
X4.8Y-3.275
X4.9Y-2.975
X4.9Y-3.275
X5.Y-2.975
X5.Y-3.275
X5.1Y-2.975
X5.1Y-3.275
X5.2Y-2.975
X5.2Y-3.275
X5.3Y-2.975
X5.3Y-3.275
X5.4Y-2.975
X5.4Y-3.275
X5.5Y-2.975
X5.5Y-3.275
T2
X6.075Y-2.9
X6.075Y-3.
X6.075Y-3.1
X6.075Y-3.2
T3
X2.75Y-2.315
X2.75Y-2.5
X2.75Y-2.685
X3.25Y-2.315
X3.25Y-2.5
X3.25Y-2.685
X3.75Y-2.315
X3.75Y-2.5
X3.75Y-2.685
X4.5Y-2.315
X4.5Y-2.5
X4.5Y-2.685
X6.5Y-2.315
X6.5Y-2.5
X6.5Y-2.685
X7.25Y-2.315
X7.25Y-2.5
X7.25Y-2.685
T0
M30
