M48
;DRILL file {KiCad 4.0.2-stable} date Wednesday, 10 August 2016 'pmt' 16:25:41
;FORMAT={-:-/ absolute / inch / decimal}
FMAT,2
INCH,TZ
T1C0.030
T2C0.040
T3C0.060
%
G90
G05
M72
T1
X5.95Y-2.
X5.95Y-2.3
X6.05Y-2.
X6.05Y-2.3
X6.15Y-2.
X6.15Y-2.3
X6.25Y-2.
X6.25Y-2.3
X6.35Y-2.
X6.35Y-2.3
X6.45Y-2.
X6.45Y-2.3
X6.55Y-2.
X6.55Y-2.3
X6.65Y-2.
X6.65Y-2.3
X6.75Y-2.
X6.75Y-2.3
X6.85Y-2.
X6.85Y-2.3
X6.95Y-2.
X6.95Y-2.3
X7.05Y-2.
X7.05Y-2.3
X7.15Y-2.
X7.15Y-2.3
X7.25Y-2.
X7.25Y-2.3
T2
X3.175Y-1.395
X3.275Y-1.395
X3.375Y-1.395
X3.475Y-1.395
X3.575Y-1.395
X3.675Y-1.395
X3.775Y-1.395
X3.875Y-1.395
X5.6Y-2.
X5.6Y-2.1
X5.6Y-2.2
X5.6Y-2.3
X7.6Y-1.9
X7.6Y-2.
X7.6Y-2.1
X7.6Y-2.2
X7.6Y-2.3
X7.6Y-2.4
X7.6Y-2.5
X7.6Y-2.6
T3
X1.64Y-1.395
X1.825Y-1.395
X2.01Y-1.395
X4.19Y-1.395
X4.375Y-1.395
X4.56Y-1.395
X4.99Y-1.395
X5.175Y-1.395
X5.36Y-1.395
X6.Y-1.315
X6.Y-1.5
X6.Y-1.685
X7.Y-1.315
X7.Y-1.5
X7.Y-1.685
X8.5Y-1.315
X8.5Y-1.5
X8.5Y-1.685
T0
M30
