M48
;DRILL file {KiCad 4.0.2-stable} date Sunday, 07 August 2016 'pmt' 12:55:10
;FORMAT={-:-/ absolute / inch / decimal}
FMAT,2
INCH,TZ
T1C0.039
T2C0.039
T3C0.040
T4C0.118
%
G90
G05
M72
T1
X2.4973Y-4.2915
X2.9996Y-4.264
X3.5003Y-4.2364
X3.9999Y-4.2089
X4.5Y-4.1813
X5.0002Y-4.1537
X5.4999Y-4.1238
T2
X2.Y-4.4
X2.Y-4.5
X2.5Y-4.4
X2.5Y-4.5
X3.Y-4.4
X3.Y-4.5
X3.5Y-4.4
X3.5Y-4.5
X4.Y-4.4
X4.Y-4.5
X4.5Y-4.4
X4.5Y-4.5
X5.Y-4.4
X5.Y-4.5
X5.5Y-4.4
X5.5Y-4.5
X6.Y-4.4
X6.Y-4.5
X6.5Y-4.4
X6.5Y-4.5
X7.Y-4.4
X7.Y-4.5
X7.5Y-4.4
X7.5Y-4.5
X8.Y-4.4
X8.Y-4.5
X9.55Y-4.4
X9.55Y-4.5
X10.05Y-4.4
X10.05Y-4.5
X10.55Y-4.4
X10.55Y-4.5
T3
X2.Y-4.
X2.Y-4.1
X2.1Y-4.
X2.1Y-4.1
X2.2Y-4.
X2.2Y-4.1
X2.3Y-4.
X2.3Y-4.1
X2.4Y-4.
X2.4Y-4.1
X8.45Y-4.2
X8.45Y-4.3
X8.45Y-4.4
X8.45Y-4.5
X9.025Y-4.2
X9.025Y-4.3
X9.025Y-4.4
X9.025Y-4.5
T4
X2.25Y-4.275
X8.25Y-4.2
X9.25Y-4.25
X10.3Y-4.25
T0
M30
