<?xml version="1.0" standalone="no"?>
 <!DOCTYPE svg PUBLIC "-//W3C//DTD SVG 1.1//EN" 
 "http://www.w3.org/Graphics/SVG/1.1/DTD/svg11.dtd"> 
<svg xmlns="http://www.w3.org/2000/svg" version="1.1" 
    width="17.1907cm" height="2.80416cm" viewBox="0 0 67680 11040 ">
<title>SVG Picture created as lamps-4-3-brd.svg date 2016/08/10 18:21:42 </title>
  <desc>Picture generated by PCBNEW </desc>
<g style="fill:#000000; fill-opacity:1;stroke:#000000; stroke-opacity:1;
stroke-linecap:round; stroke-linejoin:round; "
 transform="translate(0 0) scale(1 1)">
</g>
<g style="fill:#000000; fill-opacity:0.0; 
stroke:#000000; stroke-width:-0.000393701; stroke-opacity:1; 
stroke-linecap:round; stroke-linejoin:round;">
</g>
<g style="fill:#840000; fill-opacity:0.0; 
stroke:#840000; stroke-width:-0.000393701; stroke-opacity:1; 
stroke-linecap:round; stroke-linejoin:round;">
</g>
<g style="fill:#840000; fill-opacity:0.0; 
stroke:#840000; stroke-width:59.0551; stroke-opacity:1; 
stroke-linecap:round; stroke-linejoin:round;">
<circle cx="2121.65" cy="9529.53" r="984.252" /> 
<circle cx="12121.7" cy="9529.53" r="984.252" /> 
<circle cx="19621.7" cy="9529.53" r="984.252" /> 
<circle cx="27121.7" cy="9529.53" r="984.252" /> 
<circle cx="40621.7" cy="3529.53" r="984.252" /> 
<circle cx="55621.7" cy="3529.53" r="984.252" /> 
<circle cx="65621.7" cy="3529.53" r="984.252" /> 
<circle cx="12121.7" cy="6279.53" r="590.551" /> 
<circle cx="19621.7" cy="6279.53" r="590.551" /> 
<circle cx="45621.7" cy="4029.53" r="590.551" /> 
<circle cx="60621.7" cy="4029.53" r="590.551" /> 
</g>
<g style="fill:#000000; fill-opacity:0.0; 
stroke:#000000; stroke-width:59.0551; stroke-opacity:1; 
stroke-linecap:round; stroke-linejoin:round;">
</g>
<g style="fill:#C2C200; fill-opacity:0.0; 
stroke:#C2C200; stroke-width:59.0551; stroke-opacity:1; 
stroke-linecap:round; stroke-linejoin:round;">
</g>
<g style="fill:#C2C200; fill-opacity:0.0; 
stroke:#C2C200; stroke-width:39.3701; stroke-opacity:1; 
stroke-linecap:round; stroke-linejoin:round;">
<path d="M5871 779
L4621 2029
" />
<path d="M24121 779
L25121 1779
" />
<path d="M5871 779
L24121 779
" />
<path d="M4621 4279
L4621 2029
" />
<path d="M371 8279
L4621 4279
" />
<path d="M371 10279
L371 8279
" />
<path d="M1121 11029
L371 10279
" />
<path d="M27871 11029
L1121 11029
" />
<path d="M28621 10279
L27871 11029
" />
<path d="M28621 8029
L28621 10279
" />
<path d="M27871 7279
L28621 8029
" />
<path d="M26871 7279
L27871 7279
" />
<path d="M25121 5529
L26871 7279
" />
<path d="M25121 1779
L25121 5529
" />
<path d="M32621 6029
L32621 2029
" />
<path d="M67121 6029
L32621 6029
" />
<path d="M67121 2029
L67121 6029
" />
<path d="M32621 2029
L67121 2029
" />
</g> 
</svg>
