M48
;DRILL file {KiCad 4.0.2-stable} date Thursday, 11 August 2016 'amt' 11:26:04
;FORMAT={-:-/ absolute / inch / decimal}
FMAT,2
INCH,TZ
T1C0.016
T2C0.039
T3C0.039
T4C0.040
T5C0.118
%
G90
G05
M72
T1
X6.5Y-2.8
X7.Y-2.8
X7.5Y-2.85
T2
X2.2Y-2.65
X2.2Y-3.08
X2.5Y-2.65
X3.Y-2.65
X3.5Y-2.7
X4.Y-2.7
X4.5Y-2.75
X5.Y-2.8
X5.5Y-2.8
T3
X2.5Y-3.
X2.5Y-3.1
X3.Y-3.
X3.Y-3.1
X3.5Y-3.
X3.5Y-3.1
X4.Y-3.
X4.Y-3.1
X4.5Y-3.
X4.5Y-3.1
X5.Y-3.
X5.Y-3.1
X5.5Y-3.
X5.5Y-3.1
X6.Y-3.
X6.Y-3.1
X6.5Y-3.
X6.5Y-3.1
X7.Y-3.
X7.Y-3.1
X7.5Y-3.
X7.5Y-3.1
X8.Y-3.
X8.Y-3.1
T4
X1.8Y-3.
X1.8Y-3.1
X1.8Y-3.2
X1.8Y-3.3
X1.8Y-3.4
X1.9Y-3.
X1.9Y-3.1
X1.9Y-3.2
X1.9Y-3.3
X1.9Y-3.4
T5
X2.75Y-3.35
X7.75Y-3.35
T0
M30
