<?xml version="1.0" standalone="no"?>
 <!DOCTYPE svg PUBLIC "-//W3C//DTD SVG 1.1//EN" 
 "http://www.w3.org/Graphics/SVG/1.1/DTD/svg11.dtd"> 
<svg xmlns="http://www.w3.org/2000/svg" version="1.1" 
    width="24.9657cm" height="3.39852cm" viewBox="0 0 98290 13380 ">
<title>SVG Picture created as lamps-13_3a-brd.svg date 2016/08/07 12:31:28 </title>
  <desc>Picture generated by PCBNEW </desc>
<g style="fill:#000000; fill-opacity:1;stroke:#000000; stroke-opacity:1;
stroke-linecap:round; stroke-linejoin:round; "
 transform="translate(0 0) scale(1 1)">
</g>
<g style="fill:#000000; fill-opacity:0.0; 
stroke:#000000; stroke-width:-0.000393701; stroke-opacity:1; 
stroke-linecap:round; stroke-linejoin:round;">
</g>
<g style="fill:#840000; fill-opacity:0.0; 
stroke:#840000; stroke-width:-0.000393701; stroke-opacity:1; 
stroke-linecap:round; stroke-linejoin:round;">
</g>
<g style="fill:#840000; fill-opacity:0.0; 
stroke:#840000; stroke-width:59.0551; stroke-opacity:1; 
stroke-linecap:round; stroke-linejoin:round;">
<circle cx="6399.61" cy="8824.8" r="984.252" /> 
<circle cx="11399.6" cy="8824.8" r="984.252" /> 
<circle cx="16399.6" cy="8824.8" r="984.252" /> 
<circle cx="21399.6" cy="8824.8" r="984.252" /> 
<circle cx="26399.6" cy="8824.8" r="984.252" /> 
<circle cx="31399.6" cy="8824.8" r="984.252" /> 
<circle cx="36399.6" cy="8824.8" r="984.252" /> 
<circle cx="41399.6" cy="8824.8" r="984.252" /> 
<circle cx="46399.6" cy="8824.8" r="984.252" /> 
<circle cx="51399.6" cy="8824.8" r="984.252" /> 
<circle cx="56399.6" cy="8824.8" r="984.252" /> 
<circle cx="61399.6" cy="8824.8" r="984.252" /> 
<circle cx="66399.6" cy="8824.8" r="984.252" /> 
<circle cx="81899.6" cy="8824.8" r="984.252" /> 
<circle cx="86899.6" cy="8824.8" r="984.252" /> 
<circle cx="91899.6" cy="8824.8" r="984.252" /> 
</g>
<g style="fill:#000000; fill-opacity:0.0; 
stroke:#000000; stroke-width:59.0551; stroke-opacity:1; 
stroke-linecap:round; stroke-linejoin:round;">
</g>
<g style="fill:#C2C200; fill-opacity:0.0; 
stroke:#C2C200; stroke-width:59.0551; stroke-opacity:1; 
stroke-linecap:round; stroke-linejoin:round;">
</g>
<g style="fill:#C2C200; fill-opacity:0.0; 
stroke:#C2C200; stroke-width:39.3701; stroke-opacity:1; 
stroke-linecap:round; stroke-linejoin:round;">
<path d="M71149 5074
L71649 5574
" />
<path d="M67899 5074
L71149 5074
" />
<path d="M67399 5574
L67899 5074
" />
<path d="M42399 5574
L67399 5574
" />
<path d="M41899 5074
L42399 5574
" />
<path d="M41399 5074
L41899 5074
" />
<path d="M13899 5074
L41399 5074
" />
<circle cx="7399.61" cy="6824.8" r="590.551" /> 
<path d="M4649 10074
L71649 10074
" />
<path d="M4649 3324
L4649 10074
" />
<path d="M5649 2324
L4649 3324
" />
<path d="M11149 2324
L5649 2324
" />
<path d="M13899 5074
L11149 2324
" />
<path d="M71649 10074
L71649 5574
" />
<circle cx="68899.6" cy="6324.8" r="590.551" /> 
<circle cx="78899.6" cy="6574.8" r="590.551" /> 
<circle cx="91899.6" cy="6574.8" r="590.551" /> 
<path d="M75899 10074
L93899 10074
" />
<path d="M75899 5574
L75899 10074
" />
<path d="M93899 5574
L75899 5574
" />
<path d="M93899 10074
L93899 5574
" />
</g> 
</svg>
