<?xml version="1.0" standalone="no"?>
 <!DOCTYPE svg PUBLIC "-//W3C//DTD SVG 1.1//EN" 
 "http://www.w3.org/Graphics/SVG/1.1/DTD/svg11.dtd"> 
<svg xmlns="http://www.w3.org/2000/svg" version="1.1" 
    width="20.9982cm" height="3.77952cm" viewBox="0 0 82670 14880 ">
<title>SVG Picture created as lamps-16-brd.svg date 2016/08/07 12:50:21 </title>
  <desc>Picture generated by PCBNEW </desc>
<g style="fill:#000000; fill-opacity:1;stroke:#000000; stroke-opacity:1;
stroke-linecap:round; stroke-linejoin:round; "
 transform="translate(0 0) scale(1 1)">
</g>
<g style="fill:#000000; fill-opacity:0.0; 
stroke:#000000; stroke-width:-0.000393701; stroke-opacity:1; 
stroke-linecap:round; stroke-linejoin:round;">
</g>
<g style="fill:#840000; fill-opacity:0.0; 
stroke:#840000; stroke-width:-0.000393701; stroke-opacity:1; 
stroke-linecap:round; stroke-linejoin:round;">
</g>
<g style="fill:#840000; fill-opacity:0.0; 
stroke:#840000; stroke-width:59.0551; stroke-opacity:1; 
stroke-linecap:round; stroke-linejoin:round;">
<circle cx="5649.61" cy="9324.8" r="984.252" /> 
<circle cx="10649.6" cy="9324.8" r="984.252" /> 
<circle cx="15649.6" cy="9324.8" r="984.252" /> 
<circle cx="20649.6" cy="9324.8" r="984.252" /> 
<circle cx="25649.6" cy="9324.8" r="984.252" /> 
<circle cx="30649.6" cy="9324.8" r="984.252" /> 
<circle cx="35649.6" cy="9324.8" r="984.252" /> 
<circle cx="40649.6" cy="9324.8" r="984.252" /> 
<circle cx="45649.6" cy="9324.8" r="984.252" /> 
<circle cx="50649.6" cy="9324.8" r="984.252" /> 
<circle cx="55649.6" cy="9324.8" r="984.252" /> 
<circle cx="60649.6" cy="9324.8" r="984.252" /> 
<circle cx="65649.6" cy="9324.8" r="984.252" /> 
<circle cx="70649.6" cy="9324.8" r="984.252" /> 
<circle cx="75649.6" cy="9324.8" r="984.252" /> 
<circle cx="80649.6" cy="9324.8" r="984.252" /> 
<circle cx="8149.61" cy="7324.8" r="590.551" /> 
<circle cx="78149.6" cy="7324.8" r="590.551" /> 
</g>
<g style="fill:#000000; fill-opacity:0.0; 
stroke:#000000; stroke-width:59.0551; stroke-opacity:1; 
stroke-linecap:round; stroke-linejoin:round;">
</g>
<g style="fill:#C2C200; fill-opacity:0.0; 
stroke:#C2C200; stroke-width:59.0551; stroke-opacity:1; 
stroke-linecap:round; stroke-linejoin:round;">
</g>
<g style="fill:#C2C200; fill-opacity:0.0; 
stroke:#C2C200; stroke-width:39.3701; stroke-opacity:1; 
stroke-linecap:round; stroke-linejoin:round;">
<path d="M82149 8324
L82149 10324
" />
<path d="M79649 5824
L82149 8324
" />
<path d="M76649 5824
L79649 5824
" />
<path d="M75649 6824
L76649 5824
" />
<path d="M7149 5324
L4149 8324
" />
<path d="M7149 4074
L7149 5324
" />
<path d="M8649 2574
L7149 4074
" />
<path d="M13649 2574
L8649 2574
" />
<path d="M16399 5324
L13649 2574
" />
<path d="M55649 5324
L16399 5324
" />
<path d="M57149 6824
L55649 5324
" />
<path d="M75649 6824
L57149 6824
" />
<path d="M4149 8324
L4149 10324
" />
<path d="M4149 10324
L82149 10324
" />
</g> 
</svg>
