M48
;DRILL file {KiCad 4.0.2-stable} date Thursday, 11 August 2016 'amt' 10:11:28
;FORMAT={-:-/ absolute / inch / decimal}
FMAT,2
INCH,TZ
T1C0.039
T2C0.040
T3C0.118
%
G90
G05
M72
T1
X1.25Y-2.9
X1.25Y-3.
X2.25Y-2.9
X2.25Y-3.
X3.Y-2.9
X3.Y-3.
X3.75Y-2.9
X3.75Y-3.
X6.Y-2.9
X6.Y-3.
X7.5Y-2.9
X7.5Y-3.
X8.5Y-2.9
X8.5Y-3.
T2
X4.125Y-2.575
X4.125Y-2.675
X4.125Y-2.775
X4.125Y-2.875
X4.125Y-2.975
X4.225Y-2.575
X4.225Y-2.675
X4.225Y-2.775
X4.225Y-2.875
X4.225Y-2.975
X4.55Y-2.675
X4.55Y-2.775
X4.55Y-2.875
X4.55Y-2.975
X5.35Y-2.85
X5.35Y-2.95
X5.35Y-3.05
X5.35Y-3.15
T3
X2.25Y-2.625
X3.Y-2.625
X6.5Y-3.
X8.Y-3.
T0
M30
