G04 #@! TF.FileFunction,Copper,L2,Bot,Signal*
%FSLAX46Y46*%
G04 Gerber Fmt 4.6, Leading zero omitted, Abs format (unit mm)*
G04 Created by KiCad (PCBNEW 4.0.2-stable) date Sunday, 07 August 2016 'pmt' 12:39:59*
%MOMM*%
G01*
G04 APERTURE LIST*
%ADD10C,0.100000*%
%ADD11R,2.032000X1.727200*%
%ADD12O,2.032000X1.727200*%
%ADD13R,1.727200X1.727200*%
%ADD14O,1.727200X1.727200*%
%ADD15R,2.000000X1.900000*%
%ADD16C,1.900000*%
%ADD17C,5.000000*%
%ADD18C,1.600000*%
%ADD19C,0.400000*%
G04 APERTURE END LIST*
D10*
D11*
X214630000Y-114300000D03*
D12*
X214630000Y-111760000D03*
X214630000Y-109220000D03*
X214630000Y-106680000D03*
D13*
X50800000Y-104140000D03*
D14*
X50800000Y-101600000D03*
X53340000Y-104140000D03*
X53340000Y-101600000D03*
X55880000Y-104140000D03*
X55880000Y-101600000D03*
X58420000Y-104140000D03*
X58420000Y-101600000D03*
X60960000Y-104140000D03*
X60960000Y-101600000D03*
D11*
X229870000Y-114300000D03*
D12*
X229870000Y-111760000D03*
X229870000Y-109220000D03*
X229870000Y-106680000D03*
D15*
X50800000Y-114300000D03*
D16*
X50800000Y-111760000D03*
D15*
X63500000Y-114300000D03*
D16*
X63500000Y-111760000D03*
D15*
X76200000Y-114300000D03*
D16*
X76200000Y-111760000D03*
D15*
X88900000Y-114300000D03*
D16*
X88900000Y-111760000D03*
D15*
X101600000Y-114300000D03*
D16*
X101600000Y-111760000D03*
D15*
X114300000Y-114300000D03*
D16*
X114300000Y-111760000D03*
D15*
X127000000Y-114300000D03*
D16*
X127000000Y-111760000D03*
D15*
X139700000Y-114300000D03*
D16*
X139700000Y-111760000D03*
D15*
X152400000Y-114300000D03*
D16*
X152400000Y-111760000D03*
D15*
X165100000Y-114300000D03*
D16*
X165100000Y-111760000D03*
D15*
X177800000Y-114300000D03*
D16*
X177800000Y-111760000D03*
D15*
X190500000Y-114300000D03*
D16*
X190500000Y-111760000D03*
D15*
X203200000Y-114300000D03*
D16*
X203200000Y-111760000D03*
D15*
X242570000Y-114300000D03*
D16*
X242570000Y-111760000D03*
D15*
X255270000Y-114300000D03*
D16*
X255270000Y-111760000D03*
D15*
X267970000Y-114300000D03*
D16*
X267970000Y-111760000D03*
D17*
X209550000Y-106680000D03*
X57150000Y-108585000D03*
D18*
X63431697Y-109005076D03*
X76189705Y-108305065D03*
X88907444Y-107605054D03*
X101597160Y-106905043D03*
X114300000Y-106205032D03*
X127004767Y-105505021D03*
X139697171Y-104744990D03*
D19*
X55880000Y-101600000D02*
X55880000Y-100378686D01*
X55880000Y-100378686D02*
X54942314Y-99441000D01*
X54942314Y-99441000D02*
X49784000Y-99441000D01*
X49784000Y-99441000D02*
X46990000Y-102235000D01*
X46990000Y-102235000D02*
X46990000Y-113340002D01*
X46990000Y-113340002D02*
X49399999Y-115750001D01*
X49399999Y-115750001D02*
X149549999Y-115750001D01*
X149549999Y-115750001D02*
X151000000Y-114300000D01*
X151000000Y-114300000D02*
X152400000Y-114300000D01*
X214782400Y-114300000D02*
X214630000Y-114300000D01*
X214630000Y-114300000D02*
X203200000Y-114300000D01*
X165100000Y-114300000D02*
X152400000Y-114300000D01*
X177800000Y-114300000D02*
X165100000Y-114300000D01*
X190500000Y-114300000D02*
X177800000Y-114300000D01*
X203200000Y-114300000D02*
X190500000Y-114300000D01*
X50800000Y-111760000D02*
X52143502Y-111760000D01*
X52143502Y-111760000D02*
X53794502Y-113411000D01*
X53794502Y-113411000D02*
X59309000Y-113411000D01*
X59309000Y-113411000D02*
X62410001Y-110309999D01*
X62410001Y-110309999D02*
X140210245Y-110309999D01*
X140210245Y-110309999D02*
X140210322Y-110310076D01*
X140210322Y-110310076D02*
X150950076Y-110310076D01*
X150950076Y-110310076D02*
X151450001Y-110810001D01*
X151450001Y-110810001D02*
X152400000Y-111760000D01*
X48895000Y-103505000D02*
X48895000Y-109855000D01*
X48895000Y-109855000D02*
X50800000Y-111760000D01*
X50800000Y-101600000D02*
X48895000Y-103505000D01*
X50800000Y-104140000D02*
X50800000Y-108331000D01*
X50800000Y-108331000D02*
X54991000Y-112522000D01*
X54991000Y-112522000D02*
X58783403Y-112522000D01*
X58783403Y-112522000D02*
X62300327Y-109005076D01*
X62300327Y-109005076D02*
X63431697Y-109005076D01*
X140500276Y-109610065D02*
X140495278Y-109605067D01*
X165100000Y-111760000D02*
X162950065Y-109610065D01*
X64563067Y-109005076D02*
X63431697Y-109005076D01*
X162950065Y-109610065D02*
X140500276Y-109610065D01*
X140495278Y-109605067D02*
X65163058Y-109605067D01*
X65163058Y-109605067D02*
X64563067Y-109005076D01*
X53340000Y-104140000D02*
X53340000Y-109474000D01*
X55451001Y-111585001D02*
X58594999Y-111585001D01*
X53340000Y-109474000D02*
X55451001Y-111585001D01*
X58594999Y-111585001D02*
X62510035Y-107669965D01*
X62510035Y-107669965D02*
X64489965Y-107669965D01*
X64489965Y-107669965D02*
X64996730Y-108176730D01*
X64996730Y-108176730D02*
X74930000Y-108176730D01*
X74930000Y-108176730D02*
X75058335Y-108305065D01*
X75058335Y-108305065D02*
X76189705Y-108305065D01*
X77321075Y-108305065D02*
X76189705Y-108305065D01*
X140785232Y-108905056D02*
X77921066Y-108905056D01*
X140790230Y-108910054D02*
X140785232Y-108905056D01*
X177800000Y-111760000D02*
X174950054Y-108910054D01*
X77921066Y-108905056D02*
X77321075Y-108305065D01*
X174950054Y-108910054D02*
X140790230Y-108910054D01*
X55880000Y-104140000D02*
X57243601Y-105503601D01*
X57243601Y-105503601D02*
X59148601Y-105503601D01*
X80173054Y-107605054D02*
X88011000Y-107605054D01*
X59148601Y-105503601D02*
X60579000Y-106934000D01*
X79502000Y-106934000D02*
X80173054Y-107605054D01*
X60579000Y-106934000D02*
X79502000Y-106934000D01*
X87776074Y-107605054D02*
X88011000Y-107605054D01*
X88011000Y-107605054D02*
X88907444Y-107605054D01*
X141075186Y-108205045D02*
X90638805Y-108205045D01*
X90638805Y-108205045D02*
X90038814Y-107605054D01*
X186950043Y-108210043D02*
X141080184Y-108210043D01*
X141080184Y-108210043D02*
X141075186Y-108205045D01*
X190500000Y-111760000D02*
X186950043Y-108210043D01*
X90038814Y-107605054D02*
X88907444Y-107605054D01*
X101597160Y-106905043D02*
X100465790Y-106905043D01*
X100465790Y-106905043D02*
X99794736Y-106233989D01*
X99794736Y-106233989D02*
X60868953Y-106233989D01*
X60868953Y-106233989D02*
X58774964Y-104140000D01*
X58774964Y-104140000D02*
X58420000Y-104140000D01*
X141365140Y-107505034D02*
X103328521Y-107505034D01*
X102728530Y-106905043D02*
X101597160Y-106905043D01*
X141370138Y-107510032D02*
X141365140Y-107505034D01*
X103328521Y-107505034D02*
X102728530Y-106905043D01*
X198950032Y-107510032D02*
X141370138Y-107510032D01*
X203200000Y-111760000D02*
X198950032Y-107510032D01*
X50800000Y-114300000D02*
X50750000Y-114300000D01*
X50750000Y-114300000D02*
X47879000Y-111429000D01*
X52476401Y-100736401D02*
X53340000Y-101600000D01*
X47879000Y-111429000D02*
X47879000Y-102502870D01*
X47879000Y-102502870D02*
X50145471Y-100236399D01*
X50145471Y-100236399D02*
X51976399Y-100236399D01*
X51976399Y-100236399D02*
X52476401Y-100736401D01*
X127000000Y-114300000D02*
X139700000Y-114300000D01*
X114300000Y-114300000D02*
X127000000Y-114300000D01*
X101600000Y-114300000D02*
X114300000Y-114300000D01*
X88900000Y-114300000D02*
X101600000Y-114300000D01*
X76200000Y-114300000D02*
X88900000Y-114300000D01*
X76200000Y-114300000D02*
X63500000Y-114300000D01*
X50800000Y-114300000D02*
X63500000Y-114300000D01*
X114300000Y-106205032D02*
X115431370Y-106205032D01*
X115431370Y-106205032D02*
X116031361Y-106805023D01*
X116031361Y-106805023D02*
X141655094Y-106805023D01*
X142824906Y-106805023D02*
X202055023Y-106805023D01*
X141655094Y-106805023D02*
X141660092Y-106810021D01*
X141660092Y-106810021D02*
X142819908Y-106810021D01*
X142819908Y-106810021D02*
X142824906Y-106805023D01*
X202055023Y-106805023D02*
X207772000Y-112522000D01*
X207772000Y-112522000D02*
X212452000Y-112522000D01*
X212452000Y-112522000D02*
X213214000Y-111760000D01*
X213214000Y-111760000D02*
X214630000Y-111760000D01*
X112497576Y-105533978D02*
X62353978Y-105533978D01*
X113168630Y-106205032D02*
X112497576Y-105533978D01*
X114300000Y-106205032D02*
X113168630Y-106205032D01*
X62353978Y-105533978D02*
X61823599Y-105003599D01*
X61823599Y-105003599D02*
X60960000Y-104140000D01*
X214630000Y-109220000D02*
X214477600Y-109220000D01*
X214477600Y-109220000D02*
X212318600Y-111379000D01*
X212318600Y-111379000D02*
X207899000Y-111379000D01*
X207899000Y-111379000D02*
X202565000Y-106045000D01*
X202565000Y-106045000D02*
X142594964Y-106045000D01*
X142594964Y-106045000D02*
X142529954Y-106110010D01*
X142529954Y-106110010D02*
X141950046Y-106110010D01*
X141950046Y-106110010D02*
X141885036Y-106045000D01*
X141885036Y-106045000D02*
X138334979Y-106045000D01*
X138334979Y-106045000D02*
X137795000Y-105505021D01*
X137795000Y-105505021D02*
X128136137Y-105505021D01*
X128136137Y-105505021D02*
X127004767Y-105505021D01*
X127004767Y-105505021D02*
X125873397Y-105505021D01*
X125202343Y-104833967D02*
X64193967Y-104833967D01*
X61823599Y-102463599D02*
X60960000Y-101600000D01*
X64193967Y-104833967D02*
X61823599Y-102463599D01*
X125873397Y-105505021D02*
X125202343Y-104833967D01*
X139697171Y-104744990D02*
X140939990Y-104744990D01*
X140939990Y-104744990D02*
X141539990Y-105344990D01*
X141539990Y-105344990D02*
X203104980Y-105344990D01*
X203104980Y-105344990D02*
X208122990Y-110363000D01*
X208122990Y-110363000D02*
X210947000Y-110363000D01*
X210947000Y-110363000D02*
X214630000Y-106680000D01*
X139697171Y-104744990D02*
X138565801Y-104744990D01*
X138565801Y-104744990D02*
X137954767Y-104133956D01*
X137954767Y-104133956D02*
X67557956Y-104133956D01*
X67557956Y-104133956D02*
X63246000Y-99822000D01*
X63246000Y-99822000D02*
X60198000Y-99822000D01*
X60198000Y-99822000D02*
X59283599Y-100736401D01*
X59283599Y-100736401D02*
X58420000Y-101600000D01*
X214630000Y-106680000D02*
X214477600Y-106680000D01*
X242570000Y-114300000D02*
X229870000Y-114300000D01*
X230022400Y-114300000D02*
X229870000Y-114300000D01*
X255270000Y-114300000D02*
X267970000Y-114300000D01*
X242570000Y-114300000D02*
X255270000Y-114300000D01*
X229870000Y-111760000D02*
X231046399Y-112936399D01*
X231379602Y-113030000D02*
X240030000Y-113030000D01*
X240030000Y-112956498D02*
X241226498Y-111760000D01*
X241226498Y-111760000D02*
X242570000Y-111760000D01*
X231046399Y-112936399D02*
X231286001Y-112936399D01*
X231286001Y-112936399D02*
X231379602Y-113030000D01*
X240030000Y-113030000D02*
X240030000Y-112956498D01*
X229870000Y-109220000D02*
X230022400Y-109220000D01*
X230022400Y-109220000D02*
X232562400Y-111760000D01*
X232562400Y-111760000D02*
X237490000Y-111760000D01*
X237490000Y-111760000D02*
X240030000Y-109220000D01*
X240030000Y-109220000D02*
X252730000Y-109220000D01*
X252730000Y-109220000D02*
X255270000Y-111760000D01*
X229870000Y-106680000D02*
X230022400Y-106680000D01*
X230022400Y-106680000D02*
X233832400Y-110490000D01*
X233832400Y-110490000D02*
X235585000Y-110490000D01*
X235585000Y-110490000D02*
X238125000Y-107950000D01*
X238125000Y-107950000D02*
X264160000Y-107950000D01*
X264160000Y-107950000D02*
X267970000Y-111760000D01*
M02*
