<?xml version="1.0" standalone="no"?>
 <!DOCTYPE svg PUBLIC "-//W3C//DTD SVG 1.1//EN" 
 "http://www.w3.org/Graphics/SVG/1.1/DTD/svg11.dtd"> 
<svg xmlns="http://www.w3.org/2000/svg" version="1.1" 
    width="19.4767cm" height="2.7305cm" viewBox="0 0 76680 10750 ">
<title>SVG Picture created as lamps-4-3-brd.svg date 2016/08/11 10:11:35 </title>
  <desc>Picture generated by PCBNEW </desc>
<g style="fill:#000000; fill-opacity:1;stroke:#000000; stroke-opacity:1;
stroke-linecap:round; stroke-linejoin:round; "
 transform="translate(0 0) scale(1 1)">
</g>
<g style="fill:#000000; fill-opacity:0.0; 
stroke:#000000; stroke-width:-0.000393701; stroke-opacity:1; 
stroke-linecap:round; stroke-linejoin:round;">
</g>
<g style="fill:#840000; fill-opacity:0.0; 
stroke:#840000; stroke-width:-0.000393701; stroke-opacity:1; 
stroke-linecap:round; stroke-linejoin:round;">
</g>
<g style="fill:#840000; fill-opacity:0.0; 
stroke:#840000; stroke-width:59.0551; stroke-opacity:1; 
stroke-linecap:round; stroke-linejoin:round;">
<circle cx="2121.65" cy="6279.53" r="984.252" /> 
<circle cx="12121.7" cy="6279.53" r="984.252" /> 
<circle cx="19621.7" cy="6279.53" r="984.252" /> 
<circle cx="27121.7" cy="6279.53" r="984.252" /> 
<circle cx="49621.7" cy="6279.53" r="984.252" /> 
<circle cx="64621.7" cy="6279.53" r="984.252" /> 
<circle cx="74621.7" cy="6279.53" r="984.252" /> 
<circle cx="12121.7" cy="3029.53" r="590.551" /> 
<circle cx="19621.7" cy="3029.53" r="590.551" /> 
<circle cx="54621.7" cy="6779.53" r="590.551" /> 
<circle cx="69621.7" cy="6779.53" r="590.551" /> 
<path d="M36705 7890
L36724 7909
L36780 7928
L36818 7928
L36874 7909
L36912 7871
L36930 7834
L36949 7759
L36949 7703
L36930 7628
L36912 7590
L36874 7553
L36818 7534
L36780 7534
L36724 7553
L36705 7571
" />
<path d="M36462 7534
L36387 7534
L36349 7553
L36312 7590
L36293 7665
L36293 7796
L36312 7871
L36349 7909
L36387 7928
L36462 7928
L36499 7909
L36537 7871
L36555 7796
L36555 7665
L36537 7590
L36499 7553
L36462 7534
" />
<path d="M36124 7928
L36124 7534
L35899 7928
L35899 7534
" />
<path d="M35712 7928
L35712 7534
L35487 7928
L35487 7534
" />
<path d="M35393 7965
L35093 7965
" />
<path d="M34924 7534
L34887 7534
L34849 7553
L34831 7571
L34812 7609
L34793 7684
L34793 7778
L34812 7853
L34831 7890
L34849 7909
L34887 7928
L34924 7928
L34962 7909
L34981 7890
L34999 7853
L35018 7778
L35018 7684
L34999 7609
L34981 7571
L34962 7553
L34924 7534
" />
<path d="M34418 7928
L34643 7928
" />
<path d="M34531 7928
L34531 7534
L34568 7590
L34606 7628
L34643 7646
" />
<path d="M34287 7534
L34024 7928
" />
<path d="M34024 7534
L34287 7928
" />
<path d="M33799 7534
L33762 7534
L33724 7553
L33706 7571
L33687 7609
L33668 7684
L33668 7778
L33687 7853
L33706 7890
L33724 7909
L33762 7928
L33799 7928
L33837 7909
L33856 7890
L33874 7853
L33893 7778
L33893 7684
L33874 7609
L33856 7571
L33837 7553
L33799 7534
" />
<path d="M33331 7665
L33331 7928
" />
<path d="M33424 7515
L33518 7796
L33275 7796
" />
</g>
<g style="fill:#000000; fill-opacity:0.0; 
stroke:#000000; stroke-width:59.0551; stroke-opacity:1; 
stroke-linecap:round; stroke-linejoin:round;">
</g>
<g style="fill:#C2C200; fill-opacity:0.0; 
stroke:#C2C200; stroke-width:59.0551; stroke-opacity:1; 
stroke-linecap:round; stroke-linejoin:round;">
</g>
<g style="fill:#C2C200; fill-opacity:0.0; 
stroke:#C2C200; stroke-width:39.3701; stroke-opacity:1; 
stroke-linecap:round; stroke-linejoin:round;">
<path d="M27871 8029
L27621 7779
" />
<path d="M36371 8029
L27871 8029
" />
<path d="M36371 2279
L36371 8029
" />
<path d="M36121 2279
L36371 2279
" />
<path d="M34371 2279
L36121 2279
" />
<path d="M32871 779
L34371 2279
" />
<path d="M28871 779
L32871 779
" />
<path d="M27871 1779
L28871 779
" />
<path d="M3621 1779
L27871 1779
" />
<path d="M371 5029
L3621 1779
" />
<path d="M371 7029
L371 5029
" />
<path d="M1121 7779
L371 7029
" />
<path d="M27621 7779
L1121 7779
" />
<path d="M41621 8779
L41621 4779
" />
<path d="M76121 8779
L41621 8779
" />
<path d="M76121 4779
L76121 8779
" />
<path d="M41621 4779
L76121 4779
" />
</g> 
</svg>
