G04 #@! TF.FileFunction,Copper,L2,Bot,Signal*
%FSLAX46Y46*%
G04 Gerber Fmt 4.6, Leading zero omitted, Abs format (unit mm)*
G04 Created by KiCad (PCBNEW 4.0.2-stable) date Thursday, 11 August 2016 'amt' 10:11:26*
%MOMM*%
G01*
G04 APERTURE LIST*
%ADD10C,0.100000*%
%ADD11R,2.000000X1.900000*%
%ADD12C,1.900000*%
%ADD13R,2.032000X1.727200*%
%ADD14O,2.032000X1.727200*%
%ADD15R,1.727200X1.727200*%
%ADD16O,1.727200X1.727200*%
%ADD17C,5.000000*%
%ADD18C,0.300000*%
G04 APERTURE END LIST*
D10*
D11*
X31750000Y-73660000D03*
D12*
X31750000Y-76200000D03*
D11*
X57150000Y-73660000D03*
D12*
X57150000Y-76200000D03*
D11*
X76200000Y-73660000D03*
D12*
X76200000Y-76200000D03*
D11*
X95250000Y-73660000D03*
D12*
X95250000Y-76200000D03*
D11*
X152400000Y-76200000D03*
D12*
X152400000Y-73660000D03*
D11*
X190500000Y-76200000D03*
D12*
X190500000Y-73660000D03*
D11*
X215900000Y-76200000D03*
D12*
X215900000Y-73660000D03*
D13*
X115570000Y-75565000D03*
D14*
X115570000Y-73025000D03*
X115570000Y-70485000D03*
X115570000Y-67945000D03*
D13*
X135890000Y-80010000D03*
D14*
X135890000Y-77470000D03*
X135890000Y-74930000D03*
X135890000Y-72390000D03*
D15*
X104775000Y-65405000D03*
D16*
X107315000Y-65405000D03*
X104775000Y-67945000D03*
X107315000Y-67945000D03*
X104775000Y-70485000D03*
X107315000Y-70485000D03*
X104775000Y-73025000D03*
X107315000Y-73025000D03*
X104775000Y-75565000D03*
X107315000Y-75565000D03*
D17*
X57150000Y-66675000D03*
X76200000Y-66675000D03*
X165100000Y-76200000D03*
X203200000Y-76200000D03*
D18*
X149225000Y-74930000D02*
X150495000Y-76200000D01*
X150495000Y-76200000D02*
X152400000Y-76200000D01*
X135890000Y-74930000D02*
X149225000Y-74930000D01*
X190500000Y-73660000D02*
X191449999Y-72710001D01*
X191449999Y-72710001D02*
X214950001Y-72710001D01*
X214950001Y-72710001D02*
X215900000Y-73660000D01*
X152400000Y-73660000D02*
X153349999Y-72710001D01*
X153349999Y-72710001D02*
X189550001Y-72710001D01*
X189550001Y-72710001D02*
X190500000Y-73660000D01*
X135890000Y-72390000D02*
X151130000Y-72390000D01*
X151130000Y-72390000D02*
X152400000Y-73660000D01*
X135890000Y-77470000D02*
X137206000Y-77470000D01*
X137206000Y-77470000D02*
X139111000Y-79375000D01*
X139111000Y-79375000D02*
X186025000Y-79375000D01*
X186025000Y-79375000D02*
X189200000Y-76200000D01*
X189200000Y-76200000D02*
X190500000Y-76200000D01*
X135890000Y-80010000D02*
X136525000Y-80645000D01*
X136525000Y-80645000D02*
X212705000Y-80645000D01*
X212705000Y-80645000D02*
X215900000Y-77450000D01*
X215900000Y-77450000D02*
X215900000Y-76200000D01*
X107315000Y-65405000D02*
X104775000Y-62865000D01*
X104775000Y-62865000D02*
X99060000Y-62865000D01*
X60325000Y-69850000D02*
X59055000Y-71120000D01*
X99060000Y-62865000D02*
X92075000Y-69850000D01*
X92075000Y-69850000D02*
X60325000Y-69850000D01*
X59055000Y-71120000D02*
X35590000Y-71120000D01*
X35590000Y-71120000D02*
X33050000Y-73660000D01*
X33050000Y-73660000D02*
X31750000Y-73660000D01*
X104775000Y-65405000D02*
X98425000Y-65405000D01*
X98425000Y-65405000D02*
X92644989Y-71185011D01*
X92644989Y-71185011D02*
X60924989Y-71185011D01*
X60924989Y-71185011D02*
X58450000Y-73660000D01*
X58450000Y-73660000D02*
X57150000Y-73660000D01*
X92149928Y-73660000D02*
X76200000Y-73660000D01*
X97864928Y-67945000D02*
X92149928Y-73660000D01*
X104775000Y-67945000D02*
X97864928Y-67945000D01*
X104775000Y-70485000D02*
X97175000Y-70485000D01*
X97175000Y-70485000D02*
X95250000Y-72410000D01*
X95250000Y-72410000D02*
X95250000Y-73660000D01*
X115570000Y-75565000D02*
X115417600Y-75565000D01*
X115417600Y-75565000D02*
X114003999Y-76978601D01*
X114003999Y-76978601D02*
X104967287Y-76978601D01*
X104967287Y-76978601D02*
X104775000Y-76786314D01*
X104775000Y-76786314D02*
X104775000Y-75565000D01*
X115570000Y-73025000D02*
X115417600Y-73025000D01*
X115417600Y-73025000D02*
X112877600Y-75565000D01*
X112877600Y-75565000D02*
X107315000Y-75565000D01*
X107315000Y-73025000D02*
X113030000Y-73025000D01*
X113030000Y-73025000D02*
X114254000Y-71801000D01*
X114254000Y-71801000D02*
X114254000Y-71648600D01*
X114254000Y-71648600D02*
X115417600Y-70485000D01*
X115417600Y-70485000D02*
X115570000Y-70485000D01*
X117475000Y-69697600D02*
X117475000Y-76529602D01*
X116205000Y-77799602D02*
X115875398Y-77799602D01*
X115875398Y-77799602D02*
X115570000Y-78105000D01*
X97155000Y-78105000D02*
X95250000Y-76200000D01*
X115570000Y-67945000D02*
X115722400Y-67945000D01*
X115722400Y-67945000D02*
X117475000Y-69697600D01*
X117475000Y-76529602D02*
X116205000Y-77799602D01*
X115570000Y-78105000D02*
X97155000Y-78105000D01*
X107315000Y-67945000D02*
X115570000Y-67945000D01*
X76200000Y-76200000D02*
X95250000Y-76200000D01*
X76200000Y-76200000D02*
X57150000Y-76200000D01*
X31750000Y-76200000D02*
X57150000Y-76200000D01*
M02*
