G04 #@! TF.FileFunction,Copper,L2,Bot,Signal*
%FSLAX46Y46*%
G04 Gerber Fmt 4.6, Leading zero omitted, Abs format (unit mm)*
G04 Created by KiCad (PCBNEW 4.0.2-stable) date Thursday, 11 August 2016 'amt' 11:02:25*
%MOMM*%
G01*
G04 APERTURE LIST*
%ADD10C,0.100000*%
%ADD11R,1.727200X1.727200*%
%ADD12O,1.727200X1.727200*%
%ADD13R,2.000000X1.900000*%
%ADD14C,1.900000*%
%ADD15C,5.000000*%
%ADD16C,1.600000*%
%ADD17C,0.300000*%
G04 APERTURE END LIST*
D10*
D11*
X66421000Y-56007000D03*
D12*
X66421000Y-53467000D03*
X68961000Y-56007000D03*
X68961000Y-53467000D03*
X71501000Y-56007000D03*
X71501000Y-53467000D03*
X74041000Y-56007000D03*
X74041000Y-53467000D03*
X76581000Y-56007000D03*
X76581000Y-53467000D03*
D13*
X50800000Y-63500000D03*
D14*
X50800000Y-60960000D03*
D13*
X63500000Y-63500000D03*
D14*
X63500000Y-60960000D03*
D13*
X76200000Y-63500000D03*
D14*
X76200000Y-60960000D03*
D13*
X88900000Y-63500000D03*
D14*
X88900000Y-60960000D03*
D13*
X101600000Y-63500000D03*
D14*
X101600000Y-60960000D03*
D13*
X114300000Y-63500000D03*
D14*
X114300000Y-60960000D03*
D13*
X127000000Y-63500000D03*
D14*
X127000000Y-60960000D03*
D13*
X139700000Y-63500000D03*
D14*
X139700000Y-60960000D03*
D13*
X50800000Y-88900000D03*
D14*
X50800000Y-86360000D03*
D13*
X63500000Y-88900000D03*
D14*
X63500000Y-86360000D03*
D13*
X76200000Y-88900000D03*
D14*
X76200000Y-86360000D03*
D13*
X88900000Y-88900000D03*
D14*
X88900000Y-86360000D03*
D13*
X101600000Y-88900000D03*
D14*
X101600000Y-86360000D03*
D13*
X114300000Y-88900000D03*
D14*
X114300000Y-86360000D03*
D13*
X127000000Y-88900000D03*
D14*
X127000000Y-86360000D03*
D13*
X139700000Y-88900000D03*
D14*
X139700000Y-86360000D03*
D15*
X133350000Y-74930000D03*
X57150000Y-74930000D03*
D16*
X127000000Y-68580000D03*
X114300000Y-68580000D03*
X101600000Y-68580000D03*
X88900000Y-71120000D03*
X76200000Y-72390004D03*
X63500000Y-72390004D03*
X50800000Y-72390004D03*
D17*
X68961000Y-53467000D02*
X67547399Y-52053399D01*
X56912601Y-52053399D02*
X41402000Y-67564000D01*
X67547399Y-52053399D02*
X56912601Y-52053399D01*
X41402000Y-67564000D02*
X41402000Y-76708000D01*
X41402000Y-76708000D02*
X48514000Y-83820000D01*
X48514000Y-83820000D02*
X48514000Y-86614000D01*
X48514000Y-86614000D02*
X50800000Y-88900000D01*
X127000000Y-88900000D02*
X139700000Y-88900000D01*
X114300000Y-88900000D02*
X127000000Y-88900000D01*
X101600000Y-88900000D02*
X114300000Y-88900000D01*
X88900000Y-88900000D02*
X101600000Y-88900000D01*
X76200000Y-88900000D02*
X88900000Y-88900000D01*
X63500000Y-88900000D02*
X76200000Y-88900000D01*
X50800000Y-88900000D02*
X63500000Y-88900000D01*
X50800000Y-85016498D02*
X50800000Y-86360000D01*
X42102011Y-75884011D02*
X50800000Y-84582000D01*
X53340000Y-64470281D02*
X52024281Y-65786000D01*
X50800000Y-60960000D02*
X52143502Y-60960000D01*
X53340000Y-62156498D02*
X53340000Y-64470281D01*
X52024281Y-65786000D02*
X45339000Y-65786000D01*
X50800000Y-84582000D02*
X50800000Y-85016498D01*
X52143502Y-60960000D02*
X53340000Y-62156498D01*
X42102011Y-69022989D02*
X42102011Y-75884011D01*
X45339000Y-65786000D02*
X42102011Y-69022989D01*
X53340000Y-58420000D02*
X50800000Y-60960000D01*
X59944000Y-58420000D02*
X53340000Y-58420000D01*
X64897000Y-53467000D02*
X59944000Y-58420000D01*
X66421000Y-53467000D02*
X64897000Y-53467000D01*
X63500000Y-60960000D02*
X63500000Y-57764400D01*
X63500000Y-57764400D02*
X65257400Y-56007000D01*
X65257400Y-56007000D02*
X66421000Y-56007000D01*
X63500000Y-86360000D02*
X53750210Y-86360000D01*
X42802022Y-75411812D02*
X42802022Y-69368188D01*
X53750210Y-86360000D02*
X42802022Y-75411812D01*
X42802022Y-69368188D02*
X45368210Y-66802000D01*
X45368210Y-66802000D02*
X51998247Y-66802000D01*
X51998247Y-66802000D02*
X57840246Y-60960000D01*
X57840246Y-60960000D02*
X62230000Y-60960000D01*
X62230000Y-60960000D02*
X63500000Y-60960000D01*
X52138186Y-83758011D02*
X73598011Y-83758011D01*
X52288201Y-67502011D02*
X45658164Y-67502011D01*
X43502033Y-69658142D02*
X43502033Y-75121858D01*
X73598011Y-83758011D02*
X75250001Y-85410001D01*
X45658164Y-67502011D02*
X43502033Y-69658142D01*
X75250001Y-85410001D02*
X76200000Y-86360000D01*
X53440267Y-66349945D02*
X52288201Y-67502011D01*
X72390000Y-60960000D02*
X67000055Y-66349945D01*
X76200000Y-60960000D02*
X72390000Y-60960000D01*
X43502033Y-75121858D02*
X52138186Y-83758011D01*
X67000055Y-66349945D02*
X53440267Y-66349945D01*
X68961000Y-56007000D02*
X73914000Y-60960000D01*
X73914000Y-60960000D02*
X76200000Y-60960000D01*
X44202044Y-69948096D02*
X44202044Y-74831904D01*
X87950001Y-85410001D02*
X88900000Y-86360000D01*
X52174140Y-82804000D02*
X85344000Y-82804000D01*
X88900000Y-60960000D02*
X83820000Y-60960000D01*
X45948118Y-68202022D02*
X44202044Y-69948096D01*
X52578155Y-68202022D02*
X45948118Y-68202022D01*
X77730044Y-67049956D02*
X53730221Y-67049956D01*
X85344000Y-82804000D02*
X87950001Y-85410001D01*
X44202044Y-74831904D02*
X52174140Y-82804000D01*
X53730221Y-67049956D02*
X52578155Y-68202022D01*
X83820000Y-60960000D02*
X77730044Y-67049956D01*
X71501000Y-56007000D02*
X74614010Y-59120010D01*
X81104105Y-60960000D02*
X87556498Y-60960000D01*
X79264115Y-59120010D02*
X81104105Y-60960000D01*
X87556498Y-60960000D02*
X88900000Y-60960000D01*
X74614010Y-59120010D02*
X79264115Y-59120010D01*
X97343989Y-82103989D02*
X100650001Y-85410001D01*
X100650001Y-85410001D02*
X101600000Y-86360000D01*
X78019998Y-67749967D02*
X54020175Y-67749967D01*
X44902055Y-74541950D02*
X52464094Y-82103989D01*
X46238072Y-68902033D02*
X44902055Y-70238050D01*
X52868109Y-68902033D02*
X46238072Y-68902033D01*
X91000033Y-66479967D02*
X79289998Y-66479967D01*
X44902055Y-70238050D02*
X44902055Y-74541950D01*
X52464094Y-82103989D02*
X97343989Y-82103989D01*
X101600000Y-60960000D02*
X96520000Y-60960000D01*
X96520000Y-60960000D02*
X91000033Y-66479967D01*
X79289998Y-66479967D02*
X78019998Y-67749967D01*
X54020175Y-67749967D02*
X52868109Y-68902033D01*
X100650001Y-60010001D02*
X101600000Y-60960000D01*
X99952022Y-59312022D02*
X100650001Y-60010001D01*
X80446092Y-59312022D02*
X99952022Y-59312022D01*
X76330022Y-58296022D02*
X79430092Y-58296022D01*
X79430092Y-58296022D02*
X80446092Y-59312022D01*
X74041000Y-56007000D02*
X76330022Y-58296022D01*
X78309952Y-68449978D02*
X79579952Y-67179978D01*
X92410128Y-67179978D02*
X94185106Y-65405000D01*
X45602066Y-70528004D02*
X46528026Y-69602044D01*
X112956498Y-60960000D02*
X114300000Y-60960000D01*
X104775000Y-65405000D02*
X109220000Y-60960000D01*
X54310129Y-68449978D02*
X78309952Y-68449978D01*
X53158063Y-69602044D02*
X54310129Y-68449978D01*
X52754048Y-81403978D02*
X45602066Y-74251996D01*
X109343978Y-81403978D02*
X52754048Y-81403978D01*
X45602066Y-74251996D02*
X45602066Y-70528004D01*
X79579952Y-67179978D02*
X92410128Y-67179978D01*
X94185106Y-65405000D02*
X104775000Y-65405000D01*
X114300000Y-86360000D02*
X109343978Y-81403978D01*
X46528026Y-69602044D02*
X53158063Y-69602044D01*
X109220000Y-60960000D02*
X112956498Y-60960000D01*
X78131035Y-56007000D02*
X80736046Y-58612011D01*
X113350001Y-60010001D02*
X114300000Y-60960000D01*
X111952011Y-58612011D02*
X113350001Y-60010001D01*
X80736046Y-58612011D02*
X111952011Y-58612011D01*
X76581000Y-56007000D02*
X78131035Y-56007000D01*
X53044002Y-80703967D02*
X46302077Y-73962042D01*
X46302077Y-73962042D02*
X46302077Y-70817958D01*
X94413071Y-66167000D02*
X116713000Y-66167000D01*
X54600083Y-69149989D02*
X78599906Y-69149989D01*
X79869906Y-67879989D02*
X92700082Y-67879989D01*
X121343967Y-80703967D02*
X53044002Y-80703967D01*
X46817980Y-70302055D02*
X53448017Y-70302055D01*
X127000000Y-86360000D02*
X121343967Y-80703967D01*
X116713000Y-66167000D02*
X121920000Y-60960000D01*
X125656498Y-60960000D02*
X127000000Y-60960000D01*
X53448017Y-70302055D02*
X54600083Y-69149989D01*
X78599906Y-69149989D02*
X79869906Y-67879989D01*
X92700082Y-67879989D02*
X94413071Y-66167000D01*
X121920000Y-60960000D02*
X125656498Y-60960000D01*
X46302077Y-70817958D02*
X46817980Y-70302055D01*
X81026000Y-57912000D02*
X123952000Y-57912000D01*
X76581000Y-53467000D02*
X81026000Y-57912000D01*
X123952000Y-57912000D02*
X124460000Y-58420000D01*
X124460000Y-58420000D02*
X127000000Y-60960000D01*
X47002088Y-73672088D02*
X47002088Y-71107912D01*
X138356498Y-60960000D02*
X139700000Y-60960000D01*
X80159860Y-68580000D02*
X92990036Y-68580000D01*
X78889860Y-69850000D02*
X80159860Y-68580000D01*
X53737970Y-71002066D02*
X54890036Y-69850000D01*
X53333956Y-80003956D02*
X47002088Y-73672088D01*
X133343956Y-80003956D02*
X53333956Y-80003956D01*
X94387036Y-67183000D02*
X128397000Y-67183000D01*
X54890036Y-69850000D02*
X78889860Y-69850000D01*
X47002088Y-71107912D02*
X47107934Y-71002066D01*
X47107934Y-71002066D02*
X53737970Y-71002066D01*
X134620000Y-60960000D02*
X138356498Y-60960000D01*
X128397000Y-67183000D02*
X134620000Y-60960000D01*
X92990036Y-68580000D02*
X94387036Y-67183000D01*
X139700000Y-86360000D02*
X133343956Y-80003956D01*
X74041000Y-53467000D02*
X75454601Y-52053399D01*
X75454601Y-52053399D02*
X78723399Y-52053399D01*
X78723399Y-52053399D02*
X83820000Y-57150000D01*
X83820000Y-57150000D02*
X135890000Y-57150000D01*
X135890000Y-57150000D02*
X137922000Y-59182000D01*
X137922000Y-59182000D02*
X139700000Y-60960000D01*
X71501000Y-53467000D02*
X71501000Y-52245686D01*
X72946686Y-50800000D02*
X80010000Y-50800000D01*
X71501000Y-52245686D02*
X72946686Y-50800000D01*
X80010000Y-50800000D02*
X85598000Y-56388000D01*
X138938000Y-56388000D02*
X142240000Y-59690000D01*
X85598000Y-56388000D02*
X138938000Y-56388000D01*
X142240000Y-59690000D02*
X142240000Y-61010000D01*
X142240000Y-61010000D02*
X139750000Y-63500000D01*
X139750000Y-63500000D02*
X139700000Y-63500000D01*
X60960000Y-72390004D02*
X63500000Y-72390004D01*
X54610000Y-71120000D02*
X59689996Y-71120000D01*
X59689996Y-71120000D02*
X60960000Y-72390004D01*
X53340000Y-72390000D02*
X54610000Y-71120000D01*
X53340000Y-72390004D02*
X53340000Y-72390000D01*
X50800000Y-72390004D02*
X53340000Y-72390004D01*
X63500000Y-72390004D02*
X76200000Y-72390004D01*
X88900000Y-71120000D02*
X77470004Y-71120000D01*
X77470004Y-71120000D02*
X76200000Y-72390004D01*
X93980000Y-68580000D02*
X91440000Y-71120000D01*
X91440000Y-71120000D02*
X88900000Y-71120000D01*
X101600000Y-68580000D02*
X93980000Y-68580000D01*
X114300000Y-68580000D02*
X101600000Y-68580000D01*
X127000000Y-68580000D02*
X114300000Y-68580000D01*
X135870000Y-68580000D02*
X139700000Y-64750000D01*
X127000000Y-68580000D02*
X135870000Y-68580000D01*
X139700000Y-64750000D02*
X139700000Y-63500000D01*
M02*
