G04 #@! TF.FileFunction,Copper,L1,Top,Signal*
%FSLAX46Y46*%
G04 Gerber Fmt 4.6, Leading zero omitted, Abs format (unit mm)*
G04 Created by KiCad (PCBNEW 4.0.2-stable) date Thursday, 11 August 2016 'amt' 11:02:25*
%MOMM*%
G01*
G04 APERTURE LIST*
%ADD10C,0.100000*%
%ADD11R,1.727200X1.727200*%
%ADD12O,1.727200X1.727200*%
%ADD13R,2.000000X1.900000*%
%ADD14C,1.900000*%
%ADD15C,5.000000*%
%ADD16C,1.600000*%
%ADD17C,0.300000*%
G04 APERTURE END LIST*
D10*
D11*
X66421000Y-56007000D03*
D12*
X66421000Y-53467000D03*
X68961000Y-56007000D03*
X68961000Y-53467000D03*
X71501000Y-56007000D03*
X71501000Y-53467000D03*
X74041000Y-56007000D03*
X74041000Y-53467000D03*
X76581000Y-56007000D03*
X76581000Y-53467000D03*
D13*
X50800000Y-63500000D03*
D14*
X50800000Y-60960000D03*
D13*
X63500000Y-63500000D03*
D14*
X63500000Y-60960000D03*
D13*
X76200000Y-63500000D03*
D14*
X76200000Y-60960000D03*
D13*
X88900000Y-63500000D03*
D14*
X88900000Y-60960000D03*
D13*
X101600000Y-63500000D03*
D14*
X101600000Y-60960000D03*
D13*
X114300000Y-63500000D03*
D14*
X114300000Y-60960000D03*
D13*
X127000000Y-63500000D03*
D14*
X127000000Y-60960000D03*
D13*
X139700000Y-63500000D03*
D14*
X139700000Y-60960000D03*
D13*
X50800000Y-88900000D03*
D14*
X50800000Y-86360000D03*
D13*
X63500000Y-88900000D03*
D14*
X63500000Y-86360000D03*
D13*
X76200000Y-88900000D03*
D14*
X76200000Y-86360000D03*
D13*
X88900000Y-88900000D03*
D14*
X88900000Y-86360000D03*
D13*
X101600000Y-88900000D03*
D14*
X101600000Y-86360000D03*
D13*
X114300000Y-88900000D03*
D14*
X114300000Y-86360000D03*
D13*
X127000000Y-88900000D03*
D14*
X127000000Y-86360000D03*
D13*
X139700000Y-88900000D03*
D14*
X139700000Y-86360000D03*
D15*
X133350000Y-74930000D03*
X57150000Y-74930000D03*
D16*
X127000000Y-68580000D03*
X114300000Y-68580000D03*
X101600000Y-68580000D03*
X88900000Y-71120000D03*
X76200000Y-72390004D03*
X63500000Y-72390004D03*
X50800000Y-72390004D03*
D17*
X127000000Y-63500000D02*
X127000000Y-68580000D01*
X114300000Y-63500000D02*
X114300000Y-68580000D01*
X101600000Y-63500000D02*
X101600000Y-68580000D01*
X88900000Y-63500000D02*
X88900000Y-71120000D01*
X76200000Y-63500000D02*
X76200000Y-72390004D01*
X63500000Y-63500000D02*
X63500000Y-72390004D01*
X50800000Y-63500000D02*
X50800000Y-72390004D01*
M02*
