M48
;DRILL file {KiCad 4.0.2-stable} date Wednesday, 10 August 2016 'pmt' 18:22:00
;FORMAT={-:-/ absolute / inch / decimal}
FMAT,2
INCH,TZ
T1C0.039
T2C0.040
T3C0.118
%
G90
G05
M72
T1
X2.15Y-3.5
X2.15Y-3.6
X3.15Y-3.5
X3.15Y-3.6
X3.9Y-3.5
X3.9Y-3.6
X4.65Y-3.5
X4.65Y-3.6
X6.Y-2.9
X6.Y-3.
X7.5Y-2.9
X7.5Y-3.
X8.5Y-2.9
X8.5Y-3.
T2
X2.6Y-2.85
X2.6Y-2.95
X2.6Y-3.05
X2.6Y-3.15
X2.6Y-3.25
X2.7Y-2.85
X2.7Y-2.95
X2.7Y-3.05
X2.7Y-3.15
X2.7Y-3.25
X4.25Y-2.85
X4.25Y-2.95
X4.25Y-3.05
X4.25Y-3.15
X5.35Y-2.85
X5.35Y-2.95
X5.35Y-3.05
X5.35Y-3.15
T3
X3.15Y-3.225
X3.9Y-3.225
X6.5Y-3.
X8.Y-3.
T0
M30
