G04 #@! TF.FileFunction,Copper,L1,Top,Signal*
%FSLAX46Y46*%
G04 Gerber Fmt 4.6, Leading zero omitted, Abs format (unit mm)*
G04 Created by KiCad (PCBNEW 4.0.2-stable) date Sunday, 07 August 2016 'pmt' 12:39:59*
%MOMM*%
G01*
G04 APERTURE LIST*
%ADD10C,0.100000*%
%ADD11R,2.032000X1.727200*%
%ADD12O,2.032000X1.727200*%
%ADD13R,1.727200X1.727200*%
%ADD14O,1.727200X1.727200*%
%ADD15R,2.000000X1.900000*%
%ADD16C,1.900000*%
%ADD17C,5.000000*%
%ADD18C,1.600000*%
%ADD19C,0.400000*%
G04 APERTURE END LIST*
D10*
D11*
X214630000Y-114300000D03*
D12*
X214630000Y-111760000D03*
X214630000Y-109220000D03*
X214630000Y-106680000D03*
D13*
X50800000Y-104140000D03*
D14*
X50800000Y-101600000D03*
X53340000Y-104140000D03*
X53340000Y-101600000D03*
X55880000Y-104140000D03*
X55880000Y-101600000D03*
X58420000Y-104140000D03*
X58420000Y-101600000D03*
X60960000Y-104140000D03*
X60960000Y-101600000D03*
D11*
X229870000Y-114300000D03*
D12*
X229870000Y-111760000D03*
X229870000Y-109220000D03*
X229870000Y-106680000D03*
D15*
X50800000Y-114300000D03*
D16*
X50800000Y-111760000D03*
D15*
X63500000Y-114300000D03*
D16*
X63500000Y-111760000D03*
D15*
X76200000Y-114300000D03*
D16*
X76200000Y-111760000D03*
D15*
X88900000Y-114300000D03*
D16*
X88900000Y-111760000D03*
D15*
X101600000Y-114300000D03*
D16*
X101600000Y-111760000D03*
D15*
X114300000Y-114300000D03*
D16*
X114300000Y-111760000D03*
D15*
X127000000Y-114300000D03*
D16*
X127000000Y-111760000D03*
D15*
X139700000Y-114300000D03*
D16*
X139700000Y-111760000D03*
D15*
X152400000Y-114300000D03*
D16*
X152400000Y-111760000D03*
D15*
X165100000Y-114300000D03*
D16*
X165100000Y-111760000D03*
D15*
X177800000Y-114300000D03*
D16*
X177800000Y-111760000D03*
D15*
X190500000Y-114300000D03*
D16*
X190500000Y-111760000D03*
D15*
X203200000Y-114300000D03*
D16*
X203200000Y-111760000D03*
D15*
X242570000Y-114300000D03*
D16*
X242570000Y-111760000D03*
D15*
X255270000Y-114300000D03*
D16*
X255270000Y-111760000D03*
D15*
X267970000Y-114300000D03*
D16*
X267970000Y-111760000D03*
D17*
X209550000Y-106680000D03*
X57150000Y-108585000D03*
D18*
X63431697Y-109005076D03*
X76189705Y-108305065D03*
X88907444Y-107605054D03*
X101597160Y-106905043D03*
X114300000Y-106205032D03*
X127004767Y-105505021D03*
X139697171Y-104744990D03*
D19*
X63500000Y-111760000D02*
X63500000Y-109073379D01*
X63500000Y-109073379D02*
X63431697Y-109005076D01*
X76200000Y-108315360D02*
X76189705Y-108305065D01*
X76200000Y-111760000D02*
X76200000Y-108315360D01*
X88900000Y-111760000D02*
X88900000Y-107612498D01*
X88900000Y-107612498D02*
X88907444Y-107605054D01*
X101600000Y-111760000D02*
X101600000Y-106907883D01*
X101600000Y-106907883D02*
X101597160Y-106905043D01*
X114300000Y-111760000D02*
X114300000Y-106205032D01*
X127000000Y-111760000D02*
X127000000Y-105509788D01*
X127000000Y-105509788D02*
X127004767Y-105505021D01*
X139700000Y-111760000D02*
X139700000Y-104747819D01*
X139700000Y-104747819D02*
X139697171Y-104744990D01*
M02*
