<?xml version="1.0" standalone="no"?>
 <!DOCTYPE svg PUBLIC "-//W3C//DTD SVG 1.1//EN" 
 "http://www.w3.org/Graphics/SVG/1.1/DTD/svg11.dtd"> 
<svg xmlns="http://www.w3.org/2000/svg" version="1.1" 
    width="17.0256cm" height="2.7432cm" viewBox="0 0 67030 10800 ">
<title>SVG Picture created as lamps-12-mag-brd.svg date 2016/08/11 11:26:11 </title>
  <desc>Picture generated by PCBNEW </desc>
<g style="fill:#000000; fill-opacity:1;stroke:#000000; stroke-opacity:1;
stroke-linecap:round; stroke-linejoin:round; "
 transform="translate(0 0) scale(1 1)">
</g>
<g style="fill:#000000; fill-opacity:0.0; 
stroke:#000000; stroke-width:-0.000393701; stroke-opacity:1; 
stroke-linecap:round; stroke-linejoin:round;">
</g>
<g style="fill:#840000; fill-opacity:0.0; 
stroke:#840000; stroke-width:-0.000393701; stroke-opacity:1; 
stroke-linecap:round; stroke-linejoin:round;">
</g>
<g style="fill:#840000; fill-opacity:0.0; 
stroke:#840000; stroke-width:59.0551; stroke-opacity:1; 
stroke-linecap:round; stroke-linejoin:round;">
<circle cx="10019.7" cy="4787.4" r="984.252" /> 
<circle cx="15019.7" cy="4787.4" r="984.252" /> 
<circle cx="20019.7" cy="4787.4" r="984.252" /> 
<circle cx="25019.7" cy="4787.4" r="984.252" /> 
<circle cx="30019.7" cy="4787.4" r="984.252" /> 
<circle cx="35019.7" cy="4787.4" r="984.252" /> 
<circle cx="40019.7" cy="4787.4" r="984.252" /> 
<circle cx="45019.7" cy="4787.4" r="984.252" /> 
<circle cx="50019.7" cy="4787.4" r="984.252" /> 
<circle cx="55019.7" cy="4787.4" r="984.252" /> 
<circle cx="60019.7" cy="4787.4" r="984.252" /> 
<circle cx="65019.7" cy="4787.4" r="984.252" /> 
<circle cx="12519.7" cy="7787.4" r="590.551" /> 
<circle cx="62519.7" cy="7787.4" r="590.551" /> 
</g>
<g style="fill:#000000; fill-opacity:0.0; 
stroke:#000000; stroke-width:59.0551; stroke-opacity:1; 
stroke-linecap:round; stroke-linejoin:round;">
</g>
<g style="fill:#C2C200; fill-opacity:0.0; 
stroke:#C2C200; stroke-width:59.0551; stroke-opacity:1; 
stroke-linecap:round; stroke-linejoin:round;">
</g>
<g style="fill:#C2C200; fill-opacity:0.0; 
stroke:#C2C200; stroke-width:39.3701; stroke-opacity:1; 
stroke-linecap:round; stroke-linejoin:round;">
<path d="M29519 287
L10019 287
" />
<path d="M30519 1287
L29519 287
" />
<path d="M65019 1287
L30519 1287
" />
<path d="M67019 3287
L65019 1287
" />
<path d="M67019 7287
L67019 3287
" />
<path d="M65019 9287
L67019 7287
" />
<path d="M26019 9287
L65019 9287
" />
<path d="M5519 9287
L26019 9287
" />
<path d="M4019 10787
L5519 9287
" />
<path d="M2019 10787
L4019 10787
" />
<path d="M19 8787
L2019 10787
" />
<path d="M19 2287
L19 8787
" />
<path d="M2019 287
L19 2287
" />
<path d="M10019 287
L2019 287
" />
</g> 
</svg>
