<?xml version="1.0" standalone="no"?>
 <!DOCTYPE svg PUBLIC "-//W3C//DTD SVG 1.1//EN" 
 "http://www.w3.org/Graphics/SVG/1.1/DTD/svg11.dtd"> 
<svg xmlns="http://www.w3.org/2000/svg" version="1.1" 
    width="12.0472cm" height="4.19862cm" viewBox="0 0 47430 16530 ">
<title>SVG Picture created as lamps-16-mag-brd.svg date 2016/08/11 11:02:34 </title>
  <desc>Picture generated by PCBNEW </desc>
<g style="fill:#000000; fill-opacity:1;stroke:#000000; stroke-opacity:1;
stroke-linecap:round; stroke-linejoin:round; "
 transform="translate(0 0) scale(1 1)">
</g>
<g style="fill:#000000; fill-opacity:0.0; 
stroke:#000000; stroke-width:-0.000393701; stroke-opacity:1; 
stroke-linecap:round; stroke-linejoin:round;">
</g>
<g style="fill:#840000; fill-opacity:0.0; 
stroke:#840000; stroke-width:-0.000393701; stroke-opacity:1; 
stroke-linecap:round; stroke-linejoin:round;">
</g>
<g style="fill:#840000; fill-opacity:0.0; 
stroke:#840000; stroke-width:59.0551; stroke-opacity:1; 
stroke-linecap:round; stroke-linejoin:round;">
<circle cx="10368.4" cy="5019.69" r="984.252" /> 
<circle cx="15368.4" cy="5019.69" r="984.252" /> 
<circle cx="20368.4" cy="5019.69" r="984.252" /> 
<circle cx="25368.4" cy="5019.69" r="984.252" /> 
<circle cx="30368.4" cy="5019.69" r="984.252" /> 
<circle cx="35368.4" cy="5019.69" r="984.252" /> 
<circle cx="40368.4" cy="5019.69" r="984.252" /> 
<circle cx="45368.4" cy="5019.69" r="984.252" /> 
<circle cx="10368.4" cy="15019.7" r="984.252" /> 
<circle cx="15368.4" cy="15019.7" r="984.252" /> 
<circle cx="20368.4" cy="15019.7" r="984.252" /> 
<circle cx="25368.4" cy="15019.7" r="984.252" /> 
<circle cx="30368.4" cy="15019.7" r="984.252" /> 
<circle cx="35368.4" cy="15019.7" r="984.252" /> 
<circle cx="40368.4" cy="15019.7" r="984.252" /> 
<circle cx="45368.4" cy="15019.7" r="984.252" /> 
<circle cx="42868.4" cy="10019.7" r="590.551" /> 
<circle cx="12868.4" cy="10019.7" r="590.551" /> 
</g>
<g style="fill:#000000; fill-opacity:0.0; 
stroke:#000000; stroke-width:59.0551; stroke-opacity:1; 
stroke-linecap:round; stroke-linejoin:round;">
</g>
<g style="fill:#C2C200; fill-opacity:0.0; 
stroke:#C2C200; stroke-width:59.0551; stroke-opacity:1; 
stroke-linecap:round; stroke-linejoin:round;">
</g>
<g style="fill:#C2C200; fill-opacity:0.0; 
stroke:#C2C200; stroke-width:39.3701; stroke-opacity:1; 
stroke-linecap:round; stroke-linejoin:round;">
<path d="M47368 16519
L6368 16519
" />
<path d="M47368 2019
L47368 16519
" />
<path d="M24368 2019
L47368 2019
" />
<path d="M22368 19
L24368 2019
" />
<path d="M11868 19
L22368 19
" />
<path d="M6368 5519
L11868 19
" />
<path d="M6368 16519
L6368 5519
" />
</g> 
</svg>
