M48
;DRILL file {KiCad 4.0.2-stable} date Thursday, 11 August 2016 'amt' 11:02:27
;FORMAT={-:-/ absolute / inch / decimal}
FMAT,2
INCH,TZ
T1C0.039
T2C0.039
T3C0.040
T4C0.118
%
G90
G05
M72
T1
X2.Y-2.85
X2.5Y-2.85
X3.Y-2.85
X3.5Y-2.8
X4.Y-2.7
X4.5Y-2.7
X5.Y-2.7
T2
X2.Y-2.4
X2.Y-2.5
X2.Y-3.4
X2.Y-3.5
X2.5Y-2.4
X2.5Y-2.5
X2.5Y-3.4
X2.5Y-3.5
X3.Y-2.4
X3.Y-2.5
X3.Y-3.4
X3.Y-3.5
X3.5Y-2.4
X3.5Y-2.5
X3.5Y-3.4
X3.5Y-3.5
X4.Y-2.4
X4.Y-2.5
X4.Y-3.4
X4.Y-3.5
X4.5Y-2.4
X4.5Y-2.5
X4.5Y-3.4
X4.5Y-3.5
X5.Y-2.4
X5.Y-2.5
X5.Y-3.4
X5.Y-3.5
X5.5Y-2.4
X5.5Y-2.5
X5.5Y-3.4
X5.5Y-3.5
T3
X2.615Y-2.105
X2.615Y-2.205
X2.715Y-2.105
X2.715Y-2.205
X2.815Y-2.105
X2.815Y-2.205
X2.915Y-2.105
X2.915Y-2.205
X3.015Y-2.105
X3.015Y-2.205
T4
X2.25Y-2.95
X5.25Y-2.95
T0
M30
