G04 #@! TF.FileFunction,Soldermask,Top*
%FSLAX46Y46*%
G04 Gerber Fmt 4.6, Leading zero omitted, Abs format (unit mm)*
G04 Created by KiCad (PCBNEW 4.0.2-stable) date 13/08/2016 22:29:21*
%MOMM*%
G01*
G04 APERTURE LIST*
%ADD10C,0.100000*%
%ADD11R,1.300000X1.300000*%
%ADD12C,1.300000*%
%ADD13R,1.400000X1.400000*%
%ADD14C,1.400000*%
%ADD15R,3.500120X3.500120*%
%ADD16C,1.800000*%
%ADD17R,2.032000X1.727200*%
%ADD18O,2.032000X1.727200*%
%ADD19R,1.727200X2.032000*%
%ADD20O,1.727200X2.032000*%
%ADD21R,1.727200X1.727200*%
%ADD22O,1.727200X1.727200*%
%ADD23C,1.998980*%
%ADD24R,2.032000X2.032000*%
%ADD25C,2.032000*%
%ADD26C,1.524000*%
G04 APERTURE END LIST*
D10*
D11*
X29210000Y-118650000D03*
D12*
X29210000Y-120650000D03*
D13*
X36195000Y-117555000D03*
D14*
X36195000Y-122555000D03*
D13*
X49530000Y-158750000D03*
D14*
X49530000Y-163750000D03*
D15*
X102423000Y-104148140D03*
X102423000Y-98148660D03*
X97724000Y-101148400D03*
D16*
X102423000Y-93948000D03*
D15*
X84008000Y-104148140D03*
X84008000Y-98148660D03*
X79309000Y-101148400D03*
D16*
X84008000Y-93948000D03*
D17*
X22860000Y-186690000D03*
D18*
X22860000Y-189230000D03*
X22860000Y-191770000D03*
X22860000Y-194310000D03*
D17*
X22860000Y-170180000D03*
D18*
X22860000Y-172720000D03*
X22860000Y-175260000D03*
X22860000Y-177800000D03*
D17*
X27940000Y-186690000D03*
D18*
X27940000Y-189230000D03*
X27940000Y-191770000D03*
X27940000Y-194310000D03*
D17*
X27940000Y-170180000D03*
D18*
X27940000Y-172720000D03*
X27940000Y-175260000D03*
X27940000Y-177800000D03*
D17*
X33020000Y-186690000D03*
D18*
X33020000Y-189230000D03*
X33020000Y-191770000D03*
X33020000Y-194310000D03*
D17*
X33020000Y-170180000D03*
D18*
X33020000Y-172720000D03*
X33020000Y-175260000D03*
X33020000Y-177800000D03*
D17*
X38100000Y-186690000D03*
D18*
X38100000Y-189230000D03*
X38100000Y-191770000D03*
X38100000Y-194310000D03*
D17*
X38100000Y-170180000D03*
D18*
X38100000Y-172720000D03*
X38100000Y-175260000D03*
X38100000Y-177800000D03*
D17*
X43180000Y-186690000D03*
D18*
X43180000Y-189230000D03*
X43180000Y-191770000D03*
X43180000Y-194310000D03*
D17*
X43180000Y-170180000D03*
D18*
X43180000Y-172720000D03*
X43180000Y-175260000D03*
X43180000Y-177800000D03*
D17*
X48260000Y-186690000D03*
D18*
X48260000Y-189230000D03*
X48260000Y-191770000D03*
X48260000Y-194310000D03*
D17*
X48260000Y-170180000D03*
D18*
X48260000Y-172720000D03*
X48260000Y-175260000D03*
X48260000Y-177800000D03*
D17*
X53340000Y-186690000D03*
D18*
X53340000Y-189230000D03*
X53340000Y-191770000D03*
X53340000Y-194310000D03*
D17*
X53340000Y-170180000D03*
D18*
X53340000Y-172720000D03*
X53340000Y-175260000D03*
X53340000Y-177800000D03*
D17*
X58420000Y-186690000D03*
D18*
X58420000Y-189230000D03*
X58420000Y-191770000D03*
X58420000Y-194310000D03*
D17*
X58420000Y-170180000D03*
D18*
X58420000Y-172720000D03*
X58420000Y-175260000D03*
X58420000Y-177800000D03*
D17*
X63500000Y-186690000D03*
D18*
X63500000Y-189230000D03*
X63500000Y-191770000D03*
X63500000Y-194310000D03*
D17*
X63500000Y-170180000D03*
D18*
X63500000Y-172720000D03*
X63500000Y-175260000D03*
X63500000Y-177800000D03*
D19*
X52070000Y-110490000D03*
D20*
X54610000Y-110490000D03*
X57150000Y-110490000D03*
X59690000Y-110490000D03*
X62230000Y-110490000D03*
D21*
X95885000Y-194945000D03*
D22*
X95885000Y-192405000D03*
X98425000Y-194945000D03*
X98425000Y-192405000D03*
X100965000Y-194945000D03*
X100965000Y-192405000D03*
X103505000Y-194945000D03*
X103505000Y-192405000D03*
X106045000Y-194945000D03*
X106045000Y-192405000D03*
D21*
X78740000Y-184150000D03*
D22*
X78740000Y-181610000D03*
X81280000Y-184150000D03*
X81280000Y-181610000D03*
X83820000Y-184150000D03*
X83820000Y-181610000D03*
X86360000Y-184150000D03*
X86360000Y-181610000D03*
X88900000Y-184150000D03*
X88900000Y-181610000D03*
D21*
X95885000Y-173778000D03*
D22*
X95885000Y-171238000D03*
X98425000Y-173778000D03*
X98425000Y-171238000D03*
X100965000Y-173778000D03*
X100965000Y-171238000D03*
X103505000Y-173778000D03*
X103505000Y-171238000D03*
X106045000Y-173778000D03*
X106045000Y-171238000D03*
D21*
X78740000Y-162983000D03*
D22*
X78740000Y-160443000D03*
X81280000Y-162983000D03*
X81280000Y-160443000D03*
X83820000Y-162983000D03*
X83820000Y-160443000D03*
X86360000Y-162983000D03*
X86360000Y-160443000D03*
X88900000Y-162983000D03*
X88900000Y-160443000D03*
D21*
X78740000Y-141817000D03*
D22*
X78740000Y-139277000D03*
X81280000Y-141817000D03*
X81280000Y-139277000D03*
X83820000Y-141817000D03*
X83820000Y-139277000D03*
X86360000Y-141817000D03*
X86360000Y-139277000D03*
X88900000Y-141817000D03*
X88900000Y-139277000D03*
D21*
X78752400Y-120650000D03*
D22*
X78752400Y-118110000D03*
X81292400Y-120650000D03*
X81292400Y-118110000D03*
X83832400Y-120650000D03*
X83832400Y-118110000D03*
X86372400Y-120650000D03*
X86372400Y-118110000D03*
X88912400Y-120650000D03*
X88912400Y-118110000D03*
D21*
X95885000Y-152612000D03*
D22*
X95885000Y-150072000D03*
X98425000Y-152612000D03*
X98425000Y-150072000D03*
X100965000Y-152612000D03*
X100965000Y-150072000D03*
X103505000Y-152612000D03*
X103505000Y-150072000D03*
X106045000Y-152612000D03*
X106045000Y-150072000D03*
D21*
X95885000Y-131445000D03*
D22*
X95885000Y-128905000D03*
X98425000Y-131445000D03*
X98425000Y-128905000D03*
X100965000Y-131445000D03*
X100965000Y-128905000D03*
X103505000Y-131445000D03*
X103505000Y-128905000D03*
X106045000Y-131445000D03*
X106045000Y-128905000D03*
D19*
X77470000Y-107950000D03*
D20*
X80010000Y-107950000D03*
X82550000Y-107950000D03*
D17*
X68580000Y-92710000D03*
D18*
X68580000Y-95250000D03*
X68580000Y-97790000D03*
D17*
X52070000Y-92710000D03*
D18*
X52070000Y-95250000D03*
X52070000Y-97790000D03*
X52070000Y-100330000D03*
D23*
X26670000Y-137160000D03*
X26670000Y-127000000D03*
X36830000Y-137160000D03*
X36830000Y-127000000D03*
X26670000Y-149860000D03*
X26670000Y-139700000D03*
X36830000Y-149860000D03*
X36830000Y-139700000D03*
X26670000Y-162560000D03*
X26670000Y-152400000D03*
X36830000Y-162560000D03*
X36830000Y-152400000D03*
X40640000Y-137160000D03*
X50800000Y-137160000D03*
X29210000Y-113030000D03*
X39370000Y-113030000D03*
X25400000Y-95250000D03*
X15240000Y-95250000D03*
X38100000Y-95250000D03*
X27940000Y-95250000D03*
X25400000Y-91440000D03*
X15240000Y-91440000D03*
X38100000Y-91440000D03*
X27940000Y-91440000D03*
D21*
X19050000Y-104140000D03*
D22*
X21590000Y-104140000D03*
X19050000Y-106680000D03*
X21590000Y-106680000D03*
X19050000Y-109220000D03*
X21590000Y-109220000D03*
X19050000Y-111760000D03*
X21590000Y-111760000D03*
X19050000Y-114300000D03*
X21590000Y-114300000D03*
X19050000Y-116840000D03*
X21590000Y-116840000D03*
X19050000Y-119380000D03*
X21590000Y-119380000D03*
X19050000Y-121920000D03*
X21590000Y-121920000D03*
X19050000Y-124460000D03*
X21590000Y-124460000D03*
X19050000Y-127000000D03*
X21590000Y-127000000D03*
X19050000Y-129540000D03*
X21590000Y-129540000D03*
X19050000Y-132080000D03*
X21590000Y-132080000D03*
X19050000Y-134620000D03*
X21590000Y-134620000D03*
X19050000Y-137160000D03*
X21590000Y-137160000D03*
X19050000Y-139700000D03*
X21590000Y-139700000D03*
X19050000Y-142240000D03*
X21590000Y-142240000D03*
X19050000Y-144780000D03*
X21590000Y-144780000D03*
X19050000Y-147320000D03*
X21590000Y-147320000D03*
X19050000Y-149860000D03*
X21590000Y-149860000D03*
X19050000Y-152400000D03*
X21590000Y-152400000D03*
D24*
X44450000Y-154305000D03*
D25*
X46990000Y-154305000D03*
X49530000Y-154305000D03*
X52070000Y-154305000D03*
X54610000Y-154305000D03*
X57150000Y-154305000D03*
X59690000Y-154305000D03*
X62230000Y-154305000D03*
X64770000Y-154305000D03*
X67310000Y-154305000D03*
X69850000Y-154305000D03*
X72390000Y-154305000D03*
X72390000Y-146685000D03*
X69850000Y-146685000D03*
X67310000Y-146685000D03*
X64770000Y-146685000D03*
X62230000Y-146685000D03*
X59690000Y-146685000D03*
X57150000Y-146685000D03*
X54610000Y-146685000D03*
X52070000Y-146685000D03*
X49530000Y-146685000D03*
X46990000Y-146685000D03*
X44450000Y-146685000D03*
D24*
X44450000Y-128270000D03*
D25*
X46990000Y-128270000D03*
X49530000Y-128270000D03*
X52070000Y-128270000D03*
X54610000Y-128270000D03*
X57150000Y-128270000D03*
X59690000Y-128270000D03*
X62230000Y-128270000D03*
X64770000Y-128270000D03*
X67310000Y-128270000D03*
X69850000Y-128270000D03*
X72390000Y-128270000D03*
X72390000Y-120650000D03*
X69850000Y-120650000D03*
X67310000Y-120650000D03*
X64770000Y-120650000D03*
X62230000Y-120650000D03*
X59690000Y-120650000D03*
X57150000Y-120650000D03*
X54610000Y-120650000D03*
X52070000Y-120650000D03*
X49530000Y-120650000D03*
X46990000Y-120650000D03*
X44450000Y-120650000D03*
D11*
X43180000Y-160560000D03*
D12*
X43180000Y-162560000D03*
D26*
X17780000Y-182245000D03*
X20320000Y-182245000D03*
X15240000Y-182245000D03*
X21590000Y-163195000D03*
X24130000Y-163195000D03*
X19050000Y-163195000D03*
X31115000Y-127000000D03*
X28575000Y-127000000D03*
X33655000Y-127000000D03*
X31115000Y-139700000D03*
X28575000Y-139700000D03*
X33655000Y-139700000D03*
X30480000Y-152400000D03*
X27940000Y-152400000D03*
X33020000Y-152400000D03*
M02*
