G04 #@! TF.FileFunction,Legend,Top*
%FSLAX46Y46*%
G04 Gerber Fmt 4.6, Leading zero omitted, Abs format (unit mm)*
G04 Created by KiCad (PCBNEW 4.0.2-stable) date Friday, 12 August 2016 'pmt' 16:12:33*
%MOMM*%
G01*
G04 APERTURE LIST*
%ADD10C,0.100000*%
%ADD11C,0.300000*%
%ADD12C,0.200000*%
%ADD13C,0.150000*%
%ADD14C,0.304800*%
%ADD15C,0.125000*%
%ADD16C,0.222250*%
G04 APERTURE END LIST*
D10*
D11*
X78280001Y-157730000D02*
X78994287Y-157730000D01*
X78137144Y-158158571D02*
X78637144Y-156658571D01*
X79137144Y-158158571D01*
X80280001Y-156658571D02*
X79994287Y-156658571D01*
X79851430Y-156730000D01*
X79780001Y-156801429D01*
X79637144Y-157015714D01*
X79565715Y-157301429D01*
X79565715Y-157872857D01*
X79637144Y-158015714D01*
X79708572Y-158087143D01*
X79851430Y-158158571D01*
X80137144Y-158158571D01*
X80280001Y-158087143D01*
X80351430Y-158015714D01*
X80422858Y-157872857D01*
X80422858Y-157515714D01*
X80351430Y-157372857D01*
X80280001Y-157301429D01*
X80137144Y-157230000D01*
X79851430Y-157230000D01*
X79708572Y-157301429D01*
X79637144Y-157372857D01*
X79565715Y-157515714D01*
X82137143Y-157730000D02*
X82851429Y-157730000D01*
X81994286Y-158158571D02*
X82494286Y-156658571D01*
X82994286Y-158158571D01*
X83351429Y-156658571D02*
X84351429Y-156658571D01*
X83708572Y-158158571D01*
X94790001Y-168525000D02*
X95504287Y-168525000D01*
X94647144Y-168953571D02*
X95147144Y-167453571D01*
X95647144Y-168953571D01*
X96790001Y-167953571D02*
X96790001Y-168953571D01*
X96432858Y-167382143D02*
X96075715Y-168453571D01*
X97004287Y-168453571D01*
X98647143Y-168525000D02*
X99361429Y-168525000D01*
X98504286Y-168953571D02*
X99004286Y-167453571D01*
X99504286Y-168953571D01*
X100718572Y-167453571D02*
X100004286Y-167453571D01*
X99932857Y-168167857D01*
X100004286Y-168096429D01*
X100147143Y-168025000D01*
X100504286Y-168025000D01*
X100647143Y-168096429D01*
X100718572Y-168167857D01*
X100790000Y-168310714D01*
X100790000Y-168667857D01*
X100718572Y-168810714D01*
X100647143Y-168882143D01*
X100504286Y-168953571D01*
X100147143Y-168953571D01*
X100004286Y-168882143D01*
X99932857Y-168810714D01*
X83360001Y-179320000D02*
X84074287Y-179320000D01*
X83217144Y-179748571D02*
X83717144Y-178248571D01*
X84217144Y-179748571D01*
X84645715Y-178391429D02*
X84717144Y-178320000D01*
X84860001Y-178248571D01*
X85217144Y-178248571D01*
X85360001Y-178320000D01*
X85431430Y-178391429D01*
X85502858Y-178534286D01*
X85502858Y-178677143D01*
X85431430Y-178891429D01*
X84574287Y-179748571D01*
X85502858Y-179748571D01*
X87217143Y-179320000D02*
X87931429Y-179320000D01*
X87074286Y-179748571D02*
X87574286Y-178248571D01*
X88074286Y-179748571D01*
X88431429Y-178248571D02*
X89360000Y-178248571D01*
X88860000Y-178820000D01*
X89074286Y-178820000D01*
X89217143Y-178891429D01*
X89288572Y-178962857D01*
X89360000Y-179105714D01*
X89360000Y-179462857D01*
X89288572Y-179605714D01*
X89217143Y-179677143D01*
X89074286Y-179748571D01*
X88645714Y-179748571D01*
X88502857Y-179677143D01*
X88431429Y-179605714D01*
X94790001Y-190115000D02*
X95504287Y-190115000D01*
X94647144Y-190543571D02*
X95147144Y-189043571D01*
X95647144Y-190543571D01*
X96432858Y-189043571D02*
X96575715Y-189043571D01*
X96718572Y-189115000D01*
X96790001Y-189186429D01*
X96861430Y-189329286D01*
X96932858Y-189615000D01*
X96932858Y-189972143D01*
X96861430Y-190257857D01*
X96790001Y-190400714D01*
X96718572Y-190472143D01*
X96575715Y-190543571D01*
X96432858Y-190543571D01*
X96290001Y-190472143D01*
X96218572Y-190400714D01*
X96147144Y-190257857D01*
X96075715Y-189972143D01*
X96075715Y-189615000D01*
X96147144Y-189329286D01*
X96218572Y-189186429D01*
X96290001Y-189115000D01*
X96432858Y-189043571D01*
X98647143Y-190115000D02*
X99361429Y-190115000D01*
X98504286Y-190543571D02*
X99004286Y-189043571D01*
X99504286Y-190543571D01*
X100790000Y-190543571D02*
X99932857Y-190543571D01*
X100361429Y-190543571D02*
X100361429Y-189043571D01*
X100218572Y-189257857D01*
X100075714Y-189400714D01*
X99932857Y-189472143D01*
X95147144Y-125622857D02*
X95361430Y-125694286D01*
X95432858Y-125765714D01*
X95504287Y-125908571D01*
X95504287Y-126122857D01*
X95432858Y-126265714D01*
X95361430Y-126337143D01*
X95218572Y-126408571D01*
X94647144Y-126408571D01*
X94647144Y-124908571D01*
X95147144Y-124908571D01*
X95290001Y-124980000D01*
X95361430Y-125051429D01*
X95432858Y-125194286D01*
X95432858Y-125337143D01*
X95361430Y-125480000D01*
X95290001Y-125551429D01*
X95147144Y-125622857D01*
X94647144Y-125622857D01*
X96790001Y-124908571D02*
X96504287Y-124908571D01*
X96361430Y-124980000D01*
X96290001Y-125051429D01*
X96147144Y-125265714D01*
X96075715Y-125551429D01*
X96075715Y-126122857D01*
X96147144Y-126265714D01*
X96218572Y-126337143D01*
X96361430Y-126408571D01*
X96647144Y-126408571D01*
X96790001Y-126337143D01*
X96861430Y-126265714D01*
X96932858Y-126122857D01*
X96932858Y-125765714D01*
X96861430Y-125622857D01*
X96790001Y-125551429D01*
X96647144Y-125480000D01*
X96361430Y-125480000D01*
X96218572Y-125551429D01*
X96147144Y-125622857D01*
X96075715Y-125765714D01*
X99218572Y-125622857D02*
X99432858Y-125694286D01*
X99504286Y-125765714D01*
X99575715Y-125908571D01*
X99575715Y-126122857D01*
X99504286Y-126265714D01*
X99432858Y-126337143D01*
X99290000Y-126408571D01*
X98718572Y-126408571D01*
X98718572Y-124908571D01*
X99218572Y-124908571D01*
X99361429Y-124980000D01*
X99432858Y-125051429D01*
X99504286Y-125194286D01*
X99504286Y-125337143D01*
X99432858Y-125480000D01*
X99361429Y-125551429D01*
X99218572Y-125622857D01*
X98718572Y-125622857D01*
X100075715Y-124908571D02*
X101075715Y-124908571D01*
X100432858Y-126408571D01*
X95147144Y-147212857D02*
X95361430Y-147284286D01*
X95432858Y-147355714D01*
X95504287Y-147498571D01*
X95504287Y-147712857D01*
X95432858Y-147855714D01*
X95361430Y-147927143D01*
X95218572Y-147998571D01*
X94647144Y-147998571D01*
X94647144Y-146498571D01*
X95147144Y-146498571D01*
X95290001Y-146570000D01*
X95361430Y-146641429D01*
X95432858Y-146784286D01*
X95432858Y-146927143D01*
X95361430Y-147070000D01*
X95290001Y-147141429D01*
X95147144Y-147212857D01*
X94647144Y-147212857D01*
X96790001Y-146998571D02*
X96790001Y-147998571D01*
X96432858Y-146427143D02*
X96075715Y-147498571D01*
X97004287Y-147498571D01*
X99218572Y-147212857D02*
X99432858Y-147284286D01*
X99504286Y-147355714D01*
X99575715Y-147498571D01*
X99575715Y-147712857D01*
X99504286Y-147855714D01*
X99432858Y-147927143D01*
X99290000Y-147998571D01*
X98718572Y-147998571D01*
X98718572Y-146498571D01*
X99218572Y-146498571D01*
X99361429Y-146570000D01*
X99432858Y-146641429D01*
X99504286Y-146784286D01*
X99504286Y-146927143D01*
X99432858Y-147070000D01*
X99361429Y-147141429D01*
X99218572Y-147212857D01*
X98718572Y-147212857D01*
X100932858Y-146498571D02*
X100218572Y-146498571D01*
X100147143Y-147212857D01*
X100218572Y-147141429D01*
X100361429Y-147070000D01*
X100718572Y-147070000D01*
X100861429Y-147141429D01*
X100932858Y-147212857D01*
X101004286Y-147355714D01*
X101004286Y-147712857D01*
X100932858Y-147855714D01*
X100861429Y-147927143D01*
X100718572Y-147998571D01*
X100361429Y-147998571D01*
X100218572Y-147927143D01*
X100147143Y-147855714D01*
X77367144Y-135782857D02*
X77581430Y-135854286D01*
X77652858Y-135925714D01*
X77724287Y-136068571D01*
X77724287Y-136282857D01*
X77652858Y-136425714D01*
X77581430Y-136497143D01*
X77438572Y-136568571D01*
X76867144Y-136568571D01*
X76867144Y-135068571D01*
X77367144Y-135068571D01*
X77510001Y-135140000D01*
X77581430Y-135211429D01*
X77652858Y-135354286D01*
X77652858Y-135497143D01*
X77581430Y-135640000D01*
X77510001Y-135711429D01*
X77367144Y-135782857D01*
X76867144Y-135782857D01*
X78652858Y-135068571D02*
X78795715Y-135068571D01*
X78938572Y-135140000D01*
X79010001Y-135211429D01*
X79081430Y-135354286D01*
X79152858Y-135640000D01*
X79152858Y-135997143D01*
X79081430Y-136282857D01*
X79010001Y-136425714D01*
X78938572Y-136497143D01*
X78795715Y-136568571D01*
X78652858Y-136568571D01*
X78510001Y-136497143D01*
X78438572Y-136425714D01*
X78367144Y-136282857D01*
X78295715Y-135997143D01*
X78295715Y-135640000D01*
X78367144Y-135354286D01*
X78438572Y-135211429D01*
X78510001Y-135140000D01*
X78652858Y-135068571D01*
X81438572Y-135782857D02*
X81652858Y-135854286D01*
X81724286Y-135925714D01*
X81795715Y-136068571D01*
X81795715Y-136282857D01*
X81724286Y-136425714D01*
X81652858Y-136497143D01*
X81510000Y-136568571D01*
X80938572Y-136568571D01*
X80938572Y-135068571D01*
X81438572Y-135068571D01*
X81581429Y-135140000D01*
X81652858Y-135211429D01*
X81724286Y-135354286D01*
X81724286Y-135497143D01*
X81652858Y-135640000D01*
X81581429Y-135711429D01*
X81438572Y-135782857D01*
X80938572Y-135782857D01*
X83224286Y-136568571D02*
X82367143Y-136568571D01*
X82795715Y-136568571D02*
X82795715Y-135068571D01*
X82652858Y-135282857D01*
X82510000Y-135425714D01*
X82367143Y-135497143D01*
X84987144Y-114827857D02*
X85201430Y-114899286D01*
X85272858Y-114970714D01*
X85344287Y-115113571D01*
X85344287Y-115327857D01*
X85272858Y-115470714D01*
X85201430Y-115542143D01*
X85058572Y-115613571D01*
X84487144Y-115613571D01*
X84487144Y-114113571D01*
X84987144Y-114113571D01*
X85130001Y-114185000D01*
X85201430Y-114256429D01*
X85272858Y-114399286D01*
X85272858Y-114542143D01*
X85201430Y-114685000D01*
X85130001Y-114756429D01*
X84987144Y-114827857D01*
X84487144Y-114827857D01*
X85915715Y-114256429D02*
X85987144Y-114185000D01*
X86130001Y-114113571D01*
X86487144Y-114113571D01*
X86630001Y-114185000D01*
X86701430Y-114256429D01*
X86772858Y-114399286D01*
X86772858Y-114542143D01*
X86701430Y-114756429D01*
X85844287Y-115613571D01*
X86772858Y-115613571D01*
X89058572Y-114827857D02*
X89272858Y-114899286D01*
X89344286Y-114970714D01*
X89415715Y-115113571D01*
X89415715Y-115327857D01*
X89344286Y-115470714D01*
X89272858Y-115542143D01*
X89130000Y-115613571D01*
X88558572Y-115613571D01*
X88558572Y-114113571D01*
X89058572Y-114113571D01*
X89201429Y-114185000D01*
X89272858Y-114256429D01*
X89344286Y-114399286D01*
X89344286Y-114542143D01*
X89272858Y-114685000D01*
X89201429Y-114756429D01*
X89058572Y-114827857D01*
X88558572Y-114827857D01*
X89915715Y-114113571D02*
X90844286Y-114113571D01*
X90344286Y-114685000D01*
X90558572Y-114685000D01*
X90701429Y-114756429D01*
X90772858Y-114827857D01*
X90844286Y-114970714D01*
X90844286Y-115327857D01*
X90772858Y-115470714D01*
X90701429Y-115542143D01*
X90558572Y-115613571D01*
X90130000Y-115613571D01*
X89987143Y-115542143D01*
X89915715Y-115470714D01*
D12*
X71120000Y-90170000D02*
X71120000Y-100330000D01*
D11*
X40703572Y-115042143D02*
X41846429Y-115042143D01*
X41275000Y-115613571D02*
X41275000Y-114470714D01*
X103568572Y-109327143D02*
X104711429Y-109327143D01*
X104140000Y-109898571D02*
X104140000Y-108755714D01*
D12*
X42545000Y-102870000D02*
X42545000Y-99695000D01*
X54610000Y-102870000D02*
X42545000Y-102870000D01*
X54610000Y-90170000D02*
X54610000Y-102870000D01*
X42545000Y-90170000D02*
X54610000Y-90170000D01*
X42545000Y-93345000D02*
X42545000Y-90170000D01*
D11*
X44665000Y-94170000D02*
X44593572Y-94098571D01*
X44450715Y-93884286D01*
X44379286Y-93741429D01*
X44307857Y-93527143D01*
X44236429Y-93170000D01*
X44236429Y-92884286D01*
X44307857Y-92527143D01*
X44379286Y-92312857D01*
X44450715Y-92170000D01*
X44593572Y-91955714D01*
X44665000Y-91884286D01*
X45022143Y-92098571D02*
X45522143Y-93598571D01*
X46022143Y-92098571D01*
X46522143Y-93598571D02*
X46522143Y-92098571D01*
X46879286Y-92098571D01*
X47093571Y-92170000D01*
X47236429Y-92312857D01*
X47307857Y-92455714D01*
X47379286Y-92741429D01*
X47379286Y-92955714D01*
X47307857Y-93241429D01*
X47236429Y-93384286D01*
X47093571Y-93527143D01*
X46879286Y-93598571D01*
X46522143Y-93598571D01*
X48022143Y-93598571D02*
X48022143Y-92098571D01*
X48379286Y-92098571D01*
X48593571Y-92170000D01*
X48736429Y-92312857D01*
X48807857Y-92455714D01*
X48879286Y-92741429D01*
X48879286Y-92955714D01*
X48807857Y-93241429D01*
X48736429Y-93384286D01*
X48593571Y-93527143D01*
X48379286Y-93598571D01*
X48022143Y-93598571D01*
X49379286Y-94170000D02*
X49450714Y-94098571D01*
X49593571Y-93884286D01*
X49665000Y-93741429D01*
X49736429Y-93527143D01*
X49807857Y-93170000D01*
X49807857Y-92884286D01*
X49736429Y-92527143D01*
X49665000Y-92312857D01*
X49593571Y-92170000D01*
X49450714Y-91955714D01*
X49379286Y-91884286D01*
X44879286Y-95927143D02*
X45093572Y-95998571D01*
X45450715Y-95998571D01*
X45593572Y-95927143D01*
X45665001Y-95855714D01*
X45736429Y-95712857D01*
X45736429Y-95570000D01*
X45665001Y-95427143D01*
X45593572Y-95355714D01*
X45450715Y-95284286D01*
X45165001Y-95212857D01*
X45022143Y-95141429D01*
X44950715Y-95070000D01*
X44879286Y-94927143D01*
X44879286Y-94784286D01*
X44950715Y-94641429D01*
X45022143Y-94570000D01*
X45165001Y-94498571D01*
X45522143Y-94498571D01*
X45736429Y-94570000D01*
X46236429Y-94498571D02*
X46593572Y-95998571D01*
X46879286Y-94927143D01*
X47165000Y-95998571D01*
X47522143Y-94498571D01*
X49165000Y-95570000D02*
X49879286Y-95570000D01*
X49022143Y-95998571D02*
X49522143Y-94498571D01*
X50022143Y-95998571D01*
X44665000Y-98327143D02*
X44879286Y-98398571D01*
X45236429Y-98398571D01*
X45379286Y-98327143D01*
X45450715Y-98255714D01*
X45522143Y-98112857D01*
X45522143Y-97970000D01*
X45450715Y-97827143D01*
X45379286Y-97755714D01*
X45236429Y-97684286D01*
X44950715Y-97612857D01*
X44807857Y-97541429D01*
X44736429Y-97470000D01*
X44665000Y-97327143D01*
X44665000Y-97184286D01*
X44736429Y-97041429D01*
X44807857Y-96970000D01*
X44950715Y-96898571D01*
X45307857Y-96898571D01*
X45522143Y-96970000D01*
X46022143Y-96898571D02*
X46379286Y-98398571D01*
X46665000Y-97327143D01*
X46950714Y-98398571D01*
X47307857Y-96898571D01*
X49522143Y-97612857D02*
X49736429Y-97684286D01*
X49807857Y-97755714D01*
X49879286Y-97898571D01*
X49879286Y-98112857D01*
X49807857Y-98255714D01*
X49736429Y-98327143D01*
X49593571Y-98398571D01*
X49022143Y-98398571D01*
X49022143Y-96898571D01*
X49522143Y-96898571D01*
X49665000Y-96970000D01*
X49736429Y-97041429D01*
X49807857Y-97184286D01*
X49807857Y-97327143D01*
X49736429Y-97470000D01*
X49665000Y-97541429D01*
X49522143Y-97612857D01*
X49022143Y-97612857D01*
X46736428Y-99370000D02*
X46593571Y-99298571D01*
X46379285Y-99298571D01*
X46165000Y-99370000D01*
X46022142Y-99512857D01*
X45950714Y-99655714D01*
X45879285Y-99941429D01*
X45879285Y-100155714D01*
X45950714Y-100441429D01*
X46022142Y-100584286D01*
X46165000Y-100727143D01*
X46379285Y-100798571D01*
X46522142Y-100798571D01*
X46736428Y-100727143D01*
X46807857Y-100655714D01*
X46807857Y-100155714D01*
X46522142Y-100155714D01*
X47450714Y-100798571D02*
X47450714Y-99298571D01*
X48307857Y-100798571D01*
X48307857Y-99298571D01*
X49022143Y-100798571D02*
X49022143Y-99298571D01*
X49379286Y-99298571D01*
X49593571Y-99370000D01*
X49736429Y-99512857D01*
X49807857Y-99655714D01*
X49879286Y-99941429D01*
X49879286Y-100155714D01*
X49807857Y-100441429D01*
X49736429Y-100584286D01*
X49593571Y-100727143D01*
X49379286Y-100798571D01*
X49022143Y-100798571D01*
X43223571Y-98341428D02*
X41723571Y-98341428D01*
X41723571Y-97984285D01*
X41795000Y-97770000D01*
X41937857Y-97627142D01*
X42080714Y-97555714D01*
X42366429Y-97484285D01*
X42580714Y-97484285D01*
X42866429Y-97555714D01*
X43009286Y-97627142D01*
X43152143Y-97770000D01*
X43223571Y-97984285D01*
X43223571Y-98341428D01*
X43223571Y-96841428D02*
X42223571Y-96841428D01*
X41723571Y-96841428D02*
X41795000Y-96912857D01*
X41866429Y-96841428D01*
X41795000Y-96770000D01*
X41723571Y-96841428D01*
X41866429Y-96841428D01*
X43223571Y-95484285D02*
X42437857Y-95484285D01*
X42295000Y-95555714D01*
X42223571Y-95698571D01*
X42223571Y-95984285D01*
X42295000Y-96127142D01*
X43152143Y-95484285D02*
X43223571Y-95627142D01*
X43223571Y-95984285D01*
X43152143Y-96127142D01*
X43009286Y-96198571D01*
X42866429Y-96198571D01*
X42723571Y-96127142D01*
X42652143Y-95984285D01*
X42652143Y-95627142D01*
X42580714Y-95484285D01*
X43223571Y-94555713D02*
X43152143Y-94698571D01*
X43009286Y-94769999D01*
X41723571Y-94769999D01*
D12*
X71120000Y-90170000D02*
X59690000Y-90170000D01*
X59690000Y-100330000D02*
X71120000Y-100330000D01*
X108772966Y-109578986D02*
X92262966Y-109578986D01*
X108772966Y-89258986D02*
X108772966Y-109578986D01*
X92262966Y-89258986D02*
X108772966Y-89258986D01*
X88900000Y-89258986D02*
X73660000Y-89258986D01*
X88900000Y-113665000D02*
X88900000Y-89258986D01*
X73660000Y-113665000D02*
X88900000Y-113665000D01*
X73660000Y-110490000D02*
X73660000Y-113665000D01*
D11*
X60368571Y-98678571D02*
X58868571Y-98678571D01*
X58868571Y-98107143D01*
X58940000Y-97964285D01*
X59011429Y-97892857D01*
X59154286Y-97821428D01*
X59368571Y-97821428D01*
X59511429Y-97892857D01*
X59582857Y-97964285D01*
X59654286Y-98107143D01*
X59654286Y-98678571D01*
X60368571Y-97178571D02*
X59368571Y-97178571D01*
X59654286Y-97178571D02*
X59511429Y-97107143D01*
X59440000Y-97035714D01*
X59368571Y-96892857D01*
X59368571Y-96750000D01*
X60368571Y-96250000D02*
X59368571Y-96250000D01*
X58868571Y-96250000D02*
X58940000Y-96321429D01*
X59011429Y-96250000D01*
X58940000Y-96178572D01*
X58868571Y-96250000D01*
X59011429Y-96250000D01*
X59368571Y-95535714D02*
X60368571Y-95535714D01*
X59511429Y-95535714D02*
X59440000Y-95464286D01*
X59368571Y-95321428D01*
X59368571Y-95107143D01*
X59440000Y-94964286D01*
X59582857Y-94892857D01*
X60368571Y-94892857D01*
X59368571Y-94392857D02*
X59368571Y-93821428D01*
X58868571Y-94178571D02*
X60154286Y-94178571D01*
X60297143Y-94107143D01*
X60368571Y-93964285D01*
X60368571Y-93821428D01*
X60297143Y-92750000D02*
X60368571Y-92892857D01*
X60368571Y-93178571D01*
X60297143Y-93321428D01*
X60154286Y-93392857D01*
X59582857Y-93392857D01*
X59440000Y-93321428D01*
X59368571Y-93178571D01*
X59368571Y-92892857D01*
X59440000Y-92750000D01*
X59582857Y-92678571D01*
X59725714Y-92678571D01*
X59868571Y-93392857D01*
X60368571Y-92035714D02*
X59368571Y-92035714D01*
X59654286Y-92035714D02*
X59511429Y-91964286D01*
X59440000Y-91892857D01*
X59368571Y-91750000D01*
X59368571Y-91607143D01*
X79188571Y-112045713D02*
X79188571Y-112759999D01*
X79902857Y-112831428D01*
X79831429Y-112759999D01*
X79760000Y-112617142D01*
X79760000Y-112259999D01*
X79831429Y-112117142D01*
X79902857Y-112045713D01*
X80045714Y-111974285D01*
X80402857Y-111974285D01*
X80545714Y-112045713D01*
X80617143Y-112117142D01*
X80688571Y-112259999D01*
X80688571Y-112617142D01*
X80617143Y-112759999D01*
X80545714Y-112831428D01*
X79188571Y-111545714D02*
X80688571Y-111045714D01*
X79188571Y-110545714D01*
X62611428Y-92100000D02*
X62468571Y-92028571D01*
X62254285Y-92028571D01*
X62040000Y-92100000D01*
X61897142Y-92242857D01*
X61825714Y-92385714D01*
X61754285Y-92671429D01*
X61754285Y-92885714D01*
X61825714Y-93171429D01*
X61897142Y-93314286D01*
X62040000Y-93457143D01*
X62254285Y-93528571D01*
X62397142Y-93528571D01*
X62611428Y-93457143D01*
X62682857Y-93385714D01*
X62682857Y-92885714D01*
X62397142Y-92885714D01*
X63325714Y-93528571D02*
X63325714Y-92028571D01*
X64182857Y-93528571D01*
X64182857Y-92028571D01*
X64897143Y-93528571D02*
X64897143Y-92028571D01*
X65254286Y-92028571D01*
X65468571Y-92100000D01*
X65611429Y-92242857D01*
X65682857Y-92385714D01*
X65754286Y-92671429D01*
X65754286Y-92885714D01*
X65682857Y-93171429D01*
X65611429Y-93314286D01*
X65468571Y-93457143D01*
X65254286Y-93528571D01*
X64897143Y-93528571D01*
X62825715Y-95928571D02*
X62325715Y-95214286D01*
X61968572Y-95928571D02*
X61968572Y-94428571D01*
X62540000Y-94428571D01*
X62682858Y-94500000D01*
X62754286Y-94571429D01*
X62825715Y-94714286D01*
X62825715Y-94928571D01*
X62754286Y-95071429D01*
X62682858Y-95142857D01*
X62540000Y-95214286D01*
X61968572Y-95214286D01*
X63325715Y-94428571D02*
X64325715Y-95928571D01*
X64325715Y-94428571D02*
X63325715Y-95928571D01*
X64897143Y-95928571D02*
X64897143Y-94428571D01*
X65254286Y-94428571D01*
X65468571Y-94500000D01*
X65611429Y-94642857D01*
X65682857Y-94785714D01*
X65754286Y-95071429D01*
X65754286Y-95285714D01*
X65682857Y-95571429D01*
X65611429Y-95714286D01*
X65468571Y-95857143D01*
X65254286Y-95928571D01*
X64897143Y-95928571D01*
X62111429Y-96828571D02*
X62968572Y-96828571D01*
X62540001Y-98328571D02*
X62540001Y-96828571D01*
X63325715Y-96828571D02*
X64325715Y-98328571D01*
X64325715Y-96828571D02*
X63325715Y-98328571D01*
X64897143Y-98328571D02*
X64897143Y-96828571D01*
X65254286Y-96828571D01*
X65468571Y-96900000D01*
X65611429Y-97042857D01*
X65682857Y-97185714D01*
X65754286Y-97471429D01*
X65754286Y-97685714D01*
X65682857Y-97971429D01*
X65611429Y-98114286D01*
X65468571Y-98257143D01*
X65254286Y-98328571D01*
X64897143Y-98328571D01*
X77577143Y-112331428D02*
X77577143Y-111188571D01*
X82657143Y-112331428D02*
X82657143Y-111188571D01*
X83228571Y-111760000D02*
X82085714Y-111760000D01*
X92941537Y-108028985D02*
X92941537Y-108743271D01*
X91441537Y-108743271D01*
X92941537Y-107528985D02*
X91941537Y-107528985D01*
X91441537Y-107528985D02*
X91512966Y-107600414D01*
X91584395Y-107528985D01*
X91512966Y-107457557D01*
X91441537Y-107528985D01*
X91584395Y-107528985D01*
X91941537Y-106171842D02*
X93155823Y-106171842D01*
X93298680Y-106243271D01*
X93370109Y-106314699D01*
X93441537Y-106457556D01*
X93441537Y-106671842D01*
X93370109Y-106814699D01*
X92870109Y-106171842D02*
X92941537Y-106314699D01*
X92941537Y-106600413D01*
X92870109Y-106743271D01*
X92798680Y-106814699D01*
X92655823Y-106886128D01*
X92227252Y-106886128D01*
X92084395Y-106814699D01*
X92012966Y-106743271D01*
X91941537Y-106600413D01*
X91941537Y-106314699D01*
X92012966Y-106171842D01*
X92941537Y-105457556D02*
X91441537Y-105457556D01*
X92941537Y-104814699D02*
X92155823Y-104814699D01*
X92012966Y-104886128D01*
X91941537Y-105028985D01*
X91941537Y-105243270D01*
X92012966Y-105386128D01*
X92084395Y-105457556D01*
X91941537Y-104314699D02*
X91941537Y-103743270D01*
X91441537Y-104100413D02*
X92727252Y-104100413D01*
X92870109Y-104028985D01*
X92941537Y-103886127D01*
X92941537Y-103743270D01*
X92870109Y-103314699D02*
X92941537Y-103171842D01*
X92941537Y-102886127D01*
X92870109Y-102743270D01*
X92727252Y-102671842D01*
X92655823Y-102671842D01*
X92512966Y-102743270D01*
X92441537Y-102886127D01*
X92441537Y-103100413D01*
X92370109Y-103243270D01*
X92227252Y-103314699D01*
X92155823Y-103314699D01*
X92012966Y-103243270D01*
X91941537Y-103100413D01*
X91941537Y-102886127D01*
X92012966Y-102743270D01*
X92941537Y-100886127D02*
X91441537Y-100886127D01*
X91441537Y-100528984D01*
X91512966Y-100314699D01*
X91655823Y-100171841D01*
X91798680Y-100100413D01*
X92084395Y-100028984D01*
X92298680Y-100028984D01*
X92584395Y-100100413D01*
X92727252Y-100171841D01*
X92870109Y-100314699D01*
X92941537Y-100528984D01*
X92941537Y-100886127D01*
X92798680Y-98528984D02*
X92870109Y-98600413D01*
X92941537Y-98814699D01*
X92941537Y-98957556D01*
X92870109Y-99171841D01*
X92727252Y-99314699D01*
X92584395Y-99386127D01*
X92298680Y-99457556D01*
X92084395Y-99457556D01*
X91798680Y-99386127D01*
X91655823Y-99314699D01*
X91512966Y-99171841D01*
X91441537Y-98957556D01*
X91441537Y-98814699D01*
X91512966Y-98600413D01*
X91584395Y-98528984D01*
X91441537Y-96028984D02*
X91441537Y-96743270D01*
X92155823Y-96814699D01*
X92084395Y-96743270D01*
X92012966Y-96600413D01*
X92012966Y-96243270D01*
X92084395Y-96100413D01*
X92155823Y-96028984D01*
X92298680Y-95957556D01*
X92655823Y-95957556D01*
X92798680Y-96028984D01*
X92870109Y-96100413D01*
X92941537Y-96243270D01*
X92941537Y-96600413D01*
X92870109Y-96743270D01*
X92798680Y-96814699D01*
X91441537Y-95528985D02*
X92941537Y-95028985D01*
X91441537Y-94528985D01*
X92941537Y-92100414D02*
X92941537Y-92957557D01*
X92941537Y-92528985D02*
X91441537Y-92528985D01*
X91655823Y-92671842D01*
X91798680Y-92814700D01*
X91870109Y-92957557D01*
X92512966Y-91528986D02*
X92512966Y-90814700D01*
X92941537Y-91671843D02*
X91441537Y-91171843D01*
X92941537Y-90671843D01*
X74338571Y-109241426D02*
X72838571Y-109241426D01*
X72838571Y-108669998D01*
X72910000Y-108527140D01*
X72981429Y-108455712D01*
X73124286Y-108384283D01*
X73338571Y-108384283D01*
X73481429Y-108455712D01*
X73552857Y-108527140D01*
X73624286Y-108669998D01*
X73624286Y-109241426D01*
X74338571Y-107741426D02*
X73338571Y-107741426D01*
X73624286Y-107741426D02*
X73481429Y-107669998D01*
X73410000Y-107598569D01*
X73338571Y-107455712D01*
X73338571Y-107312855D01*
X74338571Y-106812855D02*
X73338571Y-106812855D01*
X72838571Y-106812855D02*
X72910000Y-106884284D01*
X72981429Y-106812855D01*
X72910000Y-106741427D01*
X72838571Y-106812855D01*
X72981429Y-106812855D01*
X73338571Y-106098569D02*
X74338571Y-106098569D01*
X73481429Y-106098569D02*
X73410000Y-106027141D01*
X73338571Y-105884283D01*
X73338571Y-105669998D01*
X73410000Y-105527141D01*
X73552857Y-105455712D01*
X74338571Y-105455712D01*
X73338571Y-104955712D02*
X73338571Y-104384283D01*
X72838571Y-104741426D02*
X74124286Y-104741426D01*
X74267143Y-104669998D01*
X74338571Y-104527140D01*
X74338571Y-104384283D01*
X74267143Y-103312855D02*
X74338571Y-103455712D01*
X74338571Y-103741426D01*
X74267143Y-103884283D01*
X74124286Y-103955712D01*
X73552857Y-103955712D01*
X73410000Y-103884283D01*
X73338571Y-103741426D01*
X73338571Y-103455712D01*
X73410000Y-103312855D01*
X73552857Y-103241426D01*
X73695714Y-103241426D01*
X73838571Y-103955712D01*
X74338571Y-102598569D02*
X73338571Y-102598569D01*
X73624286Y-102598569D02*
X73481429Y-102527141D01*
X73410000Y-102455712D01*
X73338571Y-102312855D01*
X73338571Y-102169998D01*
X74338571Y-100527141D02*
X72838571Y-100527141D01*
X72838571Y-100169998D01*
X72910000Y-99955713D01*
X73052857Y-99812855D01*
X73195714Y-99741427D01*
X73481429Y-99669998D01*
X73695714Y-99669998D01*
X73981429Y-99741427D01*
X74124286Y-99812855D01*
X74267143Y-99955713D01*
X74338571Y-100169998D01*
X74338571Y-100527141D01*
X74195714Y-98169998D02*
X74267143Y-98241427D01*
X74338571Y-98455713D01*
X74338571Y-98598570D01*
X74267143Y-98812855D01*
X74124286Y-98955713D01*
X73981429Y-99027141D01*
X73695714Y-99098570D01*
X73481429Y-99098570D01*
X73195714Y-99027141D01*
X73052857Y-98955713D01*
X72910000Y-98812855D01*
X72838571Y-98598570D01*
X72838571Y-98455713D01*
X72910000Y-98241427D01*
X72981429Y-98169998D01*
X72838571Y-95669998D02*
X72838571Y-96384284D01*
X73552857Y-96455713D01*
X73481429Y-96384284D01*
X73410000Y-96241427D01*
X73410000Y-95884284D01*
X73481429Y-95741427D01*
X73552857Y-95669998D01*
X73695714Y-95598570D01*
X74052857Y-95598570D01*
X74195714Y-95669998D01*
X74267143Y-95741427D01*
X74338571Y-95884284D01*
X74338571Y-96241427D01*
X74267143Y-96384284D01*
X74195714Y-96455713D01*
X72838571Y-95169999D02*
X74338571Y-94669999D01*
X72838571Y-94169999D01*
X72981429Y-92598571D02*
X72910000Y-92527142D01*
X72838571Y-92384285D01*
X72838571Y-92027142D01*
X72910000Y-91884285D01*
X72981429Y-91812856D01*
X73124286Y-91741428D01*
X73267143Y-91741428D01*
X73481429Y-91812856D01*
X74338571Y-92669999D01*
X74338571Y-91741428D01*
X73910000Y-91170000D02*
X73910000Y-90455714D01*
X74338571Y-91312857D02*
X72838571Y-90812857D01*
X74338571Y-90312857D01*
D12*
X68580000Y-167640000D02*
X68580000Y-180340000D01*
X68580000Y-180340000D02*
X13970000Y-180340000D01*
X13970000Y-180340000D02*
X13970000Y-167640000D01*
X13970000Y-167640000D02*
X68580000Y-167640000D01*
D11*
X17272143Y-169640000D02*
X17129286Y-169568571D01*
X16915000Y-169568571D01*
X16700715Y-169640000D01*
X16557857Y-169782857D01*
X16486429Y-169925714D01*
X16415000Y-170211429D01*
X16415000Y-170425714D01*
X16486429Y-170711429D01*
X16557857Y-170854286D01*
X16700715Y-170997143D01*
X16915000Y-171068571D01*
X17057857Y-171068571D01*
X17272143Y-170997143D01*
X17343572Y-170925714D01*
X17343572Y-170425714D01*
X17057857Y-170425714D01*
X17986429Y-171068571D02*
X17986429Y-169568571D01*
X18843572Y-171068571D01*
X18843572Y-169568571D01*
X19557858Y-171068571D02*
X19557858Y-169568571D01*
X19915001Y-169568571D01*
X20129286Y-169640000D01*
X20272144Y-169782857D01*
X20343572Y-169925714D01*
X20415001Y-170211429D01*
X20415001Y-170425714D01*
X20343572Y-170711429D01*
X20272144Y-170854286D01*
X20129286Y-170997143D01*
X19915001Y-171068571D01*
X19557858Y-171068571D01*
X16415000Y-171968571D02*
X16915000Y-173468571D01*
X17415000Y-171968571D01*
X17915000Y-173468571D02*
X17915000Y-171968571D01*
X18272143Y-171968571D01*
X18486428Y-172040000D01*
X18629286Y-172182857D01*
X18700714Y-172325714D01*
X18772143Y-172611429D01*
X18772143Y-172825714D01*
X18700714Y-173111429D01*
X18629286Y-173254286D01*
X18486428Y-173397143D01*
X18272143Y-173468571D01*
X17915000Y-173468571D01*
X19415000Y-173468571D02*
X19415000Y-171968571D01*
X19772143Y-171968571D01*
X19986428Y-172040000D01*
X20129286Y-172182857D01*
X20200714Y-172325714D01*
X20272143Y-172611429D01*
X20272143Y-172825714D01*
X20200714Y-173111429D01*
X20129286Y-173254286D01*
X19986428Y-173397143D01*
X19772143Y-173468571D01*
X19415000Y-173468571D01*
X16593572Y-175797143D02*
X16807858Y-175868571D01*
X17165001Y-175868571D01*
X17307858Y-175797143D01*
X17379287Y-175725714D01*
X17450715Y-175582857D01*
X17450715Y-175440000D01*
X17379287Y-175297143D01*
X17307858Y-175225714D01*
X17165001Y-175154286D01*
X16879287Y-175082857D01*
X16736429Y-175011429D01*
X16665001Y-174940000D01*
X16593572Y-174797143D01*
X16593572Y-174654286D01*
X16665001Y-174511429D01*
X16736429Y-174440000D01*
X16879287Y-174368571D01*
X17236429Y-174368571D01*
X17450715Y-174440000D01*
X18093572Y-175868571D02*
X18093572Y-174368571D01*
X18450715Y-174368571D01*
X18665000Y-174440000D01*
X18807858Y-174582857D01*
X18879286Y-174725714D01*
X18950715Y-175011429D01*
X18950715Y-175225714D01*
X18879286Y-175511429D01*
X18807858Y-175654286D01*
X18665000Y-175797143D01*
X18450715Y-175868571D01*
X18093572Y-175868571D01*
X19522143Y-175440000D02*
X20236429Y-175440000D01*
X19379286Y-175868571D02*
X19879286Y-174368571D01*
X20379286Y-175868571D01*
X16629286Y-178197143D02*
X16843572Y-178268571D01*
X17200715Y-178268571D01*
X17343572Y-178197143D01*
X17415001Y-178125714D01*
X17486429Y-177982857D01*
X17486429Y-177840000D01*
X17415001Y-177697143D01*
X17343572Y-177625714D01*
X17200715Y-177554286D01*
X16915001Y-177482857D01*
X16772143Y-177411429D01*
X16700715Y-177340000D01*
X16629286Y-177197143D01*
X16629286Y-177054286D01*
X16700715Y-176911429D01*
X16772143Y-176840000D01*
X16915001Y-176768571D01*
X17272143Y-176768571D01*
X17486429Y-176840000D01*
X18986429Y-178125714D02*
X18915000Y-178197143D01*
X18700714Y-178268571D01*
X18557857Y-178268571D01*
X18343572Y-178197143D01*
X18200714Y-178054286D01*
X18129286Y-177911429D01*
X18057857Y-177625714D01*
X18057857Y-177411429D01*
X18129286Y-177125714D01*
X18200714Y-176982857D01*
X18343572Y-176840000D01*
X18557857Y-176768571D01*
X18700714Y-176768571D01*
X18915000Y-176840000D01*
X18986429Y-176911429D01*
X20343572Y-178268571D02*
X19629286Y-178268571D01*
X19629286Y-176768571D01*
X15918571Y-176168571D02*
X14418571Y-176168571D01*
X14561429Y-175525714D02*
X14490000Y-175454285D01*
X14418571Y-175311428D01*
X14418571Y-174954285D01*
X14490000Y-174811428D01*
X14561429Y-174739999D01*
X14704286Y-174668571D01*
X14847143Y-174668571D01*
X15061429Y-174739999D01*
X15918571Y-175597142D01*
X15918571Y-174668571D01*
X15775714Y-173168571D02*
X15847143Y-173240000D01*
X15918571Y-173454286D01*
X15918571Y-173597143D01*
X15847143Y-173811428D01*
X15704286Y-173954286D01*
X15561429Y-174025714D01*
X15275714Y-174097143D01*
X15061429Y-174097143D01*
X14775714Y-174025714D01*
X14632857Y-173954286D01*
X14490000Y-173811428D01*
X14418571Y-173597143D01*
X14418571Y-173454286D01*
X14490000Y-173240000D01*
X14561429Y-173168571D01*
X14561429Y-172597143D02*
X14490000Y-172525714D01*
X14418571Y-172382857D01*
X14418571Y-172025714D01*
X14490000Y-171882857D01*
X14561429Y-171811428D01*
X14704286Y-171740000D01*
X14847143Y-171740000D01*
X15061429Y-171811428D01*
X15918571Y-172668571D01*
X15918571Y-171740000D01*
D12*
X13970000Y-196850000D02*
X13970000Y-184150000D01*
X68580000Y-196850000D02*
X13970000Y-196850000D01*
X68580000Y-184150000D02*
X68580000Y-196850000D01*
X13970000Y-184150000D02*
X68580000Y-184150000D01*
D11*
X15918571Y-192678571D02*
X14418571Y-192678571D01*
X14561429Y-192035714D02*
X14490000Y-191964285D01*
X14418571Y-191821428D01*
X14418571Y-191464285D01*
X14490000Y-191321428D01*
X14561429Y-191249999D01*
X14704286Y-191178571D01*
X14847143Y-191178571D01*
X15061429Y-191249999D01*
X15918571Y-192107142D01*
X15918571Y-191178571D01*
X15775714Y-189678571D02*
X15847143Y-189750000D01*
X15918571Y-189964286D01*
X15918571Y-190107143D01*
X15847143Y-190321428D01*
X15704286Y-190464286D01*
X15561429Y-190535714D01*
X15275714Y-190607143D01*
X15061429Y-190607143D01*
X14775714Y-190535714D01*
X14632857Y-190464286D01*
X14490000Y-190321428D01*
X14418571Y-190107143D01*
X14418571Y-189964286D01*
X14490000Y-189750000D01*
X14561429Y-189678571D01*
X15918571Y-188250000D02*
X15918571Y-189107143D01*
X15918571Y-188678571D02*
X14418571Y-188678571D01*
X14632857Y-188821428D01*
X14775714Y-188964286D01*
X14847143Y-189107143D01*
X17272143Y-186150000D02*
X17129286Y-186078571D01*
X16915000Y-186078571D01*
X16700715Y-186150000D01*
X16557857Y-186292857D01*
X16486429Y-186435714D01*
X16415000Y-186721429D01*
X16415000Y-186935714D01*
X16486429Y-187221429D01*
X16557857Y-187364286D01*
X16700715Y-187507143D01*
X16915000Y-187578571D01*
X17057857Y-187578571D01*
X17272143Y-187507143D01*
X17343572Y-187435714D01*
X17343572Y-186935714D01*
X17057857Y-186935714D01*
X17986429Y-187578571D02*
X17986429Y-186078571D01*
X18843572Y-187578571D01*
X18843572Y-186078571D01*
X19557858Y-187578571D02*
X19557858Y-186078571D01*
X19915001Y-186078571D01*
X20129286Y-186150000D01*
X20272144Y-186292857D01*
X20343572Y-186435714D01*
X20415001Y-186721429D01*
X20415001Y-186935714D01*
X20343572Y-187221429D01*
X20272144Y-187364286D01*
X20129286Y-187507143D01*
X19915001Y-187578571D01*
X19557858Y-187578571D01*
X16415000Y-188478571D02*
X16915000Y-189978571D01*
X17415000Y-188478571D01*
X17915000Y-189978571D02*
X17915000Y-188478571D01*
X18272143Y-188478571D01*
X18486428Y-188550000D01*
X18629286Y-188692857D01*
X18700714Y-188835714D01*
X18772143Y-189121429D01*
X18772143Y-189335714D01*
X18700714Y-189621429D01*
X18629286Y-189764286D01*
X18486428Y-189907143D01*
X18272143Y-189978571D01*
X17915000Y-189978571D01*
X19415000Y-189978571D02*
X19415000Y-188478571D01*
X19772143Y-188478571D01*
X19986428Y-188550000D01*
X20129286Y-188692857D01*
X20200714Y-188835714D01*
X20272143Y-189121429D01*
X20272143Y-189335714D01*
X20200714Y-189621429D01*
X20129286Y-189764286D01*
X19986428Y-189907143D01*
X19772143Y-189978571D01*
X19415000Y-189978571D01*
X16593572Y-192307143D02*
X16807858Y-192378571D01*
X17165001Y-192378571D01*
X17307858Y-192307143D01*
X17379287Y-192235714D01*
X17450715Y-192092857D01*
X17450715Y-191950000D01*
X17379287Y-191807143D01*
X17307858Y-191735714D01*
X17165001Y-191664286D01*
X16879287Y-191592857D01*
X16736429Y-191521429D01*
X16665001Y-191450000D01*
X16593572Y-191307143D01*
X16593572Y-191164286D01*
X16665001Y-191021429D01*
X16736429Y-190950000D01*
X16879287Y-190878571D01*
X17236429Y-190878571D01*
X17450715Y-190950000D01*
X18093572Y-192378571D02*
X18093572Y-190878571D01*
X18450715Y-190878571D01*
X18665000Y-190950000D01*
X18807858Y-191092857D01*
X18879286Y-191235714D01*
X18950715Y-191521429D01*
X18950715Y-191735714D01*
X18879286Y-192021429D01*
X18807858Y-192164286D01*
X18665000Y-192307143D01*
X18450715Y-192378571D01*
X18093572Y-192378571D01*
X19522143Y-191950000D02*
X20236429Y-191950000D01*
X19379286Y-192378571D02*
X19879286Y-190878571D01*
X20379286Y-192378571D01*
X16629286Y-194707143D02*
X16843572Y-194778571D01*
X17200715Y-194778571D01*
X17343572Y-194707143D01*
X17415001Y-194635714D01*
X17486429Y-194492857D01*
X17486429Y-194350000D01*
X17415001Y-194207143D01*
X17343572Y-194135714D01*
X17200715Y-194064286D01*
X16915001Y-193992857D01*
X16772143Y-193921429D01*
X16700715Y-193850000D01*
X16629286Y-193707143D01*
X16629286Y-193564286D01*
X16700715Y-193421429D01*
X16772143Y-193350000D01*
X16915001Y-193278571D01*
X17272143Y-193278571D01*
X17486429Y-193350000D01*
X18986429Y-194635714D02*
X18915000Y-194707143D01*
X18700714Y-194778571D01*
X18557857Y-194778571D01*
X18343572Y-194707143D01*
X18200714Y-194564286D01*
X18129286Y-194421429D01*
X18057857Y-194135714D01*
X18057857Y-193921429D01*
X18129286Y-193635714D01*
X18200714Y-193492857D01*
X18343572Y-193350000D01*
X18557857Y-193278571D01*
X18700714Y-193278571D01*
X18915000Y-193350000D01*
X18986429Y-193421429D01*
X20343572Y-194778571D02*
X19629286Y-194778571D01*
X19629286Y-193278571D01*
D13*
X31709000Y-119725000D02*
X26711000Y-119725000D01*
X31701000Y-119865000D02*
X29364000Y-119865000D01*
X29056000Y-119865000D02*
X26719000Y-119865000D01*
X31685000Y-120005000D02*
X29683000Y-120005000D01*
X28737000Y-120005000D02*
X26735000Y-120005000D01*
X31661000Y-120145000D02*
X29830000Y-120145000D01*
X28590000Y-120145000D02*
X26759000Y-120145000D01*
X31628000Y-120285000D02*
X29922000Y-120285000D01*
X28498000Y-120285000D02*
X26792000Y-120285000D01*
X31587000Y-120425000D02*
X29978000Y-120425000D01*
X28442000Y-120425000D02*
X26833000Y-120425000D01*
X31537000Y-120565000D02*
X30005000Y-120565000D01*
X28415000Y-120565000D02*
X26883000Y-120565000D01*
X31476000Y-120705000D02*
X30008000Y-120705000D01*
X28412000Y-120705000D02*
X26944000Y-120705000D01*
X31406000Y-120845000D02*
X29986000Y-120845000D01*
X28434000Y-120845000D02*
X27014000Y-120845000D01*
X31324000Y-120985000D02*
X29936000Y-120985000D01*
X28484000Y-120985000D02*
X27096000Y-120985000D01*
X31229000Y-121125000D02*
X29854000Y-121125000D01*
X28566000Y-121125000D02*
X27191000Y-121125000D01*
X31118000Y-121265000D02*
X29722000Y-121265000D01*
X28698000Y-121265000D02*
X27302000Y-121265000D01*
X30990000Y-121405000D02*
X29475000Y-121405000D01*
X28945000Y-121405000D02*
X27430000Y-121405000D01*
X30841000Y-121545000D02*
X27579000Y-121545000D01*
X30662000Y-121685000D02*
X27758000Y-121685000D01*
X30443000Y-121825000D02*
X27977000Y-121825000D01*
X30154000Y-121965000D02*
X28266000Y-121965000D01*
X29682000Y-122105000D02*
X28738000Y-122105000D01*
X30010000Y-120650000D02*
G75*
G03X30010000Y-120650000I-800000J0D01*
G01*
X31747500Y-119650000D02*
G75*
G03X31747500Y-119650000I-2537500J0D01*
G01*
X38445000Y-117055000D02*
X38445000Y-123055000D01*
X33945000Y-123055000D02*
X33945000Y-117055000D01*
X51780000Y-158250000D02*
X51780000Y-164250000D01*
X47280000Y-164250000D02*
X47280000Y-158250000D01*
X95423000Y-92248000D02*
X95423000Y-90248000D01*
X95423000Y-94948000D02*
X95423000Y-97248000D01*
X94423000Y-91848000D02*
G75*
G03X96423000Y-91848000I1000000J-1400000D01*
G01*
X96323000Y-93248000D02*
G75*
G03X96323000Y-93248000I-900000J0D01*
G01*
X106923880Y-93947500D02*
X97922120Y-93947500D01*
X106923880Y-90447380D02*
X97922120Y-90447380D01*
X97922120Y-90447380D02*
X97922120Y-104948240D01*
X97922120Y-104948240D02*
X106923880Y-104948240D01*
X106923880Y-104948240D02*
X106923880Y-90447380D01*
X77008000Y-92248000D02*
X77008000Y-90248000D01*
X77008000Y-94948000D02*
X77008000Y-97248000D01*
X76008000Y-91848000D02*
G75*
G03X78008000Y-91848000I1000000J-1400000D01*
G01*
X77908000Y-93248000D02*
G75*
G03X77908000Y-93248000I-900000J0D01*
G01*
X88508880Y-93947500D02*
X79507120Y-93947500D01*
X88508880Y-90447380D02*
X79507120Y-90447380D01*
X79507120Y-90447380D02*
X79507120Y-104948240D01*
X79507120Y-104948240D02*
X88508880Y-104948240D01*
X88508880Y-104948240D02*
X88508880Y-90447380D01*
X21590000Y-187960000D02*
X21590000Y-195580000D01*
X24130000Y-187960000D02*
X24130000Y-195580000D01*
X24410000Y-185140000D02*
X24410000Y-186690000D01*
X21590000Y-195580000D02*
X24130000Y-195580000D01*
X24130000Y-187960000D02*
X21590000Y-187960000D01*
X21310000Y-186690000D02*
X21310000Y-185140000D01*
X21310000Y-185140000D02*
X24410000Y-185140000D01*
X21590000Y-171450000D02*
X21590000Y-179070000D01*
X24130000Y-171450000D02*
X24130000Y-179070000D01*
X24410000Y-168630000D02*
X24410000Y-170180000D01*
X21590000Y-179070000D02*
X24130000Y-179070000D01*
X24130000Y-171450000D02*
X21590000Y-171450000D01*
X21310000Y-170180000D02*
X21310000Y-168630000D01*
X21310000Y-168630000D02*
X24410000Y-168630000D01*
X26670000Y-187960000D02*
X26670000Y-195580000D01*
X29210000Y-187960000D02*
X29210000Y-195580000D01*
X29490000Y-185140000D02*
X29490000Y-186690000D01*
X26670000Y-195580000D02*
X29210000Y-195580000D01*
X29210000Y-187960000D02*
X26670000Y-187960000D01*
X26390000Y-186690000D02*
X26390000Y-185140000D01*
X26390000Y-185140000D02*
X29490000Y-185140000D01*
X26670000Y-171450000D02*
X26670000Y-179070000D01*
X29210000Y-171450000D02*
X29210000Y-179070000D01*
X29490000Y-168630000D02*
X29490000Y-170180000D01*
X26670000Y-179070000D02*
X29210000Y-179070000D01*
X29210000Y-171450000D02*
X26670000Y-171450000D01*
X26390000Y-170180000D02*
X26390000Y-168630000D01*
X26390000Y-168630000D02*
X29490000Y-168630000D01*
X31750000Y-187960000D02*
X31750000Y-195580000D01*
X34290000Y-187960000D02*
X34290000Y-195580000D01*
X34570000Y-185140000D02*
X34570000Y-186690000D01*
X31750000Y-195580000D02*
X34290000Y-195580000D01*
X34290000Y-187960000D02*
X31750000Y-187960000D01*
X31470000Y-186690000D02*
X31470000Y-185140000D01*
X31470000Y-185140000D02*
X34570000Y-185140000D01*
X31750000Y-171450000D02*
X31750000Y-179070000D01*
X34290000Y-171450000D02*
X34290000Y-179070000D01*
X34570000Y-168630000D02*
X34570000Y-170180000D01*
X31750000Y-179070000D02*
X34290000Y-179070000D01*
X34290000Y-171450000D02*
X31750000Y-171450000D01*
X31470000Y-170180000D02*
X31470000Y-168630000D01*
X31470000Y-168630000D02*
X34570000Y-168630000D01*
X36830000Y-187960000D02*
X36830000Y-195580000D01*
X39370000Y-187960000D02*
X39370000Y-195580000D01*
X39650000Y-185140000D02*
X39650000Y-186690000D01*
X36830000Y-195580000D02*
X39370000Y-195580000D01*
X39370000Y-187960000D02*
X36830000Y-187960000D01*
X36550000Y-186690000D02*
X36550000Y-185140000D01*
X36550000Y-185140000D02*
X39650000Y-185140000D01*
X36830000Y-171450000D02*
X36830000Y-179070000D01*
X39370000Y-171450000D02*
X39370000Y-179070000D01*
X39650000Y-168630000D02*
X39650000Y-170180000D01*
X36830000Y-179070000D02*
X39370000Y-179070000D01*
X39370000Y-171450000D02*
X36830000Y-171450000D01*
X36550000Y-170180000D02*
X36550000Y-168630000D01*
X36550000Y-168630000D02*
X39650000Y-168630000D01*
X41910000Y-187960000D02*
X41910000Y-195580000D01*
X44450000Y-187960000D02*
X44450000Y-195580000D01*
X44730000Y-185140000D02*
X44730000Y-186690000D01*
X41910000Y-195580000D02*
X44450000Y-195580000D01*
X44450000Y-187960000D02*
X41910000Y-187960000D01*
X41630000Y-186690000D02*
X41630000Y-185140000D01*
X41630000Y-185140000D02*
X44730000Y-185140000D01*
X41910000Y-171450000D02*
X41910000Y-179070000D01*
X44450000Y-171450000D02*
X44450000Y-179070000D01*
X44730000Y-168630000D02*
X44730000Y-170180000D01*
X41910000Y-179070000D02*
X44450000Y-179070000D01*
X44450000Y-171450000D02*
X41910000Y-171450000D01*
X41630000Y-170180000D02*
X41630000Y-168630000D01*
X41630000Y-168630000D02*
X44730000Y-168630000D01*
X46990000Y-187960000D02*
X46990000Y-195580000D01*
X49530000Y-187960000D02*
X49530000Y-195580000D01*
X49810000Y-185140000D02*
X49810000Y-186690000D01*
X46990000Y-195580000D02*
X49530000Y-195580000D01*
X49530000Y-187960000D02*
X46990000Y-187960000D01*
X46710000Y-186690000D02*
X46710000Y-185140000D01*
X46710000Y-185140000D02*
X49810000Y-185140000D01*
X46990000Y-171450000D02*
X46990000Y-179070000D01*
X49530000Y-171450000D02*
X49530000Y-179070000D01*
X49810000Y-168630000D02*
X49810000Y-170180000D01*
X46990000Y-179070000D02*
X49530000Y-179070000D01*
X49530000Y-171450000D02*
X46990000Y-171450000D01*
X46710000Y-170180000D02*
X46710000Y-168630000D01*
X46710000Y-168630000D02*
X49810000Y-168630000D01*
X52070000Y-187960000D02*
X52070000Y-195580000D01*
X54610000Y-187960000D02*
X54610000Y-195580000D01*
X54890000Y-185140000D02*
X54890000Y-186690000D01*
X52070000Y-195580000D02*
X54610000Y-195580000D01*
X54610000Y-187960000D02*
X52070000Y-187960000D01*
X51790000Y-186690000D02*
X51790000Y-185140000D01*
X51790000Y-185140000D02*
X54890000Y-185140000D01*
X52070000Y-171450000D02*
X52070000Y-179070000D01*
X54610000Y-171450000D02*
X54610000Y-179070000D01*
X54890000Y-168630000D02*
X54890000Y-170180000D01*
X52070000Y-179070000D02*
X54610000Y-179070000D01*
X54610000Y-171450000D02*
X52070000Y-171450000D01*
X51790000Y-170180000D02*
X51790000Y-168630000D01*
X51790000Y-168630000D02*
X54890000Y-168630000D01*
X57150000Y-187960000D02*
X57150000Y-195580000D01*
X59690000Y-187960000D02*
X59690000Y-195580000D01*
X59970000Y-185140000D02*
X59970000Y-186690000D01*
X57150000Y-195580000D02*
X59690000Y-195580000D01*
X59690000Y-187960000D02*
X57150000Y-187960000D01*
X56870000Y-186690000D02*
X56870000Y-185140000D01*
X56870000Y-185140000D02*
X59970000Y-185140000D01*
X57150000Y-171450000D02*
X57150000Y-179070000D01*
X59690000Y-171450000D02*
X59690000Y-179070000D01*
X59970000Y-168630000D02*
X59970000Y-170180000D01*
X57150000Y-179070000D02*
X59690000Y-179070000D01*
X59690000Y-171450000D02*
X57150000Y-171450000D01*
X56870000Y-170180000D02*
X56870000Y-168630000D01*
X56870000Y-168630000D02*
X59970000Y-168630000D01*
X62230000Y-187960000D02*
X62230000Y-195580000D01*
X64770000Y-187960000D02*
X64770000Y-195580000D01*
X65050000Y-185140000D02*
X65050000Y-186690000D01*
X62230000Y-195580000D02*
X64770000Y-195580000D01*
X64770000Y-187960000D02*
X62230000Y-187960000D01*
X61950000Y-186690000D02*
X61950000Y-185140000D01*
X61950000Y-185140000D02*
X65050000Y-185140000D01*
X62230000Y-171450000D02*
X62230000Y-179070000D01*
X64770000Y-171450000D02*
X64770000Y-179070000D01*
X65050000Y-168630000D02*
X65050000Y-170180000D01*
X62230000Y-179070000D02*
X64770000Y-179070000D01*
X64770000Y-171450000D02*
X62230000Y-171450000D01*
X61950000Y-170180000D02*
X61950000Y-168630000D01*
X61950000Y-168630000D02*
X65050000Y-168630000D01*
X52070000Y-112040000D02*
X50520000Y-112040000D01*
X50520000Y-112040000D02*
X50520000Y-108940000D01*
X50520000Y-108940000D02*
X52070000Y-108940000D01*
X53340000Y-109220000D02*
X63500000Y-109220000D01*
X63500000Y-109220000D02*
X63500000Y-111760000D01*
X63500000Y-111760000D02*
X53340000Y-111760000D01*
X53340000Y-109220000D02*
X53340000Y-111760000D01*
X94615000Y-191135000D02*
X107315000Y-191135000D01*
X107315000Y-191135000D02*
X107315000Y-196215000D01*
X107315000Y-196215000D02*
X97155000Y-196215000D01*
X94615000Y-191135000D02*
X94615000Y-193675000D01*
X94335000Y-194945000D02*
X94335000Y-196495000D01*
X94615000Y-193675000D02*
X97155000Y-193675000D01*
X97155000Y-193675000D02*
X97155000Y-196215000D01*
X94335000Y-196495000D02*
X95885000Y-196495000D01*
X77470000Y-180340000D02*
X90170000Y-180340000D01*
X90170000Y-180340000D02*
X90170000Y-185420000D01*
X90170000Y-185420000D02*
X80010000Y-185420000D01*
X77470000Y-180340000D02*
X77470000Y-182880000D01*
X77190000Y-184150000D02*
X77190000Y-185700000D01*
X77470000Y-182880000D02*
X80010000Y-182880000D01*
X80010000Y-182880000D02*
X80010000Y-185420000D01*
X77190000Y-185700000D02*
X78740000Y-185700000D01*
X94615000Y-169968000D02*
X107315000Y-169968000D01*
X107315000Y-169968000D02*
X107315000Y-175048000D01*
X107315000Y-175048000D02*
X97155000Y-175048000D01*
X94615000Y-169968000D02*
X94615000Y-172508000D01*
X94335000Y-173778000D02*
X94335000Y-175328000D01*
X94615000Y-172508000D02*
X97155000Y-172508000D01*
X97155000Y-172508000D02*
X97155000Y-175048000D01*
X94335000Y-175328000D02*
X95885000Y-175328000D01*
X77470000Y-159173000D02*
X90170000Y-159173000D01*
X90170000Y-159173000D02*
X90170000Y-164253000D01*
X90170000Y-164253000D02*
X80010000Y-164253000D01*
X77470000Y-159173000D02*
X77470000Y-161713000D01*
X77190000Y-162983000D02*
X77190000Y-164533000D01*
X77470000Y-161713000D02*
X80010000Y-161713000D01*
X80010000Y-161713000D02*
X80010000Y-164253000D01*
X77190000Y-164533000D02*
X78740000Y-164533000D01*
X77470000Y-138007000D02*
X90170000Y-138007000D01*
X90170000Y-138007000D02*
X90170000Y-143087000D01*
X90170000Y-143087000D02*
X80010000Y-143087000D01*
X77470000Y-138007000D02*
X77470000Y-140547000D01*
X77190000Y-141817000D02*
X77190000Y-143367000D01*
X77470000Y-140547000D02*
X80010000Y-140547000D01*
X80010000Y-140547000D02*
X80010000Y-143087000D01*
X77190000Y-143367000D02*
X78740000Y-143367000D01*
X77482400Y-116840000D02*
X90182400Y-116840000D01*
X90182400Y-116840000D02*
X90182400Y-121920000D01*
X90182400Y-121920000D02*
X80022400Y-121920000D01*
X77482400Y-116840000D02*
X77482400Y-119380000D01*
X77202400Y-120650000D02*
X77202400Y-122200000D01*
X77482400Y-119380000D02*
X80022400Y-119380000D01*
X80022400Y-119380000D02*
X80022400Y-121920000D01*
X77202400Y-122200000D02*
X78752400Y-122200000D01*
X94615000Y-148802000D02*
X107315000Y-148802000D01*
X107315000Y-148802000D02*
X107315000Y-153882000D01*
X107315000Y-153882000D02*
X97155000Y-153882000D01*
X94615000Y-148802000D02*
X94615000Y-151342000D01*
X94335000Y-152612000D02*
X94335000Y-154162000D01*
X94615000Y-151342000D02*
X97155000Y-151342000D01*
X97155000Y-151342000D02*
X97155000Y-153882000D01*
X94335000Y-154162000D02*
X95885000Y-154162000D01*
X94615000Y-127635000D02*
X107315000Y-127635000D01*
X107315000Y-127635000D02*
X107315000Y-132715000D01*
X107315000Y-132715000D02*
X97155000Y-132715000D01*
X94615000Y-127635000D02*
X94615000Y-130175000D01*
X94335000Y-131445000D02*
X94335000Y-132995000D01*
X94615000Y-130175000D02*
X97155000Y-130175000D01*
X97155000Y-130175000D02*
X97155000Y-132715000D01*
X94335000Y-132995000D02*
X95885000Y-132995000D01*
X78740000Y-109220000D02*
X83820000Y-109220000D01*
X83820000Y-109220000D02*
X83820000Y-106680000D01*
X83820000Y-106680000D02*
X78740000Y-106680000D01*
X75920000Y-106400000D02*
X77470000Y-106400000D01*
X78740000Y-106680000D02*
X78740000Y-109220000D01*
X77470000Y-109500000D02*
X75920000Y-109500000D01*
X75920000Y-109500000D02*
X75920000Y-106400000D01*
X67310000Y-93980000D02*
X67310000Y-99060000D01*
X67310000Y-99060000D02*
X69850000Y-99060000D01*
X69850000Y-99060000D02*
X69850000Y-93980000D01*
X70130000Y-91160000D02*
X70130000Y-92710000D01*
X69850000Y-93980000D02*
X67310000Y-93980000D01*
X67030000Y-92710000D02*
X67030000Y-91160000D01*
X67030000Y-91160000D02*
X70130000Y-91160000D01*
X50800000Y-93980000D02*
X50800000Y-101600000D01*
X53340000Y-93980000D02*
X53340000Y-101600000D01*
X53620000Y-91160000D02*
X53620000Y-92710000D01*
X50800000Y-101600000D02*
X53340000Y-101600000D01*
X53340000Y-93980000D02*
X50800000Y-93980000D01*
X50520000Y-92710000D02*
X50520000Y-91160000D01*
X50520000Y-91160000D02*
X53620000Y-91160000D01*
X34085000Y-125300000D02*
X30685000Y-125300000D01*
X34082056Y-125302944D02*
G75*
G02X32385000Y-129400000I-1697056J-1697056D01*
G01*
X30687944Y-125302944D02*
G75*
G03X32385000Y-129400000I1697056J-1697056D01*
G01*
X34085000Y-138000000D02*
X30685000Y-138000000D01*
X34082056Y-138002944D02*
G75*
G02X32385000Y-142100000I-1697056J-1697056D01*
G01*
X30687944Y-138002944D02*
G75*
G03X32385000Y-142100000I1697056J-1697056D01*
G01*
X33450000Y-150700000D02*
X30050000Y-150700000D01*
X33447056Y-150702944D02*
G75*
G02X31750000Y-154800000I-1697056J-1697056D01*
G01*
X30052944Y-150702944D02*
G75*
G03X31750000Y-154800000I1697056J-1697056D01*
G01*
X26670000Y-134620000D02*
X26670000Y-129540000D01*
X26670000Y-129540000D02*
X29210000Y-129540000D01*
X29210000Y-129540000D02*
X29210000Y-134620000D01*
X29210000Y-134620000D02*
X26670000Y-134620000D01*
X27940000Y-134620000D02*
X27940000Y-135890000D01*
X27940000Y-129540000D02*
X27940000Y-128270000D01*
X35560000Y-134620000D02*
X35560000Y-129540000D01*
X35560000Y-129540000D02*
X38100000Y-129540000D01*
X38100000Y-129540000D02*
X38100000Y-134620000D01*
X38100000Y-134620000D02*
X35560000Y-134620000D01*
X36830000Y-134620000D02*
X36830000Y-135890000D01*
X36830000Y-129540000D02*
X36830000Y-128270000D01*
X26670000Y-147320000D02*
X26670000Y-142240000D01*
X26670000Y-142240000D02*
X29210000Y-142240000D01*
X29210000Y-142240000D02*
X29210000Y-147320000D01*
X29210000Y-147320000D02*
X26670000Y-147320000D01*
X27940000Y-147320000D02*
X27940000Y-148590000D01*
X27940000Y-142240000D02*
X27940000Y-140970000D01*
X35560000Y-147320000D02*
X35560000Y-142240000D01*
X35560000Y-142240000D02*
X38100000Y-142240000D01*
X38100000Y-142240000D02*
X38100000Y-147320000D01*
X38100000Y-147320000D02*
X35560000Y-147320000D01*
X36830000Y-147320000D02*
X36830000Y-148590000D01*
X36830000Y-142240000D02*
X36830000Y-140970000D01*
X26670000Y-160020000D02*
X26670000Y-154940000D01*
X26670000Y-154940000D02*
X29210000Y-154940000D01*
X29210000Y-154940000D02*
X29210000Y-160020000D01*
X29210000Y-160020000D02*
X26670000Y-160020000D01*
X27940000Y-160020000D02*
X27940000Y-161290000D01*
X27940000Y-154940000D02*
X27940000Y-153670000D01*
X35560000Y-160020000D02*
X35560000Y-154940000D01*
X35560000Y-154940000D02*
X38100000Y-154940000D01*
X38100000Y-154940000D02*
X38100000Y-160020000D01*
X38100000Y-160020000D02*
X35560000Y-160020000D01*
X36830000Y-160020000D02*
X36830000Y-161290000D01*
X36830000Y-154940000D02*
X36830000Y-153670000D01*
X43180000Y-135890000D02*
X48260000Y-135890000D01*
X48260000Y-135890000D02*
X48260000Y-138430000D01*
X48260000Y-138430000D02*
X43180000Y-138430000D01*
X43180000Y-138430000D02*
X43180000Y-135890000D01*
X43180000Y-137160000D02*
X41910000Y-137160000D01*
X48260000Y-137160000D02*
X49530000Y-137160000D01*
X31750000Y-111760000D02*
X36830000Y-111760000D01*
X36830000Y-111760000D02*
X36830000Y-114300000D01*
X36830000Y-114300000D02*
X31750000Y-114300000D01*
X31750000Y-114300000D02*
X31750000Y-111760000D01*
X31750000Y-113030000D02*
X30480000Y-113030000D01*
X36830000Y-113030000D02*
X38100000Y-113030000D01*
X22860000Y-96520000D02*
X17780000Y-96520000D01*
X17780000Y-96520000D02*
X17780000Y-93980000D01*
X17780000Y-93980000D02*
X22860000Y-93980000D01*
X22860000Y-93980000D02*
X22860000Y-96520000D01*
X22860000Y-95250000D02*
X24130000Y-95250000D01*
X17780000Y-95250000D02*
X16510000Y-95250000D01*
X35560000Y-96520000D02*
X30480000Y-96520000D01*
X30480000Y-96520000D02*
X30480000Y-93980000D01*
X30480000Y-93980000D02*
X35560000Y-93980000D01*
X35560000Y-93980000D02*
X35560000Y-96520000D01*
X35560000Y-95250000D02*
X36830000Y-95250000D01*
X30480000Y-95250000D02*
X29210000Y-95250000D01*
X22860000Y-92710000D02*
X17780000Y-92710000D01*
X17780000Y-92710000D02*
X17780000Y-90170000D01*
X17780000Y-90170000D02*
X22860000Y-90170000D01*
X22860000Y-90170000D02*
X22860000Y-92710000D01*
X22860000Y-91440000D02*
X24130000Y-91440000D01*
X17780000Y-91440000D02*
X16510000Y-91440000D01*
X35560000Y-92710000D02*
X30480000Y-92710000D01*
X30480000Y-92710000D02*
X30480000Y-90170000D01*
X30480000Y-90170000D02*
X35560000Y-90170000D01*
X35560000Y-90170000D02*
X35560000Y-92710000D01*
X35560000Y-91440000D02*
X36830000Y-91440000D01*
X30480000Y-91440000D02*
X29210000Y-91440000D01*
X22860000Y-153670000D02*
X22860000Y-102870000D01*
X17780000Y-105410000D02*
X17780000Y-153670000D01*
X22860000Y-153670000D02*
X17780000Y-153670000D01*
X22860000Y-102870000D02*
X20320000Y-102870000D01*
X19050000Y-102590000D02*
X17500000Y-102590000D01*
X20320000Y-102870000D02*
X20320000Y-105410000D01*
X20320000Y-105410000D02*
X17780000Y-105410000D01*
X17500000Y-102590000D02*
X17500000Y-104140000D01*
D14*
X43815000Y-154940000D02*
X73025000Y-154940000D01*
X73025000Y-154940000D02*
X73025000Y-146050000D01*
X73025000Y-146050000D02*
X43815000Y-146050000D01*
X43815000Y-146050000D02*
X43815000Y-154940000D01*
X43815000Y-128905000D02*
X73025000Y-128905000D01*
X73025000Y-128905000D02*
X73025000Y-120015000D01*
X73025000Y-120015000D02*
X43815000Y-120015000D01*
X43815000Y-120015000D02*
X43815000Y-128905000D01*
D13*
X45679000Y-161635000D02*
X40681000Y-161635000D01*
X45671000Y-161775000D02*
X43334000Y-161775000D01*
X43026000Y-161775000D02*
X40689000Y-161775000D01*
X45655000Y-161915000D02*
X43653000Y-161915000D01*
X42707000Y-161915000D02*
X40705000Y-161915000D01*
X45631000Y-162055000D02*
X43800000Y-162055000D01*
X42560000Y-162055000D02*
X40729000Y-162055000D01*
X45598000Y-162195000D02*
X43892000Y-162195000D01*
X42468000Y-162195000D02*
X40762000Y-162195000D01*
X45557000Y-162335000D02*
X43948000Y-162335000D01*
X42412000Y-162335000D02*
X40803000Y-162335000D01*
X45507000Y-162475000D02*
X43975000Y-162475000D01*
X42385000Y-162475000D02*
X40853000Y-162475000D01*
X45446000Y-162615000D02*
X43978000Y-162615000D01*
X42382000Y-162615000D02*
X40914000Y-162615000D01*
X45376000Y-162755000D02*
X43956000Y-162755000D01*
X42404000Y-162755000D02*
X40984000Y-162755000D01*
X45294000Y-162895000D02*
X43906000Y-162895000D01*
X42454000Y-162895000D02*
X41066000Y-162895000D01*
X45199000Y-163035000D02*
X43824000Y-163035000D01*
X42536000Y-163035000D02*
X41161000Y-163035000D01*
X45088000Y-163175000D02*
X43692000Y-163175000D01*
X42668000Y-163175000D02*
X41272000Y-163175000D01*
X44960000Y-163315000D02*
X43445000Y-163315000D01*
X42915000Y-163315000D02*
X41400000Y-163315000D01*
X44811000Y-163455000D02*
X41549000Y-163455000D01*
X44632000Y-163595000D02*
X41728000Y-163595000D01*
X44413000Y-163735000D02*
X41947000Y-163735000D01*
X44124000Y-163875000D02*
X42236000Y-163875000D01*
X43652000Y-164015000D02*
X42708000Y-164015000D01*
X43980000Y-162560000D02*
G75*
G03X43980000Y-162560000I-800000J0D01*
G01*
X45717500Y-161560000D02*
G75*
G03X45717500Y-161560000I-2537500J0D01*
G01*
D15*
X33188571Y-119733333D02*
X33212381Y-119757143D01*
X33236190Y-119828571D01*
X33236190Y-119876190D01*
X33212381Y-119947619D01*
X33164762Y-119995238D01*
X33117143Y-120019047D01*
X33021905Y-120042857D01*
X32950476Y-120042857D01*
X32855238Y-120019047D01*
X32807619Y-119995238D01*
X32760000Y-119947619D01*
X32736190Y-119876190D01*
X32736190Y-119828571D01*
X32760000Y-119757143D01*
X32783810Y-119733333D01*
X32783810Y-119542857D02*
X32760000Y-119519047D01*
X32736190Y-119471428D01*
X32736190Y-119352381D01*
X32760000Y-119304762D01*
X32783810Y-119280952D01*
X32831429Y-119257143D01*
X32879048Y-119257143D01*
X32950476Y-119280952D01*
X33236190Y-119566666D01*
X33236190Y-119257143D01*
X36373571Y-120138333D02*
X36397381Y-120162143D01*
X36421190Y-120233571D01*
X36421190Y-120281190D01*
X36397381Y-120352619D01*
X36349762Y-120400238D01*
X36302143Y-120424047D01*
X36206905Y-120447857D01*
X36135476Y-120447857D01*
X36040238Y-120424047D01*
X35992619Y-120400238D01*
X35945000Y-120352619D01*
X35921190Y-120281190D01*
X35921190Y-120233571D01*
X35945000Y-120162143D01*
X35968810Y-120138333D01*
X36421190Y-119662143D02*
X36421190Y-119947857D01*
X36421190Y-119805000D02*
X35921190Y-119805000D01*
X35992619Y-119852619D01*
X36040238Y-119900238D01*
X36064048Y-119947857D01*
X53208571Y-161333333D02*
X53232381Y-161357143D01*
X53256190Y-161428571D01*
X53256190Y-161476190D01*
X53232381Y-161547619D01*
X53184762Y-161595238D01*
X53137143Y-161619047D01*
X53041905Y-161642857D01*
X52970476Y-161642857D01*
X52875238Y-161619047D01*
X52827619Y-161595238D01*
X52780000Y-161547619D01*
X52756190Y-161476190D01*
X52756190Y-161428571D01*
X52780000Y-161357143D01*
X52803810Y-161333333D01*
X52756190Y-161166666D02*
X52756190Y-160857143D01*
X52946667Y-161023809D01*
X52946667Y-160952381D01*
X52970476Y-160904762D01*
X52994286Y-160880952D01*
X53041905Y-160857143D01*
X53160952Y-160857143D01*
X53208571Y-160880952D01*
X53232381Y-160904762D01*
X53256190Y-160952381D01*
X53256190Y-161095238D01*
X53232381Y-161142857D01*
X53208571Y-161166666D01*
X101815857Y-108225611D02*
X101792047Y-108249421D01*
X101720619Y-108273230D01*
X101673000Y-108273230D01*
X101601571Y-108249421D01*
X101553952Y-108201802D01*
X101530143Y-108154183D01*
X101506333Y-108058945D01*
X101506333Y-107987516D01*
X101530143Y-107892278D01*
X101553952Y-107844659D01*
X101601571Y-107797040D01*
X101673000Y-107773230D01*
X101720619Y-107773230D01*
X101792047Y-107797040D01*
X101815857Y-107820850D01*
X102125381Y-107773230D02*
X102220619Y-107773230D01*
X102268238Y-107797040D01*
X102315857Y-107844659D01*
X102339666Y-107939897D01*
X102339666Y-108106564D01*
X102315857Y-108201802D01*
X102268238Y-108249421D01*
X102220619Y-108273230D01*
X102125381Y-108273230D01*
X102077762Y-108249421D01*
X102030143Y-108201802D01*
X102006333Y-108106564D01*
X102006333Y-107939897D01*
X102030143Y-107844659D01*
X102077762Y-107797040D01*
X102125381Y-107773230D01*
X102553953Y-108273230D02*
X102553953Y-107773230D01*
X102839667Y-108273230D01*
X102839667Y-107773230D01*
X103339667Y-108273230D02*
X103053953Y-108273230D01*
X103196810Y-108273230D02*
X103196810Y-107773230D01*
X103149191Y-107844659D01*
X103101572Y-107892278D01*
X103053953Y-107916088D01*
D13*
X96494429Y-97128952D02*
X96494429Y-96367047D01*
X96494429Y-91128952D02*
X96494429Y-90367047D01*
X96875381Y-90747999D02*
X96113476Y-90747999D01*
D15*
X83400857Y-102137231D02*
X83377047Y-102161041D01*
X83305619Y-102184850D01*
X83258000Y-102184850D01*
X83186571Y-102161041D01*
X83138952Y-102113422D01*
X83115143Y-102065803D01*
X83091333Y-101970565D01*
X83091333Y-101899136D01*
X83115143Y-101803898D01*
X83138952Y-101756279D01*
X83186571Y-101708660D01*
X83258000Y-101684850D01*
X83305619Y-101684850D01*
X83377047Y-101708660D01*
X83400857Y-101732470D01*
X83710381Y-101684850D02*
X83805619Y-101684850D01*
X83853238Y-101708660D01*
X83900857Y-101756279D01*
X83924666Y-101851517D01*
X83924666Y-102018184D01*
X83900857Y-102113422D01*
X83853238Y-102161041D01*
X83805619Y-102184850D01*
X83710381Y-102184850D01*
X83662762Y-102161041D01*
X83615143Y-102113422D01*
X83591333Y-102018184D01*
X83591333Y-101851517D01*
X83615143Y-101756279D01*
X83662762Y-101708660D01*
X83710381Y-101684850D01*
X84138953Y-102184850D02*
X84138953Y-101684850D01*
X84424667Y-102184850D01*
X84424667Y-101684850D01*
X84638953Y-101732470D02*
X84662763Y-101708660D01*
X84710382Y-101684850D01*
X84829429Y-101684850D01*
X84877048Y-101708660D01*
X84900858Y-101732470D01*
X84924667Y-101780089D01*
X84924667Y-101827708D01*
X84900858Y-101899136D01*
X84615144Y-102184850D01*
X84924667Y-102184850D01*
D13*
X78079429Y-97128952D02*
X78079429Y-96367047D01*
X78079429Y-91128952D02*
X78079429Y-90367047D01*
X78460381Y-90747999D02*
X77698476Y-90747999D01*
D15*
X22490953Y-185011190D02*
X22490953Y-184511190D01*
X22681429Y-184511190D01*
X22729048Y-184535000D01*
X22752857Y-184558810D01*
X22776667Y-184606429D01*
X22776667Y-184677857D01*
X22752857Y-184725476D01*
X22729048Y-184749286D01*
X22681429Y-184773095D01*
X22490953Y-184773095D01*
X23252857Y-185011190D02*
X22967143Y-185011190D01*
X23110000Y-185011190D02*
X23110000Y-184511190D01*
X23062381Y-184582619D01*
X23014762Y-184630238D01*
X22967143Y-184654048D01*
X22490953Y-168501190D02*
X22490953Y-168001190D01*
X22681429Y-168001190D01*
X22729048Y-168025000D01*
X22752857Y-168048810D01*
X22776667Y-168096429D01*
X22776667Y-168167857D01*
X22752857Y-168215476D01*
X22729048Y-168239286D01*
X22681429Y-168263095D01*
X22490953Y-168263095D01*
X22967143Y-168048810D02*
X22990953Y-168025000D01*
X23038572Y-168001190D01*
X23157619Y-168001190D01*
X23205238Y-168025000D01*
X23229048Y-168048810D01*
X23252857Y-168096429D01*
X23252857Y-168144048D01*
X23229048Y-168215476D01*
X22943334Y-168501190D01*
X23252857Y-168501190D01*
X27570953Y-185011190D02*
X27570953Y-184511190D01*
X27761429Y-184511190D01*
X27809048Y-184535000D01*
X27832857Y-184558810D01*
X27856667Y-184606429D01*
X27856667Y-184677857D01*
X27832857Y-184725476D01*
X27809048Y-184749286D01*
X27761429Y-184773095D01*
X27570953Y-184773095D01*
X28023334Y-184511190D02*
X28332857Y-184511190D01*
X28166191Y-184701667D01*
X28237619Y-184701667D01*
X28285238Y-184725476D01*
X28309048Y-184749286D01*
X28332857Y-184796905D01*
X28332857Y-184915952D01*
X28309048Y-184963571D01*
X28285238Y-184987381D01*
X28237619Y-185011190D01*
X28094762Y-185011190D01*
X28047143Y-184987381D01*
X28023334Y-184963571D01*
X27570953Y-168501190D02*
X27570953Y-168001190D01*
X27761429Y-168001190D01*
X27809048Y-168025000D01*
X27832857Y-168048810D01*
X27856667Y-168096429D01*
X27856667Y-168167857D01*
X27832857Y-168215476D01*
X27809048Y-168239286D01*
X27761429Y-168263095D01*
X27570953Y-168263095D01*
X28285238Y-168167857D02*
X28285238Y-168501190D01*
X28166191Y-167977381D02*
X28047143Y-168334524D01*
X28356667Y-168334524D01*
X32650953Y-185011190D02*
X32650953Y-184511190D01*
X32841429Y-184511190D01*
X32889048Y-184535000D01*
X32912857Y-184558810D01*
X32936667Y-184606429D01*
X32936667Y-184677857D01*
X32912857Y-184725476D01*
X32889048Y-184749286D01*
X32841429Y-184773095D01*
X32650953Y-184773095D01*
X33389048Y-184511190D02*
X33150953Y-184511190D01*
X33127143Y-184749286D01*
X33150953Y-184725476D01*
X33198572Y-184701667D01*
X33317619Y-184701667D01*
X33365238Y-184725476D01*
X33389048Y-184749286D01*
X33412857Y-184796905D01*
X33412857Y-184915952D01*
X33389048Y-184963571D01*
X33365238Y-184987381D01*
X33317619Y-185011190D01*
X33198572Y-185011190D01*
X33150953Y-184987381D01*
X33127143Y-184963571D01*
X32650953Y-168501190D02*
X32650953Y-168001190D01*
X32841429Y-168001190D01*
X32889048Y-168025000D01*
X32912857Y-168048810D01*
X32936667Y-168096429D01*
X32936667Y-168167857D01*
X32912857Y-168215476D01*
X32889048Y-168239286D01*
X32841429Y-168263095D01*
X32650953Y-168263095D01*
X33365238Y-168001190D02*
X33270000Y-168001190D01*
X33222381Y-168025000D01*
X33198572Y-168048810D01*
X33150953Y-168120238D01*
X33127143Y-168215476D01*
X33127143Y-168405952D01*
X33150953Y-168453571D01*
X33174762Y-168477381D01*
X33222381Y-168501190D01*
X33317619Y-168501190D01*
X33365238Y-168477381D01*
X33389048Y-168453571D01*
X33412857Y-168405952D01*
X33412857Y-168286905D01*
X33389048Y-168239286D01*
X33365238Y-168215476D01*
X33317619Y-168191667D01*
X33222381Y-168191667D01*
X33174762Y-168215476D01*
X33150953Y-168239286D01*
X33127143Y-168286905D01*
X37730953Y-185011190D02*
X37730953Y-184511190D01*
X37921429Y-184511190D01*
X37969048Y-184535000D01*
X37992857Y-184558810D01*
X38016667Y-184606429D01*
X38016667Y-184677857D01*
X37992857Y-184725476D01*
X37969048Y-184749286D01*
X37921429Y-184773095D01*
X37730953Y-184773095D01*
X38183334Y-184511190D02*
X38516667Y-184511190D01*
X38302381Y-185011190D01*
X37730953Y-168501190D02*
X37730953Y-168001190D01*
X37921429Y-168001190D01*
X37969048Y-168025000D01*
X37992857Y-168048810D01*
X38016667Y-168096429D01*
X38016667Y-168167857D01*
X37992857Y-168215476D01*
X37969048Y-168239286D01*
X37921429Y-168263095D01*
X37730953Y-168263095D01*
X38302381Y-168215476D02*
X38254762Y-168191667D01*
X38230953Y-168167857D01*
X38207143Y-168120238D01*
X38207143Y-168096429D01*
X38230953Y-168048810D01*
X38254762Y-168025000D01*
X38302381Y-168001190D01*
X38397619Y-168001190D01*
X38445238Y-168025000D01*
X38469048Y-168048810D01*
X38492857Y-168096429D01*
X38492857Y-168120238D01*
X38469048Y-168167857D01*
X38445238Y-168191667D01*
X38397619Y-168215476D01*
X38302381Y-168215476D01*
X38254762Y-168239286D01*
X38230953Y-168263095D01*
X38207143Y-168310714D01*
X38207143Y-168405952D01*
X38230953Y-168453571D01*
X38254762Y-168477381D01*
X38302381Y-168501190D01*
X38397619Y-168501190D01*
X38445238Y-168477381D01*
X38469048Y-168453571D01*
X38492857Y-168405952D01*
X38492857Y-168310714D01*
X38469048Y-168263095D01*
X38445238Y-168239286D01*
X38397619Y-168215476D01*
X42810953Y-185011190D02*
X42810953Y-184511190D01*
X43001429Y-184511190D01*
X43049048Y-184535000D01*
X43072857Y-184558810D01*
X43096667Y-184606429D01*
X43096667Y-184677857D01*
X43072857Y-184725476D01*
X43049048Y-184749286D01*
X43001429Y-184773095D01*
X42810953Y-184773095D01*
X43334762Y-185011190D02*
X43430000Y-185011190D01*
X43477619Y-184987381D01*
X43501429Y-184963571D01*
X43549048Y-184892143D01*
X43572857Y-184796905D01*
X43572857Y-184606429D01*
X43549048Y-184558810D01*
X43525238Y-184535000D01*
X43477619Y-184511190D01*
X43382381Y-184511190D01*
X43334762Y-184535000D01*
X43310953Y-184558810D01*
X43287143Y-184606429D01*
X43287143Y-184725476D01*
X43310953Y-184773095D01*
X43334762Y-184796905D01*
X43382381Y-184820714D01*
X43477619Y-184820714D01*
X43525238Y-184796905D01*
X43549048Y-184773095D01*
X43572857Y-184725476D01*
X42572858Y-168501190D02*
X42572858Y-168001190D01*
X42763334Y-168001190D01*
X42810953Y-168025000D01*
X42834762Y-168048810D01*
X42858572Y-168096429D01*
X42858572Y-168167857D01*
X42834762Y-168215476D01*
X42810953Y-168239286D01*
X42763334Y-168263095D01*
X42572858Y-168263095D01*
X43334762Y-168501190D02*
X43049048Y-168501190D01*
X43191905Y-168501190D02*
X43191905Y-168001190D01*
X43144286Y-168072619D01*
X43096667Y-168120238D01*
X43049048Y-168144048D01*
X43644286Y-168001190D02*
X43691905Y-168001190D01*
X43739524Y-168025000D01*
X43763333Y-168048810D01*
X43787143Y-168096429D01*
X43810952Y-168191667D01*
X43810952Y-168310714D01*
X43787143Y-168405952D01*
X43763333Y-168453571D01*
X43739524Y-168477381D01*
X43691905Y-168501190D01*
X43644286Y-168501190D01*
X43596667Y-168477381D01*
X43572857Y-168453571D01*
X43549048Y-168405952D01*
X43525238Y-168310714D01*
X43525238Y-168191667D01*
X43549048Y-168096429D01*
X43572857Y-168048810D01*
X43596667Y-168025000D01*
X43644286Y-168001190D01*
X47652858Y-185011190D02*
X47652858Y-184511190D01*
X47843334Y-184511190D01*
X47890953Y-184535000D01*
X47914762Y-184558810D01*
X47938572Y-184606429D01*
X47938572Y-184677857D01*
X47914762Y-184725476D01*
X47890953Y-184749286D01*
X47843334Y-184773095D01*
X47652858Y-184773095D01*
X48414762Y-185011190D02*
X48129048Y-185011190D01*
X48271905Y-185011190D02*
X48271905Y-184511190D01*
X48224286Y-184582619D01*
X48176667Y-184630238D01*
X48129048Y-184654048D01*
X48890952Y-185011190D02*
X48605238Y-185011190D01*
X48748095Y-185011190D02*
X48748095Y-184511190D01*
X48700476Y-184582619D01*
X48652857Y-184630238D01*
X48605238Y-184654048D01*
X47652858Y-168501190D02*
X47652858Y-168001190D01*
X47843334Y-168001190D01*
X47890953Y-168025000D01*
X47914762Y-168048810D01*
X47938572Y-168096429D01*
X47938572Y-168167857D01*
X47914762Y-168215476D01*
X47890953Y-168239286D01*
X47843334Y-168263095D01*
X47652858Y-168263095D01*
X48414762Y-168501190D02*
X48129048Y-168501190D01*
X48271905Y-168501190D02*
X48271905Y-168001190D01*
X48224286Y-168072619D01*
X48176667Y-168120238D01*
X48129048Y-168144048D01*
X48605238Y-168048810D02*
X48629048Y-168025000D01*
X48676667Y-168001190D01*
X48795714Y-168001190D01*
X48843333Y-168025000D01*
X48867143Y-168048810D01*
X48890952Y-168096429D01*
X48890952Y-168144048D01*
X48867143Y-168215476D01*
X48581429Y-168501190D01*
X48890952Y-168501190D01*
X52732858Y-185011190D02*
X52732858Y-184511190D01*
X52923334Y-184511190D01*
X52970953Y-184535000D01*
X52994762Y-184558810D01*
X53018572Y-184606429D01*
X53018572Y-184677857D01*
X52994762Y-184725476D01*
X52970953Y-184749286D01*
X52923334Y-184773095D01*
X52732858Y-184773095D01*
X53494762Y-185011190D02*
X53209048Y-185011190D01*
X53351905Y-185011190D02*
X53351905Y-184511190D01*
X53304286Y-184582619D01*
X53256667Y-184630238D01*
X53209048Y-184654048D01*
X53661429Y-184511190D02*
X53970952Y-184511190D01*
X53804286Y-184701667D01*
X53875714Y-184701667D01*
X53923333Y-184725476D01*
X53947143Y-184749286D01*
X53970952Y-184796905D01*
X53970952Y-184915952D01*
X53947143Y-184963571D01*
X53923333Y-184987381D01*
X53875714Y-185011190D01*
X53732857Y-185011190D01*
X53685238Y-184987381D01*
X53661429Y-184963571D01*
X52732858Y-168501190D02*
X52732858Y-168001190D01*
X52923334Y-168001190D01*
X52970953Y-168025000D01*
X52994762Y-168048810D01*
X53018572Y-168096429D01*
X53018572Y-168167857D01*
X52994762Y-168215476D01*
X52970953Y-168239286D01*
X52923334Y-168263095D01*
X52732858Y-168263095D01*
X53494762Y-168501190D02*
X53209048Y-168501190D01*
X53351905Y-168501190D02*
X53351905Y-168001190D01*
X53304286Y-168072619D01*
X53256667Y-168120238D01*
X53209048Y-168144048D01*
X53923333Y-168167857D02*
X53923333Y-168501190D01*
X53804286Y-167977381D02*
X53685238Y-168334524D01*
X53994762Y-168334524D01*
X57812858Y-185011190D02*
X57812858Y-184511190D01*
X58003334Y-184511190D01*
X58050953Y-184535000D01*
X58074762Y-184558810D01*
X58098572Y-184606429D01*
X58098572Y-184677857D01*
X58074762Y-184725476D01*
X58050953Y-184749286D01*
X58003334Y-184773095D01*
X57812858Y-184773095D01*
X58574762Y-185011190D02*
X58289048Y-185011190D01*
X58431905Y-185011190D02*
X58431905Y-184511190D01*
X58384286Y-184582619D01*
X58336667Y-184630238D01*
X58289048Y-184654048D01*
X59027143Y-184511190D02*
X58789048Y-184511190D01*
X58765238Y-184749286D01*
X58789048Y-184725476D01*
X58836667Y-184701667D01*
X58955714Y-184701667D01*
X59003333Y-184725476D01*
X59027143Y-184749286D01*
X59050952Y-184796905D01*
X59050952Y-184915952D01*
X59027143Y-184963571D01*
X59003333Y-184987381D01*
X58955714Y-185011190D01*
X58836667Y-185011190D01*
X58789048Y-184987381D01*
X58765238Y-184963571D01*
X57812858Y-168501190D02*
X57812858Y-168001190D01*
X58003334Y-168001190D01*
X58050953Y-168025000D01*
X58074762Y-168048810D01*
X58098572Y-168096429D01*
X58098572Y-168167857D01*
X58074762Y-168215476D01*
X58050953Y-168239286D01*
X58003334Y-168263095D01*
X57812858Y-168263095D01*
X58574762Y-168501190D02*
X58289048Y-168501190D01*
X58431905Y-168501190D02*
X58431905Y-168001190D01*
X58384286Y-168072619D01*
X58336667Y-168120238D01*
X58289048Y-168144048D01*
X59003333Y-168001190D02*
X58908095Y-168001190D01*
X58860476Y-168025000D01*
X58836667Y-168048810D01*
X58789048Y-168120238D01*
X58765238Y-168215476D01*
X58765238Y-168405952D01*
X58789048Y-168453571D01*
X58812857Y-168477381D01*
X58860476Y-168501190D01*
X58955714Y-168501190D01*
X59003333Y-168477381D01*
X59027143Y-168453571D01*
X59050952Y-168405952D01*
X59050952Y-168286905D01*
X59027143Y-168239286D01*
X59003333Y-168215476D01*
X58955714Y-168191667D01*
X58860476Y-168191667D01*
X58812857Y-168215476D01*
X58789048Y-168239286D01*
X58765238Y-168286905D01*
X62892858Y-185011190D02*
X62892858Y-184511190D01*
X63083334Y-184511190D01*
X63130953Y-184535000D01*
X63154762Y-184558810D01*
X63178572Y-184606429D01*
X63178572Y-184677857D01*
X63154762Y-184725476D01*
X63130953Y-184749286D01*
X63083334Y-184773095D01*
X62892858Y-184773095D01*
X63654762Y-185011190D02*
X63369048Y-185011190D01*
X63511905Y-185011190D02*
X63511905Y-184511190D01*
X63464286Y-184582619D01*
X63416667Y-184630238D01*
X63369048Y-184654048D01*
X63821429Y-184511190D02*
X64154762Y-184511190D01*
X63940476Y-185011190D01*
X62892858Y-168501190D02*
X62892858Y-168001190D01*
X63083334Y-168001190D01*
X63130953Y-168025000D01*
X63154762Y-168048810D01*
X63178572Y-168096429D01*
X63178572Y-168167857D01*
X63154762Y-168215476D01*
X63130953Y-168239286D01*
X63083334Y-168263095D01*
X62892858Y-168263095D01*
X63654762Y-168501190D02*
X63369048Y-168501190D01*
X63511905Y-168501190D02*
X63511905Y-168001190D01*
X63464286Y-168072619D01*
X63416667Y-168120238D01*
X63369048Y-168144048D01*
X63940476Y-168215476D02*
X63892857Y-168191667D01*
X63869048Y-168167857D01*
X63845238Y-168120238D01*
X63845238Y-168096429D01*
X63869048Y-168048810D01*
X63892857Y-168025000D01*
X63940476Y-168001190D01*
X64035714Y-168001190D01*
X64083333Y-168025000D01*
X64107143Y-168048810D01*
X64130952Y-168096429D01*
X64130952Y-168120238D01*
X64107143Y-168167857D01*
X64083333Y-168191667D01*
X64035714Y-168215476D01*
X63940476Y-168215476D01*
X63892857Y-168239286D01*
X63869048Y-168263095D01*
X63845238Y-168310714D01*
X63845238Y-168405952D01*
X63869048Y-168453571D01*
X63892857Y-168477381D01*
X63940476Y-168501190D01*
X64035714Y-168501190D01*
X64083333Y-168477381D01*
X64107143Y-168453571D01*
X64130952Y-168405952D01*
X64130952Y-168310714D01*
X64107143Y-168263095D01*
X64083333Y-168239286D01*
X64035714Y-168215476D01*
X49756190Y-111097142D02*
X49256190Y-111097142D01*
X49256190Y-110906666D01*
X49280000Y-110859047D01*
X49303810Y-110835238D01*
X49351429Y-110811428D01*
X49422857Y-110811428D01*
X49470476Y-110835238D01*
X49494286Y-110859047D01*
X49518095Y-110906666D01*
X49518095Y-111097142D01*
X49756190Y-110335238D02*
X49756190Y-110620952D01*
X49756190Y-110478095D02*
X49256190Y-110478095D01*
X49327619Y-110525714D01*
X49375238Y-110573333D01*
X49399048Y-110620952D01*
X49756190Y-110097143D02*
X49756190Y-110001905D01*
X49732381Y-109954286D01*
X49708571Y-109930476D01*
X49637143Y-109882857D01*
X49541905Y-109859048D01*
X49351429Y-109859048D01*
X49303810Y-109882857D01*
X49280000Y-109906667D01*
X49256190Y-109954286D01*
X49256190Y-110049524D01*
X49280000Y-110097143D01*
X49303810Y-110120952D01*
X49351429Y-110144762D01*
X49470476Y-110144762D01*
X49518095Y-110120952D01*
X49541905Y-110097143D01*
X49565714Y-110049524D01*
X49565714Y-109954286D01*
X49541905Y-109906667D01*
X49518095Y-109882857D01*
X49470476Y-109859048D01*
X91011190Y-195552142D02*
X90511190Y-195552142D01*
X90511190Y-195361666D01*
X90535000Y-195314047D01*
X90558810Y-195290238D01*
X90606429Y-195266428D01*
X90677857Y-195266428D01*
X90725476Y-195290238D01*
X90749286Y-195314047D01*
X90773095Y-195361666D01*
X90773095Y-195552142D01*
X90558810Y-195075952D02*
X90535000Y-195052142D01*
X90511190Y-195004523D01*
X90511190Y-194885476D01*
X90535000Y-194837857D01*
X90558810Y-194814047D01*
X90606429Y-194790238D01*
X90654048Y-194790238D01*
X90725476Y-194814047D01*
X91011190Y-195099761D01*
X91011190Y-194790238D01*
X90511190Y-194480714D02*
X90511190Y-194433095D01*
X90535000Y-194385476D01*
X90558810Y-194361667D01*
X90606429Y-194337857D01*
X90701667Y-194314048D01*
X90820714Y-194314048D01*
X90915952Y-194337857D01*
X90963571Y-194361667D01*
X90987381Y-194385476D01*
X91011190Y-194433095D01*
X91011190Y-194480714D01*
X90987381Y-194528333D01*
X90963571Y-194552143D01*
X90915952Y-194575952D01*
X90820714Y-194599762D01*
X90701667Y-194599762D01*
X90606429Y-194575952D01*
X90558810Y-194552143D01*
X90535000Y-194528333D01*
X90511190Y-194480714D01*
X73866190Y-184757142D02*
X73366190Y-184757142D01*
X73366190Y-184566666D01*
X73390000Y-184519047D01*
X73413810Y-184495238D01*
X73461429Y-184471428D01*
X73532857Y-184471428D01*
X73580476Y-184495238D01*
X73604286Y-184519047D01*
X73628095Y-184566666D01*
X73628095Y-184757142D01*
X73413810Y-184280952D02*
X73390000Y-184257142D01*
X73366190Y-184209523D01*
X73366190Y-184090476D01*
X73390000Y-184042857D01*
X73413810Y-184019047D01*
X73461429Y-183995238D01*
X73509048Y-183995238D01*
X73580476Y-184019047D01*
X73866190Y-184304761D01*
X73866190Y-183995238D01*
X73866190Y-183519048D02*
X73866190Y-183804762D01*
X73866190Y-183661905D02*
X73366190Y-183661905D01*
X73437619Y-183709524D01*
X73485238Y-183757143D01*
X73509048Y-183804762D01*
X91011190Y-174385142D02*
X90511190Y-174385142D01*
X90511190Y-174194666D01*
X90535000Y-174147047D01*
X90558810Y-174123238D01*
X90606429Y-174099428D01*
X90677857Y-174099428D01*
X90725476Y-174123238D01*
X90749286Y-174147047D01*
X90773095Y-174194666D01*
X90773095Y-174385142D01*
X90558810Y-173908952D02*
X90535000Y-173885142D01*
X90511190Y-173837523D01*
X90511190Y-173718476D01*
X90535000Y-173670857D01*
X90558810Y-173647047D01*
X90606429Y-173623238D01*
X90654048Y-173623238D01*
X90725476Y-173647047D01*
X91011190Y-173932761D01*
X91011190Y-173623238D01*
X90558810Y-173432762D02*
X90535000Y-173408952D01*
X90511190Y-173361333D01*
X90511190Y-173242286D01*
X90535000Y-173194667D01*
X90558810Y-173170857D01*
X90606429Y-173147048D01*
X90654048Y-173147048D01*
X90725476Y-173170857D01*
X91011190Y-173456571D01*
X91011190Y-173147048D01*
X73866190Y-163590142D02*
X73366190Y-163590142D01*
X73366190Y-163399666D01*
X73390000Y-163352047D01*
X73413810Y-163328238D01*
X73461429Y-163304428D01*
X73532857Y-163304428D01*
X73580476Y-163328238D01*
X73604286Y-163352047D01*
X73628095Y-163399666D01*
X73628095Y-163590142D01*
X73413810Y-163113952D02*
X73390000Y-163090142D01*
X73366190Y-163042523D01*
X73366190Y-162923476D01*
X73390000Y-162875857D01*
X73413810Y-162852047D01*
X73461429Y-162828238D01*
X73509048Y-162828238D01*
X73580476Y-162852047D01*
X73866190Y-163137761D01*
X73866190Y-162828238D01*
X73366190Y-162661571D02*
X73366190Y-162352048D01*
X73556667Y-162518714D01*
X73556667Y-162447286D01*
X73580476Y-162399667D01*
X73604286Y-162375857D01*
X73651905Y-162352048D01*
X73770952Y-162352048D01*
X73818571Y-162375857D01*
X73842381Y-162399667D01*
X73866190Y-162447286D01*
X73866190Y-162590143D01*
X73842381Y-162637762D01*
X73818571Y-162661571D01*
X73866190Y-142424142D02*
X73366190Y-142424142D01*
X73366190Y-142233666D01*
X73390000Y-142186047D01*
X73413810Y-142162238D01*
X73461429Y-142138428D01*
X73532857Y-142138428D01*
X73580476Y-142162238D01*
X73604286Y-142186047D01*
X73628095Y-142233666D01*
X73628095Y-142424142D01*
X73413810Y-141947952D02*
X73390000Y-141924142D01*
X73366190Y-141876523D01*
X73366190Y-141757476D01*
X73390000Y-141709857D01*
X73413810Y-141686047D01*
X73461429Y-141662238D01*
X73509048Y-141662238D01*
X73580476Y-141686047D01*
X73866190Y-141971761D01*
X73866190Y-141662238D01*
X73532857Y-141233667D02*
X73866190Y-141233667D01*
X73342381Y-141352714D02*
X73699524Y-141471762D01*
X73699524Y-141162238D01*
X73878590Y-121257142D02*
X73378590Y-121257142D01*
X73378590Y-121066666D01*
X73402400Y-121019047D01*
X73426210Y-120995238D01*
X73473829Y-120971428D01*
X73545257Y-120971428D01*
X73592876Y-120995238D01*
X73616686Y-121019047D01*
X73640495Y-121066666D01*
X73640495Y-121257142D01*
X73426210Y-120780952D02*
X73402400Y-120757142D01*
X73378590Y-120709523D01*
X73378590Y-120590476D01*
X73402400Y-120542857D01*
X73426210Y-120519047D01*
X73473829Y-120495238D01*
X73521448Y-120495238D01*
X73592876Y-120519047D01*
X73878590Y-120804761D01*
X73878590Y-120495238D01*
X73378590Y-120042857D02*
X73378590Y-120280952D01*
X73616686Y-120304762D01*
X73592876Y-120280952D01*
X73569067Y-120233333D01*
X73569067Y-120114286D01*
X73592876Y-120066667D01*
X73616686Y-120042857D01*
X73664305Y-120019048D01*
X73783352Y-120019048D01*
X73830971Y-120042857D01*
X73854781Y-120066667D01*
X73878590Y-120114286D01*
X73878590Y-120233333D01*
X73854781Y-120280952D01*
X73830971Y-120304762D01*
X91011190Y-153219142D02*
X90511190Y-153219142D01*
X90511190Y-153028666D01*
X90535000Y-152981047D01*
X90558810Y-152957238D01*
X90606429Y-152933428D01*
X90677857Y-152933428D01*
X90725476Y-152957238D01*
X90749286Y-152981047D01*
X90773095Y-153028666D01*
X90773095Y-153219142D01*
X90558810Y-152742952D02*
X90535000Y-152719142D01*
X90511190Y-152671523D01*
X90511190Y-152552476D01*
X90535000Y-152504857D01*
X90558810Y-152481047D01*
X90606429Y-152457238D01*
X90654048Y-152457238D01*
X90725476Y-152481047D01*
X91011190Y-152766761D01*
X91011190Y-152457238D01*
X90511190Y-152028667D02*
X90511190Y-152123905D01*
X90535000Y-152171524D01*
X90558810Y-152195333D01*
X90630238Y-152242952D01*
X90725476Y-152266762D01*
X90915952Y-152266762D01*
X90963571Y-152242952D01*
X90987381Y-152219143D01*
X91011190Y-152171524D01*
X91011190Y-152076286D01*
X90987381Y-152028667D01*
X90963571Y-152004857D01*
X90915952Y-151981048D01*
X90796905Y-151981048D01*
X90749286Y-152004857D01*
X90725476Y-152028667D01*
X90701667Y-152076286D01*
X90701667Y-152171524D01*
X90725476Y-152219143D01*
X90749286Y-152242952D01*
X90796905Y-152266762D01*
X91011190Y-132052142D02*
X90511190Y-132052142D01*
X90511190Y-131861666D01*
X90535000Y-131814047D01*
X90558810Y-131790238D01*
X90606429Y-131766428D01*
X90677857Y-131766428D01*
X90725476Y-131790238D01*
X90749286Y-131814047D01*
X90773095Y-131861666D01*
X90773095Y-132052142D01*
X90558810Y-131575952D02*
X90535000Y-131552142D01*
X90511190Y-131504523D01*
X90511190Y-131385476D01*
X90535000Y-131337857D01*
X90558810Y-131314047D01*
X90606429Y-131290238D01*
X90654048Y-131290238D01*
X90725476Y-131314047D01*
X91011190Y-131599761D01*
X91011190Y-131290238D01*
X90511190Y-131123571D02*
X90511190Y-130790238D01*
X91011190Y-131004524D01*
X75156190Y-108557142D02*
X74656190Y-108557142D01*
X74656190Y-108366666D01*
X74680000Y-108319047D01*
X74703810Y-108295238D01*
X74751429Y-108271428D01*
X74822857Y-108271428D01*
X74870476Y-108295238D01*
X74894286Y-108319047D01*
X74918095Y-108366666D01*
X74918095Y-108557142D01*
X74703810Y-108080952D02*
X74680000Y-108057142D01*
X74656190Y-108009523D01*
X74656190Y-107890476D01*
X74680000Y-107842857D01*
X74703810Y-107819047D01*
X74751429Y-107795238D01*
X74799048Y-107795238D01*
X74870476Y-107819047D01*
X75156190Y-108104761D01*
X75156190Y-107795238D01*
X74870476Y-107509524D02*
X74846667Y-107557143D01*
X74822857Y-107580952D01*
X74775238Y-107604762D01*
X74751429Y-107604762D01*
X74703810Y-107580952D01*
X74680000Y-107557143D01*
X74656190Y-107509524D01*
X74656190Y-107414286D01*
X74680000Y-107366667D01*
X74703810Y-107342857D01*
X74751429Y-107319048D01*
X74775238Y-107319048D01*
X74822857Y-107342857D01*
X74846667Y-107366667D01*
X74870476Y-107414286D01*
X74870476Y-107509524D01*
X74894286Y-107557143D01*
X74918095Y-107580952D01*
X74965714Y-107604762D01*
X75060952Y-107604762D01*
X75108571Y-107580952D01*
X75132381Y-107557143D01*
X75156190Y-107509524D01*
X75156190Y-107414286D01*
X75132381Y-107366667D01*
X75108571Y-107342857D01*
X75060952Y-107319048D01*
X74965714Y-107319048D01*
X74918095Y-107342857D01*
X74894286Y-107366667D01*
X74870476Y-107414286D01*
X67972858Y-91031190D02*
X67972858Y-90531190D01*
X68163334Y-90531190D01*
X68210953Y-90555000D01*
X68234762Y-90578810D01*
X68258572Y-90626429D01*
X68258572Y-90697857D01*
X68234762Y-90745476D01*
X68210953Y-90769286D01*
X68163334Y-90793095D01*
X67972858Y-90793095D01*
X68449048Y-90578810D02*
X68472858Y-90555000D01*
X68520477Y-90531190D01*
X68639524Y-90531190D01*
X68687143Y-90555000D01*
X68710953Y-90578810D01*
X68734762Y-90626429D01*
X68734762Y-90674048D01*
X68710953Y-90745476D01*
X68425239Y-91031190D01*
X68734762Y-91031190D01*
X68972857Y-91031190D02*
X69068095Y-91031190D01*
X69115714Y-91007381D01*
X69139524Y-90983571D01*
X69187143Y-90912143D01*
X69210952Y-90816905D01*
X69210952Y-90626429D01*
X69187143Y-90578810D01*
X69163333Y-90555000D01*
X69115714Y-90531190D01*
X69020476Y-90531190D01*
X68972857Y-90555000D01*
X68949048Y-90578810D01*
X68925238Y-90626429D01*
X68925238Y-90745476D01*
X68949048Y-90793095D01*
X68972857Y-90816905D01*
X69020476Y-90840714D01*
X69115714Y-90840714D01*
X69163333Y-90816905D01*
X69187143Y-90793095D01*
X69210952Y-90745476D01*
X51462858Y-91031190D02*
X51462858Y-90531190D01*
X51653334Y-90531190D01*
X51700953Y-90555000D01*
X51724762Y-90578810D01*
X51748572Y-90626429D01*
X51748572Y-90697857D01*
X51724762Y-90745476D01*
X51700953Y-90769286D01*
X51653334Y-90793095D01*
X51462858Y-90793095D01*
X51915239Y-90531190D02*
X52224762Y-90531190D01*
X52058096Y-90721667D01*
X52129524Y-90721667D01*
X52177143Y-90745476D01*
X52200953Y-90769286D01*
X52224762Y-90816905D01*
X52224762Y-90935952D01*
X52200953Y-90983571D01*
X52177143Y-91007381D01*
X52129524Y-91031190D01*
X51986667Y-91031190D01*
X51939048Y-91007381D01*
X51915239Y-90983571D01*
X52534286Y-90531190D02*
X52581905Y-90531190D01*
X52629524Y-90555000D01*
X52653333Y-90578810D01*
X52677143Y-90626429D01*
X52700952Y-90721667D01*
X52700952Y-90840714D01*
X52677143Y-90935952D01*
X52653333Y-90983571D01*
X52629524Y-91007381D01*
X52581905Y-91031190D01*
X52534286Y-91031190D01*
X52486667Y-91007381D01*
X52462857Y-90983571D01*
X52439048Y-90935952D01*
X52415238Y-90840714D01*
X52415238Y-90721667D01*
X52439048Y-90626429D01*
X52462857Y-90578810D01*
X52486667Y-90555000D01*
X52534286Y-90531190D01*
X33607381Y-130448810D02*
X33559762Y-130425000D01*
X33512143Y-130377381D01*
X33440714Y-130305952D01*
X33393095Y-130282143D01*
X33345476Y-130282143D01*
X33369286Y-130401190D02*
X33321667Y-130377381D01*
X33274048Y-130329762D01*
X33250238Y-130234524D01*
X33250238Y-130067857D01*
X33274048Y-129972619D01*
X33321667Y-129925000D01*
X33369286Y-129901190D01*
X33464524Y-129901190D01*
X33512143Y-129925000D01*
X33559762Y-129972619D01*
X33583571Y-130067857D01*
X33583571Y-130234524D01*
X33559762Y-130329762D01*
X33512143Y-130377381D01*
X33464524Y-130401190D01*
X33369286Y-130401190D01*
X34059762Y-130401190D02*
X33774048Y-130401190D01*
X33916905Y-130401190D02*
X33916905Y-129901190D01*
X33869286Y-129972619D01*
X33821667Y-130020238D01*
X33774048Y-130044048D01*
X33607381Y-143148810D02*
X33559762Y-143125000D01*
X33512143Y-143077381D01*
X33440714Y-143005952D01*
X33393095Y-142982143D01*
X33345476Y-142982143D01*
X33369286Y-143101190D02*
X33321667Y-143077381D01*
X33274048Y-143029762D01*
X33250238Y-142934524D01*
X33250238Y-142767857D01*
X33274048Y-142672619D01*
X33321667Y-142625000D01*
X33369286Y-142601190D01*
X33464524Y-142601190D01*
X33512143Y-142625000D01*
X33559762Y-142672619D01*
X33583571Y-142767857D01*
X33583571Y-142934524D01*
X33559762Y-143029762D01*
X33512143Y-143077381D01*
X33464524Y-143101190D01*
X33369286Y-143101190D01*
X33774048Y-142648810D02*
X33797858Y-142625000D01*
X33845477Y-142601190D01*
X33964524Y-142601190D01*
X34012143Y-142625000D01*
X34035953Y-142648810D01*
X34059762Y-142696429D01*
X34059762Y-142744048D01*
X34035953Y-142815476D01*
X33750239Y-143101190D01*
X34059762Y-143101190D01*
X32972381Y-155848810D02*
X32924762Y-155825000D01*
X32877143Y-155777381D01*
X32805714Y-155705952D01*
X32758095Y-155682143D01*
X32710476Y-155682143D01*
X32734286Y-155801190D02*
X32686667Y-155777381D01*
X32639048Y-155729762D01*
X32615238Y-155634524D01*
X32615238Y-155467857D01*
X32639048Y-155372619D01*
X32686667Y-155325000D01*
X32734286Y-155301190D01*
X32829524Y-155301190D01*
X32877143Y-155325000D01*
X32924762Y-155372619D01*
X32948571Y-155467857D01*
X32948571Y-155634524D01*
X32924762Y-155729762D01*
X32877143Y-155777381D01*
X32829524Y-155801190D01*
X32734286Y-155801190D01*
X33115239Y-155301190D02*
X33424762Y-155301190D01*
X33258096Y-155491667D01*
X33329524Y-155491667D01*
X33377143Y-155515476D01*
X33400953Y-155539286D01*
X33424762Y-155586905D01*
X33424762Y-155705952D01*
X33400953Y-155753571D01*
X33377143Y-155777381D01*
X33329524Y-155801190D01*
X33186667Y-155801190D01*
X33139048Y-155777381D01*
X33115239Y-155753571D01*
X26261190Y-131914413D02*
X26023095Y-132081080D01*
X26261190Y-132200127D02*
X25761190Y-132200127D01*
X25761190Y-132009651D01*
X25785000Y-131962032D01*
X25808810Y-131938223D01*
X25856429Y-131914413D01*
X25927857Y-131914413D01*
X25975476Y-131938223D01*
X25999286Y-131962032D01*
X26023095Y-132009651D01*
X26023095Y-132200127D01*
X26261190Y-131438223D02*
X26261190Y-131723937D01*
X26261190Y-131581080D02*
X25761190Y-131581080D01*
X25832619Y-131628699D01*
X25880238Y-131676318D01*
X25904048Y-131723937D01*
X35151190Y-131914413D02*
X34913095Y-132081080D01*
X35151190Y-132200127D02*
X34651190Y-132200127D01*
X34651190Y-132009651D01*
X34675000Y-131962032D01*
X34698810Y-131938223D01*
X34746429Y-131914413D01*
X34817857Y-131914413D01*
X34865476Y-131938223D01*
X34889286Y-131962032D01*
X34913095Y-132009651D01*
X34913095Y-132200127D01*
X34698810Y-131723937D02*
X34675000Y-131700127D01*
X34651190Y-131652508D01*
X34651190Y-131533461D01*
X34675000Y-131485842D01*
X34698810Y-131462032D01*
X34746429Y-131438223D01*
X34794048Y-131438223D01*
X34865476Y-131462032D01*
X35151190Y-131747746D01*
X35151190Y-131438223D01*
X26261190Y-144614413D02*
X26023095Y-144781080D01*
X26261190Y-144900127D02*
X25761190Y-144900127D01*
X25761190Y-144709651D01*
X25785000Y-144662032D01*
X25808810Y-144638223D01*
X25856429Y-144614413D01*
X25927857Y-144614413D01*
X25975476Y-144638223D01*
X25999286Y-144662032D01*
X26023095Y-144709651D01*
X26023095Y-144900127D01*
X25761190Y-144447746D02*
X25761190Y-144138223D01*
X25951667Y-144304889D01*
X25951667Y-144233461D01*
X25975476Y-144185842D01*
X25999286Y-144162032D01*
X26046905Y-144138223D01*
X26165952Y-144138223D01*
X26213571Y-144162032D01*
X26237381Y-144185842D01*
X26261190Y-144233461D01*
X26261190Y-144376318D01*
X26237381Y-144423937D01*
X26213571Y-144447746D01*
X35151190Y-144614413D02*
X34913095Y-144781080D01*
X35151190Y-144900127D02*
X34651190Y-144900127D01*
X34651190Y-144709651D01*
X34675000Y-144662032D01*
X34698810Y-144638223D01*
X34746429Y-144614413D01*
X34817857Y-144614413D01*
X34865476Y-144638223D01*
X34889286Y-144662032D01*
X34913095Y-144709651D01*
X34913095Y-144900127D01*
X34817857Y-144185842D02*
X35151190Y-144185842D01*
X34627381Y-144304889D02*
X34984524Y-144423937D01*
X34984524Y-144114413D01*
X24666070Y-157314413D02*
X24427975Y-157481080D01*
X24666070Y-157600127D02*
X24166070Y-157600127D01*
X24166070Y-157409651D01*
X24189880Y-157362032D01*
X24213690Y-157338223D01*
X24261309Y-157314413D01*
X24332737Y-157314413D01*
X24380356Y-157338223D01*
X24404166Y-157362032D01*
X24427975Y-157409651D01*
X24427975Y-157600127D01*
X24166070Y-156862032D02*
X24166070Y-157100127D01*
X24404166Y-157123937D01*
X24380356Y-157100127D01*
X24356547Y-157052508D01*
X24356547Y-156933461D01*
X24380356Y-156885842D01*
X24404166Y-156862032D01*
X24451785Y-156838223D01*
X24570832Y-156838223D01*
X24618451Y-156862032D01*
X24642261Y-156885842D01*
X24666070Y-156933461D01*
X24666070Y-157052508D01*
X24642261Y-157100127D01*
X24618451Y-157123937D01*
X35151190Y-157314413D02*
X34913095Y-157481080D01*
X35151190Y-157600127D02*
X34651190Y-157600127D01*
X34651190Y-157409651D01*
X34675000Y-157362032D01*
X34698810Y-157338223D01*
X34746429Y-157314413D01*
X34817857Y-157314413D01*
X34865476Y-157338223D01*
X34889286Y-157362032D01*
X34913095Y-157409651D01*
X34913095Y-157600127D01*
X34651190Y-156885842D02*
X34651190Y-156981080D01*
X34675000Y-157028699D01*
X34698810Y-157052508D01*
X34770238Y-157100127D01*
X34865476Y-157123937D01*
X35055952Y-157123937D01*
X35103571Y-157100127D01*
X35127381Y-157076318D01*
X35151190Y-157028699D01*
X35151190Y-156933461D01*
X35127381Y-156885842D01*
X35103571Y-156862032D01*
X35055952Y-156838223D01*
X34936905Y-156838223D01*
X34889286Y-156862032D01*
X34865476Y-156885842D01*
X34841667Y-156933461D01*
X34841667Y-157028699D01*
X34865476Y-157076318D01*
X34889286Y-157100127D01*
X34936905Y-157123937D01*
X45885587Y-133886070D02*
X45718920Y-133647975D01*
X45599873Y-133886070D02*
X45599873Y-133386070D01*
X45790349Y-133386070D01*
X45837968Y-133409880D01*
X45861777Y-133433690D01*
X45885587Y-133481309D01*
X45885587Y-133552737D01*
X45861777Y-133600356D01*
X45837968Y-133624166D01*
X45790349Y-133647975D01*
X45599873Y-133647975D01*
X46052254Y-133386070D02*
X46385587Y-133386070D01*
X46171301Y-133886070D01*
X34206667Y-111478190D02*
X34040000Y-111240095D01*
X33920953Y-111478190D02*
X33920953Y-110978190D01*
X34111429Y-110978190D01*
X34159048Y-111002000D01*
X34182857Y-111025810D01*
X34206667Y-111073429D01*
X34206667Y-111144857D01*
X34182857Y-111192476D01*
X34159048Y-111216286D01*
X34111429Y-111240095D01*
X33920953Y-111240095D01*
X34492381Y-111192476D02*
X34444762Y-111168667D01*
X34420953Y-111144857D01*
X34397143Y-111097238D01*
X34397143Y-111073429D01*
X34420953Y-111025810D01*
X34444762Y-111002000D01*
X34492381Y-110978190D01*
X34587619Y-110978190D01*
X34635238Y-111002000D01*
X34659048Y-111025810D01*
X34682857Y-111073429D01*
X34682857Y-111097238D01*
X34659048Y-111144857D01*
X34635238Y-111168667D01*
X34587619Y-111192476D01*
X34492381Y-111192476D01*
X34444762Y-111216286D01*
X34420953Y-111240095D01*
X34397143Y-111287714D01*
X34397143Y-111382952D01*
X34420953Y-111430571D01*
X34444762Y-111454381D01*
X34492381Y-111478190D01*
X34587619Y-111478190D01*
X34635238Y-111454381D01*
X34659048Y-111430571D01*
X34682857Y-111382952D01*
X34682857Y-111287714D01*
X34659048Y-111240095D01*
X34635238Y-111216286D01*
X34587619Y-111192476D01*
X20236667Y-93698190D02*
X20070000Y-93460095D01*
X19950953Y-93698190D02*
X19950953Y-93198190D01*
X20141429Y-93198190D01*
X20189048Y-93222000D01*
X20212857Y-93245810D01*
X20236667Y-93293429D01*
X20236667Y-93364857D01*
X20212857Y-93412476D01*
X20189048Y-93436286D01*
X20141429Y-93460095D01*
X19950953Y-93460095D01*
X20474762Y-93698190D02*
X20570000Y-93698190D01*
X20617619Y-93674381D01*
X20641429Y-93650571D01*
X20689048Y-93579143D01*
X20712857Y-93483905D01*
X20712857Y-93293429D01*
X20689048Y-93245810D01*
X20665238Y-93222000D01*
X20617619Y-93198190D01*
X20522381Y-93198190D01*
X20474762Y-93222000D01*
X20450953Y-93245810D01*
X20427143Y-93293429D01*
X20427143Y-93412476D01*
X20450953Y-93460095D01*
X20474762Y-93483905D01*
X20522381Y-93507714D01*
X20617619Y-93507714D01*
X20665238Y-93483905D01*
X20689048Y-93460095D01*
X20712857Y-93412476D01*
X32698572Y-93698190D02*
X32531905Y-93460095D01*
X32412858Y-93698190D02*
X32412858Y-93198190D01*
X32603334Y-93198190D01*
X32650953Y-93222000D01*
X32674762Y-93245810D01*
X32698572Y-93293429D01*
X32698572Y-93364857D01*
X32674762Y-93412476D01*
X32650953Y-93436286D01*
X32603334Y-93460095D01*
X32412858Y-93460095D01*
X33174762Y-93698190D02*
X32889048Y-93698190D01*
X33031905Y-93698190D02*
X33031905Y-93198190D01*
X32984286Y-93269619D01*
X32936667Y-93317238D01*
X32889048Y-93341048D01*
X33484286Y-93198190D02*
X33531905Y-93198190D01*
X33579524Y-93222000D01*
X33603333Y-93245810D01*
X33627143Y-93293429D01*
X33650952Y-93388667D01*
X33650952Y-93507714D01*
X33627143Y-93602952D01*
X33603333Y-93650571D01*
X33579524Y-93674381D01*
X33531905Y-93698190D01*
X33484286Y-93698190D01*
X33436667Y-93674381D01*
X33412857Y-93650571D01*
X33389048Y-93602952D01*
X33365238Y-93507714D01*
X33365238Y-93388667D01*
X33389048Y-93293429D01*
X33412857Y-93245810D01*
X33436667Y-93222000D01*
X33484286Y-93198190D01*
X19749652Y-90142190D02*
X19582985Y-89904095D01*
X19463938Y-90142190D02*
X19463938Y-89642190D01*
X19654414Y-89642190D01*
X19702033Y-89666000D01*
X19725842Y-89689810D01*
X19749652Y-89737429D01*
X19749652Y-89808857D01*
X19725842Y-89856476D01*
X19702033Y-89880286D01*
X19654414Y-89904095D01*
X19463938Y-89904095D01*
X20225842Y-90142190D02*
X19940128Y-90142190D01*
X20082985Y-90142190D02*
X20082985Y-89642190D01*
X20035366Y-89713619D01*
X19987747Y-89761238D01*
X19940128Y-89785048D01*
X20702032Y-90142190D02*
X20416318Y-90142190D01*
X20559175Y-90142190D02*
X20559175Y-89642190D01*
X20511556Y-89713619D01*
X20463937Y-89761238D01*
X20416318Y-89785048D01*
X32449652Y-90142190D02*
X32282985Y-89904095D01*
X32163938Y-90142190D02*
X32163938Y-89642190D01*
X32354414Y-89642190D01*
X32402033Y-89666000D01*
X32425842Y-89689810D01*
X32449652Y-89737429D01*
X32449652Y-89808857D01*
X32425842Y-89856476D01*
X32402033Y-89880286D01*
X32354414Y-89904095D01*
X32163938Y-89904095D01*
X32925842Y-90142190D02*
X32640128Y-90142190D01*
X32782985Y-90142190D02*
X32782985Y-89642190D01*
X32735366Y-89713619D01*
X32687747Y-89761238D01*
X32640128Y-89785048D01*
X33116318Y-89689810D02*
X33140128Y-89666000D01*
X33187747Y-89642190D01*
X33306794Y-89642190D01*
X33354413Y-89666000D01*
X33378223Y-89689810D01*
X33402032Y-89737429D01*
X33402032Y-89785048D01*
X33378223Y-89856476D01*
X33092509Y-90142190D01*
X33402032Y-90142190D01*
X18669048Y-98766190D02*
X18669048Y-99170952D01*
X18692857Y-99218571D01*
X18716667Y-99242381D01*
X18764286Y-99266190D01*
X18859524Y-99266190D01*
X18907143Y-99242381D01*
X18930952Y-99218571D01*
X18954762Y-99170952D01*
X18954762Y-98766190D01*
X19454762Y-99266190D02*
X19169048Y-99266190D01*
X19311905Y-99266190D02*
X19311905Y-98766190D01*
X19264286Y-98837619D01*
X19216667Y-98885238D01*
X19169048Y-98909048D01*
X44176190Y-154431952D02*
X44580952Y-154431952D01*
X44628571Y-154408143D01*
X44652381Y-154384333D01*
X44676190Y-154336714D01*
X44676190Y-154241476D01*
X44652381Y-154193857D01*
X44628571Y-154170048D01*
X44580952Y-154146238D01*
X44176190Y-154146238D01*
X44223810Y-153931952D02*
X44200000Y-153908142D01*
X44176190Y-153860523D01*
X44176190Y-153741476D01*
X44200000Y-153693857D01*
X44223810Y-153670047D01*
X44271429Y-153646238D01*
X44319048Y-153646238D01*
X44390476Y-153670047D01*
X44676190Y-153955761D01*
X44676190Y-153646238D01*
D16*
X42947167Y-153289000D02*
X42058167Y-153289000D01*
X42693167Y-152992667D01*
X42058167Y-152696334D01*
X42947167Y-152696334D01*
X42693167Y-152315334D02*
X42693167Y-151892000D01*
X42947167Y-152400000D02*
X42058167Y-152103667D01*
X42947167Y-151807334D01*
X42058167Y-151595667D02*
X42947167Y-151003000D01*
X42058167Y-151003000D02*
X42947167Y-151595667D01*
X42058167Y-150749000D02*
X42058167Y-150156333D01*
X42947167Y-150537333D01*
X42142833Y-149860000D02*
X42100500Y-149817666D01*
X42058167Y-149733000D01*
X42058167Y-149521333D01*
X42100500Y-149436666D01*
X42142833Y-149394333D01*
X42227500Y-149352000D01*
X42312167Y-149352000D01*
X42439167Y-149394333D01*
X42947167Y-149902333D01*
X42947167Y-149352000D01*
X42142833Y-149013333D02*
X42100500Y-148970999D01*
X42058167Y-148886333D01*
X42058167Y-148674666D01*
X42100500Y-148589999D01*
X42142833Y-148547666D01*
X42227500Y-148505333D01*
X42312167Y-148505333D01*
X42439167Y-148547666D01*
X42947167Y-149055666D01*
X42947167Y-148505333D01*
X42947167Y-147658666D02*
X42947167Y-148166666D01*
X42947167Y-147912666D02*
X42058167Y-147912666D01*
X42185167Y-147997332D01*
X42269833Y-148081999D01*
X42312167Y-148166666D01*
D14*
D15*
X44176190Y-128396952D02*
X44580952Y-128396952D01*
X44628571Y-128373143D01*
X44652381Y-128349333D01*
X44676190Y-128301714D01*
X44676190Y-128206476D01*
X44652381Y-128158857D01*
X44628571Y-128135048D01*
X44580952Y-128111238D01*
X44176190Y-128111238D01*
X44176190Y-127920761D02*
X44176190Y-127611238D01*
X44366667Y-127777904D01*
X44366667Y-127706476D01*
X44390476Y-127658857D01*
X44414286Y-127635047D01*
X44461905Y-127611238D01*
X44580952Y-127611238D01*
X44628571Y-127635047D01*
X44652381Y-127658857D01*
X44676190Y-127706476D01*
X44676190Y-127849333D01*
X44652381Y-127896952D01*
X44628571Y-127920761D01*
D16*
X43582167Y-127254000D02*
X42693167Y-127254000D01*
X43328167Y-126957667D01*
X42693167Y-126661334D01*
X43582167Y-126661334D01*
X43328167Y-126280334D02*
X43328167Y-125857000D01*
X43582167Y-126365000D02*
X42693167Y-126068667D01*
X43582167Y-125772334D01*
X42693167Y-125560667D02*
X43582167Y-124968000D01*
X42693167Y-124968000D02*
X43582167Y-125560667D01*
X42693167Y-124714000D02*
X42693167Y-124121333D01*
X43582167Y-124502333D01*
X42777833Y-123825000D02*
X42735500Y-123782666D01*
X42693167Y-123698000D01*
X42693167Y-123486333D01*
X42735500Y-123401666D01*
X42777833Y-123359333D01*
X42862500Y-123317000D01*
X42947167Y-123317000D01*
X43074167Y-123359333D01*
X43582167Y-123867333D01*
X43582167Y-123317000D01*
X42777833Y-122978333D02*
X42735500Y-122935999D01*
X42693167Y-122851333D01*
X42693167Y-122639666D01*
X42735500Y-122554999D01*
X42777833Y-122512666D01*
X42862500Y-122470333D01*
X42947167Y-122470333D01*
X43074167Y-122512666D01*
X43582167Y-123020666D01*
X43582167Y-122470333D01*
X43582167Y-121623666D02*
X43582167Y-122131666D01*
X43582167Y-121877666D02*
X42693167Y-121877666D01*
X42820167Y-121962332D01*
X42904833Y-122046999D01*
X42947167Y-122131666D01*
D14*
D15*
X47158571Y-161643333D02*
X47182381Y-161667143D01*
X47206190Y-161738571D01*
X47206190Y-161786190D01*
X47182381Y-161857619D01*
X47134762Y-161905238D01*
X47087143Y-161929047D01*
X46991905Y-161952857D01*
X46920476Y-161952857D01*
X46825238Y-161929047D01*
X46777619Y-161905238D01*
X46730000Y-161857619D01*
X46706190Y-161786190D01*
X46706190Y-161738571D01*
X46730000Y-161667143D01*
X46753810Y-161643333D01*
X46872857Y-161214762D02*
X47206190Y-161214762D01*
X46682381Y-161333809D02*
X47039524Y-161452857D01*
X47039524Y-161143333D01*
M02*
