<?xml version="1.0" standalone="no"?>
 <!DOCTYPE svg PUBLIC "-//W3C//DTD SVG 1.1//EN" 
 "http://www.w3.org/Graphics/SVG/1.1/DTD/svg11.dtd"> 
<svg xmlns="http://www.w3.org/2000/svg" version="1.1" 
    width="22.3368cm" height="3.84556cm" viewBox="0 0 87940 15140 ">
<title>SVG Picture created as switches-16-brd.svg date 2016/08/07 12:28:05 </title>
  <desc>Picture generated by PCBNEW </desc>
<g style="fill:#000000; fill-opacity:1;stroke:#000000; stroke-opacity:1;
stroke-linecap:round; stroke-linejoin:round; "
 transform="translate(0 0) scale(1 1)">
</g>
<g style="fill:#000000; fill-opacity:0.0; 
stroke:#000000; stroke-width:-0.000393701; stroke-opacity:1; 
stroke-linecap:round; stroke-linejoin:round;">
</g>
<g style="fill:#840000; fill-opacity:0.0; 
stroke:#840000; stroke-width:-0.000393701; stroke-opacity:1; 
stroke-linecap:round; stroke-linejoin:round;">
</g>
<g style="fill:#840000; fill-opacity:0.0; 
stroke:#840000; stroke-width:59.0551; stroke-opacity:1; 
stroke-linecap:round; stroke-linejoin:round;">
<circle cx="10926.4" cy="6622.05" r="250" /> 
<circle cx="10926.4" cy="4622.05" r="1250" /> 
<circle cx="15926.4" cy="6622.05" r="250" /> 
<circle cx="15926.4" cy="4622.05" r="1250" /> 
<circle cx="20926.4" cy="6622.05" r="250" /> 
<circle cx="20926.4" cy="4622.05" r="1250" /> 
<circle cx="25926.4" cy="6622.05" r="250" /> 
<circle cx="25926.4" cy="4622.05" r="1250" /> 
<circle cx="30926.4" cy="6622.05" r="250" /> 
<circle cx="30926.4" cy="4622.05" r="1250" /> 
<circle cx="35926.4" cy="6622.05" r="250" /> 
<circle cx="35926.4" cy="4622.05" r="1250" /> 
<circle cx="40926.4" cy="6622.05" r="250" /> 
<circle cx="40926.4" cy="4622.05" r="1250" /> 
<circle cx="45926.4" cy="6622.05" r="250" /> 
<circle cx="45926.4" cy="4622.05" r="1250" /> 
<circle cx="50926.4" cy="6622.05" r="250" /> 
<circle cx="50926.4" cy="4622.05" r="1250" /> 
<circle cx="55926.4" cy="6622.05" r="250" /> 
<circle cx="55926.4" cy="4622.05" r="1250" /> 
<circle cx="60926.4" cy="6622.05" r="250" /> 
<circle cx="60926.4" cy="4622.05" r="1250" /> 
<circle cx="65926.4" cy="6622.05" r="250" /> 
<circle cx="65926.4" cy="4622.05" r="1250" /> 
<circle cx="70926.4" cy="6622.05" r="250" /> 
<circle cx="70926.4" cy="4622.05" r="1250" /> 
<circle cx="75926.4" cy="6622.05" r="250" /> 
<circle cx="75926.4" cy="4622.05" r="1250" /> 
<circle cx="80926.4" cy="6622.05" r="250" /> 
<circle cx="80926.4" cy="4622.05" r="1250" /> 
<circle cx="85926.4" cy="6622.05" r="250" /> 
<circle cx="85926.4" cy="4622.05" r="1250" /> 
</g>
<g style="fill:#000000; fill-opacity:0.0; 
stroke:#000000; stroke-width:59.0551; stroke-opacity:1; 
stroke-linecap:round; stroke-linejoin:round;">
</g>
<g style="fill:#C2C200; fill-opacity:0.0; 
stroke:#C2C200; stroke-width:59.0551; stroke-opacity:1; 
stroke-linecap:round; stroke-linejoin:round;">
</g>
<g style="fill:#C2C200; fill-opacity:0.0; 
stroke:#C2C200; stroke-width:39.3701; stroke-opacity:1; 
stroke-linecap:round; stroke-linejoin:round;">
<path d="M71926 8122
L87926 8122
" />
<path d="M70926 9122
L71926 8122
" />
<path d="M62426 9122
L70926 9122
" />
<path d="M61426 10122
L62426 9122
" />
<path d="M59426 10122
L61426 10122
" />
<path d="M58426 11122
L59426 10122
" />
<path d="M58426 13372
L58426 11122
" />
<path d="M56676 15122
L58426 13372
" />
<path d="M38176 15122
L56676 15122
" />
<path d="M37426 14372
L38176 15122
" />
<path d="M36176 13122
L37426 14372
" />
<path d="M36176 10622
L36176 13122
" />
<path d="M34176 8622
L36176 10622
" />
<path d="M20176 8622
L34176 8622
" />
<path d="M19926 8372
L20176 8622
" />
<path d="M19176 7622
L19926 8372
" />
<path d="M8926 7622
L19176 7622
" />
<path d="M87926 1622
L87926 8122
" />
<path d="M8926 1622
L87926 1622
" />
<path d="M8926 1622
L8926 7622
" />
</g> 
</svg>
