<?xml version="1.0" standalone="no"?>
 <!DOCTYPE svg PUBLIC "-//W3C//DTD SVG 1.1//EN" 
 "http://www.w3.org/Graphics/SVG/1.1/DTD/svg11.dtd"> 
<svg xmlns="http://www.w3.org/2000/svg" version="1.1" 
    width="22.3368cm" height="3.84556cm" viewBox="0 0 87940 15140 ">
<title>SVG Picture created as switches-16-brd.svg date 2016/08/08 13:55:57 </title>
  <desc>Picture generated by PCBNEW </desc>
<g style="fill:#000000; fill-opacity:1;stroke:#000000; stroke-opacity:1;
stroke-linecap:round; stroke-linejoin:round; "
 transform="translate(0 0) scale(1 1)">
</g>
<g style="fill:#000000; fill-opacity:0.0; 
stroke:#000000; stroke-width:-0.000393701; stroke-opacity:1; 
stroke-linecap:round; stroke-linejoin:round;">
</g>
<g style="fill:#840000; fill-opacity:0.0; 
stroke:#840000; stroke-width:-0.000393701; stroke-opacity:1; 
stroke-linecap:round; stroke-linejoin:round;">
</g>
<g style="fill:#840000; fill-opacity:0.0; 
stroke:#840000; stroke-width:59.0551; stroke-opacity:1; 
stroke-linecap:round; stroke-linejoin:round;">
<path d="M85335 7377
L85335 6590
" />
<path d="M86516 7377
L85335 7377
" />
<path d="M86516 6590
L86516 7377
" />
<path d="M85335 6590
L86516 6590
" />
<circle cx="85926.4" cy="4622.05" r="1250" /> 
<path d="M80335 7377
L80335 6590
" />
<path d="M81516 7377
L80335 7377
" />
<path d="M81516 6590
L81516 7377
" />
<path d="M80335 6590
L81516 6590
" />
<circle cx="80926.4" cy="4622.05" r="1250" /> 
<path d="M75335 7377
L75335 6590
" />
<path d="M76516 7377
L75335 7377
" />
<path d="M76516 6590
L76516 7377
" />
<path d="M75335 6590
L76516 6590
" />
<circle cx="75926.4" cy="4622.05" r="1250" /> 
<path d="M70335 7377
L70335 6590
" />
<path d="M71516 7377
L70335 7377
" />
<path d="M71516 6590
L71516 7377
" />
<path d="M70335 6590
L71516 6590
" />
<circle cx="70926.4" cy="4622.05" r="1250" /> 
<path d="M65335 7377
L65335 6590
" />
<path d="M66516 7377
L65335 7377
" />
<path d="M66516 6590
L66516 7377
" />
<path d="M65335 6590
L66516 6590
" />
<circle cx="65926.4" cy="4622.05" r="1250" /> 
<path d="M60335 7377
L60335 6590
" />
<path d="M61516 7377
L60335 7377
" />
<path d="M61516 6590
L61516 7377
" />
<path d="M60335 6590
L61516 6590
" />
<circle cx="60926.4" cy="4622.05" r="1250" /> 
<path d="M55335 7377
L55335 6590
" />
<path d="M56516 7377
L55335 7377
" />
<path d="M56516 6590
L56516 7377
" />
<path d="M55335 6590
L56516 6590
" />
<circle cx="55926.4" cy="4622.05" r="1250" /> 
<path d="M50335 7377
L50335 6590
" />
<path d="M51516 7377
L50335 7377
" />
<path d="M51516 6590
L51516 7377
" />
<path d="M50335 6590
L51516 6590
" />
<circle cx="50926.4" cy="4622.05" r="1250" /> 
<path d="M45335 7377
L45335 6590
" />
<path d="M46516 7377
L45335 7377
" />
<path d="M46516 6590
L46516 7377
" />
<path d="M45335 6590
L46516 6590
" />
<circle cx="45926.4" cy="4622.05" r="1250" /> 
<path d="M40335 7377
L40335 6590
" />
<path d="M41516 7377
L40335 7377
" />
<path d="M41516 6590
L41516 7377
" />
<path d="M40335 6590
L41516 6590
" />
<circle cx="40926.4" cy="4622.05" r="1250" /> 
<path d="M35335 7377
L35335 6590
" />
<path d="M36516 7377
L35335 7377
" />
<path d="M36516 6590
L36516 7377
" />
<path d="M35335 6590
L36516 6590
" />
<circle cx="35926.4" cy="4622.05" r="1250" /> 
<path d="M30335 7377
L30335 6590
" />
<path d="M31516 7377
L30335 7377
" />
<path d="M31516 6590
L31516 7377
" />
<path d="M30335 6590
L31516 6590
" />
<circle cx="30926.4" cy="4622.05" r="1250" /> 
<path d="M25335 7377
L25335 6590
" />
<path d="M26516 7377
L25335 7377
" />
<path d="M26516 6590
L26516 7377
" />
<path d="M25335 6590
L26516 6590
" />
<circle cx="25926.4" cy="4622.05" r="1250" /> 
<path d="M20335 7377
L20335 6590
" />
<path d="M21516 7377
L20335 7377
" />
<path d="M21516 6590
L21516 7377
" />
<path d="M20335 6590
L21516 6590
" />
<circle cx="20926.4" cy="4622.05" r="1250" /> 
<path d="M15335 7377
L15335 6590
" />
<path d="M16516 7377
L15335 7377
" />
<path d="M16516 6590
L16516 7377
" />
<path d="M15335 6590
L16516 6590
" />
<circle cx="15926.4" cy="4622.05" r="1250" /> 
<path d="M10335 7377
L10335 6590
" />
<path d="M11516 7377
L10335 7377
" />
<path d="M11516 6590
L11516 7377
" />
<path d="M10335 6590
L11516 6590
" />
<circle cx="10926.4" cy="4622.05" r="1250" /> 
</g>
<g style="fill:#000000; fill-opacity:0.0; 
stroke:#000000; stroke-width:59.0551; stroke-opacity:1; 
stroke-linecap:round; stroke-linejoin:round;">
</g>
<g style="fill:#C2C200; fill-opacity:0.0; 
stroke:#C2C200; stroke-width:59.0551; stroke-opacity:1; 
stroke-linecap:round; stroke-linejoin:round;">
</g>
<g style="fill:#C2C200; fill-opacity:0.0; 
stroke:#C2C200; stroke-width:39.3701; stroke-opacity:1; 
stroke-linecap:round; stroke-linejoin:round;">
<path d="M71926 8122
L87926 8122
" />
<path d="M70926 9122
L71926 8122
" />
<path d="M62426 9122
L70926 9122
" />
<path d="M61426 10122
L62426 9122
" />
<path d="M59426 10122
L61426 10122
" />
<path d="M58426 11122
L59426 10122
" />
<path d="M58426 13372
L58426 11122
" />
<path d="M56676 15122
L58426 13372
" />
<path d="M38176 15122
L56676 15122
" />
<path d="M37426 14372
L38176 15122
" />
<path d="M36176 13122
L37426 14372
" />
<path d="M36176 10622
L36176 13122
" />
<path d="M34176 8622
L36176 10622
" />
<path d="M20176 8622
L34176 8622
" />
<path d="M19926 8372
L20176 8622
" />
<path d="M19176 7622
L19926 8372
" />
<path d="M8926 7622
L19176 7622
" />
<path d="M87926 1622
L87926 8122
" />
<path d="M8926 1622
L87926 1622
" />
<path d="M8926 1622
L8926 7622
" />
</g> 
</svg>
