G04 #@! TF.FileFunction,Copper,L1,Top,Signal*
%FSLAX46Y46*%
G04 Gerber Fmt 4.6, Leading zero omitted, Abs format (unit mm)*
G04 Created by KiCad (PCBNEW 4.0.2-stable) date Sunday, 07 August 2016 'pmt' 12:27:50*
%MOMM*%
G01*
G04 APERTURE LIST*
%ADD10C,0.100000*%
%ADD11R,1.727200X1.727200*%
%ADD12O,1.727200X1.727200*%
%ADD13R,2.032000X2.032000*%
%ADD14C,2.032000*%
%ADD15R,2.540000X2.540000*%
%ADD16C,2.540000*%
G04 APERTURE END LIST*
D10*
D11*
X188595000Y-41910000D03*
D12*
X191135000Y-41910000D03*
X188595000Y-44450000D03*
X191135000Y-44450000D03*
D13*
X147955000Y-46355000D03*
D14*
X150495000Y-46355000D03*
X153035000Y-46355000D03*
X155575000Y-46355000D03*
X158115000Y-46355000D03*
X160655000Y-46355000D03*
X163195000Y-46355000D03*
X165735000Y-46355000D03*
X168275000Y-46355000D03*
X170815000Y-46355000D03*
X173355000Y-46355000D03*
X175895000Y-46355000D03*
X178435000Y-46355000D03*
X180975000Y-46355000D03*
X180975000Y-38735000D03*
X178435000Y-38735000D03*
X175895000Y-38735000D03*
X173355000Y-38735000D03*
X170815000Y-38735000D03*
X168275000Y-38735000D03*
X165735000Y-38735000D03*
X163195000Y-38735000D03*
X160655000Y-38735000D03*
X158115000Y-38735000D03*
X155575000Y-38735000D03*
X153035000Y-38735000D03*
X150495000Y-38735000D03*
X147955000Y-38735000D03*
D15*
X76200000Y-19431000D03*
D16*
X76200000Y-24130000D03*
X76200000Y-28829000D03*
D15*
X88900000Y-19431000D03*
D16*
X88900000Y-24130000D03*
X88900000Y-28829000D03*
D15*
X101600000Y-19431000D03*
D16*
X101600000Y-24130000D03*
X101600000Y-28829000D03*
D15*
X114300000Y-19431000D03*
D16*
X114300000Y-24130000D03*
X114300000Y-28829000D03*
D15*
X127000000Y-19431000D03*
D16*
X127000000Y-24130000D03*
X127000000Y-28829000D03*
D15*
X139700000Y-19431000D03*
D16*
X139700000Y-24130000D03*
X139700000Y-28829000D03*
D15*
X152400000Y-19431000D03*
D16*
X152400000Y-24130000D03*
X152400000Y-28829000D03*
D15*
X165100000Y-19431000D03*
D16*
X165100000Y-24130000D03*
X165100000Y-28829000D03*
D15*
X177800000Y-19431000D03*
D16*
X177800000Y-24130000D03*
X177800000Y-28829000D03*
D15*
X190500000Y-19431000D03*
D16*
X190500000Y-24130000D03*
X190500000Y-28829000D03*
D15*
X203200000Y-19431000D03*
D16*
X203200000Y-24130000D03*
X203200000Y-28829000D03*
D15*
X215900000Y-19431000D03*
D16*
X215900000Y-24130000D03*
X215900000Y-28829000D03*
D15*
X228600000Y-19431000D03*
D16*
X228600000Y-24130000D03*
X228600000Y-28829000D03*
D15*
X241300000Y-19431000D03*
D16*
X241300000Y-24130000D03*
X241300000Y-28829000D03*
D15*
X254000000Y-19431000D03*
D16*
X254000000Y-24130000D03*
X254000000Y-28829000D03*
D15*
X266700000Y-19431000D03*
D16*
X266700000Y-24130000D03*
X266700000Y-28829000D03*
M02*
