G04 #@! TF.FileFunction,Copper,L1,Top,Signal*
%FSLAX46Y46*%
G04 Gerber Fmt 4.6, Leading zero omitted, Abs format (unit mm)*
G04 Created by KiCad (PCBNEW 4.0.2-stable) date Wednesday, 27 July 2016 'pmt' 13:43:49*
%MOMM*%
G01*
G04 APERTURE LIST*
%ADD10C,0.100000*%
%ADD11C,1.998980*%
%ADD12R,1.900000X2.000000*%
%ADD13C,1.900000*%
%ADD14R,3.500120X3.500120*%
%ADD15R,2.540000X2.540000*%
%ADD16C,2.540000*%
%ADD17C,1.000000*%
%ADD18C,0.500000*%
%ADD19C,0.254000*%
G04 APERTURE END LIST*
D10*
D11*
X126365000Y-78740000D03*
X130175000Y-78740000D03*
D12*
X179070000Y-85090000D03*
D13*
X176530000Y-85090000D03*
D11*
X161290000Y-85090000D03*
X171450000Y-85090000D03*
X161290000Y-95250000D03*
X171450000Y-95250000D03*
D14*
X139700000Y-93830140D03*
X139700000Y-87830660D03*
X135001000Y-90830400D03*
D12*
X179070000Y-93980000D03*
D13*
X176530000Y-93980000D03*
D15*
X153289000Y-94869000D03*
D16*
X153289000Y-90170000D03*
X153289000Y-85471000D03*
D17*
X124479990Y-92729990D02*
X125710010Y-92729990D01*
D18*
X123962218Y-93980000D02*
X121920000Y-91937782D01*
X125730000Y-93980000D02*
X123962218Y-93980000D01*
X121920000Y-91937782D02*
X121920000Y-90170000D01*
D17*
X123190000Y-88900000D02*
X123190000Y-91440000D01*
X123190000Y-91440000D02*
X124479990Y-92729990D01*
X134620000Y-81280000D02*
X133350000Y-81280000D01*
X121920000Y-81280000D02*
X121920000Y-82550000D01*
X121920000Y-81280000D02*
X121920000Y-80010000D01*
X123190000Y-81280000D02*
X121920000Y-81280000D01*
X120650000Y-81280000D02*
X123190000Y-81280000D01*
X134620000Y-81280000D02*
X135890000Y-81280000D01*
X126365000Y-78740000D02*
X126365000Y-79375000D01*
X126365000Y-79375000D02*
X125730000Y-80010000D01*
X125730000Y-86859522D02*
X125730000Y-80010000D01*
X139700000Y-93830140D02*
X132700618Y-93830140D01*
X132700618Y-93830140D02*
X125730000Y-86859522D01*
X153289000Y-90170000D02*
X143360140Y-90170000D01*
X143360140Y-90170000D02*
X139700000Y-93830140D01*
X130175000Y-78740000D02*
X130175000Y-79375000D01*
X130175000Y-79375000D02*
X130810000Y-80010000D01*
X130810000Y-85090000D02*
X130810000Y-80010000D01*
X133550660Y-87830660D02*
X130810000Y-85090000D01*
X139700000Y-87830660D02*
X133550660Y-87830660D01*
X179070000Y-85090000D02*
X179070000Y-93980000D01*
X139700000Y-87830660D02*
X139700000Y-85080600D01*
X139700000Y-85080600D02*
X141690091Y-83090509D01*
X141690091Y-83090509D02*
X177416511Y-83090509D01*
X179070000Y-84743998D02*
X179070000Y-85090000D01*
X177416511Y-83090509D02*
X179070000Y-84743998D01*
X176530000Y-85090000D02*
X171450000Y-85090000D01*
X176530000Y-93980000D02*
X172720000Y-93980000D01*
X172720000Y-93980000D02*
X171450000Y-95250000D01*
X161290000Y-85090000D02*
X153670000Y-85090000D01*
X153670000Y-85090000D02*
X153289000Y-85471000D01*
X161290000Y-95250000D02*
X153670000Y-95250000D01*
X153670000Y-95250000D02*
X153289000Y-94869000D01*
D19*
G36*
X124730794Y-78413453D02*
X124730226Y-79063694D01*
X124842278Y-79334879D01*
X124681397Y-79575654D01*
X124595000Y-80010000D01*
X124595000Y-86859522D01*
X124681397Y-87293868D01*
X124849138Y-87544910D01*
X124927434Y-87662088D01*
X131898052Y-94632707D01*
X132266273Y-94878744D01*
X132700618Y-94965140D01*
X137302500Y-94965140D01*
X137302500Y-95580200D01*
X137346778Y-95815517D01*
X137485850Y-96031641D01*
X137698050Y-96176631D01*
X137949940Y-96227640D01*
X141450060Y-96227640D01*
X141685377Y-96183362D01*
X141901501Y-96044290D01*
X142046491Y-95832090D01*
X142097500Y-95580200D01*
X142097500Y-93599000D01*
X151371560Y-93599000D01*
X151371560Y-96139000D01*
X151415838Y-96374317D01*
X151554910Y-96590441D01*
X151767110Y-96735431D01*
X152019000Y-96786440D01*
X154559000Y-96786440D01*
X154794317Y-96742162D01*
X155010441Y-96603090D01*
X155155431Y-96390890D01*
X155156624Y-96385000D01*
X160113516Y-96385000D01*
X160362927Y-96634846D01*
X160963453Y-96884206D01*
X161613694Y-96884774D01*
X162214655Y-96636462D01*
X162674846Y-96177073D01*
X162924206Y-95576547D01*
X162924208Y-95573694D01*
X169815226Y-95573694D01*
X170063538Y-96174655D01*
X170522927Y-96634846D01*
X171123453Y-96884206D01*
X171773694Y-96884774D01*
X172374655Y-96636462D01*
X172834846Y-96177073D01*
X173084206Y-95576547D01*
X173084517Y-95220615D01*
X173190132Y-95115000D01*
X175423446Y-95115000D01*
X175630997Y-95322914D01*
X176213341Y-95564724D01*
X176843893Y-95565275D01*
X177426657Y-95324481D01*
X177531867Y-95219455D01*
X177581673Y-95339698D01*
X177760301Y-95518327D01*
X177993690Y-95615000D01*
X178784250Y-95615000D01*
X178943000Y-95456250D01*
X178943000Y-94107000D01*
X179197000Y-94107000D01*
X179197000Y-95456250D01*
X179355750Y-95615000D01*
X180146310Y-95615000D01*
X180379699Y-95518327D01*
X180558327Y-95339698D01*
X180655000Y-95106309D01*
X180655000Y-94265750D01*
X180496250Y-94107000D01*
X179197000Y-94107000D01*
X178943000Y-94107000D01*
X178923000Y-94107000D01*
X178923000Y-93853000D01*
X178943000Y-93853000D01*
X178943000Y-92503750D01*
X179197000Y-92503750D01*
X179197000Y-93853000D01*
X180496250Y-93853000D01*
X180655000Y-93694250D01*
X180655000Y-92853691D01*
X180558327Y-92620302D01*
X180379699Y-92441673D01*
X180146310Y-92345000D01*
X179355750Y-92345000D01*
X179197000Y-92503750D01*
X178943000Y-92503750D01*
X178784250Y-92345000D01*
X177993690Y-92345000D01*
X177760301Y-92441673D01*
X177581673Y-92620302D01*
X177531988Y-92740251D01*
X177429003Y-92637086D01*
X176846659Y-92395276D01*
X176216107Y-92394725D01*
X175633343Y-92635519D01*
X175423496Y-92845000D01*
X172720000Y-92845000D01*
X172285654Y-92931397D01*
X172116309Y-93044550D01*
X171917434Y-93177434D01*
X171479334Y-93615534D01*
X171126306Y-93615226D01*
X170525345Y-93863538D01*
X170065154Y-94322927D01*
X169815794Y-94923453D01*
X169815226Y-95573694D01*
X162924208Y-95573694D01*
X162924774Y-94926306D01*
X162676462Y-94325345D01*
X162217073Y-93865154D01*
X161616547Y-93615794D01*
X160966306Y-93615226D01*
X160365345Y-93863538D01*
X160113444Y-94115000D01*
X155206440Y-94115000D01*
X155206440Y-93599000D01*
X155162162Y-93363683D01*
X155023090Y-93147559D01*
X154810890Y-93002569D01*
X154559000Y-92951560D01*
X152019000Y-92951560D01*
X151783683Y-92995838D01*
X151567559Y-93134910D01*
X151422569Y-93347110D01*
X151371560Y-93599000D01*
X142097500Y-93599000D01*
X142097500Y-93037772D01*
X143830272Y-91305000D01*
X151730292Y-91305000D01*
X152208495Y-91784039D01*
X152908410Y-92074668D01*
X153666265Y-92075330D01*
X154366686Y-91785922D01*
X154903039Y-91250505D01*
X155193668Y-90550590D01*
X155194330Y-89792735D01*
X154904922Y-89092314D01*
X154369505Y-88555961D01*
X153669590Y-88265332D01*
X152911735Y-88264670D01*
X152211314Y-88554078D01*
X151729551Y-89035000D01*
X143360140Y-89035000D01*
X142925795Y-89121396D01*
X142557574Y-89367434D01*
X141991072Y-89933936D01*
X142085060Y-89707029D01*
X142085060Y-88116410D01*
X141926310Y-87957660D01*
X139827000Y-87957660D01*
X139827000Y-90056970D01*
X139985750Y-90215720D01*
X141576370Y-90215720D01*
X141803275Y-90121733D01*
X140492368Y-91432640D01*
X137949940Y-91432640D01*
X137714623Y-91476918D01*
X137498499Y-91615990D01*
X137398500Y-91762343D01*
X137398500Y-89908760D01*
X137411613Y-89940418D01*
X137590241Y-90119047D01*
X137823630Y-90215720D01*
X139414250Y-90215720D01*
X139573000Y-90056970D01*
X139573000Y-87957660D01*
X137473690Y-87957660D01*
X137314940Y-88116410D01*
X137314940Y-88783977D01*
X137215150Y-88628899D01*
X137002950Y-88483909D01*
X136751060Y-88432900D01*
X133250940Y-88432900D01*
X133015623Y-88477178D01*
X132799499Y-88616250D01*
X132654509Y-88828450D01*
X132603500Y-89080340D01*
X132603500Y-92127889D01*
X126865000Y-86389390D01*
X126865000Y-85954291D01*
X137314940Y-85954291D01*
X137314940Y-87544910D01*
X137473690Y-87703660D01*
X139573000Y-87703660D01*
X139573000Y-85604350D01*
X139827000Y-85604350D01*
X139827000Y-87703660D01*
X141926310Y-87703660D01*
X142085060Y-87544910D01*
X142085060Y-85954291D01*
X142041143Y-85848265D01*
X151383670Y-85848265D01*
X151673078Y-86548686D01*
X152208495Y-87085039D01*
X152908410Y-87375668D01*
X153666265Y-87376330D01*
X154366686Y-87086922D01*
X154903039Y-86551505D01*
X155038615Y-86225000D01*
X160113516Y-86225000D01*
X160362927Y-86474846D01*
X160963453Y-86724206D01*
X161613694Y-86724774D01*
X162214655Y-86476462D01*
X162674846Y-86017073D01*
X162924206Y-85416547D01*
X162924208Y-85413694D01*
X169815226Y-85413694D01*
X170063538Y-86014655D01*
X170522927Y-86474846D01*
X171123453Y-86724206D01*
X171773694Y-86724774D01*
X172374655Y-86476462D01*
X172626556Y-86225000D01*
X175423446Y-86225000D01*
X175630997Y-86432914D01*
X176213341Y-86674724D01*
X176843893Y-86675275D01*
X177426657Y-86434481D01*
X177531867Y-86329455D01*
X177581673Y-86449698D01*
X177760301Y-86628327D01*
X177993690Y-86725000D01*
X178784250Y-86725000D01*
X178943000Y-86566250D01*
X178943000Y-85217000D01*
X179197000Y-85217000D01*
X179197000Y-86566250D01*
X179355750Y-86725000D01*
X180146310Y-86725000D01*
X180379699Y-86628327D01*
X180558327Y-86449698D01*
X180655000Y-86216309D01*
X180655000Y-85375750D01*
X180496250Y-85217000D01*
X179197000Y-85217000D01*
X178943000Y-85217000D01*
X178923000Y-85217000D01*
X178923000Y-84963000D01*
X178943000Y-84963000D01*
X178943000Y-83613750D01*
X179197000Y-83613750D01*
X179197000Y-84963000D01*
X180496250Y-84963000D01*
X180655000Y-84804250D01*
X180655000Y-83963691D01*
X180558327Y-83730302D01*
X180379699Y-83551673D01*
X180146310Y-83455000D01*
X179355750Y-83455000D01*
X179197000Y-83613750D01*
X178943000Y-83613750D01*
X178784250Y-83455000D01*
X177993690Y-83455000D01*
X177760301Y-83551673D01*
X177581673Y-83730302D01*
X177531988Y-83850251D01*
X177429003Y-83747086D01*
X176846659Y-83505276D01*
X176216107Y-83504725D01*
X175633343Y-83745519D01*
X175423496Y-83955000D01*
X172626484Y-83955000D01*
X172377073Y-83705154D01*
X171776547Y-83455794D01*
X171126306Y-83455226D01*
X170525345Y-83703538D01*
X170065154Y-84162927D01*
X169815794Y-84763453D01*
X169815226Y-85413694D01*
X162924208Y-85413694D01*
X162924774Y-84766306D01*
X162676462Y-84165345D01*
X162217073Y-83705154D01*
X161616547Y-83455794D01*
X160966306Y-83455226D01*
X160365345Y-83703538D01*
X160113444Y-83955000D01*
X154467373Y-83955000D01*
X154369505Y-83856961D01*
X153669590Y-83566332D01*
X152911735Y-83565670D01*
X152211314Y-83855078D01*
X151674961Y-84390495D01*
X151384332Y-85090410D01*
X151383670Y-85848265D01*
X142041143Y-85848265D01*
X141988387Y-85720902D01*
X141809759Y-85542273D01*
X141576370Y-85445600D01*
X139985750Y-85445600D01*
X139827000Y-85604350D01*
X139573000Y-85604350D01*
X139414250Y-85445600D01*
X137823630Y-85445600D01*
X137590241Y-85542273D01*
X137411613Y-85720902D01*
X137314940Y-85954291D01*
X126865000Y-85954291D01*
X126865000Y-81280000D01*
X132215000Y-81280000D01*
X132301397Y-81714346D01*
X132547434Y-82082566D01*
X132915654Y-82328603D01*
X133350000Y-82415000D01*
X135890000Y-82415000D01*
X136324346Y-82328603D01*
X136692566Y-82082566D01*
X136938603Y-81714346D01*
X137025000Y-81280000D01*
X136938603Y-80845654D01*
X136692566Y-80477434D01*
X136324346Y-80231397D01*
X135890000Y-80145000D01*
X133350000Y-80145000D01*
X132915654Y-80231397D01*
X132547434Y-80477434D01*
X132301397Y-80845654D01*
X132215000Y-81280000D01*
X126865000Y-81280000D01*
X126865000Y-80301926D01*
X127289655Y-80126462D01*
X127749846Y-79667073D01*
X127999206Y-79066547D01*
X127999774Y-78416306D01*
X127891805Y-78155000D01*
X128648113Y-78155000D01*
X128540794Y-78413453D01*
X128540226Y-79063694D01*
X128788538Y-79664655D01*
X129247927Y-80124846D01*
X129848453Y-80374206D01*
X130498694Y-80374774D01*
X131099655Y-80126462D01*
X131559846Y-79667073D01*
X131809206Y-79066547D01*
X131809774Y-78416306D01*
X131701805Y-78155000D01*
X182195000Y-78155000D01*
X182195000Y-98375000D01*
X117525000Y-98375000D01*
X117525000Y-91937782D01*
X121034999Y-91937782D01*
X121091190Y-92220266D01*
X121102367Y-92276457D01*
X121294210Y-92563572D01*
X123336426Y-94605787D01*
X123336428Y-94605790D01*
X123623543Y-94797633D01*
X123962218Y-94865000D01*
X125730000Y-94865000D01*
X126068675Y-94797633D01*
X126355790Y-94605790D01*
X126547633Y-94318675D01*
X126615000Y-93980000D01*
X126547633Y-93641325D01*
X126486568Y-93549934D01*
X126512576Y-93532556D01*
X126758613Y-93164336D01*
X126845010Y-92729990D01*
X126758613Y-92295644D01*
X126512576Y-91927424D01*
X126144356Y-91681387D01*
X125710010Y-91594990D01*
X124950122Y-91594990D01*
X124325000Y-90969868D01*
X124325000Y-88900000D01*
X124238603Y-88465654D01*
X123992566Y-88097434D01*
X123624346Y-87851397D01*
X123190000Y-87765000D01*
X122755654Y-87851397D01*
X122387434Y-88097434D01*
X122141397Y-88465654D01*
X122055000Y-88900000D01*
X122055000Y-89311853D01*
X121920000Y-89285000D01*
X121581325Y-89352367D01*
X121294210Y-89544210D01*
X121102367Y-89831325D01*
X121035000Y-90170000D01*
X121035000Y-91937777D01*
X121034999Y-91937782D01*
X117525000Y-91937782D01*
X117525000Y-81280000D01*
X119515000Y-81280000D01*
X119601397Y-81714346D01*
X119847434Y-82082566D01*
X120215654Y-82328603D01*
X120650000Y-82415000D01*
X120785000Y-82415000D01*
X120785000Y-82550000D01*
X120871397Y-82984346D01*
X121117434Y-83352566D01*
X121485654Y-83598603D01*
X121920000Y-83685000D01*
X122354346Y-83598603D01*
X122722566Y-83352566D01*
X122968603Y-82984346D01*
X123055000Y-82550000D01*
X123055000Y-82415000D01*
X123190000Y-82415000D01*
X123624346Y-82328603D01*
X123992566Y-82082566D01*
X124238603Y-81714346D01*
X124325000Y-81280000D01*
X124238603Y-80845654D01*
X123992566Y-80477434D01*
X123624346Y-80231397D01*
X123190000Y-80145000D01*
X123055000Y-80145000D01*
X123055000Y-80010000D01*
X122968603Y-79575654D01*
X122722566Y-79207434D01*
X122354346Y-78961397D01*
X121920000Y-78875000D01*
X121485654Y-78961397D01*
X121117434Y-79207434D01*
X120871397Y-79575654D01*
X120785000Y-80010000D01*
X120785000Y-80145000D01*
X120650000Y-80145000D01*
X120215654Y-80231397D01*
X119847434Y-80477434D01*
X119601397Y-80845654D01*
X119515000Y-81280000D01*
X117525000Y-81280000D01*
X117525000Y-78155000D01*
X124838113Y-78155000D01*
X124730794Y-78413453D01*
X124730794Y-78413453D01*
G37*
X124730794Y-78413453D02*
X124730226Y-79063694D01*
X124842278Y-79334879D01*
X124681397Y-79575654D01*
X124595000Y-80010000D01*
X124595000Y-86859522D01*
X124681397Y-87293868D01*
X124849138Y-87544910D01*
X124927434Y-87662088D01*
X131898052Y-94632707D01*
X132266273Y-94878744D01*
X132700618Y-94965140D01*
X137302500Y-94965140D01*
X137302500Y-95580200D01*
X137346778Y-95815517D01*
X137485850Y-96031641D01*
X137698050Y-96176631D01*
X137949940Y-96227640D01*
X141450060Y-96227640D01*
X141685377Y-96183362D01*
X141901501Y-96044290D01*
X142046491Y-95832090D01*
X142097500Y-95580200D01*
X142097500Y-93599000D01*
X151371560Y-93599000D01*
X151371560Y-96139000D01*
X151415838Y-96374317D01*
X151554910Y-96590441D01*
X151767110Y-96735431D01*
X152019000Y-96786440D01*
X154559000Y-96786440D01*
X154794317Y-96742162D01*
X155010441Y-96603090D01*
X155155431Y-96390890D01*
X155156624Y-96385000D01*
X160113516Y-96385000D01*
X160362927Y-96634846D01*
X160963453Y-96884206D01*
X161613694Y-96884774D01*
X162214655Y-96636462D01*
X162674846Y-96177073D01*
X162924206Y-95576547D01*
X162924208Y-95573694D01*
X169815226Y-95573694D01*
X170063538Y-96174655D01*
X170522927Y-96634846D01*
X171123453Y-96884206D01*
X171773694Y-96884774D01*
X172374655Y-96636462D01*
X172834846Y-96177073D01*
X173084206Y-95576547D01*
X173084517Y-95220615D01*
X173190132Y-95115000D01*
X175423446Y-95115000D01*
X175630997Y-95322914D01*
X176213341Y-95564724D01*
X176843893Y-95565275D01*
X177426657Y-95324481D01*
X177531867Y-95219455D01*
X177581673Y-95339698D01*
X177760301Y-95518327D01*
X177993690Y-95615000D01*
X178784250Y-95615000D01*
X178943000Y-95456250D01*
X178943000Y-94107000D01*
X179197000Y-94107000D01*
X179197000Y-95456250D01*
X179355750Y-95615000D01*
X180146310Y-95615000D01*
X180379699Y-95518327D01*
X180558327Y-95339698D01*
X180655000Y-95106309D01*
X180655000Y-94265750D01*
X180496250Y-94107000D01*
X179197000Y-94107000D01*
X178943000Y-94107000D01*
X178923000Y-94107000D01*
X178923000Y-93853000D01*
X178943000Y-93853000D01*
X178943000Y-92503750D01*
X179197000Y-92503750D01*
X179197000Y-93853000D01*
X180496250Y-93853000D01*
X180655000Y-93694250D01*
X180655000Y-92853691D01*
X180558327Y-92620302D01*
X180379699Y-92441673D01*
X180146310Y-92345000D01*
X179355750Y-92345000D01*
X179197000Y-92503750D01*
X178943000Y-92503750D01*
X178784250Y-92345000D01*
X177993690Y-92345000D01*
X177760301Y-92441673D01*
X177581673Y-92620302D01*
X177531988Y-92740251D01*
X177429003Y-92637086D01*
X176846659Y-92395276D01*
X176216107Y-92394725D01*
X175633343Y-92635519D01*
X175423496Y-92845000D01*
X172720000Y-92845000D01*
X172285654Y-92931397D01*
X172116309Y-93044550D01*
X171917434Y-93177434D01*
X171479334Y-93615534D01*
X171126306Y-93615226D01*
X170525345Y-93863538D01*
X170065154Y-94322927D01*
X169815794Y-94923453D01*
X169815226Y-95573694D01*
X162924208Y-95573694D01*
X162924774Y-94926306D01*
X162676462Y-94325345D01*
X162217073Y-93865154D01*
X161616547Y-93615794D01*
X160966306Y-93615226D01*
X160365345Y-93863538D01*
X160113444Y-94115000D01*
X155206440Y-94115000D01*
X155206440Y-93599000D01*
X155162162Y-93363683D01*
X155023090Y-93147559D01*
X154810890Y-93002569D01*
X154559000Y-92951560D01*
X152019000Y-92951560D01*
X151783683Y-92995838D01*
X151567559Y-93134910D01*
X151422569Y-93347110D01*
X151371560Y-93599000D01*
X142097500Y-93599000D01*
X142097500Y-93037772D01*
X143830272Y-91305000D01*
X151730292Y-91305000D01*
X152208495Y-91784039D01*
X152908410Y-92074668D01*
X153666265Y-92075330D01*
X154366686Y-91785922D01*
X154903039Y-91250505D01*
X155193668Y-90550590D01*
X155194330Y-89792735D01*
X154904922Y-89092314D01*
X154369505Y-88555961D01*
X153669590Y-88265332D01*
X152911735Y-88264670D01*
X152211314Y-88554078D01*
X151729551Y-89035000D01*
X143360140Y-89035000D01*
X142925795Y-89121396D01*
X142557574Y-89367434D01*
X141991072Y-89933936D01*
X142085060Y-89707029D01*
X142085060Y-88116410D01*
X141926310Y-87957660D01*
X139827000Y-87957660D01*
X139827000Y-90056970D01*
X139985750Y-90215720D01*
X141576370Y-90215720D01*
X141803275Y-90121733D01*
X140492368Y-91432640D01*
X137949940Y-91432640D01*
X137714623Y-91476918D01*
X137498499Y-91615990D01*
X137398500Y-91762343D01*
X137398500Y-89908760D01*
X137411613Y-89940418D01*
X137590241Y-90119047D01*
X137823630Y-90215720D01*
X139414250Y-90215720D01*
X139573000Y-90056970D01*
X139573000Y-87957660D01*
X137473690Y-87957660D01*
X137314940Y-88116410D01*
X137314940Y-88783977D01*
X137215150Y-88628899D01*
X137002950Y-88483909D01*
X136751060Y-88432900D01*
X133250940Y-88432900D01*
X133015623Y-88477178D01*
X132799499Y-88616250D01*
X132654509Y-88828450D01*
X132603500Y-89080340D01*
X132603500Y-92127889D01*
X126865000Y-86389390D01*
X126865000Y-85954291D01*
X137314940Y-85954291D01*
X137314940Y-87544910D01*
X137473690Y-87703660D01*
X139573000Y-87703660D01*
X139573000Y-85604350D01*
X139827000Y-85604350D01*
X139827000Y-87703660D01*
X141926310Y-87703660D01*
X142085060Y-87544910D01*
X142085060Y-85954291D01*
X142041143Y-85848265D01*
X151383670Y-85848265D01*
X151673078Y-86548686D01*
X152208495Y-87085039D01*
X152908410Y-87375668D01*
X153666265Y-87376330D01*
X154366686Y-87086922D01*
X154903039Y-86551505D01*
X155038615Y-86225000D01*
X160113516Y-86225000D01*
X160362927Y-86474846D01*
X160963453Y-86724206D01*
X161613694Y-86724774D01*
X162214655Y-86476462D01*
X162674846Y-86017073D01*
X162924206Y-85416547D01*
X162924208Y-85413694D01*
X169815226Y-85413694D01*
X170063538Y-86014655D01*
X170522927Y-86474846D01*
X171123453Y-86724206D01*
X171773694Y-86724774D01*
X172374655Y-86476462D01*
X172626556Y-86225000D01*
X175423446Y-86225000D01*
X175630997Y-86432914D01*
X176213341Y-86674724D01*
X176843893Y-86675275D01*
X177426657Y-86434481D01*
X177531867Y-86329455D01*
X177581673Y-86449698D01*
X177760301Y-86628327D01*
X177993690Y-86725000D01*
X178784250Y-86725000D01*
X178943000Y-86566250D01*
X178943000Y-85217000D01*
X179197000Y-85217000D01*
X179197000Y-86566250D01*
X179355750Y-86725000D01*
X180146310Y-86725000D01*
X180379699Y-86628327D01*
X180558327Y-86449698D01*
X180655000Y-86216309D01*
X180655000Y-85375750D01*
X180496250Y-85217000D01*
X179197000Y-85217000D01*
X178943000Y-85217000D01*
X178923000Y-85217000D01*
X178923000Y-84963000D01*
X178943000Y-84963000D01*
X178943000Y-83613750D01*
X179197000Y-83613750D01*
X179197000Y-84963000D01*
X180496250Y-84963000D01*
X180655000Y-84804250D01*
X180655000Y-83963691D01*
X180558327Y-83730302D01*
X180379699Y-83551673D01*
X180146310Y-83455000D01*
X179355750Y-83455000D01*
X179197000Y-83613750D01*
X178943000Y-83613750D01*
X178784250Y-83455000D01*
X177993690Y-83455000D01*
X177760301Y-83551673D01*
X177581673Y-83730302D01*
X177531988Y-83850251D01*
X177429003Y-83747086D01*
X176846659Y-83505276D01*
X176216107Y-83504725D01*
X175633343Y-83745519D01*
X175423496Y-83955000D01*
X172626484Y-83955000D01*
X172377073Y-83705154D01*
X171776547Y-83455794D01*
X171126306Y-83455226D01*
X170525345Y-83703538D01*
X170065154Y-84162927D01*
X169815794Y-84763453D01*
X169815226Y-85413694D01*
X162924208Y-85413694D01*
X162924774Y-84766306D01*
X162676462Y-84165345D01*
X162217073Y-83705154D01*
X161616547Y-83455794D01*
X160966306Y-83455226D01*
X160365345Y-83703538D01*
X160113444Y-83955000D01*
X154467373Y-83955000D01*
X154369505Y-83856961D01*
X153669590Y-83566332D01*
X152911735Y-83565670D01*
X152211314Y-83855078D01*
X151674961Y-84390495D01*
X151384332Y-85090410D01*
X151383670Y-85848265D01*
X142041143Y-85848265D01*
X141988387Y-85720902D01*
X141809759Y-85542273D01*
X141576370Y-85445600D01*
X139985750Y-85445600D01*
X139827000Y-85604350D01*
X139573000Y-85604350D01*
X139414250Y-85445600D01*
X137823630Y-85445600D01*
X137590241Y-85542273D01*
X137411613Y-85720902D01*
X137314940Y-85954291D01*
X126865000Y-85954291D01*
X126865000Y-81280000D01*
X132215000Y-81280000D01*
X132301397Y-81714346D01*
X132547434Y-82082566D01*
X132915654Y-82328603D01*
X133350000Y-82415000D01*
X135890000Y-82415000D01*
X136324346Y-82328603D01*
X136692566Y-82082566D01*
X136938603Y-81714346D01*
X137025000Y-81280000D01*
X136938603Y-80845654D01*
X136692566Y-80477434D01*
X136324346Y-80231397D01*
X135890000Y-80145000D01*
X133350000Y-80145000D01*
X132915654Y-80231397D01*
X132547434Y-80477434D01*
X132301397Y-80845654D01*
X132215000Y-81280000D01*
X126865000Y-81280000D01*
X126865000Y-80301926D01*
X127289655Y-80126462D01*
X127749846Y-79667073D01*
X127999206Y-79066547D01*
X127999774Y-78416306D01*
X127891805Y-78155000D01*
X128648113Y-78155000D01*
X128540794Y-78413453D01*
X128540226Y-79063694D01*
X128788538Y-79664655D01*
X129247927Y-80124846D01*
X129848453Y-80374206D01*
X130498694Y-80374774D01*
X131099655Y-80126462D01*
X131559846Y-79667073D01*
X131809206Y-79066547D01*
X131809774Y-78416306D01*
X131701805Y-78155000D01*
X182195000Y-78155000D01*
X182195000Y-98375000D01*
X117525000Y-98375000D01*
X117525000Y-91937782D01*
X121034999Y-91937782D01*
X121091190Y-92220266D01*
X121102367Y-92276457D01*
X121294210Y-92563572D01*
X123336426Y-94605787D01*
X123336428Y-94605790D01*
X123623543Y-94797633D01*
X123962218Y-94865000D01*
X125730000Y-94865000D01*
X126068675Y-94797633D01*
X126355790Y-94605790D01*
X126547633Y-94318675D01*
X126615000Y-93980000D01*
X126547633Y-93641325D01*
X126486568Y-93549934D01*
X126512576Y-93532556D01*
X126758613Y-93164336D01*
X126845010Y-92729990D01*
X126758613Y-92295644D01*
X126512576Y-91927424D01*
X126144356Y-91681387D01*
X125710010Y-91594990D01*
X124950122Y-91594990D01*
X124325000Y-90969868D01*
X124325000Y-88900000D01*
X124238603Y-88465654D01*
X123992566Y-88097434D01*
X123624346Y-87851397D01*
X123190000Y-87765000D01*
X122755654Y-87851397D01*
X122387434Y-88097434D01*
X122141397Y-88465654D01*
X122055000Y-88900000D01*
X122055000Y-89311853D01*
X121920000Y-89285000D01*
X121581325Y-89352367D01*
X121294210Y-89544210D01*
X121102367Y-89831325D01*
X121035000Y-90170000D01*
X121035000Y-91937777D01*
X121034999Y-91937782D01*
X117525000Y-91937782D01*
X117525000Y-81280000D01*
X119515000Y-81280000D01*
X119601397Y-81714346D01*
X119847434Y-82082566D01*
X120215654Y-82328603D01*
X120650000Y-82415000D01*
X120785000Y-82415000D01*
X120785000Y-82550000D01*
X120871397Y-82984346D01*
X121117434Y-83352566D01*
X121485654Y-83598603D01*
X121920000Y-83685000D01*
X122354346Y-83598603D01*
X122722566Y-83352566D01*
X122968603Y-82984346D01*
X123055000Y-82550000D01*
X123055000Y-82415000D01*
X123190000Y-82415000D01*
X123624346Y-82328603D01*
X123992566Y-82082566D01*
X124238603Y-81714346D01*
X124325000Y-81280000D01*
X124238603Y-80845654D01*
X123992566Y-80477434D01*
X123624346Y-80231397D01*
X123190000Y-80145000D01*
X123055000Y-80145000D01*
X123055000Y-80010000D01*
X122968603Y-79575654D01*
X122722566Y-79207434D01*
X122354346Y-78961397D01*
X121920000Y-78875000D01*
X121485654Y-78961397D01*
X121117434Y-79207434D01*
X120871397Y-79575654D01*
X120785000Y-80010000D01*
X120785000Y-80145000D01*
X120650000Y-80145000D01*
X120215654Y-80231397D01*
X119847434Y-80477434D01*
X119601397Y-80845654D01*
X119515000Y-81280000D01*
X117525000Y-81280000D01*
X117525000Y-78155000D01*
X124838113Y-78155000D01*
X124730794Y-78413453D01*
M02*
