G04 #@! TF.FileFunction,Other,Fab,Bot*
%FSLAX46Y46*%
G04 Gerber Fmt 4.6, Leading zero omitted, Abs format (unit mm)*
G04 Created by KiCad (PCBNEW 4.0.2-stable) date 12/08/2016 19:46:14*
%MOMM*%
G01*
G04 APERTURE LIST*
%ADD10C,0.100000*%
%ADD11C,0.150000*%
G04 APERTURE END LIST*
D10*
D11*
X265200000Y-31130000D02*
X265200000Y-29130000D01*
X268200000Y-31130000D02*
X265200000Y-31130000D01*
X268200000Y-29130000D02*
X268200000Y-31130000D01*
X265200000Y-29130000D02*
X268200000Y-29130000D01*
X269875000Y-24130000D02*
G75*
G03X269875000Y-24130000I-3175000J0D01*
G01*
X252500000Y-31130000D02*
X252500000Y-29130000D01*
X255500000Y-31130000D02*
X252500000Y-31130000D01*
X255500000Y-29130000D02*
X255500000Y-31130000D01*
X252500000Y-29130000D02*
X255500000Y-29130000D01*
X257175000Y-24130000D02*
G75*
G03X257175000Y-24130000I-3175000J0D01*
G01*
X239800000Y-31130000D02*
X239800000Y-29130000D01*
X242800000Y-31130000D02*
X239800000Y-31130000D01*
X242800000Y-29130000D02*
X242800000Y-31130000D01*
X239800000Y-29130000D02*
X242800000Y-29130000D01*
X244475000Y-24130000D02*
G75*
G03X244475000Y-24130000I-3175000J0D01*
G01*
X227100000Y-31130000D02*
X227100000Y-29130000D01*
X230100000Y-31130000D02*
X227100000Y-31130000D01*
X230100000Y-29130000D02*
X230100000Y-31130000D01*
X227100000Y-29130000D02*
X230100000Y-29130000D01*
X231775000Y-24130000D02*
G75*
G03X231775000Y-24130000I-3175000J0D01*
G01*
X214400000Y-31130000D02*
X214400000Y-29130000D01*
X217400000Y-31130000D02*
X214400000Y-31130000D01*
X217400000Y-29130000D02*
X217400000Y-31130000D01*
X214400000Y-29130000D02*
X217400000Y-29130000D01*
X219075000Y-24130000D02*
G75*
G03X219075000Y-24130000I-3175000J0D01*
G01*
X201700000Y-31130000D02*
X201700000Y-29130000D01*
X204700000Y-31130000D02*
X201700000Y-31130000D01*
X204700000Y-29130000D02*
X204700000Y-31130000D01*
X201700000Y-29130000D02*
X204700000Y-29130000D01*
X206375000Y-24130000D02*
G75*
G03X206375000Y-24130000I-3175000J0D01*
G01*
X189000000Y-31130000D02*
X189000000Y-29130000D01*
X192000000Y-31130000D02*
X189000000Y-31130000D01*
X192000000Y-29130000D02*
X192000000Y-31130000D01*
X189000000Y-29130000D02*
X192000000Y-29130000D01*
X193675000Y-24130000D02*
G75*
G03X193675000Y-24130000I-3175000J0D01*
G01*
X176300000Y-31130000D02*
X176300000Y-29130000D01*
X179300000Y-31130000D02*
X176300000Y-31130000D01*
X179300000Y-29130000D02*
X179300000Y-31130000D01*
X176300000Y-29130000D02*
X179300000Y-29130000D01*
X180975000Y-24130000D02*
G75*
G03X180975000Y-24130000I-3175000J0D01*
G01*
X163600000Y-31130000D02*
X163600000Y-29130000D01*
X166600000Y-31130000D02*
X163600000Y-31130000D01*
X166600000Y-29130000D02*
X166600000Y-31130000D01*
X163600000Y-29130000D02*
X166600000Y-29130000D01*
X168275000Y-24130000D02*
G75*
G03X168275000Y-24130000I-3175000J0D01*
G01*
X150900000Y-31130000D02*
X150900000Y-29130000D01*
X153900000Y-31130000D02*
X150900000Y-31130000D01*
X153900000Y-29130000D02*
X153900000Y-31130000D01*
X150900000Y-29130000D02*
X153900000Y-29130000D01*
X155575000Y-24130000D02*
G75*
G03X155575000Y-24130000I-3175000J0D01*
G01*
X138200000Y-31130000D02*
X138200000Y-29130000D01*
X141200000Y-31130000D02*
X138200000Y-31130000D01*
X141200000Y-29130000D02*
X141200000Y-31130000D01*
X138200000Y-29130000D02*
X141200000Y-29130000D01*
X142875000Y-24130000D02*
G75*
G03X142875000Y-24130000I-3175000J0D01*
G01*
X125500000Y-31130000D02*
X125500000Y-29130000D01*
X128500000Y-31130000D02*
X125500000Y-31130000D01*
X128500000Y-29130000D02*
X128500000Y-31130000D01*
X125500000Y-29130000D02*
X128500000Y-29130000D01*
X130175000Y-24130000D02*
G75*
G03X130175000Y-24130000I-3175000J0D01*
G01*
X112800000Y-31130000D02*
X112800000Y-29130000D01*
X115800000Y-31130000D02*
X112800000Y-31130000D01*
X115800000Y-29130000D02*
X115800000Y-31130000D01*
X112800000Y-29130000D02*
X115800000Y-29130000D01*
X117475000Y-24130000D02*
G75*
G03X117475000Y-24130000I-3175000J0D01*
G01*
X100100000Y-31130000D02*
X100100000Y-29130000D01*
X103100000Y-31130000D02*
X100100000Y-31130000D01*
X103100000Y-29130000D02*
X103100000Y-31130000D01*
X100100000Y-29130000D02*
X103100000Y-29130000D01*
X104775000Y-24130000D02*
G75*
G03X104775000Y-24130000I-3175000J0D01*
G01*
X87400000Y-31130000D02*
X87400000Y-29130000D01*
X90400000Y-31130000D02*
X87400000Y-31130000D01*
X90400000Y-29130000D02*
X90400000Y-31130000D01*
X87400000Y-29130000D02*
X90400000Y-29130000D01*
X92075000Y-24130000D02*
G75*
G03X92075000Y-24130000I-3175000J0D01*
G01*
X74700000Y-31130000D02*
X74700000Y-29130000D01*
X77700000Y-31130000D02*
X74700000Y-31130000D01*
X77700000Y-29130000D02*
X77700000Y-31130000D01*
X74700000Y-29130000D02*
X77700000Y-29130000D01*
X79375000Y-24130000D02*
G75*
G03X79375000Y-24130000I-3175000J0D01*
G01*
M02*
