G04 #@! TF.FileFunction,Legend,Top*
%FSLAX46Y46*%
G04 Gerber Fmt 4.6, Leading zero omitted, Abs format (unit mm)*
G04 Created by KiCad (PCBNEW 4.0.2-stable) date 12/08/2016 19:46:14*
%MOMM*%
G01*
G04 APERTURE LIST*
%ADD10C,0.100000*%
%ADD11C,0.200000*%
%ADD12C,0.150000*%
%ADD13C,0.304800*%
%ADD14C,0.222250*%
G04 APERTURE END LIST*
D10*
D11*
X202565000Y-40640000D02*
G75*
G03X202565000Y-40640000I-635000J0D01*
G01*
D12*
X188595000Y-44450000D02*
X193675000Y-44450000D01*
X193675000Y-44450000D02*
X193675000Y-41910000D01*
X193675000Y-41910000D02*
X188595000Y-41910000D01*
X185775000Y-41630000D02*
X187325000Y-41630000D01*
X188595000Y-41910000D02*
X188595000Y-44450000D01*
X187325000Y-44730000D02*
X185775000Y-44730000D01*
X185775000Y-44730000D02*
X185775000Y-41630000D01*
D13*
X147320000Y-46990000D02*
X181610000Y-46990000D01*
X181610000Y-46990000D02*
X181610000Y-38100000D01*
X181610000Y-38100000D02*
X147320000Y-38100000D01*
X147320000Y-38100000D02*
X147320000Y-46990000D01*
D12*
X263271000Y-17780000D02*
X270129000Y-17780000D01*
X270129000Y-17780000D02*
X270129000Y-30480000D01*
X270129000Y-30480000D02*
X263271000Y-30480000D01*
X263271000Y-30480000D02*
X263271000Y-17780000D01*
X250571000Y-17780000D02*
X257429000Y-17780000D01*
X257429000Y-17780000D02*
X257429000Y-30480000D01*
X257429000Y-30480000D02*
X250571000Y-30480000D01*
X250571000Y-30480000D02*
X250571000Y-17780000D01*
X237871000Y-17780000D02*
X244729000Y-17780000D01*
X244729000Y-17780000D02*
X244729000Y-30480000D01*
X244729000Y-30480000D02*
X237871000Y-30480000D01*
X237871000Y-30480000D02*
X237871000Y-17780000D01*
X225171000Y-17780000D02*
X232029000Y-17780000D01*
X232029000Y-17780000D02*
X232029000Y-30480000D01*
X232029000Y-30480000D02*
X225171000Y-30480000D01*
X225171000Y-30480000D02*
X225171000Y-17780000D01*
X212471000Y-17780000D02*
X219329000Y-17780000D01*
X219329000Y-17780000D02*
X219329000Y-30480000D01*
X219329000Y-30480000D02*
X212471000Y-30480000D01*
X212471000Y-30480000D02*
X212471000Y-17780000D01*
X199771000Y-17780000D02*
X206629000Y-17780000D01*
X206629000Y-17780000D02*
X206629000Y-30480000D01*
X206629000Y-30480000D02*
X199771000Y-30480000D01*
X199771000Y-30480000D02*
X199771000Y-17780000D01*
X187071000Y-17780000D02*
X193929000Y-17780000D01*
X193929000Y-17780000D02*
X193929000Y-30480000D01*
X193929000Y-30480000D02*
X187071000Y-30480000D01*
X187071000Y-30480000D02*
X187071000Y-17780000D01*
X174371000Y-17780000D02*
X181229000Y-17780000D01*
X181229000Y-17780000D02*
X181229000Y-30480000D01*
X181229000Y-30480000D02*
X174371000Y-30480000D01*
X174371000Y-30480000D02*
X174371000Y-17780000D01*
X161671000Y-17780000D02*
X168529000Y-17780000D01*
X168529000Y-17780000D02*
X168529000Y-30480000D01*
X168529000Y-30480000D02*
X161671000Y-30480000D01*
X161671000Y-30480000D02*
X161671000Y-17780000D01*
X148971000Y-17780000D02*
X155829000Y-17780000D01*
X155829000Y-17780000D02*
X155829000Y-30480000D01*
X155829000Y-30480000D02*
X148971000Y-30480000D01*
X148971000Y-30480000D02*
X148971000Y-17780000D01*
X136271000Y-17780000D02*
X143129000Y-17780000D01*
X143129000Y-17780000D02*
X143129000Y-30480000D01*
X143129000Y-30480000D02*
X136271000Y-30480000D01*
X136271000Y-30480000D02*
X136271000Y-17780000D01*
X123571000Y-17780000D02*
X130429000Y-17780000D01*
X130429000Y-17780000D02*
X130429000Y-30480000D01*
X130429000Y-30480000D02*
X123571000Y-30480000D01*
X123571000Y-30480000D02*
X123571000Y-17780000D01*
X110871000Y-17780000D02*
X117729000Y-17780000D01*
X117729000Y-17780000D02*
X117729000Y-30480000D01*
X117729000Y-30480000D02*
X110871000Y-30480000D01*
X110871000Y-30480000D02*
X110871000Y-17780000D01*
X98171000Y-17780000D02*
X105029000Y-17780000D01*
X105029000Y-17780000D02*
X105029000Y-30480000D01*
X105029000Y-30480000D02*
X98171000Y-30480000D01*
X98171000Y-30480000D02*
X98171000Y-17780000D01*
X85471000Y-17780000D02*
X92329000Y-17780000D01*
X92329000Y-17780000D02*
X92329000Y-30480000D01*
X92329000Y-30480000D02*
X85471000Y-30480000D01*
X85471000Y-30480000D02*
X85471000Y-17780000D01*
X72771000Y-17780000D02*
X79629000Y-17780000D01*
X79629000Y-17780000D02*
X79629000Y-30480000D01*
X79629000Y-30480000D02*
X72771000Y-30480000D01*
X72771000Y-30480000D02*
X72771000Y-17780000D01*
X197455000Y-39090000D02*
X197455000Y-40640000D01*
X198755000Y-39090000D02*
X197455000Y-39090000D01*
X202946000Y-40513000D02*
X208788000Y-40513000D01*
X208788000Y-40513000D02*
X208788000Y-40767000D01*
X208788000Y-40767000D02*
X202946000Y-40767000D01*
X202946000Y-40767000D02*
X202946000Y-40640000D01*
X202946000Y-40640000D02*
X208788000Y-40640000D01*
X200279000Y-40386000D02*
X199898000Y-40386000D01*
X200279000Y-40894000D02*
X199898000Y-40894000D01*
X200279000Y-42926000D02*
X199898000Y-42926000D01*
X200279000Y-43434000D02*
X199898000Y-43434000D01*
X200279000Y-45466000D02*
X199898000Y-45466000D01*
X200279000Y-45974000D02*
X199898000Y-45974000D01*
X200279000Y-48514000D02*
X199898000Y-48514000D01*
X200279000Y-48006000D02*
X199898000Y-48006000D01*
X200279000Y-39370000D02*
X202819000Y-39370000D01*
X200279000Y-41910000D02*
X202819000Y-41910000D01*
X200279000Y-41910000D02*
X200279000Y-44450000D01*
X200279000Y-44450000D02*
X202819000Y-44450000D01*
X202819000Y-42926000D02*
X208915000Y-42926000D01*
X208915000Y-42926000D02*
X208915000Y-43434000D01*
X208915000Y-43434000D02*
X202819000Y-43434000D01*
X202819000Y-44450000D02*
X202819000Y-41910000D01*
X202819000Y-41910000D02*
X202819000Y-39370000D01*
X208915000Y-40894000D02*
X202819000Y-40894000D01*
X208915000Y-40386000D02*
X208915000Y-40894000D01*
X202819000Y-40386000D02*
X208915000Y-40386000D01*
X200279000Y-41910000D02*
X202819000Y-41910000D01*
X200279000Y-39370000D02*
X200279000Y-41910000D01*
X200279000Y-46990000D02*
X202819000Y-46990000D01*
X200279000Y-46990000D02*
X200279000Y-49530000D01*
X200279000Y-49530000D02*
X202819000Y-49530000D01*
X202819000Y-48006000D02*
X208915000Y-48006000D01*
X208915000Y-48006000D02*
X208915000Y-48514000D01*
X208915000Y-48514000D02*
X202819000Y-48514000D01*
X202819000Y-49530000D02*
X202819000Y-46990000D01*
X202819000Y-46990000D02*
X202819000Y-44450000D01*
X208915000Y-45974000D02*
X202819000Y-45974000D01*
X208915000Y-45466000D02*
X208915000Y-45974000D01*
X202819000Y-45466000D02*
X208915000Y-45466000D01*
X200279000Y-46990000D02*
X202819000Y-46990000D01*
X200279000Y-44450000D02*
X200279000Y-46990000D01*
X200279000Y-44450000D02*
X202819000Y-44450000D01*
X188595000Y-48260000D02*
X193675000Y-48260000D01*
X193675000Y-48260000D02*
X193675000Y-45720000D01*
X193675000Y-45720000D02*
X188595000Y-45720000D01*
X185775000Y-45440000D02*
X187325000Y-45440000D01*
X188595000Y-45720000D02*
X188595000Y-48260000D01*
X187325000Y-48540000D02*
X185775000Y-48540000D01*
X185775000Y-48540000D02*
X185775000Y-45440000D01*
X188595000Y-40005000D02*
X193675000Y-40005000D01*
X193675000Y-40005000D02*
X193675000Y-37465000D01*
X193675000Y-37465000D02*
X188595000Y-37465000D01*
X185775000Y-37185000D02*
X187325000Y-37185000D01*
X188595000Y-37465000D02*
X188595000Y-40005000D01*
X187325000Y-40285000D02*
X185775000Y-40285000D01*
X185775000Y-40285000D02*
X185775000Y-37185000D01*
X182677381Y-43918095D02*
X181677381Y-43918095D01*
X181677381Y-43537142D01*
X181725000Y-43441904D01*
X181772619Y-43394285D01*
X181867857Y-43346666D01*
X182010714Y-43346666D01*
X182105952Y-43394285D01*
X182153571Y-43441904D01*
X182201190Y-43537142D01*
X182201190Y-43918095D01*
X181772619Y-42965714D02*
X181725000Y-42918095D01*
X181677381Y-42822857D01*
X181677381Y-42584761D01*
X181725000Y-42489523D01*
X181772619Y-42441904D01*
X181867857Y-42394285D01*
X181963095Y-42394285D01*
X182105952Y-42441904D01*
X182677381Y-43013333D01*
X182677381Y-42394285D01*
D14*
X147468167Y-46778333D02*
X148187833Y-46778333D01*
X148272500Y-46736000D01*
X148314833Y-46693667D01*
X148357167Y-46609000D01*
X148357167Y-46439667D01*
X148314833Y-46355000D01*
X148272500Y-46312667D01*
X148187833Y-46270333D01*
X147468167Y-46270333D01*
X148357167Y-45381334D02*
X148357167Y-45889334D01*
X148357167Y-45635334D02*
X147468167Y-45635334D01*
X147595167Y-45720000D01*
X147679833Y-45804667D01*
X147722167Y-45889334D01*
D13*
D14*
X148357167Y-49911000D02*
X147468167Y-49911000D01*
X148103167Y-49614667D01*
X147468167Y-49318334D01*
X148357167Y-49318334D01*
X148272500Y-48387000D02*
X148314833Y-48429334D01*
X148357167Y-48556334D01*
X148357167Y-48641000D01*
X148314833Y-48768000D01*
X148230167Y-48852667D01*
X148145500Y-48895000D01*
X147976167Y-48937334D01*
X147849167Y-48937334D01*
X147679833Y-48895000D01*
X147595167Y-48852667D01*
X147510500Y-48768000D01*
X147468167Y-48641000D01*
X147468167Y-48556334D01*
X147510500Y-48429334D01*
X147552833Y-48387000D01*
X148357167Y-48006000D02*
X147468167Y-48006000D01*
X147468167Y-47667334D01*
X147510500Y-47582667D01*
X147552833Y-47540334D01*
X147637500Y-47498000D01*
X147764500Y-47498000D01*
X147849167Y-47540334D01*
X147891500Y-47582667D01*
X147933833Y-47667334D01*
X147933833Y-48006000D01*
X147552833Y-47159334D02*
X147510500Y-47117000D01*
X147468167Y-47032334D01*
X147468167Y-46820667D01*
X147510500Y-46736000D01*
X147552833Y-46693667D01*
X147637500Y-46651334D01*
X147722167Y-46651334D01*
X147849167Y-46693667D01*
X148357167Y-47201667D01*
X148357167Y-46651334D01*
X147468167Y-46355000D02*
X147468167Y-45804667D01*
X147806833Y-46101000D01*
X147806833Y-45974000D01*
X147849167Y-45889333D01*
X147891500Y-45847000D01*
X147976167Y-45804667D01*
X148187833Y-45804667D01*
X148272500Y-45847000D01*
X148314833Y-45889333D01*
X148357167Y-45974000D01*
X148357167Y-46228000D01*
X148314833Y-46312667D01*
X148272500Y-46355000D01*
X147468167Y-45254333D02*
X147468167Y-45169666D01*
X147510500Y-45085000D01*
X147552833Y-45042666D01*
X147637500Y-45000333D01*
X147806833Y-44958000D01*
X148018500Y-44958000D01*
X148187833Y-45000333D01*
X148272500Y-45042666D01*
X148314833Y-45085000D01*
X148357167Y-45169666D01*
X148357167Y-45254333D01*
X148314833Y-45339000D01*
X148272500Y-45381333D01*
X148187833Y-45423666D01*
X148018500Y-45466000D01*
X147806833Y-45466000D01*
X147637500Y-45423666D01*
X147552833Y-45381333D01*
X147510500Y-45339000D01*
X147468167Y-45254333D01*
X148357167Y-44111333D02*
X148357167Y-44619333D01*
X148357167Y-44365333D02*
X147468167Y-44365333D01*
X147595167Y-44449999D01*
X147679833Y-44534666D01*
X147722167Y-44619333D01*
X147468167Y-43814999D02*
X147468167Y-43222332D01*
X148357167Y-43603332D01*
D13*
D12*
X269644762Y-25939524D02*
X269692381Y-25796667D01*
X269692381Y-25558571D01*
X269644762Y-25463333D01*
X269597143Y-25415714D01*
X269501905Y-25368095D01*
X269406667Y-25368095D01*
X269311429Y-25415714D01*
X269263810Y-25463333D01*
X269216190Y-25558571D01*
X269168571Y-25749048D01*
X269120952Y-25844286D01*
X269073333Y-25891905D01*
X268978095Y-25939524D01*
X268882857Y-25939524D01*
X268787619Y-25891905D01*
X268740000Y-25844286D01*
X268692381Y-25749048D01*
X268692381Y-25510952D01*
X268740000Y-25368095D01*
X268692381Y-25034762D02*
X269692381Y-24796667D01*
X268978095Y-24606190D01*
X269692381Y-24415714D01*
X268692381Y-24177619D01*
X269692381Y-23272857D02*
X269692381Y-23844286D01*
X269692381Y-23558572D02*
X268692381Y-23558572D01*
X268835238Y-23653810D01*
X268930476Y-23749048D01*
X268978095Y-23844286D01*
X268692381Y-22415714D02*
X268692381Y-22606191D01*
X268740000Y-22701429D01*
X268787619Y-22749048D01*
X268930476Y-22844286D01*
X269120952Y-22891905D01*
X269501905Y-22891905D01*
X269597143Y-22844286D01*
X269644762Y-22796667D01*
X269692381Y-22701429D01*
X269692381Y-22510952D01*
X269644762Y-22415714D01*
X269597143Y-22368095D01*
X269501905Y-22320476D01*
X269263810Y-22320476D01*
X269168571Y-22368095D01*
X269120952Y-22415714D01*
X269073333Y-22510952D01*
X269073333Y-22701429D01*
X269120952Y-22796667D01*
X269168571Y-22844286D01*
X269263810Y-22891905D01*
X256944762Y-25939524D02*
X256992381Y-25796667D01*
X256992381Y-25558571D01*
X256944762Y-25463333D01*
X256897143Y-25415714D01*
X256801905Y-25368095D01*
X256706667Y-25368095D01*
X256611429Y-25415714D01*
X256563810Y-25463333D01*
X256516190Y-25558571D01*
X256468571Y-25749048D01*
X256420952Y-25844286D01*
X256373333Y-25891905D01*
X256278095Y-25939524D01*
X256182857Y-25939524D01*
X256087619Y-25891905D01*
X256040000Y-25844286D01*
X255992381Y-25749048D01*
X255992381Y-25510952D01*
X256040000Y-25368095D01*
X255992381Y-25034762D02*
X256992381Y-24796667D01*
X256278095Y-24606190D01*
X256992381Y-24415714D01*
X255992381Y-24177619D01*
X256992381Y-23272857D02*
X256992381Y-23844286D01*
X256992381Y-23558572D02*
X255992381Y-23558572D01*
X256135238Y-23653810D01*
X256230476Y-23749048D01*
X256278095Y-23844286D01*
X255992381Y-22368095D02*
X255992381Y-22844286D01*
X256468571Y-22891905D01*
X256420952Y-22844286D01*
X256373333Y-22749048D01*
X256373333Y-22510952D01*
X256420952Y-22415714D01*
X256468571Y-22368095D01*
X256563810Y-22320476D01*
X256801905Y-22320476D01*
X256897143Y-22368095D01*
X256944762Y-22415714D01*
X256992381Y-22510952D01*
X256992381Y-22749048D01*
X256944762Y-22844286D01*
X256897143Y-22891905D01*
X244244762Y-25939524D02*
X244292381Y-25796667D01*
X244292381Y-25558571D01*
X244244762Y-25463333D01*
X244197143Y-25415714D01*
X244101905Y-25368095D01*
X244006667Y-25368095D01*
X243911429Y-25415714D01*
X243863810Y-25463333D01*
X243816190Y-25558571D01*
X243768571Y-25749048D01*
X243720952Y-25844286D01*
X243673333Y-25891905D01*
X243578095Y-25939524D01*
X243482857Y-25939524D01*
X243387619Y-25891905D01*
X243340000Y-25844286D01*
X243292381Y-25749048D01*
X243292381Y-25510952D01*
X243340000Y-25368095D01*
X243292381Y-25034762D02*
X244292381Y-24796667D01*
X243578095Y-24606190D01*
X244292381Y-24415714D01*
X243292381Y-24177619D01*
X244292381Y-23272857D02*
X244292381Y-23844286D01*
X244292381Y-23558572D02*
X243292381Y-23558572D01*
X243435238Y-23653810D01*
X243530476Y-23749048D01*
X243578095Y-23844286D01*
X243625714Y-22415714D02*
X244292381Y-22415714D01*
X243244762Y-22653810D02*
X243959048Y-22891905D01*
X243959048Y-22272857D01*
X231544762Y-25939524D02*
X231592381Y-25796667D01*
X231592381Y-25558571D01*
X231544762Y-25463333D01*
X231497143Y-25415714D01*
X231401905Y-25368095D01*
X231306667Y-25368095D01*
X231211429Y-25415714D01*
X231163810Y-25463333D01*
X231116190Y-25558571D01*
X231068571Y-25749048D01*
X231020952Y-25844286D01*
X230973333Y-25891905D01*
X230878095Y-25939524D01*
X230782857Y-25939524D01*
X230687619Y-25891905D01*
X230640000Y-25844286D01*
X230592381Y-25749048D01*
X230592381Y-25510952D01*
X230640000Y-25368095D01*
X230592381Y-25034762D02*
X231592381Y-24796667D01*
X230878095Y-24606190D01*
X231592381Y-24415714D01*
X230592381Y-24177619D01*
X231592381Y-23272857D02*
X231592381Y-23844286D01*
X231592381Y-23558572D02*
X230592381Y-23558572D01*
X230735238Y-23653810D01*
X230830476Y-23749048D01*
X230878095Y-23844286D01*
X230592381Y-22939524D02*
X230592381Y-22320476D01*
X230973333Y-22653810D01*
X230973333Y-22510952D01*
X231020952Y-22415714D01*
X231068571Y-22368095D01*
X231163810Y-22320476D01*
X231401905Y-22320476D01*
X231497143Y-22368095D01*
X231544762Y-22415714D01*
X231592381Y-22510952D01*
X231592381Y-22796667D01*
X231544762Y-22891905D01*
X231497143Y-22939524D01*
X218844762Y-25939524D02*
X218892381Y-25796667D01*
X218892381Y-25558571D01*
X218844762Y-25463333D01*
X218797143Y-25415714D01*
X218701905Y-25368095D01*
X218606667Y-25368095D01*
X218511429Y-25415714D01*
X218463810Y-25463333D01*
X218416190Y-25558571D01*
X218368571Y-25749048D01*
X218320952Y-25844286D01*
X218273333Y-25891905D01*
X218178095Y-25939524D01*
X218082857Y-25939524D01*
X217987619Y-25891905D01*
X217940000Y-25844286D01*
X217892381Y-25749048D01*
X217892381Y-25510952D01*
X217940000Y-25368095D01*
X217892381Y-25034762D02*
X218892381Y-24796667D01*
X218178095Y-24606190D01*
X218892381Y-24415714D01*
X217892381Y-24177619D01*
X218892381Y-23272857D02*
X218892381Y-23844286D01*
X218892381Y-23558572D02*
X217892381Y-23558572D01*
X218035238Y-23653810D01*
X218130476Y-23749048D01*
X218178095Y-23844286D01*
X217987619Y-22891905D02*
X217940000Y-22844286D01*
X217892381Y-22749048D01*
X217892381Y-22510952D01*
X217940000Y-22415714D01*
X217987619Y-22368095D01*
X218082857Y-22320476D01*
X218178095Y-22320476D01*
X218320952Y-22368095D01*
X218892381Y-22939524D01*
X218892381Y-22320476D01*
X206144762Y-25939524D02*
X206192381Y-25796667D01*
X206192381Y-25558571D01*
X206144762Y-25463333D01*
X206097143Y-25415714D01*
X206001905Y-25368095D01*
X205906667Y-25368095D01*
X205811429Y-25415714D01*
X205763810Y-25463333D01*
X205716190Y-25558571D01*
X205668571Y-25749048D01*
X205620952Y-25844286D01*
X205573333Y-25891905D01*
X205478095Y-25939524D01*
X205382857Y-25939524D01*
X205287619Y-25891905D01*
X205240000Y-25844286D01*
X205192381Y-25749048D01*
X205192381Y-25510952D01*
X205240000Y-25368095D01*
X205192381Y-25034762D02*
X206192381Y-24796667D01*
X205478095Y-24606190D01*
X206192381Y-24415714D01*
X205192381Y-24177619D01*
X206192381Y-23272857D02*
X206192381Y-23844286D01*
X206192381Y-23558572D02*
X205192381Y-23558572D01*
X205335238Y-23653810D01*
X205430476Y-23749048D01*
X205478095Y-23844286D01*
X206192381Y-22320476D02*
X206192381Y-22891905D01*
X206192381Y-22606191D02*
X205192381Y-22606191D01*
X205335238Y-22701429D01*
X205430476Y-22796667D01*
X205478095Y-22891905D01*
X193444762Y-25939524D02*
X193492381Y-25796667D01*
X193492381Y-25558571D01*
X193444762Y-25463333D01*
X193397143Y-25415714D01*
X193301905Y-25368095D01*
X193206667Y-25368095D01*
X193111429Y-25415714D01*
X193063810Y-25463333D01*
X193016190Y-25558571D01*
X192968571Y-25749048D01*
X192920952Y-25844286D01*
X192873333Y-25891905D01*
X192778095Y-25939524D01*
X192682857Y-25939524D01*
X192587619Y-25891905D01*
X192540000Y-25844286D01*
X192492381Y-25749048D01*
X192492381Y-25510952D01*
X192540000Y-25368095D01*
X192492381Y-25034762D02*
X193492381Y-24796667D01*
X192778095Y-24606190D01*
X193492381Y-24415714D01*
X192492381Y-24177619D01*
X193492381Y-23272857D02*
X193492381Y-23844286D01*
X193492381Y-23558572D02*
X192492381Y-23558572D01*
X192635238Y-23653810D01*
X192730476Y-23749048D01*
X192778095Y-23844286D01*
X192492381Y-22653810D02*
X192492381Y-22558571D01*
X192540000Y-22463333D01*
X192587619Y-22415714D01*
X192682857Y-22368095D01*
X192873333Y-22320476D01*
X193111429Y-22320476D01*
X193301905Y-22368095D01*
X193397143Y-22415714D01*
X193444762Y-22463333D01*
X193492381Y-22558571D01*
X193492381Y-22653810D01*
X193444762Y-22749048D01*
X193397143Y-22796667D01*
X193301905Y-22844286D01*
X193111429Y-22891905D01*
X192873333Y-22891905D01*
X192682857Y-22844286D01*
X192587619Y-22796667D01*
X192540000Y-22749048D01*
X192492381Y-22653810D01*
X180744762Y-25463333D02*
X180792381Y-25320476D01*
X180792381Y-25082380D01*
X180744762Y-24987142D01*
X180697143Y-24939523D01*
X180601905Y-24891904D01*
X180506667Y-24891904D01*
X180411429Y-24939523D01*
X180363810Y-24987142D01*
X180316190Y-25082380D01*
X180268571Y-25272857D01*
X180220952Y-25368095D01*
X180173333Y-25415714D01*
X180078095Y-25463333D01*
X179982857Y-25463333D01*
X179887619Y-25415714D01*
X179840000Y-25368095D01*
X179792381Y-25272857D01*
X179792381Y-25034761D01*
X179840000Y-24891904D01*
X179792381Y-24558571D02*
X180792381Y-24320476D01*
X180078095Y-24129999D01*
X180792381Y-23939523D01*
X179792381Y-23701428D01*
X180792381Y-23272857D02*
X180792381Y-23082381D01*
X180744762Y-22987142D01*
X180697143Y-22939523D01*
X180554286Y-22844285D01*
X180363810Y-22796666D01*
X179982857Y-22796666D01*
X179887619Y-22844285D01*
X179840000Y-22891904D01*
X179792381Y-22987142D01*
X179792381Y-23177619D01*
X179840000Y-23272857D01*
X179887619Y-23320476D01*
X179982857Y-23368095D01*
X180220952Y-23368095D01*
X180316190Y-23320476D01*
X180363810Y-23272857D01*
X180411429Y-23177619D01*
X180411429Y-22987142D01*
X180363810Y-22891904D01*
X180316190Y-22844285D01*
X180220952Y-22796666D01*
X168044762Y-25463333D02*
X168092381Y-25320476D01*
X168092381Y-25082380D01*
X168044762Y-24987142D01*
X167997143Y-24939523D01*
X167901905Y-24891904D01*
X167806667Y-24891904D01*
X167711429Y-24939523D01*
X167663810Y-24987142D01*
X167616190Y-25082380D01*
X167568571Y-25272857D01*
X167520952Y-25368095D01*
X167473333Y-25415714D01*
X167378095Y-25463333D01*
X167282857Y-25463333D01*
X167187619Y-25415714D01*
X167140000Y-25368095D01*
X167092381Y-25272857D01*
X167092381Y-25034761D01*
X167140000Y-24891904D01*
X167092381Y-24558571D02*
X168092381Y-24320476D01*
X167378095Y-24129999D01*
X168092381Y-23939523D01*
X167092381Y-23701428D01*
X167520952Y-23177619D02*
X167473333Y-23272857D01*
X167425714Y-23320476D01*
X167330476Y-23368095D01*
X167282857Y-23368095D01*
X167187619Y-23320476D01*
X167140000Y-23272857D01*
X167092381Y-23177619D01*
X167092381Y-22987142D01*
X167140000Y-22891904D01*
X167187619Y-22844285D01*
X167282857Y-22796666D01*
X167330476Y-22796666D01*
X167425714Y-22844285D01*
X167473333Y-22891904D01*
X167520952Y-22987142D01*
X167520952Y-23177619D01*
X167568571Y-23272857D01*
X167616190Y-23320476D01*
X167711429Y-23368095D01*
X167901905Y-23368095D01*
X167997143Y-23320476D01*
X168044762Y-23272857D01*
X168092381Y-23177619D01*
X168092381Y-22987142D01*
X168044762Y-22891904D01*
X167997143Y-22844285D01*
X167901905Y-22796666D01*
X167711429Y-22796666D01*
X167616190Y-22844285D01*
X167568571Y-22891904D01*
X167520952Y-22987142D01*
X155344762Y-25463333D02*
X155392381Y-25320476D01*
X155392381Y-25082380D01*
X155344762Y-24987142D01*
X155297143Y-24939523D01*
X155201905Y-24891904D01*
X155106667Y-24891904D01*
X155011429Y-24939523D01*
X154963810Y-24987142D01*
X154916190Y-25082380D01*
X154868571Y-25272857D01*
X154820952Y-25368095D01*
X154773333Y-25415714D01*
X154678095Y-25463333D01*
X154582857Y-25463333D01*
X154487619Y-25415714D01*
X154440000Y-25368095D01*
X154392381Y-25272857D01*
X154392381Y-25034761D01*
X154440000Y-24891904D01*
X154392381Y-24558571D02*
X155392381Y-24320476D01*
X154678095Y-24129999D01*
X155392381Y-23939523D01*
X154392381Y-23701428D01*
X154392381Y-23415714D02*
X154392381Y-22749047D01*
X155392381Y-23177619D01*
X142644762Y-25463333D02*
X142692381Y-25320476D01*
X142692381Y-25082380D01*
X142644762Y-24987142D01*
X142597143Y-24939523D01*
X142501905Y-24891904D01*
X142406667Y-24891904D01*
X142311429Y-24939523D01*
X142263810Y-24987142D01*
X142216190Y-25082380D01*
X142168571Y-25272857D01*
X142120952Y-25368095D01*
X142073333Y-25415714D01*
X141978095Y-25463333D01*
X141882857Y-25463333D01*
X141787619Y-25415714D01*
X141740000Y-25368095D01*
X141692381Y-25272857D01*
X141692381Y-25034761D01*
X141740000Y-24891904D01*
X141692381Y-24558571D02*
X142692381Y-24320476D01*
X141978095Y-24129999D01*
X142692381Y-23939523D01*
X141692381Y-23701428D01*
X141692381Y-22891904D02*
X141692381Y-23082381D01*
X141740000Y-23177619D01*
X141787619Y-23225238D01*
X141930476Y-23320476D01*
X142120952Y-23368095D01*
X142501905Y-23368095D01*
X142597143Y-23320476D01*
X142644762Y-23272857D01*
X142692381Y-23177619D01*
X142692381Y-22987142D01*
X142644762Y-22891904D01*
X142597143Y-22844285D01*
X142501905Y-22796666D01*
X142263810Y-22796666D01*
X142168571Y-22844285D01*
X142120952Y-22891904D01*
X142073333Y-22987142D01*
X142073333Y-23177619D01*
X142120952Y-23272857D01*
X142168571Y-23320476D01*
X142263810Y-23368095D01*
X129944762Y-25463333D02*
X129992381Y-25320476D01*
X129992381Y-25082380D01*
X129944762Y-24987142D01*
X129897143Y-24939523D01*
X129801905Y-24891904D01*
X129706667Y-24891904D01*
X129611429Y-24939523D01*
X129563810Y-24987142D01*
X129516190Y-25082380D01*
X129468571Y-25272857D01*
X129420952Y-25368095D01*
X129373333Y-25415714D01*
X129278095Y-25463333D01*
X129182857Y-25463333D01*
X129087619Y-25415714D01*
X129040000Y-25368095D01*
X128992381Y-25272857D01*
X128992381Y-25034761D01*
X129040000Y-24891904D01*
X128992381Y-24558571D02*
X129992381Y-24320476D01*
X129278095Y-24129999D01*
X129992381Y-23939523D01*
X128992381Y-23701428D01*
X128992381Y-22844285D02*
X128992381Y-23320476D01*
X129468571Y-23368095D01*
X129420952Y-23320476D01*
X129373333Y-23225238D01*
X129373333Y-22987142D01*
X129420952Y-22891904D01*
X129468571Y-22844285D01*
X129563810Y-22796666D01*
X129801905Y-22796666D01*
X129897143Y-22844285D01*
X129944762Y-22891904D01*
X129992381Y-22987142D01*
X129992381Y-23225238D01*
X129944762Y-23320476D01*
X129897143Y-23368095D01*
X117244762Y-25463333D02*
X117292381Y-25320476D01*
X117292381Y-25082380D01*
X117244762Y-24987142D01*
X117197143Y-24939523D01*
X117101905Y-24891904D01*
X117006667Y-24891904D01*
X116911429Y-24939523D01*
X116863810Y-24987142D01*
X116816190Y-25082380D01*
X116768571Y-25272857D01*
X116720952Y-25368095D01*
X116673333Y-25415714D01*
X116578095Y-25463333D01*
X116482857Y-25463333D01*
X116387619Y-25415714D01*
X116340000Y-25368095D01*
X116292381Y-25272857D01*
X116292381Y-25034761D01*
X116340000Y-24891904D01*
X116292381Y-24558571D02*
X117292381Y-24320476D01*
X116578095Y-24129999D01*
X117292381Y-23939523D01*
X116292381Y-23701428D01*
X116625714Y-22891904D02*
X117292381Y-22891904D01*
X116244762Y-23130000D02*
X116959048Y-23368095D01*
X116959048Y-22749047D01*
X104544762Y-25463333D02*
X104592381Y-25320476D01*
X104592381Y-25082380D01*
X104544762Y-24987142D01*
X104497143Y-24939523D01*
X104401905Y-24891904D01*
X104306667Y-24891904D01*
X104211429Y-24939523D01*
X104163810Y-24987142D01*
X104116190Y-25082380D01*
X104068571Y-25272857D01*
X104020952Y-25368095D01*
X103973333Y-25415714D01*
X103878095Y-25463333D01*
X103782857Y-25463333D01*
X103687619Y-25415714D01*
X103640000Y-25368095D01*
X103592381Y-25272857D01*
X103592381Y-25034761D01*
X103640000Y-24891904D01*
X103592381Y-24558571D02*
X104592381Y-24320476D01*
X103878095Y-24129999D01*
X104592381Y-23939523D01*
X103592381Y-23701428D01*
X103592381Y-23415714D02*
X103592381Y-22796666D01*
X103973333Y-23130000D01*
X103973333Y-22987142D01*
X104020952Y-22891904D01*
X104068571Y-22844285D01*
X104163810Y-22796666D01*
X104401905Y-22796666D01*
X104497143Y-22844285D01*
X104544762Y-22891904D01*
X104592381Y-22987142D01*
X104592381Y-23272857D01*
X104544762Y-23368095D01*
X104497143Y-23415714D01*
X91844762Y-25463333D02*
X91892381Y-25320476D01*
X91892381Y-25082380D01*
X91844762Y-24987142D01*
X91797143Y-24939523D01*
X91701905Y-24891904D01*
X91606667Y-24891904D01*
X91511429Y-24939523D01*
X91463810Y-24987142D01*
X91416190Y-25082380D01*
X91368571Y-25272857D01*
X91320952Y-25368095D01*
X91273333Y-25415714D01*
X91178095Y-25463333D01*
X91082857Y-25463333D01*
X90987619Y-25415714D01*
X90940000Y-25368095D01*
X90892381Y-25272857D01*
X90892381Y-25034761D01*
X90940000Y-24891904D01*
X90892381Y-24558571D02*
X91892381Y-24320476D01*
X91178095Y-24129999D01*
X91892381Y-23939523D01*
X90892381Y-23701428D01*
X90987619Y-23368095D02*
X90940000Y-23320476D01*
X90892381Y-23225238D01*
X90892381Y-22987142D01*
X90940000Y-22891904D01*
X90987619Y-22844285D01*
X91082857Y-22796666D01*
X91178095Y-22796666D01*
X91320952Y-22844285D01*
X91892381Y-23415714D01*
X91892381Y-22796666D01*
X79144762Y-25463333D02*
X79192381Y-25320476D01*
X79192381Y-25082380D01*
X79144762Y-24987142D01*
X79097143Y-24939523D01*
X79001905Y-24891904D01*
X78906667Y-24891904D01*
X78811429Y-24939523D01*
X78763810Y-24987142D01*
X78716190Y-25082380D01*
X78668571Y-25272857D01*
X78620952Y-25368095D01*
X78573333Y-25415714D01*
X78478095Y-25463333D01*
X78382857Y-25463333D01*
X78287619Y-25415714D01*
X78240000Y-25368095D01*
X78192381Y-25272857D01*
X78192381Y-25034761D01*
X78240000Y-24891904D01*
X78192381Y-24558571D02*
X79192381Y-24320476D01*
X78478095Y-24129999D01*
X79192381Y-23939523D01*
X78192381Y-23701428D01*
X79192381Y-22796666D02*
X79192381Y-23368095D01*
X79192381Y-23082381D02*
X78192381Y-23082381D01*
X78335238Y-23177619D01*
X78430476Y-23272857D01*
X78478095Y-23368095D01*
X198016905Y-35992381D02*
X198016905Y-34992381D01*
X198397858Y-34992381D01*
X198493096Y-35040000D01*
X198540715Y-35087619D01*
X198588334Y-35182857D01*
X198588334Y-35325714D01*
X198540715Y-35420952D01*
X198493096Y-35468571D01*
X198397858Y-35516190D01*
X198016905Y-35516190D01*
X199540715Y-35992381D02*
X198969286Y-35992381D01*
X199255000Y-35992381D02*
X199255000Y-34992381D01*
X199159762Y-35135238D01*
X199064524Y-35230476D01*
X198969286Y-35278095D01*
X182677381Y-47728095D02*
X181677381Y-47728095D01*
X181677381Y-47347142D01*
X181725000Y-47251904D01*
X181772619Y-47204285D01*
X181867857Y-47156666D01*
X182010714Y-47156666D01*
X182105952Y-47204285D01*
X182153571Y-47251904D01*
X182201190Y-47347142D01*
X182201190Y-47728095D01*
X181677381Y-46823333D02*
X181677381Y-46204285D01*
X182058333Y-46537619D01*
X182058333Y-46394761D01*
X182105952Y-46299523D01*
X182153571Y-46251904D01*
X182248810Y-46204285D01*
X182486905Y-46204285D01*
X182582143Y-46251904D01*
X182629762Y-46299523D01*
X182677381Y-46394761D01*
X182677381Y-46680476D01*
X182629762Y-46775714D01*
X182582143Y-46823333D01*
X182677381Y-39473095D02*
X181677381Y-39473095D01*
X181677381Y-39092142D01*
X181725000Y-38996904D01*
X181772619Y-38949285D01*
X181867857Y-38901666D01*
X182010714Y-38901666D01*
X182105952Y-38949285D01*
X182153571Y-38996904D01*
X182201190Y-39092142D01*
X182201190Y-39473095D01*
X182010714Y-38044523D02*
X182677381Y-38044523D01*
X181629762Y-38282619D02*
X182344048Y-38520714D01*
X182344048Y-37901666D01*
M02*
