G04 #@! TF.FileFunction,Other,Fab,Top*
%FSLAX46Y46*%
G04 Gerber Fmt 4.6, Leading zero omitted, Abs format (unit mm)*
G04 Created by KiCad (PCBNEW 4.0.2-stable) date 12/08/2016 19:46:14*
%MOMM*%
G01*
G04 APERTURE LIST*
%ADD10C,0.100000*%
%ADD11C,0.150000*%
G04 APERTURE END LIST*
D10*
D11*
X184582143Y-47203809D02*
X184629762Y-47251428D01*
X184677381Y-47394285D01*
X184677381Y-47489523D01*
X184629762Y-47632381D01*
X184534524Y-47727619D01*
X184439286Y-47775238D01*
X184248810Y-47822857D01*
X184105952Y-47822857D01*
X183915476Y-47775238D01*
X183820238Y-47727619D01*
X183725000Y-47632381D01*
X183677381Y-47489523D01*
X183677381Y-47394285D01*
X183725000Y-47251428D01*
X183772619Y-47203809D01*
X183677381Y-46584762D02*
X183677381Y-46394285D01*
X183725000Y-46299047D01*
X183820238Y-46203809D01*
X184010714Y-46156190D01*
X184344048Y-46156190D01*
X184534524Y-46203809D01*
X184629762Y-46299047D01*
X184677381Y-46394285D01*
X184677381Y-46584762D01*
X184629762Y-46680000D01*
X184534524Y-46775238D01*
X184344048Y-46822857D01*
X184010714Y-46822857D01*
X183820238Y-46775238D01*
X183725000Y-46680000D01*
X183677381Y-46584762D01*
X184677381Y-45727619D02*
X183677381Y-45727619D01*
X184677381Y-45156190D01*
X183677381Y-45156190D01*
X184677381Y-44680000D02*
X183677381Y-44680000D01*
X184677381Y-44108571D01*
X183677381Y-44108571D01*
X184772619Y-43870476D02*
X184772619Y-43108571D01*
X183677381Y-42680000D02*
X183677381Y-42584761D01*
X183725000Y-42489523D01*
X183772619Y-42441904D01*
X183867857Y-42394285D01*
X184058333Y-42346666D01*
X184296429Y-42346666D01*
X184486905Y-42394285D01*
X184582143Y-42441904D01*
X184629762Y-42489523D01*
X184677381Y-42584761D01*
X184677381Y-42680000D01*
X184629762Y-42775238D01*
X184582143Y-42822857D01*
X184486905Y-42870476D01*
X184296429Y-42918095D01*
X184058333Y-42918095D01*
X183867857Y-42870476D01*
X183772619Y-42822857D01*
X183725000Y-42775238D01*
X183677381Y-42680000D01*
X184677381Y-41394285D02*
X184677381Y-41965714D01*
X184677381Y-41680000D02*
X183677381Y-41680000D01*
X183820238Y-41775238D01*
X183915476Y-41870476D01*
X183963095Y-41965714D01*
X183677381Y-41060952D02*
X184677381Y-40394285D01*
X183677381Y-40394285D02*
X184677381Y-41060952D01*
X183677381Y-39822857D02*
X183677381Y-39727618D01*
X183725000Y-39632380D01*
X183772619Y-39584761D01*
X183867857Y-39537142D01*
X184058333Y-39489523D01*
X184296429Y-39489523D01*
X184486905Y-39537142D01*
X184582143Y-39584761D01*
X184629762Y-39632380D01*
X184677381Y-39727618D01*
X184677381Y-39822857D01*
X184629762Y-39918095D01*
X184582143Y-39965714D01*
X184486905Y-40013333D01*
X184296429Y-40060952D01*
X184058333Y-40060952D01*
X183867857Y-40013333D01*
X183772619Y-39965714D01*
X183725000Y-39918095D01*
X183677381Y-39822857D01*
X183677381Y-39156190D02*
X183677381Y-38537142D01*
X184058333Y-38870476D01*
X184058333Y-38727618D01*
X184105952Y-38632380D01*
X184153571Y-38584761D01*
X184248810Y-38537142D01*
X184486905Y-38537142D01*
X184582143Y-38584761D01*
X184629762Y-38632380D01*
X184677381Y-38727618D01*
X184677381Y-39013333D01*
X184629762Y-39108571D01*
X184582143Y-39156190D01*
X264654762Y-28226428D02*
X264702381Y-28083571D01*
X264702381Y-27845475D01*
X264654762Y-27750237D01*
X264607143Y-27702618D01*
X264511905Y-27654999D01*
X264416667Y-27654999D01*
X264321429Y-27702618D01*
X264273810Y-27750237D01*
X264226190Y-27845475D01*
X264178571Y-28035952D01*
X264130952Y-28131190D01*
X264083333Y-28178809D01*
X263988095Y-28226428D01*
X263892857Y-28226428D01*
X263797619Y-28178809D01*
X263750000Y-28131190D01*
X263702381Y-28035952D01*
X263702381Y-27797856D01*
X263750000Y-27654999D01*
X263702381Y-27321666D02*
X264702381Y-27083571D01*
X263988095Y-26893094D01*
X264702381Y-26702618D01*
X263702381Y-26464523D01*
X264702381Y-26083571D02*
X263702381Y-26083571D01*
X263702381Y-25750238D02*
X263702381Y-25178809D01*
X264702381Y-25464524D02*
X263702381Y-25464524D01*
X264607143Y-24274047D02*
X264654762Y-24321666D01*
X264702381Y-24464523D01*
X264702381Y-24559761D01*
X264654762Y-24702619D01*
X264559524Y-24797857D01*
X264464286Y-24845476D01*
X264273810Y-24893095D01*
X264130952Y-24893095D01*
X263940476Y-24845476D01*
X263845238Y-24797857D01*
X263750000Y-24702619D01*
X263702381Y-24559761D01*
X263702381Y-24464523D01*
X263750000Y-24321666D01*
X263797619Y-24274047D01*
X264702381Y-23845476D02*
X263702381Y-23845476D01*
X264178571Y-23845476D02*
X264178571Y-23274047D01*
X264702381Y-23274047D02*
X263702381Y-23274047D01*
X264797619Y-23035952D02*
X264797619Y-22274047D01*
X264702381Y-22035952D02*
X263702381Y-22035952D01*
X264702381Y-21559762D02*
X263702381Y-21559762D01*
X264702381Y-20988333D01*
X263702381Y-20988333D01*
X263702381Y-20655000D02*
X264702381Y-20321667D01*
X263702381Y-19988333D01*
X251954762Y-28226428D02*
X252002381Y-28083571D01*
X252002381Y-27845475D01*
X251954762Y-27750237D01*
X251907143Y-27702618D01*
X251811905Y-27654999D01*
X251716667Y-27654999D01*
X251621429Y-27702618D01*
X251573810Y-27750237D01*
X251526190Y-27845475D01*
X251478571Y-28035952D01*
X251430952Y-28131190D01*
X251383333Y-28178809D01*
X251288095Y-28226428D01*
X251192857Y-28226428D01*
X251097619Y-28178809D01*
X251050000Y-28131190D01*
X251002381Y-28035952D01*
X251002381Y-27797856D01*
X251050000Y-27654999D01*
X251002381Y-27321666D02*
X252002381Y-27083571D01*
X251288095Y-26893094D01*
X252002381Y-26702618D01*
X251002381Y-26464523D01*
X252002381Y-26083571D02*
X251002381Y-26083571D01*
X251002381Y-25750238D02*
X251002381Y-25178809D01*
X252002381Y-25464524D02*
X251002381Y-25464524D01*
X251907143Y-24274047D02*
X251954762Y-24321666D01*
X252002381Y-24464523D01*
X252002381Y-24559761D01*
X251954762Y-24702619D01*
X251859524Y-24797857D01*
X251764286Y-24845476D01*
X251573810Y-24893095D01*
X251430952Y-24893095D01*
X251240476Y-24845476D01*
X251145238Y-24797857D01*
X251050000Y-24702619D01*
X251002381Y-24559761D01*
X251002381Y-24464523D01*
X251050000Y-24321666D01*
X251097619Y-24274047D01*
X252002381Y-23845476D02*
X251002381Y-23845476D01*
X251478571Y-23845476D02*
X251478571Y-23274047D01*
X252002381Y-23274047D02*
X251002381Y-23274047D01*
X252097619Y-23035952D02*
X252097619Y-22274047D01*
X252002381Y-22035952D02*
X251002381Y-22035952D01*
X252002381Y-21559762D02*
X251002381Y-21559762D01*
X252002381Y-20988333D01*
X251002381Y-20988333D01*
X251002381Y-20655000D02*
X252002381Y-20321667D01*
X251002381Y-19988333D01*
X239254762Y-28226428D02*
X239302381Y-28083571D01*
X239302381Y-27845475D01*
X239254762Y-27750237D01*
X239207143Y-27702618D01*
X239111905Y-27654999D01*
X239016667Y-27654999D01*
X238921429Y-27702618D01*
X238873810Y-27750237D01*
X238826190Y-27845475D01*
X238778571Y-28035952D01*
X238730952Y-28131190D01*
X238683333Y-28178809D01*
X238588095Y-28226428D01*
X238492857Y-28226428D01*
X238397619Y-28178809D01*
X238350000Y-28131190D01*
X238302381Y-28035952D01*
X238302381Y-27797856D01*
X238350000Y-27654999D01*
X238302381Y-27321666D02*
X239302381Y-27083571D01*
X238588095Y-26893094D01*
X239302381Y-26702618D01*
X238302381Y-26464523D01*
X239302381Y-26083571D02*
X238302381Y-26083571D01*
X238302381Y-25750238D02*
X238302381Y-25178809D01*
X239302381Y-25464524D02*
X238302381Y-25464524D01*
X239207143Y-24274047D02*
X239254762Y-24321666D01*
X239302381Y-24464523D01*
X239302381Y-24559761D01*
X239254762Y-24702619D01*
X239159524Y-24797857D01*
X239064286Y-24845476D01*
X238873810Y-24893095D01*
X238730952Y-24893095D01*
X238540476Y-24845476D01*
X238445238Y-24797857D01*
X238350000Y-24702619D01*
X238302381Y-24559761D01*
X238302381Y-24464523D01*
X238350000Y-24321666D01*
X238397619Y-24274047D01*
X239302381Y-23845476D02*
X238302381Y-23845476D01*
X238778571Y-23845476D02*
X238778571Y-23274047D01*
X239302381Y-23274047D02*
X238302381Y-23274047D01*
X239397619Y-23035952D02*
X239397619Y-22274047D01*
X239302381Y-22035952D02*
X238302381Y-22035952D01*
X239302381Y-21559762D02*
X238302381Y-21559762D01*
X239302381Y-20988333D01*
X238302381Y-20988333D01*
X238302381Y-20655000D02*
X239302381Y-20321667D01*
X238302381Y-19988333D01*
X226554762Y-28226428D02*
X226602381Y-28083571D01*
X226602381Y-27845475D01*
X226554762Y-27750237D01*
X226507143Y-27702618D01*
X226411905Y-27654999D01*
X226316667Y-27654999D01*
X226221429Y-27702618D01*
X226173810Y-27750237D01*
X226126190Y-27845475D01*
X226078571Y-28035952D01*
X226030952Y-28131190D01*
X225983333Y-28178809D01*
X225888095Y-28226428D01*
X225792857Y-28226428D01*
X225697619Y-28178809D01*
X225650000Y-28131190D01*
X225602381Y-28035952D01*
X225602381Y-27797856D01*
X225650000Y-27654999D01*
X225602381Y-27321666D02*
X226602381Y-27083571D01*
X225888095Y-26893094D01*
X226602381Y-26702618D01*
X225602381Y-26464523D01*
X226602381Y-26083571D02*
X225602381Y-26083571D01*
X225602381Y-25750238D02*
X225602381Y-25178809D01*
X226602381Y-25464524D02*
X225602381Y-25464524D01*
X226507143Y-24274047D02*
X226554762Y-24321666D01*
X226602381Y-24464523D01*
X226602381Y-24559761D01*
X226554762Y-24702619D01*
X226459524Y-24797857D01*
X226364286Y-24845476D01*
X226173810Y-24893095D01*
X226030952Y-24893095D01*
X225840476Y-24845476D01*
X225745238Y-24797857D01*
X225650000Y-24702619D01*
X225602381Y-24559761D01*
X225602381Y-24464523D01*
X225650000Y-24321666D01*
X225697619Y-24274047D01*
X226602381Y-23845476D02*
X225602381Y-23845476D01*
X226078571Y-23845476D02*
X226078571Y-23274047D01*
X226602381Y-23274047D02*
X225602381Y-23274047D01*
X226697619Y-23035952D02*
X226697619Y-22274047D01*
X226602381Y-22035952D02*
X225602381Y-22035952D01*
X226602381Y-21559762D02*
X225602381Y-21559762D01*
X226602381Y-20988333D01*
X225602381Y-20988333D01*
X225602381Y-20655000D02*
X226602381Y-20321667D01*
X225602381Y-19988333D01*
X213854762Y-28226428D02*
X213902381Y-28083571D01*
X213902381Y-27845475D01*
X213854762Y-27750237D01*
X213807143Y-27702618D01*
X213711905Y-27654999D01*
X213616667Y-27654999D01*
X213521429Y-27702618D01*
X213473810Y-27750237D01*
X213426190Y-27845475D01*
X213378571Y-28035952D01*
X213330952Y-28131190D01*
X213283333Y-28178809D01*
X213188095Y-28226428D01*
X213092857Y-28226428D01*
X212997619Y-28178809D01*
X212950000Y-28131190D01*
X212902381Y-28035952D01*
X212902381Y-27797856D01*
X212950000Y-27654999D01*
X212902381Y-27321666D02*
X213902381Y-27083571D01*
X213188095Y-26893094D01*
X213902381Y-26702618D01*
X212902381Y-26464523D01*
X213902381Y-26083571D02*
X212902381Y-26083571D01*
X212902381Y-25750238D02*
X212902381Y-25178809D01*
X213902381Y-25464524D02*
X212902381Y-25464524D01*
X213807143Y-24274047D02*
X213854762Y-24321666D01*
X213902381Y-24464523D01*
X213902381Y-24559761D01*
X213854762Y-24702619D01*
X213759524Y-24797857D01*
X213664286Y-24845476D01*
X213473810Y-24893095D01*
X213330952Y-24893095D01*
X213140476Y-24845476D01*
X213045238Y-24797857D01*
X212950000Y-24702619D01*
X212902381Y-24559761D01*
X212902381Y-24464523D01*
X212950000Y-24321666D01*
X212997619Y-24274047D01*
X213902381Y-23845476D02*
X212902381Y-23845476D01*
X213378571Y-23845476D02*
X213378571Y-23274047D01*
X213902381Y-23274047D02*
X212902381Y-23274047D01*
X213997619Y-23035952D02*
X213997619Y-22274047D01*
X213902381Y-22035952D02*
X212902381Y-22035952D01*
X213902381Y-21559762D02*
X212902381Y-21559762D01*
X213902381Y-20988333D01*
X212902381Y-20988333D01*
X212902381Y-20655000D02*
X213902381Y-20321667D01*
X212902381Y-19988333D01*
X201154762Y-28226428D02*
X201202381Y-28083571D01*
X201202381Y-27845475D01*
X201154762Y-27750237D01*
X201107143Y-27702618D01*
X201011905Y-27654999D01*
X200916667Y-27654999D01*
X200821429Y-27702618D01*
X200773810Y-27750237D01*
X200726190Y-27845475D01*
X200678571Y-28035952D01*
X200630952Y-28131190D01*
X200583333Y-28178809D01*
X200488095Y-28226428D01*
X200392857Y-28226428D01*
X200297619Y-28178809D01*
X200250000Y-28131190D01*
X200202381Y-28035952D01*
X200202381Y-27797856D01*
X200250000Y-27654999D01*
X200202381Y-27321666D02*
X201202381Y-27083571D01*
X200488095Y-26893094D01*
X201202381Y-26702618D01*
X200202381Y-26464523D01*
X201202381Y-26083571D02*
X200202381Y-26083571D01*
X200202381Y-25750238D02*
X200202381Y-25178809D01*
X201202381Y-25464524D02*
X200202381Y-25464524D01*
X201107143Y-24274047D02*
X201154762Y-24321666D01*
X201202381Y-24464523D01*
X201202381Y-24559761D01*
X201154762Y-24702619D01*
X201059524Y-24797857D01*
X200964286Y-24845476D01*
X200773810Y-24893095D01*
X200630952Y-24893095D01*
X200440476Y-24845476D01*
X200345238Y-24797857D01*
X200250000Y-24702619D01*
X200202381Y-24559761D01*
X200202381Y-24464523D01*
X200250000Y-24321666D01*
X200297619Y-24274047D01*
X201202381Y-23845476D02*
X200202381Y-23845476D01*
X200678571Y-23845476D02*
X200678571Y-23274047D01*
X201202381Y-23274047D02*
X200202381Y-23274047D01*
X201297619Y-23035952D02*
X201297619Y-22274047D01*
X201202381Y-22035952D02*
X200202381Y-22035952D01*
X201202381Y-21559762D02*
X200202381Y-21559762D01*
X201202381Y-20988333D01*
X200202381Y-20988333D01*
X200202381Y-20655000D02*
X201202381Y-20321667D01*
X200202381Y-19988333D01*
X188454762Y-28226428D02*
X188502381Y-28083571D01*
X188502381Y-27845475D01*
X188454762Y-27750237D01*
X188407143Y-27702618D01*
X188311905Y-27654999D01*
X188216667Y-27654999D01*
X188121429Y-27702618D01*
X188073810Y-27750237D01*
X188026190Y-27845475D01*
X187978571Y-28035952D01*
X187930952Y-28131190D01*
X187883333Y-28178809D01*
X187788095Y-28226428D01*
X187692857Y-28226428D01*
X187597619Y-28178809D01*
X187550000Y-28131190D01*
X187502381Y-28035952D01*
X187502381Y-27797856D01*
X187550000Y-27654999D01*
X187502381Y-27321666D02*
X188502381Y-27083571D01*
X187788095Y-26893094D01*
X188502381Y-26702618D01*
X187502381Y-26464523D01*
X188502381Y-26083571D02*
X187502381Y-26083571D01*
X187502381Y-25750238D02*
X187502381Y-25178809D01*
X188502381Y-25464524D02*
X187502381Y-25464524D01*
X188407143Y-24274047D02*
X188454762Y-24321666D01*
X188502381Y-24464523D01*
X188502381Y-24559761D01*
X188454762Y-24702619D01*
X188359524Y-24797857D01*
X188264286Y-24845476D01*
X188073810Y-24893095D01*
X187930952Y-24893095D01*
X187740476Y-24845476D01*
X187645238Y-24797857D01*
X187550000Y-24702619D01*
X187502381Y-24559761D01*
X187502381Y-24464523D01*
X187550000Y-24321666D01*
X187597619Y-24274047D01*
X188502381Y-23845476D02*
X187502381Y-23845476D01*
X187978571Y-23845476D02*
X187978571Y-23274047D01*
X188502381Y-23274047D02*
X187502381Y-23274047D01*
X188597619Y-23035952D02*
X188597619Y-22274047D01*
X188502381Y-22035952D02*
X187502381Y-22035952D01*
X188502381Y-21559762D02*
X187502381Y-21559762D01*
X188502381Y-20988333D01*
X187502381Y-20988333D01*
X187502381Y-20655000D02*
X188502381Y-20321667D01*
X187502381Y-19988333D01*
X175754762Y-28226428D02*
X175802381Y-28083571D01*
X175802381Y-27845475D01*
X175754762Y-27750237D01*
X175707143Y-27702618D01*
X175611905Y-27654999D01*
X175516667Y-27654999D01*
X175421429Y-27702618D01*
X175373810Y-27750237D01*
X175326190Y-27845475D01*
X175278571Y-28035952D01*
X175230952Y-28131190D01*
X175183333Y-28178809D01*
X175088095Y-28226428D01*
X174992857Y-28226428D01*
X174897619Y-28178809D01*
X174850000Y-28131190D01*
X174802381Y-28035952D01*
X174802381Y-27797856D01*
X174850000Y-27654999D01*
X174802381Y-27321666D02*
X175802381Y-27083571D01*
X175088095Y-26893094D01*
X175802381Y-26702618D01*
X174802381Y-26464523D01*
X175802381Y-26083571D02*
X174802381Y-26083571D01*
X174802381Y-25750238D02*
X174802381Y-25178809D01*
X175802381Y-25464524D02*
X174802381Y-25464524D01*
X175707143Y-24274047D02*
X175754762Y-24321666D01*
X175802381Y-24464523D01*
X175802381Y-24559761D01*
X175754762Y-24702619D01*
X175659524Y-24797857D01*
X175564286Y-24845476D01*
X175373810Y-24893095D01*
X175230952Y-24893095D01*
X175040476Y-24845476D01*
X174945238Y-24797857D01*
X174850000Y-24702619D01*
X174802381Y-24559761D01*
X174802381Y-24464523D01*
X174850000Y-24321666D01*
X174897619Y-24274047D01*
X175802381Y-23845476D02*
X174802381Y-23845476D01*
X175278571Y-23845476D02*
X175278571Y-23274047D01*
X175802381Y-23274047D02*
X174802381Y-23274047D01*
X175897619Y-23035952D02*
X175897619Y-22274047D01*
X175802381Y-22035952D02*
X174802381Y-22035952D01*
X175802381Y-21559762D02*
X174802381Y-21559762D01*
X175802381Y-20988333D01*
X174802381Y-20988333D01*
X174802381Y-20655000D02*
X175802381Y-20321667D01*
X174802381Y-19988333D01*
X163054762Y-28226428D02*
X163102381Y-28083571D01*
X163102381Y-27845475D01*
X163054762Y-27750237D01*
X163007143Y-27702618D01*
X162911905Y-27654999D01*
X162816667Y-27654999D01*
X162721429Y-27702618D01*
X162673810Y-27750237D01*
X162626190Y-27845475D01*
X162578571Y-28035952D01*
X162530952Y-28131190D01*
X162483333Y-28178809D01*
X162388095Y-28226428D01*
X162292857Y-28226428D01*
X162197619Y-28178809D01*
X162150000Y-28131190D01*
X162102381Y-28035952D01*
X162102381Y-27797856D01*
X162150000Y-27654999D01*
X162102381Y-27321666D02*
X163102381Y-27083571D01*
X162388095Y-26893094D01*
X163102381Y-26702618D01*
X162102381Y-26464523D01*
X163102381Y-26083571D02*
X162102381Y-26083571D01*
X162102381Y-25750238D02*
X162102381Y-25178809D01*
X163102381Y-25464524D02*
X162102381Y-25464524D01*
X163007143Y-24274047D02*
X163054762Y-24321666D01*
X163102381Y-24464523D01*
X163102381Y-24559761D01*
X163054762Y-24702619D01*
X162959524Y-24797857D01*
X162864286Y-24845476D01*
X162673810Y-24893095D01*
X162530952Y-24893095D01*
X162340476Y-24845476D01*
X162245238Y-24797857D01*
X162150000Y-24702619D01*
X162102381Y-24559761D01*
X162102381Y-24464523D01*
X162150000Y-24321666D01*
X162197619Y-24274047D01*
X163102381Y-23845476D02*
X162102381Y-23845476D01*
X162578571Y-23845476D02*
X162578571Y-23274047D01*
X163102381Y-23274047D02*
X162102381Y-23274047D01*
X163197619Y-23035952D02*
X163197619Y-22274047D01*
X163102381Y-22035952D02*
X162102381Y-22035952D01*
X163102381Y-21559762D02*
X162102381Y-21559762D01*
X163102381Y-20988333D01*
X162102381Y-20988333D01*
X162102381Y-20655000D02*
X163102381Y-20321667D01*
X162102381Y-19988333D01*
X150354762Y-28226428D02*
X150402381Y-28083571D01*
X150402381Y-27845475D01*
X150354762Y-27750237D01*
X150307143Y-27702618D01*
X150211905Y-27654999D01*
X150116667Y-27654999D01*
X150021429Y-27702618D01*
X149973810Y-27750237D01*
X149926190Y-27845475D01*
X149878571Y-28035952D01*
X149830952Y-28131190D01*
X149783333Y-28178809D01*
X149688095Y-28226428D01*
X149592857Y-28226428D01*
X149497619Y-28178809D01*
X149450000Y-28131190D01*
X149402381Y-28035952D01*
X149402381Y-27797856D01*
X149450000Y-27654999D01*
X149402381Y-27321666D02*
X150402381Y-27083571D01*
X149688095Y-26893094D01*
X150402381Y-26702618D01*
X149402381Y-26464523D01*
X150402381Y-26083571D02*
X149402381Y-26083571D01*
X149402381Y-25750238D02*
X149402381Y-25178809D01*
X150402381Y-25464524D02*
X149402381Y-25464524D01*
X150307143Y-24274047D02*
X150354762Y-24321666D01*
X150402381Y-24464523D01*
X150402381Y-24559761D01*
X150354762Y-24702619D01*
X150259524Y-24797857D01*
X150164286Y-24845476D01*
X149973810Y-24893095D01*
X149830952Y-24893095D01*
X149640476Y-24845476D01*
X149545238Y-24797857D01*
X149450000Y-24702619D01*
X149402381Y-24559761D01*
X149402381Y-24464523D01*
X149450000Y-24321666D01*
X149497619Y-24274047D01*
X150402381Y-23845476D02*
X149402381Y-23845476D01*
X149878571Y-23845476D02*
X149878571Y-23274047D01*
X150402381Y-23274047D02*
X149402381Y-23274047D01*
X150497619Y-23035952D02*
X150497619Y-22274047D01*
X150402381Y-22035952D02*
X149402381Y-22035952D01*
X150402381Y-21559762D02*
X149402381Y-21559762D01*
X150402381Y-20988333D01*
X149402381Y-20988333D01*
X149402381Y-20655000D02*
X150402381Y-20321667D01*
X149402381Y-19988333D01*
X137654762Y-28226428D02*
X137702381Y-28083571D01*
X137702381Y-27845475D01*
X137654762Y-27750237D01*
X137607143Y-27702618D01*
X137511905Y-27654999D01*
X137416667Y-27654999D01*
X137321429Y-27702618D01*
X137273810Y-27750237D01*
X137226190Y-27845475D01*
X137178571Y-28035952D01*
X137130952Y-28131190D01*
X137083333Y-28178809D01*
X136988095Y-28226428D01*
X136892857Y-28226428D01*
X136797619Y-28178809D01*
X136750000Y-28131190D01*
X136702381Y-28035952D01*
X136702381Y-27797856D01*
X136750000Y-27654999D01*
X136702381Y-27321666D02*
X137702381Y-27083571D01*
X136988095Y-26893094D01*
X137702381Y-26702618D01*
X136702381Y-26464523D01*
X137702381Y-26083571D02*
X136702381Y-26083571D01*
X136702381Y-25750238D02*
X136702381Y-25178809D01*
X137702381Y-25464524D02*
X136702381Y-25464524D01*
X137607143Y-24274047D02*
X137654762Y-24321666D01*
X137702381Y-24464523D01*
X137702381Y-24559761D01*
X137654762Y-24702619D01*
X137559524Y-24797857D01*
X137464286Y-24845476D01*
X137273810Y-24893095D01*
X137130952Y-24893095D01*
X136940476Y-24845476D01*
X136845238Y-24797857D01*
X136750000Y-24702619D01*
X136702381Y-24559761D01*
X136702381Y-24464523D01*
X136750000Y-24321666D01*
X136797619Y-24274047D01*
X137702381Y-23845476D02*
X136702381Y-23845476D01*
X137178571Y-23845476D02*
X137178571Y-23274047D01*
X137702381Y-23274047D02*
X136702381Y-23274047D01*
X137797619Y-23035952D02*
X137797619Y-22274047D01*
X137702381Y-22035952D02*
X136702381Y-22035952D01*
X137702381Y-21559762D02*
X136702381Y-21559762D01*
X137702381Y-20988333D01*
X136702381Y-20988333D01*
X136702381Y-20655000D02*
X137702381Y-20321667D01*
X136702381Y-19988333D01*
X124954762Y-28226428D02*
X125002381Y-28083571D01*
X125002381Y-27845475D01*
X124954762Y-27750237D01*
X124907143Y-27702618D01*
X124811905Y-27654999D01*
X124716667Y-27654999D01*
X124621429Y-27702618D01*
X124573810Y-27750237D01*
X124526190Y-27845475D01*
X124478571Y-28035952D01*
X124430952Y-28131190D01*
X124383333Y-28178809D01*
X124288095Y-28226428D01*
X124192857Y-28226428D01*
X124097619Y-28178809D01*
X124050000Y-28131190D01*
X124002381Y-28035952D01*
X124002381Y-27797856D01*
X124050000Y-27654999D01*
X124002381Y-27321666D02*
X125002381Y-27083571D01*
X124288095Y-26893094D01*
X125002381Y-26702618D01*
X124002381Y-26464523D01*
X125002381Y-26083571D02*
X124002381Y-26083571D01*
X124002381Y-25750238D02*
X124002381Y-25178809D01*
X125002381Y-25464524D02*
X124002381Y-25464524D01*
X124907143Y-24274047D02*
X124954762Y-24321666D01*
X125002381Y-24464523D01*
X125002381Y-24559761D01*
X124954762Y-24702619D01*
X124859524Y-24797857D01*
X124764286Y-24845476D01*
X124573810Y-24893095D01*
X124430952Y-24893095D01*
X124240476Y-24845476D01*
X124145238Y-24797857D01*
X124050000Y-24702619D01*
X124002381Y-24559761D01*
X124002381Y-24464523D01*
X124050000Y-24321666D01*
X124097619Y-24274047D01*
X125002381Y-23845476D02*
X124002381Y-23845476D01*
X124478571Y-23845476D02*
X124478571Y-23274047D01*
X125002381Y-23274047D02*
X124002381Y-23274047D01*
X125097619Y-23035952D02*
X125097619Y-22274047D01*
X125002381Y-22035952D02*
X124002381Y-22035952D01*
X125002381Y-21559762D02*
X124002381Y-21559762D01*
X125002381Y-20988333D01*
X124002381Y-20988333D01*
X124002381Y-20655000D02*
X125002381Y-20321667D01*
X124002381Y-19988333D01*
X112254762Y-28226428D02*
X112302381Y-28083571D01*
X112302381Y-27845475D01*
X112254762Y-27750237D01*
X112207143Y-27702618D01*
X112111905Y-27654999D01*
X112016667Y-27654999D01*
X111921429Y-27702618D01*
X111873810Y-27750237D01*
X111826190Y-27845475D01*
X111778571Y-28035952D01*
X111730952Y-28131190D01*
X111683333Y-28178809D01*
X111588095Y-28226428D01*
X111492857Y-28226428D01*
X111397619Y-28178809D01*
X111350000Y-28131190D01*
X111302381Y-28035952D01*
X111302381Y-27797856D01*
X111350000Y-27654999D01*
X111302381Y-27321666D02*
X112302381Y-27083571D01*
X111588095Y-26893094D01*
X112302381Y-26702618D01*
X111302381Y-26464523D01*
X112302381Y-26083571D02*
X111302381Y-26083571D01*
X111302381Y-25750238D02*
X111302381Y-25178809D01*
X112302381Y-25464524D02*
X111302381Y-25464524D01*
X112207143Y-24274047D02*
X112254762Y-24321666D01*
X112302381Y-24464523D01*
X112302381Y-24559761D01*
X112254762Y-24702619D01*
X112159524Y-24797857D01*
X112064286Y-24845476D01*
X111873810Y-24893095D01*
X111730952Y-24893095D01*
X111540476Y-24845476D01*
X111445238Y-24797857D01*
X111350000Y-24702619D01*
X111302381Y-24559761D01*
X111302381Y-24464523D01*
X111350000Y-24321666D01*
X111397619Y-24274047D01*
X112302381Y-23845476D02*
X111302381Y-23845476D01*
X111778571Y-23845476D02*
X111778571Y-23274047D01*
X112302381Y-23274047D02*
X111302381Y-23274047D01*
X112397619Y-23035952D02*
X112397619Y-22274047D01*
X112302381Y-22035952D02*
X111302381Y-22035952D01*
X112302381Y-21559762D02*
X111302381Y-21559762D01*
X112302381Y-20988333D01*
X111302381Y-20988333D01*
X111302381Y-20655000D02*
X112302381Y-20321667D01*
X111302381Y-19988333D01*
X99554762Y-28226428D02*
X99602381Y-28083571D01*
X99602381Y-27845475D01*
X99554762Y-27750237D01*
X99507143Y-27702618D01*
X99411905Y-27654999D01*
X99316667Y-27654999D01*
X99221429Y-27702618D01*
X99173810Y-27750237D01*
X99126190Y-27845475D01*
X99078571Y-28035952D01*
X99030952Y-28131190D01*
X98983333Y-28178809D01*
X98888095Y-28226428D01*
X98792857Y-28226428D01*
X98697619Y-28178809D01*
X98650000Y-28131190D01*
X98602381Y-28035952D01*
X98602381Y-27797856D01*
X98650000Y-27654999D01*
X98602381Y-27321666D02*
X99602381Y-27083571D01*
X98888095Y-26893094D01*
X99602381Y-26702618D01*
X98602381Y-26464523D01*
X99602381Y-26083571D02*
X98602381Y-26083571D01*
X98602381Y-25750238D02*
X98602381Y-25178809D01*
X99602381Y-25464524D02*
X98602381Y-25464524D01*
X99507143Y-24274047D02*
X99554762Y-24321666D01*
X99602381Y-24464523D01*
X99602381Y-24559761D01*
X99554762Y-24702619D01*
X99459524Y-24797857D01*
X99364286Y-24845476D01*
X99173810Y-24893095D01*
X99030952Y-24893095D01*
X98840476Y-24845476D01*
X98745238Y-24797857D01*
X98650000Y-24702619D01*
X98602381Y-24559761D01*
X98602381Y-24464523D01*
X98650000Y-24321666D01*
X98697619Y-24274047D01*
X99602381Y-23845476D02*
X98602381Y-23845476D01*
X99078571Y-23845476D02*
X99078571Y-23274047D01*
X99602381Y-23274047D02*
X98602381Y-23274047D01*
X99697619Y-23035952D02*
X99697619Y-22274047D01*
X99602381Y-22035952D02*
X98602381Y-22035952D01*
X99602381Y-21559762D02*
X98602381Y-21559762D01*
X99602381Y-20988333D01*
X98602381Y-20988333D01*
X98602381Y-20655000D02*
X99602381Y-20321667D01*
X98602381Y-19988333D01*
X86854762Y-28226428D02*
X86902381Y-28083571D01*
X86902381Y-27845475D01*
X86854762Y-27750237D01*
X86807143Y-27702618D01*
X86711905Y-27654999D01*
X86616667Y-27654999D01*
X86521429Y-27702618D01*
X86473810Y-27750237D01*
X86426190Y-27845475D01*
X86378571Y-28035952D01*
X86330952Y-28131190D01*
X86283333Y-28178809D01*
X86188095Y-28226428D01*
X86092857Y-28226428D01*
X85997619Y-28178809D01*
X85950000Y-28131190D01*
X85902381Y-28035952D01*
X85902381Y-27797856D01*
X85950000Y-27654999D01*
X85902381Y-27321666D02*
X86902381Y-27083571D01*
X86188095Y-26893094D01*
X86902381Y-26702618D01*
X85902381Y-26464523D01*
X86902381Y-26083571D02*
X85902381Y-26083571D01*
X85902381Y-25750238D02*
X85902381Y-25178809D01*
X86902381Y-25464524D02*
X85902381Y-25464524D01*
X86807143Y-24274047D02*
X86854762Y-24321666D01*
X86902381Y-24464523D01*
X86902381Y-24559761D01*
X86854762Y-24702619D01*
X86759524Y-24797857D01*
X86664286Y-24845476D01*
X86473810Y-24893095D01*
X86330952Y-24893095D01*
X86140476Y-24845476D01*
X86045238Y-24797857D01*
X85950000Y-24702619D01*
X85902381Y-24559761D01*
X85902381Y-24464523D01*
X85950000Y-24321666D01*
X85997619Y-24274047D01*
X86902381Y-23845476D02*
X85902381Y-23845476D01*
X86378571Y-23845476D02*
X86378571Y-23274047D01*
X86902381Y-23274047D02*
X85902381Y-23274047D01*
X86997619Y-23035952D02*
X86997619Y-22274047D01*
X86902381Y-22035952D02*
X85902381Y-22035952D01*
X86902381Y-21559762D02*
X85902381Y-21559762D01*
X86902381Y-20988333D01*
X85902381Y-20988333D01*
X85902381Y-20655000D02*
X86902381Y-20321667D01*
X85902381Y-19988333D01*
X74154762Y-28226428D02*
X74202381Y-28083571D01*
X74202381Y-27845475D01*
X74154762Y-27750237D01*
X74107143Y-27702618D01*
X74011905Y-27654999D01*
X73916667Y-27654999D01*
X73821429Y-27702618D01*
X73773810Y-27750237D01*
X73726190Y-27845475D01*
X73678571Y-28035952D01*
X73630952Y-28131190D01*
X73583333Y-28178809D01*
X73488095Y-28226428D01*
X73392857Y-28226428D01*
X73297619Y-28178809D01*
X73250000Y-28131190D01*
X73202381Y-28035952D01*
X73202381Y-27797856D01*
X73250000Y-27654999D01*
X73202381Y-27321666D02*
X74202381Y-27083571D01*
X73488095Y-26893094D01*
X74202381Y-26702618D01*
X73202381Y-26464523D01*
X74202381Y-26083571D02*
X73202381Y-26083571D01*
X73202381Y-25750238D02*
X73202381Y-25178809D01*
X74202381Y-25464524D02*
X73202381Y-25464524D01*
X74107143Y-24274047D02*
X74154762Y-24321666D01*
X74202381Y-24464523D01*
X74202381Y-24559761D01*
X74154762Y-24702619D01*
X74059524Y-24797857D01*
X73964286Y-24845476D01*
X73773810Y-24893095D01*
X73630952Y-24893095D01*
X73440476Y-24845476D01*
X73345238Y-24797857D01*
X73250000Y-24702619D01*
X73202381Y-24559761D01*
X73202381Y-24464523D01*
X73250000Y-24321666D01*
X73297619Y-24274047D01*
X74202381Y-23845476D02*
X73202381Y-23845476D01*
X73678571Y-23845476D02*
X73678571Y-23274047D01*
X74202381Y-23274047D02*
X73202381Y-23274047D01*
X74297619Y-23035952D02*
X74297619Y-22274047D01*
X74202381Y-22035952D02*
X73202381Y-22035952D01*
X74202381Y-21559762D02*
X73202381Y-21559762D01*
X74202381Y-20988333D01*
X73202381Y-20988333D01*
X73202381Y-20655000D02*
X74202381Y-20321667D01*
X73202381Y-19988333D01*
X194731191Y-37897143D02*
X194683572Y-37944762D01*
X194540715Y-37992381D01*
X194445477Y-37992381D01*
X194302619Y-37944762D01*
X194207381Y-37849524D01*
X194159762Y-37754286D01*
X194112143Y-37563810D01*
X194112143Y-37420952D01*
X194159762Y-37230476D01*
X194207381Y-37135238D01*
X194302619Y-37040000D01*
X194445477Y-36992381D01*
X194540715Y-36992381D01*
X194683572Y-37040000D01*
X194731191Y-37087619D01*
X195350238Y-36992381D02*
X195540715Y-36992381D01*
X195635953Y-37040000D01*
X195731191Y-37135238D01*
X195778810Y-37325714D01*
X195778810Y-37659048D01*
X195731191Y-37849524D01*
X195635953Y-37944762D01*
X195540715Y-37992381D01*
X195350238Y-37992381D01*
X195255000Y-37944762D01*
X195159762Y-37849524D01*
X195112143Y-37659048D01*
X195112143Y-37325714D01*
X195159762Y-37135238D01*
X195255000Y-37040000D01*
X195350238Y-36992381D01*
X196207381Y-37992381D02*
X196207381Y-36992381D01*
X196778810Y-37992381D01*
X196778810Y-36992381D01*
X197255000Y-37992381D02*
X197255000Y-36992381D01*
X197826429Y-37992381D01*
X197826429Y-36992381D01*
X198064524Y-38087619D02*
X198826429Y-38087619D01*
X199255000Y-36992381D02*
X199350239Y-36992381D01*
X199445477Y-37040000D01*
X199493096Y-37087619D01*
X199540715Y-37182857D01*
X199588334Y-37373333D01*
X199588334Y-37611429D01*
X199540715Y-37801905D01*
X199493096Y-37897143D01*
X199445477Y-37944762D01*
X199350239Y-37992381D01*
X199255000Y-37992381D01*
X199159762Y-37944762D01*
X199112143Y-37897143D01*
X199064524Y-37801905D01*
X199016905Y-37611429D01*
X199016905Y-37373333D01*
X199064524Y-37182857D01*
X199112143Y-37087619D01*
X199159762Y-37040000D01*
X199255000Y-36992381D01*
X200540715Y-37992381D02*
X199969286Y-37992381D01*
X200255000Y-37992381D02*
X200255000Y-36992381D01*
X200159762Y-37135238D01*
X200064524Y-37230476D01*
X199969286Y-37278095D01*
X200874048Y-36992381D02*
X201540715Y-37992381D01*
X201540715Y-36992381D02*
X200874048Y-37992381D01*
X202112143Y-36992381D02*
X202207382Y-36992381D01*
X202302620Y-37040000D01*
X202350239Y-37087619D01*
X202397858Y-37182857D01*
X202445477Y-37373333D01*
X202445477Y-37611429D01*
X202397858Y-37801905D01*
X202350239Y-37897143D01*
X202302620Y-37944762D01*
X202207382Y-37992381D01*
X202112143Y-37992381D01*
X202016905Y-37944762D01*
X201969286Y-37897143D01*
X201921667Y-37801905D01*
X201874048Y-37611429D01*
X201874048Y-37373333D01*
X201921667Y-37182857D01*
X201969286Y-37087619D01*
X202016905Y-37040000D01*
X202112143Y-36992381D01*
X203302620Y-37325714D02*
X203302620Y-37992381D01*
X203064524Y-36944762D02*
X202826429Y-37659048D01*
X203445477Y-37659048D01*
X184582143Y-51013809D02*
X184629762Y-51061428D01*
X184677381Y-51204285D01*
X184677381Y-51299523D01*
X184629762Y-51442381D01*
X184534524Y-51537619D01*
X184439286Y-51585238D01*
X184248810Y-51632857D01*
X184105952Y-51632857D01*
X183915476Y-51585238D01*
X183820238Y-51537619D01*
X183725000Y-51442381D01*
X183677381Y-51299523D01*
X183677381Y-51204285D01*
X183725000Y-51061428D01*
X183772619Y-51013809D01*
X183677381Y-50394762D02*
X183677381Y-50204285D01*
X183725000Y-50109047D01*
X183820238Y-50013809D01*
X184010714Y-49966190D01*
X184344048Y-49966190D01*
X184534524Y-50013809D01*
X184629762Y-50109047D01*
X184677381Y-50204285D01*
X184677381Y-50394762D01*
X184629762Y-50490000D01*
X184534524Y-50585238D01*
X184344048Y-50632857D01*
X184010714Y-50632857D01*
X183820238Y-50585238D01*
X183725000Y-50490000D01*
X183677381Y-50394762D01*
X184677381Y-49537619D02*
X183677381Y-49537619D01*
X184677381Y-48966190D01*
X183677381Y-48966190D01*
X184677381Y-48490000D02*
X183677381Y-48490000D01*
X184677381Y-47918571D01*
X183677381Y-47918571D01*
X184772619Y-47680476D02*
X184772619Y-46918571D01*
X183677381Y-46490000D02*
X183677381Y-46394761D01*
X183725000Y-46299523D01*
X183772619Y-46251904D01*
X183867857Y-46204285D01*
X184058333Y-46156666D01*
X184296429Y-46156666D01*
X184486905Y-46204285D01*
X184582143Y-46251904D01*
X184629762Y-46299523D01*
X184677381Y-46394761D01*
X184677381Y-46490000D01*
X184629762Y-46585238D01*
X184582143Y-46632857D01*
X184486905Y-46680476D01*
X184296429Y-46728095D01*
X184058333Y-46728095D01*
X183867857Y-46680476D01*
X183772619Y-46632857D01*
X183725000Y-46585238D01*
X183677381Y-46490000D01*
X184677381Y-45204285D02*
X184677381Y-45775714D01*
X184677381Y-45490000D02*
X183677381Y-45490000D01*
X183820238Y-45585238D01*
X183915476Y-45680476D01*
X183963095Y-45775714D01*
X183677381Y-44870952D02*
X184677381Y-44204285D01*
X183677381Y-44204285D02*
X184677381Y-44870952D01*
X183677381Y-43632857D02*
X183677381Y-43537618D01*
X183725000Y-43442380D01*
X183772619Y-43394761D01*
X183867857Y-43347142D01*
X184058333Y-43299523D01*
X184296429Y-43299523D01*
X184486905Y-43347142D01*
X184582143Y-43394761D01*
X184629762Y-43442380D01*
X184677381Y-43537618D01*
X184677381Y-43632857D01*
X184629762Y-43728095D01*
X184582143Y-43775714D01*
X184486905Y-43823333D01*
X184296429Y-43870952D01*
X184058333Y-43870952D01*
X183867857Y-43823333D01*
X183772619Y-43775714D01*
X183725000Y-43728095D01*
X183677381Y-43632857D01*
X183677381Y-42966190D02*
X183677381Y-42347142D01*
X184058333Y-42680476D01*
X184058333Y-42537618D01*
X184105952Y-42442380D01*
X184153571Y-42394761D01*
X184248810Y-42347142D01*
X184486905Y-42347142D01*
X184582143Y-42394761D01*
X184629762Y-42442380D01*
X184677381Y-42537618D01*
X184677381Y-42823333D01*
X184629762Y-42918571D01*
X184582143Y-42966190D01*
X184582143Y-42758809D02*
X184629762Y-42806428D01*
X184677381Y-42949285D01*
X184677381Y-43044523D01*
X184629762Y-43187381D01*
X184534524Y-43282619D01*
X184439286Y-43330238D01*
X184248810Y-43377857D01*
X184105952Y-43377857D01*
X183915476Y-43330238D01*
X183820238Y-43282619D01*
X183725000Y-43187381D01*
X183677381Y-43044523D01*
X183677381Y-42949285D01*
X183725000Y-42806428D01*
X183772619Y-42758809D01*
X183677381Y-42139762D02*
X183677381Y-41949285D01*
X183725000Y-41854047D01*
X183820238Y-41758809D01*
X184010714Y-41711190D01*
X184344048Y-41711190D01*
X184534524Y-41758809D01*
X184629762Y-41854047D01*
X184677381Y-41949285D01*
X184677381Y-42139762D01*
X184629762Y-42235000D01*
X184534524Y-42330238D01*
X184344048Y-42377857D01*
X184010714Y-42377857D01*
X183820238Y-42330238D01*
X183725000Y-42235000D01*
X183677381Y-42139762D01*
X184677381Y-41282619D02*
X183677381Y-41282619D01*
X184677381Y-40711190D01*
X183677381Y-40711190D01*
X184677381Y-40235000D02*
X183677381Y-40235000D01*
X184677381Y-39663571D01*
X183677381Y-39663571D01*
X184772619Y-39425476D02*
X184772619Y-38663571D01*
X183677381Y-38235000D02*
X183677381Y-38139761D01*
X183725000Y-38044523D01*
X183772619Y-37996904D01*
X183867857Y-37949285D01*
X184058333Y-37901666D01*
X184296429Y-37901666D01*
X184486905Y-37949285D01*
X184582143Y-37996904D01*
X184629762Y-38044523D01*
X184677381Y-38139761D01*
X184677381Y-38235000D01*
X184629762Y-38330238D01*
X184582143Y-38377857D01*
X184486905Y-38425476D01*
X184296429Y-38473095D01*
X184058333Y-38473095D01*
X183867857Y-38425476D01*
X183772619Y-38377857D01*
X183725000Y-38330238D01*
X183677381Y-38235000D01*
X184677381Y-36949285D02*
X184677381Y-37520714D01*
X184677381Y-37235000D02*
X183677381Y-37235000D01*
X183820238Y-37330238D01*
X183915476Y-37425476D01*
X183963095Y-37520714D01*
X183677381Y-36615952D02*
X184677381Y-35949285D01*
X183677381Y-35949285D02*
X184677381Y-36615952D01*
X183677381Y-35377857D02*
X183677381Y-35282618D01*
X183725000Y-35187380D01*
X183772619Y-35139761D01*
X183867857Y-35092142D01*
X184058333Y-35044523D01*
X184296429Y-35044523D01*
X184486905Y-35092142D01*
X184582143Y-35139761D01*
X184629762Y-35187380D01*
X184677381Y-35282618D01*
X184677381Y-35377857D01*
X184629762Y-35473095D01*
X184582143Y-35520714D01*
X184486905Y-35568333D01*
X184296429Y-35615952D01*
X184058333Y-35615952D01*
X183867857Y-35568333D01*
X183772619Y-35520714D01*
X183725000Y-35473095D01*
X183677381Y-35377857D01*
X183677381Y-34711190D02*
X183677381Y-34092142D01*
X184058333Y-34425476D01*
X184058333Y-34282618D01*
X184105952Y-34187380D01*
X184153571Y-34139761D01*
X184248810Y-34092142D01*
X184486905Y-34092142D01*
X184582143Y-34139761D01*
X184629762Y-34187380D01*
X184677381Y-34282618D01*
X184677381Y-34568333D01*
X184629762Y-34663571D01*
X184582143Y-34711190D01*
M02*
