G04 #@! TF.FileFunction,Soldermask,Top*
%FSLAX46Y46*%
G04 Gerber Fmt 4.6, Leading zero omitted, Abs format (unit mm)*
G04 Created by KiCad (PCBNEW 4.0.2-stable) date Friday, 12 August 2016 'pmt' 16:35:16*
%MOMM*%
G01*
G04 APERTURE LIST*
%ADD10C,0.100000*%
%ADD11R,1.727200X1.727200*%
%ADD12O,1.727200X1.727200*%
%ADD13R,2.000000X1.900000*%
%ADD14C,1.900000*%
%ADD15C,5.000000*%
G04 APERTURE END LIST*
D10*
D11*
X46990000Y-77470000D03*
D12*
X46990000Y-74930000D03*
X49530000Y-77470000D03*
X49530000Y-74930000D03*
X52070000Y-77470000D03*
X52070000Y-74930000D03*
X54610000Y-77470000D03*
X54610000Y-74930000D03*
X57150000Y-77470000D03*
X57150000Y-74930000D03*
D13*
X38100000Y-88900000D03*
D14*
X38100000Y-86360000D03*
D13*
X50800000Y-88900000D03*
D14*
X50800000Y-86360000D03*
D13*
X63500000Y-88900000D03*
D14*
X63500000Y-86360000D03*
D13*
X76200000Y-88900000D03*
D14*
X76200000Y-86360000D03*
D13*
X88900000Y-88900000D03*
D14*
X88900000Y-86360000D03*
D13*
X101600000Y-88900000D03*
D14*
X101600000Y-86360000D03*
D13*
X114300000Y-88900000D03*
D14*
X114300000Y-86360000D03*
D13*
X127000000Y-88900000D03*
D14*
X127000000Y-86360000D03*
D13*
X139700000Y-88900000D03*
D14*
X139700000Y-86360000D03*
D13*
X152400000Y-88900000D03*
D14*
X152400000Y-86360000D03*
D13*
X165100000Y-88900000D03*
D14*
X165100000Y-86360000D03*
D13*
X177800000Y-88900000D03*
D14*
X177800000Y-86360000D03*
D13*
X190500000Y-88900000D03*
D14*
X190500000Y-86360000D03*
D13*
X203200000Y-88900000D03*
D14*
X203200000Y-86360000D03*
D13*
X215900000Y-88900000D03*
D14*
X215900000Y-86360000D03*
D13*
X228600000Y-88900000D03*
D14*
X228600000Y-86360000D03*
D15*
X44450000Y-82550000D03*
X222250000Y-82550000D03*
M02*
