<?xml version="1.0" standalone="no"?>
 <!DOCTYPE svg PUBLIC "-//W3C//DTD SVG 1.1//EN" 
 "http://www.w3.org/Graphics/SVG/1.1/DTD/svg11.dtd"> 
<svg xmlns="http://www.w3.org/2000/svg" version="1.1" 
    width="29.7002cm" height="21.0007cm" viewBox="0 0 116930 82680 ">
<title>SVG Picture created as lamps-16-mag-brd.svg date 2016/09/02 09:27:45 </title>
  <desc>Picture generated by PCBNEW </desc>
<g style="fill:#000000; fill-opacity:1;stroke:#000000; stroke-opacity:1;
stroke-linecap:round; stroke-linejoin:round; "
 transform="translate(0 0) scale(1 1)">
</g>
<g style="fill:#000000; fill-opacity:0.0; 
stroke:#000000; stroke-width:-0.000393701; stroke-opacity:1; 
stroke-linecap:round; stroke-linejoin:round;">
</g>
<g style="fill:#000000; fill-opacity:0.0; 
stroke:#000000; stroke-width:39.3701; stroke-opacity:1; 
stroke-linecap:round; stroke-linejoin:round;">
</g>
<g style="fill:#000000; fill-opacity:0.0; 
stroke:#000000; stroke-width:59.0551; stroke-opacity:1; 
stroke-linecap:round; stroke-linejoin:round;">
<rect x="69685.9" y="65357.2" width="42519.7" height="12598.4" rx="0" />
</g>
<g style="fill:#000000; fill-opacity:0.0; 
stroke:#000000; stroke-width:39.3701; stroke-opacity:1; 
stroke-linecap:round; stroke-linejoin:round;">
</g>
<g style="fill:#000000; fill-opacity:0.0; 
stroke:#000000; stroke-width:59.0551; stroke-opacity:1; 
stroke-linecap:round; stroke-linejoin:round;">
<rect x="3937.01" y="3937.01" width="109056" height="74806" rx="0" />
</g>
<g style="fill:#000000; fill-opacity:0.0; 
stroke:#000000; stroke-width:39.3701; stroke-opacity:1; 
stroke-linecap:round; stroke-linejoin:round;">
</g>
<g style="fill:#000000; fill-opacity:0.0; 
stroke:#000000; stroke-width:59.0551; stroke-opacity:1; 
stroke-linecap:round; stroke-linejoin:round;">
<rect x="4724.41" y="4724.41" width="107481" height="73231.2" rx="0" />
</g>
<g style="fill:#000000; fill-opacity:0.0; 
stroke:#000000; stroke-width:39.3701; stroke-opacity:1; 
stroke-linecap:round; stroke-linejoin:round;">
</g>
<g style="fill:#000000; fill-opacity:0.0; 
stroke:#000000; stroke-width:59.0551; stroke-opacity:1; 
stroke-linecap:round; stroke-linejoin:round;">
<path d="M23622 4724
L23622 3937
" />
</g>
<g style="fill:#000000; fill-opacity:0.0; 
stroke:#000000; stroke-width:39.3701; stroke-opacity:1; 
stroke-linecap:round; stroke-linejoin:round;">
</g>
<g style="fill:#000000; fill-opacity:0.0; 
stroke:#000000; stroke-width:59.0551; stroke-opacity:1; 
stroke-linecap:round; stroke-linejoin:round;">
<path d="M43307 4724
L43307 3937
" />
</g>
<g style="fill:#000000; fill-opacity:0.0; 
stroke:#000000; stroke-width:39.3701; stroke-opacity:1; 
stroke-linecap:round; stroke-linejoin:round;">
</g>
<g style="fill:#000000; fill-opacity:0.0; 
stroke:#000000; stroke-width:59.0551; stroke-opacity:1; 
stroke-linecap:round; stroke-linejoin:round;">
<path d="M62992 4724
L62992 3937
" />
</g>
<g style="fill:#000000; fill-opacity:0.0; 
stroke:#000000; stroke-width:39.3701; stroke-opacity:1; 
stroke-linecap:round; stroke-linejoin:round;">
</g>
<g style="fill:#000000; fill-opacity:0.0; 
stroke:#000000; stroke-width:59.0551; stroke-opacity:1; 
stroke-linecap:round; stroke-linejoin:round;">
<path d="M82677 4724
L82677 3937
" />
</g>
<g style="fill:#000000; fill-opacity:0.0; 
stroke:#000000; stroke-width:39.3701; stroke-opacity:1; 
stroke-linecap:round; stroke-linejoin:round;">
</g>
<g style="fill:#000000; fill-opacity:0.0; 
stroke:#000000; stroke-width:59.0551; stroke-opacity:1; 
stroke-linecap:round; stroke-linejoin:round;">
<path d="M102362 4724
L102362 3937
" />
</g>
<g style="fill:#000000; fill-opacity:0.0; 
stroke:#000000; stroke-width:39.3701; stroke-opacity:1; 
stroke-linecap:round; stroke-linejoin:round;">
</g>
<g style="fill:#000000; fill-opacity:0.0; 
stroke:#000000; stroke-width:59.0551; stroke-opacity:1; 
stroke-linecap:round; stroke-linejoin:round;">
<path d="M14169 4562
L13877 4562
" />
<path d="M14023 4562
L14023 4050
L13974 4123
L13925 4172
L13877 4196
" />
</g>
<g style="fill:#000000; fill-opacity:0.0; 
stroke:#000000; stroke-width:39.3701; stroke-opacity:1; 
stroke-linecap:round; stroke-linejoin:round;">
</g>
<g style="fill:#000000; fill-opacity:0.0; 
stroke:#000000; stroke-width:59.0551; stroke-opacity:1; 
stroke-linecap:round; stroke-linejoin:round;">
<path d="M33562 4099
L33586 4074
L33635 4050
L33757 4050
L33805 4074
L33830 4099
L33854 4147
L33854 4196
L33830 4269
L33537 4562
L33854 4562
" />
</g>
<g style="fill:#000000; fill-opacity:0.0; 
stroke:#000000; stroke-width:39.3701; stroke-opacity:1; 
stroke-linecap:round; stroke-linejoin:round;">
</g>
<g style="fill:#000000; fill-opacity:0.0; 
stroke:#000000; stroke-width:59.0551; stroke-opacity:1; 
stroke-linecap:round; stroke-linejoin:round;">
<path d="M53222 4050
L53539 4050
L53368 4245
L53442 4245
L53490 4269
L53515 4294
L53539 4342
L53539 4464
L53515 4513
L53490 4537
L53442 4562
L53295 4562
L53247 4537
L53222 4513
" />
</g>
<g style="fill:#000000; fill-opacity:0.0; 
stroke:#000000; stroke-width:39.3701; stroke-opacity:1; 
stroke-linecap:round; stroke-linejoin:round;">
</g>
<g style="fill:#000000; fill-opacity:0.0; 
stroke:#000000; stroke-width:59.0551; stroke-opacity:1; 
stroke-linecap:round; stroke-linejoin:round;">
<path d="M73175 4221
L73175 4562
" />
<path d="M73053 4026
L72932 4391
L73248 4391
" />
</g>
<g style="fill:#000000; fill-opacity:0.0; 
stroke:#000000; stroke-width:39.3701; stroke-opacity:1; 
stroke-linecap:round; stroke-linejoin:round;">
</g>
<g style="fill:#000000; fill-opacity:0.0; 
stroke:#000000; stroke-width:59.0551; stroke-opacity:1; 
stroke-linecap:round; stroke-linejoin:round;">
<path d="M92885 4050
L92641 4050
L92617 4294
L92641 4269
L92690 4245
L92812 4245
L92860 4269
L92885 4294
L92909 4342
L92909 4464
L92885 4513
L92860 4537
L92812 4562
L92690 4562
L92641 4537
L92617 4513
" />
</g>
<g style="fill:#000000; fill-opacity:0.0; 
stroke:#000000; stroke-width:39.3701; stroke-opacity:1; 
stroke-linecap:round; stroke-linejoin:round;">
</g>
<g style="fill:#000000; fill-opacity:0.0; 
stroke:#000000; stroke-width:59.0551; stroke-opacity:1; 
stroke-linecap:round; stroke-linejoin:round;">
<path d="M112545 4050
L112448 4050
L112399 4074
L112375 4099
L112326 4172
L112302 4269
L112302 4464
L112326 4513
L112350 4537
L112399 4562
L112497 4562
L112545 4537
L112570 4513
L112594 4464
L112594 4342
L112570 4294
L112545 4269
L112497 4245
L112399 4245
L112350 4269
L112326 4294
L112302 4342
" />
</g>
<g style="fill:#000000; fill-opacity:0.0; 
stroke:#000000; stroke-width:39.3701; stroke-opacity:1; 
stroke-linecap:round; stroke-linejoin:round;">
</g>
<g style="fill:#000000; fill-opacity:0.0; 
stroke:#000000; stroke-width:59.0551; stroke-opacity:1; 
stroke-linecap:round; stroke-linejoin:round;">
<path d="M23622 77955
L23622 78742
" />
</g>
<g style="fill:#000000; fill-opacity:0.0; 
stroke:#000000; stroke-width:39.3701; stroke-opacity:1; 
stroke-linecap:round; stroke-linejoin:round;">
</g>
<g style="fill:#000000; fill-opacity:0.0; 
stroke:#000000; stroke-width:59.0551; stroke-opacity:1; 
stroke-linecap:round; stroke-linejoin:round;">
<path d="M43307 77955
L43307 78742
" />
</g>
<g style="fill:#000000; fill-opacity:0.0; 
stroke:#000000; stroke-width:39.3701; stroke-opacity:1; 
stroke-linecap:round; stroke-linejoin:round;">
</g>
<g style="fill:#000000; fill-opacity:0.0; 
stroke:#000000; stroke-width:59.0551; stroke-opacity:1; 
stroke-linecap:round; stroke-linejoin:round;">
<path d="M62992 77955
L62992 78742
" />
</g>
<g style="fill:#000000; fill-opacity:0.0; 
stroke:#000000; stroke-width:39.3701; stroke-opacity:1; 
stroke-linecap:round; stroke-linejoin:round;">
</g>
<g style="fill:#000000; fill-opacity:0.0; 
stroke:#000000; stroke-width:59.0551; stroke-opacity:1; 
stroke-linecap:round; stroke-linejoin:round;">
<path d="M82677 77955
L82677 78742
" />
</g>
<g style="fill:#000000; fill-opacity:0.0; 
stroke:#000000; stroke-width:39.3701; stroke-opacity:1; 
stroke-linecap:round; stroke-linejoin:round;">
</g>
<g style="fill:#000000; fill-opacity:0.0; 
stroke:#000000; stroke-width:59.0551; stroke-opacity:1; 
stroke-linecap:round; stroke-linejoin:round;">
<path d="M102362 77955
L102362 78742
" />
</g>
<g style="fill:#000000; fill-opacity:0.0; 
stroke:#000000; stroke-width:39.3701; stroke-opacity:1; 
stroke-linecap:round; stroke-linejoin:round;">
</g>
<g style="fill:#000000; fill-opacity:0.0; 
stroke:#000000; stroke-width:59.0551; stroke-opacity:1; 
stroke-linecap:round; stroke-linejoin:round;">
<path d="M14169 78580
L13877 78580
" />
<path d="M14023 78580
L14023 78069
L13974 78142
L13925 78190
L13877 78215
" />
</g>
<g style="fill:#000000; fill-opacity:0.0; 
stroke:#000000; stroke-width:39.3701; stroke-opacity:1; 
stroke-linecap:round; stroke-linejoin:round;">
</g>
<g style="fill:#000000; fill-opacity:0.0; 
stroke:#000000; stroke-width:59.0551; stroke-opacity:1; 
stroke-linecap:round; stroke-linejoin:round;">
<path d="M33562 78117
L33586 78093
L33635 78069
L33757 78069
L33805 78093
L33830 78117
L33854 78166
L33854 78215
L33830 78288
L33537 78580
L33854 78580
" />
</g>
<g style="fill:#000000; fill-opacity:0.0; 
stroke:#000000; stroke-width:39.3701; stroke-opacity:1; 
stroke-linecap:round; stroke-linejoin:round;">
</g>
<g style="fill:#000000; fill-opacity:0.0; 
stroke:#000000; stroke-width:59.0551; stroke-opacity:1; 
stroke-linecap:round; stroke-linejoin:round;">
<path d="M53222 78069
L53539 78069
L53368 78263
L53442 78263
L53490 78288
L53515 78312
L53539 78361
L53539 78483
L53515 78532
L53490 78556
L53442 78580
L53295 78580
L53247 78556
L53222 78532
" />
</g>
<g style="fill:#000000; fill-opacity:0.0; 
stroke:#000000; stroke-width:39.3701; stroke-opacity:1; 
stroke-linecap:round; stroke-linejoin:round;">
</g>
<g style="fill:#000000; fill-opacity:0.0; 
stroke:#000000; stroke-width:59.0551; stroke-opacity:1; 
stroke-linecap:round; stroke-linejoin:round;">
<path d="M73175 78239
L73175 78580
" />
<path d="M73053 78044
L72932 78410
L73248 78410
" />
</g>
<g style="fill:#000000; fill-opacity:0.0; 
stroke:#000000; stroke-width:39.3701; stroke-opacity:1; 
stroke-linecap:round; stroke-linejoin:round;">
</g>
<g style="fill:#000000; fill-opacity:0.0; 
stroke:#000000; stroke-width:59.0551; stroke-opacity:1; 
stroke-linecap:round; stroke-linejoin:round;">
<path d="M92885 78069
L92641 78069
L92617 78312
L92641 78288
L92690 78263
L92812 78263
L92860 78288
L92885 78312
L92909 78361
L92909 78483
L92885 78532
L92860 78556
L92812 78580
L92690 78580
L92641 78556
L92617 78532
" />
</g>
<g style="fill:#000000; fill-opacity:0.0; 
stroke:#000000; stroke-width:39.3701; stroke-opacity:1; 
stroke-linecap:round; stroke-linejoin:round;">
</g>
<g style="fill:#000000; fill-opacity:0.0; 
stroke:#000000; stroke-width:59.0551; stroke-opacity:1; 
stroke-linecap:round; stroke-linejoin:round;">
<path d="M112545 78069
L112448 78069
L112399 78093
L112375 78117
L112326 78190
L112302 78288
L112302 78483
L112326 78532
L112350 78556
L112399 78580
L112497 78580
L112545 78556
L112570 78532
L112594 78483
L112594 78361
L112570 78312
L112545 78288
L112497 78263
L112399 78263
L112350 78288
L112326 78312
L112302 78361
" />
</g>
<g style="fill:#000000; fill-opacity:0.0; 
stroke:#000000; stroke-width:39.3701; stroke-opacity:1; 
stroke-linecap:round; stroke-linejoin:round;">
</g>
<g style="fill:#000000; fill-opacity:0.0; 
stroke:#000000; stroke-width:59.0551; stroke-opacity:1; 
stroke-linecap:round; stroke-linejoin:round;">
<path d="M3937 23622
L4724 23622
" />
</g>
<g style="fill:#000000; fill-opacity:0.0; 
stroke:#000000; stroke-width:39.3701; stroke-opacity:1; 
stroke-linecap:round; stroke-linejoin:round;">
</g>
<g style="fill:#000000; fill-opacity:0.0; 
stroke:#000000; stroke-width:59.0551; stroke-opacity:1; 
stroke-linecap:round; stroke-linejoin:round;">
<path d="M3937 43307
L4724 43307
" />
</g>
<g style="fill:#000000; fill-opacity:0.0; 
stroke:#000000; stroke-width:39.3701; stroke-opacity:1; 
stroke-linecap:round; stroke-linejoin:round;">
</g>
<g style="fill:#000000; fill-opacity:0.0; 
stroke:#000000; stroke-width:59.0551; stroke-opacity:1; 
stroke-linecap:round; stroke-linejoin:round;">
<path d="M3937 62992
L4724 62992
" />
</g>
<g style="fill:#000000; fill-opacity:0.0; 
stroke:#000000; stroke-width:39.3701; stroke-opacity:1; 
stroke-linecap:round; stroke-linejoin:round;">
</g>
<g style="fill:#000000; fill-opacity:0.0; 
stroke:#000000; stroke-width:59.0551; stroke-opacity:1; 
stroke-linecap:round; stroke-linejoin:round;">
<path d="M4208 13864
L4452 13864
" />
<path d="M4160 14011
L4330 13499
L4501 14011
" />
</g>
<g style="fill:#000000; fill-opacity:0.0; 
stroke:#000000; stroke-width:39.3701; stroke-opacity:1; 
stroke-linecap:round; stroke-linejoin:round;">
</g>
<g style="fill:#000000; fill-opacity:0.0; 
stroke:#000000; stroke-width:59.0551; stroke-opacity:1; 
stroke-linecap:round; stroke-linejoin:round;">
<path d="M4367 33428
L4440 33452
L4464 33476
L4489 33525
L4489 33598
L4464 33647
L4440 33671
L4391 33696
L4196 33696
L4196 33184
L4367 33184
L4416 33208
L4440 33233
L4464 33281
L4464 33330
L4440 33379
L4416 33403
L4367 33428
L4196 33428
" />
</g>
<g style="fill:#000000; fill-opacity:0.0; 
stroke:#000000; stroke-width:39.3701; stroke-opacity:1; 
stroke-linecap:round; stroke-linejoin:round;">
</g>
<g style="fill:#000000; fill-opacity:0.0; 
stroke:#000000; stroke-width:59.0551; stroke-opacity:1; 
stroke-linecap:round; stroke-linejoin:round;">
<path d="M4489 53332
L4464 53356
L4391 53381
L4342 53381
L4269 53356
L4221 53308
L4196 53259
L4172 53161
L4172 53088
L4196 52991
L4221 52942
L4269 52893
L4342 52869
L4391 52869
L4464 52893
L4489 52918
" />
</g>
<g style="fill:#000000; fill-opacity:0.0; 
stroke:#000000; stroke-width:39.3701; stroke-opacity:1; 
stroke-linecap:round; stroke-linejoin:round;">
</g>
<g style="fill:#000000; fill-opacity:0.0; 
stroke:#000000; stroke-width:59.0551; stroke-opacity:1; 
stroke-linecap:round; stroke-linejoin:round;">
<path d="M4196 73066
L4196 72554
L4318 72554
L4391 72578
L4440 72627
L4464 72676
L4489 72773
L4489 72846
L4464 72944
L4440 72993
L4391 73041
L4318 73066
L4196 73066
" />
</g>
<g style="fill:#000000; fill-opacity:0.0; 
stroke:#000000; stroke-width:39.3701; stroke-opacity:1; 
stroke-linecap:round; stroke-linejoin:round;">
</g>
<g style="fill:#000000; fill-opacity:0.0; 
stroke:#000000; stroke-width:59.0551; stroke-opacity:1; 
stroke-linecap:round; stroke-linejoin:round;">
<path d="M112992 23622
L112205 23622
" />
</g>
<g style="fill:#000000; fill-opacity:0.0; 
stroke:#000000; stroke-width:39.3701; stroke-opacity:1; 
stroke-linecap:round; stroke-linejoin:round;">
</g>
<g style="fill:#000000; fill-opacity:0.0; 
stroke:#000000; stroke-width:59.0551; stroke-opacity:1; 
stroke-linecap:round; stroke-linejoin:round;">
<path d="M112992 43307
L112205 43307
" />
</g>
<g style="fill:#000000; fill-opacity:0.0; 
stroke:#000000; stroke-width:39.3701; stroke-opacity:1; 
stroke-linecap:round; stroke-linejoin:round;">
</g>
<g style="fill:#000000; fill-opacity:0.0; 
stroke:#000000; stroke-width:59.0551; stroke-opacity:1; 
stroke-linecap:round; stroke-linejoin:round;">
<path d="M112992 62992
L112205 62992
" />
</g>
<g style="fill:#000000; fill-opacity:0.0; 
stroke:#000000; stroke-width:39.3701; stroke-opacity:1; 
stroke-linecap:round; stroke-linejoin:round;">
</g>
<g style="fill:#000000; fill-opacity:0.0; 
stroke:#000000; stroke-width:59.0551; stroke-opacity:1; 
stroke-linecap:round; stroke-linejoin:round;">
<path d="M112477 13864
L112721 13864
" />
<path d="M112428 14011
L112599 13499
L112769 14011
" />
</g>
<g style="fill:#000000; fill-opacity:0.0; 
stroke:#000000; stroke-width:39.3701; stroke-opacity:1; 
stroke-linecap:round; stroke-linejoin:round;">
</g>
<g style="fill:#000000; fill-opacity:0.0; 
stroke:#000000; stroke-width:59.0551; stroke-opacity:1; 
stroke-linecap:round; stroke-linejoin:round;">
<path d="M112635 33428
L112708 33452
L112733 33476
L112757 33525
L112757 33598
L112733 33647
L112708 33671
L112660 33696
L112465 33696
L112465 33184
L112635 33184
L112684 33208
L112708 33233
L112733 33281
L112733 33330
L112708 33379
L112684 33403
L112635 33428
L112465 33428
" />
</g>
<g style="fill:#000000; fill-opacity:0.0; 
stroke:#000000; stroke-width:39.3701; stroke-opacity:1; 
stroke-linecap:round; stroke-linejoin:round;">
</g>
<g style="fill:#000000; fill-opacity:0.0; 
stroke:#000000; stroke-width:59.0551; stroke-opacity:1; 
stroke-linecap:round; stroke-linejoin:round;">
<path d="M112757 53332
L112733 53356
L112660 53381
L112611 53381
L112538 53356
L112489 53308
L112465 53259
L112440 53161
L112440 53088
L112465 52991
L112489 52942
L112538 52893
L112611 52869
L112660 52869
L112733 52893
L112757 52918
" />
</g>
<g style="fill:#000000; fill-opacity:0.0; 
stroke:#000000; stroke-width:39.3701; stroke-opacity:1; 
stroke-linecap:round; stroke-linejoin:round;">
</g>
<g style="fill:#000000; fill-opacity:0.0; 
stroke:#000000; stroke-width:59.0551; stroke-opacity:1; 
stroke-linecap:round; stroke-linejoin:round;">
<path d="M112465 73066
L112465 72554
L112587 72554
L112660 72578
L112708 72627
L112733 72676
L112757 72773
L112757 72846
L112733 72944
L112708 72993
L112660 73041
L112587 73066
L112465 73066
" />
</g>
<g style="fill:#000000; fill-opacity:0.0; 
stroke:#000000; stroke-width:39.3701; stroke-opacity:1; 
stroke-linecap:round; stroke-linejoin:round;">
</g>
<g style="fill:#000000; fill-opacity:0.0; 
stroke:#000000; stroke-width:59.0551; stroke-opacity:1; 
stroke-linecap:round; stroke-linejoin:round;">
<path d="M78881 76293
L78881 75703
L79022 75703
L79106 75731
L79162 75787
L79190 75843
L79219 75956
L79219 76040
L79190 76153
L79162 76209
L79106 76265
L79022 76293
L78881 76293
" />
<path d="M79725 76293
L79725 75984
L79697 75928
L79640 75899
L79528 75899
L79472 75928
" />
<path d="M79725 76265
L79669 76293
L79528 76293
L79472 76265
L79444 76209
L79444 76153
L79472 76096
L79528 76068
L79669 76068
L79725 76040
" />
<path d="M79922 75899
L80147 75899
" />
<path d="M80006 75703
L80006 76209
L80034 76265
L80090 76293
L80147 76293
" />
<path d="M80568 76265
L80512 76293
L80400 76293
L80343 76265
L80315 76209
L80315 75984
L80343 75928
L80400 75899
L80512 75899
L80568 75928
L80597 75984
L80597 76040
L80315 76096
" />
<path d="M80850 76237
L80878 76265
L80850 76293
L80822 76265
L80850 76237
L80850 76293
" />
<path d="M80850 75928
L80878 75956
L80850 75984
L80822 75956
L80850 75928
L80850 75984
" />
</g>
<g style="fill:#000000; fill-opacity:0.0; 
stroke:#000000; stroke-width:39.3701; stroke-opacity:1; 
stroke-linecap:round; stroke-linejoin:round;">
</g>
<g style="fill:#000000; fill-opacity:0.0; 
stroke:#000000; stroke-width:59.0551; stroke-opacity:1; 
stroke-linecap:round; stroke-linejoin:round;">
<path d="M69685 76577
L112205 76577
" />
</g>
<g style="fill:#000000; fill-opacity:0.0; 
stroke:#000000; stroke-width:39.3701; stroke-opacity:1; 
stroke-linecap:round; stroke-linejoin:round;">
</g>
<g style="fill:#000000; fill-opacity:0.0; 
stroke:#000000; stroke-width:59.0551; stroke-opacity:1; 
stroke-linecap:round; stroke-linejoin:round;">
<path d="M70220 77395
L70220 76805
" />
<path d="M70557 77395
L70304 77058
" />
<path d="M70557 76805
L70220 77142
" />
<path d="M70810 77395
L70810 77002
" />
<path d="M70810 76805
L70782 76833
L70810 76861
L70838 76833
L70810 76805
L70810 76861
" />
<path d="M71429 77339
L71401 77367
L71316 77395
L71260 77395
L71176 77367
L71120 77311
L71091 77255
L71063 77142
L71063 77058
L71091 76946
L71120 76889
L71176 76833
L71260 76805
L71316 76805
L71401 76833
L71429 76861
" />
<path d="M71935 77395
L71935 77086
L71907 77030
L71851 77002
L71738 77002
L71682 77030
" />
<path d="M71935 77367
L71879 77395
L71738 77395
L71682 77367
L71654 77311
L71654 77255
L71682 77199
L71738 77171
L71879 77171
L71935 77142
" />
<path d="M72469 77395
L72469 76805
" />
<path d="M72469 77367
L72413 77395
L72301 77395
L72244 77367
L72216 77339
L72188 77283
L72188 77114
L72216 77058
L72244 77030
L72301 77002
L72413 77002
L72469 77030
" />
<path d="M73201 77086
L73397 77086
" />
<path d="M73482 77395
L73201 77395
L73201 76805
L73482 76805
" />
<path d="M73735 77339
L73763 77367
L73735 77395
L73707 77367
L73735 77339
L73735 77395
" />
<path d="M74016 77395
L74016 76805
L74157 76805
L74241 76833
L74297 76889
L74325 76946
L74354 77058
L74354 77142
L74325 77255
L74297 77311
L74241 77367
L74157 77395
L74016 77395
" />
<path d="M74607 77339
L74635 77367
L74607 77395
L74579 77367
L74607 77339
L74607 77395
" />
<path d="M74860 77227
L75141 77227
" />
<path d="M74804 77395
L75000 76805
L75197 77395
" />
<path d="M75394 77339
L75422 77367
L75394 77395
L75366 77367
L75394 77339
L75394 77395
" />
<path d="M76575 77395
L76575 76805
" />
<path d="M76631 77171
L76800 77395
" />
<path d="M76800 77002
L76575 77227
" />
<path d="M77053 77395
L77053 77002
" />
<path d="M77053 76805
L77025 76833
L77053 76861
L77081 76833
L77053 76805
L77053 76861
" />
<path d="M77588 77367
L77531 77395
L77419 77395
L77363 77367
L77334 77339
L77306 77283
L77306 77114
L77334 77058
L77363 77030
L77419 77002
L77531 77002
L77588 77030
" />
<path d="M78094 77395
L78094 77086
L78066 77030
L78009 77002
L77897 77002
L77841 77030
" />
<path d="M78094 77367
L78037 77395
L77897 77395
L77841 77367
L77813 77311
L77813 77255
L77841 77199
L77897 77171
L78037 77171
L78094 77142
" />
<path d="M78628 77395
L78628 76805
" />
<path d="M78628 77367
L78572 77395
L78459 77395
L78403 77367
L78375 77339
L78347 77283
L78347 77114
L78375 77058
L78403 77030
L78459 77002
L78572 77002
L78628 77030
" />
<path d="M79612 77002
L79612 77395
" />
<path d="M79472 76777
L79331 77199
L79697 77199
" />
<path d="M79922 77339
L79950 77367
L79922 77395
L79894 77367
L79922 77339
L79922 77395
" />
<path d="M80315 76805
L80372 76805
L80428 76833
L80456 76861
L80484 76917
L80512 77030
L80512 77171
L80484 77283
L80456 77339
L80428 77367
L80372 77395
L80315 77395
L80259 77367
L80231 77339
L80203 77283
L80175 77171
L80175 77030
L80203 76917
L80231 76861
L80259 76833
L80315 76805
" />
<path d="M80765 77339
L80793 77367
L80765 77395
L80737 77367
L80765 77339
L80765 77395
" />
<path d="M81018 76861
L81046 76833
L81103 76805
L81243 76805
L81300 76833
L81328 76861
L81356 76917
L81356 76974
L81328 77058
L80990 77395
L81356 77395
" />
<path d="M81609 77171
L82059 77171
" />
<path d="M82312 77367
L82368 77395
L82481 77395
L82537 77367
L82565 77311
L82565 77283
L82537 77227
L82481 77199
L82396 77199
L82340 77171
L82312 77114
L82312 77086
L82340 77030
L82396 77002
L82481 77002
L82537 77030
" />
<path d="M82734 77002
L82959 77002
" />
<path d="M82818 76805
L82818 77311
L82846 77367
L82903 77395
L82959 77395
" />
<path d="M83409 77395
L83409 77086
L83381 77030
L83324 77002
L83212 77002
L83156 77030
" />
<path d="M83409 77367
L83352 77395
L83212 77395
L83156 77367
L83127 77311
L83127 77255
L83156 77199
L83212 77171
L83352 77171
L83409 77142
" />
<path d="M83690 77395
L83690 76805
" />
<path d="M83690 77030
L83746 77002
L83859 77002
L83915 77030
L83943 77058
L83971 77114
L83971 77283
L83943 77339
L83915 77367
L83859 77395
L83746 77395
L83690 77367
" />
<path d="M84309 77395
L84252 77367
L84224 77311
L84224 76805
" />
<path d="M84759 77367
L84702 77395
L84590 77395
L84534 77367
L84505 77311
L84505 77086
L84534 77030
L84590 77002
L84702 77002
L84759 77030
L84787 77086
L84787 77142
L84505 77199
" />
</g>
<g style="fill:#000000; fill-opacity:0.0; 
stroke:#000000; stroke-width:39.3701; stroke-opacity:1; 
stroke-linecap:round; stroke-linejoin:round;">
</g>
<g style="fill:#000000; fill-opacity:0.0; 
stroke:#000000; stroke-width:59.0551; stroke-opacity:1; 
stroke-linecap:round; stroke-linejoin:round;">
<path d="M69685 75396
L112205 75396
" />
</g>
<g style="fill:#000000; fill-opacity:0.0; 
stroke:#000000; stroke-width:39.3701; stroke-opacity:1; 
stroke-linecap:round; stroke-linejoin:round;">
</g>
<g style="fill:#000000; fill-opacity:0.0; 
stroke:#000000; stroke-width:118.11; stroke-opacity:1; 
stroke-linecap:round; stroke-linejoin:round;">
<path d="M104022 76293
L103825 76012
" />
<path d="M103684 76293
L103684 75703
L103909 75703
L103965 75731
L103994 75759
L104022 75815
L104022 75899
L103994 75956
L103965 75984
L103909 76012
L103684 76012
" />
<path d="M104500 76265
L104444 76293
L104331 76293
L104275 76265
L104247 76209
L104247 75984
L104275 75928
L104331 75899
L104444 75899
L104500 75928
L104528 75984
L104528 76040
L104247 76096
" />
<path d="M104725 75899
L104865 76293
L105006 75899
" />
<path d="M105231 76237
L105259 76265
L105231 76293
L105203 76265
L105231 76237
L105231 76293
" />
<path d="M105231 75928
L105259 75956
L105231 75984
L105203 75956
L105231 75928
L105231 75984
" />
</g>
<g style="fill:#000000; fill-opacity:0.0; 
stroke:#000000; stroke-width:39.3701; stroke-opacity:1; 
stroke-linecap:round; stroke-linejoin:round;">
</g>
<g style="fill:#000000; fill-opacity:0.0; 
stroke:#000000; stroke-width:59.0551; stroke-opacity:1; 
stroke-linecap:round; stroke-linejoin:round;">
<path d="M70192 76265
L70276 76293
L70417 76293
L70473 76265
L70501 76237
L70529 76181
L70529 76124
L70501 76068
L70473 76040
L70417 76012
L70304 75984
L70248 75956
L70220 75928
L70192 75871
L70192 75815
L70220 75759
L70248 75731
L70304 75703
L70445 75703
L70529 75731
" />
<path d="M70782 76293
L70782 75899
" />
<path d="M70782 75703
L70754 75731
L70782 75759
L70810 75731
L70782 75703
L70782 75759
" />
<path d="M71007 75899
L71316 75899
L71007 76293
L71316 76293
" />
<path d="M71766 76265
L71710 76293
L71598 76293
L71541 76265
L71513 76209
L71513 75984
L71541 75928
L71598 75899
L71710 75899
L71766 75928
L71795 75984
L71795 76040
L71513 76096
" />
<path d="M72048 76237
L72076 76265
L72048 76293
L72019 76265
L72048 76237
L72048 76293
" />
<path d="M72048 75928
L72076 75956
L72048 75984
L72019 75956
L72048 75928
L72048 75984
" />
<path d="M72751 76124
L73032 76124
" />
<path d="M72694 76293
L72891 75703
L73088 76293
" />
<path d="M73538 75899
L73538 76293
" />
<path d="M73397 75674
L73257 76096
L73622 76096
" />
</g>
<g style="fill:#000000; fill-opacity:0.0; 
stroke:#000000; stroke-width:39.3701; stroke-opacity:1; 
stroke-linecap:round; stroke-linejoin:round;">
</g>
<g style="fill:#000000; fill-opacity:0.0; 
stroke:#000000; stroke-width:59.0551; stroke-opacity:1; 
stroke-linecap:round; stroke-linejoin:round;">
<path d="M103684 77395
L103684 76805
" />
<path d="M104219 77395
L104219 76805
" />
<path d="M104219 77367
L104162 77395
L104050 77395
L103994 77367
L103965 77339
L103937 77283
L103937 77114
L103965 77058
L103994 77030
L104050 77002
L104162 77002
L104219 77030
" />
<path d="M104500 77339
L104528 77367
L104500 77395
L104472 77367
L104500 77339
L104500 77395
" />
<path d="M104500 77030
L104528 77058
L104500 77086
L104472 77058
L104500 77030
L104500 77086
" />
<path d="M105540 77395
L105203 77395
" />
<path d="M105372 77395
L105372 76805
L105315 76889
L105259 76946
L105203 76974
" />
<path d="M106215 76777
L105709 77536
" />
<path d="M106721 77395
L106384 77395
" />
<path d="M106553 77395
L106553 76805
L106496 76889
L106440 76946
L106384 76974
" />
</g>
<g style="fill:#000000; fill-opacity:0.0; 
stroke:#000000; stroke-width:39.3701; stroke-opacity:1; 
stroke-linecap:round; stroke-linejoin:round;">
</g>
<g style="fill:#000000; fill-opacity:0.0; 
stroke:#000000; stroke-width:59.0551; stroke-opacity:1; 
stroke-linecap:round; stroke-linejoin:round;">
<path d="M69685 73821
L112205 73821
" />
</g>
<g style="fill:#000000; fill-opacity:0.0; 
stroke:#000000; stroke-width:39.3701; stroke-opacity:1; 
stroke-linecap:round; stroke-linejoin:round;">
</g>
<g style="fill:#000000; fill-opacity:0.0; 
stroke:#000000; stroke-width:157.48; stroke-opacity:1; 
stroke-linecap:round; stroke-linejoin:round;">
<path d="M70257 74099
L70707 74099
" />
<path d="M70384 74886
L70482 74099
" />
<path d="M70871 74886
L70937 74361
" />
<path d="M70970 74099
L70927 74136
L70960 74174
L71002 74136
L70970 74099
L70960 74174
" />
<path d="M71199 74361
L71499 74361
" />
<path d="M71345 74099
L71260 74774
L71288 74849
L71359 74886
L71434 74886
" />
<path d="M71809 74886
L71738 74849
L71710 74774
L71795 74099
" />
<path d="M72413 74849
L72334 74886
L72184 74886
L72113 74849
L72085 74774
L72123 74474
L72169 74399
L72249 74361
L72399 74361
L72469 74399
L72498 74474
L72488 74549
L72104 74624
" />
<path d="M72793 74811
L72826 74849
L72783 74886
L72751 74849
L72793 74811
L72783 74886
" />
<path d="M72844 74399
L72877 74436
L72835 74474
L72802 74436
L72844 74399
L72835 74474
" />
</g>
<g style="fill:#000000; fill-opacity:0.0; 
stroke:#000000; stroke-width:39.3701; stroke-opacity:1; 
stroke-linecap:round; stroke-linejoin:round;">
</g>
<g style="fill:#000000; fill-opacity:0.0; 
stroke:#000000; stroke-width:59.0551; stroke-opacity:1; 
stroke-linecap:round; stroke-linejoin:round;">
<path d="M70417 73070
L70220 73070
" />
<path d="M70220 73380
L70220 72789
L70501 72789
" />
<path d="M70726 73380
L70726 72986
" />
<path d="M70726 72789
L70698 72817
L70726 72845
L70754 72817
L70726 72789
L70726 72845
" />
<path d="M71091 73380
L71035 73352
L71007 73295
L71007 72789
" />
<path d="M71541 73352
L71485 73380
L71373 73380
L71316 73352
L71288 73295
L71288 73070
L71316 73014
L71373 72986
L71485 72986
L71541 73014
L71570 73070
L71570 73127
L71288 73183
" />
<path d="M71823 73323
L71851 73352
L71823 73380
L71795 73352
L71823 73323
L71823 73380
" />
<path d="M71823 73014
L71851 73042
L71823 73070
L71795 73042
L71823 73014
L71823 73070
" />
<path d="M72638 73380
L72582 73352
L72554 73295
L72554 72789
" />
<path d="M73116 73380
L73116 73070
L73088 73014
L73032 72986
L72919 72986
L72863 73014
" />
<path d="M73116 73352
L73060 73380
L72919 73380
L72863 73352
L72835 73295
L72835 73239
L72863 73183
L72919 73155
L73060 73155
L73116 73127
" />
<path d="M73397 73380
L73397 72986
" />
<path d="M73397 73042
L73426 73014
L73482 72986
L73566 72986
L73622 73014
L73651 73070
L73651 73380
" />
<path d="M73651 73070
L73679 73014
L73735 72986
L73819 72986
L73876 73014
L73904 73070
L73904 73380
" />
<path d="M74185 72986
L74185 73577
" />
<path d="M74185 73014
L74241 72986
L74354 72986
L74410 73014
L74438 73042
L74466 73099
L74466 73267
L74438 73323
L74410 73352
L74354 73380
L74241 73380
L74185 73352
" />
<path d="M74691 73352
L74747 73380
L74860 73380
L74916 73352
L74944 73295
L74944 73267
L74916 73211
L74860 73183
L74775 73183
L74719 73155
L74691 73099
L74691 73070
L74719 73014
L74775 72986
L74860 72986
L74916 73014
" />
<path d="M75197 73155
L75647 73155
" />
<path d="M76238 73380
L75900 73380
" />
<path d="M76069 73380
L76069 72789
L76013 72874
L75956 72930
L75900 72958
" />
<path d="M76744 72789
L76631 72789
L76575 72817
L76547 72845
L76491 72930
L76463 73042
L76463 73267
L76491 73323
L76519 73352
L76575 73380
L76688 73380
L76744 73352
L76772 73323
L76800 73267
L76800 73127
L76772 73070
L76744 73042
L76688 73014
L76575 73014
L76519 73042
L76491 73070
L76463 73127
" />
<path d="M77053 73155
L77503 73155
" />
<path d="M77784 73380
L77784 72986
" />
<path d="M77784 73042
L77813 73014
L77869 72986
L77953 72986
L78009 73014
L78037 73070
L78037 73380
" />
<path d="M78037 73070
L78066 73014
L78122 72986
L78206 72986
L78262 73014
L78291 73070
L78291 73380
" />
<path d="M78825 73380
L78825 73070
L78797 73014
L78741 72986
L78628 72986
L78572 73014
" />
<path d="M78825 73352
L78769 73380
L78628 73380
L78572 73352
L78544 73295
L78544 73239
L78572 73183
L78628 73155
L78769 73155
L78825 73127
" />
<path d="M79359 72986
L79359 73464
L79331 73520
L79303 73548
L79247 73577
L79162 73577
L79106 73548
" />
<path d="M79359 73352
L79303 73380
L79190 73380
L79134 73352
L79106 73323
L79078 73267
L79078 73099
L79106 73042
L79134 73014
L79190 72986
L79303 72986
L79359 73014
" />
<path d="M79640 73323
L79669 73352
L79640 73380
L79612 73352
L79640 73323
L79640 73380
" />
<path d="M79922 73380
L79922 72789
" />
<path d="M79978 73155
L80147 73380
" />
<path d="M80147 72986
L79922 73211
" />
<path d="M80400 73380
L80400 72986
" />
<path d="M80400 72789
L80372 72817
L80400 72845
L80428 72817
L80400 72789
L80400 72845
" />
<path d="M80934 73352
L80878 73380
L80765 73380
L80709 73352
L80681 73323
L80653 73267
L80653 73099
L80681 73042
L80709 73014
L80765 72986
L80878 72986
L80934 73014
" />
<path d="M81440 73380
L81440 73070
L81412 73014
L81356 72986
L81243 72986
L81187 73014
" />
<path d="M81440 73352
L81384 73380
L81243 73380
L81187 73352
L81159 73295
L81159 73239
L81187 73183
L81243 73155
L81384 73155
L81440 73127
" />
<path d="M81974 73380
L81974 72789
" />
<path d="M81974 73352
L81918 73380
L81806 73380
L81750 73352
L81721 73323
L81693 73267
L81693 73099
L81721 73042
L81750 73014
L81806 72986
L81918 72986
L81974 73014
" />
<path d="M82115 73436
L82565 73436
" />
<path d="M82706 72986
L82706 73577
" />
<path d="M82706 73014
L82762 72986
L82874 72986
L82931 73014
L82959 73042
L82987 73099
L82987 73267
L82959 73323
L82931 73352
L82874 73380
L82762 73380
L82706 73352
" />
<path d="M83493 73352
L83437 73380
L83324 73380
L83268 73352
L83240 73323
L83212 73267
L83212 73099
L83240 73042
L83268 73014
L83324 72986
L83437 72986
L83493 73014
" />
<path d="M83746 73380
L83746 72789
" />
<path d="M83746 73014
L83802 72986
L83915 72986
L83971 73014
L83999 73042
L84027 73099
L84027 73267
L83999 73323
L83971 73352
L83915 73380
L83802 73380
L83746 73352
" />
</g>
<g style="fill:#000000; fill-opacity:0.0; 
stroke:#000000; stroke-width:39.3701; stroke-opacity:1; 
stroke-linecap:round; stroke-linejoin:round;">
</g>
<g style="fill:#000000; fill-opacity:0.0; 
stroke:#000000; stroke-width:59.0551; stroke-opacity:1; 
stroke-linecap:round; stroke-linejoin:round;">
<path d="M69685 71459
L112205 71459
" />
</g>
<g style="fill:#000000; fill-opacity:0.0; 
stroke:#000000; stroke-width:39.3701; stroke-opacity:1; 
stroke-linecap:round; stroke-linejoin:round;">
</g>
<g style="fill:#000000; fill-opacity:0.0; 
stroke:#000000; stroke-width:59.0551; stroke-opacity:1; 
stroke-linecap:round; stroke-linejoin:round;">
<path d="M70192 72289
L70276 72317
L70417 72317
L70473 72289
L70501 72260
L70529 72204
L70529 72148
L70501 72092
L70473 72064
L70417 72036
L70304 72007
L70248 71979
L70220 71951
L70192 71895
L70192 71839
L70220 71782
L70248 71754
L70304 71726
L70445 71726
L70529 71754
" />
<path d="M70782 72317
L70782 71726
" />
<path d="M71035 72317
L71035 72007
L71007 71951
L70951 71923
L70867 71923
L70810 71951
L70782 71979
" />
<path d="M71541 72289
L71485 72317
L71373 72317
L71316 72289
L71288 72232
L71288 72007
L71316 71951
L71373 71923
L71485 71923
L71541 71951
L71570 72007
L71570 72064
L71288 72120
" />
<path d="M72048 72289
L71991 72317
L71879 72317
L71823 72289
L71795 72232
L71795 72007
L71823 71951
L71879 71923
L71991 71923
L72048 71951
L72076 72007
L72076 72064
L71795 72120
" />
<path d="M72244 71923
L72469 71923
" />
<path d="M72329 71726
L72329 72232
L72357 72289
L72413 72317
L72469 72317
" />
<path d="M72666 72260
L72694 72289
L72666 72317
L72638 72289
L72666 72260
L72666 72317
" />
<path d="M72666 71951
L72694 71979
L72666 72007
L72638 71979
L72666 71951
L72666 72007
" />
</g>
<g style="fill:#000000; fill-opacity:0.0; 
stroke:#000000; stroke-width:39.3701; stroke-opacity:1; 
stroke-linecap:round; stroke-linejoin:round;">
</g>
<g style="fill:#000000; fill-opacity:0.0; 
stroke:#000000; stroke-width:59.0551; stroke-opacity:1; 
stroke-linecap:round; stroke-linejoin:round;">
<path d="M77559 75396
L77559 76577
" />
</g>
<g style="fill:#000000; fill-opacity:0.0; 
stroke:#000000; stroke-width:39.3701; stroke-opacity:1; 
stroke-linecap:round; stroke-linejoin:round;">
</g>
<g style="fill:#000000; fill-opacity:0.0; 
stroke:#000000; stroke-width:59.0551; stroke-opacity:1; 
stroke-linecap:round; stroke-linejoin:round;">
<path d="M102756 75396
L102756 77955
" />
</g>
<g style="fill:#000000; fill-opacity:0.0; 
stroke:#000000; stroke-width:0; stroke-opacity:1; 
stroke-linecap:round; stroke-linejoin:round;">
</g>
<g style="fill:#000000; fill-opacity:1.0; 
stroke:#000000; stroke-width:0; stroke-opacity:1; 
stroke-linecap:round; stroke-linejoin:round;">
<polyline style="fill-rule:evenodd;"
points="26490,22390
25810,22390
25810,21710
26490,21710
26490,22390
" /> 
</g>
<g style="fill:#000000; fill-opacity:1.0; 
stroke:#000000; stroke-width:680; stroke-opacity:1; 
stroke-linecap:round; stroke-linejoin:round;">
</g>
<g style="fill:#000000; fill-opacity:0.0; 
stroke:#000000; stroke-width:680; stroke-opacity:1; 
stroke-linecap:round; stroke-linejoin:round;">
<path d="M26150 21050
L26150 21050
" />
<path d="M27150 22050
L27150 22050
" />
<path d="M27150 21050
L27150 21050
" />
<path d="M28150 22050
L28150 22050
" />
<path d="M28150 21050
L28150 21050
" />
<path d="M29150 22050
L29150 22050
" />
<path d="M29150 21050
L29150 21050
" />
<path d="M30150 22050
L30150 22050
" />
<path d="M30150 21050
L30150 21050
" />
</g>
<g style="fill:#000000; fill-opacity:0.0; 
stroke:#000000; stroke-width:0; stroke-opacity:1; 
stroke-linecap:round; stroke-linejoin:round;">
</g>
<g style="fill:#000000; fill-opacity:1.0; 
stroke:#000000; stroke-width:0; stroke-opacity:1; 
stroke-linecap:round; stroke-linejoin:round;">
<polyline style="fill-rule:evenodd;"
points="20393,24625
20393,25374
19606,25374
19606,24625
20393,24625
" /> 
<circle cx="20000" cy="24000" r="374.016" /> 
</g>
<g style="fill:#000000; fill-opacity:1.0; 
stroke:#000000; stroke-width:39.3701; stroke-opacity:1; 
stroke-linecap:round; stroke-linejoin:round;">
</g>
<g style="fill:#000000; fill-opacity:1.0; 
stroke:#000000; stroke-width:0; stroke-opacity:1; 
stroke-linecap:round; stroke-linejoin:round;">
<polyline style="fill-rule:evenodd;"
points="25393,24625
25393,25374
24606,25374
24606,24625
25393,24625
" /> 
<circle cx="25000" cy="24000" r="374.016" /> 
</g>
<g style="fill:#000000; fill-opacity:1.0; 
stroke:#000000; stroke-width:39.3701; stroke-opacity:1; 
stroke-linecap:round; stroke-linejoin:round;">
</g>
<g style="fill:#000000; fill-opacity:1.0; 
stroke:#000000; stroke-width:0; stroke-opacity:1; 
stroke-linecap:round; stroke-linejoin:round;">
<polyline style="fill-rule:evenodd;"
points="30393,24625
30393,25374
29606,25374
29606,24625
30393,24625
" /> 
<circle cx="30000" cy="24000" r="374.016" /> 
</g>
<g style="fill:#000000; fill-opacity:1.0; 
stroke:#000000; stroke-width:39.3701; stroke-opacity:1; 
stroke-linecap:round; stroke-linejoin:round;">
</g>
<g style="fill:#000000; fill-opacity:1.0; 
stroke:#000000; stroke-width:0; stroke-opacity:1; 
stroke-linecap:round; stroke-linejoin:round;">
<polyline style="fill-rule:evenodd;"
points="35393,24625
35393,25374
34606,25374
34606,24625
35393,24625
" /> 
<circle cx="35000" cy="24000" r="374.016" /> 
</g>
<g style="fill:#000000; fill-opacity:1.0; 
stroke:#000000; stroke-width:39.3701; stroke-opacity:1; 
stroke-linecap:round; stroke-linejoin:round;">
</g>
<g style="fill:#000000; fill-opacity:1.0; 
stroke:#000000; stroke-width:0; stroke-opacity:1; 
stroke-linecap:round; stroke-linejoin:round;">
<polyline style="fill-rule:evenodd;"
points="40393,24625
40393,25374
39606,25374
39606,24625
40393,24625
" /> 
<circle cx="40000" cy="24000" r="374.016" /> 
</g>
<g style="fill:#000000; fill-opacity:1.0; 
stroke:#000000; stroke-width:39.3701; stroke-opacity:1; 
stroke-linecap:round; stroke-linejoin:round;">
</g>
<g style="fill:#000000; fill-opacity:1.0; 
stroke:#000000; stroke-width:0; stroke-opacity:1; 
stroke-linecap:round; stroke-linejoin:round;">
<polyline style="fill-rule:evenodd;"
points="45393,24625
45393,25374
44606,25374
44606,24625
45393,24625
" /> 
<circle cx="45000" cy="24000" r="374.016" /> 
</g>
<g style="fill:#000000; fill-opacity:1.0; 
stroke:#000000; stroke-width:39.3701; stroke-opacity:1; 
stroke-linecap:round; stroke-linejoin:round;">
</g>
<g style="fill:#000000; fill-opacity:1.0; 
stroke:#000000; stroke-width:0; stroke-opacity:1; 
stroke-linecap:round; stroke-linejoin:round;">
<polyline style="fill-rule:evenodd;"
points="50393,24625
50393,25374
49606,25374
49606,24625
50393,24625
" /> 
<circle cx="50000" cy="24000" r="374.016" /> 
</g>
<g style="fill:#000000; fill-opacity:1.0; 
stroke:#000000; stroke-width:39.3701; stroke-opacity:1; 
stroke-linecap:round; stroke-linejoin:round;">
</g>
<g style="fill:#000000; fill-opacity:1.0; 
stroke:#000000; stroke-width:0; stroke-opacity:1; 
stroke-linecap:round; stroke-linejoin:round;">
<polyline style="fill-rule:evenodd;"
points="55393,24625
55393,25374
54606,25374
54606,24625
55393,24625
" /> 
<circle cx="55000" cy="24000" r="374.016" /> 
</g>
<g style="fill:#000000; fill-opacity:1.0; 
stroke:#000000; stroke-width:39.3701; stroke-opacity:1; 
stroke-linecap:round; stroke-linejoin:round;">
</g>
<g style="fill:#000000; fill-opacity:1.0; 
stroke:#000000; stroke-width:0; stroke-opacity:1; 
stroke-linecap:round; stroke-linejoin:round;">
<polyline style="fill-rule:evenodd;"
points="20393,34625
20393,35374
19606,35374
19606,34625
20393,34625
" /> 
<circle cx="20000" cy="34000" r="374.016" /> 
</g>
<g style="fill:#000000; fill-opacity:1.0; 
stroke:#000000; stroke-width:39.3701; stroke-opacity:1; 
stroke-linecap:round; stroke-linejoin:round;">
</g>
<g style="fill:#000000; fill-opacity:1.0; 
stroke:#000000; stroke-width:0; stroke-opacity:1; 
stroke-linecap:round; stroke-linejoin:round;">
<polyline style="fill-rule:evenodd;"
points="25393,34625
25393,35374
24606,35374
24606,34625
25393,34625
" /> 
<circle cx="25000" cy="34000" r="374.016" /> 
</g>
<g style="fill:#000000; fill-opacity:1.0; 
stroke:#000000; stroke-width:39.3701; stroke-opacity:1; 
stroke-linecap:round; stroke-linejoin:round;">
</g>
<g style="fill:#000000; fill-opacity:1.0; 
stroke:#000000; stroke-width:0; stroke-opacity:1; 
stroke-linecap:round; stroke-linejoin:round;">
<polyline style="fill-rule:evenodd;"
points="30393,34625
30393,35374
29606,35374
29606,34625
30393,34625
" /> 
<circle cx="30000" cy="34000" r="374.016" /> 
</g>
<g style="fill:#000000; fill-opacity:1.0; 
stroke:#000000; stroke-width:39.3701; stroke-opacity:1; 
stroke-linecap:round; stroke-linejoin:round;">
</g>
<g style="fill:#000000; fill-opacity:1.0; 
stroke:#000000; stroke-width:0; stroke-opacity:1; 
stroke-linecap:round; stroke-linejoin:round;">
<polyline style="fill-rule:evenodd;"
points="35393,34625
35393,35374
34606,35374
34606,34625
35393,34625
" /> 
<circle cx="35000" cy="34000" r="374.016" /> 
</g>
<g style="fill:#000000; fill-opacity:1.0; 
stroke:#000000; stroke-width:39.3701; stroke-opacity:1; 
stroke-linecap:round; stroke-linejoin:round;">
</g>
<g style="fill:#000000; fill-opacity:1.0; 
stroke:#000000; stroke-width:0; stroke-opacity:1; 
stroke-linecap:round; stroke-linejoin:round;">
<polyline style="fill-rule:evenodd;"
points="40393,34625
40393,35374
39606,35374
39606,34625
40393,34625
" /> 
<circle cx="40000" cy="34000" r="374.016" /> 
</g>
<g style="fill:#000000; fill-opacity:1.0; 
stroke:#000000; stroke-width:39.3701; stroke-opacity:1; 
stroke-linecap:round; stroke-linejoin:round;">
</g>
<g style="fill:#000000; fill-opacity:1.0; 
stroke:#000000; stroke-width:0; stroke-opacity:1; 
stroke-linecap:round; stroke-linejoin:round;">
<polyline style="fill-rule:evenodd;"
points="45393,34625
45393,35374
44606,35374
44606,34625
45393,34625
" /> 
<circle cx="45000" cy="34000" r="374.016" /> 
</g>
<g style="fill:#000000; fill-opacity:1.0; 
stroke:#000000; stroke-width:39.3701; stroke-opacity:1; 
stroke-linecap:round; stroke-linejoin:round;">
</g>
<g style="fill:#000000; fill-opacity:1.0; 
stroke:#000000; stroke-width:0; stroke-opacity:1; 
stroke-linecap:round; stroke-linejoin:round;">
<polyline style="fill-rule:evenodd;"
points="50393,34625
50393,35374
49606,35374
49606,34625
50393,34625
" /> 
<circle cx="50000" cy="34000" r="374.016" /> 
</g>
<g style="fill:#000000; fill-opacity:1.0; 
stroke:#000000; stroke-width:39.3701; stroke-opacity:1; 
stroke-linecap:round; stroke-linejoin:round;">
</g>
<g style="fill:#000000; fill-opacity:1.0; 
stroke:#000000; stroke-width:0; stroke-opacity:1; 
stroke-linecap:round; stroke-linejoin:round;">
<polyline style="fill-rule:evenodd;"
points="55393,34625
55393,35374
54606,35374
54606,34625
55393,34625
" /> 
<circle cx="55000" cy="34000" r="374.016" /> 
</g>
<g style="fill:#000000; fill-opacity:1.0; 
stroke:#000000; stroke-width:39.3701; stroke-opacity:1; 
stroke-linecap:round; stroke-linejoin:round;">
</g>
<g style="fill:#000000; fill-opacity:1.0; 
stroke:#000000; stroke-width:0; stroke-opacity:1; 
stroke-linecap:round; stroke-linejoin:round;">
<circle cx="52500" cy="29500" r="984.252" /> 
</g>
<g style="fill:#000000; fill-opacity:1.0; 
stroke:#000000; stroke-width:39.3701; stroke-opacity:1; 
stroke-linecap:round; stroke-linejoin:round;">
</g>
<g style="fill:#000000; fill-opacity:1.0; 
stroke:#000000; stroke-width:0; stroke-opacity:1; 
stroke-linecap:round; stroke-linejoin:round;">
<circle cx="22500" cy="29500" r="984.252" /> 
</g>
<g style="fill:#000000; fill-opacity:1.0; 
stroke:#000000; stroke-width:39.3701; stroke-opacity:1; 
stroke-linecap:round; stroke-linejoin:round;">
</g>
<g style="fill:#000000; fill-opacity:1.0; 
stroke:#000000; stroke-width:0; stroke-opacity:1; 
stroke-linecap:round; stroke-linejoin:round;">
<circle cx="50000" cy="27000" r="314.961" /> 
</g>
<g style="fill:#000000; fill-opacity:1.0; 
stroke:#000000; stroke-width:39.3701; stroke-opacity:1; 
stroke-linecap:round; stroke-linejoin:round;">
</g>
<g style="fill:#000000; fill-opacity:1.0; 
stroke:#000000; stroke-width:0; stroke-opacity:1; 
stroke-linecap:round; stroke-linejoin:round;">
<circle cx="45000" cy="27000" r="314.961" /> 
</g>
<g style="fill:#000000; fill-opacity:1.0; 
stroke:#000000; stroke-width:39.3701; stroke-opacity:1; 
stroke-linecap:round; stroke-linejoin:round;">
</g>
<g style="fill:#000000; fill-opacity:1.0; 
stroke:#000000; stroke-width:0; stroke-opacity:1; 
stroke-linecap:round; stroke-linejoin:round;">
<circle cx="40000" cy="27000" r="314.961" /> 
</g>
<g style="fill:#000000; fill-opacity:1.0; 
stroke:#000000; stroke-width:39.3701; stroke-opacity:1; 
stroke-linecap:round; stroke-linejoin:round;">
</g>
<g style="fill:#000000; fill-opacity:1.0; 
stroke:#000000; stroke-width:0; stroke-opacity:1; 
stroke-linecap:round; stroke-linejoin:round;">
<circle cx="35000" cy="28000" r="314.961" /> 
</g>
<g style="fill:#000000; fill-opacity:1.0; 
stroke:#000000; stroke-width:39.3701; stroke-opacity:1; 
stroke-linecap:round; stroke-linejoin:round;">
</g>
<g style="fill:#000000; fill-opacity:1.0; 
stroke:#000000; stroke-width:0; stroke-opacity:1; 
stroke-linecap:round; stroke-linejoin:round;">
<circle cx="30000" cy="28500" r="314.961" /> 
</g>
<g style="fill:#000000; fill-opacity:1.0; 
stroke:#000000; stroke-width:39.3701; stroke-opacity:1; 
stroke-linecap:round; stroke-linejoin:round;">
</g>
<g style="fill:#000000; fill-opacity:1.0; 
stroke:#000000; stroke-width:0; stroke-opacity:1; 
stroke-linecap:round; stroke-linejoin:round;">
<circle cx="25000" cy="28500" r="314.961" /> 
</g>
<g style="fill:#000000; fill-opacity:1.0; 
stroke:#000000; stroke-width:39.3701; stroke-opacity:1; 
stroke-linecap:round; stroke-linejoin:round;">
</g>
<g style="fill:#000000; fill-opacity:1.0; 
stroke:#000000; stroke-width:0; stroke-opacity:1; 
stroke-linecap:round; stroke-linejoin:round;">
<circle cx="20000" cy="28500" r="314.961" /> 
</g>
<g style="fill:#000000; fill-opacity:1.0; 
stroke:#000000; stroke-width:39.3701; stroke-opacity:1; 
stroke-linecap:round; stroke-linejoin:round;">
</g>
<g style="fill:#000000; fill-opacity:1.0; 
stroke:#000000; stroke-width:118.11; stroke-opacity:1; 
stroke-linecap:round; stroke-linejoin:round;">
</g>
<g style="fill:#000000; fill-opacity:0.0; 
stroke:#000000; stroke-width:118.11; stroke-opacity:1; 
stroke-linecap:round; stroke-linejoin:round;">
<path d="M50000 25000
L50000 27000
" />
<path d="M45000 25000
L45000 27000
" />
<path d="M40000 25000
L40000 27000
" />
<path d="M35000 25000
L35000 28000
" />
<path d="M30000 25000
L30000 28500
" />
<path d="M25000 25000
L25000 28500
" />
<path d="M20000 25000
L20000 28500
" />
</g>
<g style="fill:#FFFFFF; fill-opacity:0.0; 
stroke:#FFFFFF; stroke-width:118.11; stroke-opacity:1; 
stroke-linecap:round; stroke-linejoin:round;">
</g>
<g style="fill:#FFFFFF; fill-opacity:1.0; 
stroke:#FFFFFF; stroke-width:0; stroke-opacity:1; 
stroke-linecap:round; stroke-linejoin:round;">
<circle cx="50000" cy="27000" r="196.85" /> 
</g>
<g style="fill:#FFFFFF; fill-opacity:1.0; 
stroke:#FFFFFF; stroke-width:39.3701; stroke-opacity:1; 
stroke-linecap:round; stroke-linejoin:round;">
</g>
<g style="fill:#FFFFFF; fill-opacity:1.0; 
stroke:#FFFFFF; stroke-width:0; stroke-opacity:1; 
stroke-linecap:round; stroke-linejoin:round;">
<circle cx="45000" cy="27000" r="196.85" /> 
</g>
<g style="fill:#FFFFFF; fill-opacity:1.0; 
stroke:#FFFFFF; stroke-width:39.3701; stroke-opacity:1; 
stroke-linecap:round; stroke-linejoin:round;">
</g>
<g style="fill:#FFFFFF; fill-opacity:1.0; 
stroke:#FFFFFF; stroke-width:0; stroke-opacity:1; 
stroke-linecap:round; stroke-linejoin:round;">
<circle cx="40000" cy="27000" r="196.85" /> 
</g>
<g style="fill:#FFFFFF; fill-opacity:1.0; 
stroke:#FFFFFF; stroke-width:39.3701; stroke-opacity:1; 
stroke-linecap:round; stroke-linejoin:round;">
</g>
<g style="fill:#FFFFFF; fill-opacity:1.0; 
stroke:#FFFFFF; stroke-width:0; stroke-opacity:1; 
stroke-linecap:round; stroke-linejoin:round;">
<circle cx="35000" cy="28000" r="196.85" /> 
</g>
<g style="fill:#FFFFFF; fill-opacity:1.0; 
stroke:#FFFFFF; stroke-width:39.3701; stroke-opacity:1; 
stroke-linecap:round; stroke-linejoin:round;">
</g>
<g style="fill:#FFFFFF; fill-opacity:1.0; 
stroke:#FFFFFF; stroke-width:0; stroke-opacity:1; 
stroke-linecap:round; stroke-linejoin:round;">
<circle cx="30000" cy="28500" r="196.85" /> 
</g>
<g style="fill:#FFFFFF; fill-opacity:1.0; 
stroke:#FFFFFF; stroke-width:39.3701; stroke-opacity:1; 
stroke-linecap:round; stroke-linejoin:round;">
</g>
<g style="fill:#FFFFFF; fill-opacity:1.0; 
stroke:#FFFFFF; stroke-width:0; stroke-opacity:1; 
stroke-linecap:round; stroke-linejoin:round;">
<circle cx="25000" cy="28500" r="196.85" /> 
</g>
<g style="fill:#FFFFFF; fill-opacity:1.0; 
stroke:#FFFFFF; stroke-width:39.3701; stroke-opacity:1; 
stroke-linecap:round; stroke-linejoin:round;">
</g>
<g style="fill:#FFFFFF; fill-opacity:1.0; 
stroke:#FFFFFF; stroke-width:0; stroke-opacity:1; 
stroke-linecap:round; stroke-linejoin:round;">
<circle cx="20000" cy="28500" r="196.85" /> 
</g>
<g style="fill:#FFFFFF; fill-opacity:1.0; 
stroke:#FFFFFF; stroke-width:39.3701; stroke-opacity:1; 
stroke-linecap:round; stroke-linejoin:round;">
</g>
<g style="fill:#FFFFFF; fill-opacity:1.0; 
stroke:#FFFFFF; stroke-width:0; stroke-opacity:1; 
stroke-linecap:round; stroke-linejoin:round;">
<circle cx="26150" cy="22050" r="200" /> 
</g>
<g style="fill:#FFFFFF; fill-opacity:1.0; 
stroke:#FFFFFF; stroke-width:39.3701; stroke-opacity:1; 
stroke-linecap:round; stroke-linejoin:round;">
</g>
<g style="fill:#FFFFFF; fill-opacity:1.0; 
stroke:#FFFFFF; stroke-width:0; stroke-opacity:1; 
stroke-linecap:round; stroke-linejoin:round;">
<circle cx="26150" cy="21050" r="200" /> 
</g>
<g style="fill:#FFFFFF; fill-opacity:1.0; 
stroke:#FFFFFF; stroke-width:39.3701; stroke-opacity:1; 
stroke-linecap:round; stroke-linejoin:round;">
</g>
<g style="fill:#FFFFFF; fill-opacity:1.0; 
stroke:#FFFFFF; stroke-width:0; stroke-opacity:1; 
stroke-linecap:round; stroke-linejoin:round;">
<circle cx="27150" cy="22050" r="200" /> 
</g>
<g style="fill:#FFFFFF; fill-opacity:1.0; 
stroke:#FFFFFF; stroke-width:39.3701; stroke-opacity:1; 
stroke-linecap:round; stroke-linejoin:round;">
</g>
<g style="fill:#FFFFFF; fill-opacity:1.0; 
stroke:#FFFFFF; stroke-width:0; stroke-opacity:1; 
stroke-linecap:round; stroke-linejoin:round;">
<circle cx="27150" cy="21050" r="200" /> 
</g>
<g style="fill:#FFFFFF; fill-opacity:1.0; 
stroke:#FFFFFF; stroke-width:39.3701; stroke-opacity:1; 
stroke-linecap:round; stroke-linejoin:round;">
</g>
<g style="fill:#FFFFFF; fill-opacity:1.0; 
stroke:#FFFFFF; stroke-width:0; stroke-opacity:1; 
stroke-linecap:round; stroke-linejoin:round;">
<circle cx="28150" cy="22050" r="200" /> 
</g>
<g style="fill:#FFFFFF; fill-opacity:1.0; 
stroke:#FFFFFF; stroke-width:39.3701; stroke-opacity:1; 
stroke-linecap:round; stroke-linejoin:round;">
</g>
<g style="fill:#FFFFFF; fill-opacity:1.0; 
stroke:#FFFFFF; stroke-width:0; stroke-opacity:1; 
stroke-linecap:round; stroke-linejoin:round;">
<circle cx="28150" cy="21050" r="200" /> 
</g>
<g style="fill:#FFFFFF; fill-opacity:1.0; 
stroke:#FFFFFF; stroke-width:39.3701; stroke-opacity:1; 
stroke-linecap:round; stroke-linejoin:round;">
</g>
<g style="fill:#FFFFFF; fill-opacity:1.0; 
stroke:#FFFFFF; stroke-width:0; stroke-opacity:1; 
stroke-linecap:round; stroke-linejoin:round;">
<circle cx="29150" cy="22050" r="200" /> 
</g>
<g style="fill:#FFFFFF; fill-opacity:1.0; 
stroke:#FFFFFF; stroke-width:39.3701; stroke-opacity:1; 
stroke-linecap:round; stroke-linejoin:round;">
</g>
<g style="fill:#FFFFFF; fill-opacity:1.0; 
stroke:#FFFFFF; stroke-width:0; stroke-opacity:1; 
stroke-linecap:round; stroke-linejoin:round;">
<circle cx="29150" cy="21050" r="200" /> 
</g>
<g style="fill:#FFFFFF; fill-opacity:1.0; 
stroke:#FFFFFF; stroke-width:39.3701; stroke-opacity:1; 
stroke-linecap:round; stroke-linejoin:round;">
</g>
<g style="fill:#FFFFFF; fill-opacity:1.0; 
stroke:#FFFFFF; stroke-width:0; stroke-opacity:1; 
stroke-linecap:round; stroke-linejoin:round;">
<circle cx="30150" cy="22050" r="200" /> 
</g>
<g style="fill:#FFFFFF; fill-opacity:1.0; 
stroke:#FFFFFF; stroke-width:39.3701; stroke-opacity:1; 
stroke-linecap:round; stroke-linejoin:round;">
</g>
<g style="fill:#FFFFFF; fill-opacity:1.0; 
stroke:#FFFFFF; stroke-width:0; stroke-opacity:1; 
stroke-linecap:round; stroke-linejoin:round;">
<circle cx="30150" cy="21050" r="200" /> 
</g>
<g style="fill:#FFFFFF; fill-opacity:1.0; 
stroke:#FFFFFF; stroke-width:39.3701; stroke-opacity:1; 
stroke-linecap:round; stroke-linejoin:round;">
</g>
<g style="fill:#FFFFFF; fill-opacity:1.0; 
stroke:#FFFFFF; stroke-width:0; stroke-opacity:1; 
stroke-linecap:round; stroke-linejoin:round;">
<circle cx="20000" cy="25000" r="197" /> 
</g>
<g style="fill:#FFFFFF; fill-opacity:1.0; 
stroke:#FFFFFF; stroke-width:39.3701; stroke-opacity:1; 
stroke-linecap:round; stroke-linejoin:round;">
</g>
<g style="fill:#FFFFFF; fill-opacity:1.0; 
stroke:#FFFFFF; stroke-width:0; stroke-opacity:1; 
stroke-linecap:round; stroke-linejoin:round;">
<circle cx="20000" cy="24000" r="197" /> 
</g>
<g style="fill:#FFFFFF; fill-opacity:1.0; 
stroke:#FFFFFF; stroke-width:39.3701; stroke-opacity:1; 
stroke-linecap:round; stroke-linejoin:round;">
</g>
<g style="fill:#FFFFFF; fill-opacity:1.0; 
stroke:#FFFFFF; stroke-width:0; stroke-opacity:1; 
stroke-linecap:round; stroke-linejoin:round;">
<circle cx="25000" cy="25000" r="197" /> 
</g>
<g style="fill:#FFFFFF; fill-opacity:1.0; 
stroke:#FFFFFF; stroke-width:39.3701; stroke-opacity:1; 
stroke-linecap:round; stroke-linejoin:round;">
</g>
<g style="fill:#FFFFFF; fill-opacity:1.0; 
stroke:#FFFFFF; stroke-width:0; stroke-opacity:1; 
stroke-linecap:round; stroke-linejoin:round;">
<circle cx="25000" cy="24000" r="197" /> 
</g>
<g style="fill:#FFFFFF; fill-opacity:1.0; 
stroke:#FFFFFF; stroke-width:39.3701; stroke-opacity:1; 
stroke-linecap:round; stroke-linejoin:round;">
</g>
<g style="fill:#FFFFFF; fill-opacity:1.0; 
stroke:#FFFFFF; stroke-width:0; stroke-opacity:1; 
stroke-linecap:round; stroke-linejoin:round;">
<circle cx="30000" cy="25000" r="197" /> 
</g>
<g style="fill:#FFFFFF; fill-opacity:1.0; 
stroke:#FFFFFF; stroke-width:39.3701; stroke-opacity:1; 
stroke-linecap:round; stroke-linejoin:round;">
</g>
<g style="fill:#FFFFFF; fill-opacity:1.0; 
stroke:#FFFFFF; stroke-width:0; stroke-opacity:1; 
stroke-linecap:round; stroke-linejoin:round;">
<circle cx="30000" cy="24000" r="197" /> 
</g>
<g style="fill:#FFFFFF; fill-opacity:1.0; 
stroke:#FFFFFF; stroke-width:39.3701; stroke-opacity:1; 
stroke-linecap:round; stroke-linejoin:round;">
</g>
<g style="fill:#FFFFFF; fill-opacity:1.0; 
stroke:#FFFFFF; stroke-width:0; stroke-opacity:1; 
stroke-linecap:round; stroke-linejoin:round;">
<circle cx="35000" cy="25000" r="197" /> 
</g>
<g style="fill:#FFFFFF; fill-opacity:1.0; 
stroke:#FFFFFF; stroke-width:39.3701; stroke-opacity:1; 
stroke-linecap:round; stroke-linejoin:round;">
</g>
<g style="fill:#FFFFFF; fill-opacity:1.0; 
stroke:#FFFFFF; stroke-width:0; stroke-opacity:1; 
stroke-linecap:round; stroke-linejoin:round;">
<circle cx="35000" cy="24000" r="197" /> 
</g>
<g style="fill:#FFFFFF; fill-opacity:1.0; 
stroke:#FFFFFF; stroke-width:39.3701; stroke-opacity:1; 
stroke-linecap:round; stroke-linejoin:round;">
</g>
<g style="fill:#FFFFFF; fill-opacity:1.0; 
stroke:#FFFFFF; stroke-width:0; stroke-opacity:1; 
stroke-linecap:round; stroke-linejoin:round;">
<circle cx="40000" cy="25000" r="197" /> 
</g>
<g style="fill:#FFFFFF; fill-opacity:1.0; 
stroke:#FFFFFF; stroke-width:39.3701; stroke-opacity:1; 
stroke-linecap:round; stroke-linejoin:round;">
</g>
<g style="fill:#FFFFFF; fill-opacity:1.0; 
stroke:#FFFFFF; stroke-width:0; stroke-opacity:1; 
stroke-linecap:round; stroke-linejoin:round;">
<circle cx="40000" cy="24000" r="197" /> 
</g>
<g style="fill:#FFFFFF; fill-opacity:1.0; 
stroke:#FFFFFF; stroke-width:39.3701; stroke-opacity:1; 
stroke-linecap:round; stroke-linejoin:round;">
</g>
<g style="fill:#FFFFFF; fill-opacity:1.0; 
stroke:#FFFFFF; stroke-width:0; stroke-opacity:1; 
stroke-linecap:round; stroke-linejoin:round;">
<circle cx="45000" cy="25000" r="197" /> 
</g>
<g style="fill:#FFFFFF; fill-opacity:1.0; 
stroke:#FFFFFF; stroke-width:39.3701; stroke-opacity:1; 
stroke-linecap:round; stroke-linejoin:round;">
</g>
<g style="fill:#FFFFFF; fill-opacity:1.0; 
stroke:#FFFFFF; stroke-width:0; stroke-opacity:1; 
stroke-linecap:round; stroke-linejoin:round;">
<circle cx="45000" cy="24000" r="197" /> 
</g>
<g style="fill:#FFFFFF; fill-opacity:1.0; 
stroke:#FFFFFF; stroke-width:39.3701; stroke-opacity:1; 
stroke-linecap:round; stroke-linejoin:round;">
</g>
<g style="fill:#FFFFFF; fill-opacity:1.0; 
stroke:#FFFFFF; stroke-width:0; stroke-opacity:1; 
stroke-linecap:round; stroke-linejoin:round;">
<circle cx="50000" cy="25000" r="197" /> 
</g>
<g style="fill:#FFFFFF; fill-opacity:1.0; 
stroke:#FFFFFF; stroke-width:39.3701; stroke-opacity:1; 
stroke-linecap:round; stroke-linejoin:round;">
</g>
<g style="fill:#FFFFFF; fill-opacity:1.0; 
stroke:#FFFFFF; stroke-width:0; stroke-opacity:1; 
stroke-linecap:round; stroke-linejoin:round;">
<circle cx="50000" cy="24000" r="197" /> 
</g>
<g style="fill:#FFFFFF; fill-opacity:1.0; 
stroke:#FFFFFF; stroke-width:39.3701; stroke-opacity:1; 
stroke-linecap:round; stroke-linejoin:round;">
</g>
<g style="fill:#FFFFFF; fill-opacity:1.0; 
stroke:#FFFFFF; stroke-width:0; stroke-opacity:1; 
stroke-linecap:round; stroke-linejoin:round;">
<circle cx="55000" cy="25000" r="197" /> 
</g>
<g style="fill:#FFFFFF; fill-opacity:1.0; 
stroke:#FFFFFF; stroke-width:39.3701; stroke-opacity:1; 
stroke-linecap:round; stroke-linejoin:round;">
</g>
<g style="fill:#FFFFFF; fill-opacity:1.0; 
stroke:#FFFFFF; stroke-width:0; stroke-opacity:1; 
stroke-linecap:round; stroke-linejoin:round;">
<circle cx="55000" cy="24000" r="197" /> 
</g>
<g style="fill:#FFFFFF; fill-opacity:1.0; 
stroke:#FFFFFF; stroke-width:39.3701; stroke-opacity:1; 
stroke-linecap:round; stroke-linejoin:round;">
</g>
<g style="fill:#FFFFFF; fill-opacity:1.0; 
stroke:#FFFFFF; stroke-width:0; stroke-opacity:1; 
stroke-linecap:round; stroke-linejoin:round;">
<circle cx="20000" cy="35000" r="197" /> 
</g>
<g style="fill:#FFFFFF; fill-opacity:1.0; 
stroke:#FFFFFF; stroke-width:39.3701; stroke-opacity:1; 
stroke-linecap:round; stroke-linejoin:round;">
</g>
<g style="fill:#FFFFFF; fill-opacity:1.0; 
stroke:#FFFFFF; stroke-width:0; stroke-opacity:1; 
stroke-linecap:round; stroke-linejoin:round;">
<circle cx="20000" cy="34000" r="197" /> 
</g>
<g style="fill:#FFFFFF; fill-opacity:1.0; 
stroke:#FFFFFF; stroke-width:39.3701; stroke-opacity:1; 
stroke-linecap:round; stroke-linejoin:round;">
</g>
<g style="fill:#FFFFFF; fill-opacity:1.0; 
stroke:#FFFFFF; stroke-width:0; stroke-opacity:1; 
stroke-linecap:round; stroke-linejoin:round;">
<circle cx="25000" cy="35000" r="197" /> 
</g>
<g style="fill:#FFFFFF; fill-opacity:1.0; 
stroke:#FFFFFF; stroke-width:39.3701; stroke-opacity:1; 
stroke-linecap:round; stroke-linejoin:round;">
</g>
<g style="fill:#FFFFFF; fill-opacity:1.0; 
stroke:#FFFFFF; stroke-width:0; stroke-opacity:1; 
stroke-linecap:round; stroke-linejoin:round;">
<circle cx="25000" cy="34000" r="197" /> 
</g>
<g style="fill:#FFFFFF; fill-opacity:1.0; 
stroke:#FFFFFF; stroke-width:39.3701; stroke-opacity:1; 
stroke-linecap:round; stroke-linejoin:round;">
</g>
<g style="fill:#FFFFFF; fill-opacity:1.0; 
stroke:#FFFFFF; stroke-width:0; stroke-opacity:1; 
stroke-linecap:round; stroke-linejoin:round;">
<circle cx="30000" cy="35000" r="197" /> 
</g>
<g style="fill:#FFFFFF; fill-opacity:1.0; 
stroke:#FFFFFF; stroke-width:39.3701; stroke-opacity:1; 
stroke-linecap:round; stroke-linejoin:round;">
</g>
<g style="fill:#FFFFFF; fill-opacity:1.0; 
stroke:#FFFFFF; stroke-width:0; stroke-opacity:1; 
stroke-linecap:round; stroke-linejoin:round;">
<circle cx="30000" cy="34000" r="197" /> 
</g>
<g style="fill:#FFFFFF; fill-opacity:1.0; 
stroke:#FFFFFF; stroke-width:39.3701; stroke-opacity:1; 
stroke-linecap:round; stroke-linejoin:round;">
</g>
<g style="fill:#FFFFFF; fill-opacity:1.0; 
stroke:#FFFFFF; stroke-width:0; stroke-opacity:1; 
stroke-linecap:round; stroke-linejoin:round;">
<circle cx="35000" cy="35000" r="197" /> 
</g>
<g style="fill:#FFFFFF; fill-opacity:1.0; 
stroke:#FFFFFF; stroke-width:39.3701; stroke-opacity:1; 
stroke-linecap:round; stroke-linejoin:round;">
</g>
<g style="fill:#FFFFFF; fill-opacity:1.0; 
stroke:#FFFFFF; stroke-width:0; stroke-opacity:1; 
stroke-linecap:round; stroke-linejoin:round;">
<circle cx="35000" cy="34000" r="197" /> 
</g>
<g style="fill:#FFFFFF; fill-opacity:1.0; 
stroke:#FFFFFF; stroke-width:39.3701; stroke-opacity:1; 
stroke-linecap:round; stroke-linejoin:round;">
</g>
<g style="fill:#FFFFFF; fill-opacity:1.0; 
stroke:#FFFFFF; stroke-width:0; stroke-opacity:1; 
stroke-linecap:round; stroke-linejoin:round;">
<circle cx="40000" cy="35000" r="197" /> 
</g>
<g style="fill:#FFFFFF; fill-opacity:1.0; 
stroke:#FFFFFF; stroke-width:39.3701; stroke-opacity:1; 
stroke-linecap:round; stroke-linejoin:round;">
</g>
<g style="fill:#FFFFFF; fill-opacity:1.0; 
stroke:#FFFFFF; stroke-width:0; stroke-opacity:1; 
stroke-linecap:round; stroke-linejoin:round;">
<circle cx="40000" cy="34000" r="197" /> 
</g>
<g style="fill:#FFFFFF; fill-opacity:1.0; 
stroke:#FFFFFF; stroke-width:39.3701; stroke-opacity:1; 
stroke-linecap:round; stroke-linejoin:round;">
</g>
<g style="fill:#FFFFFF; fill-opacity:1.0; 
stroke:#FFFFFF; stroke-width:0; stroke-opacity:1; 
stroke-linecap:round; stroke-linejoin:round;">
<circle cx="45000" cy="35000" r="197" /> 
</g>
<g style="fill:#FFFFFF; fill-opacity:1.0; 
stroke:#FFFFFF; stroke-width:39.3701; stroke-opacity:1; 
stroke-linecap:round; stroke-linejoin:round;">
</g>
<g style="fill:#FFFFFF; fill-opacity:1.0; 
stroke:#FFFFFF; stroke-width:0; stroke-opacity:1; 
stroke-linecap:round; stroke-linejoin:round;">
<circle cx="45000" cy="34000" r="197" /> 
</g>
<g style="fill:#FFFFFF; fill-opacity:1.0; 
stroke:#FFFFFF; stroke-width:39.3701; stroke-opacity:1; 
stroke-linecap:round; stroke-linejoin:round;">
</g>
<g style="fill:#FFFFFF; fill-opacity:1.0; 
stroke:#FFFFFF; stroke-width:0; stroke-opacity:1; 
stroke-linecap:round; stroke-linejoin:round;">
<circle cx="50000" cy="35000" r="197" /> 
</g>
<g style="fill:#FFFFFF; fill-opacity:1.0; 
stroke:#FFFFFF; stroke-width:39.3701; stroke-opacity:1; 
stroke-linecap:round; stroke-linejoin:round;">
</g>
<g style="fill:#FFFFFF; fill-opacity:1.0; 
stroke:#FFFFFF; stroke-width:0; stroke-opacity:1; 
stroke-linecap:round; stroke-linejoin:round;">
<circle cx="50000" cy="34000" r="197" /> 
</g>
<g style="fill:#FFFFFF; fill-opacity:1.0; 
stroke:#FFFFFF; stroke-width:39.3701; stroke-opacity:1; 
stroke-linecap:round; stroke-linejoin:round;">
</g>
<g style="fill:#FFFFFF; fill-opacity:1.0; 
stroke:#FFFFFF; stroke-width:0; stroke-opacity:1; 
stroke-linecap:round; stroke-linejoin:round;">
<circle cx="55000" cy="35000" r="197" /> 
</g>
<g style="fill:#FFFFFF; fill-opacity:1.0; 
stroke:#FFFFFF; stroke-width:39.3701; stroke-opacity:1; 
stroke-linecap:round; stroke-linejoin:round;">
</g>
<g style="fill:#FFFFFF; fill-opacity:1.0; 
stroke:#FFFFFF; stroke-width:0; stroke-opacity:1; 
stroke-linecap:round; stroke-linejoin:round;">
<circle cx="55000" cy="34000" r="197" /> 
</g>
<g style="fill:#FFFFFF; fill-opacity:1.0; 
stroke:#FFFFFF; stroke-width:39.3701; stroke-opacity:1; 
stroke-linecap:round; stroke-linejoin:round;">
</g>
<g style="fill:#FFFFFF; fill-opacity:1.0; 
stroke:#FFFFFF; stroke-width:0; stroke-opacity:1; 
stroke-linecap:round; stroke-linejoin:round;">
<circle cx="52500" cy="29500" r="590.551" /> 
</g>
<g style="fill:#FFFFFF; fill-opacity:1.0; 
stroke:#FFFFFF; stroke-width:39.3701; stroke-opacity:1; 
stroke-linecap:round; stroke-linejoin:round;">
</g>
<g style="fill:#FFFFFF; fill-opacity:1.0; 
stroke:#FFFFFF; stroke-width:0; stroke-opacity:1; 
stroke-linecap:round; stroke-linejoin:round;">
<circle cx="22500" cy="29500" r="590.551" /> 
</g>
<g style="fill:#FFFFFF; fill-opacity:1.0; 
stroke:#FFFFFF; stroke-width:39.3701; stroke-opacity:1; 
stroke-linecap:round; stroke-linejoin:round;">
</g>
<g style="fill:#000000; fill-opacity:1.0; 
stroke:#000000; stroke-width:39.3701; stroke-opacity:1; 
stroke-linecap:round; stroke-linejoin:round;">
</g>
<g style="fill:#000000; fill-opacity:1.0; 
stroke:#000000; stroke-width:59.0551; stroke-opacity:1; 
stroke-linecap:round; stroke-linejoin:round;">
</g>
<g style="fill:#000000; fill-opacity:0.0; 
stroke:#000000; stroke-width:59.0551; stroke-opacity:1; 
stroke-linecap:round; stroke-linejoin:round;">
<path d="M25650 20550
L30650 20550
" />
<path d="M30650 20550
L30650 22550
" />
<path d="M30650 22550
L26650 22550
" />
<path d="M25650 20550
L25650 21550
" />
<path d="M25539 22050
L25539 22660
" />
<path d="M25650 21550
L26650 21550
" />
<path d="M26650 21550
L26650 22550
" />
<path d="M25539 22660
L26150 22660
" />
<path d="M20600.4 25478.3 A1147.83 1147.83 0.0 1 0 19409.4 25484.3 " />
<path d="M20590 25484
L19409 25484
" />
<circle cx="20000" cy="24500" r="991.313" /> 
<path d="M25600.4 25478.3 A1147.83 1147.83 0.0 1 0 24409.4 25484.3 " />
<path d="M25590 25484
L24409 25484
" />
<circle cx="25000" cy="24500" r="991.313" /> 
<path d="M30600.4 25478.3 A1147.83 1147.83 0.0 1 0 29409.4 25484.3 " />
<path d="M30590 25484
L29409 25484
" />
<circle cx="30000" cy="24500" r="991.313" /> 
<path d="M35600.4 25478.3 A1147.83 1147.83 0.0 1 0 34409.4 25484.3 " />
<path d="M35590 25484
L34409 25484
" />
<circle cx="35000" cy="24500" r="991.313" /> 
<path d="M40600.4 25478.3 A1147.83 1147.83 0.0 1 0 39409.4 25484.3 " />
<path d="M40590 25484
L39409 25484
" />
<circle cx="40000" cy="24500" r="991.313" /> 
<path d="M45600.4 25478.3 A1147.83 1147.83 0.0 1 0 44409.4 25484.3 " />
<path d="M45590 25484
L44409 25484
" />
<circle cx="45000" cy="24500" r="991.313" /> 
<path d="M50600.4 25478.3 A1147.83 1147.83 0.0 1 0 49409.4 25484.3 " />
<path d="M50590 25484
L49409 25484
" />
<circle cx="50000" cy="24500" r="991.313" /> 
<path d="M55600.4 25478.3 A1147.83 1147.83 0.0 1 0 54409.4 25484.3 " />
<path d="M55590 25484
L54409 25484
" />
<circle cx="55000" cy="24500" r="991.313" /> 
<path d="M20600.4 35478.3 A1147.83 1147.83 0.0 1 0 19409.4 35484.3 " />
<path d="M20590 35484
L19409 35484
" />
<circle cx="20000" cy="34500" r="991.313" /> 
<path d="M25600.4 35478.3 A1147.83 1147.83 0.0 1 0 24409.4 35484.3 " />
<path d="M25590 35484
L24409 35484
" />
<circle cx="25000" cy="34500" r="991.313" /> 
<path d="M30600.4 35478.3 A1147.83 1147.83 0.0 1 0 29409.4 35484.3 " />
<path d="M30590 35484
L29409 35484
" />
<circle cx="30000" cy="34500" r="991.313" /> 
<path d="M35600.4 35478.3 A1147.83 1147.83 0.0 1 0 34409.4 35484.3 " />
<path d="M35590 35484
L34409 35484
" />
<circle cx="35000" cy="34500" r="991.313" /> 
<path d="M40600.4 35478.3 A1147.83 1147.83 0.0 1 0 39409.4 35484.3 " />
<path d="M40590 35484
L39409 35484
" />
<circle cx="40000" cy="34500" r="991.313" /> 
<path d="M45600.4 35478.3 A1147.83 1147.83 0.0 1 0 44409.4 35484.3 " />
<path d="M45590 35484
L44409 35484
" />
<circle cx="45000" cy="34500" r="991.313" /> 
<path d="M50600.4 35478.3 A1147.83 1147.83 0.0 1 0 49409.4 35484.3 " />
<path d="M50590 35484
L49409 35484
" />
<circle cx="50000" cy="34500" r="991.313" /> 
<path d="M55600.4 35478.3 A1147.83 1147.83 0.0 1 0 54409.4 35484.3 " />
<path d="M55590 35484
L54409 35484
" />
<circle cx="55000" cy="34500" r="991.313" /> 
<path d="M24320 22340
L23926 22340
L23926 22190
L23945 22153
L23964 22134
L24001 22115
L24057 22115
L24095 22134
L24114 22153
L24132 22190
L24132 22340
" />
<path d="M24320 21740
L24320 21965
" />
<path d="M24320 21853
L23926 21853
L23982 21890
L24020 21928
L24039 21965
" />
<path d="M21778 24690
L21384 24690
L21384 24596
L21403 24540
L21440 24503
L21478 24484
L21553 24465
L21609 24465
L21684 24484
L21721 24503
L21759 24540
L21778 24596
L21778 24690
" />
<path d="M21778 24090
L21778 24315
" />
<path d="M21778 24203
L21384 24203
L21440 24240
L21478 24278
L21496 24315
" />
<path d="M20928 25853
L20534 25853
" />
<path d="M20928 25628
L20703 25796
" />
<path d="M20534 25628
L20759 25853
" />
<path d="M26778 24690
L26384 24690
L26384 24596
L26403 24540
L26440 24503
L26478 24484
L26553 24465
L26609 24465
L26684 24484
L26721 24503
L26759 24540
L26778 24596
L26778 24690
" />
<path d="M26421 24315
L26403 24296
L26384 24259
L26384 24165
L26403 24128
L26421 24109
L26459 24090
L26496 24090
L26553 24109
L26778 24334
L26778 24090
" />
<path d="M25646 25928
L25646 25534
" />
<path d="M25871 25928
L25703 25703
" />
<path d="M25871 25534
L25646 25759
" />
<path d="M31778 24690
L31384 24690
L31384 24596
L31403 24540
L31440 24503
L31478 24484
L31553 24465
L31609 24465
L31684 24484
L31721 24503
L31759 24540
L31778 24596
L31778 24690
" />
<path d="M31384 24334
L31384 24090
L31534 24221
L31534 24165
L31553 24128
L31571 24109
L31609 24090
L31703 24090
L31740 24109
L31759 24128
L31778 24165
L31778 24278
L31759 24315
L31740 24334
" />
<path d="M30928 25853
L30534 25853
" />
<path d="M30928 25628
L30703 25796
" />
<path d="M30534 25628
L30759 25853
" />
<path d="M36778 24690
L36384 24690
L36384 24596
L36403 24540
L36440 24503
L36478 24484
L36553 24465
L36609 24465
L36684 24484
L36721 24503
L36759 24540
L36778 24596
L36778 24690
" />
<path d="M36515 24128
L36778 24128
" />
<path d="M36365 24221
L36646 24315
L36646 24071
" />
<path d="M35928 25853
L35534 25853
" />
<path d="M35928 25628
L35703 25796
" />
<path d="M35534 25628
L35759 25853
" />
<path d="M41778 24690
L41384 24690
L41384 24596
L41403 24540
L41440 24503
L41478 24484
L41553 24465
L41609 24465
L41684 24484
L41721 24503
L41759 24540
L41778 24596
L41778 24690
" />
<path d="M41384 24109
L41384 24296
L41571 24315
L41553 24296
L41534 24259
L41534 24165
L41553 24128
L41571 24109
L41609 24090
L41703 24090
L41740 24109
L41759 24128
L41778 24165
L41778 24259
L41759 24296
L41740 24315
" />
<path d="M40928 25853
L40534 25853
" />
<path d="M40928 25628
L40703 25796
" />
<path d="M40534 25628
L40759 25853
" />
<path d="M46778 24690
L46384 24690
L46384 24596
L46403 24540
L46440 24503
L46478 24484
L46553 24465
L46609 24465
L46684 24484
L46721 24503
L46759 24540
L46778 24596
L46778 24690
" />
<path d="M46384 24128
L46384 24203
L46403 24240
L46421 24259
L46478 24296
L46553 24315
L46703 24315
L46740 24296
L46759 24278
L46778 24240
L46778 24165
L46759 24128
L46740 24109
L46703 24090
L46609 24090
L46571 24109
L46553 24128
L46534 24165
L46534 24240
L46553 24278
L46571 24296
L46609 24315
" />
<path d="M45928 25853
L45534 25853
" />
<path d="M45928 25628
L45703 25796
" />
<path d="M45534 25628
L45759 25853
" />
<path d="M51778 24690
L51384 24690
L51384 24596
L51403 24540
L51440 24503
L51478 24484
L51553 24465
L51609 24465
L51684 24484
L51721 24503
L51759 24540
L51778 24596
L51778 24690
" />
<path d="M51384 24334
L51384 24071
L51778 24240
" />
<path d="M50928 25853
L50534 25853
" />
<path d="M50928 25628
L50703 25796
" />
<path d="M50534 25628
L50759 25853
" />
<path d="M56778 24690
L56384 24690
L56384 24596
L56403 24540
L56440 24503
L56478 24484
L56553 24465
L56609 24465
L56684 24484
L56721 24503
L56759 24540
L56778 24596
L56778 24690
" />
<path d="M56553 24240
L56534 24278
L56515 24296
L56478 24315
L56459 24315
L56421 24296
L56403 24278
L56384 24240
L56384 24165
L56403 24128
L56421 24109
L56459 24090
L56478 24090
L56515 24109
L56534 24128
L56553 24165
L56553 24240
L56571 24278
L56590 24296
L56628 24315
L56703 24315
L56740 24296
L56759 24278
L56778 24240
L56778 24165
L56759 24128
L56740 24109
L56703 24090
L56628 24090
L56590 24109
L56571 24128
L56553 24165
" />
<path d="M55928 25853
L55534 25853
" />
<path d="M55928 25628
L55703 25796
" />
<path d="M55534 25628
L55759 25853
" />
<path d="M21778 34690
L21384 34690
L21384 34596
L21403 34540
L21440 34503
L21478 34484
L21553 34465
L21609 34465
L21684 34484
L21721 34503
L21759 34540
L21778 34596
L21778 34690
" />
<path d="M21778 34278
L21778 34203
L21759 34165
L21740 34146
L21684 34109
L21609 34090
L21459 34090
L21421 34109
L21403 34128
L21384 34165
L21384 34240
L21403 34278
L21421 34296
L21459 34315
L21553 34315
L21590 34296
L21609 34278
L21628 34240
L21628 34165
L21609 34128
L21590 34109
L21553 34090
" />
<path d="M20928 35853
L20534 35853
" />
<path d="M20928 35628
L20703 35796
" />
<path d="M20534 35628
L20759 35853
" />
<path d="M26778 34878
L26384 34878
L26384 34784
L26403 34728
L26440 34690
L26478 34671
L26553 34653
L26609 34653
L26684 34671
L26721 34690
L26759 34728
L26778 34784
L26778 34878
" />
<path d="M26778 34278
L26778 34503
" />
<path d="M26778 34390
L26384 34390
L26440 34428
L26478 34465
L26496 34503
" />
<path d="M26384 34034
L26384 33996
L26403 33959
L26421 33940
L26459 33921
L26534 33903
L26628 33903
L26703 33921
L26740 33940
L26759 33959
L26778 33996
L26778 34034
L26759 34071
L26740 34090
L26703 34109
L26628 34128
L26534 34128
L26459 34109
L26421 34090
L26403 34071
L26384 34034
" />
<path d="M25928 35853
L25534 35853
" />
<path d="M25928 35628
L25703 35796
" />
<path d="M25534 35628
L25759 35853
" />
<path d="M31778 34878
L31384 34878
L31384 34784
L31403 34728
L31440 34690
L31478 34671
L31553 34653
L31609 34653
L31684 34671
L31721 34690
L31759 34728
L31778 34784
L31778 34878
" />
<path d="M31778 34278
L31778 34503
" />
<path d="M31778 34390
L31384 34390
L31440 34428
L31478 34465
L31496 34503
" />
<path d="M31778 33903
L31778 34128
" />
<path d="M31778 34015
L31384 34015
L31440 34053
L31478 34090
L31496 34128
" />
<path d="M30928 35853
L30534 35853
" />
<path d="M30928 35628
L30703 35796
" />
<path d="M30534 35628
L30759 35853
" />
<path d="M36778 34878
L36384 34878
L36384 34784
L36403 34728
L36440 34690
L36478 34671
L36553 34653
L36609 34653
L36684 34671
L36721 34690
L36759 34728
L36778 34784
L36778 34878
" />
<path d="M36778 34278
L36778 34503
" />
<path d="M36778 34390
L36384 34390
L36440 34428
L36478 34465
L36496 34503
" />
<path d="M36421 34128
L36403 34109
L36384 34071
L36384 33978
L36403 33940
L36421 33921
L36459 33903
L36496 33903
L36553 33921
L36778 34146
L36778 33903
" />
<path d="M35928 35853
L35534 35853
" />
<path d="M35928 35628
L35703 35796
" />
<path d="M35534 35628
L35759 35853
" />
<path d="M41778 34878
L41384 34878
L41384 34784
L41403 34728
L41440 34690
L41478 34671
L41553 34653
L41609 34653
L41684 34671
L41721 34690
L41759 34728
L41778 34784
L41778 34878
" />
<path d="M41778 34278
L41778 34503
" />
<path d="M41778 34390
L41384 34390
L41440 34428
L41478 34465
L41496 34503
" />
<path d="M41384 34146
L41384 33903
L41534 34034
L41534 33978
L41553 33940
L41571 33921
L41609 33903
L41703 33903
L41740 33921
L41759 33940
L41778 33978
L41778 34090
L41759 34128
L41740 34146
" />
<path d="M40928 35853
L40534 35853
" />
<path d="M40928 35628
L40703 35796
" />
<path d="M40534 35628
L40759 35853
" />
<path d="M46778 34878
L46384 34878
L46384 34784
L46403 34728
L46440 34690
L46478 34671
L46553 34653
L46609 34653
L46684 34671
L46721 34690
L46759 34728
L46778 34784
L46778 34878
" />
<path d="M46778 34278
L46778 34503
" />
<path d="M46778 34390
L46384 34390
L46440 34428
L46478 34465
L46496 34503
" />
<path d="M46515 33940
L46778 33940
" />
<path d="M46365 34034
L46646 34128
L46646 33884
" />
<path d="M45928 35853
L45534 35853
" />
<path d="M45928 35628
L45703 35796
" />
<path d="M45534 35628
L45759 35853
" />
<path d="M51778 34878
L51384 34878
L51384 34784
L51403 34728
L51440 34690
L51478 34671
L51553 34653
L51609 34653
L51684 34671
L51721 34690
L51759 34728
L51778 34784
L51778 34878
" />
<path d="M51778 34278
L51778 34503
" />
<path d="M51778 34390
L51384 34390
L51440 34428
L51478 34465
L51496 34503
" />
<path d="M51384 33921
L51384 34109
L51571 34128
L51553 34109
L51534 34071
L51534 33978
L51553 33940
L51571 33921
L51609 33903
L51703 33903
L51740 33921
L51759 33940
L51778 33978
L51778 34071
L51759 34109
L51740 34128
" />
<path d="M50928 35853
L50534 35853
" />
<path d="M50928 35628
L50703 35796
" />
<path d="M50534 35628
L50759 35853
" />
<path d="M56778 34878
L56384 34878
L56384 34784
L56403 34728
L56440 34690
L56478 34671
L56553 34653
L56609 34653
L56684 34671
L56721 34690
L56759 34728
L56778 34784
L56778 34878
" />
<path d="M56778 34278
L56778 34503
" />
<path d="M56778 34390
L56384 34390
L56440 34428
L56478 34465
L56496 34503
" />
<path d="M56384 33940
L56384 34015
L56403 34053
L56421 34071
L56478 34109
L56553 34128
L56703 34128
L56740 34109
L56759 34090
L56778 34053
L56778 33978
L56759 33940
L56740 33921
L56703 33903
L56609 33903
L56571 33921
L56553 33940
L56534 33978
L56534 34053
L56553 34090
L56571 34109
L56609 34128
" />
<path d="M55928 35853
L55534 35853
" />
<path d="M55928 35628
L55703 35796
" />
<path d="M55534 35628
L55759 35853
" />
<path d="M51975 30997
L51843 30809
" />
<path d="M51750 30997
L51750 30603
L51900 30603
L51937 30622
L51956 30640
L51975 30678
L51975 30734
L51956 30772
L51937 30790
L51900 30809
L51750 30809
" />
<path d="M52143 30790
L52275 30790
" />
<path d="M52331 30997
L52143 30997
L52143 30603
L52331 30603
" />
<path d="M52631 30790
L52500 30790
" />
<path d="M52500 30997
L52500 30603
L52687 30603
" />
<path d="M52893 30603
L52893 30697
" />
<path d="M52799 30659
L52893 30697
L52987 30659
" />
<path d="M52837 30772
L52893 30697
L52949 30772
" />
<path d="M53193 30603
L53193 30697
" />
<path d="M53099 30659
L53193 30697
L53287 30659
" />
<path d="M53137 30772
L53193 30697
L53249 30772
" />
<path d="M21975 30997
L21843 30809
" />
<path d="M21750 30997
L21750 30603
L21900 30603
L21937 30622
L21956 30640
L21975 30678
L21975 30734
L21956 30772
L21937 30790
L21900 30809
L21750 30809
" />
<path d="M22143 30790
L22275 30790
" />
<path d="M22331 30997
L22143 30997
L22143 30603
L22331 30603
" />
<path d="M22631 30790
L22500 30790
" />
<path d="M22500 30997
L22500 30603
L22687 30603
" />
<path d="M22893 30603
L22893 30697
" />
<path d="M22799 30659
L22893 30697
L22987 30659
" />
<path d="M22837 30772
L22893 30697
L22949 30772
" />
<path d="M23193 30603
L23193 30697
" />
<path d="M23099 30659
L23193 30697
L23287 30659
" />
<path d="M23137 30772
L23193 30697
L23249 30772
" />
<path d="M25070 23634
L25088 23652
L25107 23709
L25107 23746
L25088 23802
L25051 23840
L25013 23859
L24938 23877
L24882 23877
L24807 23859
L24770 23840
L24732 23802
L24713 23746
L24713 23709
L24732 23652
L24751 23634
" />
<path d="M24713 23390
L24713 23315
L24732 23277
L24770 23240
L24845 23221
L24976 23221
L25051 23240
L25088 23277
L25107 23315
L25107 23390
L25088 23427
L25051 23465
L24976 23484
L24845 23484
L24770 23465
L24732 23427
L24713 23390
" />
<path d="M25107 23052
L24713 23052
L25107 22828
L24713 22828
" />
<path d="M25107 22640
L24713 22640
L25107 22415
L24713 22415
" />
<path d="M25145 22321
L25145 22021
" />
<path d="M24713 21853
L24713 21815
L24732 21778
L24751 21759
L24788 21740
L24863 21721
L24957 21721
L25032 21740
L25070 21759
L25088 21778
L25107 21815
L25107 21853
L25088 21890
L25070 21909
L25032 21928
L24957 21946
L24863 21946
L24788 21928
L24751 21909
L24732 21890
L24713 21853
" />
<path d="M24751 21571
L24732 21553
L24713 21515
L24713 21421
L24732 21384
L24751 21365
L24788 21346
L24826 21346
L24882 21365
L25107 21590
L25107 21346
" />
<path d="M24713 21215
L25107 20953
" />
<path d="M24713 20953
L25107 21215
" />
<path d="M24713 20728
L24713 20690
L24732 20653
L24751 20634
L24788 20615
L24863 20597
L24957 20597
L25032 20615
L25070 20634
L25088 20653
L25107 20690
L25107 20728
L25088 20765
L25070 20784
L25032 20803
L24957 20822
L24863 20822
L24788 20803
L24751 20784
L24732 20765
L24713 20728
" />
<path d="M24713 20240
L24713 20428
L24901 20447
L24882 20428
L24863 20390
L24863 20297
L24882 20259
L24901 20240
L24938 20222
L25032 20222
L25070 20240
L25088 20259
L25107 20297
L25107 20390
L25088 20428
L25070 20447
" />
<path d="M18628 24653
L18628 24840
L18234 24840
" />
<path d="M18421 24521
L18421 24390
" />
<path d="M18628 24334
L18628 24521
L18234 24521
L18234 24334
" />
<path d="M18628 24165
L18234 24165
L18234 24071
L18253 24015
L18290 23978
L18328 23959
L18403 23940
L18459 23940
L18534 23959
L18571 23978
L18609 24015
L18628 24071
L18628 24165
" />
<path d="M23628 24653
L23628 24840
L23234 24840
" />
<path d="M23421 24521
L23421 24390
" />
<path d="M23628 24334
L23628 24521
L23234 24521
L23234 24334
" />
<path d="M23628 24165
L23234 24165
L23234 24071
L23253 24015
L23290 23978
L23328 23959
L23403 23940
L23459 23940
L23534 23959
L23571 23978
L23609 24015
L23628 24071
L23628 24165
" />
<path d="M28628 24653
L28628 24840
L28234 24840
" />
<path d="M28421 24521
L28421 24390
" />
<path d="M28628 24334
L28628 24521
L28234 24521
L28234 24334
" />
<path d="M28628 24165
L28234 24165
L28234 24071
L28253 24015
L28290 23978
L28328 23959
L28403 23940
L28459 23940
L28534 23959
L28571 23978
L28609 24015
L28628 24071
L28628 24165
" />
<path d="M33628 24653
L33628 24840
L33234 24840
" />
<path d="M33421 24521
L33421 24390
" />
<path d="M33628 24334
L33628 24521
L33234 24521
L33234 24334
" />
<path d="M33628 24165
L33234 24165
L33234 24071
L33253 24015
L33290 23978
L33328 23959
L33403 23940
L33459 23940
L33534 23959
L33571 23978
L33609 24015
L33628 24071
L33628 24165
" />
<path d="M38628 24653
L38628 24840
L38234 24840
" />
<path d="M38421 24521
L38421 24390
" />
<path d="M38628 24334
L38628 24521
L38234 24521
L38234 24334
" />
<path d="M38628 24165
L38234 24165
L38234 24071
L38253 24015
L38290 23978
L38328 23959
L38403 23940
L38459 23940
L38534 23959
L38571 23978
L38609 24015
L38628 24071
L38628 24165
" />
<path d="M43628 24653
L43628 24840
L43234 24840
" />
<path d="M43421 24521
L43421 24390
" />
<path d="M43628 24334
L43628 24521
L43234 24521
L43234 24334
" />
<path d="M43628 24165
L43234 24165
L43234 24071
L43253 24015
L43290 23978
L43328 23959
L43403 23940
L43459 23940
L43534 23959
L43571 23978
L43609 24015
L43628 24071
L43628 24165
" />
<path d="M48628 24653
L48628 24840
L48234 24840
" />
<path d="M48421 24521
L48421 24390
" />
<path d="M48628 24334
L48628 24521
L48234 24521
L48234 24334
" />
<path d="M48628 24165
L48234 24165
L48234 24071
L48253 24015
L48290 23978
L48328 23959
L48403 23940
L48459 23940
L48534 23959
L48571 23978
L48609 24015
L48628 24071
L48628 24165
" />
<path d="M53628 24653
L53628 24840
L53234 24840
" />
<path d="M53421 24521
L53421 24390
" />
<path d="M53628 24334
L53628 24521
L53234 24521
L53234 24334
" />
<path d="M53628 24165
L53234 24165
L53234 24071
L53253 24015
L53290 23978
L53328 23959
L53403 23940
L53459 23940
L53534 23959
L53571 23978
L53609 24015
L53628 24071
L53628 24165
" />
<path d="M18628 34653
L18628 34840
L18234 34840
" />
<path d="M18421 34521
L18421 34390
" />
<path d="M18628 34334
L18628 34521
L18234 34521
L18234 34334
" />
<path d="M18628 34165
L18234 34165
L18234 34071
L18253 34015
L18290 33978
L18328 33959
L18403 33940
L18459 33940
L18534 33959
L18571 33978
L18609 34015
L18628 34071
L18628 34165
" />
<path d="M23628 34653
L23628 34840
L23234 34840
" />
<path d="M23421 34521
L23421 34390
" />
<path d="M23628 34334
L23628 34521
L23234 34521
L23234 34334
" />
<path d="M23628 34165
L23234 34165
L23234 34071
L23253 34015
L23290 33978
L23328 33959
L23403 33940
L23459 33940
L23534 33959
L23571 33978
L23609 34015
L23628 34071
L23628 34165
" />
<path d="M28628 34653
L28628 34840
L28234 34840
" />
<path d="M28421 34521
L28421 34390
" />
<path d="M28628 34334
L28628 34521
L28234 34521
L28234 34334
" />
<path d="M28628 34165
L28234 34165
L28234 34071
L28253 34015
L28290 33978
L28328 33959
L28403 33940
L28459 33940
L28534 33959
L28571 33978
L28609 34015
L28628 34071
L28628 34165
" />
<path d="M33628 34653
L33628 34840
L33234 34840
" />
<path d="M33421 34521
L33421 34390
" />
<path d="M33628 34334
L33628 34521
L33234 34521
L33234 34334
" />
<path d="M33628 34165
L33234 34165
L33234 34071
L33253 34015
L33290 33978
L33328 33959
L33403 33940
L33459 33940
L33534 33959
L33571 33978
L33609 34015
L33628 34071
L33628 34165
" />
<path d="M38628 34653
L38628 34840
L38234 34840
" />
<path d="M38421 34521
L38421 34390
" />
<path d="M38628 34334
L38628 34521
L38234 34521
L38234 34334
" />
<path d="M38628 34165
L38234 34165
L38234 34071
L38253 34015
L38290 33978
L38328 33959
L38403 33940
L38459 33940
L38534 33959
L38571 33978
L38609 34015
L38628 34071
L38628 34165
" />
<path d="M43628 34653
L43628 34840
L43234 34840
" />
<path d="M43421 34521
L43421 34390
" />
<path d="M43628 34334
L43628 34521
L43234 34521
L43234 34334
" />
<path d="M43628 34165
L43234 34165
L43234 34071
L43253 34015
L43290 33978
L43328 33959
L43403 33940
L43459 33940
L43534 33959
L43571 33978
L43609 34015
L43628 34071
L43628 34165
" />
<path d="M48628 34653
L48628 34840
L48234 34840
" />
<path d="M48421 34521
L48421 34390
" />
<path d="M48628 34334
L48628 34521
L48234 34521
L48234 34334
" />
<path d="M48628 34165
L48234 34165
L48234 34071
L48253 34015
L48290 33978
L48328 33959
L48403 33940
L48459 33940
L48534 33959
L48571 33978
L48609 34015
L48628 34071
L48628 34165
" />
<path d="M53628 34653
L53628 34840
L53234 34840
" />
<path d="M53421 34521
L53421 34390
" />
<path d="M53628 34334
L53628 34521
L53234 34521
L53234 34334
" />
<path d="M53628 34165
L53234 34165
L53234 34071
L53253 34015
L53290 33978
L53328 33959
L53403 33940
L53459 33940
L53534 33959
L53571 33978
L53609 34015
L53628 34071
L53628 34165
" />
<path d="M52181 28300
L52181 27906
L52312 28187
L52443 27906
L52443 28300
" />
<path d="M52593 27906
L52837 27906
L52706 28056
L52762 28056
L52799 28075
L52818 28093
L52837 28131
L52837 28225
L52818 28262
L52799 28281
L52762 28300
L52649 28300
L52612 28281
L52593 28262
" />
<path d="M22181 28300
L22181 27906
L22312 28187
L22443 27906
L22443 28300
" />
<path d="M22593 27906
L22837 27906
L22706 28056
L22762 28056
L22799 28075
L22818 28093
L22837 28131
L22837 28225
L22818 28262
L22799 28281
L22762 28300
L22649 28300
L22612 28281
L22593 28262
" />
</g>
<g style="fill:#000000; fill-opacity:0.0; 
stroke:#000000; stroke-width:118.11; stroke-opacity:1; 
stroke-linecap:round; stroke-linejoin:round;">
<path d="M11898 28802
L11870 28859
L11841 28887
L11785 28915
L11757 28915
L11701 28887
L11673 28859
L11645 28802
L11645 28690
L11673 28634
L11701 28606
L11757 28577
L11785 28577
L11841 28606
L11870 28634
L11898 28690
L11898 28802
L11926 28859
L11954 28887
L12010 28915
L12123 28915
L12179 28887
L12207 28859
L12235 28802
L12235 28690
L12207 28634
L12179 28606
L12123 28577
L12010 28577
L11954 28606
L11926 28634
L11898 28690
" />
<path d="M12179 28324
L12207 28296
L12235 28324
L12207 28352
L12179 28324
L12235 28324
" />
<path d="M11898 27959
L11870 28015
L11841 28043
L11785 28071
L11757 28071
L11701 28043
L11673 28015
L11645 27959
L11645 27846
L11673 27790
L11701 27762
L11757 27734
L11785 27734
L11841 27762
L11870 27790
L11898 27846
L11898 27959
L11926 28015
L11954 28043
L12010 28071
L12123 28071
L12179 28043
L12207 28015
L12235 27959
L12235 27846
L12207 27790
L12179 27762
L12123 27734
L12010 27734
L11954 27762
L11926 27790
L11898 27846
" />
<path d="M12235 27453
L12235 27340
L12207 27284
L12179 27256
L12095 27199
L11982 27171
L11757 27171
L11701 27199
L11673 27228
L11645 27284
L11645 27396
L11673 27453
L11701 27481
L11757 27509
L11898 27509
L11954 27481
L11982 27453
L12010 27396
L12010 27284
L11982 27228
L11954 27199
L11898 27171
" />
<path d="M11645 26806
L11645 26750
L11673 26693
L11701 26665
L11757 26637
L11870 26609
L12010 26609
L12123 26637
L12179 26665
L12207 26693
L12235 26750
L12235 26806
L12207 26862
L12179 26890
L12123 26918
L12010 26946
L11870 26946
L11757 26918
L11701 26890
L11673 26862
L11645 26806
" />
<path d="M12235 25906
L11841 25906
" />
<path d="M11898 25906
L11870 25878
L11841 25821
L11841 25737
L11870 25681
L11926 25653
L12235 25653
" />
<path d="M11926 25653
L11870 25625
L11841 25568
L11841 25484
L11870 25428
L11926 25400
L12235 25400
" />
<path d="M12235 25118
L11841 25118
" />
<path d="M11898 25118
L11870 25090
L11841 25034
L11841 24950
L11870 24893
L11926 24865
L12235 24865
" />
<path d="M11926 24865
L11870 24837
L11841 24781
L11841 24697
L11870 24640
L11926 24612
L12235 24612
" />
<path d="M12500 28500
L12500 25000
" />
<path d="M20000 28500
L11437 28500
" />
<path d="M20000 25000
L11437 25000
" />
<path d="M12500 25000
L12730 25443
" />
<path d="M12500 25000
L12269 25443
" />
<path d="M12500 28500
L12730 28056
" />
<path d="M12500 28500
L12269 28056
" />
</g>
<g style="fill:#000000; fill-opacity:0.0; 
stroke:#000000; stroke-width:39.3701; stroke-opacity:1; 
stroke-linecap:round; stroke-linejoin:round;">
<path d="M57000 36000
L16000 36000
" />
<path d="M57000 21500
L57000 36000
" />
<path d="M34000 21500
L57000 21500
" />
<path d="M32000 19500
L34000 21500
" />
<path d="M21500 19500
L32000 19500
" />
<path d="M16000 25000
L21500 19500
" />
<path d="M16000 36000
L16000 25000
" />
</g> 
</svg>
