<?xml version="1.0" standalone="no"?>
 <!DOCTYPE svg PUBLIC "-//W3C//DTD SVG 1.1//EN" 
 "http://www.w3.org/Graphics/SVG/1.1/DTD/svg11.dtd"> 
<svg xmlns="http://www.w3.org/2000/svg" version="1.1" 
    width="29.7002cm" height="21.0007cm" viewBox="0 0 116930 82680 ">
<title>SVG Picture created as lamps-16-brd.svg date 2016/09/02 09:28:12 </title>
  <desc>Picture generated by PCBNEW </desc>
<g style="fill:#000000; fill-opacity:1;stroke:#000000; stroke-opacity:1;
stroke-linecap:round; stroke-linejoin:round; "
 transform="translate(0 0) scale(1 1)">
</g>
<g style="fill:#000000; fill-opacity:0.0; 
stroke:#000000; stroke-width:-0.000393701; stroke-opacity:1; 
stroke-linecap:round; stroke-linejoin:round;">
</g>
<g style="fill:#000000; fill-opacity:0.0; 
stroke:#000000; stroke-width:39.3701; stroke-opacity:1; 
stroke-linecap:round; stroke-linejoin:round;">
</g>
<g style="fill:#000000; fill-opacity:0.0; 
stroke:#000000; stroke-width:59.0551; stroke-opacity:1; 
stroke-linecap:round; stroke-linejoin:round;">
<rect x="69685.9" y="65357.2" width="42519.7" height="12598.4" rx="0" />
</g>
<g style="fill:#000000; fill-opacity:0.0; 
stroke:#000000; stroke-width:39.3701; stroke-opacity:1; 
stroke-linecap:round; stroke-linejoin:round;">
</g>
<g style="fill:#000000; fill-opacity:0.0; 
stroke:#000000; stroke-width:59.0551; stroke-opacity:1; 
stroke-linecap:round; stroke-linejoin:round;">
<rect x="3937.01" y="3937.01" width="109056" height="74806" rx="0" />
</g>
<g style="fill:#000000; fill-opacity:0.0; 
stroke:#000000; stroke-width:39.3701; stroke-opacity:1; 
stroke-linecap:round; stroke-linejoin:round;">
</g>
<g style="fill:#000000; fill-opacity:0.0; 
stroke:#000000; stroke-width:59.0551; stroke-opacity:1; 
stroke-linecap:round; stroke-linejoin:round;">
<rect x="4724.41" y="4724.41" width="107481" height="73231.2" rx="0" />
</g>
<g style="fill:#000000; fill-opacity:0.0; 
stroke:#000000; stroke-width:39.3701; stroke-opacity:1; 
stroke-linecap:round; stroke-linejoin:round;">
</g>
<g style="fill:#000000; fill-opacity:0.0; 
stroke:#000000; stroke-width:59.0551; stroke-opacity:1; 
stroke-linecap:round; stroke-linejoin:round;">
<path d="M23622 4724
L23622 3937
" />
</g>
<g style="fill:#000000; fill-opacity:0.0; 
stroke:#000000; stroke-width:39.3701; stroke-opacity:1; 
stroke-linecap:round; stroke-linejoin:round;">
</g>
<g style="fill:#000000; fill-opacity:0.0; 
stroke:#000000; stroke-width:59.0551; stroke-opacity:1; 
stroke-linecap:round; stroke-linejoin:round;">
<path d="M43307 4724
L43307 3937
" />
</g>
<g style="fill:#000000; fill-opacity:0.0; 
stroke:#000000; stroke-width:39.3701; stroke-opacity:1; 
stroke-linecap:round; stroke-linejoin:round;">
</g>
<g style="fill:#000000; fill-opacity:0.0; 
stroke:#000000; stroke-width:59.0551; stroke-opacity:1; 
stroke-linecap:round; stroke-linejoin:round;">
<path d="M62992 4724
L62992 3937
" />
</g>
<g style="fill:#000000; fill-opacity:0.0; 
stroke:#000000; stroke-width:39.3701; stroke-opacity:1; 
stroke-linecap:round; stroke-linejoin:round;">
</g>
<g style="fill:#000000; fill-opacity:0.0; 
stroke:#000000; stroke-width:59.0551; stroke-opacity:1; 
stroke-linecap:round; stroke-linejoin:round;">
<path d="M82677 4724
L82677 3937
" />
</g>
<g style="fill:#000000; fill-opacity:0.0; 
stroke:#000000; stroke-width:39.3701; stroke-opacity:1; 
stroke-linecap:round; stroke-linejoin:round;">
</g>
<g style="fill:#000000; fill-opacity:0.0; 
stroke:#000000; stroke-width:59.0551; stroke-opacity:1; 
stroke-linecap:round; stroke-linejoin:round;">
<path d="M102362 4724
L102362 3937
" />
</g>
<g style="fill:#000000; fill-opacity:0.0; 
stroke:#000000; stroke-width:39.3701; stroke-opacity:1; 
stroke-linecap:round; stroke-linejoin:round;">
</g>
<g style="fill:#000000; fill-opacity:0.0; 
stroke:#000000; stroke-width:59.0551; stroke-opacity:1; 
stroke-linecap:round; stroke-linejoin:round;">
<path d="M14169 4562
L13877 4562
" />
<path d="M14023 4562
L14023 4050
L13974 4123
L13925 4172
L13877 4196
" />
</g>
<g style="fill:#000000; fill-opacity:0.0; 
stroke:#000000; stroke-width:39.3701; stroke-opacity:1; 
stroke-linecap:round; stroke-linejoin:round;">
</g>
<g style="fill:#000000; fill-opacity:0.0; 
stroke:#000000; stroke-width:59.0551; stroke-opacity:1; 
stroke-linecap:round; stroke-linejoin:round;">
<path d="M33562 4099
L33586 4074
L33635 4050
L33757 4050
L33805 4074
L33830 4099
L33854 4147
L33854 4196
L33830 4269
L33537 4562
L33854 4562
" />
</g>
<g style="fill:#000000; fill-opacity:0.0; 
stroke:#000000; stroke-width:39.3701; stroke-opacity:1; 
stroke-linecap:round; stroke-linejoin:round;">
</g>
<g style="fill:#000000; fill-opacity:0.0; 
stroke:#000000; stroke-width:59.0551; stroke-opacity:1; 
stroke-linecap:round; stroke-linejoin:round;">
<path d="M53222 4050
L53539 4050
L53368 4245
L53442 4245
L53490 4269
L53515 4294
L53539 4342
L53539 4464
L53515 4513
L53490 4537
L53442 4562
L53295 4562
L53247 4537
L53222 4513
" />
</g>
<g style="fill:#000000; fill-opacity:0.0; 
stroke:#000000; stroke-width:39.3701; stroke-opacity:1; 
stroke-linecap:round; stroke-linejoin:round;">
</g>
<g style="fill:#000000; fill-opacity:0.0; 
stroke:#000000; stroke-width:59.0551; stroke-opacity:1; 
stroke-linecap:round; stroke-linejoin:round;">
<path d="M73175 4221
L73175 4562
" />
<path d="M73053 4026
L72932 4391
L73248 4391
" />
</g>
<g style="fill:#000000; fill-opacity:0.0; 
stroke:#000000; stroke-width:39.3701; stroke-opacity:1; 
stroke-linecap:round; stroke-linejoin:round;">
</g>
<g style="fill:#000000; fill-opacity:0.0; 
stroke:#000000; stroke-width:59.0551; stroke-opacity:1; 
stroke-linecap:round; stroke-linejoin:round;">
<path d="M92885 4050
L92641 4050
L92617 4294
L92641 4269
L92690 4245
L92812 4245
L92860 4269
L92885 4294
L92909 4342
L92909 4464
L92885 4513
L92860 4537
L92812 4562
L92690 4562
L92641 4537
L92617 4513
" />
</g>
<g style="fill:#000000; fill-opacity:0.0; 
stroke:#000000; stroke-width:39.3701; stroke-opacity:1; 
stroke-linecap:round; stroke-linejoin:round;">
</g>
<g style="fill:#000000; fill-opacity:0.0; 
stroke:#000000; stroke-width:59.0551; stroke-opacity:1; 
stroke-linecap:round; stroke-linejoin:round;">
<path d="M112545 4050
L112448 4050
L112399 4074
L112375 4099
L112326 4172
L112302 4269
L112302 4464
L112326 4513
L112350 4537
L112399 4562
L112497 4562
L112545 4537
L112570 4513
L112594 4464
L112594 4342
L112570 4294
L112545 4269
L112497 4245
L112399 4245
L112350 4269
L112326 4294
L112302 4342
" />
</g>
<g style="fill:#000000; fill-opacity:0.0; 
stroke:#000000; stroke-width:39.3701; stroke-opacity:1; 
stroke-linecap:round; stroke-linejoin:round;">
</g>
<g style="fill:#000000; fill-opacity:0.0; 
stroke:#000000; stroke-width:59.0551; stroke-opacity:1; 
stroke-linecap:round; stroke-linejoin:round;">
<path d="M23622 77955
L23622 78742
" />
</g>
<g style="fill:#000000; fill-opacity:0.0; 
stroke:#000000; stroke-width:39.3701; stroke-opacity:1; 
stroke-linecap:round; stroke-linejoin:round;">
</g>
<g style="fill:#000000; fill-opacity:0.0; 
stroke:#000000; stroke-width:59.0551; stroke-opacity:1; 
stroke-linecap:round; stroke-linejoin:round;">
<path d="M43307 77955
L43307 78742
" />
</g>
<g style="fill:#000000; fill-opacity:0.0; 
stroke:#000000; stroke-width:39.3701; stroke-opacity:1; 
stroke-linecap:round; stroke-linejoin:round;">
</g>
<g style="fill:#000000; fill-opacity:0.0; 
stroke:#000000; stroke-width:59.0551; stroke-opacity:1; 
stroke-linecap:round; stroke-linejoin:round;">
<path d="M62992 77955
L62992 78742
" />
</g>
<g style="fill:#000000; fill-opacity:0.0; 
stroke:#000000; stroke-width:39.3701; stroke-opacity:1; 
stroke-linecap:round; stroke-linejoin:round;">
</g>
<g style="fill:#000000; fill-opacity:0.0; 
stroke:#000000; stroke-width:59.0551; stroke-opacity:1; 
stroke-linecap:round; stroke-linejoin:round;">
<path d="M82677 77955
L82677 78742
" />
</g>
<g style="fill:#000000; fill-opacity:0.0; 
stroke:#000000; stroke-width:39.3701; stroke-opacity:1; 
stroke-linecap:round; stroke-linejoin:round;">
</g>
<g style="fill:#000000; fill-opacity:0.0; 
stroke:#000000; stroke-width:59.0551; stroke-opacity:1; 
stroke-linecap:round; stroke-linejoin:round;">
<path d="M102362 77955
L102362 78742
" />
</g>
<g style="fill:#000000; fill-opacity:0.0; 
stroke:#000000; stroke-width:39.3701; stroke-opacity:1; 
stroke-linecap:round; stroke-linejoin:round;">
</g>
<g style="fill:#000000; fill-opacity:0.0; 
stroke:#000000; stroke-width:59.0551; stroke-opacity:1; 
stroke-linecap:round; stroke-linejoin:round;">
<path d="M14169 78580
L13877 78580
" />
<path d="M14023 78580
L14023 78069
L13974 78142
L13925 78190
L13877 78215
" />
</g>
<g style="fill:#000000; fill-opacity:0.0; 
stroke:#000000; stroke-width:39.3701; stroke-opacity:1; 
stroke-linecap:round; stroke-linejoin:round;">
</g>
<g style="fill:#000000; fill-opacity:0.0; 
stroke:#000000; stroke-width:59.0551; stroke-opacity:1; 
stroke-linecap:round; stroke-linejoin:round;">
<path d="M33562 78117
L33586 78093
L33635 78069
L33757 78069
L33805 78093
L33830 78117
L33854 78166
L33854 78215
L33830 78288
L33537 78580
L33854 78580
" />
</g>
<g style="fill:#000000; fill-opacity:0.0; 
stroke:#000000; stroke-width:39.3701; stroke-opacity:1; 
stroke-linecap:round; stroke-linejoin:round;">
</g>
<g style="fill:#000000; fill-opacity:0.0; 
stroke:#000000; stroke-width:59.0551; stroke-opacity:1; 
stroke-linecap:round; stroke-linejoin:round;">
<path d="M53222 78069
L53539 78069
L53368 78263
L53442 78263
L53490 78288
L53515 78312
L53539 78361
L53539 78483
L53515 78532
L53490 78556
L53442 78580
L53295 78580
L53247 78556
L53222 78532
" />
</g>
<g style="fill:#000000; fill-opacity:0.0; 
stroke:#000000; stroke-width:39.3701; stroke-opacity:1; 
stroke-linecap:round; stroke-linejoin:round;">
</g>
<g style="fill:#000000; fill-opacity:0.0; 
stroke:#000000; stroke-width:59.0551; stroke-opacity:1; 
stroke-linecap:round; stroke-linejoin:round;">
<path d="M73175 78239
L73175 78580
" />
<path d="M73053 78044
L72932 78410
L73248 78410
" />
</g>
<g style="fill:#000000; fill-opacity:0.0; 
stroke:#000000; stroke-width:39.3701; stroke-opacity:1; 
stroke-linecap:round; stroke-linejoin:round;">
</g>
<g style="fill:#000000; fill-opacity:0.0; 
stroke:#000000; stroke-width:59.0551; stroke-opacity:1; 
stroke-linecap:round; stroke-linejoin:round;">
<path d="M92885 78069
L92641 78069
L92617 78312
L92641 78288
L92690 78263
L92812 78263
L92860 78288
L92885 78312
L92909 78361
L92909 78483
L92885 78532
L92860 78556
L92812 78580
L92690 78580
L92641 78556
L92617 78532
" />
</g>
<g style="fill:#000000; fill-opacity:0.0; 
stroke:#000000; stroke-width:39.3701; stroke-opacity:1; 
stroke-linecap:round; stroke-linejoin:round;">
</g>
<g style="fill:#000000; fill-opacity:0.0; 
stroke:#000000; stroke-width:59.0551; stroke-opacity:1; 
stroke-linecap:round; stroke-linejoin:round;">
<path d="M112545 78069
L112448 78069
L112399 78093
L112375 78117
L112326 78190
L112302 78288
L112302 78483
L112326 78532
L112350 78556
L112399 78580
L112497 78580
L112545 78556
L112570 78532
L112594 78483
L112594 78361
L112570 78312
L112545 78288
L112497 78263
L112399 78263
L112350 78288
L112326 78312
L112302 78361
" />
</g>
<g style="fill:#000000; fill-opacity:0.0; 
stroke:#000000; stroke-width:39.3701; stroke-opacity:1; 
stroke-linecap:round; stroke-linejoin:round;">
</g>
<g style="fill:#000000; fill-opacity:0.0; 
stroke:#000000; stroke-width:59.0551; stroke-opacity:1; 
stroke-linecap:round; stroke-linejoin:round;">
<path d="M3937 23622
L4724 23622
" />
</g>
<g style="fill:#000000; fill-opacity:0.0; 
stroke:#000000; stroke-width:39.3701; stroke-opacity:1; 
stroke-linecap:round; stroke-linejoin:round;">
</g>
<g style="fill:#000000; fill-opacity:0.0; 
stroke:#000000; stroke-width:59.0551; stroke-opacity:1; 
stroke-linecap:round; stroke-linejoin:round;">
<path d="M3937 43307
L4724 43307
" />
</g>
<g style="fill:#000000; fill-opacity:0.0; 
stroke:#000000; stroke-width:39.3701; stroke-opacity:1; 
stroke-linecap:round; stroke-linejoin:round;">
</g>
<g style="fill:#000000; fill-opacity:0.0; 
stroke:#000000; stroke-width:59.0551; stroke-opacity:1; 
stroke-linecap:round; stroke-linejoin:round;">
<path d="M3937 62992
L4724 62992
" />
</g>
<g style="fill:#000000; fill-opacity:0.0; 
stroke:#000000; stroke-width:39.3701; stroke-opacity:1; 
stroke-linecap:round; stroke-linejoin:round;">
</g>
<g style="fill:#000000; fill-opacity:0.0; 
stroke:#000000; stroke-width:59.0551; stroke-opacity:1; 
stroke-linecap:round; stroke-linejoin:round;">
<path d="M4208 13864
L4452 13864
" />
<path d="M4160 14011
L4330 13499
L4501 14011
" />
</g>
<g style="fill:#000000; fill-opacity:0.0; 
stroke:#000000; stroke-width:39.3701; stroke-opacity:1; 
stroke-linecap:round; stroke-linejoin:round;">
</g>
<g style="fill:#000000; fill-opacity:0.0; 
stroke:#000000; stroke-width:59.0551; stroke-opacity:1; 
stroke-linecap:round; stroke-linejoin:round;">
<path d="M4367 33428
L4440 33452
L4464 33476
L4489 33525
L4489 33598
L4464 33647
L4440 33671
L4391 33696
L4196 33696
L4196 33184
L4367 33184
L4416 33208
L4440 33233
L4464 33281
L4464 33330
L4440 33379
L4416 33403
L4367 33428
L4196 33428
" />
</g>
<g style="fill:#000000; fill-opacity:0.0; 
stroke:#000000; stroke-width:39.3701; stroke-opacity:1; 
stroke-linecap:round; stroke-linejoin:round;">
</g>
<g style="fill:#000000; fill-opacity:0.0; 
stroke:#000000; stroke-width:59.0551; stroke-opacity:1; 
stroke-linecap:round; stroke-linejoin:round;">
<path d="M4489 53332
L4464 53356
L4391 53381
L4342 53381
L4269 53356
L4221 53308
L4196 53259
L4172 53161
L4172 53088
L4196 52991
L4221 52942
L4269 52893
L4342 52869
L4391 52869
L4464 52893
L4489 52918
" />
</g>
<g style="fill:#000000; fill-opacity:0.0; 
stroke:#000000; stroke-width:39.3701; stroke-opacity:1; 
stroke-linecap:round; stroke-linejoin:round;">
</g>
<g style="fill:#000000; fill-opacity:0.0; 
stroke:#000000; stroke-width:59.0551; stroke-opacity:1; 
stroke-linecap:round; stroke-linejoin:round;">
<path d="M4196 73066
L4196 72554
L4318 72554
L4391 72578
L4440 72627
L4464 72676
L4489 72773
L4489 72846
L4464 72944
L4440 72993
L4391 73041
L4318 73066
L4196 73066
" />
</g>
<g style="fill:#000000; fill-opacity:0.0; 
stroke:#000000; stroke-width:39.3701; stroke-opacity:1; 
stroke-linecap:round; stroke-linejoin:round;">
</g>
<g style="fill:#000000; fill-opacity:0.0; 
stroke:#000000; stroke-width:59.0551; stroke-opacity:1; 
stroke-linecap:round; stroke-linejoin:round;">
<path d="M112992 23622
L112205 23622
" />
</g>
<g style="fill:#000000; fill-opacity:0.0; 
stroke:#000000; stroke-width:39.3701; stroke-opacity:1; 
stroke-linecap:round; stroke-linejoin:round;">
</g>
<g style="fill:#000000; fill-opacity:0.0; 
stroke:#000000; stroke-width:59.0551; stroke-opacity:1; 
stroke-linecap:round; stroke-linejoin:round;">
<path d="M112992 43307
L112205 43307
" />
</g>
<g style="fill:#000000; fill-opacity:0.0; 
stroke:#000000; stroke-width:39.3701; stroke-opacity:1; 
stroke-linecap:round; stroke-linejoin:round;">
</g>
<g style="fill:#000000; fill-opacity:0.0; 
stroke:#000000; stroke-width:59.0551; stroke-opacity:1; 
stroke-linecap:round; stroke-linejoin:round;">
<path d="M112992 62992
L112205 62992
" />
</g>
<g style="fill:#000000; fill-opacity:0.0; 
stroke:#000000; stroke-width:39.3701; stroke-opacity:1; 
stroke-linecap:round; stroke-linejoin:round;">
</g>
<g style="fill:#000000; fill-opacity:0.0; 
stroke:#000000; stroke-width:59.0551; stroke-opacity:1; 
stroke-linecap:round; stroke-linejoin:round;">
<path d="M112477 13864
L112721 13864
" />
<path d="M112428 14011
L112599 13499
L112769 14011
" />
</g>
<g style="fill:#000000; fill-opacity:0.0; 
stroke:#000000; stroke-width:39.3701; stroke-opacity:1; 
stroke-linecap:round; stroke-linejoin:round;">
</g>
<g style="fill:#000000; fill-opacity:0.0; 
stroke:#000000; stroke-width:59.0551; stroke-opacity:1; 
stroke-linecap:round; stroke-linejoin:round;">
<path d="M112635 33428
L112708 33452
L112733 33476
L112757 33525
L112757 33598
L112733 33647
L112708 33671
L112660 33696
L112465 33696
L112465 33184
L112635 33184
L112684 33208
L112708 33233
L112733 33281
L112733 33330
L112708 33379
L112684 33403
L112635 33428
L112465 33428
" />
</g>
<g style="fill:#000000; fill-opacity:0.0; 
stroke:#000000; stroke-width:39.3701; stroke-opacity:1; 
stroke-linecap:round; stroke-linejoin:round;">
</g>
<g style="fill:#000000; fill-opacity:0.0; 
stroke:#000000; stroke-width:59.0551; stroke-opacity:1; 
stroke-linecap:round; stroke-linejoin:round;">
<path d="M112757 53332
L112733 53356
L112660 53381
L112611 53381
L112538 53356
L112489 53308
L112465 53259
L112440 53161
L112440 53088
L112465 52991
L112489 52942
L112538 52893
L112611 52869
L112660 52869
L112733 52893
L112757 52918
" />
</g>
<g style="fill:#000000; fill-opacity:0.0; 
stroke:#000000; stroke-width:39.3701; stroke-opacity:1; 
stroke-linecap:round; stroke-linejoin:round;">
</g>
<g style="fill:#000000; fill-opacity:0.0; 
stroke:#000000; stroke-width:59.0551; stroke-opacity:1; 
stroke-linecap:round; stroke-linejoin:round;">
<path d="M112465 73066
L112465 72554
L112587 72554
L112660 72578
L112708 72627
L112733 72676
L112757 72773
L112757 72846
L112733 72944
L112708 72993
L112660 73041
L112587 73066
L112465 73066
" />
</g>
<g style="fill:#000000; fill-opacity:0.0; 
stroke:#000000; stroke-width:39.3701; stroke-opacity:1; 
stroke-linecap:round; stroke-linejoin:round;">
</g>
<g style="fill:#000000; fill-opacity:0.0; 
stroke:#000000; stroke-width:59.0551; stroke-opacity:1; 
stroke-linecap:round; stroke-linejoin:round;">
<path d="M78881 76293
L78881 75703
L79022 75703
L79106 75731
L79162 75787
L79190 75843
L79219 75956
L79219 76040
L79190 76153
L79162 76209
L79106 76265
L79022 76293
L78881 76293
" />
<path d="M79725 76293
L79725 75984
L79697 75928
L79640 75899
L79528 75899
L79472 75928
" />
<path d="M79725 76265
L79669 76293
L79528 76293
L79472 76265
L79444 76209
L79444 76153
L79472 76096
L79528 76068
L79669 76068
L79725 76040
" />
<path d="M79922 75899
L80147 75899
" />
<path d="M80006 75703
L80006 76209
L80034 76265
L80090 76293
L80147 76293
" />
<path d="M80568 76265
L80512 76293
L80400 76293
L80343 76265
L80315 76209
L80315 75984
L80343 75928
L80400 75899
L80512 75899
L80568 75928
L80597 75984
L80597 76040
L80315 76096
" />
<path d="M80850 76237
L80878 76265
L80850 76293
L80822 76265
L80850 76237
L80850 76293
" />
<path d="M80850 75928
L80878 75956
L80850 75984
L80822 75956
L80850 75928
L80850 75984
" />
</g>
<g style="fill:#000000; fill-opacity:0.0; 
stroke:#000000; stroke-width:39.3701; stroke-opacity:1; 
stroke-linecap:round; stroke-linejoin:round;">
</g>
<g style="fill:#000000; fill-opacity:0.0; 
stroke:#000000; stroke-width:59.0551; stroke-opacity:1; 
stroke-linecap:round; stroke-linejoin:round;">
<path d="M69685 76577
L112205 76577
" />
</g>
<g style="fill:#000000; fill-opacity:0.0; 
stroke:#000000; stroke-width:39.3701; stroke-opacity:1; 
stroke-linecap:round; stroke-linejoin:round;">
</g>
<g style="fill:#000000; fill-opacity:0.0; 
stroke:#000000; stroke-width:59.0551; stroke-opacity:1; 
stroke-linecap:round; stroke-linejoin:round;">
<path d="M70220 77395
L70220 76805
" />
<path d="M70557 77395
L70304 77058
" />
<path d="M70557 76805
L70220 77142
" />
<path d="M70810 77395
L70810 77002
" />
<path d="M70810 76805
L70782 76833
L70810 76861
L70838 76833
L70810 76805
L70810 76861
" />
<path d="M71429 77339
L71401 77367
L71316 77395
L71260 77395
L71176 77367
L71120 77311
L71091 77255
L71063 77142
L71063 77058
L71091 76946
L71120 76889
L71176 76833
L71260 76805
L71316 76805
L71401 76833
L71429 76861
" />
<path d="M71935 77395
L71935 77086
L71907 77030
L71851 77002
L71738 77002
L71682 77030
" />
<path d="M71935 77367
L71879 77395
L71738 77395
L71682 77367
L71654 77311
L71654 77255
L71682 77199
L71738 77171
L71879 77171
L71935 77142
" />
<path d="M72469 77395
L72469 76805
" />
<path d="M72469 77367
L72413 77395
L72301 77395
L72244 77367
L72216 77339
L72188 77283
L72188 77114
L72216 77058
L72244 77030
L72301 77002
L72413 77002
L72469 77030
" />
<path d="M73201 77086
L73397 77086
" />
<path d="M73482 77395
L73201 77395
L73201 76805
L73482 76805
" />
<path d="M73735 77339
L73763 77367
L73735 77395
L73707 77367
L73735 77339
L73735 77395
" />
<path d="M74016 77395
L74016 76805
L74157 76805
L74241 76833
L74297 76889
L74325 76946
L74354 77058
L74354 77142
L74325 77255
L74297 77311
L74241 77367
L74157 77395
L74016 77395
" />
<path d="M74607 77339
L74635 77367
L74607 77395
L74579 77367
L74607 77339
L74607 77395
" />
<path d="M74860 77227
L75141 77227
" />
<path d="M74804 77395
L75000 76805
L75197 77395
" />
<path d="M75394 77339
L75422 77367
L75394 77395
L75366 77367
L75394 77339
L75394 77395
" />
<path d="M76575 77395
L76575 76805
" />
<path d="M76631 77171
L76800 77395
" />
<path d="M76800 77002
L76575 77227
" />
<path d="M77053 77395
L77053 77002
" />
<path d="M77053 76805
L77025 76833
L77053 76861
L77081 76833
L77053 76805
L77053 76861
" />
<path d="M77588 77367
L77531 77395
L77419 77395
L77363 77367
L77334 77339
L77306 77283
L77306 77114
L77334 77058
L77363 77030
L77419 77002
L77531 77002
L77588 77030
" />
<path d="M78094 77395
L78094 77086
L78066 77030
L78009 77002
L77897 77002
L77841 77030
" />
<path d="M78094 77367
L78037 77395
L77897 77395
L77841 77367
L77813 77311
L77813 77255
L77841 77199
L77897 77171
L78037 77171
L78094 77142
" />
<path d="M78628 77395
L78628 76805
" />
<path d="M78628 77367
L78572 77395
L78459 77395
L78403 77367
L78375 77339
L78347 77283
L78347 77114
L78375 77058
L78403 77030
L78459 77002
L78572 77002
L78628 77030
" />
<path d="M79612 77002
L79612 77395
" />
<path d="M79472 76777
L79331 77199
L79697 77199
" />
<path d="M79922 77339
L79950 77367
L79922 77395
L79894 77367
L79922 77339
L79922 77395
" />
<path d="M80315 76805
L80372 76805
L80428 76833
L80456 76861
L80484 76917
L80512 77030
L80512 77171
L80484 77283
L80456 77339
L80428 77367
L80372 77395
L80315 77395
L80259 77367
L80231 77339
L80203 77283
L80175 77171
L80175 77030
L80203 76917
L80231 76861
L80259 76833
L80315 76805
" />
<path d="M80765 77339
L80793 77367
L80765 77395
L80737 77367
L80765 77339
L80765 77395
" />
<path d="M81018 76861
L81046 76833
L81103 76805
L81243 76805
L81300 76833
L81328 76861
L81356 76917
L81356 76974
L81328 77058
L80990 77395
L81356 77395
" />
<path d="M81609 77171
L82059 77171
" />
<path d="M82312 77367
L82368 77395
L82481 77395
L82537 77367
L82565 77311
L82565 77283
L82537 77227
L82481 77199
L82396 77199
L82340 77171
L82312 77114
L82312 77086
L82340 77030
L82396 77002
L82481 77002
L82537 77030
" />
<path d="M82734 77002
L82959 77002
" />
<path d="M82818 76805
L82818 77311
L82846 77367
L82903 77395
L82959 77395
" />
<path d="M83409 77395
L83409 77086
L83381 77030
L83324 77002
L83212 77002
L83156 77030
" />
<path d="M83409 77367
L83352 77395
L83212 77395
L83156 77367
L83127 77311
L83127 77255
L83156 77199
L83212 77171
L83352 77171
L83409 77142
" />
<path d="M83690 77395
L83690 76805
" />
<path d="M83690 77030
L83746 77002
L83859 77002
L83915 77030
L83943 77058
L83971 77114
L83971 77283
L83943 77339
L83915 77367
L83859 77395
L83746 77395
L83690 77367
" />
<path d="M84309 77395
L84252 77367
L84224 77311
L84224 76805
" />
<path d="M84759 77367
L84702 77395
L84590 77395
L84534 77367
L84505 77311
L84505 77086
L84534 77030
L84590 77002
L84702 77002
L84759 77030
L84787 77086
L84787 77142
L84505 77199
" />
</g>
<g style="fill:#000000; fill-opacity:0.0; 
stroke:#000000; stroke-width:39.3701; stroke-opacity:1; 
stroke-linecap:round; stroke-linejoin:round;">
</g>
<g style="fill:#000000; fill-opacity:0.0; 
stroke:#000000; stroke-width:59.0551; stroke-opacity:1; 
stroke-linecap:round; stroke-linejoin:round;">
<path d="M69685 75396
L112205 75396
" />
</g>
<g style="fill:#000000; fill-opacity:0.0; 
stroke:#000000; stroke-width:39.3701; stroke-opacity:1; 
stroke-linecap:round; stroke-linejoin:round;">
</g>
<g style="fill:#000000; fill-opacity:0.0; 
stroke:#000000; stroke-width:118.11; stroke-opacity:1; 
stroke-linecap:round; stroke-linejoin:round;">
<path d="M104022 76293
L103825 76012
" />
<path d="M103684 76293
L103684 75703
L103909 75703
L103965 75731
L103994 75759
L104022 75815
L104022 75899
L103994 75956
L103965 75984
L103909 76012
L103684 76012
" />
<path d="M104500 76265
L104444 76293
L104331 76293
L104275 76265
L104247 76209
L104247 75984
L104275 75928
L104331 75899
L104444 75899
L104500 75928
L104528 75984
L104528 76040
L104247 76096
" />
<path d="M104725 75899
L104865 76293
L105006 75899
" />
<path d="M105231 76237
L105259 76265
L105231 76293
L105203 76265
L105231 76237
L105231 76293
" />
<path d="M105231 75928
L105259 75956
L105231 75984
L105203 75956
L105231 75928
L105231 75984
" />
</g>
<g style="fill:#000000; fill-opacity:0.0; 
stroke:#000000; stroke-width:39.3701; stroke-opacity:1; 
stroke-linecap:round; stroke-linejoin:round;">
</g>
<g style="fill:#000000; fill-opacity:0.0; 
stroke:#000000; stroke-width:59.0551; stroke-opacity:1; 
stroke-linecap:round; stroke-linejoin:round;">
<path d="M70192 76265
L70276 76293
L70417 76293
L70473 76265
L70501 76237
L70529 76181
L70529 76124
L70501 76068
L70473 76040
L70417 76012
L70304 75984
L70248 75956
L70220 75928
L70192 75871
L70192 75815
L70220 75759
L70248 75731
L70304 75703
L70445 75703
L70529 75731
" />
<path d="M70782 76293
L70782 75899
" />
<path d="M70782 75703
L70754 75731
L70782 75759
L70810 75731
L70782 75703
L70782 75759
" />
<path d="M71007 75899
L71316 75899
L71007 76293
L71316 76293
" />
<path d="M71766 76265
L71710 76293
L71598 76293
L71541 76265
L71513 76209
L71513 75984
L71541 75928
L71598 75899
L71710 75899
L71766 75928
L71795 75984
L71795 76040
L71513 76096
" />
<path d="M72048 76237
L72076 76265
L72048 76293
L72019 76265
L72048 76237
L72048 76293
" />
<path d="M72048 75928
L72076 75956
L72048 75984
L72019 75956
L72048 75928
L72048 75984
" />
<path d="M72751 76124
L73032 76124
" />
<path d="M72694 76293
L72891 75703
L73088 76293
" />
<path d="M73538 75899
L73538 76293
" />
<path d="M73397 75674
L73257 76096
L73622 76096
" />
</g>
<g style="fill:#000000; fill-opacity:0.0; 
stroke:#000000; stroke-width:39.3701; stroke-opacity:1; 
stroke-linecap:round; stroke-linejoin:round;">
</g>
<g style="fill:#000000; fill-opacity:0.0; 
stroke:#000000; stroke-width:59.0551; stroke-opacity:1; 
stroke-linecap:round; stroke-linejoin:round;">
<path d="M103684 77395
L103684 76805
" />
<path d="M104219 77395
L104219 76805
" />
<path d="M104219 77367
L104162 77395
L104050 77395
L103994 77367
L103965 77339
L103937 77283
L103937 77114
L103965 77058
L103994 77030
L104050 77002
L104162 77002
L104219 77030
" />
<path d="M104500 77339
L104528 77367
L104500 77395
L104472 77367
L104500 77339
L104500 77395
" />
<path d="M104500 77030
L104528 77058
L104500 77086
L104472 77058
L104500 77030
L104500 77086
" />
<path d="M105540 77395
L105203 77395
" />
<path d="M105372 77395
L105372 76805
L105315 76889
L105259 76946
L105203 76974
" />
<path d="M106215 76777
L105709 77536
" />
<path d="M106721 77395
L106384 77395
" />
<path d="M106553 77395
L106553 76805
L106496 76889
L106440 76946
L106384 76974
" />
</g>
<g style="fill:#000000; fill-opacity:0.0; 
stroke:#000000; stroke-width:39.3701; stroke-opacity:1; 
stroke-linecap:round; stroke-linejoin:round;">
</g>
<g style="fill:#000000; fill-opacity:0.0; 
stroke:#000000; stroke-width:59.0551; stroke-opacity:1; 
stroke-linecap:round; stroke-linejoin:round;">
<path d="M69685 73821
L112205 73821
" />
</g>
<g style="fill:#000000; fill-opacity:0.0; 
stroke:#000000; stroke-width:39.3701; stroke-opacity:1; 
stroke-linecap:round; stroke-linejoin:round;">
</g>
<g style="fill:#000000; fill-opacity:0.0; 
stroke:#000000; stroke-width:157.48; stroke-opacity:1; 
stroke-linecap:round; stroke-linejoin:round;">
<path d="M70257 74099
L70707 74099
" />
<path d="M70384 74886
L70482 74099
" />
<path d="M70871 74886
L70937 74361
" />
<path d="M70970 74099
L70927 74136
L70960 74174
L71002 74136
L70970 74099
L70960 74174
" />
<path d="M71199 74361
L71499 74361
" />
<path d="M71345 74099
L71260 74774
L71288 74849
L71359 74886
L71434 74886
" />
<path d="M71809 74886
L71738 74849
L71710 74774
L71795 74099
" />
<path d="M72413 74849
L72334 74886
L72184 74886
L72113 74849
L72085 74774
L72123 74474
L72169 74399
L72249 74361
L72399 74361
L72469 74399
L72498 74474
L72488 74549
L72104 74624
" />
<path d="M72793 74811
L72826 74849
L72783 74886
L72751 74849
L72793 74811
L72783 74886
" />
<path d="M72844 74399
L72877 74436
L72835 74474
L72802 74436
L72844 74399
L72835 74474
" />
</g>
<g style="fill:#000000; fill-opacity:0.0; 
stroke:#000000; stroke-width:39.3701; stroke-opacity:1; 
stroke-linecap:round; stroke-linejoin:round;">
</g>
<g style="fill:#000000; fill-opacity:0.0; 
stroke:#000000; stroke-width:59.0551; stroke-opacity:1; 
stroke-linecap:round; stroke-linejoin:round;">
<path d="M70417 73070
L70220 73070
" />
<path d="M70220 73380
L70220 72789
L70501 72789
" />
<path d="M70726 73380
L70726 72986
" />
<path d="M70726 72789
L70698 72817
L70726 72845
L70754 72817
L70726 72789
L70726 72845
" />
<path d="M71091 73380
L71035 73352
L71007 73295
L71007 72789
" />
<path d="M71541 73352
L71485 73380
L71373 73380
L71316 73352
L71288 73295
L71288 73070
L71316 73014
L71373 72986
L71485 72986
L71541 73014
L71570 73070
L71570 73127
L71288 73183
" />
<path d="M71823 73323
L71851 73352
L71823 73380
L71795 73352
L71823 73323
L71823 73380
" />
<path d="M71823 73014
L71851 73042
L71823 73070
L71795 73042
L71823 73014
L71823 73070
" />
<path d="M72638 73380
L72582 73352
L72554 73295
L72554 72789
" />
<path d="M73116 73380
L73116 73070
L73088 73014
L73032 72986
L72919 72986
L72863 73014
" />
<path d="M73116 73352
L73060 73380
L72919 73380
L72863 73352
L72835 73295
L72835 73239
L72863 73183
L72919 73155
L73060 73155
L73116 73127
" />
<path d="M73397 73380
L73397 72986
" />
<path d="M73397 73042
L73426 73014
L73482 72986
L73566 72986
L73622 73014
L73651 73070
L73651 73380
" />
<path d="M73651 73070
L73679 73014
L73735 72986
L73819 72986
L73876 73014
L73904 73070
L73904 73380
" />
<path d="M74185 72986
L74185 73577
" />
<path d="M74185 73014
L74241 72986
L74354 72986
L74410 73014
L74438 73042
L74466 73099
L74466 73267
L74438 73323
L74410 73352
L74354 73380
L74241 73380
L74185 73352
" />
<path d="M74691 73352
L74747 73380
L74860 73380
L74916 73352
L74944 73295
L74944 73267
L74916 73211
L74860 73183
L74775 73183
L74719 73155
L74691 73099
L74691 73070
L74719 73014
L74775 72986
L74860 72986
L74916 73014
" />
<path d="M75197 73155
L75647 73155
" />
<path d="M76238 73380
L75900 73380
" />
<path d="M76069 73380
L76069 72789
L76013 72874
L75956 72930
L75900 72958
" />
<path d="M76744 72789
L76631 72789
L76575 72817
L76547 72845
L76491 72930
L76463 73042
L76463 73267
L76491 73323
L76519 73352
L76575 73380
L76688 73380
L76744 73352
L76772 73323
L76800 73267
L76800 73127
L76772 73070
L76744 73042
L76688 73014
L76575 73014
L76519 73042
L76491 73070
L76463 73127
" />
<path d="M77053 73323
L77081 73352
L77053 73380
L77025 73352
L77053 73323
L77053 73380
" />
<path d="M77334 73380
L77334 72789
" />
<path d="M77391 73155
L77559 73380
" />
<path d="M77559 72986
L77334 73211
" />
<path d="M77813 73380
L77813 72986
" />
<path d="M77813 72789
L77784 72817
L77813 72845
L77841 72817
L77813 72789
L77813 72845
" />
<path d="M78347 73352
L78291 73380
L78178 73380
L78122 73352
L78094 73323
L78066 73267
L78066 73099
L78094 73042
L78122 73014
L78178 72986
L78291 72986
L78347 73014
" />
<path d="M78853 73380
L78853 73070
L78825 73014
L78769 72986
L78656 72986
L78600 73014
" />
<path d="M78853 73352
L78797 73380
L78656 73380
L78600 73352
L78572 73295
L78572 73239
L78600 73183
L78656 73155
L78797 73155
L78853 73127
" />
<path d="M79387 73380
L79387 72789
" />
<path d="M79387 73352
L79331 73380
L79219 73380
L79162 73352
L79134 73323
L79106 73267
L79106 73099
L79134 73042
L79162 73014
L79219 72986
L79331 72986
L79387 73014
" />
<path d="M79528 73436
L79978 73436
" />
<path d="M80118 72986
L80118 73577
" />
<path d="M80118 73014
L80175 72986
L80287 72986
L80343 73014
L80372 73042
L80400 73099
L80400 73267
L80372 73323
L80343 73352
L80287 73380
L80175 73380
L80118 73352
" />
<path d="M80906 73352
L80850 73380
L80737 73380
L80681 73352
L80653 73323
L80625 73267
L80625 73099
L80653 73042
L80681 73014
L80737 72986
L80850 72986
L80906 73014
" />
<path d="M81159 73380
L81159 72789
" />
<path d="M81159 73014
L81215 72986
L81328 72986
L81384 73014
L81412 73042
L81440 73099
L81440 73267
L81412 73323
L81384 73352
L81328 73380
L81215 73380
L81159 73352
" />
</g>
<g style="fill:#000000; fill-opacity:0.0; 
stroke:#000000; stroke-width:39.3701; stroke-opacity:1; 
stroke-linecap:round; stroke-linejoin:round;">
</g>
<g style="fill:#000000; fill-opacity:0.0; 
stroke:#000000; stroke-width:59.0551; stroke-opacity:1; 
stroke-linecap:round; stroke-linejoin:round;">
<path d="M69685 71459
L112205 71459
" />
</g>
<g style="fill:#000000; fill-opacity:0.0; 
stroke:#000000; stroke-width:39.3701; stroke-opacity:1; 
stroke-linecap:round; stroke-linejoin:round;">
</g>
<g style="fill:#000000; fill-opacity:0.0; 
stroke:#000000; stroke-width:59.0551; stroke-opacity:1; 
stroke-linecap:round; stroke-linejoin:round;">
<path d="M70192 72289
L70276 72317
L70417 72317
L70473 72289
L70501 72260
L70529 72204
L70529 72148
L70501 72092
L70473 72064
L70417 72036
L70304 72007
L70248 71979
L70220 71951
L70192 71895
L70192 71839
L70220 71782
L70248 71754
L70304 71726
L70445 71726
L70529 71754
" />
<path d="M70782 72317
L70782 71726
" />
<path d="M71035 72317
L71035 72007
L71007 71951
L70951 71923
L70867 71923
L70810 71951
L70782 71979
" />
<path d="M71541 72289
L71485 72317
L71373 72317
L71316 72289
L71288 72232
L71288 72007
L71316 71951
L71373 71923
L71485 71923
L71541 71951
L71570 72007
L71570 72064
L71288 72120
" />
<path d="M72048 72289
L71991 72317
L71879 72317
L71823 72289
L71795 72232
L71795 72007
L71823 71951
L71879 71923
L71991 71923
L72048 71951
L72076 72007
L72076 72064
L71795 72120
" />
<path d="M72244 71923
L72469 71923
" />
<path d="M72329 71726
L72329 72232
L72357 72289
L72413 72317
L72469 72317
" />
<path d="M72666 72260
L72694 72289
L72666 72317
L72638 72289
L72666 72260
L72666 72317
" />
<path d="M72666 71951
L72694 71979
L72666 72007
L72638 71979
L72666 71951
L72666 72007
" />
</g>
<g style="fill:#000000; fill-opacity:0.0; 
stroke:#000000; stroke-width:39.3701; stroke-opacity:1; 
stroke-linecap:round; stroke-linejoin:round;">
</g>
<g style="fill:#000000; fill-opacity:0.0; 
stroke:#000000; stroke-width:59.0551; stroke-opacity:1; 
stroke-linecap:round; stroke-linejoin:round;">
<path d="M77559 75396
L77559 76577
" />
</g>
<g style="fill:#000000; fill-opacity:0.0; 
stroke:#000000; stroke-width:39.3701; stroke-opacity:1; 
stroke-linecap:round; stroke-linejoin:round;">
</g>
<g style="fill:#000000; fill-opacity:0.0; 
stroke:#000000; stroke-width:59.0551; stroke-opacity:1; 
stroke-linecap:round; stroke-linejoin:round;">
<path d="M102756 75396
L102756 77955
" />
</g>
<g style="fill:#000000; fill-opacity:0.0; 
stroke:#000000; stroke-width:0; stroke-opacity:1; 
stroke-linecap:round; stroke-linejoin:round;">
</g>
<g style="fill:#000000; fill-opacity:1.0; 
stroke:#000000; stroke-width:0; stroke-opacity:1; 
stroke-linecap:round; stroke-linejoin:round;">
<polyline style="fill-rule:evenodd;"
points="18840,30840
18160,30840
18160,30160
18840,30160
18840,30840
" /> 
</g>
<g style="fill:#000000; fill-opacity:1.0; 
stroke:#000000; stroke-width:680; stroke-opacity:1; 
stroke-linecap:round; stroke-linejoin:round;">
</g>
<g style="fill:#000000; fill-opacity:0.0; 
stroke:#000000; stroke-width:680; stroke-opacity:1; 
stroke-linecap:round; stroke-linejoin:round;">
<path d="M18500 29500
L18500 29500
" />
<path d="M19500 30500
L19500 30500
" />
<path d="M19500 29500
L19500 29500
" />
<path d="M20500 30500
L20500 30500
" />
<path d="M20500 29500
L20500 29500
" />
<path d="M21500 30500
L21500 30500
" />
<path d="M21500 29500
L21500 29500
" />
<path d="M22500 30500
L22500 30500
" />
<path d="M22500 29500
L22500 29500
" />
</g>
<g style="fill:#000000; fill-opacity:0.0; 
stroke:#000000; stroke-width:0; stroke-opacity:1; 
stroke-linecap:round; stroke-linejoin:round;">
</g>
<g style="fill:#000000; fill-opacity:1.0; 
stroke:#000000; stroke-width:0; stroke-opacity:1; 
stroke-linecap:round; stroke-linejoin:round;">
<polyline style="fill-rule:evenodd;"
points="15393,34625
15393,35374
14606,35374
14606,34625
15393,34625
" /> 
<circle cx="15000" cy="34000" r="374.016" /> 
</g>
<g style="fill:#000000; fill-opacity:1.0; 
stroke:#000000; stroke-width:39.3701; stroke-opacity:1; 
stroke-linecap:round; stroke-linejoin:round;">
</g>
<g style="fill:#000000; fill-opacity:1.0; 
stroke:#000000; stroke-width:0; stroke-opacity:1; 
stroke-linecap:round; stroke-linejoin:round;">
<polyline style="fill-rule:evenodd;"
points="20393,34625
20393,35374
19606,35374
19606,34625
20393,34625
" /> 
<circle cx="20000" cy="34000" r="374.016" /> 
</g>
<g style="fill:#000000; fill-opacity:1.0; 
stroke:#000000; stroke-width:39.3701; stroke-opacity:1; 
stroke-linecap:round; stroke-linejoin:round;">
</g>
<g style="fill:#000000; fill-opacity:1.0; 
stroke:#000000; stroke-width:0; stroke-opacity:1; 
stroke-linecap:round; stroke-linejoin:round;">
<polyline style="fill-rule:evenodd;"
points="25393,34625
25393,35374
24606,35374
24606,34625
25393,34625
" /> 
<circle cx="25000" cy="34000" r="374.016" /> 
</g>
<g style="fill:#000000; fill-opacity:1.0; 
stroke:#000000; stroke-width:39.3701; stroke-opacity:1; 
stroke-linecap:round; stroke-linejoin:round;">
</g>
<g style="fill:#000000; fill-opacity:1.0; 
stroke:#000000; stroke-width:0; stroke-opacity:1; 
stroke-linecap:round; stroke-linejoin:round;">
<polyline style="fill-rule:evenodd;"
points="30393,34625
30393,35374
29606,35374
29606,34625
30393,34625
" /> 
<circle cx="30000" cy="34000" r="374.016" /> 
</g>
<g style="fill:#000000; fill-opacity:1.0; 
stroke:#000000; stroke-width:39.3701; stroke-opacity:1; 
stroke-linecap:round; stroke-linejoin:round;">
</g>
<g style="fill:#000000; fill-opacity:1.0; 
stroke:#000000; stroke-width:0; stroke-opacity:1; 
stroke-linecap:round; stroke-linejoin:round;">
<polyline style="fill-rule:evenodd;"
points="35393,34625
35393,35374
34606,35374
34606,34625
35393,34625
" /> 
<circle cx="35000" cy="34000" r="374.016" /> 
</g>
<g style="fill:#000000; fill-opacity:1.0; 
stroke:#000000; stroke-width:39.3701; stroke-opacity:1; 
stroke-linecap:round; stroke-linejoin:round;">
</g>
<g style="fill:#000000; fill-opacity:1.0; 
stroke:#000000; stroke-width:0; stroke-opacity:1; 
stroke-linecap:round; stroke-linejoin:round;">
<polyline style="fill-rule:evenodd;"
points="40393,34625
40393,35374
39606,35374
39606,34625
40393,34625
" /> 
<circle cx="40000" cy="34000" r="374.016" /> 
</g>
<g style="fill:#000000; fill-opacity:1.0; 
stroke:#000000; stroke-width:39.3701; stroke-opacity:1; 
stroke-linecap:round; stroke-linejoin:round;">
</g>
<g style="fill:#000000; fill-opacity:1.0; 
stroke:#000000; stroke-width:0; stroke-opacity:1; 
stroke-linecap:round; stroke-linejoin:round;">
<polyline style="fill-rule:evenodd;"
points="45393,34625
45393,35374
44606,35374
44606,34625
45393,34625
" /> 
<circle cx="45000" cy="34000" r="374.016" /> 
</g>
<g style="fill:#000000; fill-opacity:1.0; 
stroke:#000000; stroke-width:39.3701; stroke-opacity:1; 
stroke-linecap:round; stroke-linejoin:round;">
</g>
<g style="fill:#000000; fill-opacity:1.0; 
stroke:#000000; stroke-width:0; stroke-opacity:1; 
stroke-linecap:round; stroke-linejoin:round;">
<polyline style="fill-rule:evenodd;"
points="50393,34625
50393,35374
49606,35374
49606,34625
50393,34625
" /> 
<circle cx="50000" cy="34000" r="374.016" /> 
</g>
<g style="fill:#000000; fill-opacity:1.0; 
stroke:#000000; stroke-width:39.3701; stroke-opacity:1; 
stroke-linecap:round; stroke-linejoin:round;">
</g>
<g style="fill:#000000; fill-opacity:1.0; 
stroke:#000000; stroke-width:0; stroke-opacity:1; 
stroke-linecap:round; stroke-linejoin:round;">
<polyline style="fill-rule:evenodd;"
points="55393,34625
55393,35374
54606,35374
54606,34625
55393,34625
" /> 
<circle cx="55000" cy="34000" r="374.016" /> 
</g>
<g style="fill:#000000; fill-opacity:1.0; 
stroke:#000000; stroke-width:39.3701; stroke-opacity:1; 
stroke-linecap:round; stroke-linejoin:round;">
</g>
<g style="fill:#000000; fill-opacity:1.0; 
stroke:#000000; stroke-width:0; stroke-opacity:1; 
stroke-linecap:round; stroke-linejoin:round;">
<polyline style="fill-rule:evenodd;"
points="60393,34625
60393,35374
59606,35374
59606,34625
60393,34625
" /> 
<circle cx="60000" cy="34000" r="374.016" /> 
</g>
<g style="fill:#000000; fill-opacity:1.0; 
stroke:#000000; stroke-width:39.3701; stroke-opacity:1; 
stroke-linecap:round; stroke-linejoin:round;">
</g>
<g style="fill:#000000; fill-opacity:1.0; 
stroke:#000000; stroke-width:0; stroke-opacity:1; 
stroke-linecap:round; stroke-linejoin:round;">
<polyline style="fill-rule:evenodd;"
points="65393,34625
65393,35374
64606,35374
64606,34625
65393,34625
" /> 
<circle cx="65000" cy="34000" r="374.016" /> 
</g>
<g style="fill:#000000; fill-opacity:1.0; 
stroke:#000000; stroke-width:39.3701; stroke-opacity:1; 
stroke-linecap:round; stroke-linejoin:round;">
</g>
<g style="fill:#000000; fill-opacity:1.0; 
stroke:#000000; stroke-width:0; stroke-opacity:1; 
stroke-linecap:round; stroke-linejoin:round;">
<polyline style="fill-rule:evenodd;"
points="70393,34625
70393,35374
69606,35374
69606,34625
70393,34625
" /> 
<circle cx="70000" cy="34000" r="374.016" /> 
</g>
<g style="fill:#000000; fill-opacity:1.0; 
stroke:#000000; stroke-width:39.3701; stroke-opacity:1; 
stroke-linecap:round; stroke-linejoin:round;">
</g>
<g style="fill:#000000; fill-opacity:1.0; 
stroke:#000000; stroke-width:0; stroke-opacity:1; 
stroke-linecap:round; stroke-linejoin:round;">
<polyline style="fill-rule:evenodd;"
points="75393,34625
75393,35374
74606,35374
74606,34625
75393,34625
" /> 
<circle cx="75000" cy="34000" r="374.016" /> 
</g>
<g style="fill:#000000; fill-opacity:1.0; 
stroke:#000000; stroke-width:39.3701; stroke-opacity:1; 
stroke-linecap:round; stroke-linejoin:round;">
</g>
<g style="fill:#000000; fill-opacity:1.0; 
stroke:#000000; stroke-width:0; stroke-opacity:1; 
stroke-linecap:round; stroke-linejoin:round;">
<polyline style="fill-rule:evenodd;"
points="80393,34625
80393,35374
79606,35374
79606,34625
80393,34625
" /> 
<circle cx="80000" cy="34000" r="374.016" /> 
</g>
<g style="fill:#000000; fill-opacity:1.0; 
stroke:#000000; stroke-width:39.3701; stroke-opacity:1; 
stroke-linecap:round; stroke-linejoin:round;">
</g>
<g style="fill:#000000; fill-opacity:1.0; 
stroke:#000000; stroke-width:0; stroke-opacity:1; 
stroke-linecap:round; stroke-linejoin:round;">
<polyline style="fill-rule:evenodd;"
points="85393,34625
85393,35374
84606,35374
84606,34625
85393,34625
" /> 
<circle cx="85000" cy="34000" r="374.016" /> 
</g>
<g style="fill:#000000; fill-opacity:1.0; 
stroke:#000000; stroke-width:39.3701; stroke-opacity:1; 
stroke-linecap:round; stroke-linejoin:round;">
</g>
<g style="fill:#000000; fill-opacity:1.0; 
stroke:#000000; stroke-width:0; stroke-opacity:1; 
stroke-linecap:round; stroke-linejoin:round;">
<polyline style="fill-rule:evenodd;"
points="90393,34625
90393,35374
89606,35374
89606,34625
90393,34625
" /> 
<circle cx="90000" cy="34000" r="374.016" /> 
</g>
<g style="fill:#000000; fill-opacity:1.0; 
stroke:#000000; stroke-width:39.3701; stroke-opacity:1; 
stroke-linecap:round; stroke-linejoin:round;">
</g>
<g style="fill:#000000; fill-opacity:1.0; 
stroke:#000000; stroke-width:0; stroke-opacity:1; 
stroke-linecap:round; stroke-linejoin:round;">
<circle cx="17500" cy="32500" r="984.252" /> 
</g>
<g style="fill:#000000; fill-opacity:1.0; 
stroke:#000000; stroke-width:39.3701; stroke-opacity:1; 
stroke-linecap:round; stroke-linejoin:round;">
</g>
<g style="fill:#000000; fill-opacity:1.0; 
stroke:#000000; stroke-width:0; stroke-opacity:1; 
stroke-linecap:round; stroke-linejoin:round;">
<circle cx="87500" cy="32500" r="984.252" /> 
</g>
<g style="fill:#000000; fill-opacity:1.0; 
stroke:#000000; stroke-width:39.3701; stroke-opacity:1; 
stroke-linecap:round; stroke-linejoin:round;">
</g>
<g style="fill:#000000; fill-opacity:1.0; 
stroke:#000000; stroke-width:0; stroke-opacity:1; 
stroke-linecap:round; stroke-linejoin:round;">
<circle cx="20000" cy="32750" r="314.961" /> 
</g>
<g style="fill:#000000; fill-opacity:1.0; 
stroke:#000000; stroke-width:39.3701; stroke-opacity:1; 
stroke-linecap:round; stroke-linejoin:round;">
</g>
<g style="fill:#000000; fill-opacity:1.0; 
stroke:#000000; stroke-width:0; stroke-opacity:1; 
stroke-linecap:round; stroke-linejoin:round;">
<circle cx="24966.3" cy="32639.8" r="314.961" /> 
</g>
<g style="fill:#000000; fill-opacity:1.0; 
stroke:#000000; stroke-width:39.3701; stroke-opacity:1; 
stroke-linecap:round; stroke-linejoin:round;">
</g>
<g style="fill:#000000; fill-opacity:1.0; 
stroke:#000000; stroke-width:0; stroke-opacity:1; 
stroke-linecap:round; stroke-linejoin:round;">
<circle cx="30000" cy="32364.2" r="314.961" /> 
</g>
<g style="fill:#000000; fill-opacity:1.0; 
stroke:#000000; stroke-width:39.3701; stroke-opacity:1; 
stroke-linecap:round; stroke-linejoin:round;">
</g>
<g style="fill:#000000; fill-opacity:1.0; 
stroke:#000000; stroke-width:0; stroke-opacity:1; 
stroke-linecap:round; stroke-linejoin:round;">
<circle cx="35000" cy="32088.6" r="314.961" /> 
</g>
<g style="fill:#000000; fill-opacity:1.0; 
stroke:#000000; stroke-width:39.3701; stroke-opacity:1; 
stroke-linecap:round; stroke-linejoin:round;">
</g>
<g style="fill:#000000; fill-opacity:1.0; 
stroke:#000000; stroke-width:0; stroke-opacity:1; 
stroke-linecap:round; stroke-linejoin:round;">
<circle cx="40000" cy="31813" r="314.961" /> 
</g>
<g style="fill:#000000; fill-opacity:1.0; 
stroke:#000000; stroke-width:39.3701; stroke-opacity:1; 
stroke-linecap:round; stroke-linejoin:round;">
</g>
<g style="fill:#000000; fill-opacity:1.0; 
stroke:#000000; stroke-width:0; stroke-opacity:1; 
stroke-linecap:round; stroke-linejoin:round;">
<circle cx="45000" cy="31537.4" r="314.961" /> 
</g>
<g style="fill:#000000; fill-opacity:1.0; 
stroke:#000000; stroke-width:39.3701; stroke-opacity:1; 
stroke-linecap:round; stroke-linejoin:round;">
</g>
<g style="fill:#000000; fill-opacity:1.0; 
stroke:#000000; stroke-width:0; stroke-opacity:1; 
stroke-linecap:round; stroke-linejoin:round;">
<circle cx="50000" cy="31261.8" r="314.961" /> 
</g>
<g style="fill:#000000; fill-opacity:1.0; 
stroke:#000000; stroke-width:39.3701; stroke-opacity:1; 
stroke-linecap:round; stroke-linejoin:round;">
</g>
<g style="fill:#000000; fill-opacity:1.0; 
stroke:#000000; stroke-width:157.48; stroke-opacity:1; 
stroke-linecap:round; stroke-linejoin:round;">
</g>
<g style="fill:#000000; fill-opacity:0.0; 
stroke:#000000; stroke-width:157.48; stroke-opacity:1; 
stroke-linecap:round; stroke-linejoin:round;">
<path d="M20000 34000
L20000 32750
" />
<path d="M25000 32673
L24966 32639
" />
<path d="M25000 34000
L25000 32673
" />
<path d="M30000 34000
L30000 32364
" />
<path d="M35000 34000
L35000 32088
" />
<path d="M40000 34000
L40000 31813
" />
<path d="M45000 34000
L45000 31537
" />
<path d="M50000 34000
L50000 31261
" />
</g>
<g style="fill:#FFFFFF; fill-opacity:0.0; 
stroke:#FFFFFF; stroke-width:157.48; stroke-opacity:1; 
stroke-linecap:round; stroke-linejoin:round;">
</g>
<g style="fill:#FFFFFF; fill-opacity:1.0; 
stroke:#FFFFFF; stroke-width:0; stroke-opacity:1; 
stroke-linecap:round; stroke-linejoin:round;">
<circle cx="20000" cy="32750" r="196.85" /> 
</g>
<g style="fill:#FFFFFF; fill-opacity:1.0; 
stroke:#FFFFFF; stroke-width:39.3701; stroke-opacity:1; 
stroke-linecap:round; stroke-linejoin:round;">
</g>
<g style="fill:#FFFFFF; fill-opacity:1.0; 
stroke:#FFFFFF; stroke-width:0; stroke-opacity:1; 
stroke-linecap:round; stroke-linejoin:round;">
<circle cx="24966.3" cy="32639.8" r="196.85" /> 
</g>
<g style="fill:#FFFFFF; fill-opacity:1.0; 
stroke:#FFFFFF; stroke-width:39.3701; stroke-opacity:1; 
stroke-linecap:round; stroke-linejoin:round;">
</g>
<g style="fill:#FFFFFF; fill-opacity:1.0; 
stroke:#FFFFFF; stroke-width:0; stroke-opacity:1; 
stroke-linecap:round; stroke-linejoin:round;">
<circle cx="30000" cy="32364.2" r="196.85" /> 
</g>
<g style="fill:#FFFFFF; fill-opacity:1.0; 
stroke:#FFFFFF; stroke-width:39.3701; stroke-opacity:1; 
stroke-linecap:round; stroke-linejoin:round;">
</g>
<g style="fill:#FFFFFF; fill-opacity:1.0; 
stroke:#FFFFFF; stroke-width:0; stroke-opacity:1; 
stroke-linecap:round; stroke-linejoin:round;">
<circle cx="35000" cy="32088.6" r="196.85" /> 
</g>
<g style="fill:#FFFFFF; fill-opacity:1.0; 
stroke:#FFFFFF; stroke-width:39.3701; stroke-opacity:1; 
stroke-linecap:round; stroke-linejoin:round;">
</g>
<g style="fill:#FFFFFF; fill-opacity:1.0; 
stroke:#FFFFFF; stroke-width:0; stroke-opacity:1; 
stroke-linecap:round; stroke-linejoin:round;">
<circle cx="40000" cy="31813" r="196.85" /> 
</g>
<g style="fill:#FFFFFF; fill-opacity:1.0; 
stroke:#FFFFFF; stroke-width:39.3701; stroke-opacity:1; 
stroke-linecap:round; stroke-linejoin:round;">
</g>
<g style="fill:#FFFFFF; fill-opacity:1.0; 
stroke:#FFFFFF; stroke-width:0; stroke-opacity:1; 
stroke-linecap:round; stroke-linejoin:round;">
<circle cx="45000" cy="31537.4" r="196.85" /> 
</g>
<g style="fill:#FFFFFF; fill-opacity:1.0; 
stroke:#FFFFFF; stroke-width:39.3701; stroke-opacity:1; 
stroke-linecap:round; stroke-linejoin:round;">
</g>
<g style="fill:#FFFFFF; fill-opacity:1.0; 
stroke:#FFFFFF; stroke-width:0; stroke-opacity:1; 
stroke-linecap:round; stroke-linejoin:round;">
<circle cx="50000" cy="31261.8" r="196.85" /> 
</g>
<g style="fill:#FFFFFF; fill-opacity:1.0; 
stroke:#FFFFFF; stroke-width:39.3701; stroke-opacity:1; 
stroke-linecap:round; stroke-linejoin:round;">
</g>
<g style="fill:#FFFFFF; fill-opacity:1.0; 
stroke:#FFFFFF; stroke-width:0; stroke-opacity:1; 
stroke-linecap:round; stroke-linejoin:round;">
<circle cx="18500" cy="30500" r="200" /> 
</g>
<g style="fill:#FFFFFF; fill-opacity:1.0; 
stroke:#FFFFFF; stroke-width:39.3701; stroke-opacity:1; 
stroke-linecap:round; stroke-linejoin:round;">
</g>
<g style="fill:#FFFFFF; fill-opacity:1.0; 
stroke:#FFFFFF; stroke-width:0; stroke-opacity:1; 
stroke-linecap:round; stroke-linejoin:round;">
<circle cx="18500" cy="29500" r="200" /> 
</g>
<g style="fill:#FFFFFF; fill-opacity:1.0; 
stroke:#FFFFFF; stroke-width:39.3701; stroke-opacity:1; 
stroke-linecap:round; stroke-linejoin:round;">
</g>
<g style="fill:#FFFFFF; fill-opacity:1.0; 
stroke:#FFFFFF; stroke-width:0; stroke-opacity:1; 
stroke-linecap:round; stroke-linejoin:round;">
<circle cx="19500" cy="30500" r="200" /> 
</g>
<g style="fill:#FFFFFF; fill-opacity:1.0; 
stroke:#FFFFFF; stroke-width:39.3701; stroke-opacity:1; 
stroke-linecap:round; stroke-linejoin:round;">
</g>
<g style="fill:#FFFFFF; fill-opacity:1.0; 
stroke:#FFFFFF; stroke-width:0; stroke-opacity:1; 
stroke-linecap:round; stroke-linejoin:round;">
<circle cx="19500" cy="29500" r="200" /> 
</g>
<g style="fill:#FFFFFF; fill-opacity:1.0; 
stroke:#FFFFFF; stroke-width:39.3701; stroke-opacity:1; 
stroke-linecap:round; stroke-linejoin:round;">
</g>
<g style="fill:#FFFFFF; fill-opacity:1.0; 
stroke:#FFFFFF; stroke-width:0; stroke-opacity:1; 
stroke-linecap:round; stroke-linejoin:round;">
<circle cx="20500" cy="30500" r="200" /> 
</g>
<g style="fill:#FFFFFF; fill-opacity:1.0; 
stroke:#FFFFFF; stroke-width:39.3701; stroke-opacity:1; 
stroke-linecap:round; stroke-linejoin:round;">
</g>
<g style="fill:#FFFFFF; fill-opacity:1.0; 
stroke:#FFFFFF; stroke-width:0; stroke-opacity:1; 
stroke-linecap:round; stroke-linejoin:round;">
<circle cx="20500" cy="29500" r="200" /> 
</g>
<g style="fill:#FFFFFF; fill-opacity:1.0; 
stroke:#FFFFFF; stroke-width:39.3701; stroke-opacity:1; 
stroke-linecap:round; stroke-linejoin:round;">
</g>
<g style="fill:#FFFFFF; fill-opacity:1.0; 
stroke:#FFFFFF; stroke-width:0; stroke-opacity:1; 
stroke-linecap:round; stroke-linejoin:round;">
<circle cx="21500" cy="30500" r="200" /> 
</g>
<g style="fill:#FFFFFF; fill-opacity:1.0; 
stroke:#FFFFFF; stroke-width:39.3701; stroke-opacity:1; 
stroke-linecap:round; stroke-linejoin:round;">
</g>
<g style="fill:#FFFFFF; fill-opacity:1.0; 
stroke:#FFFFFF; stroke-width:0; stroke-opacity:1; 
stroke-linecap:round; stroke-linejoin:round;">
<circle cx="21500" cy="29500" r="200" /> 
</g>
<g style="fill:#FFFFFF; fill-opacity:1.0; 
stroke:#FFFFFF; stroke-width:39.3701; stroke-opacity:1; 
stroke-linecap:round; stroke-linejoin:round;">
</g>
<g style="fill:#FFFFFF; fill-opacity:1.0; 
stroke:#FFFFFF; stroke-width:0; stroke-opacity:1; 
stroke-linecap:round; stroke-linejoin:round;">
<circle cx="22500" cy="30500" r="200" /> 
</g>
<g style="fill:#FFFFFF; fill-opacity:1.0; 
stroke:#FFFFFF; stroke-width:39.3701; stroke-opacity:1; 
stroke-linecap:round; stroke-linejoin:round;">
</g>
<g style="fill:#FFFFFF; fill-opacity:1.0; 
stroke:#FFFFFF; stroke-width:0; stroke-opacity:1; 
stroke-linecap:round; stroke-linejoin:round;">
<circle cx="22500" cy="29500" r="200" /> 
</g>
<g style="fill:#FFFFFF; fill-opacity:1.0; 
stroke:#FFFFFF; stroke-width:39.3701; stroke-opacity:1; 
stroke-linecap:round; stroke-linejoin:round;">
</g>
<g style="fill:#FFFFFF; fill-opacity:1.0; 
stroke:#FFFFFF; stroke-width:0; stroke-opacity:1; 
stroke-linecap:round; stroke-linejoin:round;">
<circle cx="15000" cy="35000" r="197" /> 
</g>
<g style="fill:#FFFFFF; fill-opacity:1.0; 
stroke:#FFFFFF; stroke-width:39.3701; stroke-opacity:1; 
stroke-linecap:round; stroke-linejoin:round;">
</g>
<g style="fill:#FFFFFF; fill-opacity:1.0; 
stroke:#FFFFFF; stroke-width:0; stroke-opacity:1; 
stroke-linecap:round; stroke-linejoin:round;">
<circle cx="15000" cy="34000" r="197" /> 
</g>
<g style="fill:#FFFFFF; fill-opacity:1.0; 
stroke:#FFFFFF; stroke-width:39.3701; stroke-opacity:1; 
stroke-linecap:round; stroke-linejoin:round;">
</g>
<g style="fill:#FFFFFF; fill-opacity:1.0; 
stroke:#FFFFFF; stroke-width:0; stroke-opacity:1; 
stroke-linecap:round; stroke-linejoin:round;">
<circle cx="20000" cy="35000" r="197" /> 
</g>
<g style="fill:#FFFFFF; fill-opacity:1.0; 
stroke:#FFFFFF; stroke-width:39.3701; stroke-opacity:1; 
stroke-linecap:round; stroke-linejoin:round;">
</g>
<g style="fill:#FFFFFF; fill-opacity:1.0; 
stroke:#FFFFFF; stroke-width:0; stroke-opacity:1; 
stroke-linecap:round; stroke-linejoin:round;">
<circle cx="20000" cy="34000" r="197" /> 
</g>
<g style="fill:#FFFFFF; fill-opacity:1.0; 
stroke:#FFFFFF; stroke-width:39.3701; stroke-opacity:1; 
stroke-linecap:round; stroke-linejoin:round;">
</g>
<g style="fill:#FFFFFF; fill-opacity:1.0; 
stroke:#FFFFFF; stroke-width:0; stroke-opacity:1; 
stroke-linecap:round; stroke-linejoin:round;">
<circle cx="25000" cy="35000" r="197" /> 
</g>
<g style="fill:#FFFFFF; fill-opacity:1.0; 
stroke:#FFFFFF; stroke-width:39.3701; stroke-opacity:1; 
stroke-linecap:round; stroke-linejoin:round;">
</g>
<g style="fill:#FFFFFF; fill-opacity:1.0; 
stroke:#FFFFFF; stroke-width:0; stroke-opacity:1; 
stroke-linecap:round; stroke-linejoin:round;">
<circle cx="25000" cy="34000" r="197" /> 
</g>
<g style="fill:#FFFFFF; fill-opacity:1.0; 
stroke:#FFFFFF; stroke-width:39.3701; stroke-opacity:1; 
stroke-linecap:round; stroke-linejoin:round;">
</g>
<g style="fill:#FFFFFF; fill-opacity:1.0; 
stroke:#FFFFFF; stroke-width:0; stroke-opacity:1; 
stroke-linecap:round; stroke-linejoin:round;">
<circle cx="30000" cy="35000" r="197" /> 
</g>
<g style="fill:#FFFFFF; fill-opacity:1.0; 
stroke:#FFFFFF; stroke-width:39.3701; stroke-opacity:1; 
stroke-linecap:round; stroke-linejoin:round;">
</g>
<g style="fill:#FFFFFF; fill-opacity:1.0; 
stroke:#FFFFFF; stroke-width:0; stroke-opacity:1; 
stroke-linecap:round; stroke-linejoin:round;">
<circle cx="30000" cy="34000" r="197" /> 
</g>
<g style="fill:#FFFFFF; fill-opacity:1.0; 
stroke:#FFFFFF; stroke-width:39.3701; stroke-opacity:1; 
stroke-linecap:round; stroke-linejoin:round;">
</g>
<g style="fill:#FFFFFF; fill-opacity:1.0; 
stroke:#FFFFFF; stroke-width:0; stroke-opacity:1; 
stroke-linecap:round; stroke-linejoin:round;">
<circle cx="35000" cy="35000" r="197" /> 
</g>
<g style="fill:#FFFFFF; fill-opacity:1.0; 
stroke:#FFFFFF; stroke-width:39.3701; stroke-opacity:1; 
stroke-linecap:round; stroke-linejoin:round;">
</g>
<g style="fill:#FFFFFF; fill-opacity:1.0; 
stroke:#FFFFFF; stroke-width:0; stroke-opacity:1; 
stroke-linecap:round; stroke-linejoin:round;">
<circle cx="35000" cy="34000" r="197" /> 
</g>
<g style="fill:#FFFFFF; fill-opacity:1.0; 
stroke:#FFFFFF; stroke-width:39.3701; stroke-opacity:1; 
stroke-linecap:round; stroke-linejoin:round;">
</g>
<g style="fill:#FFFFFF; fill-opacity:1.0; 
stroke:#FFFFFF; stroke-width:0; stroke-opacity:1; 
stroke-linecap:round; stroke-linejoin:round;">
<circle cx="40000" cy="35000" r="197" /> 
</g>
<g style="fill:#FFFFFF; fill-opacity:1.0; 
stroke:#FFFFFF; stroke-width:39.3701; stroke-opacity:1; 
stroke-linecap:round; stroke-linejoin:round;">
</g>
<g style="fill:#FFFFFF; fill-opacity:1.0; 
stroke:#FFFFFF; stroke-width:0; stroke-opacity:1; 
stroke-linecap:round; stroke-linejoin:round;">
<circle cx="40000" cy="34000" r="197" /> 
</g>
<g style="fill:#FFFFFF; fill-opacity:1.0; 
stroke:#FFFFFF; stroke-width:39.3701; stroke-opacity:1; 
stroke-linecap:round; stroke-linejoin:round;">
</g>
<g style="fill:#FFFFFF; fill-opacity:1.0; 
stroke:#FFFFFF; stroke-width:0; stroke-opacity:1; 
stroke-linecap:round; stroke-linejoin:round;">
<circle cx="45000" cy="35000" r="197" /> 
</g>
<g style="fill:#FFFFFF; fill-opacity:1.0; 
stroke:#FFFFFF; stroke-width:39.3701; stroke-opacity:1; 
stroke-linecap:round; stroke-linejoin:round;">
</g>
<g style="fill:#FFFFFF; fill-opacity:1.0; 
stroke:#FFFFFF; stroke-width:0; stroke-opacity:1; 
stroke-linecap:round; stroke-linejoin:round;">
<circle cx="45000" cy="34000" r="197" /> 
</g>
<g style="fill:#FFFFFF; fill-opacity:1.0; 
stroke:#FFFFFF; stroke-width:39.3701; stroke-opacity:1; 
stroke-linecap:round; stroke-linejoin:round;">
</g>
<g style="fill:#FFFFFF; fill-opacity:1.0; 
stroke:#FFFFFF; stroke-width:0; stroke-opacity:1; 
stroke-linecap:round; stroke-linejoin:round;">
<circle cx="50000" cy="35000" r="197" /> 
</g>
<g style="fill:#FFFFFF; fill-opacity:1.0; 
stroke:#FFFFFF; stroke-width:39.3701; stroke-opacity:1; 
stroke-linecap:round; stroke-linejoin:round;">
</g>
<g style="fill:#FFFFFF; fill-opacity:1.0; 
stroke:#FFFFFF; stroke-width:0; stroke-opacity:1; 
stroke-linecap:round; stroke-linejoin:round;">
<circle cx="50000" cy="34000" r="197" /> 
</g>
<g style="fill:#FFFFFF; fill-opacity:1.0; 
stroke:#FFFFFF; stroke-width:39.3701; stroke-opacity:1; 
stroke-linecap:round; stroke-linejoin:round;">
</g>
<g style="fill:#FFFFFF; fill-opacity:1.0; 
stroke:#FFFFFF; stroke-width:0; stroke-opacity:1; 
stroke-linecap:round; stroke-linejoin:round;">
<circle cx="55000" cy="35000" r="197" /> 
</g>
<g style="fill:#FFFFFF; fill-opacity:1.0; 
stroke:#FFFFFF; stroke-width:39.3701; stroke-opacity:1; 
stroke-linecap:round; stroke-linejoin:round;">
</g>
<g style="fill:#FFFFFF; fill-opacity:1.0; 
stroke:#FFFFFF; stroke-width:0; stroke-opacity:1; 
stroke-linecap:round; stroke-linejoin:round;">
<circle cx="55000" cy="34000" r="197" /> 
</g>
<g style="fill:#FFFFFF; fill-opacity:1.0; 
stroke:#FFFFFF; stroke-width:39.3701; stroke-opacity:1; 
stroke-linecap:round; stroke-linejoin:round;">
</g>
<g style="fill:#FFFFFF; fill-opacity:1.0; 
stroke:#FFFFFF; stroke-width:0; stroke-opacity:1; 
stroke-linecap:round; stroke-linejoin:round;">
<circle cx="60000" cy="35000" r="197" /> 
</g>
<g style="fill:#FFFFFF; fill-opacity:1.0; 
stroke:#FFFFFF; stroke-width:39.3701; stroke-opacity:1; 
stroke-linecap:round; stroke-linejoin:round;">
</g>
<g style="fill:#FFFFFF; fill-opacity:1.0; 
stroke:#FFFFFF; stroke-width:0; stroke-opacity:1; 
stroke-linecap:round; stroke-linejoin:round;">
<circle cx="60000" cy="34000" r="197" /> 
</g>
<g style="fill:#FFFFFF; fill-opacity:1.0; 
stroke:#FFFFFF; stroke-width:39.3701; stroke-opacity:1; 
stroke-linecap:round; stroke-linejoin:round;">
</g>
<g style="fill:#FFFFFF; fill-opacity:1.0; 
stroke:#FFFFFF; stroke-width:0; stroke-opacity:1; 
stroke-linecap:round; stroke-linejoin:round;">
<circle cx="65000" cy="35000" r="197" /> 
</g>
<g style="fill:#FFFFFF; fill-opacity:1.0; 
stroke:#FFFFFF; stroke-width:39.3701; stroke-opacity:1; 
stroke-linecap:round; stroke-linejoin:round;">
</g>
<g style="fill:#FFFFFF; fill-opacity:1.0; 
stroke:#FFFFFF; stroke-width:0; stroke-opacity:1; 
stroke-linecap:round; stroke-linejoin:round;">
<circle cx="65000" cy="34000" r="197" /> 
</g>
<g style="fill:#FFFFFF; fill-opacity:1.0; 
stroke:#FFFFFF; stroke-width:39.3701; stroke-opacity:1; 
stroke-linecap:round; stroke-linejoin:round;">
</g>
<g style="fill:#FFFFFF; fill-opacity:1.0; 
stroke:#FFFFFF; stroke-width:0; stroke-opacity:1; 
stroke-linecap:round; stroke-linejoin:round;">
<circle cx="70000" cy="35000" r="197" /> 
</g>
<g style="fill:#FFFFFF; fill-opacity:1.0; 
stroke:#FFFFFF; stroke-width:39.3701; stroke-opacity:1; 
stroke-linecap:round; stroke-linejoin:round;">
</g>
<g style="fill:#FFFFFF; fill-opacity:1.0; 
stroke:#FFFFFF; stroke-width:0; stroke-opacity:1; 
stroke-linecap:round; stroke-linejoin:round;">
<circle cx="70000" cy="34000" r="197" /> 
</g>
<g style="fill:#FFFFFF; fill-opacity:1.0; 
stroke:#FFFFFF; stroke-width:39.3701; stroke-opacity:1; 
stroke-linecap:round; stroke-linejoin:round;">
</g>
<g style="fill:#FFFFFF; fill-opacity:1.0; 
stroke:#FFFFFF; stroke-width:0; stroke-opacity:1; 
stroke-linecap:round; stroke-linejoin:round;">
<circle cx="75000" cy="35000" r="197" /> 
</g>
<g style="fill:#FFFFFF; fill-opacity:1.0; 
stroke:#FFFFFF; stroke-width:39.3701; stroke-opacity:1; 
stroke-linecap:round; stroke-linejoin:round;">
</g>
<g style="fill:#FFFFFF; fill-opacity:1.0; 
stroke:#FFFFFF; stroke-width:0; stroke-opacity:1; 
stroke-linecap:round; stroke-linejoin:round;">
<circle cx="75000" cy="34000" r="197" /> 
</g>
<g style="fill:#FFFFFF; fill-opacity:1.0; 
stroke:#FFFFFF; stroke-width:39.3701; stroke-opacity:1; 
stroke-linecap:round; stroke-linejoin:round;">
</g>
<g style="fill:#FFFFFF; fill-opacity:1.0; 
stroke:#FFFFFF; stroke-width:0; stroke-opacity:1; 
stroke-linecap:round; stroke-linejoin:round;">
<circle cx="80000" cy="35000" r="197" /> 
</g>
<g style="fill:#FFFFFF; fill-opacity:1.0; 
stroke:#FFFFFF; stroke-width:39.3701; stroke-opacity:1; 
stroke-linecap:round; stroke-linejoin:round;">
</g>
<g style="fill:#FFFFFF; fill-opacity:1.0; 
stroke:#FFFFFF; stroke-width:0; stroke-opacity:1; 
stroke-linecap:round; stroke-linejoin:round;">
<circle cx="80000" cy="34000" r="197" /> 
</g>
<g style="fill:#FFFFFF; fill-opacity:1.0; 
stroke:#FFFFFF; stroke-width:39.3701; stroke-opacity:1; 
stroke-linecap:round; stroke-linejoin:round;">
</g>
<g style="fill:#FFFFFF; fill-opacity:1.0; 
stroke:#FFFFFF; stroke-width:0; stroke-opacity:1; 
stroke-linecap:round; stroke-linejoin:round;">
<circle cx="85000" cy="35000" r="197" /> 
</g>
<g style="fill:#FFFFFF; fill-opacity:1.0; 
stroke:#FFFFFF; stroke-width:39.3701; stroke-opacity:1; 
stroke-linecap:round; stroke-linejoin:round;">
</g>
<g style="fill:#FFFFFF; fill-opacity:1.0; 
stroke:#FFFFFF; stroke-width:0; stroke-opacity:1; 
stroke-linecap:round; stroke-linejoin:round;">
<circle cx="85000" cy="34000" r="197" /> 
</g>
<g style="fill:#FFFFFF; fill-opacity:1.0; 
stroke:#FFFFFF; stroke-width:39.3701; stroke-opacity:1; 
stroke-linecap:round; stroke-linejoin:round;">
</g>
<g style="fill:#FFFFFF; fill-opacity:1.0; 
stroke:#FFFFFF; stroke-width:0; stroke-opacity:1; 
stroke-linecap:round; stroke-linejoin:round;">
<circle cx="90000" cy="35000" r="197" /> 
</g>
<g style="fill:#FFFFFF; fill-opacity:1.0; 
stroke:#FFFFFF; stroke-width:39.3701; stroke-opacity:1; 
stroke-linecap:round; stroke-linejoin:round;">
</g>
<g style="fill:#FFFFFF; fill-opacity:1.0; 
stroke:#FFFFFF; stroke-width:0; stroke-opacity:1; 
stroke-linecap:round; stroke-linejoin:round;">
<circle cx="90000" cy="34000" r="197" /> 
</g>
<g style="fill:#FFFFFF; fill-opacity:1.0; 
stroke:#FFFFFF; stroke-width:39.3701; stroke-opacity:1; 
stroke-linecap:round; stroke-linejoin:round;">
</g>
<g style="fill:#FFFFFF; fill-opacity:1.0; 
stroke:#FFFFFF; stroke-width:0; stroke-opacity:1; 
stroke-linecap:round; stroke-linejoin:round;">
<circle cx="17500" cy="32500" r="590.551" /> 
</g>
<g style="fill:#FFFFFF; fill-opacity:1.0; 
stroke:#FFFFFF; stroke-width:39.3701; stroke-opacity:1; 
stroke-linecap:round; stroke-linejoin:round;">
</g>
<g style="fill:#FFFFFF; fill-opacity:1.0; 
stroke:#FFFFFF; stroke-width:0; stroke-opacity:1; 
stroke-linecap:round; stroke-linejoin:round;">
<circle cx="87500" cy="32500" r="590.551" /> 
</g>
<g style="fill:#FFFFFF; fill-opacity:1.0; 
stroke:#FFFFFF; stroke-width:39.3701; stroke-opacity:1; 
stroke-linecap:round; stroke-linejoin:round;">
</g>
<g style="fill:#000000; fill-opacity:1.0; 
stroke:#000000; stroke-width:39.3701; stroke-opacity:1; 
stroke-linecap:round; stroke-linejoin:round;">
</g>
<g style="fill:#000000; fill-opacity:0.0; 
stroke:#000000; stroke-width:39.3701; stroke-opacity:1; 
stroke-linecap:round; stroke-linejoin:round;">
</g>
<g style="fill:#000000; fill-opacity:0.0; 
stroke:#000000; stroke-width:118.11; stroke-opacity:1; 
stroke-linecap:round; stroke-linejoin:round;">
<path d="M12235 33734
L12235 34071
" />
<path d="M12235 33902
L11645 33902
L11729 33959
L11785 34015
L11813 34071
" />
<path d="M12235 33452
L12235 33340
L12207 33284
L12179 33256
L12095 33199
L11982 33171
L11757 33171
L11701 33199
L11673 33227
L11645 33284
L11645 33396
L11673 33452
L11701 33481
L11757 33509
L11898 33509
L11954 33481
L11982 33452
L12010 33396
L12010 33284
L11982 33227
L11954 33199
L11898 33171
" />
<path d="M12179 32918
L12207 32890
L12235 32918
L12207 32946
L12179 32918
L12235 32918
" />
<path d="M11645 32384
L11645 32496
L11673 32553
L11701 32581
L11785 32637
L11898 32665
L12123 32665
L12179 32637
L12207 32609
L12235 32553
L12235 32440
L12207 32384
L12179 32356
L12123 32328
L11982 32328
L11926 32356
L11898 32384
L11870 32440
L11870 32553
L11898 32609
L11926 32637
L11982 32665
" />
<path d="M11898 31990
L11870 32046
L11841 32074
L11785 32103
L11757 32103
L11701 32074
L11673 32046
L11645 31990
L11645 31878
L11673 31821
L11701 31793
L11757 31765
L11785 31765
L11841 31793
L11870 31821
L11898 31878
L11898 31990
L11926 32046
L11954 32074
L12010 32103
L12123 32103
L12179 32074
L12207 32046
L12235 31990
L12235 31878
L12207 31821
L12179 31793
L12123 31765
L12010 31765
L11954 31793
L11926 31821
L11898 31878
" />
<path d="M11645 31231
L11645 31512
L11926 31540
L11898 31512
L11870 31456
L11870 31315
L11898 31259
L11926 31231
L11982 31203
L12123 31203
L12179 31231
L12207 31259
L12235 31315
L12235 31456
L12207 31512
L12179 31540
" />
<path d="M12235 30500
L11841 30500
" />
<path d="M11898 30500
L11870 30472
L11841 30415
L11841 30331
L11870 30275
L11926 30247
L12235 30247
" />
<path d="M11926 30247
L11870 30218
L11841 30162
L11841 30078
L11870 30022
L11926 29993
L12235 29993
" />
<path d="M12235 29712
L11841 29712
" />
<path d="M11898 29712
L11870 29684
L11841 29628
L11841 29544
L11870 29487
L11926 29459
L12235 29459
" />
<path d="M11926 29459
L11870 29431
L11841 29375
L11841 29290
L11870 29234
L11926 29206
L12235 29206
" />
<path d="M12500 35500
L12500 27750
" />
<path d="M17750 35500
L11437 35500
" />
<path d="M17750 27750
L11437 27750
" />
<path d="M12500 27750
L12730 28193
" />
<path d="M12500 27750
L12269 28193
" />
<path d="M12500 35500
L12730 35056
" />
<path d="M12500 35500
L12269 35056
" />
<path d="M50109 39798
L49772 39798
" />
<path d="M49940 39798
L49940 39208
L49884 39292
L49828 39348
L49772 39376
" />
<path d="M50390 39798
L50503 39798
L50559 39770
L50587 39742
L50643 39658
L50672 39545
L50672 39320
L50643 39264
L50615 39236
L50559 39208
L50447 39208
L50390 39236
L50362 39264
L50334 39320
L50334 39461
L50362 39517
L50390 39545
L50447 39573
L50559 39573
L50615 39545
L50643 39517
L50672 39461
" />
<path d="M51009 39461
L50953 39433
L50925 39404
L50897 39348
L50897 39320
L50925 39264
L50953 39236
L51009 39208
L51122 39208
L51178 39236
L51206 39264
L51234 39320
L51234 39348
L51206 39404
L51178 39433
L51122 39461
L51009 39461
L50953 39489
L50925 39517
L50897 39573
L50897 39686
L50925 39742
L50953 39770
L51009 39798
L51122 39798
L51178 39770
L51206 39742
L51234 39686
L51234 39573
L51206 39517
L51178 39489
L51122 39461
" />
<path d="M51487 39742
L51515 39770
L51487 39798
L51459 39770
L51487 39742
L51487 39798
" />
<path d="M52078 39798
L51740 39798
" />
<path d="M51909 39798
L51909 39208
L51853 39292
L51796 39348
L51740 39376
" />
<path d="M52303 39264
L52331 39236
L52387 39208
L52528 39208
L52584 39236
L52612 39264
L52640 39320
L52640 39376
L52612 39461
L52275 39798
L52640 39798
" />
<path d="M53006 39208
L53062 39208
L53118 39236
L53146 39264
L53174 39320
L53203 39433
L53203 39573
L53174 39686
L53146 39742
L53118 39770
L53062 39798
L53006 39798
L52949 39770
L52921 39742
L52893 39686
L52865 39573
L52865 39433
L52893 39320
L52921 39264
L52949 39236
L53006 39208
" />
<path d="M53906 39798
L53906 39404
" />
<path d="M53906 39461
L53934 39433
L53990 39404
L54074 39404
L54131 39433
L54159 39489
L54159 39798
" />
<path d="M54159 39489
L54187 39433
L54243 39404
L54327 39404
L54384 39433
L54412 39489
L54412 39798
" />
<path d="M54693 39798
L54693 39404
" />
<path d="M54693 39461
L54721 39433
L54777 39404
L54862 39404
L54918 39433
L54946 39489
L54946 39798
" />
<path d="M54946 39489
L54974 39433
L55030 39404
L55115 39404
L55171 39433
L55199 39489
L55199 39798
" />
<path d="M13500 39000
L91500 39000
" />
<path d="M13500 35500
L13500 40062
" />
<path d="M91500 35500
L91500 40062
" />
<path d="M91500 39000
L91056 39230
" />
<path d="M91500 39000
L91056 38769
" />
<path d="M13500 39000
L13943 39230
" />
<path d="M13500 39000
L13943 38769
" />
<path d="M50109 38513
L49772 38513
" />
<path d="M49940 38513
L49940 37923
L49884 38007
L49828 38063
L49772 38091
" />
<path d="M50390 38513
L50503 38513
L50559 38485
L50587 38457
L50643 38373
L50672 38260
L50672 38035
L50643 37979
L50615 37951
L50559 37923
L50447 37923
L50390 37951
L50362 37979
L50334 38035
L50334 38176
L50362 38232
L50390 38260
L50447 38288
L50559 38288
L50615 38260
L50643 38232
L50672 38176
" />
<path d="M51037 37923
L51093 37923
L51150 37951
L51178 37979
L51206 38035
L51234 38148
L51234 38288
L51206 38401
L51178 38457
L51150 38485
L51093 38513
L51037 38513
L50981 38485
L50953 38457
L50925 38401
L50897 38288
L50897 38148
L50925 38035
L50953 37979
L50981 37951
L51037 37923
" />
<path d="M51487 38457
L51515 38485
L51487 38513
L51459 38485
L51487 38457
L51487 38513
" />
<path d="M52050 37923
L51768 37923
L51740 38204
L51768 38176
L51825 38148
L51965 38148
L52021 38176
L52050 38204
L52078 38260
L52078 38401
L52050 38457
L52021 38485
L51965 38513
L51825 38513
L51768 38485
L51740 38457
" />
<path d="M52443 37923
L52500 37923
L52556 37951
L52584 37979
L52612 38035
L52640 38148
L52640 38288
L52612 38401
L52584 38457
L52556 38485
L52500 38513
L52443 38513
L52387 38485
L52359 38457
L52331 38401
L52303 38288
L52303 38148
L52331 38035
L52359 37979
L52387 37951
L52443 37923
" />
<path d="M53006 37923
L53062 37923
L53118 37951
L53146 37979
L53174 38035
L53203 38148
L53203 38288
L53174 38401
L53146 38457
L53118 38485
L53062 38513
L53006 38513
L52949 38485
L52921 38457
L52893 38401
L52865 38288
L52865 38148
L52893 38035
L52921 37979
L52949 37951
L53006 37923
" />
<path d="M53906 38513
L53906 38119
" />
<path d="M53906 38176
L53934 38148
L53990 38119
L54074 38119
L54131 38148
L54159 38204
L54159 38513
" />
<path d="M54159 38204
L54187 38148
L54243 38119
L54327 38119
L54384 38148
L54412 38204
L54412 38513
" />
<path d="M54693 38513
L54693 38119
" />
<path d="M54693 38176
L54721 38148
L54777 38119
L54862 38119
L54918 38148
L54946 38204
L54946 38513
" />
<path d="M54946 38204
L54974 38148
L55030 38119
L55115 38119
L55171 38148
L55199 38204
L55199 38513
" />
<path d="M15000 37714
L90000 37714
" />
<path d="M15000 36799
L15000 38777
" />
<path d="M90000 36799
L90000 38777
" />
<path d="M90000 37714
L89556 37945
" />
<path d="M90000 37714
L89556 37484
" />
<path d="M15000 37714
L15443 37945
" />
<path d="M15000 37714
L15443 37484
" />
<path d="M15390 37298
L15053 37298
" />
<path d="M15222 37298
L15222 36708
L15165 36792
L15109 36848
L15053 36876
" />
<path d="M15615 36764
L15643 36736
L15700 36708
L15840 36708
L15897 36736
L15925 36764
L15953 36820
L15953 36876
L15925 36961
L15587 37298
L15953 37298
" />
<path d="M16206 37242
L16234 37270
L16206 37298
L16178 37270
L16206 37242
L16206 37298
" />
<path d="M16431 36708
L16825 36708
L16571 37298
" />
<path d="M17162 36708
L17218 36708
L17275 36736
L17303 36764
L17331 36820
L17359 36933
L17359 37073
L17331 37186
L17303 37242
L17275 37270
L17218 37298
L17162 37298
L17106 37270
L17078 37242
L17050 37186
L17021 37073
L17021 36933
L17050 36820
L17078 36764
L17106 36736
L17162 36708
" />
<path d="M17724 36708
L17781 36708
L17837 36736
L17865 36764
L17893 36820
L17921 36933
L17921 37073
L17893 37186
L17865 37242
L17837 37270
L17781 37298
L17724 37298
L17668 37270
L17640 37242
L17612 37186
L17584 37073
L17584 36933
L17612 36820
L17640 36764
L17668 36736
L17724 36708
" />
<path d="M18624 37298
L18624 36904
" />
<path d="M18624 36961
L18652 36933
L18709 36904
L18793 36904
L18849 36933
L18877 36989
L18877 37298
" />
<path d="M18877 36989
L18906 36933
L18962 36904
L19046 36904
L19102 36933
L19131 36989
L19131 37298
" />
<path d="M19412 37298
L19412 36904
" />
<path d="M19412 36961
L19440 36933
L19496 36904
L19580 36904
L19637 36933
L19665 36989
L19665 37298
" />
<path d="M19665 36989
L19693 36933
L19749 36904
L19834 36904
L19890 36933
L19918 36989
L19918 37298
" />
<path d="M15000 36500
L20000 36500
" />
<path d="M15000 35500
L15000 37562
" />
<path d="M20000 35500
L20000 37562
" />
<path d="M20000 36500
L19556 36730
" />
<path d="M20000 36500
L19556 36269
" />
<path d="M15000 36500
L15443 36730
" />
<path d="M15000 36500
L15443 36269
" />
</g>
<g style="fill:#000000; fill-opacity:0.0; 
stroke:#000000; stroke-width:59.0551; stroke-opacity:1; 
stroke-linecap:round; stroke-linejoin:round;">
<path d="M22600 29900
L22600 30100
" />
<path d="M22400 29900
L22400 30100
" />
<path d="M21600 29900
L21600 30100
" />
<path d="M21400 29900
L21400 30100
" />
<path d="M18400 29900
L18400 30100
" />
<path d="M18600 29900
L18600 30100
" />
<path d="M20600 29900
L20600 30100
" />
<path d="M20400 29900
L20400 30100
" />
<path d="M19600 29900
L19600 30100
" />
<path d="M19400 29900
L19400 30100
" />
<path d="M22600 28900
L22600 29100
" />
<path d="M22400 28900
L22400 29100
" />
<path d="M18400 28900
L18400 29100
" />
<path d="M18600 28900
L18600 29100
" />
<path d="M19400 28900
L19400 29100
" />
<path d="M19600 28900
L19600 29100
" />
<path d="M21600 28900
L21600 29100
" />
<path d="M21400 28900
L21400 29100
" />
<path d="M20600 28900
L20600 29100
" />
<path d="M20400 28900
L20400 29100
" />
<path d="M17889 30500
L17889 30952
" />
<path d="M17889 30952
L18500 30952
" />
<path d="M18450 27900
L18450 25550
" />
<path d="M18450 25550
L18550 25550
" />
<path d="M18550 25550
L18550 27850
" />
<path d="M18550 27850
L18500 27850
" />
<path d="M18500 27850
L18500 25550
" />
<path d="M22000 28900
L22000 27900
" />
<path d="M22000 28900
L23000 28900
" />
<path d="M22400 27900
L22400 25500
" />
<path d="M22400 25500
L22600 25500
" />
<path d="M22600 25500
L22600 27900
" />
<path d="M23000 27900
L22000 27900
" />
<path d="M23000 28900
L23000 27900
" />
<path d="M20000 28900
L20000 27900
" />
<path d="M20000 28900
L21000 28900
" />
<path d="M21000 28900
L21000 27900
" />
<path d="M20400 27900
L20400 25500
" />
<path d="M20400 25500
L20600 25500
" />
<path d="M20600 25500
L20600 27900
" />
<path d="M21000 27900
L20000 27900
" />
<path d="M22000 27900
L21000 27900
" />
<path d="M21600 25500
L21600 27900
" />
<path d="M21400 25500
L21600 25500
" />
<path d="M21400 27900
L21400 25500
" />
<path d="M22000 28900
L22000 27900
" />
<path d="M21000 28900
L22000 28900
" />
<path d="M21000 28900
L21000 27900
" />
<path d="M19000 28900
L19000 27900
" />
<path d="M19000 28900
L20000 28900
" />
<path d="M20000 28900
L20000 27900
" />
<path d="M19400 27900
L19400 25500
" />
<path d="M19400 25500
L19600 25500
" />
<path d="M19600 25500
L19600 27900
" />
<path d="M20000 27900
L19000 27900
" />
<path d="M19000 27900
L18000 27900
" />
<path d="M18600 25500
L18600 27900
" />
<path d="M18400 25500
L18600 25500
" />
<path d="M18400 27900
L18400 25500
" />
<path d="M19000 28900
L19000 27900
" />
<path d="M18000 28900
L19000 28900
" />
<path d="M18000 28900
L18000 27900
" />
<path d="M15600.4 35478.3 A1147.83 1147.83 0.0 1 0 14409.4 35484.3 " />
<path d="M15590 35484
L14409 35484
" />
<circle cx="15000" cy="34500" r="991.313" /> 
<path d="M20600.4 35478.3 A1147.83 1147.83 0.0 1 0 19409.4 35484.3 " />
<path d="M20590 35484
L19409 35484
" />
<circle cx="20000" cy="34500" r="991.313" /> 
<path d="M25600.4 35478.3 A1147.83 1147.83 0.0 1 0 24409.4 35484.3 " />
<path d="M25590 35484
L24409 35484
" />
<circle cx="25000" cy="34500" r="991.313" /> 
<path d="M30600.4 35478.3 A1147.83 1147.83 0.0 1 0 29409.4 35484.3 " />
<path d="M30590 35484
L29409 35484
" />
<circle cx="30000" cy="34500" r="991.313" /> 
<path d="M35600.4 35478.3 A1147.83 1147.83 0.0 1 0 34409.4 35484.3 " />
<path d="M35590 35484
L34409 35484
" />
<circle cx="35000" cy="34500" r="991.313" /> 
<path d="M40600.4 35478.3 A1147.83 1147.83 0.0 1 0 39409.4 35484.3 " />
<path d="M40590 35484
L39409 35484
" />
<circle cx="40000" cy="34500" r="991.313" /> 
<path d="M45600.4 35478.3 A1147.83 1147.83 0.0 1 0 44409.4 35484.3 " />
<path d="M45590 35484
L44409 35484
" />
<circle cx="45000" cy="34500" r="991.313" /> 
<path d="M50600.4 35478.3 A1147.83 1147.83 0.0 1 0 49409.4 35484.3 " />
<path d="M50590 35484
L49409 35484
" />
<circle cx="50000" cy="34500" r="991.313" /> 
<path d="M55600.4 35478.3 A1147.83 1147.83 0.0 1 0 54409.4 35484.3 " />
<path d="M55590 35484
L54409 35484
" />
<circle cx="55000" cy="34500" r="991.313" /> 
<path d="M60600.4 35478.3 A1147.83 1147.83 0.0 1 0 59409.4 35484.3 " />
<path d="M60590 35484
L59409 35484
" />
<circle cx="60000" cy="34500" r="991.313" /> 
<path d="M65600.4 35478.3 A1147.83 1147.83 0.0 1 0 64409.4 35484.3 " />
<path d="M65590 35484
L64409 35484
" />
<circle cx="65000" cy="34500" r="991.313" /> 
<path d="M70600.4 35478.3 A1147.83 1147.83 0.0 1 0 69409.4 35484.3 " />
<path d="M70590 35484
L69409 35484
" />
<circle cx="70000" cy="34500" r="991.313" /> 
<path d="M75600.4 35478.3 A1147.83 1147.83 0.0 1 0 74409.4 35484.3 " />
<path d="M75590 35484
L74409 35484
" />
<circle cx="75000" cy="34500" r="991.313" /> 
<path d="M80600.4 35478.3 A1147.83 1147.83 0.0 1 0 79409.4 35484.3 " />
<path d="M80590 35484
L79409 35484
" />
<circle cx="80000" cy="34500" r="991.313" /> 
<path d="M85600.4 35478.3 A1147.83 1147.83 0.0 1 0 84409.4 35484.3 " />
<path d="M85590 35484
L84409 35484
" />
<circle cx="85000" cy="34500" r="991.313" /> 
<path d="M90600.4 35478.3 A1147.83 1147.83 0.0 1 0 89409.4 35484.3 " />
<path d="M90590 35484
L89409 35484
" />
<circle cx="90000" cy="34500" r="991.313" /> 
<path d="M16670 30790
L16276 30790
L16276 30640
L16295 30603
L16314 30584
L16351 30565
L16407 30565
L16445 30584
L16464 30603
L16482 30640
L16482 30790
" />
<path d="M16670 30190
L16670 30415
" />
<path d="M16670 30303
L16276 30303
L16332 30340
L16370 30378
L16389 30415
" />
<path d="M16778 34690
L16384 34690
L16384 34596
L16403 34540
L16440 34503
L16478 34484
L16553 34465
L16609 34465
L16684 34484
L16721 34503
L16759 34540
L16778 34596
L16778 34690
" />
<path d="M16778 34090
L16778 34315
" />
<path d="M16778 34203
L16384 34203
L16440 34240
L16478 34278
L16496 34315
" />
<path d="M15928 35853
L15534 35853
" />
<path d="M15928 35628
L15703 35796
" />
<path d="M15534 35628
L15759 35853
" />
<path d="M21778 34690
L21384 34690
L21384 34596
L21403 34540
L21440 34503
L21478 34484
L21553 34465
L21609 34465
L21684 34484
L21721 34503
L21759 34540
L21778 34596
L21778 34690
" />
<path d="M21421 34315
L21403 34296
L21384 34259
L21384 34165
L21403 34128
L21421 34109
L21459 34090
L21496 34090
L21553 34109
L21778 34334
L21778 34090
" />
<path d="M20928 35853
L20534 35853
" />
<path d="M20928 35628
L20703 35796
" />
<path d="M20534 35628
L20759 35853
" />
<path d="M26778 34690
L26384 34690
L26384 34596
L26403 34540
L26440 34503
L26478 34484
L26553 34465
L26609 34465
L26684 34484
L26721 34503
L26759 34540
L26778 34596
L26778 34690
" />
<path d="M26384 34334
L26384 34090
L26534 34221
L26534 34165
L26553 34128
L26571 34109
L26609 34090
L26703 34090
L26740 34109
L26759 34128
L26778 34165
L26778 34278
L26759 34315
L26740 34334
" />
<path d="M25928 35853
L25534 35853
" />
<path d="M25928 35628
L25703 35796
" />
<path d="M25534 35628
L25759 35853
" />
<path d="M31778 34690
L31384 34690
L31384 34596
L31403 34540
L31440 34503
L31478 34484
L31553 34465
L31609 34465
L31684 34484
L31721 34503
L31759 34540
L31778 34596
L31778 34690
" />
<path d="M31515 34128
L31778 34128
" />
<path d="M31365 34221
L31646 34315
L31646 34071
" />
<path d="M30928 35853
L30534 35853
" />
<path d="M30928 35628
L30703 35796
" />
<path d="M30534 35628
L30759 35853
" />
<path d="M36778 34690
L36384 34690
L36384 34596
L36403 34540
L36440 34503
L36478 34484
L36553 34465
L36609 34465
L36684 34484
L36721 34503
L36759 34540
L36778 34596
L36778 34690
" />
<path d="M36384 34109
L36384 34296
L36571 34315
L36553 34296
L36534 34259
L36534 34165
L36553 34128
L36571 34109
L36609 34090
L36703 34090
L36740 34109
L36759 34128
L36778 34165
L36778 34259
L36759 34296
L36740 34315
" />
<path d="M35928 35853
L35534 35853
" />
<path d="M35928 35628
L35703 35796
" />
<path d="M35534 35628
L35759 35853
" />
<path d="M41778 34690
L41384 34690
L41384 34596
L41403 34540
L41440 34503
L41478 34484
L41553 34465
L41609 34465
L41684 34484
L41721 34503
L41759 34540
L41778 34596
L41778 34690
" />
<path d="M41384 34128
L41384 34203
L41403 34240
L41421 34259
L41478 34296
L41553 34315
L41703 34315
L41740 34296
L41759 34278
L41778 34240
L41778 34165
L41759 34128
L41740 34109
L41703 34090
L41609 34090
L41571 34109
L41553 34128
L41534 34165
L41534 34240
L41553 34278
L41571 34296
L41609 34315
" />
<path d="M40928 35853
L40534 35853
" />
<path d="M40928 35628
L40703 35796
" />
<path d="M40534 35628
L40759 35853
" />
<path d="M46778 34690
L46384 34690
L46384 34596
L46403 34540
L46440 34503
L46478 34484
L46553 34465
L46609 34465
L46684 34484
L46721 34503
L46759 34540
L46778 34596
L46778 34690
" />
<path d="M46384 34334
L46384 34071
L46778 34240
" />
<path d="M45928 35853
L45534 35853
" />
<path d="M45928 35628
L45703 35796
" />
<path d="M45534 35628
L45759 35853
" />
<path d="M51778 34690
L51384 34690
L51384 34596
L51403 34540
L51440 34503
L51478 34484
L51553 34465
L51609 34465
L51684 34484
L51721 34503
L51759 34540
L51778 34596
L51778 34690
" />
<path d="M51553 34240
L51534 34278
L51515 34296
L51478 34315
L51459 34315
L51421 34296
L51403 34278
L51384 34240
L51384 34165
L51403 34128
L51421 34109
L51459 34090
L51478 34090
L51515 34109
L51534 34128
L51553 34165
L51553 34240
L51571 34278
L51590 34296
L51628 34315
L51703 34315
L51740 34296
L51759 34278
L51778 34240
L51778 34165
L51759 34128
L51740 34109
L51703 34090
L51628 34090
L51590 34109
L51571 34128
L51553 34165
" />
<path d="M50928 35853
L50534 35853
" />
<path d="M50928 35628
L50703 35796
" />
<path d="M50534 35628
L50759 35853
" />
<path d="M56778 34690
L56384 34690
L56384 34596
L56403 34540
L56440 34503
L56478 34484
L56553 34465
L56609 34465
L56684 34484
L56721 34503
L56759 34540
L56778 34596
L56778 34690
" />
<path d="M56778 34278
L56778 34203
L56759 34165
L56740 34146
L56684 34109
L56609 34090
L56459 34090
L56421 34109
L56403 34128
L56384 34165
L56384 34240
L56403 34278
L56421 34296
L56459 34315
L56553 34315
L56590 34296
L56609 34278
L56628 34240
L56628 34165
L56609 34128
L56590 34109
L56553 34090
" />
<path d="M55928 35853
L55534 35853
" />
<path d="M55928 35628
L55703 35796
" />
<path d="M55534 35628
L55759 35853
" />
<path d="M61778 34878
L61384 34878
L61384 34784
L61403 34728
L61440 34690
L61478 34671
L61553 34653
L61609 34653
L61684 34671
L61721 34690
L61759 34728
L61778 34784
L61778 34878
" />
<path d="M61778 34278
L61778 34503
" />
<path d="M61778 34390
L61384 34390
L61440 34428
L61478 34465
L61496 34503
" />
<path d="M61384 34034
L61384 33996
L61403 33959
L61421 33940
L61459 33921
L61534 33903
L61628 33903
L61703 33921
L61740 33940
L61759 33959
L61778 33996
L61778 34034
L61759 34071
L61740 34090
L61703 34109
L61628 34128
L61534 34128
L61459 34109
L61421 34090
L61403 34071
L61384 34034
" />
<path d="M60928 35853
L60534 35853
" />
<path d="M60928 35628
L60703 35796
" />
<path d="M60534 35628
L60759 35853
" />
<path d="M66778 34878
L66384 34878
L66384 34784
L66403 34728
L66440 34690
L66478 34671
L66553 34653
L66609 34653
L66684 34671
L66721 34690
L66759 34728
L66778 34784
L66778 34878
" />
<path d="M66778 34278
L66778 34503
" />
<path d="M66778 34390
L66384 34390
L66440 34428
L66478 34465
L66496 34503
" />
<path d="M66778 33903
L66778 34128
" />
<path d="M66778 34015
L66384 34015
L66440 34053
L66478 34090
L66496 34128
" />
<path d="M65928 35853
L65534 35853
" />
<path d="M65928 35628
L65703 35796
" />
<path d="M65534 35628
L65759 35853
" />
<path d="M71778 34878
L71384 34878
L71384 34784
L71403 34728
L71440 34690
L71478 34671
L71553 34653
L71609 34653
L71684 34671
L71721 34690
L71759 34728
L71778 34784
L71778 34878
" />
<path d="M71778 34278
L71778 34503
" />
<path d="M71778 34390
L71384 34390
L71440 34428
L71478 34465
L71496 34503
" />
<path d="M71421 34128
L71403 34109
L71384 34071
L71384 33978
L71403 33940
L71421 33921
L71459 33903
L71496 33903
L71553 33921
L71778 34146
L71778 33903
" />
<path d="M70928 35853
L70534 35853
" />
<path d="M70928 35628
L70703 35796
" />
<path d="M70534 35628
L70759 35853
" />
<path d="M76778 34878
L76384 34878
L76384 34784
L76403 34728
L76440 34690
L76478 34671
L76553 34653
L76609 34653
L76684 34671
L76721 34690
L76759 34728
L76778 34784
L76778 34878
" />
<path d="M76778 34278
L76778 34503
" />
<path d="M76778 34390
L76384 34390
L76440 34428
L76478 34465
L76496 34503
" />
<path d="M76384 34146
L76384 33903
L76534 34034
L76534 33978
L76553 33940
L76571 33921
L76609 33903
L76703 33903
L76740 33921
L76759 33940
L76778 33978
L76778 34090
L76759 34128
L76740 34146
" />
<path d="M75928 35853
L75534 35853
" />
<path d="M75928 35628
L75703 35796
" />
<path d="M75534 35628
L75759 35853
" />
<path d="M81778 34878
L81384 34878
L81384 34784
L81403 34728
L81440 34690
L81478 34671
L81553 34653
L81609 34653
L81684 34671
L81721 34690
L81759 34728
L81778 34784
L81778 34878
" />
<path d="M81778 34278
L81778 34503
" />
<path d="M81778 34390
L81384 34390
L81440 34428
L81478 34465
L81496 34503
" />
<path d="M81515 33940
L81778 33940
" />
<path d="M81365 34034
L81646 34128
L81646 33884
" />
<path d="M80928 35853
L80534 35853
" />
<path d="M80928 35628
L80703 35796
" />
<path d="M80534 35628
L80759 35853
" />
<path d="M86778 34878
L86384 34878
L86384 34784
L86403 34728
L86440 34690
L86478 34671
L86553 34653
L86609 34653
L86684 34671
L86721 34690
L86759 34728
L86778 34784
L86778 34878
" />
<path d="M86778 34278
L86778 34503
" />
<path d="M86778 34390
L86384 34390
L86440 34428
L86478 34465
L86496 34503
" />
<path d="M86384 33921
L86384 34109
L86571 34128
L86553 34109
L86534 34071
L86534 33978
L86553 33940
L86571 33921
L86609 33903
L86703 33903
L86740 33921
L86759 33940
L86778 33978
L86778 34071
L86759 34109
L86740 34128
" />
<path d="M85928 35853
L85534 35853
" />
<path d="M85928 35628
L85703 35796
" />
<path d="M85534 35628
L85759 35853
" />
<path d="M91778 34878
L91384 34878
L91384 34784
L91403 34728
L91440 34690
L91478 34671
L91553 34653
L91609 34653
L91684 34671
L91721 34690
L91759 34728
L91778 34784
L91778 34878
" />
<path d="M91778 34278
L91778 34503
" />
<path d="M91778 34390
L91384 34390
L91440 34428
L91478 34465
L91496 34503
" />
<path d="M91384 33940
L91384 34015
L91403 34053
L91421 34071
L91478 34109
L91553 34128
L91703 34128
L91740 34109
L91759 34090
L91778 34053
L91778 33978
L91759 33940
L91740 33921
L91703 33903
L91609 33903
L91571 33921
L91553 33940
L91534 33978
L91534 34053
L91553 34090
L91571 34109
L91609 34128
" />
<path d="M90928 35853
L90534 35853
" />
<path d="M90928 35628
L90703 35796
" />
<path d="M90534 35628
L90759 35853
" />
<path d="M16975 33997
L16843 33809
" />
<path d="M16750 33997
L16750 33603
L16900 33603
L16937 33622
L16956 33640
L16975 33678
L16975 33734
L16956 33772
L16937 33790
L16900 33809
L16750 33809
" />
<path d="M17143 33790
L17275 33790
" />
<path d="M17331 33997
L17143 33997
L17143 33603
L17331 33603
" />
<path d="M17631 33790
L17500 33790
" />
<path d="M17500 33997
L17500 33603
L17687 33603
" />
<path d="M17893 33603
L17893 33697
" />
<path d="M17799 33659
L17893 33697
L17987 33659
" />
<path d="M17837 33772
L17893 33697
L17949 33772
" />
<path d="M18193 33603
L18193 33697
" />
<path d="M18099 33659
L18193 33697
L18287 33659
" />
<path d="M18137 33772
L18193 33697
L18249 33772
" />
<path d="M86975 33997
L86843 33809
" />
<path d="M86750 33997
L86750 33603
L86900 33603
L86937 33622
L86956 33640
L86975 33678
L86975 33734
L86956 33772
L86937 33790
L86900 33809
L86750 33809
" />
<path d="M87143 33790
L87275 33790
" />
<path d="M87331 33997
L87143 33997
L87143 33603
L87331 33603
" />
<path d="M87631 33790
L87500 33790
" />
<path d="M87500 33997
L87500 33603
L87687 33603
" />
<path d="M87893 33603
L87893 33697
" />
<path d="M87799 33659
L87893 33697
L87987 33659
" />
<path d="M87837 33772
L87893 33697
L87949 33772
" />
<path d="M88193 33603
L88193 33697
" />
<path d="M88099 33659
L88193 33697
L88287 33659
" />
<path d="M88137 33772
L88193 33697
L88249 33772
" />
<path d="M17420 32084
L17438 32102
L17457 32159
L17457 32196
L17438 32252
L17401 32290
L17363 32309
L17288 32327
L17232 32327
L17157 32309
L17120 32290
L17082 32252
L17063 32196
L17063 32159
L17082 32102
L17101 32084
" />
<path d="M17063 31840
L17063 31765
L17082 31727
L17120 31690
L17195 31671
L17326 31671
L17401 31690
L17438 31727
L17457 31765
L17457 31840
L17438 31877
L17401 31915
L17326 31934
L17195 31934
L17120 31915
L17082 31877
L17063 31840
" />
<path d="M17457 31502
L17063 31502
L17457 31278
L17063 31278
" />
<path d="M17457 31090
L17063 31090
L17457 30865
L17063 30865
" />
<path d="M17495 30771
L17495 30471
" />
<path d="M17063 30303
L17063 30265
L17082 30228
L17101 30209
L17138 30190
L17213 30171
L17307 30171
L17382 30190
L17420 30209
L17438 30228
L17457 30265
L17457 30303
L17438 30340
L17420 30359
L17382 30378
L17307 30396
L17213 30396
L17138 30378
L17101 30359
L17082 30340
L17063 30303
" />
<path d="M17101 30021
L17082 30003
L17063 29965
L17063 29871
L17082 29834
L17101 29815
L17138 29796
L17176 29796
L17232 29815
L17457 30040
L17457 29796
" />
<path d="M17063 29665
L17457 29403
" />
<path d="M17063 29403
L17457 29665
" />
<path d="M17063 29178
L17063 29140
L17082 29103
L17101 29084
L17138 29065
L17213 29047
L17307 29047
L17382 29065
L17420 29084
L17438 29103
L17457 29140
L17457 29178
L17438 29215
L17420 29234
L17382 29253
L17307 29272
L17213 29272
L17138 29253
L17101 29234
L17082 29215
L17063 29178
" />
<path d="M17063 28690
L17063 28878
L17251 28897
L17232 28878
L17213 28840
L17213 28747
L17232 28709
L17251 28690
L17288 28672
L17382 28672
L17420 28690
L17438 28709
L17457 28747
L17457 28840
L17438 28878
L17420 28897
" />
<path d="M13628 34653
L13628 34840
L13234 34840
" />
<path d="M13421 34521
L13421 34390
" />
<path d="M13628 34334
L13628 34521
L13234 34521
L13234 34334
" />
<path d="M13628 34165
L13234 34165
L13234 34071
L13253 34015
L13290 33978
L13328 33959
L13403 33940
L13459 33940
L13534 33959
L13571 33978
L13609 34015
L13628 34071
L13628 34165
" />
<path d="M18628 34653
L18628 34840
L18234 34840
" />
<path d="M18421 34521
L18421 34390
" />
<path d="M18628 34334
L18628 34521
L18234 34521
L18234 34334
" />
<path d="M18628 34165
L18234 34165
L18234 34071
L18253 34015
L18290 33978
L18328 33959
L18403 33940
L18459 33940
L18534 33959
L18571 33978
L18609 34015
L18628 34071
L18628 34165
" />
<path d="M23628 34653
L23628 34840
L23234 34840
" />
<path d="M23421 34521
L23421 34390
" />
<path d="M23628 34334
L23628 34521
L23234 34521
L23234 34334
" />
<path d="M23628 34165
L23234 34165
L23234 34071
L23253 34015
L23290 33978
L23328 33959
L23403 33940
L23459 33940
L23534 33959
L23571 33978
L23609 34015
L23628 34071
L23628 34165
" />
<path d="M28628 34653
L28628 34840
L28234 34840
" />
<path d="M28421 34521
L28421 34390
" />
<path d="M28628 34334
L28628 34521
L28234 34521
L28234 34334
" />
<path d="M28628 34165
L28234 34165
L28234 34071
L28253 34015
L28290 33978
L28328 33959
L28403 33940
L28459 33940
L28534 33959
L28571 33978
L28609 34015
L28628 34071
L28628 34165
" />
<path d="M33628 34653
L33628 34840
L33234 34840
" />
<path d="M33421 34521
L33421 34390
" />
<path d="M33628 34334
L33628 34521
L33234 34521
L33234 34334
" />
<path d="M33628 34165
L33234 34165
L33234 34071
L33253 34015
L33290 33978
L33328 33959
L33403 33940
L33459 33940
L33534 33959
L33571 33978
L33609 34015
L33628 34071
L33628 34165
" />
<path d="M38628 34653
L38628 34840
L38234 34840
" />
<path d="M38421 34521
L38421 34390
" />
<path d="M38628 34334
L38628 34521
L38234 34521
L38234 34334
" />
<path d="M38628 34165
L38234 34165
L38234 34071
L38253 34015
L38290 33978
L38328 33959
L38403 33940
L38459 33940
L38534 33959
L38571 33978
L38609 34015
L38628 34071
L38628 34165
" />
<path d="M43628 34653
L43628 34840
L43234 34840
" />
<path d="M43421 34521
L43421 34390
" />
<path d="M43628 34334
L43628 34521
L43234 34521
L43234 34334
" />
<path d="M43628 34165
L43234 34165
L43234 34071
L43253 34015
L43290 33978
L43328 33959
L43403 33940
L43459 33940
L43534 33959
L43571 33978
L43609 34015
L43628 34071
L43628 34165
" />
<path d="M48628 34653
L48628 34840
L48234 34840
" />
<path d="M48421 34521
L48421 34390
" />
<path d="M48628 34334
L48628 34521
L48234 34521
L48234 34334
" />
<path d="M48628 34165
L48234 34165
L48234 34071
L48253 34015
L48290 33978
L48328 33959
L48403 33940
L48459 33940
L48534 33959
L48571 33978
L48609 34015
L48628 34071
L48628 34165
" />
<path d="M53628 34653
L53628 34840
L53234 34840
" />
<path d="M53421 34521
L53421 34390
" />
<path d="M53628 34334
L53628 34521
L53234 34521
L53234 34334
" />
<path d="M53628 34165
L53234 34165
L53234 34071
L53253 34015
L53290 33978
L53328 33959
L53403 33940
L53459 33940
L53534 33959
L53571 33978
L53609 34015
L53628 34071
L53628 34165
" />
<path d="M58628 34653
L58628 34840
L58234 34840
" />
<path d="M58421 34521
L58421 34390
" />
<path d="M58628 34334
L58628 34521
L58234 34521
L58234 34334
" />
<path d="M58628 34165
L58234 34165
L58234 34071
L58253 34015
L58290 33978
L58328 33959
L58403 33940
L58459 33940
L58534 33959
L58571 33978
L58609 34015
L58628 34071
L58628 34165
" />
<path d="M63628 34653
L63628 34840
L63234 34840
" />
<path d="M63421 34521
L63421 34390
" />
<path d="M63628 34334
L63628 34521
L63234 34521
L63234 34334
" />
<path d="M63628 34165
L63234 34165
L63234 34071
L63253 34015
L63290 33978
L63328 33959
L63403 33940
L63459 33940
L63534 33959
L63571 33978
L63609 34015
L63628 34071
L63628 34165
" />
<path d="M68628 34653
L68628 34840
L68234 34840
" />
<path d="M68421 34521
L68421 34390
" />
<path d="M68628 34334
L68628 34521
L68234 34521
L68234 34334
" />
<path d="M68628 34165
L68234 34165
L68234 34071
L68253 34015
L68290 33978
L68328 33959
L68403 33940
L68459 33940
L68534 33959
L68571 33978
L68609 34015
L68628 34071
L68628 34165
" />
<path d="M73628 34653
L73628 34840
L73234 34840
" />
<path d="M73421 34521
L73421 34390
" />
<path d="M73628 34334
L73628 34521
L73234 34521
L73234 34334
" />
<path d="M73628 34165
L73234 34165
L73234 34071
L73253 34015
L73290 33978
L73328 33959
L73403 33940
L73459 33940
L73534 33959
L73571 33978
L73609 34015
L73628 34071
L73628 34165
" />
<path d="M78628 34653
L78628 34840
L78234 34840
" />
<path d="M78421 34521
L78421 34390
" />
<path d="M78628 34334
L78628 34521
L78234 34521
L78234 34334
" />
<path d="M78628 34165
L78234 34165
L78234 34071
L78253 34015
L78290 33978
L78328 33959
L78403 33940
L78459 33940
L78534 33959
L78571 33978
L78609 34015
L78628 34071
L78628 34165
" />
<path d="M83628 34653
L83628 34840
L83234 34840
" />
<path d="M83421 34521
L83421 34390
" />
<path d="M83628 34334
L83628 34521
L83234 34521
L83234 34334
" />
<path d="M83628 34165
L83234 34165
L83234 34071
L83253 34015
L83290 33978
L83328 33959
L83403 33940
L83459 33940
L83534 33959
L83571 33978
L83609 34015
L83628 34071
L83628 34165
" />
<path d="M88628 34653
L88628 34840
L88234 34840
" />
<path d="M88421 34521
L88421 34390
" />
<path d="M88628 34334
L88628 34521
L88234 34521
L88234 34334
" />
<path d="M88628 34165
L88234 34165
L88234 34071
L88253 34015
L88290 33978
L88328 33959
L88403 33940
L88459 33940
L88534 33959
L88571 33978
L88609 34015
L88628 34071
L88628 34165
" />
<path d="M17181 31300
L17181 30906
L17312 31187
L17443 30906
L17443 31300
" />
<path d="M17593 30906
L17837 30906
L17706 31056
L17762 31056
L17799 31075
L17818 31093
L17837 31131
L17837 31225
L17818 31262
L17799 31281
L17762 31300
L17649 31300
L17612 31281
L17593 31262
" />
<path d="M87181 31300
L87181 30906
L87312 31187
L87443 30906
L87443 31300
" />
<path d="M87593 30906
L87837 30906
L87706 31056
L87762 31056
L87799 31075
L87818 31093
L87837 31131
L87837 31225
L87818 31262
L87799 31281
L87762 31300
L87649 31300
L87612 31281
L87593 31262
" />
</g>
<g style="fill:#000000; fill-opacity:0.0; 
stroke:#000000; stroke-width:39.3701; stroke-opacity:1; 
stroke-linecap:round; stroke-linejoin:round;">
<path d="M91500 33500
L91500 35500
" />
<path d="M89000 31000
L91500 33500
" />
<path d="M86000 31000
L89000 31000
" />
<path d="M85000 32000
L86000 31000
" />
<path d="M16500 30500
L13500 33500
" />
<path d="M16500 29250
L16500 30500
" />
<path d="M18000 27750
L16500 29250
" />
<path d="M23000 27750
L18000 27750
" />
<path d="M25750 30500
L23000 27750
" />
<path d="M65000 30500
L25750 30500
" />
<path d="M66500 32000
L65000 30500
" />
<path d="M85000 32000
L66500 32000
" />
<path d="M13500 33500
L13500 35500
" />
<path d="M13500 35500
L91500 35500
" />
</g> 
</svg>
