G04 #@! TF.FileFunction,Copper,L2,Bot,Signal*
%FSLAX46Y46*%
G04 Gerber Fmt 4.6, Leading zero omitted, Abs format (unit mm)*
G04 Created by KiCad (PCBNEW 4.0.2-stable) date 31/08/2016 08:47:27*
%MOMM*%
G01*
G04 APERTURE LIST*
%ADD10C,0.100000*%
%ADD11R,1.400000X1.400000*%
%ADD12C,1.400000*%
%ADD13R,1.300000X1.300000*%
%ADD14C,1.300000*%
%ADD15R,3.500120X3.500120*%
%ADD16C,1.800000*%
%ADD17R,2.032000X1.727200*%
%ADD18O,2.032000X1.727200*%
%ADD19R,1.727200X1.727200*%
%ADD20O,1.727200X1.727200*%
%ADD21C,1.524000*%
%ADD22C,1.998980*%
%ADD23R,2.032000X2.032000*%
%ADD24C,2.032000*%
%ADD25C,1.600000*%
%ADD26C,0.400000*%
G04 APERTURE END LIST*
D10*
D11*
X107235000Y-120650000D03*
D12*
X102235000Y-120650000D03*
D13*
X106680000Y-113030000D03*
D14*
X104680000Y-113030000D03*
D11*
X108505000Y-92710000D03*
D12*
X103505000Y-92710000D03*
D13*
X108045000Y-85090000D03*
D14*
X106045000Y-85090000D03*
D15*
X100790140Y-76581000D03*
X94790660Y-76581000D03*
X97790400Y-81280000D03*
D16*
X90590000Y-76581000D03*
D17*
X130810000Y-157480000D03*
D18*
X130810000Y-154940000D03*
X130810000Y-152400000D03*
X130810000Y-149860000D03*
D17*
X156210000Y-157480000D03*
D18*
X156210000Y-154940000D03*
X156210000Y-152400000D03*
X156210000Y-149860000D03*
D17*
X138430000Y-157480000D03*
D18*
X138430000Y-154940000D03*
X138430000Y-152400000D03*
X138430000Y-149860000D03*
D17*
X148590000Y-157480000D03*
D18*
X148590000Y-154940000D03*
X148590000Y-152400000D03*
X148590000Y-149860000D03*
D19*
X175895000Y-120650000D03*
D20*
X175895000Y-123190000D03*
X173355000Y-120650000D03*
X173355000Y-123190000D03*
X170815000Y-120650000D03*
X170815000Y-123190000D03*
X168275000Y-120650000D03*
X168275000Y-123190000D03*
X165735000Y-120650000D03*
X165735000Y-123190000D03*
D19*
X177165000Y-92710000D03*
D20*
X177165000Y-95250000D03*
X174625000Y-92710000D03*
X174625000Y-95250000D03*
X172085000Y-92710000D03*
X172085000Y-95250000D03*
X169545000Y-92710000D03*
X169545000Y-95250000D03*
X167005000Y-92710000D03*
X167005000Y-95250000D03*
D21*
X113030000Y-130810000D03*
X110490000Y-130810000D03*
X115570000Y-130810000D03*
X100330000Y-130810000D03*
X97790000Y-130810000D03*
X102870000Y-130810000D03*
X111760000Y-152400000D03*
X109220000Y-152400000D03*
X114300000Y-152400000D03*
X140970000Y-142240000D03*
X138430000Y-142240000D03*
X143510000Y-142240000D03*
X153670000Y-142240000D03*
X151130000Y-142240000D03*
X156210000Y-142240000D03*
D22*
X116840000Y-137160000D03*
X106680000Y-137160000D03*
X120650000Y-120650000D03*
X120650000Y-130810000D03*
X116840000Y-140970000D03*
X106680000Y-140970000D03*
X143510000Y-115570000D03*
X153670000Y-115570000D03*
X116840000Y-144780000D03*
X106680000Y-144780000D03*
X123190000Y-120650000D03*
X123190000Y-130810000D03*
X114935000Y-113030000D03*
X114935000Y-123190000D03*
X116205000Y-85090000D03*
X116205000Y-95250000D03*
D19*
X89535000Y-87630000D03*
D20*
X92075000Y-87630000D03*
X89535000Y-90170000D03*
X92075000Y-90170000D03*
X89535000Y-92710000D03*
X92075000Y-92710000D03*
X89535000Y-95250000D03*
X92075000Y-95250000D03*
X89535000Y-97790000D03*
X92075000Y-97790000D03*
X89535000Y-100330000D03*
X92075000Y-100330000D03*
X89535000Y-102870000D03*
X92075000Y-102870000D03*
X89535000Y-105410000D03*
X92075000Y-105410000D03*
X89535000Y-107950000D03*
X92075000Y-107950000D03*
X89535000Y-110490000D03*
X92075000Y-110490000D03*
X89535000Y-113030000D03*
X92075000Y-113030000D03*
X89535000Y-115570000D03*
X92075000Y-115570000D03*
X89535000Y-118110000D03*
X92075000Y-118110000D03*
X89535000Y-120650000D03*
X92075000Y-120650000D03*
X89535000Y-123190000D03*
X92075000Y-123190000D03*
X89535000Y-125730000D03*
X92075000Y-125730000D03*
X89535000Y-128270000D03*
X92075000Y-128270000D03*
X89535000Y-130810000D03*
X92075000Y-130810000D03*
X89535000Y-133350000D03*
X92075000Y-133350000D03*
X89535000Y-135890000D03*
X92075000Y-135890000D03*
D23*
X127635000Y-127000000D03*
D24*
X130175000Y-127000000D03*
X132715000Y-127000000D03*
X135255000Y-127000000D03*
X137795000Y-127000000D03*
X140335000Y-127000000D03*
X142875000Y-127000000D03*
X145415000Y-127000000D03*
X147955000Y-127000000D03*
X150495000Y-127000000D03*
X153035000Y-127000000D03*
X155575000Y-127000000D03*
X155575000Y-119380000D03*
X153035000Y-119380000D03*
X150495000Y-119380000D03*
X147955000Y-119380000D03*
X145415000Y-119380000D03*
X142875000Y-119380000D03*
X140335000Y-119380000D03*
X137795000Y-119380000D03*
X135255000Y-119380000D03*
X132715000Y-119380000D03*
X130175000Y-119380000D03*
X127635000Y-119380000D03*
D23*
X128905000Y-99060000D03*
D24*
X131445000Y-99060000D03*
X133985000Y-99060000D03*
X136525000Y-99060000D03*
X139065000Y-99060000D03*
X141605000Y-99060000D03*
X144145000Y-99060000D03*
X146685000Y-99060000D03*
X149225000Y-99060000D03*
X151765000Y-99060000D03*
X154305000Y-99060000D03*
X156845000Y-99060000D03*
X156845000Y-91440000D03*
X154305000Y-91440000D03*
X151765000Y-91440000D03*
X149225000Y-91440000D03*
X146685000Y-91440000D03*
X144145000Y-91440000D03*
X141605000Y-91440000D03*
X139065000Y-91440000D03*
X136525000Y-91440000D03*
X133985000Y-91440000D03*
X131445000Y-91440000D03*
X128905000Y-91440000D03*
D25*
X84813514Y-93393816D03*
X86229980Y-90170000D03*
X127281963Y-153388037D03*
X155575000Y-107029937D03*
X155575000Y-113030019D03*
X147955000Y-107829947D03*
X147955000Y-113030000D03*
X137585029Y-114090033D03*
X137795000Y-107950000D03*
X160655000Y-122050020D03*
X160655000Y-125730000D03*
X156845000Y-79670031D03*
X156845000Y-85670093D03*
X149225000Y-85090000D03*
X149225000Y-79889947D03*
X139065000Y-80010000D03*
X138855029Y-86150033D03*
X161925000Y-97659980D03*
X161925000Y-94110020D03*
X97920020Y-115570000D03*
X162560000Y-128270000D03*
X165100000Y-99060000D03*
X160020000Y-88900000D03*
X85613542Y-110490000D03*
X86671379Y-92653287D03*
X127635000Y-106045000D03*
X127635000Y-110490000D03*
D26*
X124460000Y-120650000D02*
X125095000Y-120650000D01*
X125095000Y-120650000D02*
X125730000Y-121285000D01*
X123190000Y-120650000D02*
X124460000Y-120650000D01*
X102235000Y-78230000D02*
X106680000Y-82675000D01*
X100790140Y-76581000D02*
X100790140Y-76785140D01*
X100790140Y-76785140D02*
X102235000Y-78230000D01*
X117475000Y-113030000D02*
X125730000Y-121285000D01*
X125730000Y-121285000D02*
X126834989Y-122389989D01*
X120650000Y-120650000D02*
X125095000Y-120650000D01*
X143510000Y-115570000D02*
X140335000Y-118745000D01*
X140335000Y-118745000D02*
X140335000Y-119380000D01*
X108045000Y-84040000D02*
X106680000Y-82675000D01*
X106680000Y-82675000D02*
X106555000Y-82550000D01*
X108045000Y-85090000D02*
X108045000Y-84040000D01*
X106555000Y-82550000D02*
X103505000Y-82550000D01*
X106775000Y-111980000D02*
X106775000Y-113030000D01*
X103505000Y-82550000D02*
X100965000Y-85090000D01*
X100965000Y-85090000D02*
X100965000Y-106170000D01*
X100965000Y-106170000D02*
X106775000Y-111980000D01*
X108045000Y-85090000D02*
X108045000Y-92250000D01*
X108045000Y-92250000D02*
X108505000Y-92710000D01*
X116205000Y-85090000D02*
X108045000Y-85090000D01*
X116205000Y-85090000D02*
X118745000Y-85090000D01*
X118745000Y-85090000D02*
X128104989Y-94449989D01*
X128104989Y-94449989D02*
X138595011Y-94449989D01*
X138595011Y-94449989D02*
X141605000Y-91440000D01*
X106775000Y-120190000D02*
X107235000Y-120650000D01*
X106775000Y-113030000D02*
X106775000Y-120190000D01*
X114935000Y-113030000D02*
X106775000Y-113030000D01*
X114935000Y-113030000D02*
X117475000Y-113030000D01*
X126834989Y-122389989D02*
X137325011Y-122389989D01*
X137325011Y-122389989D02*
X140335000Y-119380000D01*
X85090000Y-136386384D02*
X85090000Y-122555000D01*
X85090000Y-122555000D02*
X89535000Y-118110000D01*
X106183616Y-157480000D02*
X85090000Y-136386384D01*
X130810000Y-157480000D02*
X106183616Y-157480000D01*
X138430000Y-157480000D02*
X130810000Y-157480000D01*
X148590000Y-157480000D02*
X138430000Y-157480000D01*
X156210000Y-157480000D02*
X148590000Y-157480000D01*
X94790660Y-90629340D02*
X94790660Y-90805000D01*
X94790660Y-78731060D02*
X94790660Y-90805000D01*
X94790660Y-90805000D02*
X94790660Y-103140660D01*
X94790660Y-76581000D02*
X94790660Y-78731060D01*
X103505000Y-92710000D02*
X108585000Y-97790000D01*
X108585000Y-97790000D02*
X127062998Y-97790000D01*
X127062998Y-97790000D02*
X128802987Y-96050011D01*
X128802987Y-96050011D02*
X139534989Y-96050011D01*
X93980000Y-137684238D02*
X91329238Y-137684238D01*
X91329238Y-137684238D02*
X89535000Y-135890000D01*
X100854238Y-125730000D02*
X93980000Y-132604238D01*
X102235000Y-125730000D02*
X100854238Y-125730000D01*
X93980000Y-132604238D02*
X93980000Y-137684238D01*
X99695000Y-123190000D02*
X101600000Y-121285000D01*
X101600000Y-121285000D02*
X102235000Y-120650000D01*
X92075000Y-128270000D02*
X94615000Y-128270000D01*
X94615000Y-128270000D02*
X101600000Y-121285000D01*
X92075000Y-123190000D02*
X99695000Y-123190000D01*
X92075000Y-110490000D02*
X94520000Y-108045000D01*
X94520000Y-108045000D02*
X94520000Y-102870000D01*
X94790660Y-103140660D02*
X95250000Y-103600000D01*
X95250000Y-103600000D02*
X104680000Y-113030000D01*
X92075000Y-102870000D02*
X94520000Y-102870000D01*
X94520000Y-102870000D02*
X95250000Y-103600000D01*
X94790660Y-90629340D02*
X94155660Y-90629340D01*
X94155660Y-90629340D02*
X92075000Y-92710000D01*
X138264989Y-123990011D02*
X124294989Y-123990011D01*
X124294989Y-123990011D02*
X122555000Y-125730000D01*
X102235000Y-125730000D02*
X102235000Y-120650000D01*
X122555000Y-125730000D02*
X102235000Y-125730000D01*
X156210000Y-157480000D02*
X156362400Y-157480000D01*
X106045000Y-85090000D02*
X106045000Y-90170000D01*
X106045000Y-90170000D02*
X103505000Y-92710000D01*
X136525000Y-99060000D02*
X139534989Y-96050011D01*
X139534989Y-96050011D02*
X146215011Y-96050011D01*
X146215011Y-96050011D02*
X149225000Y-99060000D01*
X104775000Y-118110000D02*
X102235000Y-120650000D01*
X104775000Y-113030000D02*
X104775000Y-118110000D01*
X135255000Y-127000000D02*
X138264989Y-123990011D01*
X138264989Y-123990011D02*
X144945011Y-123990011D01*
X144945011Y-123990011D02*
X147955000Y-127000000D01*
X84813514Y-89514462D02*
X84813514Y-92262446D01*
X89535000Y-87630000D02*
X86697976Y-87630000D01*
X84813514Y-103228514D02*
X84813514Y-94525186D01*
X84813514Y-94525186D02*
X84813514Y-93393816D01*
X89535000Y-107950000D02*
X84813514Y-103228514D01*
X86697976Y-87630000D02*
X84813514Y-89514462D01*
X84813514Y-92262446D02*
X84813514Y-93393816D01*
X111760000Y-152400000D02*
X112395000Y-152400000D01*
X112395000Y-152400000D02*
X113030000Y-153035000D01*
X113030000Y-153035000D02*
X113030000Y-153145762D01*
X113030000Y-153145762D02*
X113646239Y-153762001D01*
X113646239Y-153762001D02*
X121192999Y-153762001D01*
X121192999Y-153762001D02*
X135677023Y-139277978D01*
X135677023Y-139277978D02*
X155263740Y-139277978D01*
X157826010Y-153476390D02*
X156362400Y-154940000D01*
X155263740Y-139277978D02*
X157826010Y-141840248D01*
X157826010Y-141840248D02*
X157826010Y-153476390D01*
X156362400Y-154940000D02*
X156210000Y-154940000D01*
X100330000Y-130810000D02*
X100330000Y-133177248D01*
X100330000Y-133177248D02*
X105912243Y-138759491D01*
X105912243Y-138759491D02*
X107447757Y-138759491D01*
X107447757Y-138759491D02*
X113030000Y-133177248D01*
X113030000Y-133177248D02*
X113030000Y-130810000D01*
X111760000Y-152400000D02*
X111760000Y-149860000D01*
X111760000Y-149860000D02*
X116840000Y-144780000D01*
X113030000Y-130810000D02*
X113030000Y-133350000D01*
X113030000Y-133350000D02*
X116840000Y-137160000D01*
X116840000Y-137160000D02*
X116840000Y-140970000D01*
X116840000Y-140970000D02*
X116840000Y-144780000D01*
X148590000Y-154940000D02*
X156210000Y-154940000D01*
X138430000Y-154940000D02*
X130810000Y-154940000D01*
X148590000Y-154940000D02*
X138430000Y-154940000D01*
X89535000Y-90170000D02*
X86229980Y-90170000D01*
X128081962Y-152588038D02*
X127281963Y-153388037D01*
X128270000Y-152400000D02*
X128081962Y-152588038D01*
X130810000Y-152400000D02*
X128270000Y-152400000D01*
X130810000Y-152400000D02*
X130657600Y-152400000D01*
X156210000Y-152400000D02*
X148590000Y-152400000D01*
X138430000Y-152400000D02*
X148590000Y-152400000D01*
X130810000Y-152400000D02*
X138430000Y-152400000D01*
X138430000Y-149860000D02*
X138430000Y-142240000D01*
X130810000Y-149860000D02*
X138430000Y-149860000D01*
X151130000Y-142240000D02*
X151130000Y-147472400D01*
X151130000Y-147472400D02*
X148742400Y-149860000D01*
X148742400Y-149860000D02*
X148590000Y-149860000D01*
X156210000Y-149860000D02*
X148590000Y-149860000D01*
X152399981Y-113030019D02*
X155575000Y-113030019D01*
X153035000Y-119380000D02*
X151130000Y-117475000D01*
X151130000Y-117475000D02*
X151130000Y-114300000D01*
X151130000Y-114300000D02*
X152399981Y-113030019D01*
X175895000Y-119386400D02*
X163538537Y-107029937D01*
X175895000Y-120650000D02*
X175895000Y-119386400D01*
X163538537Y-107029937D02*
X155575000Y-107029937D01*
X175895000Y-123190000D02*
X178435000Y-123190000D01*
X177358601Y-119306399D02*
X177238601Y-119186399D01*
X137243051Y-106429945D02*
X135722996Y-107950000D01*
X178435000Y-123190000D02*
X178435000Y-120650000D01*
X178435000Y-120650000D02*
X177358601Y-119573601D01*
X177358601Y-119573601D02*
X177358601Y-119306399D01*
X176971399Y-119186399D02*
X163414935Y-105629935D01*
X154174998Y-106429945D02*
X137243051Y-106429945D01*
X125095000Y-119518614D02*
X126572387Y-120996001D01*
X177238601Y-119186399D02*
X176971399Y-119186399D01*
X163414935Y-105629935D02*
X154975008Y-105629935D01*
X154975008Y-105629935D02*
X154174998Y-106429945D01*
X135722996Y-107950000D02*
X125095000Y-107950000D01*
X131098999Y-120996001D02*
X132715000Y-119380000D01*
X125095000Y-107950000D02*
X125095000Y-119518614D01*
X126572387Y-120996001D02*
X131098999Y-120996001D01*
X161134957Y-108429957D02*
X148434956Y-108429956D01*
X173355000Y-120650000D02*
X161134957Y-108429957D01*
X148434956Y-108429956D02*
X147955000Y-107950000D01*
X147955000Y-107950000D02*
X147955000Y-107829947D01*
X147955000Y-113030000D02*
X147955000Y-119380000D01*
X133184989Y-130009989D02*
X130175000Y-127000000D01*
X161096601Y-130009989D02*
X133184989Y-130009989D01*
X164023399Y-130009989D02*
X163563376Y-130470012D01*
X166535011Y-130009989D02*
X164023399Y-130009989D01*
X173355000Y-123190000D02*
X166535011Y-130009989D01*
X163563376Y-130470012D02*
X161556623Y-130470011D01*
X161556623Y-130470011D02*
X161096601Y-130009989D01*
X137795000Y-119380000D02*
X137795000Y-114300004D01*
X137795000Y-114300004D02*
X137585029Y-114090033D01*
X157986351Y-109229967D02*
X139074966Y-109229966D01*
X170441130Y-120650000D02*
X168977529Y-119186399D01*
X168977529Y-119186399D02*
X167942783Y-119186399D01*
X167942783Y-119186399D02*
X157986351Y-109229967D01*
X170815000Y-120650000D02*
X170441130Y-120650000D01*
X139074966Y-109229966D02*
X137795000Y-107950000D01*
X161427976Y-129209978D02*
X155244978Y-129209978D01*
X163692024Y-129209978D02*
X163232001Y-129670001D01*
X164795022Y-129209978D02*
X163692024Y-129209978D01*
X155244978Y-129209978D02*
X153035000Y-127000000D01*
X163232001Y-129670001D02*
X161887999Y-129670001D01*
X170815000Y-123190000D02*
X164795022Y-129209978D01*
X161887999Y-129670001D02*
X161427976Y-129209978D01*
X130175000Y-117446610D02*
X130175000Y-119380000D01*
X135731604Y-111890006D02*
X130175000Y-117446610D01*
X138467002Y-111890006D02*
X135731604Y-111890006D01*
X140327031Y-110029977D02*
X138467002Y-111890006D01*
X157654977Y-110029977D02*
X140327031Y-110029977D01*
X168275000Y-120650000D02*
X157654977Y-110029977D01*
X160655000Y-116037986D02*
X160655000Y-122050020D01*
X156247013Y-111629999D02*
X160655000Y-116037986D01*
X149479001Y-114819613D02*
X152668615Y-111629999D01*
X152668615Y-111629999D02*
X156247013Y-111629999D01*
X149479001Y-118364001D02*
X149479001Y-114819613D01*
X150495000Y-119380000D02*
X149479001Y-118364001D01*
X165735000Y-125730000D02*
X160655000Y-125730000D01*
X168275000Y-123190000D02*
X165735000Y-125730000D01*
X135255000Y-114226635D02*
X135255000Y-119380000D01*
X136791622Y-112690013D02*
X135255000Y-114226635D01*
X138798377Y-112690014D02*
X136791622Y-112690013D01*
X140658403Y-110829988D02*
X138798377Y-112690014D01*
X165735000Y-119428686D02*
X157136302Y-110829988D01*
X165735000Y-120650000D02*
X165735000Y-119428686D01*
X157136302Y-110829988D02*
X140658403Y-110829988D01*
X150088599Y-124053599D02*
X145415000Y-119380000D01*
X164871401Y-124053599D02*
X150088599Y-124053599D01*
X165735000Y-123190000D02*
X164871401Y-124053599D01*
X177165000Y-92710000D02*
X176088601Y-92710000D01*
X176088601Y-92710000D02*
X176088601Y-92007471D01*
X176088601Y-92007471D02*
X175327529Y-91246399D01*
X175327529Y-91246399D02*
X174431399Y-91246399D01*
X174431399Y-91246399D02*
X162855031Y-79670031D01*
X162855031Y-79670031D02*
X156845000Y-79670031D01*
X156845000Y-88900000D02*
X156845000Y-85670093D01*
X154305000Y-91440000D02*
X156845000Y-88900000D01*
X177165000Y-95250000D02*
X179705000Y-95250000D01*
X138732966Y-78270030D02*
X136992996Y-80010000D01*
X127842387Y-93056001D02*
X132368999Y-93056001D01*
X179705000Y-95250000D02*
X179705000Y-92710000D01*
X178508601Y-91246399D02*
X178241399Y-91246399D01*
X136992996Y-80010000D02*
X136992996Y-80177004D01*
X179705000Y-92710000D02*
X178628601Y-91633601D01*
X178628601Y-91633601D02*
X178628601Y-91366399D01*
X178628601Y-91366399D02*
X178508601Y-91246399D01*
X136992996Y-80177004D02*
X126365000Y-90805000D01*
X178241399Y-91246399D02*
X165265030Y-78270030D01*
X165265030Y-78270030D02*
X138732966Y-78270030D01*
X126365000Y-90805000D02*
X126365000Y-91578614D01*
X126365000Y-91578614D02*
X127842387Y-93056001D01*
X132368999Y-93056001D02*
X133985000Y-91440000D01*
X150405085Y-81070032D02*
X149225000Y-79889947D01*
X162985032Y-81070032D02*
X150405085Y-81070032D01*
X174625000Y-92710000D02*
X162985032Y-81070032D01*
X149225000Y-85090000D02*
X149225000Y-91440000D01*
X134454989Y-102069989D02*
X131445000Y-99060000D01*
X174625000Y-95250000D02*
X167805011Y-102069989D01*
X167805011Y-102069989D02*
X134454989Y-102069989D01*
X140925043Y-81870043D02*
X139065000Y-80010000D01*
X161245043Y-81870043D02*
X140925043Y-81870043D01*
X172085000Y-92710000D02*
X161245043Y-81870043D01*
X139065000Y-91440000D02*
X139065000Y-86360004D01*
X139065000Y-86360004D02*
X138855029Y-86150033D01*
X156514978Y-101269978D02*
X154305000Y-99060000D01*
X166065022Y-101269978D02*
X156514978Y-101269978D01*
X172085000Y-95250000D02*
X166065022Y-101269978D01*
X138281557Y-82670053D02*
X131445000Y-89506610D01*
X169545000Y-92710000D02*
X159505053Y-82670053D01*
X159505053Y-82670053D02*
X138281557Y-82670053D01*
X131445000Y-89506610D02*
X131445000Y-91440000D01*
X161925000Y-92978650D02*
X161925000Y-94110020D01*
X158068689Y-84270075D02*
X161925000Y-88126386D01*
X155592922Y-84270075D02*
X158068689Y-84270075D01*
X151765000Y-91440000D02*
X151765000Y-88097996D01*
X151765000Y-88097996D02*
X155592922Y-84270075D01*
X161925000Y-88126386D02*
X161925000Y-92978650D01*
X167135020Y-97659980D02*
X161925000Y-97659980D01*
X169545000Y-95250000D02*
X167135020Y-97659980D01*
X167005000Y-92075000D02*
X158400064Y-83470064D01*
X136525000Y-86286635D02*
X136525000Y-91440000D01*
X167005000Y-92710000D02*
X167005000Y-92075000D01*
X158400064Y-83470064D02*
X139341571Y-83470064D01*
X139341571Y-83470064D02*
X136525000Y-86286635D01*
X151358599Y-96113599D02*
X146685000Y-91440000D01*
X166141401Y-96113599D02*
X151358599Y-96113599D01*
X167005000Y-95250000D02*
X166141401Y-96113599D01*
X92075000Y-115570000D02*
X97920020Y-115570000D01*
X110490000Y-130810000D02*
X110490000Y-133350000D01*
X110490000Y-133350000D02*
X106680000Y-137160000D01*
X162560000Y-128270000D02*
X156845000Y-128270000D01*
X156845000Y-128270000D02*
X155575000Y-127000000D01*
X156845000Y-99060000D02*
X165100000Y-99060000D01*
X115570000Y-130810000D02*
X120650000Y-130810000D01*
X106680000Y-140970000D02*
X97790000Y-132080000D01*
X97790000Y-132080000D02*
X97790000Y-130810000D01*
X160020000Y-88900000D02*
X157480000Y-91440000D01*
X157480000Y-91440000D02*
X156845000Y-91440000D01*
X153670000Y-115570000D02*
X153670000Y-117475000D01*
X153670000Y-117475000D02*
X155575000Y-119380000D01*
X89535000Y-110490000D02*
X85613542Y-110490000D01*
X106680000Y-144780000D02*
X106680000Y-149860000D01*
X106680000Y-149860000D02*
X109220000Y-152400000D01*
X123190000Y-130810000D02*
X127000000Y-127000000D01*
X127000000Y-127000000D02*
X127635000Y-127000000D01*
X123190000Y-130810000D02*
X123190000Y-143510000D01*
X123190000Y-143510000D02*
X114300000Y-152400000D01*
X140208001Y-141478001D02*
X140970000Y-142240000D01*
X89535000Y-123190000D02*
X89535000Y-123563870D01*
X139607999Y-140877999D02*
X140208001Y-141478001D01*
X137252001Y-140877999D02*
X139607999Y-140877999D01*
X125449077Y-152542307D02*
X125587693Y-152542307D01*
X125587693Y-152542307D02*
X137252001Y-140877999D01*
X122581396Y-155409988D02*
X125449077Y-152542307D01*
X105244990Y-155409988D02*
X122581396Y-155409988D01*
X86829990Y-136994988D02*
X105244990Y-155409988D01*
X86829990Y-127303626D02*
X86829990Y-136994988D01*
X88071399Y-126062217D02*
X86829990Y-127303626D01*
X88071399Y-125027471D02*
X88071399Y-126062217D01*
X89535000Y-123563870D02*
X88071399Y-125027471D01*
X86728092Y-92710000D02*
X86671379Y-92653287D01*
X89535000Y-92710000D02*
X86728092Y-92710000D01*
X87630000Y-127635000D02*
X87630000Y-136663614D01*
X122250022Y-154609978D02*
X136782013Y-140077988D01*
X151507988Y-140077988D02*
X152908001Y-141478001D01*
X152908001Y-141478001D02*
X153670000Y-142240000D01*
X136782013Y-140077988D02*
X151507988Y-140077988D01*
X105576364Y-154609978D02*
X122250022Y-154609978D01*
X89535000Y-125730000D02*
X87630000Y-127635000D01*
X87630000Y-136663614D02*
X105576364Y-154609978D01*
X139065000Y-123190000D02*
X114935000Y-123190000D01*
X142875000Y-119380000D02*
X139065000Y-123190000D01*
X116205000Y-95250000D02*
X140335000Y-95250000D01*
X144145000Y-91440000D02*
X140335000Y-95250000D01*
X127635000Y-106045000D02*
X128905000Y-104775000D01*
X128905000Y-104775000D02*
X128905000Y-99060000D01*
X127635000Y-119380000D02*
X127635000Y-110490000D01*
M02*
