M48
;DRILL file {KiCad 4.0.2-stable} date 31/08/2016 08:47:29
;FORMAT={-:-/ absolute / inch / decimal}
FMAT,2
INCH,TZ
T1C0.030
T2C0.031
T3C0.035
T4C0.039
T5C0.039
T6C0.040
T7C0.071
%
G90
G05
M72
T1
X5.025Y-4.7
X5.025Y-5.
X5.075Y-3.6
X5.075Y-3.9
X5.125Y-4.7
X5.125Y-5.
X5.175Y-3.6
X5.175Y-3.9
X5.225Y-4.7
X5.225Y-5.
X5.275Y-3.6
X5.275Y-3.9
X5.325Y-4.7
X5.325Y-5.
X5.375Y-3.6
X5.375Y-3.9
X5.425Y-4.7
X5.425Y-5.
X5.475Y-3.6
X5.475Y-3.9
X5.525Y-4.7
X5.525Y-5.
X5.575Y-3.6
X5.575Y-3.9
X5.625Y-4.7
X5.625Y-5.
X5.675Y-3.6
X5.675Y-3.9
X5.725Y-4.7
X5.725Y-5.
X5.775Y-3.6
X5.775Y-3.9
X5.825Y-4.7
X5.825Y-5.
X5.875Y-3.6
X5.875Y-3.9
X5.925Y-4.7
X5.925Y-5.
X5.975Y-3.6
X5.975Y-3.9
X6.025Y-4.7
X6.025Y-5.
X6.075Y-3.6
X6.075Y-3.9
X6.125Y-4.7
X6.125Y-5.
X6.175Y-3.6
X6.175Y-3.9
T2
X3.85Y-5.15
X3.95Y-5.15
X4.05Y-5.15
X4.1213Y-4.45
X4.175Y-3.35
X4.2Y-4.45
X4.2537Y-3.35
X4.3Y-6.
X4.35Y-5.15
X4.4Y-6.
X4.45Y-5.15
X4.5Y-6.
X4.55Y-5.15
X5.45Y-5.6
X5.55Y-5.6
X5.65Y-5.6
X5.95Y-5.6
X6.05Y-5.6
X6.15Y-5.6
T3
X4.025Y-4.75
X4.075Y-3.65
X4.2219Y-4.75
X4.2719Y-3.65
T4
X3.3391Y-3.6769
X3.3706Y-4.35
X3.3949Y-3.55
X3.4123Y-3.6478
X3.8551Y-4.55
X5.0111Y-6.0389
X5.025Y-4.175
X5.025Y-4.35
X5.4167Y-4.4917
X5.425Y-4.25
X5.4667Y-3.3917
X5.475Y-3.15
X5.825Y-4.2453
X5.825Y-4.45
X5.875Y-3.1453
X5.875Y-3.35
X6.125Y-4.2138
X6.125Y-4.45
X6.175Y-3.1366
X6.175Y-3.3728
X6.3Y-3.5
X6.325Y-4.8051
X6.325Y-4.95
X6.375Y-3.7051
X6.375Y-3.8449
X6.4Y-5.05
X6.5Y-3.9
T5
X4.2Y-5.4
X4.2Y-5.55
X4.2Y-5.7
X4.525Y-4.45
X4.525Y-4.85
X4.575Y-3.35
X4.575Y-3.75
X4.6Y-5.4
X4.6Y-5.55
X4.6Y-5.7
X4.75Y-4.75
X4.75Y-5.15
X4.85Y-4.75
X4.85Y-5.15
X5.65Y-4.55
X6.05Y-4.55
T6
X3.525Y-3.45
X3.525Y-3.55
X3.525Y-3.65
X3.525Y-3.75
X3.525Y-3.85
X3.525Y-3.95
X3.525Y-4.05
X3.525Y-4.15
X3.525Y-4.25
X3.525Y-4.35
X3.525Y-4.45
X3.525Y-4.55
X3.525Y-4.65
X3.525Y-4.75
X3.525Y-4.85
X3.525Y-4.95
X3.525Y-5.05
X3.525Y-5.15
X3.525Y-5.25
X3.525Y-5.35
X3.625Y-3.45
X3.625Y-3.55
X3.625Y-3.65
X3.625Y-3.75
X3.625Y-3.85
X3.625Y-3.95
X3.625Y-4.05
X3.625Y-4.15
X3.625Y-4.25
X3.625Y-4.35
X3.625Y-4.45
X3.625Y-4.55
X3.625Y-4.65
X3.625Y-4.75
X3.625Y-4.85
X3.625Y-4.95
X3.625Y-5.05
X3.625Y-5.15
X3.625Y-5.25
X3.625Y-5.35
X5.15Y-5.9
X5.15Y-6.
X5.15Y-6.1
X5.15Y-6.2
X5.45Y-5.9
X5.45Y-6.
X5.45Y-6.1
X5.45Y-6.2
X5.85Y-5.9
X5.85Y-6.
X5.85Y-6.1
X5.85Y-6.2
X6.15Y-5.9
X6.15Y-6.
X6.15Y-6.1
X6.15Y-6.2
X6.525Y-4.75
X6.525Y-4.85
X6.575Y-3.65
X6.575Y-3.75
X6.625Y-4.75
X6.625Y-4.85
X6.675Y-3.65
X6.675Y-3.75
X6.725Y-4.75
X6.725Y-4.85
X6.775Y-3.65
X6.775Y-3.75
X6.825Y-4.75
X6.825Y-4.85
X6.875Y-3.65
X6.875Y-3.75
X6.925Y-4.75
X6.925Y-4.85
X6.975Y-3.65
X6.975Y-3.75
T7
X3.5665Y-3.015
T5
X3.7319Y-2.9756G85X3.7319Y-3.0543
G05
X3.8107Y-3.2G85X3.8894Y-3.2
G05
X3.9681Y-2.9756G85X3.9681Y-3.0543
G05
T0
M30
