G04 #@! TF.FileFunction,Other,Fab,Top*
%FSLAX46Y46*%
G04 Gerber Fmt 4.6, Leading zero omitted, Abs format (unit mm)*
G04 Created by KiCad (PCBNEW 4.0.2-stable) date Friday, 12 August 2016 'pmt' 16:12:33*
%MOMM*%
G01*
G04 APERTURE LIST*
%ADD10C,0.100000*%
%ADD11C,0.150000*%
G04 APERTURE END LIST*
D10*
D11*
X25767143Y-119840476D02*
X25814762Y-119888095D01*
X25862381Y-120030952D01*
X25862381Y-120126190D01*
X25814762Y-120269048D01*
X25719524Y-120364286D01*
X25624286Y-120411905D01*
X25433810Y-120459524D01*
X25290952Y-120459524D01*
X25100476Y-120411905D01*
X25005238Y-120364286D01*
X24910000Y-120269048D01*
X24862381Y-120126190D01*
X24862381Y-120030952D01*
X24910000Y-119888095D01*
X24957619Y-119840476D01*
X25862381Y-119411905D02*
X24862381Y-119411905D01*
X24862381Y-119030952D01*
X24910000Y-118935714D01*
X24957619Y-118888095D01*
X25052857Y-118840476D01*
X25195714Y-118840476D01*
X25290952Y-118888095D01*
X25338571Y-118935714D01*
X25386190Y-119030952D01*
X25386190Y-119411905D01*
X33052143Y-119745476D02*
X33099762Y-119793095D01*
X33147381Y-119935952D01*
X33147381Y-120031190D01*
X33099762Y-120174048D01*
X33004524Y-120269286D01*
X32909286Y-120316905D01*
X32718810Y-120364524D01*
X32575952Y-120364524D01*
X32385476Y-120316905D01*
X32290238Y-120269286D01*
X32195000Y-120174048D01*
X32147381Y-120031190D01*
X32147381Y-119935952D01*
X32195000Y-119793095D01*
X32242619Y-119745476D01*
X46387143Y-160940476D02*
X46434762Y-160988095D01*
X46482381Y-161130952D01*
X46482381Y-161226190D01*
X46434762Y-161369048D01*
X46339524Y-161464286D01*
X46244286Y-161511905D01*
X46053810Y-161559524D01*
X45910952Y-161559524D01*
X45720476Y-161511905D01*
X45625238Y-161464286D01*
X45530000Y-161369048D01*
X45482381Y-161226190D01*
X45482381Y-161130952D01*
X45530000Y-160988095D01*
X45577619Y-160940476D01*
X105084571Y-103972762D02*
X105132190Y-103829905D01*
X105179810Y-103782286D01*
X105275048Y-103734667D01*
X105417905Y-103734667D01*
X105513143Y-103782286D01*
X105560762Y-103829905D01*
X105608381Y-103925143D01*
X105608381Y-104306096D01*
X104608381Y-104306096D01*
X104608381Y-103972762D01*
X104656000Y-103877524D01*
X104703619Y-103829905D01*
X104798857Y-103782286D01*
X104894095Y-103782286D01*
X104989333Y-103829905D01*
X105036952Y-103877524D01*
X105084571Y-103972762D01*
X105084571Y-104306096D01*
X105322667Y-103353715D02*
X105322667Y-102877524D01*
X105608381Y-103448953D02*
X104608381Y-103115620D01*
X105608381Y-102782286D01*
X105608381Y-101877524D02*
X105132190Y-102210858D01*
X105608381Y-102448953D02*
X104608381Y-102448953D01*
X104608381Y-102068000D01*
X104656000Y-101972762D01*
X104703619Y-101925143D01*
X104798857Y-101877524D01*
X104941714Y-101877524D01*
X105036952Y-101925143D01*
X105084571Y-101972762D01*
X105132190Y-102068000D01*
X105132190Y-102448953D01*
X105608381Y-100877524D02*
X105132190Y-101210858D01*
X105608381Y-101448953D02*
X104608381Y-101448953D01*
X104608381Y-101068000D01*
X104656000Y-100972762D01*
X104703619Y-100925143D01*
X104798857Y-100877524D01*
X104941714Y-100877524D01*
X105036952Y-100925143D01*
X105084571Y-100972762D01*
X105132190Y-101068000D01*
X105132190Y-101448953D01*
X105084571Y-100448953D02*
X105084571Y-100115619D01*
X105608381Y-99972762D02*
X105608381Y-100448953D01*
X104608381Y-100448953D01*
X104608381Y-99972762D01*
X105608381Y-99068000D02*
X105608381Y-99544191D01*
X104608381Y-99544191D01*
X105703619Y-98972762D02*
X105703619Y-98210857D01*
X104608381Y-97687047D02*
X105322667Y-97687047D01*
X105465524Y-97734667D01*
X105560762Y-97829905D01*
X105608381Y-97972762D01*
X105608381Y-98068000D01*
X105322667Y-97258476D02*
X105322667Y-96782285D01*
X105608381Y-97353714D02*
X104608381Y-97020381D01*
X105608381Y-96687047D01*
X105513143Y-95782285D02*
X105560762Y-95829904D01*
X105608381Y-95972761D01*
X105608381Y-96067999D01*
X105560762Y-96210857D01*
X105465524Y-96306095D01*
X105370286Y-96353714D01*
X105179810Y-96401333D01*
X105036952Y-96401333D01*
X104846476Y-96353714D01*
X104751238Y-96306095D01*
X104656000Y-96210857D01*
X104608381Y-96067999D01*
X104608381Y-95972761D01*
X104656000Y-95829904D01*
X104703619Y-95782285D01*
X105608381Y-95353714D02*
X104608381Y-95353714D01*
X105608381Y-94782285D02*
X105036952Y-95210857D01*
X104608381Y-94782285D02*
X105179810Y-95353714D01*
X86796571Y-103972762D02*
X86844190Y-103829905D01*
X86891810Y-103782286D01*
X86987048Y-103734667D01*
X87129905Y-103734667D01*
X87225143Y-103782286D01*
X87272762Y-103829905D01*
X87320381Y-103925143D01*
X87320381Y-104306096D01*
X86320381Y-104306096D01*
X86320381Y-103972762D01*
X86368000Y-103877524D01*
X86415619Y-103829905D01*
X86510857Y-103782286D01*
X86606095Y-103782286D01*
X86701333Y-103829905D01*
X86748952Y-103877524D01*
X86796571Y-103972762D01*
X86796571Y-104306096D01*
X87034667Y-103353715D02*
X87034667Y-102877524D01*
X87320381Y-103448953D02*
X86320381Y-103115620D01*
X87320381Y-102782286D01*
X87320381Y-101877524D02*
X86844190Y-102210858D01*
X87320381Y-102448953D02*
X86320381Y-102448953D01*
X86320381Y-102068000D01*
X86368000Y-101972762D01*
X86415619Y-101925143D01*
X86510857Y-101877524D01*
X86653714Y-101877524D01*
X86748952Y-101925143D01*
X86796571Y-101972762D01*
X86844190Y-102068000D01*
X86844190Y-102448953D01*
X87320381Y-100877524D02*
X86844190Y-101210858D01*
X87320381Y-101448953D02*
X86320381Y-101448953D01*
X86320381Y-101068000D01*
X86368000Y-100972762D01*
X86415619Y-100925143D01*
X86510857Y-100877524D01*
X86653714Y-100877524D01*
X86748952Y-100925143D01*
X86796571Y-100972762D01*
X86844190Y-101068000D01*
X86844190Y-101448953D01*
X86796571Y-100448953D02*
X86796571Y-100115619D01*
X87320381Y-99972762D02*
X87320381Y-100448953D01*
X86320381Y-100448953D01*
X86320381Y-99972762D01*
X87320381Y-99068000D02*
X87320381Y-99544191D01*
X86320381Y-99544191D01*
X87415619Y-98972762D02*
X87415619Y-98210857D01*
X86320381Y-97687047D02*
X87034667Y-97687047D01*
X87177524Y-97734667D01*
X87272762Y-97829905D01*
X87320381Y-97972762D01*
X87320381Y-98068000D01*
X87034667Y-97258476D02*
X87034667Y-96782285D01*
X87320381Y-97353714D02*
X86320381Y-97020381D01*
X87320381Y-96687047D01*
X87225143Y-95782285D02*
X87272762Y-95829904D01*
X87320381Y-95972761D01*
X87320381Y-96067999D01*
X87272762Y-96210857D01*
X87177524Y-96306095D01*
X87082286Y-96353714D01*
X86891810Y-96401333D01*
X86748952Y-96401333D01*
X86558476Y-96353714D01*
X86463238Y-96306095D01*
X86368000Y-96210857D01*
X86320381Y-96067999D01*
X86320381Y-95972761D01*
X86368000Y-95829904D01*
X86415619Y-95782285D01*
X87320381Y-95353714D02*
X86320381Y-95353714D01*
X87320381Y-94782285D02*
X86748952Y-95210857D01*
X86320381Y-94782285D02*
X86891810Y-95353714D01*
X18836191Y-183947143D02*
X18788572Y-183994762D01*
X18645715Y-184042381D01*
X18550477Y-184042381D01*
X18407619Y-183994762D01*
X18312381Y-183899524D01*
X18264762Y-183804286D01*
X18217143Y-183613810D01*
X18217143Y-183470952D01*
X18264762Y-183280476D01*
X18312381Y-183185238D01*
X18407619Y-183090000D01*
X18550477Y-183042381D01*
X18645715Y-183042381D01*
X18788572Y-183090000D01*
X18836191Y-183137619D01*
X19455238Y-183042381D02*
X19645715Y-183042381D01*
X19740953Y-183090000D01*
X19836191Y-183185238D01*
X19883810Y-183375714D01*
X19883810Y-183709048D01*
X19836191Y-183899524D01*
X19740953Y-183994762D01*
X19645715Y-184042381D01*
X19455238Y-184042381D01*
X19360000Y-183994762D01*
X19264762Y-183899524D01*
X19217143Y-183709048D01*
X19217143Y-183375714D01*
X19264762Y-183185238D01*
X19360000Y-183090000D01*
X19455238Y-183042381D01*
X20312381Y-184042381D02*
X20312381Y-183042381D01*
X20883810Y-184042381D01*
X20883810Y-183042381D01*
X21360000Y-184042381D02*
X21360000Y-183042381D01*
X21931429Y-184042381D01*
X21931429Y-183042381D01*
X22169524Y-184137619D02*
X22931429Y-184137619D01*
X23360000Y-183042381D02*
X23455239Y-183042381D01*
X23550477Y-183090000D01*
X23598096Y-183137619D01*
X23645715Y-183232857D01*
X23693334Y-183423333D01*
X23693334Y-183661429D01*
X23645715Y-183851905D01*
X23598096Y-183947143D01*
X23550477Y-183994762D01*
X23455239Y-184042381D01*
X23360000Y-184042381D01*
X23264762Y-183994762D01*
X23217143Y-183947143D01*
X23169524Y-183851905D01*
X23121905Y-183661429D01*
X23121905Y-183423333D01*
X23169524Y-183232857D01*
X23217143Y-183137619D01*
X23264762Y-183090000D01*
X23360000Y-183042381D01*
X24645715Y-184042381D02*
X24074286Y-184042381D01*
X24360000Y-184042381D02*
X24360000Y-183042381D01*
X24264762Y-183185238D01*
X24169524Y-183280476D01*
X24074286Y-183328095D01*
X24979048Y-183042381D02*
X25645715Y-184042381D01*
X25645715Y-183042381D02*
X24979048Y-184042381D01*
X26217143Y-183042381D02*
X26312382Y-183042381D01*
X26407620Y-183090000D01*
X26455239Y-183137619D01*
X26502858Y-183232857D01*
X26550477Y-183423333D01*
X26550477Y-183661429D01*
X26502858Y-183851905D01*
X26455239Y-183947143D01*
X26407620Y-183994762D01*
X26312382Y-184042381D01*
X26217143Y-184042381D01*
X26121905Y-183994762D01*
X26074286Y-183947143D01*
X26026667Y-183851905D01*
X25979048Y-183661429D01*
X25979048Y-183423333D01*
X26026667Y-183232857D01*
X26074286Y-183137619D01*
X26121905Y-183090000D01*
X26217143Y-183042381D01*
X27407620Y-183375714D02*
X27407620Y-184042381D01*
X27169524Y-182994762D02*
X26931429Y-183709048D01*
X27550477Y-183709048D01*
X18836191Y-167437143D02*
X18788572Y-167484762D01*
X18645715Y-167532381D01*
X18550477Y-167532381D01*
X18407619Y-167484762D01*
X18312381Y-167389524D01*
X18264762Y-167294286D01*
X18217143Y-167103810D01*
X18217143Y-166960952D01*
X18264762Y-166770476D01*
X18312381Y-166675238D01*
X18407619Y-166580000D01*
X18550477Y-166532381D01*
X18645715Y-166532381D01*
X18788572Y-166580000D01*
X18836191Y-166627619D01*
X19455238Y-166532381D02*
X19645715Y-166532381D01*
X19740953Y-166580000D01*
X19836191Y-166675238D01*
X19883810Y-166865714D01*
X19883810Y-167199048D01*
X19836191Y-167389524D01*
X19740953Y-167484762D01*
X19645715Y-167532381D01*
X19455238Y-167532381D01*
X19360000Y-167484762D01*
X19264762Y-167389524D01*
X19217143Y-167199048D01*
X19217143Y-166865714D01*
X19264762Y-166675238D01*
X19360000Y-166580000D01*
X19455238Y-166532381D01*
X20312381Y-167532381D02*
X20312381Y-166532381D01*
X20883810Y-167532381D01*
X20883810Y-166532381D01*
X21360000Y-167532381D02*
X21360000Y-166532381D01*
X21931429Y-167532381D01*
X21931429Y-166532381D01*
X22169524Y-167627619D02*
X22931429Y-167627619D01*
X23360000Y-166532381D02*
X23455239Y-166532381D01*
X23550477Y-166580000D01*
X23598096Y-166627619D01*
X23645715Y-166722857D01*
X23693334Y-166913333D01*
X23693334Y-167151429D01*
X23645715Y-167341905D01*
X23598096Y-167437143D01*
X23550477Y-167484762D01*
X23455239Y-167532381D01*
X23360000Y-167532381D01*
X23264762Y-167484762D01*
X23217143Y-167437143D01*
X23169524Y-167341905D01*
X23121905Y-167151429D01*
X23121905Y-166913333D01*
X23169524Y-166722857D01*
X23217143Y-166627619D01*
X23264762Y-166580000D01*
X23360000Y-166532381D01*
X24645715Y-167532381D02*
X24074286Y-167532381D01*
X24360000Y-167532381D02*
X24360000Y-166532381D01*
X24264762Y-166675238D01*
X24169524Y-166770476D01*
X24074286Y-166818095D01*
X24979048Y-166532381D02*
X25645715Y-167532381D01*
X25645715Y-166532381D02*
X24979048Y-167532381D01*
X26217143Y-166532381D02*
X26312382Y-166532381D01*
X26407620Y-166580000D01*
X26455239Y-166627619D01*
X26502858Y-166722857D01*
X26550477Y-166913333D01*
X26550477Y-167151429D01*
X26502858Y-167341905D01*
X26455239Y-167437143D01*
X26407620Y-167484762D01*
X26312382Y-167532381D01*
X26217143Y-167532381D01*
X26121905Y-167484762D01*
X26074286Y-167437143D01*
X26026667Y-167341905D01*
X25979048Y-167151429D01*
X25979048Y-166913333D01*
X26026667Y-166722857D01*
X26074286Y-166627619D01*
X26121905Y-166580000D01*
X26217143Y-166532381D01*
X27407620Y-166865714D02*
X27407620Y-167532381D01*
X27169524Y-166484762D02*
X26931429Y-167199048D01*
X27550477Y-167199048D01*
X23916191Y-183947143D02*
X23868572Y-183994762D01*
X23725715Y-184042381D01*
X23630477Y-184042381D01*
X23487619Y-183994762D01*
X23392381Y-183899524D01*
X23344762Y-183804286D01*
X23297143Y-183613810D01*
X23297143Y-183470952D01*
X23344762Y-183280476D01*
X23392381Y-183185238D01*
X23487619Y-183090000D01*
X23630477Y-183042381D01*
X23725715Y-183042381D01*
X23868572Y-183090000D01*
X23916191Y-183137619D01*
X24535238Y-183042381D02*
X24725715Y-183042381D01*
X24820953Y-183090000D01*
X24916191Y-183185238D01*
X24963810Y-183375714D01*
X24963810Y-183709048D01*
X24916191Y-183899524D01*
X24820953Y-183994762D01*
X24725715Y-184042381D01*
X24535238Y-184042381D01*
X24440000Y-183994762D01*
X24344762Y-183899524D01*
X24297143Y-183709048D01*
X24297143Y-183375714D01*
X24344762Y-183185238D01*
X24440000Y-183090000D01*
X24535238Y-183042381D01*
X25392381Y-184042381D02*
X25392381Y-183042381D01*
X25963810Y-184042381D01*
X25963810Y-183042381D01*
X26440000Y-184042381D02*
X26440000Y-183042381D01*
X27011429Y-184042381D01*
X27011429Y-183042381D01*
X27249524Y-184137619D02*
X28011429Y-184137619D01*
X28440000Y-183042381D02*
X28535239Y-183042381D01*
X28630477Y-183090000D01*
X28678096Y-183137619D01*
X28725715Y-183232857D01*
X28773334Y-183423333D01*
X28773334Y-183661429D01*
X28725715Y-183851905D01*
X28678096Y-183947143D01*
X28630477Y-183994762D01*
X28535239Y-184042381D01*
X28440000Y-184042381D01*
X28344762Y-183994762D01*
X28297143Y-183947143D01*
X28249524Y-183851905D01*
X28201905Y-183661429D01*
X28201905Y-183423333D01*
X28249524Y-183232857D01*
X28297143Y-183137619D01*
X28344762Y-183090000D01*
X28440000Y-183042381D01*
X29725715Y-184042381D02*
X29154286Y-184042381D01*
X29440000Y-184042381D02*
X29440000Y-183042381D01*
X29344762Y-183185238D01*
X29249524Y-183280476D01*
X29154286Y-183328095D01*
X30059048Y-183042381D02*
X30725715Y-184042381D01*
X30725715Y-183042381D02*
X30059048Y-184042381D01*
X31297143Y-183042381D02*
X31392382Y-183042381D01*
X31487620Y-183090000D01*
X31535239Y-183137619D01*
X31582858Y-183232857D01*
X31630477Y-183423333D01*
X31630477Y-183661429D01*
X31582858Y-183851905D01*
X31535239Y-183947143D01*
X31487620Y-183994762D01*
X31392382Y-184042381D01*
X31297143Y-184042381D01*
X31201905Y-183994762D01*
X31154286Y-183947143D01*
X31106667Y-183851905D01*
X31059048Y-183661429D01*
X31059048Y-183423333D01*
X31106667Y-183232857D01*
X31154286Y-183137619D01*
X31201905Y-183090000D01*
X31297143Y-183042381D01*
X32487620Y-183375714D02*
X32487620Y-184042381D01*
X32249524Y-182994762D02*
X32011429Y-183709048D01*
X32630477Y-183709048D01*
X23916191Y-167437143D02*
X23868572Y-167484762D01*
X23725715Y-167532381D01*
X23630477Y-167532381D01*
X23487619Y-167484762D01*
X23392381Y-167389524D01*
X23344762Y-167294286D01*
X23297143Y-167103810D01*
X23297143Y-166960952D01*
X23344762Y-166770476D01*
X23392381Y-166675238D01*
X23487619Y-166580000D01*
X23630477Y-166532381D01*
X23725715Y-166532381D01*
X23868572Y-166580000D01*
X23916191Y-166627619D01*
X24535238Y-166532381D02*
X24725715Y-166532381D01*
X24820953Y-166580000D01*
X24916191Y-166675238D01*
X24963810Y-166865714D01*
X24963810Y-167199048D01*
X24916191Y-167389524D01*
X24820953Y-167484762D01*
X24725715Y-167532381D01*
X24535238Y-167532381D01*
X24440000Y-167484762D01*
X24344762Y-167389524D01*
X24297143Y-167199048D01*
X24297143Y-166865714D01*
X24344762Y-166675238D01*
X24440000Y-166580000D01*
X24535238Y-166532381D01*
X25392381Y-167532381D02*
X25392381Y-166532381D01*
X25963810Y-167532381D01*
X25963810Y-166532381D01*
X26440000Y-167532381D02*
X26440000Y-166532381D01*
X27011429Y-167532381D01*
X27011429Y-166532381D01*
X27249524Y-167627619D02*
X28011429Y-167627619D01*
X28440000Y-166532381D02*
X28535239Y-166532381D01*
X28630477Y-166580000D01*
X28678096Y-166627619D01*
X28725715Y-166722857D01*
X28773334Y-166913333D01*
X28773334Y-167151429D01*
X28725715Y-167341905D01*
X28678096Y-167437143D01*
X28630477Y-167484762D01*
X28535239Y-167532381D01*
X28440000Y-167532381D01*
X28344762Y-167484762D01*
X28297143Y-167437143D01*
X28249524Y-167341905D01*
X28201905Y-167151429D01*
X28201905Y-166913333D01*
X28249524Y-166722857D01*
X28297143Y-166627619D01*
X28344762Y-166580000D01*
X28440000Y-166532381D01*
X29725715Y-167532381D02*
X29154286Y-167532381D01*
X29440000Y-167532381D02*
X29440000Y-166532381D01*
X29344762Y-166675238D01*
X29249524Y-166770476D01*
X29154286Y-166818095D01*
X30059048Y-166532381D02*
X30725715Y-167532381D01*
X30725715Y-166532381D02*
X30059048Y-167532381D01*
X31297143Y-166532381D02*
X31392382Y-166532381D01*
X31487620Y-166580000D01*
X31535239Y-166627619D01*
X31582858Y-166722857D01*
X31630477Y-166913333D01*
X31630477Y-167151429D01*
X31582858Y-167341905D01*
X31535239Y-167437143D01*
X31487620Y-167484762D01*
X31392382Y-167532381D01*
X31297143Y-167532381D01*
X31201905Y-167484762D01*
X31154286Y-167437143D01*
X31106667Y-167341905D01*
X31059048Y-167151429D01*
X31059048Y-166913333D01*
X31106667Y-166722857D01*
X31154286Y-166627619D01*
X31201905Y-166580000D01*
X31297143Y-166532381D01*
X32487620Y-166865714D02*
X32487620Y-167532381D01*
X32249524Y-166484762D02*
X32011429Y-167199048D01*
X32630477Y-167199048D01*
X28996191Y-183947143D02*
X28948572Y-183994762D01*
X28805715Y-184042381D01*
X28710477Y-184042381D01*
X28567619Y-183994762D01*
X28472381Y-183899524D01*
X28424762Y-183804286D01*
X28377143Y-183613810D01*
X28377143Y-183470952D01*
X28424762Y-183280476D01*
X28472381Y-183185238D01*
X28567619Y-183090000D01*
X28710477Y-183042381D01*
X28805715Y-183042381D01*
X28948572Y-183090000D01*
X28996191Y-183137619D01*
X29615238Y-183042381D02*
X29805715Y-183042381D01*
X29900953Y-183090000D01*
X29996191Y-183185238D01*
X30043810Y-183375714D01*
X30043810Y-183709048D01*
X29996191Y-183899524D01*
X29900953Y-183994762D01*
X29805715Y-184042381D01*
X29615238Y-184042381D01*
X29520000Y-183994762D01*
X29424762Y-183899524D01*
X29377143Y-183709048D01*
X29377143Y-183375714D01*
X29424762Y-183185238D01*
X29520000Y-183090000D01*
X29615238Y-183042381D01*
X30472381Y-184042381D02*
X30472381Y-183042381D01*
X31043810Y-184042381D01*
X31043810Y-183042381D01*
X31520000Y-184042381D02*
X31520000Y-183042381D01*
X32091429Y-184042381D01*
X32091429Y-183042381D01*
X32329524Y-184137619D02*
X33091429Y-184137619D01*
X33520000Y-183042381D02*
X33615239Y-183042381D01*
X33710477Y-183090000D01*
X33758096Y-183137619D01*
X33805715Y-183232857D01*
X33853334Y-183423333D01*
X33853334Y-183661429D01*
X33805715Y-183851905D01*
X33758096Y-183947143D01*
X33710477Y-183994762D01*
X33615239Y-184042381D01*
X33520000Y-184042381D01*
X33424762Y-183994762D01*
X33377143Y-183947143D01*
X33329524Y-183851905D01*
X33281905Y-183661429D01*
X33281905Y-183423333D01*
X33329524Y-183232857D01*
X33377143Y-183137619D01*
X33424762Y-183090000D01*
X33520000Y-183042381D01*
X34805715Y-184042381D02*
X34234286Y-184042381D01*
X34520000Y-184042381D02*
X34520000Y-183042381D01*
X34424762Y-183185238D01*
X34329524Y-183280476D01*
X34234286Y-183328095D01*
X35139048Y-183042381D02*
X35805715Y-184042381D01*
X35805715Y-183042381D02*
X35139048Y-184042381D01*
X36377143Y-183042381D02*
X36472382Y-183042381D01*
X36567620Y-183090000D01*
X36615239Y-183137619D01*
X36662858Y-183232857D01*
X36710477Y-183423333D01*
X36710477Y-183661429D01*
X36662858Y-183851905D01*
X36615239Y-183947143D01*
X36567620Y-183994762D01*
X36472382Y-184042381D01*
X36377143Y-184042381D01*
X36281905Y-183994762D01*
X36234286Y-183947143D01*
X36186667Y-183851905D01*
X36139048Y-183661429D01*
X36139048Y-183423333D01*
X36186667Y-183232857D01*
X36234286Y-183137619D01*
X36281905Y-183090000D01*
X36377143Y-183042381D01*
X37567620Y-183375714D02*
X37567620Y-184042381D01*
X37329524Y-182994762D02*
X37091429Y-183709048D01*
X37710477Y-183709048D01*
X28996191Y-167437143D02*
X28948572Y-167484762D01*
X28805715Y-167532381D01*
X28710477Y-167532381D01*
X28567619Y-167484762D01*
X28472381Y-167389524D01*
X28424762Y-167294286D01*
X28377143Y-167103810D01*
X28377143Y-166960952D01*
X28424762Y-166770476D01*
X28472381Y-166675238D01*
X28567619Y-166580000D01*
X28710477Y-166532381D01*
X28805715Y-166532381D01*
X28948572Y-166580000D01*
X28996191Y-166627619D01*
X29615238Y-166532381D02*
X29805715Y-166532381D01*
X29900953Y-166580000D01*
X29996191Y-166675238D01*
X30043810Y-166865714D01*
X30043810Y-167199048D01*
X29996191Y-167389524D01*
X29900953Y-167484762D01*
X29805715Y-167532381D01*
X29615238Y-167532381D01*
X29520000Y-167484762D01*
X29424762Y-167389524D01*
X29377143Y-167199048D01*
X29377143Y-166865714D01*
X29424762Y-166675238D01*
X29520000Y-166580000D01*
X29615238Y-166532381D01*
X30472381Y-167532381D02*
X30472381Y-166532381D01*
X31043810Y-167532381D01*
X31043810Y-166532381D01*
X31520000Y-167532381D02*
X31520000Y-166532381D01*
X32091429Y-167532381D01*
X32091429Y-166532381D01*
X32329524Y-167627619D02*
X33091429Y-167627619D01*
X33520000Y-166532381D02*
X33615239Y-166532381D01*
X33710477Y-166580000D01*
X33758096Y-166627619D01*
X33805715Y-166722857D01*
X33853334Y-166913333D01*
X33853334Y-167151429D01*
X33805715Y-167341905D01*
X33758096Y-167437143D01*
X33710477Y-167484762D01*
X33615239Y-167532381D01*
X33520000Y-167532381D01*
X33424762Y-167484762D01*
X33377143Y-167437143D01*
X33329524Y-167341905D01*
X33281905Y-167151429D01*
X33281905Y-166913333D01*
X33329524Y-166722857D01*
X33377143Y-166627619D01*
X33424762Y-166580000D01*
X33520000Y-166532381D01*
X34805715Y-167532381D02*
X34234286Y-167532381D01*
X34520000Y-167532381D02*
X34520000Y-166532381D01*
X34424762Y-166675238D01*
X34329524Y-166770476D01*
X34234286Y-166818095D01*
X35139048Y-166532381D02*
X35805715Y-167532381D01*
X35805715Y-166532381D02*
X35139048Y-167532381D01*
X36377143Y-166532381D02*
X36472382Y-166532381D01*
X36567620Y-166580000D01*
X36615239Y-166627619D01*
X36662858Y-166722857D01*
X36710477Y-166913333D01*
X36710477Y-167151429D01*
X36662858Y-167341905D01*
X36615239Y-167437143D01*
X36567620Y-167484762D01*
X36472382Y-167532381D01*
X36377143Y-167532381D01*
X36281905Y-167484762D01*
X36234286Y-167437143D01*
X36186667Y-167341905D01*
X36139048Y-167151429D01*
X36139048Y-166913333D01*
X36186667Y-166722857D01*
X36234286Y-166627619D01*
X36281905Y-166580000D01*
X36377143Y-166532381D01*
X37567620Y-166865714D02*
X37567620Y-167532381D01*
X37329524Y-166484762D02*
X37091429Y-167199048D01*
X37710477Y-167199048D01*
X34076191Y-183947143D02*
X34028572Y-183994762D01*
X33885715Y-184042381D01*
X33790477Y-184042381D01*
X33647619Y-183994762D01*
X33552381Y-183899524D01*
X33504762Y-183804286D01*
X33457143Y-183613810D01*
X33457143Y-183470952D01*
X33504762Y-183280476D01*
X33552381Y-183185238D01*
X33647619Y-183090000D01*
X33790477Y-183042381D01*
X33885715Y-183042381D01*
X34028572Y-183090000D01*
X34076191Y-183137619D01*
X34695238Y-183042381D02*
X34885715Y-183042381D01*
X34980953Y-183090000D01*
X35076191Y-183185238D01*
X35123810Y-183375714D01*
X35123810Y-183709048D01*
X35076191Y-183899524D01*
X34980953Y-183994762D01*
X34885715Y-184042381D01*
X34695238Y-184042381D01*
X34600000Y-183994762D01*
X34504762Y-183899524D01*
X34457143Y-183709048D01*
X34457143Y-183375714D01*
X34504762Y-183185238D01*
X34600000Y-183090000D01*
X34695238Y-183042381D01*
X35552381Y-184042381D02*
X35552381Y-183042381D01*
X36123810Y-184042381D01*
X36123810Y-183042381D01*
X36600000Y-184042381D02*
X36600000Y-183042381D01*
X37171429Y-184042381D01*
X37171429Y-183042381D01*
X37409524Y-184137619D02*
X38171429Y-184137619D01*
X38600000Y-183042381D02*
X38695239Y-183042381D01*
X38790477Y-183090000D01*
X38838096Y-183137619D01*
X38885715Y-183232857D01*
X38933334Y-183423333D01*
X38933334Y-183661429D01*
X38885715Y-183851905D01*
X38838096Y-183947143D01*
X38790477Y-183994762D01*
X38695239Y-184042381D01*
X38600000Y-184042381D01*
X38504762Y-183994762D01*
X38457143Y-183947143D01*
X38409524Y-183851905D01*
X38361905Y-183661429D01*
X38361905Y-183423333D01*
X38409524Y-183232857D01*
X38457143Y-183137619D01*
X38504762Y-183090000D01*
X38600000Y-183042381D01*
X39885715Y-184042381D02*
X39314286Y-184042381D01*
X39600000Y-184042381D02*
X39600000Y-183042381D01*
X39504762Y-183185238D01*
X39409524Y-183280476D01*
X39314286Y-183328095D01*
X40219048Y-183042381D02*
X40885715Y-184042381D01*
X40885715Y-183042381D02*
X40219048Y-184042381D01*
X41457143Y-183042381D02*
X41552382Y-183042381D01*
X41647620Y-183090000D01*
X41695239Y-183137619D01*
X41742858Y-183232857D01*
X41790477Y-183423333D01*
X41790477Y-183661429D01*
X41742858Y-183851905D01*
X41695239Y-183947143D01*
X41647620Y-183994762D01*
X41552382Y-184042381D01*
X41457143Y-184042381D01*
X41361905Y-183994762D01*
X41314286Y-183947143D01*
X41266667Y-183851905D01*
X41219048Y-183661429D01*
X41219048Y-183423333D01*
X41266667Y-183232857D01*
X41314286Y-183137619D01*
X41361905Y-183090000D01*
X41457143Y-183042381D01*
X42647620Y-183375714D02*
X42647620Y-184042381D01*
X42409524Y-182994762D02*
X42171429Y-183709048D01*
X42790477Y-183709048D01*
X34076191Y-167437143D02*
X34028572Y-167484762D01*
X33885715Y-167532381D01*
X33790477Y-167532381D01*
X33647619Y-167484762D01*
X33552381Y-167389524D01*
X33504762Y-167294286D01*
X33457143Y-167103810D01*
X33457143Y-166960952D01*
X33504762Y-166770476D01*
X33552381Y-166675238D01*
X33647619Y-166580000D01*
X33790477Y-166532381D01*
X33885715Y-166532381D01*
X34028572Y-166580000D01*
X34076191Y-166627619D01*
X34695238Y-166532381D02*
X34885715Y-166532381D01*
X34980953Y-166580000D01*
X35076191Y-166675238D01*
X35123810Y-166865714D01*
X35123810Y-167199048D01*
X35076191Y-167389524D01*
X34980953Y-167484762D01*
X34885715Y-167532381D01*
X34695238Y-167532381D01*
X34600000Y-167484762D01*
X34504762Y-167389524D01*
X34457143Y-167199048D01*
X34457143Y-166865714D01*
X34504762Y-166675238D01*
X34600000Y-166580000D01*
X34695238Y-166532381D01*
X35552381Y-167532381D02*
X35552381Y-166532381D01*
X36123810Y-167532381D01*
X36123810Y-166532381D01*
X36600000Y-167532381D02*
X36600000Y-166532381D01*
X37171429Y-167532381D01*
X37171429Y-166532381D01*
X37409524Y-167627619D02*
X38171429Y-167627619D01*
X38600000Y-166532381D02*
X38695239Y-166532381D01*
X38790477Y-166580000D01*
X38838096Y-166627619D01*
X38885715Y-166722857D01*
X38933334Y-166913333D01*
X38933334Y-167151429D01*
X38885715Y-167341905D01*
X38838096Y-167437143D01*
X38790477Y-167484762D01*
X38695239Y-167532381D01*
X38600000Y-167532381D01*
X38504762Y-167484762D01*
X38457143Y-167437143D01*
X38409524Y-167341905D01*
X38361905Y-167151429D01*
X38361905Y-166913333D01*
X38409524Y-166722857D01*
X38457143Y-166627619D01*
X38504762Y-166580000D01*
X38600000Y-166532381D01*
X39885715Y-167532381D02*
X39314286Y-167532381D01*
X39600000Y-167532381D02*
X39600000Y-166532381D01*
X39504762Y-166675238D01*
X39409524Y-166770476D01*
X39314286Y-166818095D01*
X40219048Y-166532381D02*
X40885715Y-167532381D01*
X40885715Y-166532381D02*
X40219048Y-167532381D01*
X41457143Y-166532381D02*
X41552382Y-166532381D01*
X41647620Y-166580000D01*
X41695239Y-166627619D01*
X41742858Y-166722857D01*
X41790477Y-166913333D01*
X41790477Y-167151429D01*
X41742858Y-167341905D01*
X41695239Y-167437143D01*
X41647620Y-167484762D01*
X41552382Y-167532381D01*
X41457143Y-167532381D01*
X41361905Y-167484762D01*
X41314286Y-167437143D01*
X41266667Y-167341905D01*
X41219048Y-167151429D01*
X41219048Y-166913333D01*
X41266667Y-166722857D01*
X41314286Y-166627619D01*
X41361905Y-166580000D01*
X41457143Y-166532381D01*
X42647620Y-166865714D02*
X42647620Y-167532381D01*
X42409524Y-166484762D02*
X42171429Y-167199048D01*
X42790477Y-167199048D01*
X39156191Y-183947143D02*
X39108572Y-183994762D01*
X38965715Y-184042381D01*
X38870477Y-184042381D01*
X38727619Y-183994762D01*
X38632381Y-183899524D01*
X38584762Y-183804286D01*
X38537143Y-183613810D01*
X38537143Y-183470952D01*
X38584762Y-183280476D01*
X38632381Y-183185238D01*
X38727619Y-183090000D01*
X38870477Y-183042381D01*
X38965715Y-183042381D01*
X39108572Y-183090000D01*
X39156191Y-183137619D01*
X39775238Y-183042381D02*
X39965715Y-183042381D01*
X40060953Y-183090000D01*
X40156191Y-183185238D01*
X40203810Y-183375714D01*
X40203810Y-183709048D01*
X40156191Y-183899524D01*
X40060953Y-183994762D01*
X39965715Y-184042381D01*
X39775238Y-184042381D01*
X39680000Y-183994762D01*
X39584762Y-183899524D01*
X39537143Y-183709048D01*
X39537143Y-183375714D01*
X39584762Y-183185238D01*
X39680000Y-183090000D01*
X39775238Y-183042381D01*
X40632381Y-184042381D02*
X40632381Y-183042381D01*
X41203810Y-184042381D01*
X41203810Y-183042381D01*
X41680000Y-184042381D02*
X41680000Y-183042381D01*
X42251429Y-184042381D01*
X42251429Y-183042381D01*
X42489524Y-184137619D02*
X43251429Y-184137619D01*
X43680000Y-183042381D02*
X43775239Y-183042381D01*
X43870477Y-183090000D01*
X43918096Y-183137619D01*
X43965715Y-183232857D01*
X44013334Y-183423333D01*
X44013334Y-183661429D01*
X43965715Y-183851905D01*
X43918096Y-183947143D01*
X43870477Y-183994762D01*
X43775239Y-184042381D01*
X43680000Y-184042381D01*
X43584762Y-183994762D01*
X43537143Y-183947143D01*
X43489524Y-183851905D01*
X43441905Y-183661429D01*
X43441905Y-183423333D01*
X43489524Y-183232857D01*
X43537143Y-183137619D01*
X43584762Y-183090000D01*
X43680000Y-183042381D01*
X44965715Y-184042381D02*
X44394286Y-184042381D01*
X44680000Y-184042381D02*
X44680000Y-183042381D01*
X44584762Y-183185238D01*
X44489524Y-183280476D01*
X44394286Y-183328095D01*
X45299048Y-183042381D02*
X45965715Y-184042381D01*
X45965715Y-183042381D02*
X45299048Y-184042381D01*
X46537143Y-183042381D02*
X46632382Y-183042381D01*
X46727620Y-183090000D01*
X46775239Y-183137619D01*
X46822858Y-183232857D01*
X46870477Y-183423333D01*
X46870477Y-183661429D01*
X46822858Y-183851905D01*
X46775239Y-183947143D01*
X46727620Y-183994762D01*
X46632382Y-184042381D01*
X46537143Y-184042381D01*
X46441905Y-183994762D01*
X46394286Y-183947143D01*
X46346667Y-183851905D01*
X46299048Y-183661429D01*
X46299048Y-183423333D01*
X46346667Y-183232857D01*
X46394286Y-183137619D01*
X46441905Y-183090000D01*
X46537143Y-183042381D01*
X47727620Y-183375714D02*
X47727620Y-184042381D01*
X47489524Y-182994762D02*
X47251429Y-183709048D01*
X47870477Y-183709048D01*
X39156191Y-167437143D02*
X39108572Y-167484762D01*
X38965715Y-167532381D01*
X38870477Y-167532381D01*
X38727619Y-167484762D01*
X38632381Y-167389524D01*
X38584762Y-167294286D01*
X38537143Y-167103810D01*
X38537143Y-166960952D01*
X38584762Y-166770476D01*
X38632381Y-166675238D01*
X38727619Y-166580000D01*
X38870477Y-166532381D01*
X38965715Y-166532381D01*
X39108572Y-166580000D01*
X39156191Y-166627619D01*
X39775238Y-166532381D02*
X39965715Y-166532381D01*
X40060953Y-166580000D01*
X40156191Y-166675238D01*
X40203810Y-166865714D01*
X40203810Y-167199048D01*
X40156191Y-167389524D01*
X40060953Y-167484762D01*
X39965715Y-167532381D01*
X39775238Y-167532381D01*
X39680000Y-167484762D01*
X39584762Y-167389524D01*
X39537143Y-167199048D01*
X39537143Y-166865714D01*
X39584762Y-166675238D01*
X39680000Y-166580000D01*
X39775238Y-166532381D01*
X40632381Y-167532381D02*
X40632381Y-166532381D01*
X41203810Y-167532381D01*
X41203810Y-166532381D01*
X41680000Y-167532381D02*
X41680000Y-166532381D01*
X42251429Y-167532381D01*
X42251429Y-166532381D01*
X42489524Y-167627619D02*
X43251429Y-167627619D01*
X43680000Y-166532381D02*
X43775239Y-166532381D01*
X43870477Y-166580000D01*
X43918096Y-166627619D01*
X43965715Y-166722857D01*
X44013334Y-166913333D01*
X44013334Y-167151429D01*
X43965715Y-167341905D01*
X43918096Y-167437143D01*
X43870477Y-167484762D01*
X43775239Y-167532381D01*
X43680000Y-167532381D01*
X43584762Y-167484762D01*
X43537143Y-167437143D01*
X43489524Y-167341905D01*
X43441905Y-167151429D01*
X43441905Y-166913333D01*
X43489524Y-166722857D01*
X43537143Y-166627619D01*
X43584762Y-166580000D01*
X43680000Y-166532381D01*
X44965715Y-167532381D02*
X44394286Y-167532381D01*
X44680000Y-167532381D02*
X44680000Y-166532381D01*
X44584762Y-166675238D01*
X44489524Y-166770476D01*
X44394286Y-166818095D01*
X45299048Y-166532381D02*
X45965715Y-167532381D01*
X45965715Y-166532381D02*
X45299048Y-167532381D01*
X46537143Y-166532381D02*
X46632382Y-166532381D01*
X46727620Y-166580000D01*
X46775239Y-166627619D01*
X46822858Y-166722857D01*
X46870477Y-166913333D01*
X46870477Y-167151429D01*
X46822858Y-167341905D01*
X46775239Y-167437143D01*
X46727620Y-167484762D01*
X46632382Y-167532381D01*
X46537143Y-167532381D01*
X46441905Y-167484762D01*
X46394286Y-167437143D01*
X46346667Y-167341905D01*
X46299048Y-167151429D01*
X46299048Y-166913333D01*
X46346667Y-166722857D01*
X46394286Y-166627619D01*
X46441905Y-166580000D01*
X46537143Y-166532381D01*
X47727620Y-166865714D02*
X47727620Y-167532381D01*
X47489524Y-166484762D02*
X47251429Y-167199048D01*
X47870477Y-167199048D01*
X44236191Y-183947143D02*
X44188572Y-183994762D01*
X44045715Y-184042381D01*
X43950477Y-184042381D01*
X43807619Y-183994762D01*
X43712381Y-183899524D01*
X43664762Y-183804286D01*
X43617143Y-183613810D01*
X43617143Y-183470952D01*
X43664762Y-183280476D01*
X43712381Y-183185238D01*
X43807619Y-183090000D01*
X43950477Y-183042381D01*
X44045715Y-183042381D01*
X44188572Y-183090000D01*
X44236191Y-183137619D01*
X44855238Y-183042381D02*
X45045715Y-183042381D01*
X45140953Y-183090000D01*
X45236191Y-183185238D01*
X45283810Y-183375714D01*
X45283810Y-183709048D01*
X45236191Y-183899524D01*
X45140953Y-183994762D01*
X45045715Y-184042381D01*
X44855238Y-184042381D01*
X44760000Y-183994762D01*
X44664762Y-183899524D01*
X44617143Y-183709048D01*
X44617143Y-183375714D01*
X44664762Y-183185238D01*
X44760000Y-183090000D01*
X44855238Y-183042381D01*
X45712381Y-184042381D02*
X45712381Y-183042381D01*
X46283810Y-184042381D01*
X46283810Y-183042381D01*
X46760000Y-184042381D02*
X46760000Y-183042381D01*
X47331429Y-184042381D01*
X47331429Y-183042381D01*
X47569524Y-184137619D02*
X48331429Y-184137619D01*
X48760000Y-183042381D02*
X48855239Y-183042381D01*
X48950477Y-183090000D01*
X48998096Y-183137619D01*
X49045715Y-183232857D01*
X49093334Y-183423333D01*
X49093334Y-183661429D01*
X49045715Y-183851905D01*
X48998096Y-183947143D01*
X48950477Y-183994762D01*
X48855239Y-184042381D01*
X48760000Y-184042381D01*
X48664762Y-183994762D01*
X48617143Y-183947143D01*
X48569524Y-183851905D01*
X48521905Y-183661429D01*
X48521905Y-183423333D01*
X48569524Y-183232857D01*
X48617143Y-183137619D01*
X48664762Y-183090000D01*
X48760000Y-183042381D01*
X50045715Y-184042381D02*
X49474286Y-184042381D01*
X49760000Y-184042381D02*
X49760000Y-183042381D01*
X49664762Y-183185238D01*
X49569524Y-183280476D01*
X49474286Y-183328095D01*
X50379048Y-183042381D02*
X51045715Y-184042381D01*
X51045715Y-183042381D02*
X50379048Y-184042381D01*
X51617143Y-183042381D02*
X51712382Y-183042381D01*
X51807620Y-183090000D01*
X51855239Y-183137619D01*
X51902858Y-183232857D01*
X51950477Y-183423333D01*
X51950477Y-183661429D01*
X51902858Y-183851905D01*
X51855239Y-183947143D01*
X51807620Y-183994762D01*
X51712382Y-184042381D01*
X51617143Y-184042381D01*
X51521905Y-183994762D01*
X51474286Y-183947143D01*
X51426667Y-183851905D01*
X51379048Y-183661429D01*
X51379048Y-183423333D01*
X51426667Y-183232857D01*
X51474286Y-183137619D01*
X51521905Y-183090000D01*
X51617143Y-183042381D01*
X52807620Y-183375714D02*
X52807620Y-184042381D01*
X52569524Y-182994762D02*
X52331429Y-183709048D01*
X52950477Y-183709048D01*
X44236191Y-167437143D02*
X44188572Y-167484762D01*
X44045715Y-167532381D01*
X43950477Y-167532381D01*
X43807619Y-167484762D01*
X43712381Y-167389524D01*
X43664762Y-167294286D01*
X43617143Y-167103810D01*
X43617143Y-166960952D01*
X43664762Y-166770476D01*
X43712381Y-166675238D01*
X43807619Y-166580000D01*
X43950477Y-166532381D01*
X44045715Y-166532381D01*
X44188572Y-166580000D01*
X44236191Y-166627619D01*
X44855238Y-166532381D02*
X45045715Y-166532381D01*
X45140953Y-166580000D01*
X45236191Y-166675238D01*
X45283810Y-166865714D01*
X45283810Y-167199048D01*
X45236191Y-167389524D01*
X45140953Y-167484762D01*
X45045715Y-167532381D01*
X44855238Y-167532381D01*
X44760000Y-167484762D01*
X44664762Y-167389524D01*
X44617143Y-167199048D01*
X44617143Y-166865714D01*
X44664762Y-166675238D01*
X44760000Y-166580000D01*
X44855238Y-166532381D01*
X45712381Y-167532381D02*
X45712381Y-166532381D01*
X46283810Y-167532381D01*
X46283810Y-166532381D01*
X46760000Y-167532381D02*
X46760000Y-166532381D01*
X47331429Y-167532381D01*
X47331429Y-166532381D01*
X47569524Y-167627619D02*
X48331429Y-167627619D01*
X48760000Y-166532381D02*
X48855239Y-166532381D01*
X48950477Y-166580000D01*
X48998096Y-166627619D01*
X49045715Y-166722857D01*
X49093334Y-166913333D01*
X49093334Y-167151429D01*
X49045715Y-167341905D01*
X48998096Y-167437143D01*
X48950477Y-167484762D01*
X48855239Y-167532381D01*
X48760000Y-167532381D01*
X48664762Y-167484762D01*
X48617143Y-167437143D01*
X48569524Y-167341905D01*
X48521905Y-167151429D01*
X48521905Y-166913333D01*
X48569524Y-166722857D01*
X48617143Y-166627619D01*
X48664762Y-166580000D01*
X48760000Y-166532381D01*
X50045715Y-167532381D02*
X49474286Y-167532381D01*
X49760000Y-167532381D02*
X49760000Y-166532381D01*
X49664762Y-166675238D01*
X49569524Y-166770476D01*
X49474286Y-166818095D01*
X50379048Y-166532381D02*
X51045715Y-167532381D01*
X51045715Y-166532381D02*
X50379048Y-167532381D01*
X51617143Y-166532381D02*
X51712382Y-166532381D01*
X51807620Y-166580000D01*
X51855239Y-166627619D01*
X51902858Y-166722857D01*
X51950477Y-166913333D01*
X51950477Y-167151429D01*
X51902858Y-167341905D01*
X51855239Y-167437143D01*
X51807620Y-167484762D01*
X51712382Y-167532381D01*
X51617143Y-167532381D01*
X51521905Y-167484762D01*
X51474286Y-167437143D01*
X51426667Y-167341905D01*
X51379048Y-167151429D01*
X51379048Y-166913333D01*
X51426667Y-166722857D01*
X51474286Y-166627619D01*
X51521905Y-166580000D01*
X51617143Y-166532381D01*
X52807620Y-166865714D02*
X52807620Y-167532381D01*
X52569524Y-166484762D02*
X52331429Y-167199048D01*
X52950477Y-167199048D01*
X49316191Y-183947143D02*
X49268572Y-183994762D01*
X49125715Y-184042381D01*
X49030477Y-184042381D01*
X48887619Y-183994762D01*
X48792381Y-183899524D01*
X48744762Y-183804286D01*
X48697143Y-183613810D01*
X48697143Y-183470952D01*
X48744762Y-183280476D01*
X48792381Y-183185238D01*
X48887619Y-183090000D01*
X49030477Y-183042381D01*
X49125715Y-183042381D01*
X49268572Y-183090000D01*
X49316191Y-183137619D01*
X49935238Y-183042381D02*
X50125715Y-183042381D01*
X50220953Y-183090000D01*
X50316191Y-183185238D01*
X50363810Y-183375714D01*
X50363810Y-183709048D01*
X50316191Y-183899524D01*
X50220953Y-183994762D01*
X50125715Y-184042381D01*
X49935238Y-184042381D01*
X49840000Y-183994762D01*
X49744762Y-183899524D01*
X49697143Y-183709048D01*
X49697143Y-183375714D01*
X49744762Y-183185238D01*
X49840000Y-183090000D01*
X49935238Y-183042381D01*
X50792381Y-184042381D02*
X50792381Y-183042381D01*
X51363810Y-184042381D01*
X51363810Y-183042381D01*
X51840000Y-184042381D02*
X51840000Y-183042381D01*
X52411429Y-184042381D01*
X52411429Y-183042381D01*
X52649524Y-184137619D02*
X53411429Y-184137619D01*
X53840000Y-183042381D02*
X53935239Y-183042381D01*
X54030477Y-183090000D01*
X54078096Y-183137619D01*
X54125715Y-183232857D01*
X54173334Y-183423333D01*
X54173334Y-183661429D01*
X54125715Y-183851905D01*
X54078096Y-183947143D01*
X54030477Y-183994762D01*
X53935239Y-184042381D01*
X53840000Y-184042381D01*
X53744762Y-183994762D01*
X53697143Y-183947143D01*
X53649524Y-183851905D01*
X53601905Y-183661429D01*
X53601905Y-183423333D01*
X53649524Y-183232857D01*
X53697143Y-183137619D01*
X53744762Y-183090000D01*
X53840000Y-183042381D01*
X55125715Y-184042381D02*
X54554286Y-184042381D01*
X54840000Y-184042381D02*
X54840000Y-183042381D01*
X54744762Y-183185238D01*
X54649524Y-183280476D01*
X54554286Y-183328095D01*
X55459048Y-183042381D02*
X56125715Y-184042381D01*
X56125715Y-183042381D02*
X55459048Y-184042381D01*
X56697143Y-183042381D02*
X56792382Y-183042381D01*
X56887620Y-183090000D01*
X56935239Y-183137619D01*
X56982858Y-183232857D01*
X57030477Y-183423333D01*
X57030477Y-183661429D01*
X56982858Y-183851905D01*
X56935239Y-183947143D01*
X56887620Y-183994762D01*
X56792382Y-184042381D01*
X56697143Y-184042381D01*
X56601905Y-183994762D01*
X56554286Y-183947143D01*
X56506667Y-183851905D01*
X56459048Y-183661429D01*
X56459048Y-183423333D01*
X56506667Y-183232857D01*
X56554286Y-183137619D01*
X56601905Y-183090000D01*
X56697143Y-183042381D01*
X57887620Y-183375714D02*
X57887620Y-184042381D01*
X57649524Y-182994762D02*
X57411429Y-183709048D01*
X58030477Y-183709048D01*
X49316191Y-167437143D02*
X49268572Y-167484762D01*
X49125715Y-167532381D01*
X49030477Y-167532381D01*
X48887619Y-167484762D01*
X48792381Y-167389524D01*
X48744762Y-167294286D01*
X48697143Y-167103810D01*
X48697143Y-166960952D01*
X48744762Y-166770476D01*
X48792381Y-166675238D01*
X48887619Y-166580000D01*
X49030477Y-166532381D01*
X49125715Y-166532381D01*
X49268572Y-166580000D01*
X49316191Y-166627619D01*
X49935238Y-166532381D02*
X50125715Y-166532381D01*
X50220953Y-166580000D01*
X50316191Y-166675238D01*
X50363810Y-166865714D01*
X50363810Y-167199048D01*
X50316191Y-167389524D01*
X50220953Y-167484762D01*
X50125715Y-167532381D01*
X49935238Y-167532381D01*
X49840000Y-167484762D01*
X49744762Y-167389524D01*
X49697143Y-167199048D01*
X49697143Y-166865714D01*
X49744762Y-166675238D01*
X49840000Y-166580000D01*
X49935238Y-166532381D01*
X50792381Y-167532381D02*
X50792381Y-166532381D01*
X51363810Y-167532381D01*
X51363810Y-166532381D01*
X51840000Y-167532381D02*
X51840000Y-166532381D01*
X52411429Y-167532381D01*
X52411429Y-166532381D01*
X52649524Y-167627619D02*
X53411429Y-167627619D01*
X53840000Y-166532381D02*
X53935239Y-166532381D01*
X54030477Y-166580000D01*
X54078096Y-166627619D01*
X54125715Y-166722857D01*
X54173334Y-166913333D01*
X54173334Y-167151429D01*
X54125715Y-167341905D01*
X54078096Y-167437143D01*
X54030477Y-167484762D01*
X53935239Y-167532381D01*
X53840000Y-167532381D01*
X53744762Y-167484762D01*
X53697143Y-167437143D01*
X53649524Y-167341905D01*
X53601905Y-167151429D01*
X53601905Y-166913333D01*
X53649524Y-166722857D01*
X53697143Y-166627619D01*
X53744762Y-166580000D01*
X53840000Y-166532381D01*
X55125715Y-167532381D02*
X54554286Y-167532381D01*
X54840000Y-167532381D02*
X54840000Y-166532381D01*
X54744762Y-166675238D01*
X54649524Y-166770476D01*
X54554286Y-166818095D01*
X55459048Y-166532381D02*
X56125715Y-167532381D01*
X56125715Y-166532381D02*
X55459048Y-167532381D01*
X56697143Y-166532381D02*
X56792382Y-166532381D01*
X56887620Y-166580000D01*
X56935239Y-166627619D01*
X56982858Y-166722857D01*
X57030477Y-166913333D01*
X57030477Y-167151429D01*
X56982858Y-167341905D01*
X56935239Y-167437143D01*
X56887620Y-167484762D01*
X56792382Y-167532381D01*
X56697143Y-167532381D01*
X56601905Y-167484762D01*
X56554286Y-167437143D01*
X56506667Y-167341905D01*
X56459048Y-167151429D01*
X56459048Y-166913333D01*
X56506667Y-166722857D01*
X56554286Y-166627619D01*
X56601905Y-166580000D01*
X56697143Y-166532381D01*
X57887620Y-166865714D02*
X57887620Y-167532381D01*
X57649524Y-166484762D02*
X57411429Y-167199048D01*
X58030477Y-167199048D01*
X54396191Y-183947143D02*
X54348572Y-183994762D01*
X54205715Y-184042381D01*
X54110477Y-184042381D01*
X53967619Y-183994762D01*
X53872381Y-183899524D01*
X53824762Y-183804286D01*
X53777143Y-183613810D01*
X53777143Y-183470952D01*
X53824762Y-183280476D01*
X53872381Y-183185238D01*
X53967619Y-183090000D01*
X54110477Y-183042381D01*
X54205715Y-183042381D01*
X54348572Y-183090000D01*
X54396191Y-183137619D01*
X55015238Y-183042381D02*
X55205715Y-183042381D01*
X55300953Y-183090000D01*
X55396191Y-183185238D01*
X55443810Y-183375714D01*
X55443810Y-183709048D01*
X55396191Y-183899524D01*
X55300953Y-183994762D01*
X55205715Y-184042381D01*
X55015238Y-184042381D01*
X54920000Y-183994762D01*
X54824762Y-183899524D01*
X54777143Y-183709048D01*
X54777143Y-183375714D01*
X54824762Y-183185238D01*
X54920000Y-183090000D01*
X55015238Y-183042381D01*
X55872381Y-184042381D02*
X55872381Y-183042381D01*
X56443810Y-184042381D01*
X56443810Y-183042381D01*
X56920000Y-184042381D02*
X56920000Y-183042381D01*
X57491429Y-184042381D01*
X57491429Y-183042381D01*
X57729524Y-184137619D02*
X58491429Y-184137619D01*
X58920000Y-183042381D02*
X59015239Y-183042381D01*
X59110477Y-183090000D01*
X59158096Y-183137619D01*
X59205715Y-183232857D01*
X59253334Y-183423333D01*
X59253334Y-183661429D01*
X59205715Y-183851905D01*
X59158096Y-183947143D01*
X59110477Y-183994762D01*
X59015239Y-184042381D01*
X58920000Y-184042381D01*
X58824762Y-183994762D01*
X58777143Y-183947143D01*
X58729524Y-183851905D01*
X58681905Y-183661429D01*
X58681905Y-183423333D01*
X58729524Y-183232857D01*
X58777143Y-183137619D01*
X58824762Y-183090000D01*
X58920000Y-183042381D01*
X60205715Y-184042381D02*
X59634286Y-184042381D01*
X59920000Y-184042381D02*
X59920000Y-183042381D01*
X59824762Y-183185238D01*
X59729524Y-183280476D01*
X59634286Y-183328095D01*
X60539048Y-183042381D02*
X61205715Y-184042381D01*
X61205715Y-183042381D02*
X60539048Y-184042381D01*
X61777143Y-183042381D02*
X61872382Y-183042381D01*
X61967620Y-183090000D01*
X62015239Y-183137619D01*
X62062858Y-183232857D01*
X62110477Y-183423333D01*
X62110477Y-183661429D01*
X62062858Y-183851905D01*
X62015239Y-183947143D01*
X61967620Y-183994762D01*
X61872382Y-184042381D01*
X61777143Y-184042381D01*
X61681905Y-183994762D01*
X61634286Y-183947143D01*
X61586667Y-183851905D01*
X61539048Y-183661429D01*
X61539048Y-183423333D01*
X61586667Y-183232857D01*
X61634286Y-183137619D01*
X61681905Y-183090000D01*
X61777143Y-183042381D01*
X62967620Y-183375714D02*
X62967620Y-184042381D01*
X62729524Y-182994762D02*
X62491429Y-183709048D01*
X63110477Y-183709048D01*
X54396191Y-167437143D02*
X54348572Y-167484762D01*
X54205715Y-167532381D01*
X54110477Y-167532381D01*
X53967619Y-167484762D01*
X53872381Y-167389524D01*
X53824762Y-167294286D01*
X53777143Y-167103810D01*
X53777143Y-166960952D01*
X53824762Y-166770476D01*
X53872381Y-166675238D01*
X53967619Y-166580000D01*
X54110477Y-166532381D01*
X54205715Y-166532381D01*
X54348572Y-166580000D01*
X54396191Y-166627619D01*
X55015238Y-166532381D02*
X55205715Y-166532381D01*
X55300953Y-166580000D01*
X55396191Y-166675238D01*
X55443810Y-166865714D01*
X55443810Y-167199048D01*
X55396191Y-167389524D01*
X55300953Y-167484762D01*
X55205715Y-167532381D01*
X55015238Y-167532381D01*
X54920000Y-167484762D01*
X54824762Y-167389524D01*
X54777143Y-167199048D01*
X54777143Y-166865714D01*
X54824762Y-166675238D01*
X54920000Y-166580000D01*
X55015238Y-166532381D01*
X55872381Y-167532381D02*
X55872381Y-166532381D01*
X56443810Y-167532381D01*
X56443810Y-166532381D01*
X56920000Y-167532381D02*
X56920000Y-166532381D01*
X57491429Y-167532381D01*
X57491429Y-166532381D01*
X57729524Y-167627619D02*
X58491429Y-167627619D01*
X58920000Y-166532381D02*
X59015239Y-166532381D01*
X59110477Y-166580000D01*
X59158096Y-166627619D01*
X59205715Y-166722857D01*
X59253334Y-166913333D01*
X59253334Y-167151429D01*
X59205715Y-167341905D01*
X59158096Y-167437143D01*
X59110477Y-167484762D01*
X59015239Y-167532381D01*
X58920000Y-167532381D01*
X58824762Y-167484762D01*
X58777143Y-167437143D01*
X58729524Y-167341905D01*
X58681905Y-167151429D01*
X58681905Y-166913333D01*
X58729524Y-166722857D01*
X58777143Y-166627619D01*
X58824762Y-166580000D01*
X58920000Y-166532381D01*
X60205715Y-167532381D02*
X59634286Y-167532381D01*
X59920000Y-167532381D02*
X59920000Y-166532381D01*
X59824762Y-166675238D01*
X59729524Y-166770476D01*
X59634286Y-166818095D01*
X60539048Y-166532381D02*
X61205715Y-167532381D01*
X61205715Y-166532381D02*
X60539048Y-167532381D01*
X61777143Y-166532381D02*
X61872382Y-166532381D01*
X61967620Y-166580000D01*
X62015239Y-166627619D01*
X62062858Y-166722857D01*
X62110477Y-166913333D01*
X62110477Y-167151429D01*
X62062858Y-167341905D01*
X62015239Y-167437143D01*
X61967620Y-167484762D01*
X61872382Y-167532381D01*
X61777143Y-167532381D01*
X61681905Y-167484762D01*
X61634286Y-167437143D01*
X61586667Y-167341905D01*
X61539048Y-167151429D01*
X61539048Y-166913333D01*
X61586667Y-166722857D01*
X61634286Y-166627619D01*
X61681905Y-166580000D01*
X61777143Y-166532381D01*
X62967620Y-166865714D02*
X62967620Y-167532381D01*
X62729524Y-166484762D02*
X62491429Y-167199048D01*
X63110477Y-167199048D01*
X59476191Y-183947143D02*
X59428572Y-183994762D01*
X59285715Y-184042381D01*
X59190477Y-184042381D01*
X59047619Y-183994762D01*
X58952381Y-183899524D01*
X58904762Y-183804286D01*
X58857143Y-183613810D01*
X58857143Y-183470952D01*
X58904762Y-183280476D01*
X58952381Y-183185238D01*
X59047619Y-183090000D01*
X59190477Y-183042381D01*
X59285715Y-183042381D01*
X59428572Y-183090000D01*
X59476191Y-183137619D01*
X60095238Y-183042381D02*
X60285715Y-183042381D01*
X60380953Y-183090000D01*
X60476191Y-183185238D01*
X60523810Y-183375714D01*
X60523810Y-183709048D01*
X60476191Y-183899524D01*
X60380953Y-183994762D01*
X60285715Y-184042381D01*
X60095238Y-184042381D01*
X60000000Y-183994762D01*
X59904762Y-183899524D01*
X59857143Y-183709048D01*
X59857143Y-183375714D01*
X59904762Y-183185238D01*
X60000000Y-183090000D01*
X60095238Y-183042381D01*
X60952381Y-184042381D02*
X60952381Y-183042381D01*
X61523810Y-184042381D01*
X61523810Y-183042381D01*
X62000000Y-184042381D02*
X62000000Y-183042381D01*
X62571429Y-184042381D01*
X62571429Y-183042381D01*
X62809524Y-184137619D02*
X63571429Y-184137619D01*
X64000000Y-183042381D02*
X64095239Y-183042381D01*
X64190477Y-183090000D01*
X64238096Y-183137619D01*
X64285715Y-183232857D01*
X64333334Y-183423333D01*
X64333334Y-183661429D01*
X64285715Y-183851905D01*
X64238096Y-183947143D01*
X64190477Y-183994762D01*
X64095239Y-184042381D01*
X64000000Y-184042381D01*
X63904762Y-183994762D01*
X63857143Y-183947143D01*
X63809524Y-183851905D01*
X63761905Y-183661429D01*
X63761905Y-183423333D01*
X63809524Y-183232857D01*
X63857143Y-183137619D01*
X63904762Y-183090000D01*
X64000000Y-183042381D01*
X65285715Y-184042381D02*
X64714286Y-184042381D01*
X65000000Y-184042381D02*
X65000000Y-183042381D01*
X64904762Y-183185238D01*
X64809524Y-183280476D01*
X64714286Y-183328095D01*
X65619048Y-183042381D02*
X66285715Y-184042381D01*
X66285715Y-183042381D02*
X65619048Y-184042381D01*
X66857143Y-183042381D02*
X66952382Y-183042381D01*
X67047620Y-183090000D01*
X67095239Y-183137619D01*
X67142858Y-183232857D01*
X67190477Y-183423333D01*
X67190477Y-183661429D01*
X67142858Y-183851905D01*
X67095239Y-183947143D01*
X67047620Y-183994762D01*
X66952382Y-184042381D01*
X66857143Y-184042381D01*
X66761905Y-183994762D01*
X66714286Y-183947143D01*
X66666667Y-183851905D01*
X66619048Y-183661429D01*
X66619048Y-183423333D01*
X66666667Y-183232857D01*
X66714286Y-183137619D01*
X66761905Y-183090000D01*
X66857143Y-183042381D01*
X68047620Y-183375714D02*
X68047620Y-184042381D01*
X67809524Y-182994762D02*
X67571429Y-183709048D01*
X68190477Y-183709048D01*
X59476191Y-167437143D02*
X59428572Y-167484762D01*
X59285715Y-167532381D01*
X59190477Y-167532381D01*
X59047619Y-167484762D01*
X58952381Y-167389524D01*
X58904762Y-167294286D01*
X58857143Y-167103810D01*
X58857143Y-166960952D01*
X58904762Y-166770476D01*
X58952381Y-166675238D01*
X59047619Y-166580000D01*
X59190477Y-166532381D01*
X59285715Y-166532381D01*
X59428572Y-166580000D01*
X59476191Y-166627619D01*
X60095238Y-166532381D02*
X60285715Y-166532381D01*
X60380953Y-166580000D01*
X60476191Y-166675238D01*
X60523810Y-166865714D01*
X60523810Y-167199048D01*
X60476191Y-167389524D01*
X60380953Y-167484762D01*
X60285715Y-167532381D01*
X60095238Y-167532381D01*
X60000000Y-167484762D01*
X59904762Y-167389524D01*
X59857143Y-167199048D01*
X59857143Y-166865714D01*
X59904762Y-166675238D01*
X60000000Y-166580000D01*
X60095238Y-166532381D01*
X60952381Y-167532381D02*
X60952381Y-166532381D01*
X61523810Y-167532381D01*
X61523810Y-166532381D01*
X62000000Y-167532381D02*
X62000000Y-166532381D01*
X62571429Y-167532381D01*
X62571429Y-166532381D01*
X62809524Y-167627619D02*
X63571429Y-167627619D01*
X64000000Y-166532381D02*
X64095239Y-166532381D01*
X64190477Y-166580000D01*
X64238096Y-166627619D01*
X64285715Y-166722857D01*
X64333334Y-166913333D01*
X64333334Y-167151429D01*
X64285715Y-167341905D01*
X64238096Y-167437143D01*
X64190477Y-167484762D01*
X64095239Y-167532381D01*
X64000000Y-167532381D01*
X63904762Y-167484762D01*
X63857143Y-167437143D01*
X63809524Y-167341905D01*
X63761905Y-167151429D01*
X63761905Y-166913333D01*
X63809524Y-166722857D01*
X63857143Y-166627619D01*
X63904762Y-166580000D01*
X64000000Y-166532381D01*
X65285715Y-167532381D02*
X64714286Y-167532381D01*
X65000000Y-167532381D02*
X65000000Y-166532381D01*
X64904762Y-166675238D01*
X64809524Y-166770476D01*
X64714286Y-166818095D01*
X65619048Y-166532381D02*
X66285715Y-167532381D01*
X66285715Y-166532381D02*
X65619048Y-167532381D01*
X66857143Y-166532381D02*
X66952382Y-166532381D01*
X67047620Y-166580000D01*
X67095239Y-166627619D01*
X67142858Y-166722857D01*
X67190477Y-166913333D01*
X67190477Y-167151429D01*
X67142858Y-167341905D01*
X67095239Y-167437143D01*
X67047620Y-167484762D01*
X66952382Y-167532381D01*
X66857143Y-167532381D01*
X66761905Y-167484762D01*
X66714286Y-167437143D01*
X66666667Y-167341905D01*
X66619048Y-167151429D01*
X66619048Y-166913333D01*
X66666667Y-166722857D01*
X66714286Y-166627619D01*
X66761905Y-166580000D01*
X66857143Y-166532381D01*
X68047620Y-166865714D02*
X68047620Y-167532381D01*
X67809524Y-166484762D02*
X67571429Y-167199048D01*
X68190477Y-167199048D01*
X49327143Y-114513809D02*
X49374762Y-114561428D01*
X49422381Y-114704285D01*
X49422381Y-114799523D01*
X49374762Y-114942381D01*
X49279524Y-115037619D01*
X49184286Y-115085238D01*
X48993810Y-115132857D01*
X48850952Y-115132857D01*
X48660476Y-115085238D01*
X48565238Y-115037619D01*
X48470000Y-114942381D01*
X48422381Y-114799523D01*
X48422381Y-114704285D01*
X48470000Y-114561428D01*
X48517619Y-114513809D01*
X48422381Y-113894762D02*
X48422381Y-113704285D01*
X48470000Y-113609047D01*
X48565238Y-113513809D01*
X48755714Y-113466190D01*
X49089048Y-113466190D01*
X49279524Y-113513809D01*
X49374762Y-113609047D01*
X49422381Y-113704285D01*
X49422381Y-113894762D01*
X49374762Y-113990000D01*
X49279524Y-114085238D01*
X49089048Y-114132857D01*
X48755714Y-114132857D01*
X48565238Y-114085238D01*
X48470000Y-113990000D01*
X48422381Y-113894762D01*
X49422381Y-113037619D02*
X48422381Y-113037619D01*
X49422381Y-112466190D01*
X48422381Y-112466190D01*
X49422381Y-111990000D02*
X48422381Y-111990000D01*
X49422381Y-111418571D01*
X48422381Y-111418571D01*
X49517619Y-111180476D02*
X49517619Y-110418571D01*
X48422381Y-109990000D02*
X48422381Y-109894761D01*
X48470000Y-109799523D01*
X48517619Y-109751904D01*
X48612857Y-109704285D01*
X48803333Y-109656666D01*
X49041429Y-109656666D01*
X49231905Y-109704285D01*
X49327143Y-109751904D01*
X49374762Y-109799523D01*
X49422381Y-109894761D01*
X49422381Y-109990000D01*
X49374762Y-110085238D01*
X49327143Y-110132857D01*
X49231905Y-110180476D01*
X49041429Y-110228095D01*
X48803333Y-110228095D01*
X48612857Y-110180476D01*
X48517619Y-110132857D01*
X48470000Y-110085238D01*
X48422381Y-109990000D01*
X49422381Y-108704285D02*
X49422381Y-109275714D01*
X49422381Y-108990000D02*
X48422381Y-108990000D01*
X48565238Y-109085238D01*
X48660476Y-109180476D01*
X48708095Y-109275714D01*
X48422381Y-108370952D02*
X49422381Y-107704285D01*
X48422381Y-107704285D02*
X49422381Y-108370952D01*
X48422381Y-107132857D02*
X48422381Y-107037618D01*
X48470000Y-106942380D01*
X48517619Y-106894761D01*
X48612857Y-106847142D01*
X48803333Y-106799523D01*
X49041429Y-106799523D01*
X49231905Y-106847142D01*
X49327143Y-106894761D01*
X49374762Y-106942380D01*
X49422381Y-107037618D01*
X49422381Y-107132857D01*
X49374762Y-107228095D01*
X49327143Y-107275714D01*
X49231905Y-107323333D01*
X49041429Y-107370952D01*
X48803333Y-107370952D01*
X48612857Y-107323333D01*
X48517619Y-107275714D01*
X48470000Y-107228095D01*
X48422381Y-107132857D01*
X48422381Y-105894761D02*
X48422381Y-106370952D01*
X48898571Y-106418571D01*
X48850952Y-106370952D01*
X48803333Y-106275714D01*
X48803333Y-106037618D01*
X48850952Y-105942380D01*
X48898571Y-105894761D01*
X48993810Y-105847142D01*
X49231905Y-105847142D01*
X49327143Y-105894761D01*
X49374762Y-105942380D01*
X49422381Y-106037618D01*
X49422381Y-106275714D01*
X49374762Y-106370952D01*
X49327143Y-106418571D01*
X93142143Y-198968809D02*
X93189762Y-199016428D01*
X93237381Y-199159285D01*
X93237381Y-199254523D01*
X93189762Y-199397381D01*
X93094524Y-199492619D01*
X92999286Y-199540238D01*
X92808810Y-199587857D01*
X92665952Y-199587857D01*
X92475476Y-199540238D01*
X92380238Y-199492619D01*
X92285000Y-199397381D01*
X92237381Y-199254523D01*
X92237381Y-199159285D01*
X92285000Y-199016428D01*
X92332619Y-198968809D01*
X92237381Y-198349762D02*
X92237381Y-198159285D01*
X92285000Y-198064047D01*
X92380238Y-197968809D01*
X92570714Y-197921190D01*
X92904048Y-197921190D01*
X93094524Y-197968809D01*
X93189762Y-198064047D01*
X93237381Y-198159285D01*
X93237381Y-198349762D01*
X93189762Y-198445000D01*
X93094524Y-198540238D01*
X92904048Y-198587857D01*
X92570714Y-198587857D01*
X92380238Y-198540238D01*
X92285000Y-198445000D01*
X92237381Y-198349762D01*
X93237381Y-197492619D02*
X92237381Y-197492619D01*
X93237381Y-196921190D01*
X92237381Y-196921190D01*
X93237381Y-196445000D02*
X92237381Y-196445000D01*
X93237381Y-195873571D01*
X92237381Y-195873571D01*
X93332619Y-195635476D02*
X93332619Y-194873571D01*
X92237381Y-194445000D02*
X92237381Y-194349761D01*
X92285000Y-194254523D01*
X92332619Y-194206904D01*
X92427857Y-194159285D01*
X92618333Y-194111666D01*
X92856429Y-194111666D01*
X93046905Y-194159285D01*
X93142143Y-194206904D01*
X93189762Y-194254523D01*
X93237381Y-194349761D01*
X93237381Y-194445000D01*
X93189762Y-194540238D01*
X93142143Y-194587857D01*
X93046905Y-194635476D01*
X92856429Y-194683095D01*
X92618333Y-194683095D01*
X92427857Y-194635476D01*
X92332619Y-194587857D01*
X92285000Y-194540238D01*
X92237381Y-194445000D01*
X92332619Y-193730714D02*
X92285000Y-193683095D01*
X92237381Y-193587857D01*
X92237381Y-193349761D01*
X92285000Y-193254523D01*
X92332619Y-193206904D01*
X92427857Y-193159285D01*
X92523095Y-193159285D01*
X92665952Y-193206904D01*
X93237381Y-193778333D01*
X93237381Y-193159285D01*
X92237381Y-192825952D02*
X93237381Y-192159285D01*
X92237381Y-192159285D02*
X93237381Y-192825952D01*
X92237381Y-191587857D02*
X92237381Y-191492618D01*
X92285000Y-191397380D01*
X92332619Y-191349761D01*
X92427857Y-191302142D01*
X92618333Y-191254523D01*
X92856429Y-191254523D01*
X93046905Y-191302142D01*
X93142143Y-191349761D01*
X93189762Y-191397380D01*
X93237381Y-191492618D01*
X93237381Y-191587857D01*
X93189762Y-191683095D01*
X93142143Y-191730714D01*
X93046905Y-191778333D01*
X92856429Y-191825952D01*
X92618333Y-191825952D01*
X92427857Y-191778333D01*
X92332619Y-191730714D01*
X92285000Y-191683095D01*
X92237381Y-191587857D01*
X92237381Y-190349761D02*
X92237381Y-190825952D01*
X92713571Y-190873571D01*
X92665952Y-190825952D01*
X92618333Y-190730714D01*
X92618333Y-190492618D01*
X92665952Y-190397380D01*
X92713571Y-190349761D01*
X92808810Y-190302142D01*
X93046905Y-190302142D01*
X93142143Y-190349761D01*
X93189762Y-190397380D01*
X93237381Y-190492618D01*
X93237381Y-190730714D01*
X93189762Y-190825952D01*
X93142143Y-190873571D01*
X75997143Y-188173809D02*
X76044762Y-188221428D01*
X76092381Y-188364285D01*
X76092381Y-188459523D01*
X76044762Y-188602381D01*
X75949524Y-188697619D01*
X75854286Y-188745238D01*
X75663810Y-188792857D01*
X75520952Y-188792857D01*
X75330476Y-188745238D01*
X75235238Y-188697619D01*
X75140000Y-188602381D01*
X75092381Y-188459523D01*
X75092381Y-188364285D01*
X75140000Y-188221428D01*
X75187619Y-188173809D01*
X75092381Y-187554762D02*
X75092381Y-187364285D01*
X75140000Y-187269047D01*
X75235238Y-187173809D01*
X75425714Y-187126190D01*
X75759048Y-187126190D01*
X75949524Y-187173809D01*
X76044762Y-187269047D01*
X76092381Y-187364285D01*
X76092381Y-187554762D01*
X76044762Y-187650000D01*
X75949524Y-187745238D01*
X75759048Y-187792857D01*
X75425714Y-187792857D01*
X75235238Y-187745238D01*
X75140000Y-187650000D01*
X75092381Y-187554762D01*
X76092381Y-186697619D02*
X75092381Y-186697619D01*
X76092381Y-186126190D01*
X75092381Y-186126190D01*
X76092381Y-185650000D02*
X75092381Y-185650000D01*
X76092381Y-185078571D01*
X75092381Y-185078571D01*
X76187619Y-184840476D02*
X76187619Y-184078571D01*
X75092381Y-183650000D02*
X75092381Y-183554761D01*
X75140000Y-183459523D01*
X75187619Y-183411904D01*
X75282857Y-183364285D01*
X75473333Y-183316666D01*
X75711429Y-183316666D01*
X75901905Y-183364285D01*
X75997143Y-183411904D01*
X76044762Y-183459523D01*
X76092381Y-183554761D01*
X76092381Y-183650000D01*
X76044762Y-183745238D01*
X75997143Y-183792857D01*
X75901905Y-183840476D01*
X75711429Y-183888095D01*
X75473333Y-183888095D01*
X75282857Y-183840476D01*
X75187619Y-183792857D01*
X75140000Y-183745238D01*
X75092381Y-183650000D01*
X75187619Y-182935714D02*
X75140000Y-182888095D01*
X75092381Y-182792857D01*
X75092381Y-182554761D01*
X75140000Y-182459523D01*
X75187619Y-182411904D01*
X75282857Y-182364285D01*
X75378095Y-182364285D01*
X75520952Y-182411904D01*
X76092381Y-182983333D01*
X76092381Y-182364285D01*
X75092381Y-182030952D02*
X76092381Y-181364285D01*
X75092381Y-181364285D02*
X76092381Y-182030952D01*
X75092381Y-180792857D02*
X75092381Y-180697618D01*
X75140000Y-180602380D01*
X75187619Y-180554761D01*
X75282857Y-180507142D01*
X75473333Y-180459523D01*
X75711429Y-180459523D01*
X75901905Y-180507142D01*
X75997143Y-180554761D01*
X76044762Y-180602380D01*
X76092381Y-180697618D01*
X76092381Y-180792857D01*
X76044762Y-180888095D01*
X75997143Y-180935714D01*
X75901905Y-180983333D01*
X75711429Y-181030952D01*
X75473333Y-181030952D01*
X75282857Y-180983333D01*
X75187619Y-180935714D01*
X75140000Y-180888095D01*
X75092381Y-180792857D01*
X75092381Y-179554761D02*
X75092381Y-180030952D01*
X75568571Y-180078571D01*
X75520952Y-180030952D01*
X75473333Y-179935714D01*
X75473333Y-179697618D01*
X75520952Y-179602380D01*
X75568571Y-179554761D01*
X75663810Y-179507142D01*
X75901905Y-179507142D01*
X75997143Y-179554761D01*
X76044762Y-179602380D01*
X76092381Y-179697618D01*
X76092381Y-179935714D01*
X76044762Y-180030952D01*
X75997143Y-180078571D01*
X93142143Y-177801809D02*
X93189762Y-177849428D01*
X93237381Y-177992285D01*
X93237381Y-178087523D01*
X93189762Y-178230381D01*
X93094524Y-178325619D01*
X92999286Y-178373238D01*
X92808810Y-178420857D01*
X92665952Y-178420857D01*
X92475476Y-178373238D01*
X92380238Y-178325619D01*
X92285000Y-178230381D01*
X92237381Y-178087523D01*
X92237381Y-177992285D01*
X92285000Y-177849428D01*
X92332619Y-177801809D01*
X92237381Y-177182762D02*
X92237381Y-176992285D01*
X92285000Y-176897047D01*
X92380238Y-176801809D01*
X92570714Y-176754190D01*
X92904048Y-176754190D01*
X93094524Y-176801809D01*
X93189762Y-176897047D01*
X93237381Y-176992285D01*
X93237381Y-177182762D01*
X93189762Y-177278000D01*
X93094524Y-177373238D01*
X92904048Y-177420857D01*
X92570714Y-177420857D01*
X92380238Y-177373238D01*
X92285000Y-177278000D01*
X92237381Y-177182762D01*
X93237381Y-176325619D02*
X92237381Y-176325619D01*
X93237381Y-175754190D01*
X92237381Y-175754190D01*
X93237381Y-175278000D02*
X92237381Y-175278000D01*
X93237381Y-174706571D01*
X92237381Y-174706571D01*
X93332619Y-174468476D02*
X93332619Y-173706571D01*
X92237381Y-173278000D02*
X92237381Y-173182761D01*
X92285000Y-173087523D01*
X92332619Y-173039904D01*
X92427857Y-172992285D01*
X92618333Y-172944666D01*
X92856429Y-172944666D01*
X93046905Y-172992285D01*
X93142143Y-173039904D01*
X93189762Y-173087523D01*
X93237381Y-173182761D01*
X93237381Y-173278000D01*
X93189762Y-173373238D01*
X93142143Y-173420857D01*
X93046905Y-173468476D01*
X92856429Y-173516095D01*
X92618333Y-173516095D01*
X92427857Y-173468476D01*
X92332619Y-173420857D01*
X92285000Y-173373238D01*
X92237381Y-173278000D01*
X92332619Y-172563714D02*
X92285000Y-172516095D01*
X92237381Y-172420857D01*
X92237381Y-172182761D01*
X92285000Y-172087523D01*
X92332619Y-172039904D01*
X92427857Y-171992285D01*
X92523095Y-171992285D01*
X92665952Y-172039904D01*
X93237381Y-172611333D01*
X93237381Y-171992285D01*
X92237381Y-171658952D02*
X93237381Y-170992285D01*
X92237381Y-170992285D02*
X93237381Y-171658952D01*
X92237381Y-170420857D02*
X92237381Y-170325618D01*
X92285000Y-170230380D01*
X92332619Y-170182761D01*
X92427857Y-170135142D01*
X92618333Y-170087523D01*
X92856429Y-170087523D01*
X93046905Y-170135142D01*
X93142143Y-170182761D01*
X93189762Y-170230380D01*
X93237381Y-170325618D01*
X93237381Y-170420857D01*
X93189762Y-170516095D01*
X93142143Y-170563714D01*
X93046905Y-170611333D01*
X92856429Y-170658952D01*
X92618333Y-170658952D01*
X92427857Y-170611333D01*
X92332619Y-170563714D01*
X92285000Y-170516095D01*
X92237381Y-170420857D01*
X92237381Y-169182761D02*
X92237381Y-169658952D01*
X92713571Y-169706571D01*
X92665952Y-169658952D01*
X92618333Y-169563714D01*
X92618333Y-169325618D01*
X92665952Y-169230380D01*
X92713571Y-169182761D01*
X92808810Y-169135142D01*
X93046905Y-169135142D01*
X93142143Y-169182761D01*
X93189762Y-169230380D01*
X93237381Y-169325618D01*
X93237381Y-169563714D01*
X93189762Y-169658952D01*
X93142143Y-169706571D01*
X75997143Y-167006809D02*
X76044762Y-167054428D01*
X76092381Y-167197285D01*
X76092381Y-167292523D01*
X76044762Y-167435381D01*
X75949524Y-167530619D01*
X75854286Y-167578238D01*
X75663810Y-167625857D01*
X75520952Y-167625857D01*
X75330476Y-167578238D01*
X75235238Y-167530619D01*
X75140000Y-167435381D01*
X75092381Y-167292523D01*
X75092381Y-167197285D01*
X75140000Y-167054428D01*
X75187619Y-167006809D01*
X75092381Y-166387762D02*
X75092381Y-166197285D01*
X75140000Y-166102047D01*
X75235238Y-166006809D01*
X75425714Y-165959190D01*
X75759048Y-165959190D01*
X75949524Y-166006809D01*
X76044762Y-166102047D01*
X76092381Y-166197285D01*
X76092381Y-166387762D01*
X76044762Y-166483000D01*
X75949524Y-166578238D01*
X75759048Y-166625857D01*
X75425714Y-166625857D01*
X75235238Y-166578238D01*
X75140000Y-166483000D01*
X75092381Y-166387762D01*
X76092381Y-165530619D02*
X75092381Y-165530619D01*
X76092381Y-164959190D01*
X75092381Y-164959190D01*
X76092381Y-164483000D02*
X75092381Y-164483000D01*
X76092381Y-163911571D01*
X75092381Y-163911571D01*
X76187619Y-163673476D02*
X76187619Y-162911571D01*
X75092381Y-162483000D02*
X75092381Y-162387761D01*
X75140000Y-162292523D01*
X75187619Y-162244904D01*
X75282857Y-162197285D01*
X75473333Y-162149666D01*
X75711429Y-162149666D01*
X75901905Y-162197285D01*
X75997143Y-162244904D01*
X76044762Y-162292523D01*
X76092381Y-162387761D01*
X76092381Y-162483000D01*
X76044762Y-162578238D01*
X75997143Y-162625857D01*
X75901905Y-162673476D01*
X75711429Y-162721095D01*
X75473333Y-162721095D01*
X75282857Y-162673476D01*
X75187619Y-162625857D01*
X75140000Y-162578238D01*
X75092381Y-162483000D01*
X75187619Y-161768714D02*
X75140000Y-161721095D01*
X75092381Y-161625857D01*
X75092381Y-161387761D01*
X75140000Y-161292523D01*
X75187619Y-161244904D01*
X75282857Y-161197285D01*
X75378095Y-161197285D01*
X75520952Y-161244904D01*
X76092381Y-161816333D01*
X76092381Y-161197285D01*
X75092381Y-160863952D02*
X76092381Y-160197285D01*
X75092381Y-160197285D02*
X76092381Y-160863952D01*
X75092381Y-159625857D02*
X75092381Y-159530618D01*
X75140000Y-159435380D01*
X75187619Y-159387761D01*
X75282857Y-159340142D01*
X75473333Y-159292523D01*
X75711429Y-159292523D01*
X75901905Y-159340142D01*
X75997143Y-159387761D01*
X76044762Y-159435380D01*
X76092381Y-159530618D01*
X76092381Y-159625857D01*
X76044762Y-159721095D01*
X75997143Y-159768714D01*
X75901905Y-159816333D01*
X75711429Y-159863952D01*
X75473333Y-159863952D01*
X75282857Y-159816333D01*
X75187619Y-159768714D01*
X75140000Y-159721095D01*
X75092381Y-159625857D01*
X75092381Y-158387761D02*
X75092381Y-158863952D01*
X75568571Y-158911571D01*
X75520952Y-158863952D01*
X75473333Y-158768714D01*
X75473333Y-158530618D01*
X75520952Y-158435380D01*
X75568571Y-158387761D01*
X75663810Y-158340142D01*
X75901905Y-158340142D01*
X75997143Y-158387761D01*
X76044762Y-158435380D01*
X76092381Y-158530618D01*
X76092381Y-158768714D01*
X76044762Y-158863952D01*
X75997143Y-158911571D01*
X75997143Y-145840809D02*
X76044762Y-145888428D01*
X76092381Y-146031285D01*
X76092381Y-146126523D01*
X76044762Y-146269381D01*
X75949524Y-146364619D01*
X75854286Y-146412238D01*
X75663810Y-146459857D01*
X75520952Y-146459857D01*
X75330476Y-146412238D01*
X75235238Y-146364619D01*
X75140000Y-146269381D01*
X75092381Y-146126523D01*
X75092381Y-146031285D01*
X75140000Y-145888428D01*
X75187619Y-145840809D01*
X75092381Y-145221762D02*
X75092381Y-145031285D01*
X75140000Y-144936047D01*
X75235238Y-144840809D01*
X75425714Y-144793190D01*
X75759048Y-144793190D01*
X75949524Y-144840809D01*
X76044762Y-144936047D01*
X76092381Y-145031285D01*
X76092381Y-145221762D01*
X76044762Y-145317000D01*
X75949524Y-145412238D01*
X75759048Y-145459857D01*
X75425714Y-145459857D01*
X75235238Y-145412238D01*
X75140000Y-145317000D01*
X75092381Y-145221762D01*
X76092381Y-144364619D02*
X75092381Y-144364619D01*
X76092381Y-143793190D01*
X75092381Y-143793190D01*
X76092381Y-143317000D02*
X75092381Y-143317000D01*
X76092381Y-142745571D01*
X75092381Y-142745571D01*
X76187619Y-142507476D02*
X76187619Y-141745571D01*
X75092381Y-141317000D02*
X75092381Y-141221761D01*
X75140000Y-141126523D01*
X75187619Y-141078904D01*
X75282857Y-141031285D01*
X75473333Y-140983666D01*
X75711429Y-140983666D01*
X75901905Y-141031285D01*
X75997143Y-141078904D01*
X76044762Y-141126523D01*
X76092381Y-141221761D01*
X76092381Y-141317000D01*
X76044762Y-141412238D01*
X75997143Y-141459857D01*
X75901905Y-141507476D01*
X75711429Y-141555095D01*
X75473333Y-141555095D01*
X75282857Y-141507476D01*
X75187619Y-141459857D01*
X75140000Y-141412238D01*
X75092381Y-141317000D01*
X75187619Y-140602714D02*
X75140000Y-140555095D01*
X75092381Y-140459857D01*
X75092381Y-140221761D01*
X75140000Y-140126523D01*
X75187619Y-140078904D01*
X75282857Y-140031285D01*
X75378095Y-140031285D01*
X75520952Y-140078904D01*
X76092381Y-140650333D01*
X76092381Y-140031285D01*
X75092381Y-139697952D02*
X76092381Y-139031285D01*
X75092381Y-139031285D02*
X76092381Y-139697952D01*
X75092381Y-138459857D02*
X75092381Y-138364618D01*
X75140000Y-138269380D01*
X75187619Y-138221761D01*
X75282857Y-138174142D01*
X75473333Y-138126523D01*
X75711429Y-138126523D01*
X75901905Y-138174142D01*
X75997143Y-138221761D01*
X76044762Y-138269380D01*
X76092381Y-138364618D01*
X76092381Y-138459857D01*
X76044762Y-138555095D01*
X75997143Y-138602714D01*
X75901905Y-138650333D01*
X75711429Y-138697952D01*
X75473333Y-138697952D01*
X75282857Y-138650333D01*
X75187619Y-138602714D01*
X75140000Y-138555095D01*
X75092381Y-138459857D01*
X75092381Y-137221761D02*
X75092381Y-137697952D01*
X75568571Y-137745571D01*
X75520952Y-137697952D01*
X75473333Y-137602714D01*
X75473333Y-137364618D01*
X75520952Y-137269380D01*
X75568571Y-137221761D01*
X75663810Y-137174142D01*
X75901905Y-137174142D01*
X75997143Y-137221761D01*
X76044762Y-137269380D01*
X76092381Y-137364618D01*
X76092381Y-137602714D01*
X76044762Y-137697952D01*
X75997143Y-137745571D01*
X76009543Y-124673809D02*
X76057162Y-124721428D01*
X76104781Y-124864285D01*
X76104781Y-124959523D01*
X76057162Y-125102381D01*
X75961924Y-125197619D01*
X75866686Y-125245238D01*
X75676210Y-125292857D01*
X75533352Y-125292857D01*
X75342876Y-125245238D01*
X75247638Y-125197619D01*
X75152400Y-125102381D01*
X75104781Y-124959523D01*
X75104781Y-124864285D01*
X75152400Y-124721428D01*
X75200019Y-124673809D01*
X75104781Y-124054762D02*
X75104781Y-123864285D01*
X75152400Y-123769047D01*
X75247638Y-123673809D01*
X75438114Y-123626190D01*
X75771448Y-123626190D01*
X75961924Y-123673809D01*
X76057162Y-123769047D01*
X76104781Y-123864285D01*
X76104781Y-124054762D01*
X76057162Y-124150000D01*
X75961924Y-124245238D01*
X75771448Y-124292857D01*
X75438114Y-124292857D01*
X75247638Y-124245238D01*
X75152400Y-124150000D01*
X75104781Y-124054762D01*
X76104781Y-123197619D02*
X75104781Y-123197619D01*
X76104781Y-122626190D01*
X75104781Y-122626190D01*
X76104781Y-122150000D02*
X75104781Y-122150000D01*
X76104781Y-121578571D01*
X75104781Y-121578571D01*
X76200019Y-121340476D02*
X76200019Y-120578571D01*
X75104781Y-120150000D02*
X75104781Y-120054761D01*
X75152400Y-119959523D01*
X75200019Y-119911904D01*
X75295257Y-119864285D01*
X75485733Y-119816666D01*
X75723829Y-119816666D01*
X75914305Y-119864285D01*
X76009543Y-119911904D01*
X76057162Y-119959523D01*
X76104781Y-120054761D01*
X76104781Y-120150000D01*
X76057162Y-120245238D01*
X76009543Y-120292857D01*
X75914305Y-120340476D01*
X75723829Y-120388095D01*
X75485733Y-120388095D01*
X75295257Y-120340476D01*
X75200019Y-120292857D01*
X75152400Y-120245238D01*
X75104781Y-120150000D01*
X75200019Y-119435714D02*
X75152400Y-119388095D01*
X75104781Y-119292857D01*
X75104781Y-119054761D01*
X75152400Y-118959523D01*
X75200019Y-118911904D01*
X75295257Y-118864285D01*
X75390495Y-118864285D01*
X75533352Y-118911904D01*
X76104781Y-119483333D01*
X76104781Y-118864285D01*
X75104781Y-118530952D02*
X76104781Y-117864285D01*
X75104781Y-117864285D02*
X76104781Y-118530952D01*
X75104781Y-117292857D02*
X75104781Y-117197618D01*
X75152400Y-117102380D01*
X75200019Y-117054761D01*
X75295257Y-117007142D01*
X75485733Y-116959523D01*
X75723829Y-116959523D01*
X75914305Y-117007142D01*
X76009543Y-117054761D01*
X76057162Y-117102380D01*
X76104781Y-117197618D01*
X76104781Y-117292857D01*
X76057162Y-117388095D01*
X76009543Y-117435714D01*
X75914305Y-117483333D01*
X75723829Y-117530952D01*
X75485733Y-117530952D01*
X75295257Y-117483333D01*
X75200019Y-117435714D01*
X75152400Y-117388095D01*
X75104781Y-117292857D01*
X75104781Y-116054761D02*
X75104781Y-116530952D01*
X75580971Y-116578571D01*
X75533352Y-116530952D01*
X75485733Y-116435714D01*
X75485733Y-116197618D01*
X75533352Y-116102380D01*
X75580971Y-116054761D01*
X75676210Y-116007142D01*
X75914305Y-116007142D01*
X76009543Y-116054761D01*
X76057162Y-116102380D01*
X76104781Y-116197618D01*
X76104781Y-116435714D01*
X76057162Y-116530952D01*
X76009543Y-116578571D01*
X93142143Y-156635809D02*
X93189762Y-156683428D01*
X93237381Y-156826285D01*
X93237381Y-156921523D01*
X93189762Y-157064381D01*
X93094524Y-157159619D01*
X92999286Y-157207238D01*
X92808810Y-157254857D01*
X92665952Y-157254857D01*
X92475476Y-157207238D01*
X92380238Y-157159619D01*
X92285000Y-157064381D01*
X92237381Y-156921523D01*
X92237381Y-156826285D01*
X92285000Y-156683428D01*
X92332619Y-156635809D01*
X92237381Y-156016762D02*
X92237381Y-155826285D01*
X92285000Y-155731047D01*
X92380238Y-155635809D01*
X92570714Y-155588190D01*
X92904048Y-155588190D01*
X93094524Y-155635809D01*
X93189762Y-155731047D01*
X93237381Y-155826285D01*
X93237381Y-156016762D01*
X93189762Y-156112000D01*
X93094524Y-156207238D01*
X92904048Y-156254857D01*
X92570714Y-156254857D01*
X92380238Y-156207238D01*
X92285000Y-156112000D01*
X92237381Y-156016762D01*
X93237381Y-155159619D02*
X92237381Y-155159619D01*
X93237381Y-154588190D01*
X92237381Y-154588190D01*
X93237381Y-154112000D02*
X92237381Y-154112000D01*
X93237381Y-153540571D01*
X92237381Y-153540571D01*
X93332619Y-153302476D02*
X93332619Y-152540571D01*
X92237381Y-152112000D02*
X92237381Y-152016761D01*
X92285000Y-151921523D01*
X92332619Y-151873904D01*
X92427857Y-151826285D01*
X92618333Y-151778666D01*
X92856429Y-151778666D01*
X93046905Y-151826285D01*
X93142143Y-151873904D01*
X93189762Y-151921523D01*
X93237381Y-152016761D01*
X93237381Y-152112000D01*
X93189762Y-152207238D01*
X93142143Y-152254857D01*
X93046905Y-152302476D01*
X92856429Y-152350095D01*
X92618333Y-152350095D01*
X92427857Y-152302476D01*
X92332619Y-152254857D01*
X92285000Y-152207238D01*
X92237381Y-152112000D01*
X92332619Y-151397714D02*
X92285000Y-151350095D01*
X92237381Y-151254857D01*
X92237381Y-151016761D01*
X92285000Y-150921523D01*
X92332619Y-150873904D01*
X92427857Y-150826285D01*
X92523095Y-150826285D01*
X92665952Y-150873904D01*
X93237381Y-151445333D01*
X93237381Y-150826285D01*
X92237381Y-150492952D02*
X93237381Y-149826285D01*
X92237381Y-149826285D02*
X93237381Y-150492952D01*
X92237381Y-149254857D02*
X92237381Y-149159618D01*
X92285000Y-149064380D01*
X92332619Y-149016761D01*
X92427857Y-148969142D01*
X92618333Y-148921523D01*
X92856429Y-148921523D01*
X93046905Y-148969142D01*
X93142143Y-149016761D01*
X93189762Y-149064380D01*
X93237381Y-149159618D01*
X93237381Y-149254857D01*
X93189762Y-149350095D01*
X93142143Y-149397714D01*
X93046905Y-149445333D01*
X92856429Y-149492952D01*
X92618333Y-149492952D01*
X92427857Y-149445333D01*
X92332619Y-149397714D01*
X92285000Y-149350095D01*
X92237381Y-149254857D01*
X92237381Y-148016761D02*
X92237381Y-148492952D01*
X92713571Y-148540571D01*
X92665952Y-148492952D01*
X92618333Y-148397714D01*
X92618333Y-148159618D01*
X92665952Y-148064380D01*
X92713571Y-148016761D01*
X92808810Y-147969142D01*
X93046905Y-147969142D01*
X93142143Y-148016761D01*
X93189762Y-148064380D01*
X93237381Y-148159618D01*
X93237381Y-148397714D01*
X93189762Y-148492952D01*
X93142143Y-148540571D01*
X93142143Y-135468809D02*
X93189762Y-135516428D01*
X93237381Y-135659285D01*
X93237381Y-135754523D01*
X93189762Y-135897381D01*
X93094524Y-135992619D01*
X92999286Y-136040238D01*
X92808810Y-136087857D01*
X92665952Y-136087857D01*
X92475476Y-136040238D01*
X92380238Y-135992619D01*
X92285000Y-135897381D01*
X92237381Y-135754523D01*
X92237381Y-135659285D01*
X92285000Y-135516428D01*
X92332619Y-135468809D01*
X92237381Y-134849762D02*
X92237381Y-134659285D01*
X92285000Y-134564047D01*
X92380238Y-134468809D01*
X92570714Y-134421190D01*
X92904048Y-134421190D01*
X93094524Y-134468809D01*
X93189762Y-134564047D01*
X93237381Y-134659285D01*
X93237381Y-134849762D01*
X93189762Y-134945000D01*
X93094524Y-135040238D01*
X92904048Y-135087857D01*
X92570714Y-135087857D01*
X92380238Y-135040238D01*
X92285000Y-134945000D01*
X92237381Y-134849762D01*
X93237381Y-133992619D02*
X92237381Y-133992619D01*
X93237381Y-133421190D01*
X92237381Y-133421190D01*
X93237381Y-132945000D02*
X92237381Y-132945000D01*
X93237381Y-132373571D01*
X92237381Y-132373571D01*
X93332619Y-132135476D02*
X93332619Y-131373571D01*
X92237381Y-130945000D02*
X92237381Y-130849761D01*
X92285000Y-130754523D01*
X92332619Y-130706904D01*
X92427857Y-130659285D01*
X92618333Y-130611666D01*
X92856429Y-130611666D01*
X93046905Y-130659285D01*
X93142143Y-130706904D01*
X93189762Y-130754523D01*
X93237381Y-130849761D01*
X93237381Y-130945000D01*
X93189762Y-131040238D01*
X93142143Y-131087857D01*
X93046905Y-131135476D01*
X92856429Y-131183095D01*
X92618333Y-131183095D01*
X92427857Y-131135476D01*
X92332619Y-131087857D01*
X92285000Y-131040238D01*
X92237381Y-130945000D01*
X92332619Y-130230714D02*
X92285000Y-130183095D01*
X92237381Y-130087857D01*
X92237381Y-129849761D01*
X92285000Y-129754523D01*
X92332619Y-129706904D01*
X92427857Y-129659285D01*
X92523095Y-129659285D01*
X92665952Y-129706904D01*
X93237381Y-130278333D01*
X93237381Y-129659285D01*
X92237381Y-129325952D02*
X93237381Y-128659285D01*
X92237381Y-128659285D02*
X93237381Y-129325952D01*
X92237381Y-128087857D02*
X92237381Y-127992618D01*
X92285000Y-127897380D01*
X92332619Y-127849761D01*
X92427857Y-127802142D01*
X92618333Y-127754523D01*
X92856429Y-127754523D01*
X93046905Y-127802142D01*
X93142143Y-127849761D01*
X93189762Y-127897380D01*
X93237381Y-127992618D01*
X93237381Y-128087857D01*
X93189762Y-128183095D01*
X93142143Y-128230714D01*
X93046905Y-128278333D01*
X92856429Y-128325952D01*
X92618333Y-128325952D01*
X92427857Y-128278333D01*
X92332619Y-128230714D01*
X92285000Y-128183095D01*
X92237381Y-128087857D01*
X92237381Y-126849761D02*
X92237381Y-127325952D01*
X92713571Y-127373571D01*
X92665952Y-127325952D01*
X92618333Y-127230714D01*
X92618333Y-126992618D01*
X92665952Y-126897380D01*
X92713571Y-126849761D01*
X92808810Y-126802142D01*
X93046905Y-126802142D01*
X93142143Y-126849761D01*
X93189762Y-126897380D01*
X93237381Y-126992618D01*
X93237381Y-127230714D01*
X93189762Y-127325952D01*
X93142143Y-127373571D01*
X75541143Y-111973809D02*
X75588762Y-112021428D01*
X75636381Y-112164285D01*
X75636381Y-112259523D01*
X75588762Y-112402381D01*
X75493524Y-112497619D01*
X75398286Y-112545238D01*
X75207810Y-112592857D01*
X75064952Y-112592857D01*
X74874476Y-112545238D01*
X74779238Y-112497619D01*
X74684000Y-112402381D01*
X74636381Y-112259523D01*
X74636381Y-112164285D01*
X74684000Y-112021428D01*
X74731619Y-111973809D01*
X74636381Y-111354762D02*
X74636381Y-111164285D01*
X74684000Y-111069047D01*
X74779238Y-110973809D01*
X74969714Y-110926190D01*
X75303048Y-110926190D01*
X75493524Y-110973809D01*
X75588762Y-111069047D01*
X75636381Y-111164285D01*
X75636381Y-111354762D01*
X75588762Y-111450000D01*
X75493524Y-111545238D01*
X75303048Y-111592857D01*
X74969714Y-111592857D01*
X74779238Y-111545238D01*
X74684000Y-111450000D01*
X74636381Y-111354762D01*
X75636381Y-110497619D02*
X74636381Y-110497619D01*
X75636381Y-109926190D01*
X74636381Y-109926190D01*
X75636381Y-109450000D02*
X74636381Y-109450000D01*
X75636381Y-108878571D01*
X74636381Y-108878571D01*
X75731619Y-108640476D02*
X75731619Y-107878571D01*
X74636381Y-107450000D02*
X74636381Y-107354761D01*
X74684000Y-107259523D01*
X74731619Y-107211904D01*
X74826857Y-107164285D01*
X75017333Y-107116666D01*
X75255429Y-107116666D01*
X75445905Y-107164285D01*
X75541143Y-107211904D01*
X75588762Y-107259523D01*
X75636381Y-107354761D01*
X75636381Y-107450000D01*
X75588762Y-107545238D01*
X75541143Y-107592857D01*
X75445905Y-107640476D01*
X75255429Y-107688095D01*
X75017333Y-107688095D01*
X74826857Y-107640476D01*
X74731619Y-107592857D01*
X74684000Y-107545238D01*
X74636381Y-107450000D01*
X75636381Y-106164285D02*
X75636381Y-106735714D01*
X75636381Y-106450000D02*
X74636381Y-106450000D01*
X74779238Y-106545238D01*
X74874476Y-106640476D01*
X74922095Y-106735714D01*
X74636381Y-105830952D02*
X75636381Y-105164285D01*
X74636381Y-105164285D02*
X75636381Y-105830952D01*
X74636381Y-104592857D02*
X74636381Y-104497618D01*
X74684000Y-104402380D01*
X74731619Y-104354761D01*
X74826857Y-104307142D01*
X75017333Y-104259523D01*
X75255429Y-104259523D01*
X75445905Y-104307142D01*
X75541143Y-104354761D01*
X75588762Y-104402380D01*
X75636381Y-104497618D01*
X75636381Y-104592857D01*
X75588762Y-104688095D01*
X75541143Y-104735714D01*
X75445905Y-104783333D01*
X75255429Y-104830952D01*
X75017333Y-104830952D01*
X74826857Y-104783333D01*
X74731619Y-104735714D01*
X74684000Y-104688095D01*
X74636381Y-104592857D01*
X74636381Y-103926190D02*
X74636381Y-103307142D01*
X75017333Y-103640476D01*
X75017333Y-103497618D01*
X75064952Y-103402380D01*
X75112571Y-103354761D01*
X75207810Y-103307142D01*
X75445905Y-103307142D01*
X75541143Y-103354761D01*
X75588762Y-103402380D01*
X75636381Y-103497618D01*
X75636381Y-103783333D01*
X75588762Y-103878571D01*
X75541143Y-103926190D01*
X64556191Y-89967143D02*
X64508572Y-90014762D01*
X64365715Y-90062381D01*
X64270477Y-90062381D01*
X64127619Y-90014762D01*
X64032381Y-89919524D01*
X63984762Y-89824286D01*
X63937143Y-89633810D01*
X63937143Y-89490952D01*
X63984762Y-89300476D01*
X64032381Y-89205238D01*
X64127619Y-89110000D01*
X64270477Y-89062381D01*
X64365715Y-89062381D01*
X64508572Y-89110000D01*
X64556191Y-89157619D01*
X65175238Y-89062381D02*
X65365715Y-89062381D01*
X65460953Y-89110000D01*
X65556191Y-89205238D01*
X65603810Y-89395714D01*
X65603810Y-89729048D01*
X65556191Y-89919524D01*
X65460953Y-90014762D01*
X65365715Y-90062381D01*
X65175238Y-90062381D01*
X65080000Y-90014762D01*
X64984762Y-89919524D01*
X64937143Y-89729048D01*
X64937143Y-89395714D01*
X64984762Y-89205238D01*
X65080000Y-89110000D01*
X65175238Y-89062381D01*
X66032381Y-90062381D02*
X66032381Y-89062381D01*
X66603810Y-90062381D01*
X66603810Y-89062381D01*
X67080000Y-90062381D02*
X67080000Y-89062381D01*
X67651429Y-90062381D01*
X67651429Y-89062381D01*
X67889524Y-90157619D02*
X68651429Y-90157619D01*
X69080000Y-89062381D02*
X69175239Y-89062381D01*
X69270477Y-89110000D01*
X69318096Y-89157619D01*
X69365715Y-89252857D01*
X69413334Y-89443333D01*
X69413334Y-89681429D01*
X69365715Y-89871905D01*
X69318096Y-89967143D01*
X69270477Y-90014762D01*
X69175239Y-90062381D01*
X69080000Y-90062381D01*
X68984762Y-90014762D01*
X68937143Y-89967143D01*
X68889524Y-89871905D01*
X68841905Y-89681429D01*
X68841905Y-89443333D01*
X68889524Y-89252857D01*
X68937143Y-89157619D01*
X68984762Y-89110000D01*
X69080000Y-89062381D01*
X70365715Y-90062381D02*
X69794286Y-90062381D01*
X70080000Y-90062381D02*
X70080000Y-89062381D01*
X69984762Y-89205238D01*
X69889524Y-89300476D01*
X69794286Y-89348095D01*
X70699048Y-89062381D02*
X71365715Y-90062381D01*
X71365715Y-89062381D02*
X70699048Y-90062381D01*
X71937143Y-89062381D02*
X72032382Y-89062381D01*
X72127620Y-89110000D01*
X72175239Y-89157619D01*
X72222858Y-89252857D01*
X72270477Y-89443333D01*
X72270477Y-89681429D01*
X72222858Y-89871905D01*
X72175239Y-89967143D01*
X72127620Y-90014762D01*
X72032382Y-90062381D01*
X71937143Y-90062381D01*
X71841905Y-90014762D01*
X71794286Y-89967143D01*
X71746667Y-89871905D01*
X71699048Y-89681429D01*
X71699048Y-89443333D01*
X71746667Y-89252857D01*
X71794286Y-89157619D01*
X71841905Y-89110000D01*
X71937143Y-89062381D01*
X72603810Y-89062381D02*
X73222858Y-89062381D01*
X72889524Y-89443333D01*
X73032382Y-89443333D01*
X73127620Y-89490952D01*
X73175239Y-89538571D01*
X73222858Y-89633810D01*
X73222858Y-89871905D01*
X73175239Y-89967143D01*
X73127620Y-90014762D01*
X73032382Y-90062381D01*
X72746667Y-90062381D01*
X72651429Y-90014762D01*
X72603810Y-89967143D01*
X48046191Y-89967143D02*
X47998572Y-90014762D01*
X47855715Y-90062381D01*
X47760477Y-90062381D01*
X47617619Y-90014762D01*
X47522381Y-89919524D01*
X47474762Y-89824286D01*
X47427143Y-89633810D01*
X47427143Y-89490952D01*
X47474762Y-89300476D01*
X47522381Y-89205238D01*
X47617619Y-89110000D01*
X47760477Y-89062381D01*
X47855715Y-89062381D01*
X47998572Y-89110000D01*
X48046191Y-89157619D01*
X48665238Y-89062381D02*
X48855715Y-89062381D01*
X48950953Y-89110000D01*
X49046191Y-89205238D01*
X49093810Y-89395714D01*
X49093810Y-89729048D01*
X49046191Y-89919524D01*
X48950953Y-90014762D01*
X48855715Y-90062381D01*
X48665238Y-90062381D01*
X48570000Y-90014762D01*
X48474762Y-89919524D01*
X48427143Y-89729048D01*
X48427143Y-89395714D01*
X48474762Y-89205238D01*
X48570000Y-89110000D01*
X48665238Y-89062381D01*
X49522381Y-90062381D02*
X49522381Y-89062381D01*
X50093810Y-90062381D01*
X50093810Y-89062381D01*
X50570000Y-90062381D02*
X50570000Y-89062381D01*
X51141429Y-90062381D01*
X51141429Y-89062381D01*
X51379524Y-90157619D02*
X52141429Y-90157619D01*
X52570000Y-89062381D02*
X52665239Y-89062381D01*
X52760477Y-89110000D01*
X52808096Y-89157619D01*
X52855715Y-89252857D01*
X52903334Y-89443333D01*
X52903334Y-89681429D01*
X52855715Y-89871905D01*
X52808096Y-89967143D01*
X52760477Y-90014762D01*
X52665239Y-90062381D01*
X52570000Y-90062381D01*
X52474762Y-90014762D01*
X52427143Y-89967143D01*
X52379524Y-89871905D01*
X52331905Y-89681429D01*
X52331905Y-89443333D01*
X52379524Y-89252857D01*
X52427143Y-89157619D01*
X52474762Y-89110000D01*
X52570000Y-89062381D01*
X53855715Y-90062381D02*
X53284286Y-90062381D01*
X53570000Y-90062381D02*
X53570000Y-89062381D01*
X53474762Y-89205238D01*
X53379524Y-89300476D01*
X53284286Y-89348095D01*
X54189048Y-89062381D02*
X54855715Y-90062381D01*
X54855715Y-89062381D02*
X54189048Y-90062381D01*
X55427143Y-89062381D02*
X55522382Y-89062381D01*
X55617620Y-89110000D01*
X55665239Y-89157619D01*
X55712858Y-89252857D01*
X55760477Y-89443333D01*
X55760477Y-89681429D01*
X55712858Y-89871905D01*
X55665239Y-89967143D01*
X55617620Y-90014762D01*
X55522382Y-90062381D01*
X55427143Y-90062381D01*
X55331905Y-90014762D01*
X55284286Y-89967143D01*
X55236667Y-89871905D01*
X55189048Y-89681429D01*
X55189048Y-89443333D01*
X55236667Y-89252857D01*
X55284286Y-89157619D01*
X55331905Y-89110000D01*
X55427143Y-89062381D01*
X56617620Y-89395714D02*
X56617620Y-90062381D01*
X56379524Y-89014762D02*
X56141429Y-89729048D01*
X56760477Y-89729048D01*
X30940714Y-123547619D02*
X30988333Y-123500000D01*
X31083571Y-123452381D01*
X31321667Y-123452381D01*
X31416905Y-123500000D01*
X31464524Y-123547619D01*
X31512143Y-123642857D01*
X31512143Y-123738095D01*
X31464524Y-123880952D01*
X30893095Y-124452381D01*
X31512143Y-124452381D01*
X31940714Y-124452381D02*
X31940714Y-123452381D01*
X32512143Y-124452381D01*
X32512143Y-123452381D01*
X32893095Y-123452381D02*
X33559762Y-123452381D01*
X33131190Y-124452381D01*
X34131190Y-123452381D02*
X34226429Y-123452381D01*
X34321667Y-123500000D01*
X34369286Y-123547619D01*
X34416905Y-123642857D01*
X34464524Y-123833333D01*
X34464524Y-124071429D01*
X34416905Y-124261905D01*
X34369286Y-124357143D01*
X34321667Y-124404762D01*
X34226429Y-124452381D01*
X34131190Y-124452381D01*
X34035952Y-124404762D01*
X33988333Y-124357143D01*
X33940714Y-124261905D01*
X33893095Y-124071429D01*
X33893095Y-123833333D01*
X33940714Y-123642857D01*
X33988333Y-123547619D01*
X34035952Y-123500000D01*
X34131190Y-123452381D01*
X35083571Y-123452381D02*
X35178810Y-123452381D01*
X35274048Y-123500000D01*
X35321667Y-123547619D01*
X35369286Y-123642857D01*
X35416905Y-123833333D01*
X35416905Y-124071429D01*
X35369286Y-124261905D01*
X35321667Y-124357143D01*
X35274048Y-124404762D01*
X35178810Y-124452381D01*
X35083571Y-124452381D01*
X34988333Y-124404762D01*
X34940714Y-124357143D01*
X34893095Y-124261905D01*
X34845476Y-124071429D01*
X34845476Y-123833333D01*
X34893095Y-123642857D01*
X34940714Y-123547619D01*
X34988333Y-123500000D01*
X35083571Y-123452381D01*
X36035952Y-123452381D02*
X36131191Y-123452381D01*
X36226429Y-123500000D01*
X36274048Y-123547619D01*
X36321667Y-123642857D01*
X36369286Y-123833333D01*
X36369286Y-124071429D01*
X36321667Y-124261905D01*
X36274048Y-124357143D01*
X36226429Y-124404762D01*
X36131191Y-124452381D01*
X36035952Y-124452381D01*
X35940714Y-124404762D01*
X35893095Y-124357143D01*
X35845476Y-124261905D01*
X35797857Y-124071429D01*
X35797857Y-123833333D01*
X35845476Y-123642857D01*
X35893095Y-123547619D01*
X35940714Y-123500000D01*
X36035952Y-123452381D01*
X30940714Y-136247619D02*
X30988333Y-136200000D01*
X31083571Y-136152381D01*
X31321667Y-136152381D01*
X31416905Y-136200000D01*
X31464524Y-136247619D01*
X31512143Y-136342857D01*
X31512143Y-136438095D01*
X31464524Y-136580952D01*
X30893095Y-137152381D01*
X31512143Y-137152381D01*
X31940714Y-137152381D02*
X31940714Y-136152381D01*
X32512143Y-137152381D01*
X32512143Y-136152381D01*
X32893095Y-136152381D02*
X33559762Y-136152381D01*
X33131190Y-137152381D01*
X34131190Y-136152381D02*
X34226429Y-136152381D01*
X34321667Y-136200000D01*
X34369286Y-136247619D01*
X34416905Y-136342857D01*
X34464524Y-136533333D01*
X34464524Y-136771429D01*
X34416905Y-136961905D01*
X34369286Y-137057143D01*
X34321667Y-137104762D01*
X34226429Y-137152381D01*
X34131190Y-137152381D01*
X34035952Y-137104762D01*
X33988333Y-137057143D01*
X33940714Y-136961905D01*
X33893095Y-136771429D01*
X33893095Y-136533333D01*
X33940714Y-136342857D01*
X33988333Y-136247619D01*
X34035952Y-136200000D01*
X34131190Y-136152381D01*
X35083571Y-136152381D02*
X35178810Y-136152381D01*
X35274048Y-136200000D01*
X35321667Y-136247619D01*
X35369286Y-136342857D01*
X35416905Y-136533333D01*
X35416905Y-136771429D01*
X35369286Y-136961905D01*
X35321667Y-137057143D01*
X35274048Y-137104762D01*
X35178810Y-137152381D01*
X35083571Y-137152381D01*
X34988333Y-137104762D01*
X34940714Y-137057143D01*
X34893095Y-136961905D01*
X34845476Y-136771429D01*
X34845476Y-136533333D01*
X34893095Y-136342857D01*
X34940714Y-136247619D01*
X34988333Y-136200000D01*
X35083571Y-136152381D01*
X36035952Y-136152381D02*
X36131191Y-136152381D01*
X36226429Y-136200000D01*
X36274048Y-136247619D01*
X36321667Y-136342857D01*
X36369286Y-136533333D01*
X36369286Y-136771429D01*
X36321667Y-136961905D01*
X36274048Y-137057143D01*
X36226429Y-137104762D01*
X36131191Y-137152381D01*
X36035952Y-137152381D01*
X35940714Y-137104762D01*
X35893095Y-137057143D01*
X35845476Y-136961905D01*
X35797857Y-136771429D01*
X35797857Y-136533333D01*
X35845476Y-136342857D01*
X35893095Y-136247619D01*
X35940714Y-136200000D01*
X36035952Y-136152381D01*
X30305714Y-148947619D02*
X30353333Y-148900000D01*
X30448571Y-148852381D01*
X30686667Y-148852381D01*
X30781905Y-148900000D01*
X30829524Y-148947619D01*
X30877143Y-149042857D01*
X30877143Y-149138095D01*
X30829524Y-149280952D01*
X30258095Y-149852381D01*
X30877143Y-149852381D01*
X31305714Y-149852381D02*
X31305714Y-148852381D01*
X31877143Y-149852381D01*
X31877143Y-148852381D01*
X32258095Y-148852381D02*
X32924762Y-148852381D01*
X32496190Y-149852381D01*
X33496190Y-148852381D02*
X33591429Y-148852381D01*
X33686667Y-148900000D01*
X33734286Y-148947619D01*
X33781905Y-149042857D01*
X33829524Y-149233333D01*
X33829524Y-149471429D01*
X33781905Y-149661905D01*
X33734286Y-149757143D01*
X33686667Y-149804762D01*
X33591429Y-149852381D01*
X33496190Y-149852381D01*
X33400952Y-149804762D01*
X33353333Y-149757143D01*
X33305714Y-149661905D01*
X33258095Y-149471429D01*
X33258095Y-149233333D01*
X33305714Y-149042857D01*
X33353333Y-148947619D01*
X33400952Y-148900000D01*
X33496190Y-148852381D01*
X34448571Y-148852381D02*
X34543810Y-148852381D01*
X34639048Y-148900000D01*
X34686667Y-148947619D01*
X34734286Y-149042857D01*
X34781905Y-149233333D01*
X34781905Y-149471429D01*
X34734286Y-149661905D01*
X34686667Y-149757143D01*
X34639048Y-149804762D01*
X34543810Y-149852381D01*
X34448571Y-149852381D01*
X34353333Y-149804762D01*
X34305714Y-149757143D01*
X34258095Y-149661905D01*
X34210476Y-149471429D01*
X34210476Y-149233333D01*
X34258095Y-149042857D01*
X34305714Y-148947619D01*
X34353333Y-148900000D01*
X34448571Y-148852381D01*
X35400952Y-148852381D02*
X35496191Y-148852381D01*
X35591429Y-148900000D01*
X35639048Y-148947619D01*
X35686667Y-149042857D01*
X35734286Y-149233333D01*
X35734286Y-149471429D01*
X35686667Y-149661905D01*
X35639048Y-149757143D01*
X35591429Y-149804762D01*
X35496191Y-149852381D01*
X35400952Y-149852381D01*
X35305714Y-149804762D01*
X35258095Y-149757143D01*
X35210476Y-149661905D01*
X35162857Y-149471429D01*
X35162857Y-149233333D01*
X35210476Y-149042857D01*
X35258095Y-148947619D01*
X35305714Y-148900000D01*
X35400952Y-148852381D01*
X28392381Y-132770476D02*
X28392381Y-133341905D01*
X28392381Y-133056191D02*
X27392381Y-133056191D01*
X27535238Y-133151429D01*
X27630476Y-133246667D01*
X27678095Y-133341905D01*
X27392381Y-132151429D02*
X27392381Y-132056190D01*
X27440000Y-131960952D01*
X27487619Y-131913333D01*
X27582857Y-131865714D01*
X27773333Y-131818095D01*
X28011429Y-131818095D01*
X28201905Y-131865714D01*
X28297143Y-131913333D01*
X28344762Y-131960952D01*
X28392381Y-132056190D01*
X28392381Y-132151429D01*
X28344762Y-132246667D01*
X28297143Y-132294286D01*
X28201905Y-132341905D01*
X28011429Y-132389524D01*
X27773333Y-132389524D01*
X27582857Y-132341905D01*
X27487619Y-132294286D01*
X27440000Y-132246667D01*
X27392381Y-132151429D01*
X28392381Y-131389524D02*
X27392381Y-131389524D01*
X28392381Y-130818095D02*
X27820952Y-131246667D01*
X27392381Y-130818095D02*
X27963810Y-131389524D01*
X37536381Y-132770476D02*
X37536381Y-133341905D01*
X37536381Y-133056191D02*
X36536381Y-133056191D01*
X36679238Y-133151429D01*
X36774476Y-133246667D01*
X36822095Y-133341905D01*
X36536381Y-132151429D02*
X36536381Y-132056190D01*
X36584000Y-131960952D01*
X36631619Y-131913333D01*
X36726857Y-131865714D01*
X36917333Y-131818095D01*
X37155429Y-131818095D01*
X37345905Y-131865714D01*
X37441143Y-131913333D01*
X37488762Y-131960952D01*
X37536381Y-132056190D01*
X37536381Y-132151429D01*
X37488762Y-132246667D01*
X37441143Y-132294286D01*
X37345905Y-132341905D01*
X37155429Y-132389524D01*
X36917333Y-132389524D01*
X36726857Y-132341905D01*
X36631619Y-132294286D01*
X36584000Y-132246667D01*
X36536381Y-132151429D01*
X37536381Y-131389524D02*
X36536381Y-131389524D01*
X37536381Y-130818095D02*
X36964952Y-131246667D01*
X36536381Y-130818095D02*
X37107810Y-131389524D01*
X28392381Y-145470476D02*
X28392381Y-146041905D01*
X28392381Y-145756191D02*
X27392381Y-145756191D01*
X27535238Y-145851429D01*
X27630476Y-145946667D01*
X27678095Y-146041905D01*
X27392381Y-144851429D02*
X27392381Y-144756190D01*
X27440000Y-144660952D01*
X27487619Y-144613333D01*
X27582857Y-144565714D01*
X27773333Y-144518095D01*
X28011429Y-144518095D01*
X28201905Y-144565714D01*
X28297143Y-144613333D01*
X28344762Y-144660952D01*
X28392381Y-144756190D01*
X28392381Y-144851429D01*
X28344762Y-144946667D01*
X28297143Y-144994286D01*
X28201905Y-145041905D01*
X28011429Y-145089524D01*
X27773333Y-145089524D01*
X27582857Y-145041905D01*
X27487619Y-144994286D01*
X27440000Y-144946667D01*
X27392381Y-144851429D01*
X28392381Y-144089524D02*
X27392381Y-144089524D01*
X28392381Y-143518095D02*
X27820952Y-143946667D01*
X27392381Y-143518095D02*
X27963810Y-144089524D01*
X37536381Y-145470476D02*
X37536381Y-146041905D01*
X37536381Y-145756191D02*
X36536381Y-145756191D01*
X36679238Y-145851429D01*
X36774476Y-145946667D01*
X36822095Y-146041905D01*
X36536381Y-144851429D02*
X36536381Y-144756190D01*
X36584000Y-144660952D01*
X36631619Y-144613333D01*
X36726857Y-144565714D01*
X36917333Y-144518095D01*
X37155429Y-144518095D01*
X37345905Y-144565714D01*
X37441143Y-144613333D01*
X37488762Y-144660952D01*
X37536381Y-144756190D01*
X37536381Y-144851429D01*
X37488762Y-144946667D01*
X37441143Y-144994286D01*
X37345905Y-145041905D01*
X37155429Y-145089524D01*
X36917333Y-145089524D01*
X36726857Y-145041905D01*
X36631619Y-144994286D01*
X36584000Y-144946667D01*
X36536381Y-144851429D01*
X37536381Y-144089524D02*
X36536381Y-144089524D01*
X37536381Y-143518095D02*
X36964952Y-143946667D01*
X36536381Y-143518095D02*
X37107810Y-144089524D01*
X28392381Y-158170476D02*
X28392381Y-158741905D01*
X28392381Y-158456191D02*
X27392381Y-158456191D01*
X27535238Y-158551429D01*
X27630476Y-158646667D01*
X27678095Y-158741905D01*
X27392381Y-157551429D02*
X27392381Y-157456190D01*
X27440000Y-157360952D01*
X27487619Y-157313333D01*
X27582857Y-157265714D01*
X27773333Y-157218095D01*
X28011429Y-157218095D01*
X28201905Y-157265714D01*
X28297143Y-157313333D01*
X28344762Y-157360952D01*
X28392381Y-157456190D01*
X28392381Y-157551429D01*
X28344762Y-157646667D01*
X28297143Y-157694286D01*
X28201905Y-157741905D01*
X28011429Y-157789524D01*
X27773333Y-157789524D01*
X27582857Y-157741905D01*
X27487619Y-157694286D01*
X27440000Y-157646667D01*
X27392381Y-157551429D01*
X28392381Y-156789524D02*
X27392381Y-156789524D01*
X28392381Y-156218095D02*
X27820952Y-156646667D01*
X27392381Y-156218095D02*
X27963810Y-156789524D01*
X37536381Y-158170476D02*
X37536381Y-158741905D01*
X37536381Y-158456191D02*
X36536381Y-158456191D01*
X36679238Y-158551429D01*
X36774476Y-158646667D01*
X36822095Y-158741905D01*
X36536381Y-157551429D02*
X36536381Y-157456190D01*
X36584000Y-157360952D01*
X36631619Y-157313333D01*
X36726857Y-157265714D01*
X36917333Y-157218095D01*
X37155429Y-157218095D01*
X37345905Y-157265714D01*
X37441143Y-157313333D01*
X37488762Y-157360952D01*
X37536381Y-157456190D01*
X37536381Y-157551429D01*
X37488762Y-157646667D01*
X37441143Y-157694286D01*
X37345905Y-157741905D01*
X37155429Y-157789524D01*
X36917333Y-157789524D01*
X36726857Y-157741905D01*
X36631619Y-157694286D01*
X36584000Y-157646667D01*
X36536381Y-157551429D01*
X37536381Y-156789524D02*
X36536381Y-156789524D01*
X37536381Y-156218095D02*
X36964952Y-156646667D01*
X36536381Y-156218095D02*
X37107810Y-156789524D01*
X44339048Y-137612381D02*
X44005714Y-137136190D01*
X43767619Y-137612381D02*
X43767619Y-136612381D01*
X44148572Y-136612381D01*
X44243810Y-136660000D01*
X44291429Y-136707619D01*
X44339048Y-136802857D01*
X44339048Y-136945714D01*
X44291429Y-137040952D01*
X44243810Y-137088571D01*
X44148572Y-137136190D01*
X43767619Y-137136190D01*
X44529524Y-137707619D02*
X45291429Y-137707619D01*
X45481905Y-137564762D02*
X45624762Y-137612381D01*
X45862858Y-137612381D01*
X45958096Y-137564762D01*
X46005715Y-137517143D01*
X46053334Y-137421905D01*
X46053334Y-137326667D01*
X46005715Y-137231429D01*
X45958096Y-137183810D01*
X45862858Y-137136190D01*
X45672381Y-137088571D01*
X45577143Y-137040952D01*
X45529524Y-136993333D01*
X45481905Y-136898095D01*
X45481905Y-136802857D01*
X45529524Y-136707619D01*
X45577143Y-136660000D01*
X45672381Y-136612381D01*
X45910477Y-136612381D01*
X46053334Y-136660000D01*
X46481905Y-137088571D02*
X46815239Y-137088571D01*
X46958096Y-137612381D02*
X46481905Y-137612381D01*
X46481905Y-136612381D01*
X46958096Y-136612381D01*
X47243810Y-136612381D02*
X47815239Y-136612381D01*
X47529524Y-137612381D02*
X47529524Y-136612381D01*
X32909048Y-113736381D02*
X32575714Y-113260190D01*
X32337619Y-113736381D02*
X32337619Y-112736381D01*
X32718572Y-112736381D01*
X32813810Y-112784000D01*
X32861429Y-112831619D01*
X32909048Y-112926857D01*
X32909048Y-113069714D01*
X32861429Y-113164952D01*
X32813810Y-113212571D01*
X32718572Y-113260190D01*
X32337619Y-113260190D01*
X33099524Y-113831619D02*
X33861429Y-113831619D01*
X34051905Y-113688762D02*
X34194762Y-113736381D01*
X34432858Y-113736381D01*
X34528096Y-113688762D01*
X34575715Y-113641143D01*
X34623334Y-113545905D01*
X34623334Y-113450667D01*
X34575715Y-113355429D01*
X34528096Y-113307810D01*
X34432858Y-113260190D01*
X34242381Y-113212571D01*
X34147143Y-113164952D01*
X34099524Y-113117333D01*
X34051905Y-113022095D01*
X34051905Y-112926857D01*
X34099524Y-112831619D01*
X34147143Y-112784000D01*
X34242381Y-112736381D01*
X34480477Y-112736381D01*
X34623334Y-112784000D01*
X35051905Y-113212571D02*
X35385239Y-113212571D01*
X35528096Y-113736381D02*
X35051905Y-113736381D01*
X35051905Y-112736381D01*
X35528096Y-112736381D01*
X35813810Y-112736381D02*
X36385239Y-112736381D01*
X36099524Y-113736381D02*
X36099524Y-112736381D01*
X19534286Y-95035714D02*
X19534286Y-95702381D01*
X19296190Y-94654762D02*
X19058095Y-95369048D01*
X19677143Y-95369048D01*
X19962857Y-94702381D02*
X20629524Y-94702381D01*
X20200952Y-95702381D01*
X21010476Y-95702381D02*
X21010476Y-94702381D01*
X21581905Y-95702381D02*
X21153333Y-95130952D01*
X21581905Y-94702381D02*
X21010476Y-95273810D01*
X32258096Y-95289714D02*
X32258096Y-95956381D01*
X32020000Y-94908762D02*
X31781905Y-95623048D01*
X32400953Y-95623048D01*
X32686667Y-94956381D02*
X33353334Y-94956381D01*
X32924762Y-95956381D01*
X33924762Y-94956381D02*
X34020001Y-94956381D01*
X34115239Y-95004000D01*
X34162858Y-95051619D01*
X34210477Y-95146857D01*
X34258096Y-95337333D01*
X34258096Y-95575429D01*
X34210477Y-95765905D01*
X34162858Y-95861143D01*
X34115239Y-95908762D01*
X34020001Y-95956381D01*
X33924762Y-95956381D01*
X33829524Y-95908762D01*
X33781905Y-95861143D01*
X33734286Y-95765905D01*
X33686667Y-95575429D01*
X33686667Y-95337333D01*
X33734286Y-95146857D01*
X33781905Y-95051619D01*
X33829524Y-95004000D01*
X33924762Y-94956381D01*
X19534286Y-91225714D02*
X19534286Y-91892381D01*
X19296190Y-90844762D02*
X19058095Y-91559048D01*
X19677143Y-91559048D01*
X19962857Y-90892381D02*
X20629524Y-90892381D01*
X20200952Y-91892381D01*
X21010476Y-91892381D02*
X21010476Y-90892381D01*
X21581905Y-91892381D02*
X21153333Y-91320952D01*
X21581905Y-90892381D02*
X21010476Y-91463810D01*
X32258096Y-91225714D02*
X32258096Y-91892381D01*
X32020000Y-90844762D02*
X31781905Y-91559048D01*
X32400953Y-91559048D01*
X32686667Y-90892381D02*
X33353334Y-90892381D01*
X32924762Y-91892381D01*
X33924762Y-90892381D02*
X34020001Y-90892381D01*
X34115239Y-90940000D01*
X34162858Y-90987619D01*
X34210477Y-91082857D01*
X34258096Y-91273333D01*
X34258096Y-91511429D01*
X34210477Y-91701905D01*
X34162858Y-91797143D01*
X34115239Y-91844762D01*
X34020001Y-91892381D01*
X33924762Y-91892381D01*
X33829524Y-91844762D01*
X33781905Y-91797143D01*
X33734286Y-91701905D01*
X33686667Y-91511429D01*
X33686667Y-91273333D01*
X33734286Y-91082857D01*
X33781905Y-90987619D01*
X33829524Y-90940000D01*
X33924762Y-90892381D01*
X13930952Y-101492381D02*
X13930952Y-100492381D01*
X14311905Y-100492381D01*
X14407143Y-100540000D01*
X14454762Y-100587619D01*
X14502381Y-100682857D01*
X14502381Y-100825714D01*
X14454762Y-100920952D01*
X14407143Y-100968571D01*
X14311905Y-101016190D01*
X13930952Y-101016190D01*
X14930952Y-101492381D02*
X14930952Y-100825714D01*
X14930952Y-100492381D02*
X14883333Y-100540000D01*
X14930952Y-100587619D01*
X14978571Y-100540000D01*
X14930952Y-100492381D01*
X14930952Y-100587619D01*
X15359523Y-100587619D02*
X15407142Y-100540000D01*
X15502380Y-100492381D01*
X15740476Y-100492381D01*
X15835714Y-100540000D01*
X15883333Y-100587619D01*
X15930952Y-100682857D01*
X15930952Y-100778095D01*
X15883333Y-100920952D01*
X15311904Y-101492381D01*
X15930952Y-101492381D01*
X16121428Y-101587619D02*
X16883333Y-101587619D01*
X17692857Y-101397143D02*
X17645238Y-101444762D01*
X17502381Y-101492381D01*
X17407143Y-101492381D01*
X17264285Y-101444762D01*
X17169047Y-101349524D01*
X17121428Y-101254286D01*
X17073809Y-101063810D01*
X17073809Y-100920952D01*
X17121428Y-100730476D01*
X17169047Y-100635238D01*
X17264285Y-100540000D01*
X17407143Y-100492381D01*
X17502381Y-100492381D01*
X17645238Y-100540000D01*
X17692857Y-100587619D01*
X18264285Y-101492381D02*
X18169047Y-101444762D01*
X18121428Y-101397143D01*
X18073809Y-101301905D01*
X18073809Y-101016190D01*
X18121428Y-100920952D01*
X18169047Y-100873333D01*
X18264285Y-100825714D01*
X18407143Y-100825714D01*
X18502381Y-100873333D01*
X18550000Y-100920952D01*
X18597619Y-101016190D01*
X18597619Y-101301905D01*
X18550000Y-101397143D01*
X18502381Y-101444762D01*
X18407143Y-101492381D01*
X18264285Y-101492381D01*
X19026190Y-100825714D02*
X19026190Y-101492381D01*
X19026190Y-100920952D02*
X19073809Y-100873333D01*
X19169047Y-100825714D01*
X19311905Y-100825714D01*
X19407143Y-100873333D01*
X19454762Y-100968571D01*
X19454762Y-101492381D01*
X19930952Y-100825714D02*
X19930952Y-101492381D01*
X19930952Y-100920952D02*
X19978571Y-100873333D01*
X20073809Y-100825714D01*
X20216667Y-100825714D01*
X20311905Y-100873333D01*
X20359524Y-100968571D01*
X20359524Y-101492381D01*
X21216667Y-101444762D02*
X21121429Y-101492381D01*
X20930952Y-101492381D01*
X20835714Y-101444762D01*
X20788095Y-101349524D01*
X20788095Y-100968571D01*
X20835714Y-100873333D01*
X20930952Y-100825714D01*
X21121429Y-100825714D01*
X21216667Y-100873333D01*
X21264286Y-100968571D01*
X21264286Y-101063810D01*
X20788095Y-101159048D01*
X22121429Y-101444762D02*
X22026191Y-101492381D01*
X21835714Y-101492381D01*
X21740476Y-101444762D01*
X21692857Y-101397143D01*
X21645238Y-101301905D01*
X21645238Y-101016190D01*
X21692857Y-100920952D01*
X21740476Y-100873333D01*
X21835714Y-100825714D01*
X22026191Y-100825714D01*
X22121429Y-100873333D01*
X22407143Y-100825714D02*
X22788095Y-100825714D01*
X22550000Y-100492381D02*
X22550000Y-101349524D01*
X22597619Y-101444762D01*
X22692857Y-101492381D01*
X22788095Y-101492381D01*
X23264286Y-101492381D02*
X23169048Y-101444762D01*
X23121429Y-101397143D01*
X23073810Y-101301905D01*
X23073810Y-101016190D01*
X23121429Y-100920952D01*
X23169048Y-100873333D01*
X23264286Y-100825714D01*
X23407144Y-100825714D01*
X23502382Y-100873333D01*
X23550001Y-100920952D01*
X23597620Y-101016190D01*
X23597620Y-101301905D01*
X23550001Y-101397143D01*
X23502382Y-101444762D01*
X23407144Y-101492381D01*
X23264286Y-101492381D01*
X24026191Y-101492381D02*
X24026191Y-100825714D01*
X24026191Y-101016190D02*
X24073810Y-100920952D01*
X24121429Y-100873333D01*
X24216667Y-100825714D01*
X24311906Y-100825714D01*
X39737143Y-161750476D02*
X39784762Y-161798095D01*
X39832381Y-161940952D01*
X39832381Y-162036190D01*
X39784762Y-162179048D01*
X39689524Y-162274286D01*
X39594286Y-162321905D01*
X39403810Y-162369524D01*
X39260952Y-162369524D01*
X39070476Y-162321905D01*
X38975238Y-162274286D01*
X38880000Y-162179048D01*
X38832381Y-162036190D01*
X38832381Y-161940952D01*
X38880000Y-161798095D01*
X38927619Y-161750476D01*
X39832381Y-161321905D02*
X38832381Y-161321905D01*
X38832381Y-160940952D01*
X38880000Y-160845714D01*
X38927619Y-160798095D01*
X39022857Y-160750476D01*
X39165714Y-160750476D01*
X39260952Y-160798095D01*
X39308571Y-160845714D01*
X39356190Y-160940952D01*
X39356190Y-161321905D01*
M02*
