G04 #@! TF.FileFunction,Copper,L2,Bot,Signal*
%FSLAX46Y46*%
G04 Gerber Fmt 4.6, Leading zero omitted, Abs format (unit mm)*
G04 Created by KiCad (PCBNEW 4.0.2-stable) date Friday, 12 August 2016 'pmt' 16:12:33*
%MOMM*%
G01*
G04 APERTURE LIST*
%ADD10C,0.100000*%
%ADD11R,1.300000X1.300000*%
%ADD12C,1.300000*%
%ADD13R,1.400000X1.400000*%
%ADD14C,1.400000*%
%ADD15R,3.500120X3.500120*%
%ADD16C,1.800000*%
%ADD17R,2.032000X1.727200*%
%ADD18O,2.032000X1.727200*%
%ADD19R,1.727200X2.032000*%
%ADD20O,1.727200X2.032000*%
%ADD21R,1.727200X1.727200*%
%ADD22O,1.727200X1.727200*%
%ADD23C,1.000760*%
%ADD24C,1.998980*%
%ADD25R,2.032000X2.032000*%
%ADD26C,2.032000*%
%ADD27C,1.600000*%
%ADD28C,0.600000*%
%ADD29C,0.400000*%
G04 APERTURE END LIST*
D10*
D11*
X29210000Y-118650000D03*
D12*
X29210000Y-120650000D03*
D13*
X36195000Y-117555000D03*
D14*
X36195000Y-122555000D03*
D13*
X49530000Y-158750000D03*
D14*
X49530000Y-163750000D03*
D15*
X102423000Y-104148140D03*
X102423000Y-98148660D03*
X97724000Y-101148400D03*
D16*
X102423000Y-93948000D03*
D15*
X84008000Y-104148140D03*
X84008000Y-98148660D03*
X79309000Y-101148400D03*
D16*
X84008000Y-93948000D03*
D17*
X22860000Y-186690000D03*
D18*
X22860000Y-189230000D03*
X22860000Y-191770000D03*
X22860000Y-194310000D03*
D17*
X22860000Y-170180000D03*
D18*
X22860000Y-172720000D03*
X22860000Y-175260000D03*
X22860000Y-177800000D03*
D17*
X27940000Y-186690000D03*
D18*
X27940000Y-189230000D03*
X27940000Y-191770000D03*
X27940000Y-194310000D03*
D17*
X27940000Y-170180000D03*
D18*
X27940000Y-172720000D03*
X27940000Y-175260000D03*
X27940000Y-177800000D03*
D17*
X33020000Y-186690000D03*
D18*
X33020000Y-189230000D03*
X33020000Y-191770000D03*
X33020000Y-194310000D03*
D17*
X33020000Y-170180000D03*
D18*
X33020000Y-172720000D03*
X33020000Y-175260000D03*
X33020000Y-177800000D03*
D17*
X38100000Y-186690000D03*
D18*
X38100000Y-189230000D03*
X38100000Y-191770000D03*
X38100000Y-194310000D03*
D17*
X38100000Y-170180000D03*
D18*
X38100000Y-172720000D03*
X38100000Y-175260000D03*
X38100000Y-177800000D03*
D17*
X43180000Y-186690000D03*
D18*
X43180000Y-189230000D03*
X43180000Y-191770000D03*
X43180000Y-194310000D03*
D17*
X43180000Y-170180000D03*
D18*
X43180000Y-172720000D03*
X43180000Y-175260000D03*
X43180000Y-177800000D03*
D17*
X48260000Y-186690000D03*
D18*
X48260000Y-189230000D03*
X48260000Y-191770000D03*
X48260000Y-194310000D03*
D17*
X48260000Y-170180000D03*
D18*
X48260000Y-172720000D03*
X48260000Y-175260000D03*
X48260000Y-177800000D03*
D17*
X53340000Y-186690000D03*
D18*
X53340000Y-189230000D03*
X53340000Y-191770000D03*
X53340000Y-194310000D03*
D17*
X53340000Y-170180000D03*
D18*
X53340000Y-172720000D03*
X53340000Y-175260000D03*
X53340000Y-177800000D03*
D17*
X58420000Y-186690000D03*
D18*
X58420000Y-189230000D03*
X58420000Y-191770000D03*
X58420000Y-194310000D03*
D17*
X58420000Y-170180000D03*
D18*
X58420000Y-172720000D03*
X58420000Y-175260000D03*
X58420000Y-177800000D03*
D17*
X63500000Y-186690000D03*
D18*
X63500000Y-189230000D03*
X63500000Y-191770000D03*
X63500000Y-194310000D03*
D17*
X63500000Y-170180000D03*
D18*
X63500000Y-172720000D03*
X63500000Y-175260000D03*
X63500000Y-177800000D03*
D19*
X52070000Y-110490000D03*
D20*
X54610000Y-110490000D03*
X57150000Y-110490000D03*
X59690000Y-110490000D03*
X62230000Y-110490000D03*
D21*
X95885000Y-194945000D03*
D22*
X95885000Y-192405000D03*
X98425000Y-194945000D03*
X98425000Y-192405000D03*
X100965000Y-194945000D03*
X100965000Y-192405000D03*
X103505000Y-194945000D03*
X103505000Y-192405000D03*
X106045000Y-194945000D03*
X106045000Y-192405000D03*
D21*
X78740000Y-184150000D03*
D22*
X78740000Y-181610000D03*
X81280000Y-184150000D03*
X81280000Y-181610000D03*
X83820000Y-184150000D03*
X83820000Y-181610000D03*
X86360000Y-184150000D03*
X86360000Y-181610000D03*
X88900000Y-184150000D03*
X88900000Y-181610000D03*
D21*
X95885000Y-173778000D03*
D22*
X95885000Y-171238000D03*
X98425000Y-173778000D03*
X98425000Y-171238000D03*
X100965000Y-173778000D03*
X100965000Y-171238000D03*
X103505000Y-173778000D03*
X103505000Y-171238000D03*
X106045000Y-173778000D03*
X106045000Y-171238000D03*
D21*
X78740000Y-162983000D03*
D22*
X78740000Y-160443000D03*
X81280000Y-162983000D03*
X81280000Y-160443000D03*
X83820000Y-162983000D03*
X83820000Y-160443000D03*
X86360000Y-162983000D03*
X86360000Y-160443000D03*
X88900000Y-162983000D03*
X88900000Y-160443000D03*
D21*
X78740000Y-141817000D03*
D22*
X78740000Y-139277000D03*
X81280000Y-141817000D03*
X81280000Y-139277000D03*
X83820000Y-141817000D03*
X83820000Y-139277000D03*
X86360000Y-141817000D03*
X86360000Y-139277000D03*
X88900000Y-141817000D03*
X88900000Y-139277000D03*
D21*
X78752400Y-120650000D03*
D22*
X78752400Y-118110000D03*
X81292400Y-120650000D03*
X81292400Y-118110000D03*
X83832400Y-120650000D03*
X83832400Y-118110000D03*
X86372400Y-120650000D03*
X86372400Y-118110000D03*
X88912400Y-120650000D03*
X88912400Y-118110000D03*
D21*
X95885000Y-152612000D03*
D22*
X95885000Y-150072000D03*
X98425000Y-152612000D03*
X98425000Y-150072000D03*
X100965000Y-152612000D03*
X100965000Y-150072000D03*
X103505000Y-152612000D03*
X103505000Y-150072000D03*
X106045000Y-152612000D03*
X106045000Y-150072000D03*
D21*
X95885000Y-131445000D03*
D22*
X95885000Y-128905000D03*
X98425000Y-131445000D03*
X98425000Y-128905000D03*
X100965000Y-131445000D03*
X100965000Y-128905000D03*
X103505000Y-131445000D03*
X103505000Y-128905000D03*
X106045000Y-131445000D03*
X106045000Y-128905000D03*
D19*
X77470000Y-107950000D03*
D20*
X80010000Y-107950000D03*
X82550000Y-107950000D03*
D17*
X68580000Y-92710000D03*
D18*
X68580000Y-95250000D03*
X68580000Y-97790000D03*
D17*
X52070000Y-92710000D03*
D18*
X52070000Y-95250000D03*
X52070000Y-97790000D03*
X52070000Y-100330000D03*
D23*
X32385000Y-128270000D03*
X31115000Y-127000000D03*
X33655000Y-127000000D03*
X32385000Y-140970000D03*
X31115000Y-139700000D03*
X33655000Y-139700000D03*
X31750000Y-153670000D03*
X30480000Y-152400000D03*
X33020000Y-152400000D03*
D24*
X27940000Y-137160000D03*
X27940000Y-127000000D03*
X36830000Y-137160000D03*
X36830000Y-127000000D03*
X27940000Y-149860000D03*
X27940000Y-139700000D03*
X36830000Y-149860000D03*
X36830000Y-139700000D03*
X27940000Y-162560000D03*
X27940000Y-152400000D03*
X36830000Y-162560000D03*
X36830000Y-152400000D03*
X40640000Y-137160000D03*
X50800000Y-137160000D03*
X29210000Y-113030000D03*
X39370000Y-113030000D03*
X25400000Y-95250000D03*
X15240000Y-95250000D03*
X38100000Y-95250000D03*
X27940000Y-95250000D03*
X25400000Y-91440000D03*
X15240000Y-91440000D03*
X38100000Y-91440000D03*
X27940000Y-91440000D03*
D21*
X19050000Y-104140000D03*
D22*
X21590000Y-104140000D03*
X19050000Y-106680000D03*
X21590000Y-106680000D03*
X19050000Y-109220000D03*
X21590000Y-109220000D03*
X19050000Y-111760000D03*
X21590000Y-111760000D03*
X19050000Y-114300000D03*
X21590000Y-114300000D03*
X19050000Y-116840000D03*
X21590000Y-116840000D03*
X19050000Y-119380000D03*
X21590000Y-119380000D03*
X19050000Y-121920000D03*
X21590000Y-121920000D03*
X19050000Y-124460000D03*
X21590000Y-124460000D03*
X19050000Y-127000000D03*
X21590000Y-127000000D03*
X19050000Y-129540000D03*
X21590000Y-129540000D03*
X19050000Y-132080000D03*
X21590000Y-132080000D03*
X19050000Y-134620000D03*
X21590000Y-134620000D03*
X19050000Y-137160000D03*
X21590000Y-137160000D03*
X19050000Y-139700000D03*
X21590000Y-139700000D03*
X19050000Y-142240000D03*
X21590000Y-142240000D03*
X19050000Y-144780000D03*
X21590000Y-144780000D03*
X19050000Y-147320000D03*
X21590000Y-147320000D03*
X19050000Y-149860000D03*
X21590000Y-149860000D03*
X19050000Y-152400000D03*
X21590000Y-152400000D03*
D25*
X44450000Y-154305000D03*
D26*
X46990000Y-154305000D03*
X49530000Y-154305000D03*
X52070000Y-154305000D03*
X54610000Y-154305000D03*
X57150000Y-154305000D03*
X59690000Y-154305000D03*
X62230000Y-154305000D03*
X64770000Y-154305000D03*
X67310000Y-154305000D03*
X69850000Y-154305000D03*
X72390000Y-154305000D03*
X72390000Y-146685000D03*
X69850000Y-146685000D03*
X67310000Y-146685000D03*
X64770000Y-146685000D03*
X62230000Y-146685000D03*
X59690000Y-146685000D03*
X57150000Y-146685000D03*
X54610000Y-146685000D03*
X52070000Y-146685000D03*
X49530000Y-146685000D03*
X46990000Y-146685000D03*
X44450000Y-146685000D03*
D25*
X44450000Y-128270000D03*
D26*
X46990000Y-128270000D03*
X49530000Y-128270000D03*
X52070000Y-128270000D03*
X54610000Y-128270000D03*
X57150000Y-128270000D03*
X59690000Y-128270000D03*
X62230000Y-128270000D03*
X64770000Y-128270000D03*
X67310000Y-128270000D03*
X69850000Y-128270000D03*
X72390000Y-128270000D03*
X72390000Y-120650000D03*
X69850000Y-120650000D03*
X67310000Y-120650000D03*
X64770000Y-120650000D03*
X62230000Y-120650000D03*
X59690000Y-120650000D03*
X57150000Y-120650000D03*
X54610000Y-120650000D03*
X52070000Y-120650000D03*
X49530000Y-120650000D03*
X46990000Y-120650000D03*
X44450000Y-120650000D03*
D11*
X43180000Y-160560000D03*
D12*
X43180000Y-162560000D03*
D27*
X64770000Y-107950000D03*
X44155600Y-108717900D03*
X16535021Y-106680000D03*
X20320000Y-156210000D03*
X29782500Y-122743200D03*
X80248400Y-153559500D03*
X91432100Y-167912500D03*
X83312400Y-172722600D03*
X92582400Y-178707800D03*
X81610100Y-167773800D03*
X92888700Y-192962200D03*
X90380100Y-165665200D03*
X85469400Y-187252700D03*
X90970700Y-163274900D03*
X89621700Y-189148200D03*
X88143400Y-172896100D03*
X101183600Y-185626200D03*
X104655300Y-185766300D03*
X105455700Y-180224300D03*
X102577500Y-180128900D03*
X90685300Y-176337500D03*
X74236900Y-164606500D03*
X73383300Y-157231000D03*
X77848543Y-131626543D03*
X76809391Y-129917681D03*
X81531100Y-130659800D03*
X89807900Y-147594200D03*
X86039900Y-131595100D03*
X92991500Y-132595700D03*
X87059300Y-145676700D03*
X83820000Y-133930700D03*
X91832400Y-134544600D03*
X89307000Y-132818200D03*
X92108000Y-122278000D03*
X88005900Y-135077700D03*
X87941300Y-124730200D03*
X104969000Y-134780500D03*
X96075800Y-145303800D03*
X69850000Y-132368900D03*
X92673800Y-125444100D03*
X39115000Y-124473400D03*
D28*
X40640000Y-137160000D02*
X40640000Y-119380000D01*
X40640000Y-119380000D02*
X38815000Y-117555000D01*
X38815000Y-117555000D02*
X37495000Y-117555000D01*
X38655000Y-117555000D02*
X37495000Y-117555000D01*
X43180000Y-113030000D02*
X38655000Y-117555000D01*
X52669600Y-113030000D02*
X43180000Y-113030000D01*
X54610000Y-111090000D02*
X52669600Y-113030000D01*
X54610000Y-110490000D02*
X54610000Y-111090000D01*
X37495000Y-117555000D02*
X36195000Y-117555000D01*
X102423000Y-104148000D02*
X102422900Y-104148000D01*
X66040000Y-111760000D02*
X57150000Y-120650000D01*
X92461400Y-111760000D02*
X66040000Y-111760000D01*
X100073000Y-104148000D02*
X92461400Y-111760000D01*
X102422900Y-104148000D02*
X100073000Y-104148000D01*
X102422900Y-104148000D02*
X102423000Y-104148100D01*
X22860000Y-182686000D02*
X22860000Y-186690000D01*
X88100000Y-110020000D02*
X89259000Y-108861000D01*
X89259000Y-108861000D02*
X89259000Y-104140000D01*
X95250000Y-98149000D02*
X94339000Y-98149000D01*
X94339000Y-98149000D02*
X88265000Y-92075000D01*
X102422700Y-98149000D02*
X95250000Y-98149000D01*
X89259000Y-104140000D02*
X95250000Y-98149000D01*
X88100000Y-110020000D02*
X66840000Y-110020000D01*
X66840000Y-110020000D02*
X64770000Y-107950000D01*
X70831000Y-92075000D02*
X88265000Y-92075000D01*
X68580000Y-92710000D02*
X70196000Y-92710000D01*
X70196000Y-92710000D02*
X70831000Y-92075000D01*
X22860000Y-170180000D02*
X24476000Y-170180000D01*
X24476000Y-170180000D02*
X24765000Y-170469000D01*
X24765000Y-170469000D02*
X24765000Y-180781000D01*
X24765000Y-180781000D02*
X22860000Y-182686000D01*
X19050000Y-134620000D02*
X17145000Y-132715000D01*
X17145000Y-132715000D02*
X17145000Y-116205000D01*
X17145000Y-116205000D02*
X19050000Y-114300000D01*
X19050000Y-134620000D02*
X17828700Y-134620000D01*
X17828700Y-134620000D02*
X17145000Y-135303700D01*
X17145000Y-135303700D02*
X17145000Y-150494600D01*
X17145000Y-150494600D02*
X17486400Y-150836000D01*
X16510000Y-176336000D02*
X22860000Y-182686000D01*
X16510000Y-151765000D02*
X16510000Y-176336000D01*
X17438600Y-150836000D02*
X16510000Y-151765000D01*
X17486400Y-150836000D02*
X17438600Y-150836000D01*
X52222400Y-100330000D02*
X52070000Y-100330000D01*
X59842400Y-92710000D02*
X52222400Y-100330000D01*
X68580000Y-92710000D02*
X59842400Y-92710000D01*
X30480000Y-100330000D02*
X21590000Y-109220000D01*
X52070000Y-100330000D02*
X30480000Y-100330000D01*
X63500000Y-170180000D02*
X63347600Y-170180000D01*
X17486400Y-150836000D02*
X19050000Y-152400000D01*
X102423000Y-98149000D02*
X102422700Y-98149000D01*
X102422700Y-98149000D02*
X102423000Y-98148700D01*
X26035000Y-164465000D02*
X26035000Y-187671000D01*
X26035000Y-187671000D02*
X24476000Y-189230000D01*
X24476000Y-189230000D02*
X22860000Y-189230000D01*
X41234900Y-108717900D02*
X44155600Y-108717900D01*
X35282811Y-114669989D02*
X41234900Y-108717900D01*
X32385000Y-128270000D02*
X32385000Y-117472193D01*
X32385000Y-117472193D02*
X35187204Y-114669989D01*
X35187204Y-114669989D02*
X35282811Y-114669989D01*
X22225000Y-172720000D02*
X22860000Y-172720000D01*
X20955000Y-171450000D02*
X22225000Y-172720000D01*
X20955000Y-168275000D02*
X20955000Y-171450000D01*
X21590000Y-167640000D02*
X20955000Y-168275000D01*
X22860000Y-167640000D02*
X21590000Y-167640000D01*
X26035000Y-164465000D02*
X22860000Y-167640000D01*
X32385000Y-145415000D02*
X32385000Y-140970000D01*
X27940000Y-149860000D02*
X32385000Y-145415000D01*
X30351600Y-137160000D02*
X27940000Y-137160000D01*
X32385000Y-139193000D02*
X30351600Y-137160000D01*
X32385000Y-140970000D02*
X32385000Y-139193000D01*
X17145000Y-89535000D02*
X15240000Y-91440000D01*
X41275000Y-89535000D02*
X17145000Y-89535000D01*
X44450000Y-92710000D02*
X41275000Y-89535000D01*
X52070000Y-92710000D02*
X44450000Y-92710000D01*
X17586400Y-104140000D02*
X19050000Y-104140000D01*
X15240000Y-101794000D02*
X17586400Y-104140000D01*
X15240000Y-95250000D02*
X15240000Y-101794000D01*
X15240000Y-91440000D02*
X15240000Y-95250000D01*
X63500000Y-172720000D02*
X63652400Y-172720000D01*
X64135000Y-189230000D02*
X63500000Y-189230000D01*
X31750000Y-151893000D02*
X31750000Y-153670000D01*
X29716600Y-149860000D02*
X31750000Y-151893000D01*
X27940000Y-149860000D02*
X29716600Y-149860000D01*
X31750000Y-158750000D02*
X27940000Y-162560000D01*
X31750000Y-153670000D02*
X31750000Y-158750000D01*
X26035000Y-164465000D02*
X27940000Y-162560000D01*
X32385000Y-132715000D02*
X27940000Y-137160000D01*
X32385000Y-128270000D02*
X32385000Y-132715000D01*
D29*
X19050000Y-106680000D02*
X14975000Y-110755000D01*
X14975000Y-110755000D02*
X14975000Y-185301000D01*
X14975000Y-185301000D02*
X21444000Y-191770000D01*
X21444000Y-191770000D02*
X22860000Y-191770000D01*
X16535021Y-106680000D02*
X13540000Y-109675021D01*
X13540000Y-109675021D02*
X13540000Y-185142400D01*
X13540000Y-185142400D02*
X22707600Y-194310000D01*
X22707600Y-194310000D02*
X22860000Y-194310000D01*
X18885001Y-171437401D02*
X18885001Y-157644999D01*
X18885001Y-157644999D02*
X20320000Y-156210000D01*
X22860000Y-175260000D02*
X22707600Y-175260000D01*
X22707600Y-175260000D02*
X18885001Y-171437401D01*
X22860000Y-177800000D02*
X20955000Y-177800000D01*
X20955000Y-177800000D02*
X18045000Y-174890000D01*
X18045000Y-174890000D02*
X18045000Y-154675000D01*
X18045000Y-154675000D02*
X18415000Y-154305000D01*
X18415000Y-154305000D02*
X22860000Y-154305000D01*
X22860000Y-154305000D02*
X23495000Y-153670000D01*
X23495000Y-153670000D02*
X23495000Y-139065000D01*
X23495000Y-139065000D02*
X21590000Y-137160000D01*
X57150000Y-110642000D02*
X57150000Y-110490000D01*
X53492400Y-114300000D02*
X57150000Y-110642000D01*
X50800000Y-114300000D02*
X53492400Y-114300000D01*
X44450000Y-120650000D02*
X50800000Y-114300000D01*
X59690000Y-110490000D02*
X59690000Y-110642400D01*
X59690000Y-110642400D02*
X61193100Y-112145500D01*
X30689500Y-115995500D02*
X30689500Y-121836200D01*
X61193100Y-112145500D02*
X62873400Y-112145500D01*
X62873400Y-112145500D02*
X63723100Y-111295800D01*
X63723100Y-111295800D02*
X63723100Y-109720300D01*
X63723100Y-109720300D02*
X61317600Y-107314800D01*
X61317600Y-107314800D02*
X39370200Y-107314800D01*
X39370200Y-107314800D02*
X30689500Y-115995500D01*
X30689500Y-121836200D02*
X29782500Y-122743200D01*
X65405000Y-139700000D02*
X36830000Y-139700000D01*
X72390000Y-146685000D02*
X65405000Y-139700000D01*
X62230000Y-110490000D02*
X62230000Y-110338000D01*
X46352200Y-108585000D02*
X39367200Y-115570000D01*
X62230000Y-110338000D02*
X60477000Y-108585000D01*
X60477000Y-108585000D02*
X46352200Y-108585000D01*
X39367200Y-115570000D02*
X35560000Y-115570000D01*
X35560000Y-115570000D02*
X33655000Y-117475000D01*
X33655000Y-117475000D02*
X33655000Y-127000000D01*
X79502900Y-154305000D02*
X80248400Y-153559500D01*
X72390000Y-154305000D02*
X79502900Y-154305000D01*
X78799600Y-162983000D02*
X78740000Y-162983000D01*
X83729100Y-167912500D02*
X78799600Y-162983000D01*
X91432100Y-167912500D02*
X83729100Y-167912500D01*
X89535000Y-194945000D02*
X95885000Y-194945000D01*
X78740000Y-184150000D02*
X89535000Y-194945000D01*
X54515300Y-155921400D02*
X78740000Y-180146100D01*
X38058100Y-155921400D02*
X54515300Y-155921400D01*
X35219200Y-153082500D02*
X38058100Y-155921400D01*
X35219200Y-149197000D02*
X35219200Y-153082500D01*
X36180100Y-148236100D02*
X35219200Y-149197000D01*
X38694300Y-148236100D02*
X36180100Y-148236100D01*
X39616000Y-149157800D02*
X38694300Y-148236100D01*
X47057200Y-149157800D02*
X39616000Y-149157800D01*
X49530000Y-146685000D02*
X47057200Y-149157800D01*
X78740000Y-181610000D02*
X78740000Y-180146100D01*
X95885000Y-171238000D02*
X87760600Y-171238000D01*
X86276000Y-172722600D02*
X83312400Y-172722600D01*
X86276000Y-172722600D02*
X87760600Y-171238000D01*
X77276100Y-164129500D02*
X77276100Y-160443000D01*
X80920400Y-167773800D02*
X77276100Y-164129500D01*
X81610100Y-167773800D02*
X80920400Y-167773800D01*
X78740000Y-160443000D02*
X77276100Y-160443000D01*
X91075400Y-178707800D02*
X92582400Y-178707800D01*
X86276000Y-173908400D02*
X91075400Y-178707800D01*
X86276000Y-172722600D02*
X86276000Y-173908400D01*
X90380100Y-165317100D02*
X90380100Y-165665200D01*
X83614100Y-165317100D02*
X90380100Y-165317100D01*
X81280000Y-162983000D02*
X83614100Y-165317100D01*
X67193800Y-149108800D02*
X64770000Y-146685000D01*
X82034400Y-149108800D02*
X67193800Y-149108800D01*
X92418800Y-159493200D02*
X82034400Y-149108800D01*
X92418800Y-163809300D02*
X92418800Y-159493200D01*
X90911000Y-165317100D02*
X92418800Y-163809300D01*
X90380100Y-165317100D02*
X90911000Y-165317100D01*
X81280000Y-185050300D02*
X81280000Y-184150000D01*
X89191900Y-192962200D02*
X81280000Y-185050300D01*
X92888700Y-192962200D02*
X89191900Y-192962200D01*
X89157800Y-190941100D02*
X85469400Y-187252700D01*
X96961100Y-190941100D02*
X89157800Y-190941100D01*
X98425000Y-192405000D02*
X96961100Y-190941100D01*
X90721000Y-163274900D02*
X90970700Y-163274900D01*
X89546500Y-164449400D02*
X90721000Y-163274900D01*
X85286400Y-164449400D02*
X89546500Y-164449400D01*
X83820000Y-162983000D02*
X85286400Y-164449400D01*
X58116800Y-150191800D02*
X54610000Y-146685000D01*
X81974000Y-150191800D02*
X58116800Y-150191800D01*
X91209600Y-159427400D02*
X81974000Y-150191800D01*
X91209600Y-163036000D02*
X91209600Y-159427400D01*
X90970700Y-163274900D02*
X91209600Y-163036000D01*
X97708200Y-189148200D02*
X89621700Y-189148200D01*
X100965000Y-192405000D02*
X97708200Y-189148200D01*
X103505000Y-194945000D02*
X103505000Y-196408900D01*
X87836200Y-185626200D02*
X101183600Y-185626200D01*
X86360000Y-184150000D02*
X87836200Y-185626200D01*
X88390800Y-196408900D02*
X103505000Y-196408900D01*
X66868400Y-174886500D02*
X88390800Y-196408900D01*
X66868400Y-170770900D02*
X66868400Y-174886500D01*
X53064000Y-156966500D02*
X66868400Y-170770900D01*
X37971300Y-156966500D02*
X53064000Y-156966500D01*
X34418800Y-153414000D02*
X37971300Y-156966500D01*
X34418800Y-148865500D02*
X34418800Y-153414000D01*
X35848600Y-147435700D02*
X34418800Y-148865500D01*
X39025800Y-147435700D02*
X35848600Y-147435700D01*
X39936200Y-148346100D02*
X39025800Y-147435700D01*
X45328900Y-148346100D02*
X39936200Y-148346100D01*
X46990000Y-146685000D02*
X45328900Y-148346100D01*
X107556400Y-188667400D02*
X104655300Y-185766300D01*
X107556400Y-195518000D02*
X107556400Y-188667400D01*
X106665500Y-196408900D02*
X107556400Y-195518000D01*
X103505000Y-196408900D02*
X106665500Y-196408900D01*
X89224200Y-172896100D02*
X88143400Y-172896100D01*
X91570100Y-175242000D02*
X89224200Y-172896100D01*
X102041000Y-175242000D02*
X91570100Y-175242000D01*
X103505000Y-173778000D02*
X102041000Y-175242000D01*
X103505000Y-171238000D02*
X103505000Y-169733600D01*
X106649200Y-169733600D02*
X103505000Y-169733600D01*
X108355200Y-171439600D02*
X106649200Y-169733600D01*
X108355200Y-177324800D02*
X108355200Y-171439600D01*
X105455700Y-180224300D02*
X108355200Y-177324800D01*
X68926300Y-148301300D02*
X67310000Y-146685000D01*
X82393200Y-148301300D02*
X68926300Y-148301300D01*
X103505000Y-169413100D02*
X82393200Y-148301300D01*
X103505000Y-169733600D02*
X103505000Y-169413100D01*
X87841100Y-180128900D02*
X102577500Y-180128900D01*
X86360000Y-181610000D02*
X87841100Y-180128900D01*
X90400600Y-161482400D02*
X88900000Y-162983000D01*
X90400600Y-159817400D02*
X90400600Y-161482400D01*
X81932900Y-151349700D02*
X90400600Y-159817400D01*
X56734700Y-151349700D02*
X81932900Y-151349700D01*
X52070000Y-146685000D02*
X56734700Y-151349700D01*
X103485500Y-176337500D02*
X90685300Y-176337500D01*
X106045000Y-173778000D02*
X103485500Y-176337500D01*
X106045000Y-192405000D02*
X106045000Y-190941100D01*
X103231200Y-188127300D02*
X106045000Y-190941100D01*
X103231200Y-181906200D02*
X103231200Y-188127300D01*
X90660100Y-181906200D02*
X103231200Y-181906200D01*
X90363900Y-181610000D02*
X90660100Y-181906200D01*
X107554900Y-172747900D02*
X106045000Y-171238000D01*
X107554900Y-175225400D02*
X107554900Y-172747900D01*
X103977800Y-178802500D02*
X107554900Y-175225400D01*
X103977800Y-181159600D02*
X103977800Y-178802500D01*
X103231200Y-181906200D02*
X103977800Y-181159600D01*
X88900000Y-181610000D02*
X90363900Y-181610000D01*
X81280000Y-181610000D02*
X81280000Y-178435000D01*
X81280000Y-178435000D02*
X57150000Y-154305000D01*
X83820000Y-181610000D02*
X83820000Y-178435000D01*
X83820000Y-178435000D02*
X59690000Y-154305000D01*
X96922600Y-169735600D02*
X98425000Y-171238000D01*
X93564100Y-169735600D02*
X96922600Y-169735600D01*
X93170200Y-170129500D02*
X93564100Y-169735600D01*
X79759900Y-170129500D02*
X93170200Y-170129500D01*
X74236900Y-164606500D02*
X79759900Y-170129500D01*
X98656600Y-168929600D02*
X100965000Y-171238000D01*
X92983100Y-168929600D02*
X98656600Y-168929600D01*
X92599800Y-169312900D02*
X92983100Y-168929600D01*
X81092700Y-169312900D02*
X92599800Y-169312900D01*
X67310000Y-155530200D02*
X81092700Y-169312900D01*
X67310000Y-154305000D02*
X67310000Y-155530200D01*
X78068000Y-157231000D02*
X81280000Y-160443000D01*
X73383300Y-157231000D02*
X78068000Y-157231000D01*
X83820000Y-160443000D02*
X83820000Y-155150800D01*
X64375900Y-152159100D02*
X62230000Y-154305000D01*
X80828300Y-152159100D02*
X64375900Y-152159100D01*
X83820000Y-155150800D02*
X80828300Y-152159100D01*
X78752400Y-120650000D02*
X77288500Y-120650000D01*
X77288500Y-120650000D02*
X75383500Y-118745000D01*
X75383500Y-118745000D02*
X71120000Y-118745000D01*
X71120000Y-118745000D02*
X69850000Y-120015000D01*
X69850000Y-120015000D02*
X69850000Y-120650000D01*
X93170900Y-130194800D02*
X85344900Y-130194800D01*
X85344900Y-130194800D02*
X83113158Y-132426542D01*
X94421100Y-131445000D02*
X93170900Y-130194800D01*
X95885000Y-131445000D02*
X94421100Y-131445000D01*
X78648542Y-132426542D02*
X77848543Y-131626543D01*
X83113158Y-132426542D02*
X78648542Y-132426542D01*
X79657611Y-129917681D02*
X76809391Y-129917681D01*
X81531100Y-130659800D02*
X80399730Y-130659800D01*
X80399730Y-130659800D02*
X79657611Y-129917681D01*
X95885000Y-128905000D02*
X83285900Y-128905000D01*
X83285900Y-128905000D02*
X81531100Y-130659800D01*
X78740000Y-139277000D02*
X77276100Y-139277000D01*
X44267000Y-125913000D02*
X49530000Y-120650000D01*
X43908500Y-125913000D02*
X44267000Y-125913000D01*
X42833600Y-126987900D02*
X43908500Y-125913000D01*
X42833600Y-129587700D02*
X42833600Y-126987900D01*
X47699900Y-134454000D02*
X42833600Y-129587700D01*
X52731400Y-134454000D02*
X47699900Y-134454000D01*
X56147600Y-137870200D02*
X52731400Y-134454000D01*
X75869300Y-137870200D02*
X56147600Y-137870200D01*
X77276100Y-139277000D02*
X75869300Y-137870200D01*
X81292400Y-120650000D02*
X81292400Y-122113900D01*
X98425000Y-131445000D02*
X98425000Y-132908900D01*
X93304700Y-132908900D02*
X98425000Y-132908900D01*
X92991500Y-132595700D02*
X93304700Y-132908900D01*
X86265500Y-131369500D02*
X86039900Y-131595100D01*
X91765300Y-131369500D02*
X86265500Y-131369500D01*
X92991500Y-132595700D02*
X91765300Y-131369500D01*
X66394700Y-122274700D02*
X64770000Y-120650000D01*
X81131600Y-122274700D02*
X66394700Y-122274700D01*
X81292400Y-122113900D02*
X81131600Y-122274700D01*
X89807900Y-149113600D02*
X89807900Y-147594200D01*
X94809500Y-154115200D02*
X89807900Y-149113600D01*
X97051400Y-154115200D02*
X94809500Y-154115200D01*
X98425000Y-152741600D02*
X97051400Y-154115200D01*
X98425000Y-152612000D02*
X98425000Y-152741600D01*
X52373600Y-133653600D02*
X46990000Y-128270000D01*
X53062700Y-133653600D02*
X52373600Y-133653600D01*
X56233000Y-136823900D02*
X53062700Y-133653600D01*
X78357300Y-136823900D02*
X56233000Y-136823900D01*
X80810400Y-139277000D02*
X78357300Y-136823900D01*
X81280000Y-139277000D02*
X80810400Y-139277000D01*
X83832400Y-120650000D02*
X83832400Y-122113900D01*
X57058300Y-123098300D02*
X54610000Y-120650000D01*
X82848000Y-123098300D02*
X57058300Y-123098300D01*
X83832400Y-122113900D02*
X82848000Y-123098300D01*
X87059400Y-145676700D02*
X87059300Y-145676700D01*
X87059400Y-147496800D02*
X87059400Y-145676700D01*
X94478100Y-154915500D02*
X87059400Y-147496800D01*
X98661500Y-154915500D02*
X94478100Y-154915500D01*
X100965000Y-152612000D02*
X98661500Y-154915500D01*
X75510700Y-133930700D02*
X83820000Y-133930700D01*
X69850000Y-128270000D02*
X75510700Y-133930700D01*
X100405400Y-134544600D02*
X91832400Y-134544600D01*
X103505000Y-131445000D02*
X100405400Y-134544600D01*
X89307000Y-132818300D02*
X89307000Y-132818200D01*
X90106100Y-132818300D02*
X89307000Y-132818300D01*
X91832400Y-134544600D02*
X90106100Y-132818300D01*
X86360000Y-141817000D02*
X86360000Y-143280900D01*
X73010000Y-144007600D02*
X85633300Y-144007600D01*
X67672900Y-138670500D02*
X73010000Y-144007600D01*
X55816200Y-138670500D02*
X67672900Y-138670500D01*
X52682700Y-135537000D02*
X55816200Y-138670500D01*
X47651000Y-135537000D02*
X52682700Y-135537000D01*
X41966100Y-129852100D02*
X47651000Y-135537000D01*
X41966100Y-125673900D02*
X41966100Y-129852100D01*
X46990000Y-120650000D02*
X41966100Y-125673900D01*
X85633300Y-147211800D02*
X85633300Y-144007600D01*
X94199700Y-155778200D02*
X85633300Y-147211800D01*
X100338800Y-155778200D02*
X94199700Y-155778200D01*
X103505000Y-152612000D02*
X100338800Y-155778200D01*
X85633300Y-144007600D02*
X86360000Y-143280900D01*
X86372400Y-118110000D02*
X84871200Y-116608800D01*
X84871200Y-116608800D02*
X70081200Y-116608800D01*
X70081200Y-116608800D02*
X67310000Y-119380000D01*
X67310000Y-119380000D02*
X67310000Y-120650000D01*
X103505000Y-150072000D02*
X103505000Y-148489300D01*
X90093400Y-135077700D02*
X88005900Y-135077700D01*
X103505000Y-148489300D02*
X90093400Y-135077700D01*
X96878100Y-122278000D02*
X92108000Y-122278000D01*
X96878100Y-122278100D02*
X96878100Y-122278000D01*
X103505000Y-128905000D02*
X96878100Y-122278100D01*
X90393500Y-122278000D02*
X87941300Y-124730200D01*
X92108000Y-122278000D02*
X90393500Y-122278000D01*
X107521800Y-151135200D02*
X106045000Y-152612000D01*
X107521800Y-149024400D02*
X107521800Y-151135200D01*
X103560900Y-145063500D02*
X107521800Y-149024400D01*
X103560900Y-133929100D02*
X103560900Y-145063500D01*
X106045000Y-131445000D02*
X103560900Y-133929100D01*
X85644700Y-123917700D02*
X88912400Y-120650000D01*
X55337700Y-123917700D02*
X85644700Y-123917700D01*
X52070000Y-120650000D02*
X55337700Y-123917700D01*
X88912400Y-118110000D02*
X95250000Y-118110000D01*
X67085900Y-115794100D02*
X62230000Y-120650000D01*
X86596500Y-115794100D02*
X67085900Y-115794100D01*
X88912400Y-118110000D02*
X86596500Y-115794100D01*
X95250000Y-118110000D02*
X106045000Y-128905000D01*
X107542100Y-132207400D02*
X104969000Y-134780500D01*
X107542100Y-130402100D02*
X107542100Y-132207400D01*
X106045000Y-128905000D02*
X107542100Y-130402100D01*
X90363900Y-139591900D02*
X90363900Y-139277000D01*
X96075800Y-145303800D02*
X90363900Y-139591900D01*
X88900000Y-139277000D02*
X90363900Y-139277000D01*
X61248900Y-132368900D02*
X69850000Y-132368900D01*
X57150000Y-128270000D02*
X61248900Y-132368900D01*
X98425000Y-150072000D02*
X98425000Y-148608100D01*
X57283600Y-136023600D02*
X49530000Y-128270000D01*
X78928800Y-136023600D02*
X57283600Y-136023600D01*
X80526400Y-137621200D02*
X78928800Y-136023600D01*
X90373500Y-137621200D02*
X80526400Y-137621200D01*
X98424900Y-145672600D02*
X90373500Y-137621200D01*
X98424900Y-148608100D02*
X98424900Y-145672600D01*
X98425000Y-148608100D02*
X98424900Y-148608100D01*
X100965000Y-150072000D02*
X100965000Y-147081000D01*
X70008600Y-130968600D02*
X67310000Y-128270000D01*
X70430000Y-130968600D02*
X70008600Y-130968600D01*
X74192400Y-134731000D02*
X70430000Y-130968600D01*
X78767900Y-134731000D02*
X74192400Y-134731000D01*
X80857700Y-136820800D02*
X78767900Y-134731000D01*
X90704800Y-136820800D02*
X80857700Y-136820800D01*
X100965000Y-147081000D02*
X90704800Y-136820800D01*
X91987400Y-126130500D02*
X92673800Y-125444100D01*
X87361400Y-126130500D02*
X91987400Y-126130500D01*
X87018200Y-125787300D02*
X87361400Y-126130500D01*
X57092700Y-125787300D02*
X87018200Y-125787300D01*
X54610000Y-128270000D02*
X57092700Y-125787300D01*
X99019400Y-126959400D02*
X100965000Y-128905000D01*
X74034900Y-126959400D02*
X99019400Y-126959400D01*
X73721300Y-126645800D02*
X74034900Y-126959400D01*
X63854200Y-126645800D02*
X73721300Y-126645800D01*
X62230000Y-128270000D02*
X63854200Y-126645800D01*
X21590000Y-114300000D02*
X24500000Y-111390000D01*
X24500000Y-111390000D02*
X24500000Y-110755000D01*
X24500000Y-110755000D02*
X31750000Y-103505000D01*
X54607200Y-103505000D02*
X60322200Y-97790000D01*
X31750000Y-103505000D02*
X54607200Y-103505000D01*
X60322200Y-97790000D02*
X68580000Y-97790000D01*
X68580000Y-95250000D02*
X60325000Y-95250000D01*
X60325000Y-95250000D02*
X53340000Y-102235000D01*
X53340000Y-102235000D02*
X31115000Y-102235000D01*
X31115000Y-102235000D02*
X21590000Y-111760000D01*
X41910000Y-95250000D02*
X38100000Y-91440000D01*
X52070000Y-95250000D02*
X41910000Y-95250000D01*
X40640000Y-97790000D02*
X52070000Y-97790000D01*
X38100000Y-95250000D02*
X40640000Y-97790000D01*
X31115000Y-127000000D02*
X27940000Y-127000000D01*
X22860000Y-132080000D02*
X27940000Y-127000000D01*
X21590000Y-132080000D02*
X22860000Y-132080000D01*
X31115000Y-139700000D02*
X27940000Y-139700000D01*
X40928700Y-152400000D02*
X42833700Y-154305000D01*
X36830000Y-152400000D02*
X40928700Y-152400000D01*
X44450000Y-154305000D02*
X42833700Y-154305000D01*
X27940000Y-95250000D02*
X25400000Y-95250000D01*
X25400000Y-91440000D02*
X27940000Y-91440000D01*
X39114900Y-124473400D02*
X39115000Y-124473400D01*
X39114900Y-129589500D02*
X39114900Y-124473400D01*
X35197000Y-133507400D02*
X39114900Y-129589500D01*
X35197000Y-140353000D02*
X35197000Y-133507400D01*
X41529000Y-146685000D02*
X35197000Y-140353000D01*
X44450000Y-146685000D02*
X41529000Y-146685000D01*
M02*
