M48
;DRILL file {KiCad 4.0.2-stable} date Friday, 12 August 2016 'pmt' 16:12:23
;FORMAT={-:-/ absolute / inch / decimal}
FMAT,2
INCH,TZ
T1C0.024
T2C0.030
T3C0.031
T4C0.035
T5C0.039
T6C0.039
T7C0.040
T8C0.071
%
G90
G05
M72
T1
X1.2Y-6.
X1.225Y-5.
X1.225Y-5.5
X1.25Y-6.05
X1.275Y-5.05
X1.275Y-5.55
X1.3Y-6.
X1.325Y-5.
X1.325Y-5.5
T2
X1.75Y-4.75
X1.75Y-5.05
X1.75Y-5.775
X1.75Y-6.075
X1.85Y-4.75
X1.85Y-5.05
X1.85Y-5.775
X1.85Y-6.075
X1.95Y-4.75
X1.95Y-5.05
X1.95Y-5.775
X1.95Y-6.075
X2.05Y-4.75
X2.05Y-5.05
X2.05Y-5.775
X2.05Y-6.075
X2.15Y-4.75
X2.15Y-5.05
X2.15Y-5.775
X2.15Y-6.075
X2.25Y-4.75
X2.25Y-5.05
X2.25Y-5.775
X2.25Y-6.075
X2.35Y-4.75
X2.35Y-5.05
X2.35Y-5.775
X2.35Y-6.075
X2.45Y-4.75
X2.45Y-5.05
X2.45Y-5.775
X2.45Y-6.075
X2.55Y-4.75
X2.55Y-5.05
X2.55Y-5.775
X2.55Y-6.075
X2.65Y-4.75
X2.65Y-5.05
X2.65Y-5.775
X2.65Y-6.075
X2.75Y-4.75
X2.75Y-5.05
X2.75Y-5.775
X2.75Y-6.075
X2.85Y-4.75
X2.85Y-5.05
X2.85Y-5.775
X2.85Y-6.075
T3
X1.15Y-4.6713
X1.15Y-4.75
X1.7Y-6.3213
X1.7Y-6.4
T4
X1.425Y-4.6281
X1.425Y-4.825
X1.95Y-6.25
X1.95Y-6.4469
T5
X0.651Y-4.2
X0.8Y-6.15
X1.1725Y-4.8324
X1.54Y-4.9005
X1.7384Y-4.2802
X2.55Y-4.25
X2.75Y-5.2114
X2.8891Y-6.1902
X2.9227Y-6.4806
X3.024Y-5.1149
X3.0649Y-5.1821
X3.1594Y-6.0456
X3.2099Y-5.1441
X3.213Y-6.6053
X3.28Y-6.8001
X3.3Y-5.2729
X3.3649Y-7.3722
X3.3874Y-5.1809
X3.4275Y-5.7353
X3.4623Y-4.9106
X3.4648Y-5.318
X3.4702Y-6.8069
X3.516Y-5.2291
X3.5284Y-7.4468
X3.5357Y-5.8108
X3.5583Y-6.5223
X3.5703Y-6.9424
X3.5815Y-6.4281
X3.5997Y-6.6107
X3.6154Y-5.297
X3.6263Y-4.8141
X3.645Y-7.0357
X3.6486Y-4.9387
X3.657Y-7.5969
X3.6611Y-5.2203
X3.7825Y-5.7206
X3.9836Y-7.3081
X4.0385Y-7.0917
X4.1203Y-7.3136
X4.1326Y-5.3063
X4.1518Y-7.0954
T6
X0.6Y-3.6
X0.6Y-3.75
X1.Y-3.6
X1.Y-3.75
X1.1Y-3.6
X1.1Y-3.75
X1.1Y-5.
X1.1Y-5.4
X1.1Y-5.5
X1.1Y-5.9
X1.1Y-6.
X1.1Y-6.4
X1.15Y-4.45
X1.45Y-5.
X1.45Y-5.4
X1.45Y-5.5
X1.45Y-5.9
X1.45Y-6.
X1.45Y-6.4
X1.5Y-3.6
X1.5Y-3.75
X1.55Y-4.45
X1.6Y-5.4
X2.Y-5.4
T7
X0.75Y-4.1
X0.75Y-4.2
X0.75Y-4.3
X0.75Y-4.4
X0.75Y-4.5
X0.75Y-4.6
X0.75Y-4.7
X0.75Y-4.8
X0.75Y-4.9
X0.75Y-5.
X0.75Y-5.1
X0.75Y-5.2
X0.75Y-5.3
X0.75Y-5.4
X0.75Y-5.5
X0.75Y-5.6
X0.75Y-5.7
X0.75Y-5.8
X0.75Y-5.9
X0.75Y-6.
X0.85Y-4.1
X0.85Y-4.2
X0.85Y-4.3
X0.85Y-4.4
X0.85Y-4.5
X0.85Y-4.6
X0.85Y-4.7
X0.85Y-4.8
X0.85Y-4.9
X0.85Y-5.
X0.85Y-5.1
X0.85Y-5.2
X0.85Y-5.3
X0.85Y-5.4
X0.85Y-5.5
X0.85Y-5.6
X0.85Y-5.7
X0.85Y-5.8
X0.85Y-5.9
X0.85Y-6.
X0.9Y-6.7
X0.9Y-6.8
X0.9Y-6.9
X0.9Y-7.
X0.9Y-7.35
X0.9Y-7.45
X0.9Y-7.55
X0.9Y-7.65
X1.1Y-6.7
X1.1Y-6.8
X1.1Y-6.9
X1.1Y-7.
X1.1Y-7.35
X1.1Y-7.45
X1.1Y-7.55
X1.1Y-7.65
X1.3Y-6.7
X1.3Y-6.8
X1.3Y-6.9
X1.3Y-7.
X1.3Y-7.35
X1.3Y-7.45
X1.3Y-7.55
X1.3Y-7.65
X1.5Y-6.7
X1.5Y-6.8
X1.5Y-6.9
X1.5Y-7.
X1.5Y-7.35
X1.5Y-7.45
X1.5Y-7.55
X1.5Y-7.65
X1.7Y-6.7
X1.7Y-6.8
X1.7Y-6.9
X1.7Y-7.
X1.7Y-7.35
X1.7Y-7.45
X1.7Y-7.55
X1.7Y-7.65
X1.9Y-6.7
X1.9Y-6.8
X1.9Y-6.9
X1.9Y-7.
X1.9Y-7.35
X1.9Y-7.45
X1.9Y-7.55
X1.9Y-7.65
X2.05Y-3.65
X2.05Y-3.75
X2.05Y-3.85
X2.05Y-3.95
X2.05Y-4.35
X2.1Y-6.7
X2.1Y-6.8
X2.1Y-6.9
X2.1Y-7.
X2.1Y-7.35
X2.1Y-7.45
X2.1Y-7.55
X2.1Y-7.65
X2.15Y-4.35
X2.25Y-4.35
X2.3Y-6.7
X2.3Y-6.8
X2.3Y-6.9
X2.3Y-7.
X2.3Y-7.35
X2.3Y-7.45
X2.3Y-7.55
X2.3Y-7.65
X2.35Y-4.35
X2.45Y-4.35
X2.5Y-6.7
X2.5Y-6.8
X2.5Y-6.9
X2.5Y-7.
X2.5Y-7.35
X2.5Y-7.45
X2.5Y-7.55
X2.5Y-7.65
X2.7Y-3.65
X2.7Y-3.75
X2.7Y-3.85
X3.05Y-4.25
X3.1Y-5.4833
X3.1Y-5.5833
X3.1Y-6.3167
X3.1Y-6.4167
X3.1Y-7.15
X3.1Y-7.25
X3.1005Y-4.65
X3.1005Y-4.75
X3.15Y-4.25
X3.2Y-5.4833
X3.2Y-5.5833
X3.2Y-6.3167
X3.2Y-6.4167
X3.2Y-7.15
X3.2Y-7.25
X3.2005Y-4.65
X3.2005Y-4.75
X3.25Y-4.25
X3.3Y-5.4833
X3.3Y-5.5833
X3.3Y-6.3167
X3.3Y-6.4167
X3.3Y-7.15
X3.3Y-7.25
X3.3005Y-4.65
X3.3005Y-4.75
X3.4Y-5.4833
X3.4Y-5.5833
X3.4Y-6.3167
X3.4Y-6.4167
X3.4Y-7.15
X3.4Y-7.25
X3.4005Y-4.65
X3.4005Y-4.75
X3.5Y-5.4833
X3.5Y-5.5833
X3.5Y-6.3167
X3.5Y-6.4167
X3.5Y-7.15
X3.5Y-7.25
X3.5005Y-4.65
X3.5005Y-4.75
X3.775Y-5.075
X3.775Y-5.175
X3.775Y-5.9083
X3.775Y-6.0083
X3.775Y-6.7417
X3.775Y-6.8417
X3.775Y-7.575
X3.775Y-7.675
X3.875Y-5.075
X3.875Y-5.175
X3.875Y-5.9083
X3.875Y-6.0083
X3.875Y-6.7417
X3.875Y-6.8417
X3.875Y-7.575
X3.875Y-7.675
X3.975Y-5.075
X3.975Y-5.175
X3.975Y-5.9083
X3.975Y-6.0083
X3.975Y-6.7417
X3.975Y-6.8417
X3.975Y-7.575
X3.975Y-7.675
X4.075Y-5.075
X4.075Y-5.175
X4.075Y-5.9083
X4.075Y-6.0083
X4.075Y-6.7417
X4.075Y-6.8417
X4.075Y-7.575
X4.075Y-7.675
X4.175Y-5.075
X4.175Y-5.175
X4.175Y-5.9083
X4.175Y-6.0083
X4.175Y-6.7417
X4.175Y-6.8417
X4.175Y-7.575
X4.175Y-7.675
T8
X3.3074Y-3.6987
X4.0324Y-3.6987
T6
X3.1224Y-3.9429G85X3.1224Y-4.0216
G05
X3.3468Y-3.8641G85X3.2681Y-3.8641
G05
X3.3468Y-4.1003G85X3.2681Y-4.1003
G05
X3.8474Y-3.9429G85X3.8474Y-4.0216
G05
X4.0718Y-3.8641G85X3.9931Y-3.8641
G05
X4.0718Y-4.1003G85X3.9931Y-4.1003
G05
T0
M30
