G04 #@! TF.FileFunction,Copper,L1,Top,Signal*
%FSLAX46Y46*%
G04 Gerber Fmt 4.6, Leading zero omitted, Abs format (unit mm)*
G04 Created by KiCad (PCBNEW 4.0.2-stable) date Wednesday, 03 August 2016 'pmt' 15:26:21*
%MOMM*%
G01*
G04 APERTURE LIST*
%ADD10C,0.100000*%
%ADD11R,1.397000X1.397000*%
%ADD12C,1.397000*%
%ADD13R,1.400000X1.400000*%
%ADD14C,1.400000*%
%ADD15R,3.500120X3.500120*%
%ADD16R,1.900000X2.000000*%
%ADD17C,1.900000*%
%ADD18C,1.998980*%
%ADD19R,2.032000X2.032000*%
%ADD20C,2.032000*%
%ADD21C,1.000760*%
%ADD22R,2.540000X2.540000*%
%ADD23C,2.540000*%
%ADD24C,1.000000*%
%ADD25C,1.000000*%
G04 APERTURE END LIST*
D10*
D11*
X68400400Y-147146000D03*
D12*
X68400400Y-134446000D03*
D13*
X120650000Y-142160000D03*
D14*
X120650000Y-137160000D03*
D11*
X128270000Y-147146000D03*
D12*
X128270000Y-134446000D03*
D13*
X60780400Y-143430000D03*
D14*
X60780400Y-138430000D03*
D15*
X34775140Y-71755000D03*
X28775660Y-71755000D03*
X31775400Y-76454000D03*
D16*
X25400000Y-113030000D03*
D17*
X27940000Y-113030000D03*
D16*
X38100000Y-113030000D03*
D17*
X40640000Y-113030000D03*
D16*
X50800000Y-113030000D03*
D17*
X53340000Y-113030000D03*
D16*
X63500000Y-113030000D03*
D17*
X66040000Y-113030000D03*
D16*
X76200000Y-113030000D03*
D17*
X78740000Y-113030000D03*
D16*
X88900000Y-113030000D03*
D17*
X91440000Y-113030000D03*
D16*
X101600000Y-113030000D03*
D17*
X104140000Y-113030000D03*
D16*
X114300000Y-113030000D03*
D17*
X116840000Y-113030000D03*
D16*
X25400000Y-125730000D03*
D17*
X27940000Y-125730000D03*
D16*
X38100000Y-125730000D03*
D17*
X40640000Y-125730000D03*
D16*
X50800000Y-125730000D03*
D17*
X53340000Y-125730000D03*
D16*
X63500000Y-125730000D03*
D17*
X66040000Y-125730000D03*
D16*
X88900000Y-125730000D03*
D17*
X91440000Y-125730000D03*
D16*
X76200000Y-125730000D03*
D17*
X78740000Y-125730000D03*
D16*
X101600000Y-125730000D03*
D17*
X104140000Y-125730000D03*
D16*
X114300000Y-125730000D03*
D17*
X116840000Y-125730000D03*
D18*
X96520000Y-151130000D03*
X106680000Y-151130000D03*
X34290000Y-151130000D03*
X44450000Y-151130000D03*
D19*
X41275000Y-74930000D03*
D20*
X43815000Y-74930000D03*
X46355000Y-74930000D03*
X48895000Y-74930000D03*
X51435000Y-74930000D03*
X53975000Y-74930000D03*
X56515000Y-74930000D03*
X59055000Y-74930000D03*
X61595000Y-74930000D03*
X64135000Y-74930000D03*
X66675000Y-74930000D03*
X69215000Y-74930000D03*
X71755000Y-74930000D03*
X74295000Y-74930000D03*
X74295000Y-67310000D03*
X71755000Y-67310000D03*
X69215000Y-67310000D03*
X66675000Y-67310000D03*
X64135000Y-67310000D03*
X61595000Y-67310000D03*
X59055000Y-67310000D03*
X56515000Y-67310000D03*
X53975000Y-67310000D03*
X51435000Y-67310000D03*
X48895000Y-67310000D03*
X46355000Y-67310000D03*
X43815000Y-67310000D03*
X41275000Y-67310000D03*
D19*
X111760000Y-137160000D03*
D20*
X109220000Y-137160000D03*
X106680000Y-137160000D03*
X104140000Y-137160000D03*
X101600000Y-137160000D03*
X99060000Y-137160000D03*
X96520000Y-137160000D03*
X93980000Y-137160000D03*
X91440000Y-137160000D03*
X88900000Y-137160000D03*
X86360000Y-137160000D03*
X83820000Y-137160000D03*
X83820000Y-144780000D03*
X86360000Y-144780000D03*
X88900000Y-144780000D03*
X91440000Y-144780000D03*
X93980000Y-144780000D03*
X96520000Y-144780000D03*
X99060000Y-144780000D03*
X101600000Y-144780000D03*
X104140000Y-144780000D03*
X106680000Y-144780000D03*
X109220000Y-144780000D03*
X111760000Y-144780000D03*
D19*
X52070000Y-137160000D03*
D20*
X49530000Y-137160000D03*
X46990000Y-137160000D03*
X44450000Y-137160000D03*
X41910000Y-137160000D03*
X39370000Y-137160000D03*
X36830000Y-137160000D03*
X34290000Y-137160000D03*
X31750000Y-137160000D03*
X29210000Y-137160000D03*
X26670000Y-137160000D03*
X24130000Y-137160000D03*
X24130000Y-144780000D03*
X26670000Y-144780000D03*
X29210000Y-144780000D03*
X31750000Y-144780000D03*
X34290000Y-144780000D03*
X36830000Y-144780000D03*
X39370000Y-144780000D03*
X41910000Y-144780000D03*
X44450000Y-144780000D03*
X46990000Y-144780000D03*
X49530000Y-144780000D03*
X52070000Y-144780000D03*
D21*
X95885000Y-100330000D03*
X97155000Y-99060000D03*
X97155000Y-101600000D03*
X126365000Y-100330000D03*
X127635000Y-99060000D03*
X127635000Y-101600000D03*
X111125000Y-100330000D03*
X112395000Y-99060000D03*
X112395000Y-101600000D03*
D18*
X92075000Y-83820000D03*
X102235000Y-83820000D03*
X92075000Y-91440000D03*
X102235000Y-91440000D03*
X107315000Y-83820000D03*
X117475000Y-83820000D03*
X107315000Y-91440000D03*
X117475000Y-91440000D03*
X122555000Y-83820000D03*
X132715000Y-83820000D03*
X122555000Y-91440000D03*
X132715000Y-91440000D03*
D22*
X64656200Y-91006400D03*
D23*
X64656200Y-95705400D03*
X64656200Y-100404400D03*
D22*
X51956200Y-91006400D03*
D23*
X51956200Y-95705400D03*
X51956200Y-100404400D03*
D22*
X39256200Y-91006400D03*
D23*
X39256200Y-95705400D03*
X39256200Y-100404400D03*
D22*
X26556200Y-91006400D03*
D23*
X26556200Y-95705400D03*
X26556200Y-100404400D03*
D19*
X85090000Y-69850000D03*
D20*
X85090000Y-67310000D03*
X87630000Y-69850000D03*
X87630000Y-67310000D03*
X90170000Y-69850000D03*
X90170000Y-67310000D03*
X92710000Y-69850000D03*
X92710000Y-67310000D03*
X95250000Y-69850000D03*
X95250000Y-67310000D03*
X97790000Y-69850000D03*
X97790000Y-67310000D03*
X100330000Y-69850000D03*
X100330000Y-67310000D03*
X102870000Y-69850000D03*
X102870000Y-67310000D03*
X105410000Y-69850000D03*
X105410000Y-67310000D03*
X107950000Y-69850000D03*
X107950000Y-67310000D03*
X110490000Y-69850000D03*
X110490000Y-67310000D03*
X113030000Y-69850000D03*
X113030000Y-67310000D03*
X115570000Y-69850000D03*
X115570000Y-67310000D03*
X118110000Y-69850000D03*
X118110000Y-67310000D03*
X120650000Y-69850000D03*
X120650000Y-67310000D03*
X123190000Y-69850000D03*
X123190000Y-67310000D03*
X125730000Y-69850000D03*
X125730000Y-67310000D03*
X128270000Y-69850000D03*
X128270000Y-67310000D03*
X130810000Y-69850000D03*
X130810000Y-67310000D03*
X133350000Y-69850000D03*
X133350000Y-67310000D03*
D24*
X133960300Y-72144200D03*
X68400400Y-143349700D03*
X110634300Y-125980100D03*
X80729800Y-126403200D03*
X86154000Y-121520500D03*
X66204400Y-132693500D03*
X52440300Y-140854600D03*
D25*
X68836800Y-69850000D02*
X85090000Y-69850000D01*
X66675000Y-67688200D02*
X68836800Y-69850000D01*
X66675000Y-67310000D02*
X66675000Y-67688200D01*
X120555100Y-81820100D02*
X122555000Y-83820000D01*
X109314900Y-81820100D02*
X120555100Y-81820100D01*
X107315000Y-83820000D02*
X109314900Y-81820100D01*
X61595000Y-75246700D02*
X61595000Y-74930000D01*
X70168300Y-83820000D02*
X61595000Y-75246700D01*
X92075000Y-83820000D02*
X70168300Y-83820000D01*
X127520100Y-78584400D02*
X133960300Y-72144200D01*
X107470600Y-78584400D02*
X127520100Y-78584400D01*
X102235000Y-83820000D02*
X107470600Y-78584400D01*
X60780400Y-143430000D02*
X62480700Y-143430000D01*
X62561000Y-143349700D02*
X68400400Y-143349700D01*
X62480700Y-143430000D02*
X62561000Y-143349700D01*
X68995300Y-142754800D02*
X68400400Y-143349700D01*
X97412900Y-142754800D02*
X68995300Y-142754800D01*
X99060000Y-144401900D02*
X97412900Y-142754800D01*
X99060000Y-144780000D02*
X99060000Y-144401900D01*
X109979700Y-151130000D02*
X106680000Y-151130000D01*
X118949700Y-142160000D02*
X109979700Y-151130000D01*
X126571200Y-146380900D02*
X126571200Y-147146000D01*
X122350300Y-142160000D02*
X126571200Y-146380900D01*
X120650000Y-142160000D02*
X122350300Y-142160000D01*
X120650000Y-142160000D02*
X118949700Y-142160000D01*
X128270000Y-147146000D02*
X126571200Y-147146000D01*
X90237800Y-93277200D02*
X92075000Y-91440000D01*
X24836300Y-93277200D02*
X90237800Y-93277200D01*
X24285800Y-92726700D02*
X24836300Y-93277200D01*
X24285800Y-88876100D02*
X24285800Y-92726700D01*
X34775100Y-78386800D02*
X24285800Y-88876100D01*
X34775100Y-71755000D02*
X34775100Y-78386800D01*
X94087200Y-93452200D02*
X92075000Y-91440000D01*
X105302800Y-93452200D02*
X94087200Y-93452200D01*
X107315000Y-91440000D02*
X105302800Y-93452200D01*
X109327300Y-89427700D02*
X107315000Y-91440000D01*
X120542700Y-89427700D02*
X109327300Y-89427700D01*
X122555000Y-91440000D02*
X120542700Y-89427700D01*
X83458000Y-145142000D02*
X83820000Y-144780000D01*
X64775600Y-145142000D02*
X83458000Y-145142000D01*
X63106900Y-146810700D02*
X64775600Y-145142000D01*
X25849000Y-146810700D02*
X63106900Y-146810700D01*
X24130000Y-145091700D02*
X25849000Y-146810700D01*
X24130000Y-144780000D02*
X24130000Y-145091700D01*
X118798800Y-128104900D02*
X111760000Y-135143700D01*
X118798800Y-108003800D02*
X118798800Y-128104900D01*
X112395000Y-101600000D02*
X118798800Y-108003800D01*
X111760000Y-137160000D02*
X111760000Y-135143700D01*
X69215000Y-67310000D02*
X71755000Y-67310000D01*
X71755000Y-67310000D02*
X74295000Y-67310000D01*
X104140000Y-137538100D02*
X104140000Y-137160000D01*
X105788200Y-139186300D02*
X104140000Y-137538100D01*
X118623700Y-139186300D02*
X105788200Y-139186300D01*
X120650000Y-137160000D02*
X118623700Y-139186300D01*
X91440000Y-137160000D02*
X91440000Y-136781800D01*
X104140000Y-136825400D02*
X104140000Y-137160000D01*
X102445000Y-135130400D02*
X104140000Y-136825400D01*
X93091400Y-135130400D02*
X102445000Y-135130400D01*
X91440000Y-136781800D02*
X93091400Y-135130400D01*
X123364000Y-134446000D02*
X120650000Y-137160000D01*
X128270000Y-134446000D02*
X123364000Y-134446000D01*
X39256200Y-95705400D02*
X26556200Y-95705400D01*
X95250000Y-70204500D02*
X95250000Y-69850000D01*
X96938800Y-71893300D02*
X95250000Y-70204500D01*
X113844200Y-71893300D02*
X96938800Y-71893300D01*
X115570000Y-70167500D02*
X113844200Y-71893300D01*
X115570000Y-69850000D02*
X115570000Y-70167500D01*
X125730000Y-66981000D02*
X125730000Y-67310000D01*
X127467300Y-65243700D02*
X125730000Y-66981000D01*
X134210300Y-65243700D02*
X127467300Y-65243700D01*
X135366400Y-66399800D02*
X134210300Y-65243700D01*
X135366400Y-68224900D02*
X135366400Y-66399800D01*
X133741300Y-69850000D02*
X135366400Y-68224900D01*
X133350000Y-69850000D02*
X133741300Y-69850000D01*
X64656200Y-95705400D02*
X51956200Y-95705400D01*
X51956200Y-95705400D02*
X39256200Y-95705400D01*
X64416400Y-138430000D02*
X68400400Y-134446000D01*
X60780400Y-138430000D02*
X64416400Y-138430000D01*
X109599100Y-65293600D02*
X107950000Y-66942700D01*
X119011800Y-65293600D02*
X109599100Y-65293600D01*
X120650000Y-66931800D02*
X119011800Y-65293600D01*
X120650000Y-67310000D02*
X120650000Y-66931800D01*
X107950000Y-66942700D02*
X107950000Y-67310000D01*
X88543400Y-65293200D02*
X90170000Y-66919800D01*
X76311800Y-65293200D02*
X88543400Y-65293200D01*
X74295000Y-67310000D02*
X76311800Y-65293200D01*
X90170000Y-66919800D02*
X90170000Y-67310000D01*
X91796200Y-65293600D02*
X90170000Y-66919800D01*
X98680900Y-65293600D02*
X91796200Y-65293600D01*
X100330000Y-66942700D02*
X98680900Y-65293600D01*
X101979100Y-65293600D02*
X100330000Y-66942700D01*
X106300900Y-65293600D02*
X101979100Y-65293600D01*
X107950000Y-66942700D02*
X106300900Y-65293600D01*
X100330000Y-66942700D02*
X100330000Y-67310000D01*
X89104200Y-134446000D02*
X91440000Y-136781800D01*
X68400400Y-134446000D02*
X89104200Y-134446000D01*
X50800000Y-113030000D02*
X50800000Y-111429800D01*
X63500000Y-113030000D02*
X61549700Y-113030000D01*
X51150200Y-111079600D02*
X50800000Y-111429800D01*
X59599300Y-111079600D02*
X51150200Y-111079600D01*
X61549700Y-113030000D02*
X59599300Y-111079600D01*
X88900000Y-113030000D02*
X88900000Y-114630200D01*
X97699300Y-114980400D02*
X88900000Y-114980400D01*
X99649700Y-113030000D02*
X97699300Y-114980400D01*
X88900000Y-114630200D02*
X88900000Y-114980400D01*
X76200000Y-113284100D02*
X76200000Y-113030000D01*
X77896300Y-114980400D02*
X76200000Y-113284100D01*
X88900000Y-114980400D02*
X77896300Y-114980400D01*
X101600000Y-113030000D02*
X99649700Y-113030000D01*
X27940000Y-114440800D02*
X27940000Y-113030000D01*
X19071300Y-123309500D02*
X27940000Y-114440800D01*
X19071300Y-142578700D02*
X19071300Y-123309500D01*
X25337400Y-148844800D02*
X19071300Y-142578700D01*
X82701800Y-148844800D02*
X25337400Y-148844800D01*
X86360000Y-145186600D02*
X82701800Y-148844800D01*
X86360000Y-144780000D02*
X86360000Y-145186600D01*
X114300000Y-125730000D02*
X112349700Y-125730000D01*
X101600000Y-125730000D02*
X101600000Y-127730300D01*
X38100000Y-125730000D02*
X38100000Y-127330200D01*
X50800000Y-125730000D02*
X50800000Y-127730300D01*
X38100000Y-127330200D02*
X38100000Y-127680400D01*
X25400000Y-125973900D02*
X25400000Y-125730000D01*
X27106500Y-127680400D02*
X25400000Y-125973900D01*
X38100000Y-127680400D02*
X27106500Y-127680400D01*
X39419900Y-129000300D02*
X38100000Y-127680400D01*
X49530000Y-129000300D02*
X39419900Y-129000300D01*
X112349700Y-126426200D02*
X112349700Y-125730000D01*
X111045600Y-127730300D02*
X112349700Y-126426200D01*
X101600000Y-127730300D02*
X111045600Y-127730300D01*
X49530000Y-137160000D02*
X49530000Y-129000300D01*
X49530000Y-129000300D02*
X50800000Y-127730300D01*
X59549400Y-127730300D02*
X61549700Y-125730000D01*
X50800000Y-127730300D02*
X59549400Y-127730300D01*
X63500000Y-125730000D02*
X62524900Y-125730000D01*
X62524900Y-125730000D02*
X61549700Y-125730000D01*
X72299400Y-127680300D02*
X74249700Y-125730000D01*
X64475200Y-127680300D02*
X72299400Y-127680300D01*
X62524900Y-125730000D02*
X64475200Y-127680300D01*
X76200000Y-125730000D02*
X74249700Y-125730000D01*
X88900000Y-125730000D02*
X86949700Y-125730000D01*
X76200000Y-125730000D02*
X76200000Y-127730300D01*
X84776200Y-127903500D02*
X86949700Y-125730000D01*
X76373200Y-127903500D02*
X84776200Y-127903500D01*
X76200000Y-127730300D02*
X76373200Y-127903500D01*
X40640000Y-112205400D02*
X40640000Y-113030000D01*
X39464300Y-111029700D02*
X40640000Y-112205400D01*
X23966900Y-111029700D02*
X39464300Y-111029700D01*
X17569600Y-117427000D02*
X23966900Y-111029700D01*
X17569600Y-143204700D02*
X17569600Y-117427000D01*
X27502200Y-153137300D02*
X17569600Y-143204700D01*
X83394200Y-153137300D02*
X27502200Y-153137300D01*
X91440000Y-145091500D02*
X83394200Y-153137300D01*
X91440000Y-144780000D02*
X91440000Y-145091500D01*
X101600000Y-145158200D02*
X101600000Y-144780000D01*
X99961800Y-146796400D02*
X101600000Y-145158200D01*
X92346600Y-146796400D02*
X99961800Y-146796400D01*
X84505400Y-154637600D02*
X92346600Y-146796400D01*
X26880800Y-154637600D02*
X84505400Y-154637600D01*
X16018900Y-143775700D02*
X26880800Y-154637600D01*
X16018900Y-116856000D02*
X16018900Y-143775700D01*
X23345500Y-109529400D02*
X16018900Y-116856000D01*
X40085700Y-109529400D02*
X23345500Y-109529400D01*
X45586700Y-115030400D02*
X40085700Y-109529400D01*
X52221300Y-115030400D02*
X45586700Y-115030400D01*
X53340000Y-113911700D02*
X52221300Y-115030400D01*
X53340000Y-113030000D02*
X53340000Y-113911700D01*
X53340000Y-124848300D02*
X53340000Y-125730000D01*
X52221300Y-123729600D02*
X53340000Y-124848300D01*
X23975800Y-123729600D02*
X52221300Y-123729600D01*
X22113600Y-125591800D02*
X23975800Y-123729600D01*
X22113600Y-138023100D02*
X22113600Y-125591800D01*
X23942400Y-139851900D02*
X22113600Y-138023100D01*
X37293600Y-139851900D02*
X23942400Y-139851900D01*
X41910000Y-144468300D02*
X37293600Y-139851900D01*
X41910000Y-144780000D02*
X41910000Y-144468300D01*
X70601000Y-117591000D02*
X66040000Y-113030000D01*
X102245200Y-117591000D02*
X70601000Y-117591000D01*
X110634300Y-125980100D02*
X102245200Y-117591000D01*
X91440000Y-126567700D02*
X91440000Y-125730000D01*
X87404200Y-130603500D02*
X91440000Y-126567700D01*
X62148000Y-130603500D02*
X87404200Y-130603500D01*
X53397300Y-139354200D02*
X62148000Y-130603500D01*
X49558800Y-139354200D02*
X53397300Y-139354200D01*
X44450000Y-144463000D02*
X49558800Y-139354200D01*
X44450000Y-144780000D02*
X44450000Y-144463000D01*
X85612500Y-121520500D02*
X86154000Y-121520500D01*
X80729800Y-126403200D02*
X85612500Y-121520500D01*
X104140000Y-124892300D02*
X104140000Y-125730000D01*
X99244100Y-119996400D02*
X104140000Y-124892300D01*
X25587100Y-119996400D02*
X99244100Y-119996400D01*
X20598400Y-124985100D02*
X25587100Y-119996400D01*
X20598400Y-138722800D02*
X20598400Y-124985100D01*
X23851900Y-141976300D02*
X20598400Y-138722800D01*
X31864400Y-141976300D02*
X23851900Y-141976300D01*
X34290000Y-144401900D02*
X31864400Y-141976300D01*
X34290000Y-144780000D02*
X34290000Y-144401900D01*
X116840000Y-126559400D02*
X116840000Y-125730000D01*
X110705900Y-132693500D02*
X116840000Y-126559400D01*
X66204400Y-132693500D02*
X110705900Y-132693500D01*
X59055000Y-83134900D02*
X59055000Y-74930000D01*
X64656200Y-88736100D02*
X59055000Y-83134900D01*
X64656200Y-91006400D02*
X64656200Y-88736100D01*
X48895000Y-79097300D02*
X48895000Y-74930000D01*
X39256200Y-88736100D02*
X48895000Y-79097300D01*
X39256200Y-91006400D02*
X39256200Y-88736100D01*
X43815000Y-76017900D02*
X43815000Y-74930000D01*
X28826500Y-91006400D02*
X43815000Y-76017900D01*
X26556200Y-91006400D02*
X28826500Y-91006400D01*
X71755000Y-74579300D02*
X71755000Y-74930000D01*
X74209300Y-72125000D02*
X71755000Y-74579300D01*
X86285400Y-72125000D02*
X74209300Y-72125000D01*
X87630000Y-70780400D02*
X86285400Y-72125000D01*
X87630000Y-69850000D02*
X87630000Y-70780400D01*
X87630000Y-67310000D02*
X85090000Y-67310000D01*
X111760000Y-144397300D02*
X111760000Y-144780000D01*
X108217300Y-140854600D02*
X111760000Y-144397300D01*
X52440300Y-140854600D02*
X108217300Y-140854600D01*
M02*
