M48
;DRILL file {KiCad 4.0.2-stable} date Wednesday, 03 August 2016 'pmt' 15:26:25
;FORMAT={-:-/ absolute / inch / decimal}
FMAT,2
INCH,TZ
T1C0.024
T2C0.030
T3C0.032
T4C0.035
T5C0.039
T6C0.060
%
G90
G05
M72
T1
X2.0646Y-5.5455
X2.6065Y-5.2242
X2.6929Y-5.6437
X3.1783Y-4.9765
X3.3919Y-4.7843
X3.775Y-3.95
X3.825Y-3.9
X3.825Y-4.
X4.3557Y-4.9598
X4.375Y-3.95
X4.425Y-3.9
X4.425Y-4.
X4.975Y-3.95
X5.025Y-3.9
X5.025Y-4.
X5.274Y-2.8403
T2
X0.95Y-5.4
X0.95Y-5.7
X1.05Y-5.4
X1.05Y-5.7
X1.15Y-5.4
X1.15Y-5.7
X1.25Y-5.4
X1.25Y-5.7
X1.35Y-5.4
X1.35Y-5.7
X1.45Y-5.4
X1.45Y-5.7
X1.55Y-5.4
X1.55Y-5.7
X1.625Y-2.65
X1.625Y-2.95
X1.65Y-5.4
X1.65Y-5.7
X1.725Y-2.65
X1.725Y-2.95
X1.75Y-5.4
X1.75Y-5.7
X1.825Y-2.65
X1.825Y-2.95
X1.85Y-5.4
X1.85Y-5.7
X1.925Y-2.65
X1.925Y-2.95
X1.95Y-5.4
X1.95Y-5.7
X2.025Y-2.65
X2.025Y-2.95
X2.05Y-5.4
X2.05Y-5.7
X2.125Y-2.65
X2.125Y-2.95
X2.225Y-2.65
X2.225Y-2.95
X2.325Y-2.65
X2.325Y-2.95
X2.425Y-2.65
X2.425Y-2.95
X2.525Y-2.65
X2.525Y-2.95
X2.625Y-2.65
X2.625Y-2.95
X2.725Y-2.65
X2.725Y-2.95
X2.825Y-2.65
X2.825Y-2.95
X2.925Y-2.65
X2.925Y-2.95
X3.3Y-5.4
X3.3Y-5.7
X3.35Y-2.65
X3.35Y-2.75
X3.4Y-5.4
X3.4Y-5.7
X3.45Y-2.65
X3.45Y-2.75
X3.5Y-5.4
X3.5Y-5.7
X3.55Y-2.65
X3.55Y-2.75
X3.6Y-5.4
X3.6Y-5.7
X3.65Y-2.65
X3.65Y-2.75
X3.7Y-5.4
X3.7Y-5.7
X3.75Y-2.65
X3.75Y-2.75
X3.8Y-5.4
X3.8Y-5.7
X3.85Y-2.65
X3.85Y-2.75
X3.9Y-5.4
X3.9Y-5.7
X3.95Y-2.65
X3.95Y-2.75
X4.Y-5.4
X4.Y-5.7
X4.05Y-2.65
X4.05Y-2.75
X4.1Y-5.4
X4.1Y-5.7
X4.15Y-2.65
X4.15Y-2.75
X4.2Y-5.4
X4.2Y-5.7
X4.25Y-2.65
X4.25Y-2.75
X4.3Y-5.4
X4.3Y-5.7
X4.35Y-2.65
X4.35Y-2.75
X4.4Y-5.4
X4.4Y-5.7
X4.45Y-2.65
X4.45Y-2.75
X4.55Y-2.65
X4.55Y-2.75
X4.65Y-2.65
X4.65Y-2.75
X4.75Y-2.65
X4.75Y-2.75
X4.85Y-2.65
X4.85Y-2.75
X4.95Y-2.65
X4.95Y-2.75
X5.05Y-2.65
X5.05Y-2.75
X5.15Y-2.65
X5.15Y-2.75
X5.25Y-2.65
X5.25Y-2.75
T3
X2.6929Y-5.2931
X2.6929Y-5.7931
X5.05Y-5.2931
X5.05Y-5.7931
T4
X2.3929Y-5.45
X2.3929Y-5.6469
X4.75Y-5.4
X4.75Y-5.5969
T5
X1.Y-4.45
X1.Y-4.95
X1.1Y-4.45
X1.1Y-4.95
X1.35Y-5.95
X1.5Y-4.45
X1.5Y-4.95
X1.6Y-4.45
X1.6Y-4.95
X1.75Y-5.95
X2.Y-4.45
X2.Y-4.95
X2.1Y-4.45
X2.1Y-4.95
X2.5Y-4.45
X2.5Y-4.95
X2.6Y-4.45
X2.6Y-4.95
X3.Y-4.45
X3.Y-4.95
X3.1Y-4.45
X3.1Y-4.95
X3.5Y-4.45
X3.5Y-4.95
X3.6Y-4.45
X3.6Y-4.95
X3.625Y-3.3
X3.625Y-3.6
X3.8Y-5.95
X4.Y-4.45
X4.Y-4.95
X4.025Y-3.3
X4.025Y-3.6
X4.1Y-4.45
X4.1Y-4.95
X4.2Y-5.95
X4.225Y-3.3
X4.225Y-3.6
X4.5Y-4.45
X4.5Y-4.95
X4.6Y-4.45
X4.6Y-4.95
X4.625Y-3.3
X4.625Y-3.6
X4.825Y-3.3
X4.825Y-3.6
X5.225Y-3.3
X5.225Y-3.6
T6
X1.0455Y-3.5829
X1.0455Y-3.7679
X1.0455Y-3.9529
X1.5455Y-3.5829
X1.5455Y-3.7679
X1.5455Y-3.9529
X2.0455Y-3.5829
X2.0455Y-3.7679
X2.0455Y-3.9529
X2.5455Y-3.5829
X2.5455Y-3.7679
X2.5455Y-3.9529
T5
X1.1329Y-2.7856G85X1.1329Y-2.8643
G05
X1.2116Y-3.01G85X1.2903Y-3.01
G05
X1.3691Y-2.7856G85X1.3691Y-2.8643
G05
T0
M30
