G04 #@! TF.FileFunction,Copper,L2,Bot,Signal*
%FSLAX46Y46*%
G04 Gerber Fmt 4.6, Leading zero omitted, Abs format (unit mm)*
G04 Created by KiCad (PCBNEW 4.0.2-stable) date Wednesday, 27 July 2016 'pmt' 16:31:02*
%MOMM*%
G01*
G04 APERTURE LIST*
%ADD10C,0.100000*%
%ADD11R,1.397000X1.397000*%
%ADD12C,1.397000*%
%ADD13R,1.400000X1.400000*%
%ADD14C,1.400000*%
%ADD15R,3.500120X3.500120*%
%ADD16R,1.900000X2.000000*%
%ADD17C,1.900000*%
%ADD18C,1.998980*%
%ADD19R,2.032000X2.032000*%
%ADD20C,2.032000*%
%ADD21C,1.000760*%
%ADD22R,2.540000X2.540000*%
%ADD23C,2.540000*%
%ADD24C,1.000000*%
%ADD25C,1.000000*%
%ADD26C,0.254000*%
G04 APERTURE END LIST*
D10*
D11*
X68400400Y-147146000D03*
D12*
X68400400Y-134446000D03*
D13*
X120650000Y-142160000D03*
D14*
X120650000Y-137160000D03*
D11*
X128270000Y-147146000D03*
D12*
X128270000Y-134446000D03*
D13*
X60780400Y-143430000D03*
D14*
X60780400Y-138430000D03*
D15*
X31600140Y-50800000D03*
X25600660Y-50800000D03*
X28600400Y-55499000D03*
D16*
X31115000Y-97790000D03*
D17*
X33655000Y-97790000D03*
D16*
X43815000Y-97790000D03*
D17*
X46355000Y-97790000D03*
D16*
X56515000Y-97790000D03*
D17*
X59055000Y-97790000D03*
D16*
X69215000Y-97790000D03*
D17*
X71755000Y-97790000D03*
D16*
X81915000Y-97790000D03*
D17*
X84455000Y-97790000D03*
D16*
X94615000Y-97790000D03*
D17*
X97155000Y-97790000D03*
D16*
X107315000Y-97790000D03*
D17*
X109855000Y-97790000D03*
D16*
X120015000Y-97790000D03*
D17*
X122555000Y-97790000D03*
D16*
X31115000Y-110490000D03*
D17*
X33655000Y-110490000D03*
D16*
X43815000Y-110490000D03*
D17*
X46355000Y-110490000D03*
D16*
X56515000Y-110490000D03*
D17*
X59055000Y-110490000D03*
D16*
X69215000Y-110490000D03*
D17*
X71755000Y-110490000D03*
D16*
X94615000Y-110490000D03*
D17*
X97155000Y-110490000D03*
D16*
X81915000Y-110490000D03*
D17*
X84455000Y-110490000D03*
D16*
X107315000Y-110490000D03*
D17*
X109855000Y-110490000D03*
D16*
X120015000Y-110490000D03*
D17*
X122555000Y-110490000D03*
D18*
X96520000Y-151130000D03*
X106680000Y-151130000D03*
X34290000Y-151130000D03*
X44450000Y-151130000D03*
D19*
X42545000Y-54610000D03*
D20*
X45085000Y-54610000D03*
X47625000Y-54610000D03*
X50165000Y-54610000D03*
X52705000Y-54610000D03*
X55245000Y-54610000D03*
X57785000Y-54610000D03*
X60325000Y-54610000D03*
X62865000Y-54610000D03*
X65405000Y-54610000D03*
X67945000Y-54610000D03*
X70485000Y-54610000D03*
X73025000Y-54610000D03*
X75565000Y-54610000D03*
X75565000Y-46990000D03*
X73025000Y-46990000D03*
X70485000Y-46990000D03*
X67945000Y-46990000D03*
X65405000Y-46990000D03*
X62865000Y-46990000D03*
X60325000Y-46990000D03*
X57785000Y-46990000D03*
X55245000Y-46990000D03*
X52705000Y-46990000D03*
X50165000Y-46990000D03*
X47625000Y-46990000D03*
X45085000Y-46990000D03*
X42545000Y-46990000D03*
D19*
X88900000Y-54610000D03*
D20*
X88900000Y-46990000D03*
X91440000Y-54610000D03*
X91440000Y-46990000D03*
X93980000Y-54610000D03*
X93980000Y-46990000D03*
X96520000Y-54610000D03*
X96520000Y-46990000D03*
X99060000Y-54610000D03*
X99060000Y-46990000D03*
X101600000Y-54610000D03*
X101600000Y-46990000D03*
X104140000Y-54610000D03*
X104140000Y-46990000D03*
X106680000Y-54610000D03*
X106680000Y-46990000D03*
X109220000Y-54610000D03*
X109220000Y-46990000D03*
X111760000Y-54610000D03*
X111760000Y-46990000D03*
X114300000Y-54610000D03*
X114300000Y-46990000D03*
X116840000Y-54610000D03*
X116840000Y-46990000D03*
X119380000Y-54610000D03*
X119380000Y-46990000D03*
X121920000Y-54610000D03*
X121920000Y-46990000D03*
X124460000Y-54610000D03*
X124460000Y-46990000D03*
X127000000Y-54610000D03*
X127000000Y-46990000D03*
X129540000Y-54610000D03*
X129540000Y-46990000D03*
X132080000Y-54610000D03*
X132080000Y-46990000D03*
X134620000Y-54610000D03*
X134620000Y-46990000D03*
X137160000Y-54610000D03*
X137160000Y-46990000D03*
D19*
X111760000Y-137160000D03*
D20*
X109220000Y-137160000D03*
X106680000Y-137160000D03*
X104140000Y-137160000D03*
X101600000Y-137160000D03*
X99060000Y-137160000D03*
X96520000Y-137160000D03*
X93980000Y-137160000D03*
X91440000Y-137160000D03*
X88900000Y-137160000D03*
X86360000Y-137160000D03*
X83820000Y-137160000D03*
X83820000Y-144780000D03*
X86360000Y-144780000D03*
X88900000Y-144780000D03*
X91440000Y-144780000D03*
X93980000Y-144780000D03*
X96520000Y-144780000D03*
X99060000Y-144780000D03*
X101600000Y-144780000D03*
X104140000Y-144780000D03*
X106680000Y-144780000D03*
X109220000Y-144780000D03*
X111760000Y-144780000D03*
D19*
X52070000Y-137160000D03*
D20*
X49530000Y-137160000D03*
X46990000Y-137160000D03*
X44450000Y-137160000D03*
X41910000Y-137160000D03*
X39370000Y-137160000D03*
X36830000Y-137160000D03*
X34290000Y-137160000D03*
X31750000Y-137160000D03*
X29210000Y-137160000D03*
X26670000Y-137160000D03*
X24130000Y-137160000D03*
X24130000Y-144780000D03*
X26670000Y-144780000D03*
X29210000Y-144780000D03*
X31750000Y-144780000D03*
X34290000Y-144780000D03*
X36830000Y-144780000D03*
X39370000Y-144780000D03*
X41910000Y-144780000D03*
X44450000Y-144780000D03*
X46990000Y-144780000D03*
X49530000Y-144780000D03*
X52070000Y-144780000D03*
D21*
X97155000Y-80010000D03*
X98425000Y-78740000D03*
X98425000Y-81280000D03*
X127635000Y-80010000D03*
X128905000Y-78740000D03*
X128905000Y-81280000D03*
X112395000Y-80010000D03*
X113665000Y-78740000D03*
X113665000Y-81280000D03*
D18*
X93345000Y-63500000D03*
X103505000Y-63500000D03*
X93345000Y-71120000D03*
X103505000Y-71120000D03*
X108585000Y-63500000D03*
X118745000Y-63500000D03*
X108585000Y-71120000D03*
X118745000Y-71120000D03*
X123825000Y-63500000D03*
X133985000Y-63500000D03*
X123825000Y-71120000D03*
X133985000Y-71120000D03*
D22*
X71006200Y-69416400D03*
D23*
X71006200Y-74115400D03*
X71006200Y-78814400D03*
D22*
X58306200Y-69416400D03*
D23*
X58306200Y-74115400D03*
X58306200Y-78814400D03*
D22*
X45606200Y-69416400D03*
D23*
X45606200Y-74115400D03*
X45606200Y-78814400D03*
D22*
X32906200Y-69416400D03*
D23*
X32906200Y-74115400D03*
X32906200Y-78814400D03*
D24*
X94412200Y-149103100D03*
X115573700Y-137510200D03*
X86696500Y-110089000D03*
X96131100Y-114660800D03*
X91388500Y-107243300D03*
D25*
X126174500Y-78549500D02*
X127635000Y-80010000D01*
X126174500Y-65849500D02*
X126174500Y-78549500D01*
X123825000Y-63500000D02*
X126174500Y-65849500D01*
X95763000Y-78618000D02*
X95763000Y-65918000D01*
X97155000Y-80010000D02*
X95763000Y-78618000D01*
X108585000Y-61498700D02*
X108585000Y-63500000D01*
X109220000Y-60863700D02*
X108585000Y-61498700D01*
X109220000Y-54610000D02*
X109220000Y-60863700D01*
X100182300Y-61498700D02*
X95763000Y-65918000D01*
X108585000Y-61498700D02*
X100182300Y-61498700D01*
X111003000Y-65918000D02*
X108585000Y-63500000D01*
X111003000Y-78618000D02*
X111003000Y-65918000D01*
X112395000Y-80010000D02*
X111003000Y-78618000D01*
X62865000Y-52472500D02*
X62865000Y-54610000D01*
X67945000Y-47392500D02*
X62865000Y-52472500D01*
X67945000Y-46990000D02*
X67945000Y-47392500D01*
X95763000Y-65918000D02*
X93345000Y-63500000D01*
X88900000Y-59055000D02*
X88900000Y-54610000D01*
X93345000Y-63500000D02*
X88900000Y-59055000D01*
X98425000Y-68580000D02*
X103505000Y-63500000D01*
X98425000Y-78740000D02*
X98425000Y-68580000D01*
X60780400Y-143430000D02*
X59080100Y-143430000D01*
X59080100Y-144912600D02*
X59080100Y-143430000D01*
X54193800Y-149798900D02*
X59080100Y-144912600D01*
X44450000Y-149798900D02*
X54193800Y-149798900D01*
X44071400Y-149798900D02*
X44450000Y-149798900D01*
X39370000Y-145097500D02*
X44071400Y-149798900D01*
X39370000Y-144780000D02*
X39370000Y-145097500D01*
X44450000Y-149798900D02*
X44450000Y-151130000D01*
X98425000Y-81280000D02*
X103505000Y-81280000D01*
X103505000Y-71120000D02*
X103505000Y-81280000D01*
X83820000Y-135978600D02*
X83820000Y-137160000D01*
X105073700Y-114724900D02*
X83820000Y-135978600D01*
X105073700Y-105664000D02*
X105073700Y-114724900D01*
X111811600Y-98926100D02*
X105073700Y-105664000D01*
X111811600Y-89586600D02*
X111811600Y-98926100D01*
X103505000Y-81280000D02*
X111811600Y-89586600D01*
X116840000Y-54923700D02*
X116840000Y-54610000D01*
X120986500Y-59070200D02*
X116840000Y-54923700D01*
X122267400Y-59070200D02*
X120986500Y-59070200D01*
X130341100Y-67143900D02*
X122267400Y-59070200D01*
X128905000Y-68580000D02*
X130341100Y-67143900D01*
X128905000Y-78740000D02*
X128905000Y-68580000D01*
X130341100Y-67143900D02*
X133985000Y-63500000D01*
X128905000Y-122228700D02*
X128905000Y-81280000D01*
X118949600Y-132184100D02*
X128905000Y-122228700D01*
X118949600Y-142645900D02*
X118949600Y-132184100D01*
X108423500Y-153172000D02*
X118949600Y-142645900D01*
X91894400Y-153172000D02*
X108423500Y-153172000D01*
X83820000Y-145097600D02*
X91894400Y-153172000D01*
X83820000Y-144780000D02*
X83820000Y-145097600D01*
X133985000Y-76200000D02*
X133985000Y-71120000D01*
X128905000Y-81280000D02*
X133985000Y-76200000D01*
X113665000Y-68580000D02*
X118745000Y-63500000D01*
X113665000Y-78740000D02*
X113665000Y-68580000D01*
X111760000Y-56515000D02*
X118745000Y-63500000D01*
X111760000Y-54610000D02*
X111760000Y-56515000D01*
X118745000Y-76200000D02*
X113665000Y-81280000D01*
X118745000Y-71120000D02*
X118745000Y-76200000D01*
X113665000Y-133238700D02*
X111760000Y-135143700D01*
X113665000Y-81280000D02*
X113665000Y-133238700D01*
X111760000Y-137160000D02*
X111760000Y-135143700D01*
X65405000Y-68514200D02*
X65405000Y-54610000D01*
X71006200Y-74115400D02*
X65405000Y-68514200D01*
X65405000Y-52413800D02*
X65405000Y-54610000D01*
X70485000Y-47333800D02*
X65405000Y-52413800D01*
X70485000Y-46990000D02*
X70485000Y-47333800D01*
X129540000Y-46990000D02*
X129540000Y-47303800D01*
X25600700Y-66809900D02*
X25600700Y-50800000D01*
X32906200Y-74115400D02*
X25600700Y-66809900D01*
X123364000Y-134446000D02*
X120650000Y-137160000D01*
X128270000Y-134446000D02*
X123364000Y-134446000D01*
X99060000Y-50800000D02*
X99060000Y-54610000D01*
X97422700Y-50800000D02*
X93980000Y-47357300D01*
X99060000Y-50800000D02*
X97422700Y-50800000D01*
X92330900Y-49006400D02*
X93980000Y-47357300D01*
X77581400Y-49006400D02*
X92330900Y-49006400D01*
X75565000Y-46990000D02*
X77581400Y-49006400D01*
X93980000Y-47357300D02*
X93980000Y-46990000D01*
X64764400Y-134446000D02*
X60780400Y-138430000D01*
X68400400Y-134446000D02*
X64764400Y-134446000D01*
X137160000Y-54233700D02*
X137160000Y-54610000D01*
X134527000Y-51600700D02*
X137160000Y-54233700D01*
X133836900Y-51600700D02*
X134527000Y-51600700D01*
X129540000Y-47303800D02*
X133836900Y-51600700D01*
X137160000Y-125556000D02*
X128270000Y-134446000D01*
X137160000Y-54610000D02*
X137160000Y-125556000D01*
X104140000Y-46990000D02*
X104140000Y-49006200D01*
X102346200Y-50800000D02*
X99060000Y-50800000D01*
X104140000Y-49006200D02*
X102346200Y-50800000D01*
X110110900Y-49006400D02*
X111760000Y-47357300D01*
X104140200Y-49006400D02*
X110110900Y-49006400D01*
X104140000Y-49006200D02*
X104140200Y-49006400D01*
X111760000Y-47357300D02*
X111760000Y-46990000D01*
X119380000Y-50800000D02*
X119380000Y-54610000D01*
X115202700Y-50800000D02*
X111760000Y-47357300D01*
X119380000Y-50800000D02*
X115202700Y-50800000D01*
X120962400Y-50800000D02*
X119380000Y-50800000D01*
X124460000Y-47302400D02*
X120962400Y-50800000D01*
X126188200Y-49030600D02*
X124460000Y-47302400D01*
X127813200Y-49030600D02*
X126188200Y-49030600D01*
X129540000Y-47303800D02*
X127813200Y-49030600D01*
X124460000Y-47302400D02*
X124460000Y-46990000D01*
X52564400Y-99790300D02*
X43815000Y-99790300D01*
X54564700Y-97790000D02*
X52564400Y-99790300D01*
X56515000Y-97790000D02*
X54564700Y-97790000D01*
X43815000Y-97790000D02*
X43815000Y-99790300D01*
X115579600Y-100275100D02*
X118064700Y-97790000D01*
X115579600Y-135245200D02*
X115579600Y-100275100D01*
X113975100Y-136849700D02*
X115579600Y-135245200D01*
X113975100Y-138406300D02*
X113975100Y-136849700D01*
X113197100Y-139184300D02*
X113975100Y-138406300D01*
X110336100Y-139184300D02*
X113197100Y-139184300D01*
X109220000Y-138068200D02*
X110336100Y-139184300D01*
X109220000Y-137160000D02*
X109220000Y-138068200D01*
X120015000Y-97790000D02*
X118064700Y-97790000D01*
X35664100Y-95780900D02*
X33655000Y-97790000D01*
X85234500Y-95780900D02*
X35664100Y-95780900D01*
X99138800Y-109685200D02*
X85234500Y-95780900D01*
X99138800Y-113972400D02*
X99138800Y-109685200D01*
X78755100Y-134356100D02*
X99138800Y-113972400D01*
X78755100Y-139292600D02*
X78755100Y-134356100D01*
X82226100Y-142763600D02*
X78755100Y-139292600D01*
X84725500Y-142763600D02*
X82226100Y-142763600D01*
X86360000Y-144398100D02*
X84725500Y-142763600D01*
X86360000Y-144780000D02*
X86360000Y-144398100D01*
X69215000Y-110490000D02*
X69215000Y-108489700D01*
X81915000Y-110490000D02*
X79964700Y-110490000D01*
X56515000Y-110490000D02*
X54564700Y-110490000D01*
X43815000Y-110490000D02*
X43815000Y-108539600D01*
X47192800Y-108539600D02*
X43815000Y-108539600D01*
X51854000Y-113200700D02*
X47192800Y-108539600D01*
X49530000Y-115524700D02*
X51854000Y-113200700D01*
X49530000Y-137160000D02*
X49530000Y-115524700D01*
X51854000Y-113200700D02*
X54564700Y-110490000D01*
X77964400Y-108489700D02*
X69215000Y-108489700D01*
X79964700Y-110490000D02*
X77964400Y-108489700D01*
X33655000Y-116408700D02*
X33655000Y-110490000D01*
X20547800Y-129515900D02*
X33655000Y-116408700D01*
X20547800Y-138620600D02*
X20547800Y-129515900D01*
X24178700Y-142251500D02*
X20547800Y-138620600D01*
X24509600Y-142251500D02*
X24178700Y-142251500D01*
X26670000Y-144411900D02*
X24509600Y-142251500D01*
X26670000Y-144780000D02*
X26670000Y-144411900D01*
X46355000Y-112028800D02*
X46355000Y-110490000D01*
X22080900Y-136302900D02*
X46355000Y-112028800D01*
X22080900Y-137997100D02*
X22080900Y-136302900D01*
X23935700Y-139851900D02*
X22080900Y-137997100D01*
X27154700Y-139851900D02*
X23935700Y-139851900D01*
X31750000Y-144447200D02*
X27154700Y-139851900D01*
X31750000Y-144780000D02*
X31750000Y-144447200D01*
X97684200Y-149103100D02*
X94412200Y-149103100D01*
X101600000Y-145187300D02*
X97684200Y-149103100D01*
X101600000Y-144780000D02*
X101600000Y-145187300D01*
X41910000Y-144443900D02*
X41910000Y-144780000D01*
X47045500Y-139308400D02*
X41910000Y-144443900D01*
X53403700Y-139308400D02*
X47045500Y-139308400D01*
X59055000Y-133657100D02*
X53403700Y-139308400D01*
X59055000Y-110490000D02*
X59055000Y-133657100D01*
X74620000Y-97790000D02*
X71755000Y-97790000D01*
X86696500Y-109866500D02*
X74620000Y-97790000D01*
X86696500Y-110089000D02*
X86696500Y-109866500D01*
X115573700Y-138966600D02*
X115573700Y-137510200D01*
X111981300Y-142559000D02*
X115573700Y-138966600D01*
X111105300Y-142559000D02*
X111981300Y-142559000D01*
X109220000Y-144444300D02*
X111105300Y-142559000D01*
X109220000Y-144780000D02*
X109220000Y-144444300D01*
X71755000Y-123081100D02*
X71755000Y-110490000D01*
X52072500Y-142763600D02*
X71755000Y-123081100D01*
X51168200Y-142763600D02*
X52072500Y-142763600D01*
X49530000Y-144401800D02*
X51168200Y-142763600D01*
X49530000Y-144780000D02*
X49530000Y-144401800D01*
X97155000Y-111379400D02*
X97155000Y-110490000D01*
X66804800Y-141729600D02*
X97155000Y-111379400D01*
X58649600Y-141729600D02*
X66804800Y-141729600D01*
X57380900Y-142998300D02*
X58649600Y-141729600D01*
X57380900Y-144490100D02*
X57380900Y-142998300D01*
X53572400Y-148298600D02*
X57380900Y-144490100D01*
X47635700Y-148298600D02*
X53572400Y-148298600D01*
X44450000Y-145112900D02*
X47635700Y-148298600D01*
X44450000Y-144780000D02*
X44450000Y-145112900D01*
X100689200Y-101324200D02*
X97155000Y-97790000D01*
X100689200Y-114543900D02*
X100689200Y-101324200D01*
X80255500Y-134977600D02*
X100689200Y-114543900D01*
X80255500Y-138666100D02*
X80255500Y-134977600D01*
X82852600Y-141263200D02*
X80255500Y-138666100D01*
X85729000Y-141263200D02*
X82852600Y-141263200D01*
X88900000Y-144434200D02*
X85729000Y-141263200D01*
X88900000Y-144780000D02*
X88900000Y-144434200D01*
X109855000Y-98683500D02*
X109855000Y-97790000D01*
X102644500Y-105894000D02*
X109855000Y-98683500D01*
X102644500Y-114710500D02*
X102644500Y-105894000D01*
X81781300Y-135573700D02*
X102644500Y-114710500D01*
X81781300Y-138007200D02*
X81781300Y-135573700D01*
X83537000Y-139762900D02*
X81781300Y-138007200D01*
X89365600Y-139762900D02*
X83537000Y-139762900D01*
X93980000Y-144377300D02*
X89365600Y-139762900D01*
X93980000Y-144780000D02*
X93980000Y-144377300D01*
X57659400Y-153132500D02*
X96131100Y-114660800D01*
X33401600Y-153132500D02*
X57659400Y-153132500D01*
X32273700Y-152004600D02*
X33401600Y-153132500D01*
X32273700Y-149753900D02*
X32273700Y-152004600D01*
X34290000Y-147737600D02*
X32273700Y-149753900D01*
X34290000Y-144780000D02*
X34290000Y-147737600D01*
X122555000Y-103550400D02*
X122555000Y-97790000D01*
X117080000Y-109025400D02*
X122555000Y-103550400D01*
X117080000Y-142312400D02*
X117080000Y-109025400D01*
X112592100Y-146800300D02*
X117080000Y-142312400D01*
X108341300Y-146800300D02*
X112592100Y-146800300D01*
X106680000Y-145139000D02*
X108341300Y-146800300D01*
X106680000Y-144780000D02*
X106680000Y-145139000D01*
X91388500Y-113923400D02*
X91388500Y-107243300D01*
X65082700Y-140229200D02*
X91388500Y-113923400D01*
X58016700Y-140229200D02*
X65082700Y-140229200D01*
X55350100Y-142895800D02*
X58016700Y-140229200D01*
X55350100Y-144399200D02*
X55350100Y-142895800D01*
X52951000Y-146798300D02*
X55350100Y-144399200D01*
X48695500Y-146798300D02*
X52951000Y-146798300D01*
X46990000Y-145092800D02*
X48695500Y-146798300D01*
X46990000Y-144780000D02*
X46990000Y-145092800D01*
X36830000Y-148590000D02*
X34290000Y-151130000D01*
X36830000Y-144780000D02*
X36830000Y-148590000D01*
X57785000Y-60462600D02*
X57785000Y-54610000D01*
X63904600Y-66582200D02*
X57785000Y-60462600D01*
X63904600Y-71712800D02*
X63904600Y-66582200D01*
X71006200Y-78814400D02*
X63904600Y-71712800D01*
X55245000Y-64084900D02*
X55245000Y-54610000D01*
X58306200Y-67146100D02*
X55245000Y-64084900D01*
X58306200Y-69416400D02*
X58306200Y-67146100D01*
X52705000Y-73213200D02*
X52705000Y-54610000D01*
X58306200Y-78814400D02*
X52705000Y-73213200D01*
X47876600Y-54861600D02*
X47625000Y-54610000D01*
X47876600Y-76544000D02*
X47876600Y-54861600D01*
X45606200Y-78814400D02*
X47876600Y-76544000D01*
X42545000Y-69175600D02*
X42545000Y-54610000D01*
X32906200Y-78814400D02*
X42545000Y-69175600D01*
X70485000Y-54233800D02*
X70485000Y-54610000D01*
X73641700Y-51077100D02*
X70485000Y-54233800D01*
X90975000Y-51077100D02*
X73641700Y-51077100D01*
X93980000Y-54082100D02*
X90975000Y-51077100D01*
X93980000Y-54610000D02*
X93980000Y-54082100D01*
X73025000Y-54236300D02*
X73025000Y-54610000D01*
X74673900Y-52587400D02*
X73025000Y-54236300D01*
X90363200Y-52587400D02*
X74673900Y-52587400D01*
X91440000Y-53664200D02*
X90363200Y-52587400D01*
X91440000Y-54610000D02*
X91440000Y-53664200D01*
D26*
G36*
X141530000Y-156770000D02*
X14680000Y-156770000D01*
X14680000Y-129515900D01*
X19412800Y-129515900D01*
X19412800Y-138620600D01*
X19499197Y-139054946D01*
X19730386Y-139400945D01*
X19745234Y-139423166D01*
X23376134Y-143054066D01*
X23608284Y-143209184D01*
X23196005Y-143379534D01*
X22731166Y-143843563D01*
X22479287Y-144450155D01*
X22478714Y-145106963D01*
X22729534Y-145713995D01*
X23193563Y-146178834D01*
X23800155Y-146430713D01*
X24456963Y-146431286D01*
X25063995Y-146180466D01*
X25400179Y-145844868D01*
X25733563Y-146178834D01*
X26340155Y-146430713D01*
X26996963Y-146431286D01*
X27603995Y-146180466D01*
X27940179Y-145844868D01*
X28273563Y-146178834D01*
X28880155Y-146430713D01*
X29536963Y-146431286D01*
X30143995Y-146180466D01*
X30480179Y-145844868D01*
X30813563Y-146178834D01*
X31420155Y-146430713D01*
X32076963Y-146431286D01*
X32683995Y-146180466D01*
X33020179Y-145844868D01*
X33155000Y-145979924D01*
X33155000Y-147267468D01*
X31471134Y-148951334D01*
X31225097Y-149319554D01*
X31138700Y-149753900D01*
X31138700Y-152004600D01*
X31225097Y-152438946D01*
X31398295Y-152698155D01*
X31471134Y-152807166D01*
X32599033Y-153935066D01*
X32967254Y-154181103D01*
X33401600Y-154267500D01*
X57659400Y-154267500D01*
X58093746Y-154181103D01*
X58461966Y-153935066D01*
X65949532Y-146447500D01*
X67054460Y-146447500D01*
X67054460Y-147844500D01*
X67098738Y-148079817D01*
X67237810Y-148295941D01*
X67450010Y-148440931D01*
X67701900Y-148491940D01*
X69098900Y-148491940D01*
X69334217Y-148447662D01*
X69550341Y-148308590D01*
X69695331Y-148096390D01*
X69746340Y-147844500D01*
X69746340Y-146447500D01*
X69702062Y-146212183D01*
X69562990Y-145996059D01*
X69350790Y-145851069D01*
X69098900Y-145800060D01*
X67701900Y-145800060D01*
X67466583Y-145844338D01*
X67250459Y-145983410D01*
X67105469Y-146195610D01*
X67054460Y-146447500D01*
X65949532Y-146447500D01*
X77620100Y-134776932D01*
X77620100Y-139292600D01*
X77706497Y-139726946D01*
X77952534Y-140095166D01*
X81423534Y-143566166D01*
X81791754Y-143812203D01*
X82226100Y-143898600D01*
X82398313Y-143898600D01*
X82169287Y-144450155D01*
X82168714Y-145106963D01*
X82419534Y-145713995D01*
X82883563Y-146178834D01*
X83490155Y-146430713D01*
X83548031Y-146430763D01*
X91091834Y-153974566D01*
X91460054Y-154220603D01*
X91894400Y-154307000D01*
X108423500Y-154307000D01*
X108857846Y-154220603D01*
X109226066Y-153974566D01*
X116753132Y-146447500D01*
X126924060Y-146447500D01*
X126924060Y-147844500D01*
X126968338Y-148079817D01*
X127107410Y-148295941D01*
X127319610Y-148440931D01*
X127571500Y-148491940D01*
X128968500Y-148491940D01*
X129203817Y-148447662D01*
X129419941Y-148308590D01*
X129564931Y-148096390D01*
X129615940Y-147844500D01*
X129615940Y-146447500D01*
X129571662Y-146212183D01*
X129432590Y-145996059D01*
X129220390Y-145851069D01*
X128968500Y-145800060D01*
X127571500Y-145800060D01*
X127336183Y-145844338D01*
X127120059Y-145983410D01*
X126975069Y-146195610D01*
X126924060Y-146447500D01*
X116753132Y-146447500D01*
X119736439Y-143464193D01*
X119950000Y-143507440D01*
X121350000Y-143507440D01*
X121585317Y-143463162D01*
X121801441Y-143324090D01*
X121946431Y-143111890D01*
X121997440Y-142860000D01*
X121997440Y-141460000D01*
X121953162Y-141224683D01*
X121814090Y-141008559D01*
X121601890Y-140863569D01*
X121350000Y-140812560D01*
X120084600Y-140812560D01*
X120084600Y-138376260D01*
X120457122Y-138507419D01*
X120987440Y-138478664D01*
X121343831Y-138331042D01*
X121405669Y-138095275D01*
X120650000Y-137339605D01*
X120635858Y-137353748D01*
X120456252Y-137174142D01*
X120470395Y-137160000D01*
X120829605Y-137160000D01*
X121585275Y-137915669D01*
X121821042Y-137853831D01*
X121997419Y-137352878D01*
X121968664Y-136822560D01*
X121821042Y-136466169D01*
X121585275Y-136404331D01*
X120829605Y-137160000D01*
X120470395Y-137160000D01*
X120456252Y-137145858D01*
X120635858Y-136966252D01*
X120650000Y-136980395D01*
X121405669Y-136224725D01*
X121343831Y-135988958D01*
X120842878Y-135812581D01*
X120312560Y-135841336D01*
X120084600Y-135935760D01*
X120084600Y-135380188D01*
X127515417Y-135380188D01*
X127577071Y-135615800D01*
X128077480Y-135791927D01*
X128607199Y-135763148D01*
X128962929Y-135615800D01*
X129024583Y-135380188D01*
X128270000Y-134625605D01*
X127515417Y-135380188D01*
X120084600Y-135380188D01*
X120084600Y-134253480D01*
X126924073Y-134253480D01*
X126952852Y-134783199D01*
X127100200Y-135138929D01*
X127335812Y-135200583D01*
X128090395Y-134446000D01*
X128449605Y-134446000D01*
X129204188Y-135200583D01*
X129439800Y-135138929D01*
X129615927Y-134638520D01*
X129587148Y-134108801D01*
X129439800Y-133753071D01*
X129204188Y-133691417D01*
X128449605Y-134446000D01*
X128090395Y-134446000D01*
X127335812Y-133691417D01*
X127100200Y-133753071D01*
X126924073Y-134253480D01*
X120084600Y-134253480D01*
X120084600Y-133511812D01*
X127515417Y-133511812D01*
X128270000Y-134266395D01*
X129024583Y-133511812D01*
X128962929Y-133276200D01*
X128462520Y-133100073D01*
X127932801Y-133128852D01*
X127577071Y-133276200D01*
X127515417Y-133511812D01*
X120084600Y-133511812D01*
X120084600Y-132654232D01*
X129707566Y-123031266D01*
X129953604Y-122663045D01*
X130040000Y-122228700D01*
X130040000Y-81750132D01*
X134787566Y-77002566D01*
X134850038Y-76909070D01*
X135033603Y-76634346D01*
X135120000Y-76200000D01*
X135120000Y-72296484D01*
X135369846Y-72047073D01*
X135619206Y-71446547D01*
X135619774Y-70796306D01*
X135371462Y-70195345D01*
X134912073Y-69735154D01*
X134311547Y-69485794D01*
X133661306Y-69485226D01*
X133060345Y-69733538D01*
X132600154Y-70192927D01*
X132350794Y-70793453D01*
X132350226Y-71443694D01*
X132598538Y-72044655D01*
X132850000Y-72296556D01*
X132850000Y-75729868D01*
X130040555Y-78539313D01*
X130040576Y-78515150D01*
X130040000Y-78513756D01*
X130040000Y-69050132D01*
X133955666Y-65134466D01*
X134308694Y-65134774D01*
X134909655Y-64886462D01*
X135369846Y-64427073D01*
X135619206Y-63826547D01*
X135619774Y-63176306D01*
X135371462Y-62575345D01*
X134912073Y-62115154D01*
X134311547Y-61865794D01*
X133661306Y-61865226D01*
X133060345Y-62113538D01*
X132600154Y-62572927D01*
X132350794Y-63173453D01*
X132350483Y-63529385D01*
X130341100Y-65538768D01*
X123069966Y-58267634D01*
X123047218Y-58252434D01*
X122701746Y-58021597D01*
X122267400Y-57935200D01*
X121456633Y-57935200D01*
X119769028Y-56247596D01*
X120263880Y-56042622D01*
X120364502Y-55774107D01*
X119380000Y-54789605D01*
X119365858Y-54803748D01*
X119186253Y-54624143D01*
X119200395Y-54610000D01*
X119559605Y-54610000D01*
X120544107Y-55594502D01*
X120562917Y-55587453D01*
X120983563Y-56008834D01*
X121590155Y-56260713D01*
X122246963Y-56261286D01*
X122853995Y-56010466D01*
X123190179Y-55674868D01*
X123523563Y-56008834D01*
X124130155Y-56260713D01*
X124786963Y-56261286D01*
X125393995Y-56010466D01*
X125730179Y-55674868D01*
X126063563Y-56008834D01*
X126670155Y-56260713D01*
X127326963Y-56261286D01*
X127933995Y-56010466D01*
X128270179Y-55674868D01*
X128603563Y-56008834D01*
X129210155Y-56260713D01*
X129866963Y-56261286D01*
X130473995Y-56010466D01*
X130810179Y-55674868D01*
X131143563Y-56008834D01*
X131750155Y-56260713D01*
X132406963Y-56261286D01*
X133013995Y-56010466D01*
X133350179Y-55674868D01*
X133683563Y-56008834D01*
X134290155Y-56260713D01*
X134946963Y-56261286D01*
X135553995Y-56010466D01*
X135790766Y-55774107D01*
X136175498Y-55774107D01*
X136276120Y-56042622D01*
X136891642Y-56271816D01*
X137548019Y-56248014D01*
X138043880Y-56042622D01*
X138144502Y-55774107D01*
X137160000Y-54789605D01*
X136175498Y-55774107D01*
X135790766Y-55774107D01*
X135977565Y-55587634D01*
X135995893Y-55594502D01*
X136980395Y-54610000D01*
X137339605Y-54610000D01*
X138324107Y-55594502D01*
X138592622Y-55493880D01*
X138821816Y-54878358D01*
X138798014Y-54221981D01*
X138592622Y-53726120D01*
X138324107Y-53625498D01*
X137339605Y-54610000D01*
X136980395Y-54610000D01*
X135995893Y-53625498D01*
X135977083Y-53632547D01*
X135790755Y-53445893D01*
X136175498Y-53445893D01*
X137160000Y-54430395D01*
X138144502Y-53445893D01*
X138043880Y-53177378D01*
X137428358Y-52948184D01*
X136771981Y-52971986D01*
X136276120Y-53177378D01*
X136175498Y-53445893D01*
X135790755Y-53445893D01*
X135556437Y-53211166D01*
X134949845Y-52959287D01*
X134293037Y-52958714D01*
X133686005Y-53209534D01*
X133349821Y-53545132D01*
X133016437Y-53211166D01*
X132409845Y-52959287D01*
X131753037Y-52958714D01*
X131146005Y-53209534D01*
X130809821Y-53545132D01*
X130476437Y-53211166D01*
X129869845Y-52959287D01*
X129213037Y-52958714D01*
X128606005Y-53209534D01*
X128269821Y-53545132D01*
X127936437Y-53211166D01*
X127329845Y-52959287D01*
X126673037Y-52958714D01*
X126066005Y-53209534D01*
X125729821Y-53545132D01*
X125396437Y-53211166D01*
X124789845Y-52959287D01*
X124133037Y-52958714D01*
X123526005Y-53209534D01*
X123189821Y-53545132D01*
X122856437Y-53211166D01*
X122249845Y-52959287D01*
X121593037Y-52958714D01*
X120986005Y-53209534D01*
X120562435Y-53632366D01*
X120544107Y-53625498D01*
X119559605Y-54610000D01*
X119200395Y-54610000D01*
X118215893Y-53625498D01*
X118197083Y-53632547D01*
X118010755Y-53445893D01*
X118395498Y-53445893D01*
X119380000Y-54430395D01*
X120364502Y-53445893D01*
X120263880Y-53177378D01*
X119648358Y-52948184D01*
X118991981Y-52971986D01*
X118496120Y-53177378D01*
X118395498Y-53445893D01*
X118010755Y-53445893D01*
X117776437Y-53211166D01*
X117169845Y-52959287D01*
X116513037Y-52958714D01*
X115906005Y-53209534D01*
X115569821Y-53545132D01*
X115236437Y-53211166D01*
X114629845Y-52959287D01*
X113973037Y-52958714D01*
X113366005Y-53209534D01*
X113029821Y-53545132D01*
X112696437Y-53211166D01*
X112089845Y-52959287D01*
X111433037Y-52958714D01*
X110826005Y-53209534D01*
X110489821Y-53545132D01*
X110156437Y-53211166D01*
X109549845Y-52959287D01*
X108893037Y-52958714D01*
X108286005Y-53209534D01*
X107949821Y-53545132D01*
X107616437Y-53211166D01*
X107009845Y-52959287D01*
X106353037Y-52958714D01*
X105746005Y-53209534D01*
X105409821Y-53545132D01*
X105076437Y-53211166D01*
X104469845Y-52959287D01*
X103813037Y-52958714D01*
X103206005Y-53209534D01*
X102869821Y-53545132D01*
X102536437Y-53211166D01*
X101929845Y-52959287D01*
X101273037Y-52958714D01*
X100666005Y-53209534D01*
X100242435Y-53632366D01*
X100224107Y-53625498D01*
X99239605Y-54610000D01*
X100224107Y-55594502D01*
X100242917Y-55587453D01*
X100663563Y-56008834D01*
X101270155Y-56260713D01*
X101926963Y-56261286D01*
X102533995Y-56010466D01*
X102870179Y-55674868D01*
X103203563Y-56008834D01*
X103810155Y-56260713D01*
X104466963Y-56261286D01*
X105073995Y-56010466D01*
X105410179Y-55674868D01*
X105743563Y-56008834D01*
X106350155Y-56260713D01*
X107006963Y-56261286D01*
X107613995Y-56010466D01*
X107950179Y-55674868D01*
X108085000Y-55809924D01*
X108085000Y-60363700D01*
X100182300Y-60363700D01*
X99747954Y-60450097D01*
X99379734Y-60696134D01*
X95763000Y-64312868D01*
X94979466Y-63529334D01*
X94979774Y-63176306D01*
X94731462Y-62575345D01*
X94272073Y-62115154D01*
X93671547Y-61865794D01*
X93315615Y-61865483D01*
X90035000Y-58584868D01*
X90035000Y-56251049D01*
X90151317Y-56229162D01*
X90367441Y-56090090D01*
X90455713Y-55960900D01*
X90503563Y-56008834D01*
X91110155Y-56260713D01*
X91766963Y-56261286D01*
X92373995Y-56010466D01*
X92710179Y-55674868D01*
X93043563Y-56008834D01*
X93650155Y-56260713D01*
X94306963Y-56261286D01*
X94913995Y-56010466D01*
X95250179Y-55674868D01*
X95583563Y-56008834D01*
X96190155Y-56260713D01*
X96846963Y-56261286D01*
X97453995Y-56010466D01*
X97690766Y-55774107D01*
X98075498Y-55774107D01*
X98176120Y-56042622D01*
X98791642Y-56271816D01*
X99448019Y-56248014D01*
X99943880Y-56042622D01*
X100044502Y-55774107D01*
X99060000Y-54789605D01*
X98075498Y-55774107D01*
X97690766Y-55774107D01*
X97877565Y-55587634D01*
X97895893Y-55594502D01*
X98880395Y-54610000D01*
X97895893Y-53625498D01*
X97877083Y-53632547D01*
X97690755Y-53445893D01*
X98075498Y-53445893D01*
X99060000Y-54430395D01*
X100044502Y-53445893D01*
X99943880Y-53177378D01*
X99328358Y-52948184D01*
X98671981Y-52971986D01*
X98176120Y-53177378D01*
X98075498Y-53445893D01*
X97690755Y-53445893D01*
X97456437Y-53211166D01*
X96849845Y-52959287D01*
X96193037Y-52958714D01*
X95586005Y-53209534D01*
X95249821Y-53545132D01*
X94916437Y-53211166D01*
X94570590Y-53067558D01*
X91777566Y-50274534D01*
X91409346Y-50028497D01*
X90975000Y-49942100D01*
X73641700Y-49942100D01*
X73207354Y-50028497D01*
X72839134Y-50274534D01*
X70152783Y-52960885D01*
X69551005Y-53209534D01*
X69214821Y-53545132D01*
X68881437Y-53211166D01*
X68274845Y-52959287D01*
X67618037Y-52958714D01*
X67011005Y-53209534D01*
X66587435Y-53632366D01*
X66569107Y-53625498D01*
X65584605Y-54610000D01*
X66569107Y-55594502D01*
X66587917Y-55587453D01*
X67008563Y-56008834D01*
X67615155Y-56260713D01*
X68271963Y-56261286D01*
X68878995Y-56010466D01*
X69215179Y-55674868D01*
X69548563Y-56008834D01*
X70155155Y-56260713D01*
X70811963Y-56261286D01*
X71418995Y-56010466D01*
X71755179Y-55674868D01*
X72088563Y-56008834D01*
X72695155Y-56260713D01*
X73351963Y-56261286D01*
X73958995Y-56010466D01*
X74295179Y-55674868D01*
X74628563Y-56008834D01*
X75235155Y-56260713D01*
X75891963Y-56261286D01*
X76498995Y-56010466D01*
X76963834Y-55546437D01*
X77215713Y-54939845D01*
X77216286Y-54283037D01*
X76984636Y-53722400D01*
X87236560Y-53722400D01*
X87236560Y-55626000D01*
X87280838Y-55861317D01*
X87419910Y-56077441D01*
X87632110Y-56222431D01*
X87765000Y-56249342D01*
X87765000Y-59055000D01*
X87851397Y-59489346D01*
X88097434Y-59857566D01*
X91710534Y-63470666D01*
X91710226Y-63823694D01*
X91958538Y-64424655D01*
X92417927Y-64884846D01*
X93018453Y-65134206D01*
X93374385Y-65134517D01*
X94628000Y-66388132D01*
X94628000Y-70091702D01*
X94272073Y-69735154D01*
X93671547Y-69485794D01*
X93021306Y-69485226D01*
X92420345Y-69733538D01*
X91960154Y-70192927D01*
X91710794Y-70793453D01*
X91710226Y-71443694D01*
X91958538Y-72044655D01*
X92417927Y-72504846D01*
X93018453Y-72754206D01*
X93668694Y-72754774D01*
X94269655Y-72506462D01*
X94628000Y-72148742D01*
X94628000Y-78618000D01*
X94714397Y-79052346D01*
X94795915Y-79174346D01*
X94960434Y-79420566D01*
X96191729Y-80651861D01*
X96191911Y-80652301D01*
X96511019Y-80971967D01*
X96928168Y-81145182D01*
X97289737Y-81145497D01*
X97289424Y-81504850D01*
X97461911Y-81922301D01*
X97781019Y-82241967D01*
X98198168Y-82415182D01*
X98649850Y-82415576D01*
X98651244Y-82415000D01*
X103034868Y-82415000D01*
X110676600Y-90056732D01*
X110676600Y-96414946D01*
X110171659Y-96205276D01*
X109541107Y-96204725D01*
X108958343Y-96445519D01*
X108860663Y-96543029D01*
X108729090Y-96338559D01*
X108516890Y-96193569D01*
X108265000Y-96142560D01*
X106365000Y-96142560D01*
X106129683Y-96186838D01*
X105913559Y-96325910D01*
X105768569Y-96538110D01*
X105717560Y-96790000D01*
X105717560Y-98790000D01*
X105761838Y-99025317D01*
X105900910Y-99241441D01*
X106113110Y-99386431D01*
X106365000Y-99437440D01*
X107495928Y-99437440D01*
X101841934Y-105091434D01*
X101824200Y-105117975D01*
X101824200Y-101324200D01*
X101824101Y-101323703D01*
X101737804Y-100889855D01*
X101491766Y-100521634D01*
X98740018Y-97769886D01*
X98740275Y-97476107D01*
X98499481Y-96893343D01*
X98054003Y-96447086D01*
X97471659Y-96205276D01*
X96841107Y-96204725D01*
X96258343Y-96445519D01*
X96160663Y-96543029D01*
X96029090Y-96338559D01*
X95816890Y-96193569D01*
X95565000Y-96142560D01*
X93665000Y-96142560D01*
X93429683Y-96186838D01*
X93213559Y-96325910D01*
X93068569Y-96538110D01*
X93017560Y-96790000D01*
X93017560Y-98790000D01*
X93061838Y-99025317D01*
X93200910Y-99241441D01*
X93413110Y-99386431D01*
X93665000Y-99437440D01*
X95565000Y-99437440D01*
X95800317Y-99393162D01*
X96016441Y-99254090D01*
X96161431Y-99041890D01*
X96162055Y-99038808D01*
X96255997Y-99132914D01*
X96838341Y-99374724D01*
X97134851Y-99374983D01*
X99554200Y-101794332D01*
X99554200Y-108495468D01*
X86037066Y-94978334D01*
X85668846Y-94732297D01*
X85234500Y-94645900D01*
X35664100Y-94645900D01*
X35229754Y-94732297D01*
X34861533Y-94978334D01*
X33634886Y-96204982D01*
X33341107Y-96204725D01*
X32758343Y-96445519D01*
X32660663Y-96543029D01*
X32529090Y-96338559D01*
X32316890Y-96193569D01*
X32065000Y-96142560D01*
X30165000Y-96142560D01*
X29929683Y-96186838D01*
X29713559Y-96325910D01*
X29568569Y-96538110D01*
X29517560Y-96790000D01*
X29517560Y-98790000D01*
X29561838Y-99025317D01*
X29700910Y-99241441D01*
X29913110Y-99386431D01*
X30165000Y-99437440D01*
X32065000Y-99437440D01*
X32300317Y-99393162D01*
X32516441Y-99254090D01*
X32661431Y-99041890D01*
X32662055Y-99038808D01*
X32755997Y-99132914D01*
X33338341Y-99374724D01*
X33968893Y-99375275D01*
X34551657Y-99134481D01*
X34997914Y-98689003D01*
X35239724Y-98106659D01*
X35239983Y-97810149D01*
X36134233Y-96915900D01*
X42217560Y-96915900D01*
X42217560Y-98790000D01*
X42261838Y-99025317D01*
X42400910Y-99241441D01*
X42613110Y-99386431D01*
X42680000Y-99399977D01*
X42680000Y-99790300D01*
X42766397Y-100224646D01*
X43012434Y-100592866D01*
X43380654Y-100838903D01*
X43815000Y-100925300D01*
X52564400Y-100925300D01*
X52998746Y-100838903D01*
X53366966Y-100592866D01*
X54957511Y-99002321D01*
X54961838Y-99025317D01*
X55100910Y-99241441D01*
X55313110Y-99386431D01*
X55565000Y-99437440D01*
X57465000Y-99437440D01*
X57700317Y-99393162D01*
X57916441Y-99254090D01*
X58061431Y-99041890D01*
X58062055Y-99038808D01*
X58155997Y-99132914D01*
X58738341Y-99374724D01*
X59368893Y-99375275D01*
X59951657Y-99134481D01*
X60397914Y-98689003D01*
X60639724Y-98106659D01*
X60640275Y-97476107D01*
X60408801Y-96915900D01*
X67617560Y-96915900D01*
X67617560Y-98790000D01*
X67661838Y-99025317D01*
X67800910Y-99241441D01*
X68013110Y-99386431D01*
X68265000Y-99437440D01*
X70165000Y-99437440D01*
X70400317Y-99393162D01*
X70616441Y-99254090D01*
X70761431Y-99041890D01*
X70762055Y-99038808D01*
X70855997Y-99132914D01*
X71438341Y-99374724D01*
X72068893Y-99375275D01*
X72651657Y-99134481D01*
X72861504Y-98925000D01*
X74149868Y-98925000D01*
X84132959Y-108908091D01*
X83558343Y-109145519D01*
X83460663Y-109243029D01*
X83329090Y-109038559D01*
X83116890Y-108893569D01*
X82865000Y-108842560D01*
X80965000Y-108842560D01*
X80729683Y-108886838D01*
X80513559Y-109025910D01*
X80368569Y-109238110D01*
X80360043Y-109280211D01*
X78766966Y-107687134D01*
X78398746Y-107441097D01*
X77964400Y-107354700D01*
X69215000Y-107354700D01*
X68780654Y-107441097D01*
X68412434Y-107687134D01*
X68166397Y-108055354D01*
X68080000Y-108489700D01*
X68080000Y-108877370D01*
X68029683Y-108886838D01*
X67813559Y-109025910D01*
X67668569Y-109238110D01*
X67617560Y-109490000D01*
X67617560Y-111490000D01*
X67661838Y-111725317D01*
X67800910Y-111941441D01*
X68013110Y-112086431D01*
X68265000Y-112137440D01*
X70165000Y-112137440D01*
X70400317Y-112093162D01*
X70616441Y-111954090D01*
X70620000Y-111948881D01*
X70620000Y-122610967D01*
X60190000Y-133040968D01*
X60190000Y-111596554D01*
X60397914Y-111389003D01*
X60639724Y-110806659D01*
X60640275Y-110176107D01*
X60399481Y-109593343D01*
X59954003Y-109147086D01*
X59371659Y-108905276D01*
X58741107Y-108904725D01*
X58158343Y-109145519D01*
X58060663Y-109243029D01*
X57929090Y-109038559D01*
X57716890Y-108893569D01*
X57465000Y-108842560D01*
X55565000Y-108842560D01*
X55329683Y-108886838D01*
X55113559Y-109025910D01*
X54968569Y-109238110D01*
X54944898Y-109355000D01*
X54564700Y-109355000D01*
X54130355Y-109441396D01*
X53762134Y-109687434D01*
X51853991Y-111595577D01*
X47995358Y-107737025D01*
X47793686Y-107602276D01*
X47627146Y-107490997D01*
X47627140Y-107490996D01*
X47627134Y-107490992D01*
X47400141Y-107445843D01*
X47192800Y-107404600D01*
X43815000Y-107404600D01*
X43380654Y-107490997D01*
X43012434Y-107737034D01*
X42766397Y-108105254D01*
X42680000Y-108539600D01*
X42680000Y-108877370D01*
X42629683Y-108886838D01*
X42413559Y-109025910D01*
X42268569Y-109238110D01*
X42217560Y-109490000D01*
X42217560Y-111490000D01*
X42261838Y-111725317D01*
X42400910Y-111941441D01*
X42613110Y-112086431D01*
X42865000Y-112137440D01*
X44641227Y-112137440D01*
X21682800Y-135095868D01*
X21682800Y-129986032D01*
X34457566Y-117211266D01*
X34703603Y-116843046D01*
X34790000Y-116408700D01*
X34790000Y-111596554D01*
X34997914Y-111389003D01*
X35239724Y-110806659D01*
X35240275Y-110176107D01*
X34999481Y-109593343D01*
X34554003Y-109147086D01*
X33971659Y-108905276D01*
X33341107Y-108904725D01*
X32758343Y-109145519D01*
X32660663Y-109243029D01*
X32529090Y-109038559D01*
X32316890Y-108893569D01*
X32065000Y-108842560D01*
X30165000Y-108842560D01*
X29929683Y-108886838D01*
X29713559Y-109025910D01*
X29568569Y-109238110D01*
X29517560Y-109490000D01*
X29517560Y-111490000D01*
X29561838Y-111725317D01*
X29700910Y-111941441D01*
X29913110Y-112086431D01*
X30165000Y-112137440D01*
X32065000Y-112137440D01*
X32300317Y-112093162D01*
X32516441Y-111954090D01*
X32520000Y-111948881D01*
X32520000Y-115938568D01*
X19745234Y-128713334D01*
X19499197Y-129081554D01*
X19412800Y-129515900D01*
X14680000Y-129515900D01*
X14680000Y-79191665D01*
X31000870Y-79191665D01*
X31290278Y-79892086D01*
X31825695Y-80428439D01*
X32525610Y-80719068D01*
X33283465Y-80719730D01*
X33983886Y-80430322D01*
X34520239Y-79894905D01*
X34810868Y-79194990D01*
X34811463Y-78514269D01*
X39539296Y-73786436D01*
X43691939Y-73786436D01*
X43711764Y-74544032D01*
X43963543Y-75151880D01*
X44258423Y-75283572D01*
X45426595Y-74115400D01*
X44258423Y-72947228D01*
X43963543Y-73078920D01*
X43691939Y-73786436D01*
X39539296Y-73786436D01*
X43347566Y-69978166D01*
X43593604Y-69609945D01*
X43680000Y-69175600D01*
X43680000Y-56251049D01*
X43796317Y-56229162D01*
X44012441Y-56090090D01*
X44100713Y-55960900D01*
X44148563Y-56008834D01*
X44755155Y-56260713D01*
X45411963Y-56261286D01*
X46018995Y-56010466D01*
X46355179Y-55674868D01*
X46688563Y-56008834D01*
X46741600Y-56030857D01*
X46741600Y-67498960D01*
X44336200Y-67498960D01*
X44100883Y-67543238D01*
X43884759Y-67682310D01*
X43739769Y-67894510D01*
X43688760Y-68146400D01*
X43688760Y-70686400D01*
X43733038Y-70921717D01*
X43872110Y-71137841D01*
X44084310Y-71282831D01*
X44336200Y-71333840D01*
X46741600Y-71333840D01*
X46741600Y-72694241D01*
X46642680Y-72472743D01*
X45935164Y-72201139D01*
X45177568Y-72220964D01*
X44569720Y-72472743D01*
X44438028Y-72767623D01*
X45606200Y-73935795D01*
X45620343Y-73921653D01*
X45799948Y-74101258D01*
X45785805Y-74115400D01*
X45799948Y-74129543D01*
X45620343Y-74309148D01*
X45606200Y-74295005D01*
X44438028Y-75463177D01*
X44569720Y-75758057D01*
X45277236Y-76029661D01*
X46034832Y-76009836D01*
X46642680Y-75758057D01*
X46741600Y-75536559D01*
X46741600Y-76073867D01*
X45905806Y-76909661D01*
X45228935Y-76909070D01*
X44528514Y-77198478D01*
X43992161Y-77733895D01*
X43701532Y-78433810D01*
X43700870Y-79191665D01*
X43990278Y-79892086D01*
X44525695Y-80428439D01*
X45225610Y-80719068D01*
X45983465Y-80719730D01*
X46683886Y-80430322D01*
X47220239Y-79894905D01*
X47510868Y-79194990D01*
X47511463Y-78514270D01*
X48679166Y-77346567D01*
X48925203Y-76978346D01*
X48938983Y-76909070D01*
X49011600Y-76544000D01*
X49011600Y-55791492D01*
X49228563Y-56008834D01*
X49835155Y-56260713D01*
X50491963Y-56261286D01*
X51098995Y-56010466D01*
X51435179Y-55674868D01*
X51570000Y-55809924D01*
X51570000Y-73213200D01*
X51656397Y-73647546D01*
X51848999Y-73935795D01*
X51902434Y-74015766D01*
X56401461Y-78514793D01*
X56400870Y-79191665D01*
X56690278Y-79892086D01*
X57225695Y-80428439D01*
X57925610Y-80719068D01*
X58683465Y-80719730D01*
X59383886Y-80430322D01*
X59920239Y-79894905D01*
X60210868Y-79194990D01*
X60211530Y-78437135D01*
X59922122Y-77736714D01*
X59386705Y-77200361D01*
X58686790Y-76909732D01*
X58006069Y-76909137D01*
X56560109Y-75463177D01*
X57138028Y-75463177D01*
X57269720Y-75758057D01*
X57977236Y-76029661D01*
X58734832Y-76009836D01*
X59342680Y-75758057D01*
X59474372Y-75463177D01*
X58306200Y-74295005D01*
X57138028Y-75463177D01*
X56560109Y-75463177D01*
X54883368Y-73786436D01*
X56391939Y-73786436D01*
X56411764Y-74544032D01*
X56663543Y-75151880D01*
X56958423Y-75283572D01*
X58126595Y-74115400D01*
X58485805Y-74115400D01*
X59653977Y-75283572D01*
X59948857Y-75151880D01*
X60220461Y-74444364D01*
X60200636Y-73686768D01*
X59948857Y-73078920D01*
X59653977Y-72947228D01*
X58485805Y-74115400D01*
X58126595Y-74115400D01*
X56958423Y-72947228D01*
X56663543Y-73078920D01*
X56391939Y-73786436D01*
X54883368Y-73786436D01*
X53864555Y-72767623D01*
X57138028Y-72767623D01*
X58306200Y-73935795D01*
X59474372Y-72767623D01*
X59342680Y-72472743D01*
X58635164Y-72201139D01*
X57877568Y-72220964D01*
X57269720Y-72472743D01*
X57138028Y-72767623D01*
X53864555Y-72767623D01*
X53840000Y-72743068D01*
X53840000Y-55809811D01*
X53975179Y-55674868D01*
X54110000Y-55809924D01*
X54110000Y-64084900D01*
X54196397Y-64519246D01*
X54430361Y-64869397D01*
X54442434Y-64887466D01*
X57053927Y-67498960D01*
X57036200Y-67498960D01*
X56800883Y-67543238D01*
X56584759Y-67682310D01*
X56439769Y-67894510D01*
X56388760Y-68146400D01*
X56388760Y-70686400D01*
X56433038Y-70921717D01*
X56572110Y-71137841D01*
X56784310Y-71282831D01*
X57036200Y-71333840D01*
X59576200Y-71333840D01*
X59811517Y-71289562D01*
X60027641Y-71150490D01*
X60172631Y-70938290D01*
X60223640Y-70686400D01*
X60223640Y-68146400D01*
X60179362Y-67911083D01*
X60040290Y-67694959D01*
X59828090Y-67549969D01*
X59576200Y-67498960D01*
X59441200Y-67498960D01*
X59441200Y-67146100D01*
X59405496Y-66966603D01*
X59354804Y-66711755D01*
X59108767Y-66343534D01*
X56380000Y-63614768D01*
X56380000Y-55809811D01*
X56515179Y-55674868D01*
X56650000Y-55809924D01*
X56650000Y-60462600D01*
X56736397Y-60896946D01*
X56982434Y-61265166D01*
X62769600Y-67052332D01*
X62769600Y-71712800D01*
X62855997Y-72147146D01*
X62905321Y-72220964D01*
X63102034Y-72515366D01*
X69101461Y-78514793D01*
X69100870Y-79191665D01*
X69390278Y-79892086D01*
X69925695Y-80428439D01*
X70625610Y-80719068D01*
X71383465Y-80719730D01*
X72083886Y-80430322D01*
X72620239Y-79894905D01*
X72910868Y-79194990D01*
X72911530Y-78437135D01*
X72622122Y-77736714D01*
X72086705Y-77200361D01*
X71386790Y-76909732D01*
X70706069Y-76909137D01*
X69260109Y-75463177D01*
X69838028Y-75463177D01*
X69969720Y-75758057D01*
X70677236Y-76029661D01*
X71434832Y-76009836D01*
X72042680Y-75758057D01*
X72174372Y-75463177D01*
X71006200Y-74295005D01*
X69838028Y-75463177D01*
X69260109Y-75463177D01*
X67583368Y-73786436D01*
X69091939Y-73786436D01*
X69111764Y-74544032D01*
X69363543Y-75151880D01*
X69658423Y-75283572D01*
X70826595Y-74115400D01*
X71185805Y-74115400D01*
X72353977Y-75283572D01*
X72648857Y-75151880D01*
X72920461Y-74444364D01*
X72900636Y-73686768D01*
X72648857Y-73078920D01*
X72353977Y-72947228D01*
X71185805Y-74115400D01*
X70826595Y-74115400D01*
X69658423Y-72947228D01*
X69363543Y-73078920D01*
X69091939Y-73786436D01*
X67583368Y-73786436D01*
X66564555Y-72767623D01*
X69838028Y-72767623D01*
X71006200Y-73935795D01*
X72174372Y-72767623D01*
X72042680Y-72472743D01*
X71335164Y-72201139D01*
X70577568Y-72220964D01*
X69969720Y-72472743D01*
X69838028Y-72767623D01*
X66564555Y-72767623D01*
X65039600Y-71242668D01*
X65039600Y-68146400D01*
X69088760Y-68146400D01*
X69088760Y-70686400D01*
X69133038Y-70921717D01*
X69272110Y-71137841D01*
X69484310Y-71282831D01*
X69736200Y-71333840D01*
X72276200Y-71333840D01*
X72511517Y-71289562D01*
X72727641Y-71150490D01*
X72872631Y-70938290D01*
X72923640Y-70686400D01*
X72923640Y-68146400D01*
X72879362Y-67911083D01*
X72740290Y-67694959D01*
X72528090Y-67549969D01*
X72276200Y-67498960D01*
X69736200Y-67498960D01*
X69500883Y-67543238D01*
X69284759Y-67682310D01*
X69139769Y-67894510D01*
X69088760Y-68146400D01*
X65039600Y-68146400D01*
X65039600Y-66582200D01*
X64953203Y-66147854D01*
X64707166Y-65779634D01*
X58920000Y-59992468D01*
X58920000Y-55809811D01*
X59055179Y-55674868D01*
X59388563Y-56008834D01*
X59995155Y-56260713D01*
X60651963Y-56261286D01*
X61258995Y-56010466D01*
X61595179Y-55674868D01*
X61928563Y-56008834D01*
X62535155Y-56260713D01*
X63191963Y-56261286D01*
X63798995Y-56010466D01*
X64035766Y-55774107D01*
X64420498Y-55774107D01*
X64521120Y-56042622D01*
X65136642Y-56271816D01*
X65793019Y-56248014D01*
X66288880Y-56042622D01*
X66389502Y-55774107D01*
X65405000Y-54789605D01*
X64420498Y-55774107D01*
X64035766Y-55774107D01*
X64222565Y-55587634D01*
X64240893Y-55594502D01*
X65225395Y-54610000D01*
X64240893Y-53625498D01*
X64222083Y-53632547D01*
X64035755Y-53445893D01*
X64420498Y-53445893D01*
X65405000Y-54430395D01*
X66389502Y-53445893D01*
X66288880Y-53177378D01*
X65673358Y-52948184D01*
X65016981Y-52971986D01*
X64521120Y-53177378D01*
X64420498Y-53445893D01*
X64035755Y-53445893D01*
X64000000Y-53410076D01*
X64000000Y-52942632D01*
X68322035Y-48620597D01*
X68878995Y-48390466D01*
X69115766Y-48154107D01*
X69500498Y-48154107D01*
X69601120Y-48422622D01*
X70216642Y-48651816D01*
X70873019Y-48628014D01*
X71368880Y-48422622D01*
X71469502Y-48154107D01*
X72040498Y-48154107D01*
X72141120Y-48422622D01*
X72756642Y-48651816D01*
X73413019Y-48628014D01*
X73908880Y-48422622D01*
X74009502Y-48154107D01*
X74580498Y-48154107D01*
X74681120Y-48422622D01*
X75296642Y-48651816D01*
X75953019Y-48628014D01*
X76448880Y-48422622D01*
X76549502Y-48154107D01*
X75565000Y-47169605D01*
X74580498Y-48154107D01*
X74009502Y-48154107D01*
X73025000Y-47169605D01*
X72040498Y-48154107D01*
X71469502Y-48154107D01*
X70485000Y-47169605D01*
X69500498Y-48154107D01*
X69115766Y-48154107D01*
X69302565Y-47967634D01*
X69320893Y-47974502D01*
X70305395Y-46990000D01*
X70664605Y-46990000D01*
X71649107Y-47974502D01*
X71755000Y-47934820D01*
X71860893Y-47974502D01*
X72845395Y-46990000D01*
X73204605Y-46990000D01*
X74189107Y-47974502D01*
X74295000Y-47934820D01*
X74400893Y-47974502D01*
X75385395Y-46990000D01*
X75744605Y-46990000D01*
X76729107Y-47974502D01*
X76997622Y-47873880D01*
X77204994Y-47316963D01*
X87248714Y-47316963D01*
X87499534Y-47923995D01*
X87963563Y-48388834D01*
X88570155Y-48640713D01*
X89226963Y-48641286D01*
X89833995Y-48390466D01*
X90170179Y-48054868D01*
X90503563Y-48388834D01*
X91110155Y-48640713D01*
X91766963Y-48641286D01*
X92373995Y-48390466D01*
X92610766Y-48154107D01*
X92995498Y-48154107D01*
X93096120Y-48422622D01*
X93711642Y-48651816D01*
X94368019Y-48628014D01*
X94863880Y-48422622D01*
X94964502Y-48154107D01*
X93980000Y-47169605D01*
X92995498Y-48154107D01*
X92610766Y-48154107D01*
X92797565Y-47967634D01*
X92815893Y-47974502D01*
X93800395Y-46990000D01*
X94159605Y-46990000D01*
X95144107Y-47974502D01*
X95162917Y-47967453D01*
X95583563Y-48388834D01*
X96190155Y-48640713D01*
X96846963Y-48641286D01*
X97453995Y-48390466D01*
X97790179Y-48054868D01*
X98123563Y-48388834D01*
X98730155Y-48640713D01*
X99386963Y-48641286D01*
X99993995Y-48390466D01*
X100330179Y-48054868D01*
X100663563Y-48388834D01*
X101270155Y-48640713D01*
X101926963Y-48641286D01*
X102533995Y-48390466D01*
X102770766Y-48154107D01*
X103155498Y-48154107D01*
X103256120Y-48422622D01*
X103871642Y-48651816D01*
X104528019Y-48628014D01*
X105023880Y-48422622D01*
X105124502Y-48154107D01*
X104140000Y-47169605D01*
X103155498Y-48154107D01*
X102770766Y-48154107D01*
X102957565Y-47967634D01*
X102975893Y-47974502D01*
X103960395Y-46990000D01*
X104319605Y-46990000D01*
X105304107Y-47974502D01*
X105322917Y-47967453D01*
X105743563Y-48388834D01*
X106350155Y-48640713D01*
X107006963Y-48641286D01*
X107613995Y-48390466D01*
X107950179Y-48054868D01*
X108283563Y-48388834D01*
X108890155Y-48640713D01*
X109546963Y-48641286D01*
X110153995Y-48390466D01*
X110390766Y-48154107D01*
X110775498Y-48154107D01*
X110876120Y-48422622D01*
X111491642Y-48651816D01*
X112148019Y-48628014D01*
X112643880Y-48422622D01*
X112744502Y-48154107D01*
X111760000Y-47169605D01*
X110775498Y-48154107D01*
X110390766Y-48154107D01*
X110577565Y-47967634D01*
X110595893Y-47974502D01*
X111580395Y-46990000D01*
X111939605Y-46990000D01*
X112924107Y-47974502D01*
X112942917Y-47967453D01*
X113363563Y-48388834D01*
X113970155Y-48640713D01*
X114626963Y-48641286D01*
X115233995Y-48390466D01*
X115570179Y-48054868D01*
X115903563Y-48388834D01*
X116510155Y-48640713D01*
X117166963Y-48641286D01*
X117773995Y-48390466D01*
X118110179Y-48054868D01*
X118443563Y-48388834D01*
X119050155Y-48640713D01*
X119706963Y-48641286D01*
X120313995Y-48390466D01*
X120650179Y-48054868D01*
X120983563Y-48388834D01*
X121590155Y-48640713D01*
X122246963Y-48641286D01*
X122853995Y-48390466D01*
X123090766Y-48154107D01*
X123475498Y-48154107D01*
X123576120Y-48422622D01*
X124191642Y-48651816D01*
X124848019Y-48628014D01*
X125343880Y-48422622D01*
X125444502Y-48154107D01*
X124460000Y-47169605D01*
X123475498Y-48154107D01*
X123090766Y-48154107D01*
X123277565Y-47967634D01*
X123295893Y-47974502D01*
X124280395Y-46990000D01*
X124639605Y-46990000D01*
X125624107Y-47974502D01*
X125642917Y-47967453D01*
X126063563Y-48388834D01*
X126670155Y-48640713D01*
X127326963Y-48641286D01*
X127933995Y-48390466D01*
X128170766Y-48154107D01*
X128555498Y-48154107D01*
X128656120Y-48422622D01*
X129271642Y-48651816D01*
X129928019Y-48628014D01*
X130423880Y-48422622D01*
X130524502Y-48154107D01*
X129540000Y-47169605D01*
X128555498Y-48154107D01*
X128170766Y-48154107D01*
X128357565Y-47967634D01*
X128375893Y-47974502D01*
X129360395Y-46990000D01*
X129719605Y-46990000D01*
X130704107Y-47974502D01*
X130722917Y-47967453D01*
X131143563Y-48388834D01*
X131750155Y-48640713D01*
X132406963Y-48641286D01*
X133013995Y-48390466D01*
X133350179Y-48054868D01*
X133683563Y-48388834D01*
X134290155Y-48640713D01*
X134946963Y-48641286D01*
X135553995Y-48390466D01*
X135890179Y-48054868D01*
X136223563Y-48388834D01*
X136830155Y-48640713D01*
X137486963Y-48641286D01*
X138093995Y-48390466D01*
X138558834Y-47926437D01*
X138810713Y-47319845D01*
X138811286Y-46663037D01*
X138560466Y-46056005D01*
X138096437Y-45591166D01*
X137489845Y-45339287D01*
X136833037Y-45338714D01*
X136226005Y-45589534D01*
X135889821Y-45925132D01*
X135556437Y-45591166D01*
X134949845Y-45339287D01*
X134293037Y-45338714D01*
X133686005Y-45589534D01*
X133349821Y-45925132D01*
X133016437Y-45591166D01*
X132409845Y-45339287D01*
X131753037Y-45338714D01*
X131146005Y-45589534D01*
X130722435Y-46012366D01*
X130704107Y-46005498D01*
X129719605Y-46990000D01*
X129360395Y-46990000D01*
X128375893Y-46005498D01*
X128357083Y-46012547D01*
X128170755Y-45825893D01*
X128555498Y-45825893D01*
X129540000Y-46810395D01*
X130524502Y-45825893D01*
X130423880Y-45557378D01*
X129808358Y-45328184D01*
X129151981Y-45351986D01*
X128656120Y-45557378D01*
X128555498Y-45825893D01*
X128170755Y-45825893D01*
X127936437Y-45591166D01*
X127329845Y-45339287D01*
X126673037Y-45338714D01*
X126066005Y-45589534D01*
X125642435Y-46012366D01*
X125624107Y-46005498D01*
X124639605Y-46990000D01*
X124280395Y-46990000D01*
X123295893Y-46005498D01*
X123277083Y-46012547D01*
X123090755Y-45825893D01*
X123475498Y-45825893D01*
X124460000Y-46810395D01*
X125444502Y-45825893D01*
X125343880Y-45557378D01*
X124728358Y-45328184D01*
X124071981Y-45351986D01*
X123576120Y-45557378D01*
X123475498Y-45825893D01*
X123090755Y-45825893D01*
X122856437Y-45591166D01*
X122249845Y-45339287D01*
X121593037Y-45338714D01*
X120986005Y-45589534D01*
X120649821Y-45925132D01*
X120316437Y-45591166D01*
X119709845Y-45339287D01*
X119053037Y-45338714D01*
X118446005Y-45589534D01*
X118109821Y-45925132D01*
X117776437Y-45591166D01*
X117169845Y-45339287D01*
X116513037Y-45338714D01*
X115906005Y-45589534D01*
X115569821Y-45925132D01*
X115236437Y-45591166D01*
X114629845Y-45339287D01*
X113973037Y-45338714D01*
X113366005Y-45589534D01*
X112942435Y-46012366D01*
X112924107Y-46005498D01*
X111939605Y-46990000D01*
X111580395Y-46990000D01*
X110595893Y-46005498D01*
X110577083Y-46012547D01*
X110390755Y-45825893D01*
X110775498Y-45825893D01*
X111760000Y-46810395D01*
X112744502Y-45825893D01*
X112643880Y-45557378D01*
X112028358Y-45328184D01*
X111371981Y-45351986D01*
X110876120Y-45557378D01*
X110775498Y-45825893D01*
X110390755Y-45825893D01*
X110156437Y-45591166D01*
X109549845Y-45339287D01*
X108893037Y-45338714D01*
X108286005Y-45589534D01*
X107949821Y-45925132D01*
X107616437Y-45591166D01*
X107009845Y-45339287D01*
X106353037Y-45338714D01*
X105746005Y-45589534D01*
X105322435Y-46012366D01*
X105304107Y-46005498D01*
X104319605Y-46990000D01*
X103960395Y-46990000D01*
X102975893Y-46005498D01*
X102957083Y-46012547D01*
X102770755Y-45825893D01*
X103155498Y-45825893D01*
X104140000Y-46810395D01*
X105124502Y-45825893D01*
X105023880Y-45557378D01*
X104408358Y-45328184D01*
X103751981Y-45351986D01*
X103256120Y-45557378D01*
X103155498Y-45825893D01*
X102770755Y-45825893D01*
X102536437Y-45591166D01*
X101929845Y-45339287D01*
X101273037Y-45338714D01*
X100666005Y-45589534D01*
X100329821Y-45925132D01*
X99996437Y-45591166D01*
X99389845Y-45339287D01*
X98733037Y-45338714D01*
X98126005Y-45589534D01*
X97789821Y-45925132D01*
X97456437Y-45591166D01*
X96849845Y-45339287D01*
X96193037Y-45338714D01*
X95586005Y-45589534D01*
X95162435Y-46012366D01*
X95144107Y-46005498D01*
X94159605Y-46990000D01*
X93800395Y-46990000D01*
X92815893Y-46005498D01*
X92797083Y-46012547D01*
X92610755Y-45825893D01*
X92995498Y-45825893D01*
X93980000Y-46810395D01*
X94964502Y-45825893D01*
X94863880Y-45557378D01*
X94248358Y-45328184D01*
X93591981Y-45351986D01*
X93096120Y-45557378D01*
X92995498Y-45825893D01*
X92610755Y-45825893D01*
X92376437Y-45591166D01*
X91769845Y-45339287D01*
X91113037Y-45338714D01*
X90506005Y-45589534D01*
X90169821Y-45925132D01*
X89836437Y-45591166D01*
X89229845Y-45339287D01*
X88573037Y-45338714D01*
X87966005Y-45589534D01*
X87501166Y-46053563D01*
X87249287Y-46660155D01*
X87248714Y-47316963D01*
X77204994Y-47316963D01*
X77226816Y-47258358D01*
X77203014Y-46601981D01*
X76997622Y-46106120D01*
X76729107Y-46005498D01*
X75744605Y-46990000D01*
X75385395Y-46990000D01*
X74400893Y-46005498D01*
X74295000Y-46045180D01*
X74189107Y-46005498D01*
X73204605Y-46990000D01*
X72845395Y-46990000D01*
X71860893Y-46005498D01*
X71755000Y-46045180D01*
X71649107Y-46005498D01*
X70664605Y-46990000D01*
X70305395Y-46990000D01*
X69320893Y-46005498D01*
X69302083Y-46012547D01*
X69115755Y-45825893D01*
X69500498Y-45825893D01*
X70485000Y-46810395D01*
X71469502Y-45825893D01*
X72040498Y-45825893D01*
X73025000Y-46810395D01*
X74009502Y-45825893D01*
X74580498Y-45825893D01*
X75565000Y-46810395D01*
X76549502Y-45825893D01*
X76448880Y-45557378D01*
X75833358Y-45328184D01*
X75176981Y-45351986D01*
X74681120Y-45557378D01*
X74580498Y-45825893D01*
X74009502Y-45825893D01*
X73908880Y-45557378D01*
X73293358Y-45328184D01*
X72636981Y-45351986D01*
X72141120Y-45557378D01*
X72040498Y-45825893D01*
X71469502Y-45825893D01*
X71368880Y-45557378D01*
X70753358Y-45328184D01*
X70096981Y-45351986D01*
X69601120Y-45557378D01*
X69500498Y-45825893D01*
X69115755Y-45825893D01*
X68881437Y-45591166D01*
X68274845Y-45339287D01*
X67618037Y-45338714D01*
X67011005Y-45589534D01*
X66674821Y-45925132D01*
X66341437Y-45591166D01*
X65734845Y-45339287D01*
X65078037Y-45338714D01*
X64471005Y-45589534D01*
X64134821Y-45925132D01*
X63801437Y-45591166D01*
X63194845Y-45339287D01*
X62538037Y-45338714D01*
X61931005Y-45589534D01*
X61594821Y-45925132D01*
X61261437Y-45591166D01*
X60654845Y-45339287D01*
X59998037Y-45338714D01*
X59391005Y-45589534D01*
X59054821Y-45925132D01*
X58721437Y-45591166D01*
X58114845Y-45339287D01*
X57458037Y-45338714D01*
X56851005Y-45589534D01*
X56514821Y-45925132D01*
X56181437Y-45591166D01*
X55574845Y-45339287D01*
X54918037Y-45338714D01*
X54311005Y-45589534D01*
X53974821Y-45925132D01*
X53641437Y-45591166D01*
X53034845Y-45339287D01*
X52378037Y-45338714D01*
X51771005Y-45589534D01*
X51434821Y-45925132D01*
X51101437Y-45591166D01*
X50494845Y-45339287D01*
X49838037Y-45338714D01*
X49231005Y-45589534D01*
X48894821Y-45925132D01*
X48561437Y-45591166D01*
X47954845Y-45339287D01*
X47298037Y-45338714D01*
X46691005Y-45589534D01*
X46354821Y-45925132D01*
X46021437Y-45591166D01*
X45414845Y-45339287D01*
X44758037Y-45338714D01*
X44151005Y-45589534D01*
X43814821Y-45925132D01*
X43481437Y-45591166D01*
X42874845Y-45339287D01*
X42218037Y-45338714D01*
X41611005Y-45589534D01*
X41146166Y-46053563D01*
X40894287Y-46660155D01*
X40893714Y-47316963D01*
X41144534Y-47923995D01*
X41608563Y-48388834D01*
X42215155Y-48640713D01*
X42871963Y-48641286D01*
X43478995Y-48390466D01*
X43815179Y-48054868D01*
X44148563Y-48388834D01*
X44755155Y-48640713D01*
X45411963Y-48641286D01*
X46018995Y-48390466D01*
X46355179Y-48054868D01*
X46688563Y-48388834D01*
X47295155Y-48640713D01*
X47951963Y-48641286D01*
X48558995Y-48390466D01*
X48895179Y-48054868D01*
X49228563Y-48388834D01*
X49835155Y-48640713D01*
X50491963Y-48641286D01*
X51098995Y-48390466D01*
X51435179Y-48054868D01*
X51768563Y-48388834D01*
X52375155Y-48640713D01*
X53031963Y-48641286D01*
X53638995Y-48390466D01*
X53975179Y-48054868D01*
X54308563Y-48388834D01*
X54915155Y-48640713D01*
X55571963Y-48641286D01*
X56178995Y-48390466D01*
X56515179Y-48054868D01*
X56848563Y-48388834D01*
X57455155Y-48640713D01*
X58111963Y-48641286D01*
X58718995Y-48390466D01*
X59055179Y-48054868D01*
X59388563Y-48388834D01*
X59995155Y-48640713D01*
X60651963Y-48641286D01*
X61258995Y-48390466D01*
X61595179Y-48054868D01*
X61928563Y-48388834D01*
X62535155Y-48640713D01*
X63191963Y-48641286D01*
X63798995Y-48390466D01*
X64135179Y-48054868D01*
X64468563Y-48388834D01*
X65075155Y-48640713D01*
X65091641Y-48640727D01*
X62062434Y-51669934D01*
X61816397Y-52038154D01*
X61730000Y-52472500D01*
X61730000Y-53410189D01*
X61594821Y-53545132D01*
X61261437Y-53211166D01*
X60654845Y-52959287D01*
X59998037Y-52958714D01*
X59391005Y-53209534D01*
X59054821Y-53545132D01*
X58721437Y-53211166D01*
X58114845Y-52959287D01*
X57458037Y-52958714D01*
X56851005Y-53209534D01*
X56514821Y-53545132D01*
X56181437Y-53211166D01*
X55574845Y-52959287D01*
X54918037Y-52958714D01*
X54311005Y-53209534D01*
X53974821Y-53545132D01*
X53641437Y-53211166D01*
X53034845Y-52959287D01*
X52378037Y-52958714D01*
X51771005Y-53209534D01*
X51434821Y-53545132D01*
X51101437Y-53211166D01*
X50494845Y-52959287D01*
X49838037Y-52958714D01*
X49231005Y-53209534D01*
X48894821Y-53545132D01*
X48561437Y-53211166D01*
X47954845Y-52959287D01*
X47298037Y-52958714D01*
X46691005Y-53209534D01*
X46354821Y-53545132D01*
X46021437Y-53211166D01*
X45414845Y-52959287D01*
X44758037Y-52958714D01*
X44151005Y-53209534D01*
X44100579Y-53259872D01*
X44025090Y-53142559D01*
X43812890Y-52997569D01*
X43561000Y-52946560D01*
X41529000Y-52946560D01*
X41293683Y-52990838D01*
X41077559Y-53129910D01*
X40932569Y-53342110D01*
X40881560Y-53594000D01*
X40881560Y-55626000D01*
X40925838Y-55861317D01*
X41064910Y-56077441D01*
X41277110Y-56222431D01*
X41410000Y-56249342D01*
X41410000Y-68705468D01*
X33205807Y-76909661D01*
X32528935Y-76909070D01*
X31828514Y-77198478D01*
X31292161Y-77733895D01*
X31001532Y-78433810D01*
X31000870Y-79191665D01*
X14680000Y-79191665D01*
X14680000Y-75463177D01*
X31738028Y-75463177D01*
X31869720Y-75758057D01*
X32577236Y-76029661D01*
X33334832Y-76009836D01*
X33942680Y-75758057D01*
X34074372Y-75463177D01*
X32906200Y-74295005D01*
X31738028Y-75463177D01*
X14680000Y-75463177D01*
X14680000Y-73786436D01*
X30991939Y-73786436D01*
X31011764Y-74544032D01*
X31263543Y-75151880D01*
X31558423Y-75283572D01*
X32726595Y-74115400D01*
X33085805Y-74115400D01*
X34253977Y-75283572D01*
X34548857Y-75151880D01*
X34820461Y-74444364D01*
X34800636Y-73686768D01*
X34548857Y-73078920D01*
X34253977Y-72947228D01*
X33085805Y-74115400D01*
X32726595Y-74115400D01*
X31558423Y-72947228D01*
X31263543Y-73078920D01*
X30991939Y-73786436D01*
X14680000Y-73786436D01*
X14680000Y-72767623D01*
X31738028Y-72767623D01*
X32906200Y-73935795D01*
X34074372Y-72767623D01*
X33942680Y-72472743D01*
X33235164Y-72201139D01*
X32477568Y-72220964D01*
X31869720Y-72472743D01*
X31738028Y-72767623D01*
X14680000Y-72767623D01*
X14680000Y-68146400D01*
X30988760Y-68146400D01*
X30988760Y-70686400D01*
X31033038Y-70921717D01*
X31172110Y-71137841D01*
X31384310Y-71282831D01*
X31636200Y-71333840D01*
X34176200Y-71333840D01*
X34411517Y-71289562D01*
X34627641Y-71150490D01*
X34772631Y-70938290D01*
X34823640Y-70686400D01*
X34823640Y-68146400D01*
X34779362Y-67911083D01*
X34640290Y-67694959D01*
X34428090Y-67549969D01*
X34176200Y-67498960D01*
X31636200Y-67498960D01*
X31400883Y-67543238D01*
X31184759Y-67682310D01*
X31039769Y-67894510D01*
X30988760Y-68146400D01*
X14680000Y-68146400D01*
X14680000Y-51085750D01*
X23215600Y-51085750D01*
X23215600Y-52676370D01*
X23312273Y-52909759D01*
X23490902Y-53088387D01*
X23724291Y-53185060D01*
X25314910Y-53185060D01*
X25473660Y-53026310D01*
X25473660Y-50927000D01*
X25727660Y-50927000D01*
X25727660Y-53026310D01*
X25886410Y-53185060D01*
X26553977Y-53185060D01*
X26398899Y-53284850D01*
X26253909Y-53497050D01*
X26202900Y-53748940D01*
X26202900Y-57249060D01*
X26247178Y-57484377D01*
X26386250Y-57700501D01*
X26598450Y-57845491D01*
X26850340Y-57896500D01*
X30350460Y-57896500D01*
X30585777Y-57852222D01*
X30801901Y-57713150D01*
X30946891Y-57500950D01*
X30997900Y-57249060D01*
X30997900Y-53748940D01*
X30953622Y-53513623D01*
X30814550Y-53297499D01*
X30668197Y-53197500D01*
X33350200Y-53197500D01*
X33585517Y-53153222D01*
X33801641Y-53014150D01*
X33946631Y-52801950D01*
X33997640Y-52550060D01*
X33997640Y-49049940D01*
X33953362Y-48814623D01*
X33814290Y-48598499D01*
X33602090Y-48453509D01*
X33350200Y-48402500D01*
X29850080Y-48402500D01*
X29614763Y-48446778D01*
X29398639Y-48585850D01*
X29253649Y-48798050D01*
X29202640Y-49049940D01*
X29202640Y-52550060D01*
X29246918Y-52785377D01*
X29385990Y-53001501D01*
X29532343Y-53101500D01*
X27678760Y-53101500D01*
X27710418Y-53088387D01*
X27889047Y-52909759D01*
X27985720Y-52676370D01*
X27985720Y-51085750D01*
X27826970Y-50927000D01*
X25727660Y-50927000D01*
X25473660Y-50927000D01*
X23374350Y-50927000D01*
X23215600Y-51085750D01*
X14680000Y-51085750D01*
X14680000Y-48923630D01*
X23215600Y-48923630D01*
X23215600Y-50514250D01*
X23374350Y-50673000D01*
X25473660Y-50673000D01*
X25473660Y-48573690D01*
X25727660Y-48573690D01*
X25727660Y-50673000D01*
X27826970Y-50673000D01*
X27985720Y-50514250D01*
X27985720Y-48923630D01*
X27889047Y-48690241D01*
X27710418Y-48511613D01*
X27477029Y-48414940D01*
X25886410Y-48414940D01*
X25727660Y-48573690D01*
X25473660Y-48573690D01*
X25314910Y-48414940D01*
X23724291Y-48414940D01*
X23490902Y-48511613D01*
X23312273Y-48690241D01*
X23215600Y-48923630D01*
X14680000Y-48923630D01*
X14680000Y-38810000D01*
X141530000Y-38810000D01*
X141530000Y-156770000D01*
X141530000Y-156770000D01*
G37*
X141530000Y-156770000D02*
X14680000Y-156770000D01*
X14680000Y-129515900D01*
X19412800Y-129515900D01*
X19412800Y-138620600D01*
X19499197Y-139054946D01*
X19730386Y-139400945D01*
X19745234Y-139423166D01*
X23376134Y-143054066D01*
X23608284Y-143209184D01*
X23196005Y-143379534D01*
X22731166Y-143843563D01*
X22479287Y-144450155D01*
X22478714Y-145106963D01*
X22729534Y-145713995D01*
X23193563Y-146178834D01*
X23800155Y-146430713D01*
X24456963Y-146431286D01*
X25063995Y-146180466D01*
X25400179Y-145844868D01*
X25733563Y-146178834D01*
X26340155Y-146430713D01*
X26996963Y-146431286D01*
X27603995Y-146180466D01*
X27940179Y-145844868D01*
X28273563Y-146178834D01*
X28880155Y-146430713D01*
X29536963Y-146431286D01*
X30143995Y-146180466D01*
X30480179Y-145844868D01*
X30813563Y-146178834D01*
X31420155Y-146430713D01*
X32076963Y-146431286D01*
X32683995Y-146180466D01*
X33020179Y-145844868D01*
X33155000Y-145979924D01*
X33155000Y-147267468D01*
X31471134Y-148951334D01*
X31225097Y-149319554D01*
X31138700Y-149753900D01*
X31138700Y-152004600D01*
X31225097Y-152438946D01*
X31398295Y-152698155D01*
X31471134Y-152807166D01*
X32599033Y-153935066D01*
X32967254Y-154181103D01*
X33401600Y-154267500D01*
X57659400Y-154267500D01*
X58093746Y-154181103D01*
X58461966Y-153935066D01*
X65949532Y-146447500D01*
X67054460Y-146447500D01*
X67054460Y-147844500D01*
X67098738Y-148079817D01*
X67237810Y-148295941D01*
X67450010Y-148440931D01*
X67701900Y-148491940D01*
X69098900Y-148491940D01*
X69334217Y-148447662D01*
X69550341Y-148308590D01*
X69695331Y-148096390D01*
X69746340Y-147844500D01*
X69746340Y-146447500D01*
X69702062Y-146212183D01*
X69562990Y-145996059D01*
X69350790Y-145851069D01*
X69098900Y-145800060D01*
X67701900Y-145800060D01*
X67466583Y-145844338D01*
X67250459Y-145983410D01*
X67105469Y-146195610D01*
X67054460Y-146447500D01*
X65949532Y-146447500D01*
X77620100Y-134776932D01*
X77620100Y-139292600D01*
X77706497Y-139726946D01*
X77952534Y-140095166D01*
X81423534Y-143566166D01*
X81791754Y-143812203D01*
X82226100Y-143898600D01*
X82398313Y-143898600D01*
X82169287Y-144450155D01*
X82168714Y-145106963D01*
X82419534Y-145713995D01*
X82883563Y-146178834D01*
X83490155Y-146430713D01*
X83548031Y-146430763D01*
X91091834Y-153974566D01*
X91460054Y-154220603D01*
X91894400Y-154307000D01*
X108423500Y-154307000D01*
X108857846Y-154220603D01*
X109226066Y-153974566D01*
X116753132Y-146447500D01*
X126924060Y-146447500D01*
X126924060Y-147844500D01*
X126968338Y-148079817D01*
X127107410Y-148295941D01*
X127319610Y-148440931D01*
X127571500Y-148491940D01*
X128968500Y-148491940D01*
X129203817Y-148447662D01*
X129419941Y-148308590D01*
X129564931Y-148096390D01*
X129615940Y-147844500D01*
X129615940Y-146447500D01*
X129571662Y-146212183D01*
X129432590Y-145996059D01*
X129220390Y-145851069D01*
X128968500Y-145800060D01*
X127571500Y-145800060D01*
X127336183Y-145844338D01*
X127120059Y-145983410D01*
X126975069Y-146195610D01*
X126924060Y-146447500D01*
X116753132Y-146447500D01*
X119736439Y-143464193D01*
X119950000Y-143507440D01*
X121350000Y-143507440D01*
X121585317Y-143463162D01*
X121801441Y-143324090D01*
X121946431Y-143111890D01*
X121997440Y-142860000D01*
X121997440Y-141460000D01*
X121953162Y-141224683D01*
X121814090Y-141008559D01*
X121601890Y-140863569D01*
X121350000Y-140812560D01*
X120084600Y-140812560D01*
X120084600Y-138376260D01*
X120457122Y-138507419D01*
X120987440Y-138478664D01*
X121343831Y-138331042D01*
X121405669Y-138095275D01*
X120650000Y-137339605D01*
X120635858Y-137353748D01*
X120456252Y-137174142D01*
X120470395Y-137160000D01*
X120829605Y-137160000D01*
X121585275Y-137915669D01*
X121821042Y-137853831D01*
X121997419Y-137352878D01*
X121968664Y-136822560D01*
X121821042Y-136466169D01*
X121585275Y-136404331D01*
X120829605Y-137160000D01*
X120470395Y-137160000D01*
X120456252Y-137145858D01*
X120635858Y-136966252D01*
X120650000Y-136980395D01*
X121405669Y-136224725D01*
X121343831Y-135988958D01*
X120842878Y-135812581D01*
X120312560Y-135841336D01*
X120084600Y-135935760D01*
X120084600Y-135380188D01*
X127515417Y-135380188D01*
X127577071Y-135615800D01*
X128077480Y-135791927D01*
X128607199Y-135763148D01*
X128962929Y-135615800D01*
X129024583Y-135380188D01*
X128270000Y-134625605D01*
X127515417Y-135380188D01*
X120084600Y-135380188D01*
X120084600Y-134253480D01*
X126924073Y-134253480D01*
X126952852Y-134783199D01*
X127100200Y-135138929D01*
X127335812Y-135200583D01*
X128090395Y-134446000D01*
X128449605Y-134446000D01*
X129204188Y-135200583D01*
X129439800Y-135138929D01*
X129615927Y-134638520D01*
X129587148Y-134108801D01*
X129439800Y-133753071D01*
X129204188Y-133691417D01*
X128449605Y-134446000D01*
X128090395Y-134446000D01*
X127335812Y-133691417D01*
X127100200Y-133753071D01*
X126924073Y-134253480D01*
X120084600Y-134253480D01*
X120084600Y-133511812D01*
X127515417Y-133511812D01*
X128270000Y-134266395D01*
X129024583Y-133511812D01*
X128962929Y-133276200D01*
X128462520Y-133100073D01*
X127932801Y-133128852D01*
X127577071Y-133276200D01*
X127515417Y-133511812D01*
X120084600Y-133511812D01*
X120084600Y-132654232D01*
X129707566Y-123031266D01*
X129953604Y-122663045D01*
X130040000Y-122228700D01*
X130040000Y-81750132D01*
X134787566Y-77002566D01*
X134850038Y-76909070D01*
X135033603Y-76634346D01*
X135120000Y-76200000D01*
X135120000Y-72296484D01*
X135369846Y-72047073D01*
X135619206Y-71446547D01*
X135619774Y-70796306D01*
X135371462Y-70195345D01*
X134912073Y-69735154D01*
X134311547Y-69485794D01*
X133661306Y-69485226D01*
X133060345Y-69733538D01*
X132600154Y-70192927D01*
X132350794Y-70793453D01*
X132350226Y-71443694D01*
X132598538Y-72044655D01*
X132850000Y-72296556D01*
X132850000Y-75729868D01*
X130040555Y-78539313D01*
X130040576Y-78515150D01*
X130040000Y-78513756D01*
X130040000Y-69050132D01*
X133955666Y-65134466D01*
X134308694Y-65134774D01*
X134909655Y-64886462D01*
X135369846Y-64427073D01*
X135619206Y-63826547D01*
X135619774Y-63176306D01*
X135371462Y-62575345D01*
X134912073Y-62115154D01*
X134311547Y-61865794D01*
X133661306Y-61865226D01*
X133060345Y-62113538D01*
X132600154Y-62572927D01*
X132350794Y-63173453D01*
X132350483Y-63529385D01*
X130341100Y-65538768D01*
X123069966Y-58267634D01*
X123047218Y-58252434D01*
X122701746Y-58021597D01*
X122267400Y-57935200D01*
X121456633Y-57935200D01*
X119769028Y-56247596D01*
X120263880Y-56042622D01*
X120364502Y-55774107D01*
X119380000Y-54789605D01*
X119365858Y-54803748D01*
X119186253Y-54624143D01*
X119200395Y-54610000D01*
X119559605Y-54610000D01*
X120544107Y-55594502D01*
X120562917Y-55587453D01*
X120983563Y-56008834D01*
X121590155Y-56260713D01*
X122246963Y-56261286D01*
X122853995Y-56010466D01*
X123190179Y-55674868D01*
X123523563Y-56008834D01*
X124130155Y-56260713D01*
X124786963Y-56261286D01*
X125393995Y-56010466D01*
X125730179Y-55674868D01*
X126063563Y-56008834D01*
X126670155Y-56260713D01*
X127326963Y-56261286D01*
X127933995Y-56010466D01*
X128270179Y-55674868D01*
X128603563Y-56008834D01*
X129210155Y-56260713D01*
X129866963Y-56261286D01*
X130473995Y-56010466D01*
X130810179Y-55674868D01*
X131143563Y-56008834D01*
X131750155Y-56260713D01*
X132406963Y-56261286D01*
X133013995Y-56010466D01*
X133350179Y-55674868D01*
X133683563Y-56008834D01*
X134290155Y-56260713D01*
X134946963Y-56261286D01*
X135553995Y-56010466D01*
X135790766Y-55774107D01*
X136175498Y-55774107D01*
X136276120Y-56042622D01*
X136891642Y-56271816D01*
X137548019Y-56248014D01*
X138043880Y-56042622D01*
X138144502Y-55774107D01*
X137160000Y-54789605D01*
X136175498Y-55774107D01*
X135790766Y-55774107D01*
X135977565Y-55587634D01*
X135995893Y-55594502D01*
X136980395Y-54610000D01*
X137339605Y-54610000D01*
X138324107Y-55594502D01*
X138592622Y-55493880D01*
X138821816Y-54878358D01*
X138798014Y-54221981D01*
X138592622Y-53726120D01*
X138324107Y-53625498D01*
X137339605Y-54610000D01*
X136980395Y-54610000D01*
X135995893Y-53625498D01*
X135977083Y-53632547D01*
X135790755Y-53445893D01*
X136175498Y-53445893D01*
X137160000Y-54430395D01*
X138144502Y-53445893D01*
X138043880Y-53177378D01*
X137428358Y-52948184D01*
X136771981Y-52971986D01*
X136276120Y-53177378D01*
X136175498Y-53445893D01*
X135790755Y-53445893D01*
X135556437Y-53211166D01*
X134949845Y-52959287D01*
X134293037Y-52958714D01*
X133686005Y-53209534D01*
X133349821Y-53545132D01*
X133016437Y-53211166D01*
X132409845Y-52959287D01*
X131753037Y-52958714D01*
X131146005Y-53209534D01*
X130809821Y-53545132D01*
X130476437Y-53211166D01*
X129869845Y-52959287D01*
X129213037Y-52958714D01*
X128606005Y-53209534D01*
X128269821Y-53545132D01*
X127936437Y-53211166D01*
X127329845Y-52959287D01*
X126673037Y-52958714D01*
X126066005Y-53209534D01*
X125729821Y-53545132D01*
X125396437Y-53211166D01*
X124789845Y-52959287D01*
X124133037Y-52958714D01*
X123526005Y-53209534D01*
X123189821Y-53545132D01*
X122856437Y-53211166D01*
X122249845Y-52959287D01*
X121593037Y-52958714D01*
X120986005Y-53209534D01*
X120562435Y-53632366D01*
X120544107Y-53625498D01*
X119559605Y-54610000D01*
X119200395Y-54610000D01*
X118215893Y-53625498D01*
X118197083Y-53632547D01*
X118010755Y-53445893D01*
X118395498Y-53445893D01*
X119380000Y-54430395D01*
X120364502Y-53445893D01*
X120263880Y-53177378D01*
X119648358Y-52948184D01*
X118991981Y-52971986D01*
X118496120Y-53177378D01*
X118395498Y-53445893D01*
X118010755Y-53445893D01*
X117776437Y-53211166D01*
X117169845Y-52959287D01*
X116513037Y-52958714D01*
X115906005Y-53209534D01*
X115569821Y-53545132D01*
X115236437Y-53211166D01*
X114629845Y-52959287D01*
X113973037Y-52958714D01*
X113366005Y-53209534D01*
X113029821Y-53545132D01*
X112696437Y-53211166D01*
X112089845Y-52959287D01*
X111433037Y-52958714D01*
X110826005Y-53209534D01*
X110489821Y-53545132D01*
X110156437Y-53211166D01*
X109549845Y-52959287D01*
X108893037Y-52958714D01*
X108286005Y-53209534D01*
X107949821Y-53545132D01*
X107616437Y-53211166D01*
X107009845Y-52959287D01*
X106353037Y-52958714D01*
X105746005Y-53209534D01*
X105409821Y-53545132D01*
X105076437Y-53211166D01*
X104469845Y-52959287D01*
X103813037Y-52958714D01*
X103206005Y-53209534D01*
X102869821Y-53545132D01*
X102536437Y-53211166D01*
X101929845Y-52959287D01*
X101273037Y-52958714D01*
X100666005Y-53209534D01*
X100242435Y-53632366D01*
X100224107Y-53625498D01*
X99239605Y-54610000D01*
X100224107Y-55594502D01*
X100242917Y-55587453D01*
X100663563Y-56008834D01*
X101270155Y-56260713D01*
X101926963Y-56261286D01*
X102533995Y-56010466D01*
X102870179Y-55674868D01*
X103203563Y-56008834D01*
X103810155Y-56260713D01*
X104466963Y-56261286D01*
X105073995Y-56010466D01*
X105410179Y-55674868D01*
X105743563Y-56008834D01*
X106350155Y-56260713D01*
X107006963Y-56261286D01*
X107613995Y-56010466D01*
X107950179Y-55674868D01*
X108085000Y-55809924D01*
X108085000Y-60363700D01*
X100182300Y-60363700D01*
X99747954Y-60450097D01*
X99379734Y-60696134D01*
X95763000Y-64312868D01*
X94979466Y-63529334D01*
X94979774Y-63176306D01*
X94731462Y-62575345D01*
X94272073Y-62115154D01*
X93671547Y-61865794D01*
X93315615Y-61865483D01*
X90035000Y-58584868D01*
X90035000Y-56251049D01*
X90151317Y-56229162D01*
X90367441Y-56090090D01*
X90455713Y-55960900D01*
X90503563Y-56008834D01*
X91110155Y-56260713D01*
X91766963Y-56261286D01*
X92373995Y-56010466D01*
X92710179Y-55674868D01*
X93043563Y-56008834D01*
X93650155Y-56260713D01*
X94306963Y-56261286D01*
X94913995Y-56010466D01*
X95250179Y-55674868D01*
X95583563Y-56008834D01*
X96190155Y-56260713D01*
X96846963Y-56261286D01*
X97453995Y-56010466D01*
X97690766Y-55774107D01*
X98075498Y-55774107D01*
X98176120Y-56042622D01*
X98791642Y-56271816D01*
X99448019Y-56248014D01*
X99943880Y-56042622D01*
X100044502Y-55774107D01*
X99060000Y-54789605D01*
X98075498Y-55774107D01*
X97690766Y-55774107D01*
X97877565Y-55587634D01*
X97895893Y-55594502D01*
X98880395Y-54610000D01*
X97895893Y-53625498D01*
X97877083Y-53632547D01*
X97690755Y-53445893D01*
X98075498Y-53445893D01*
X99060000Y-54430395D01*
X100044502Y-53445893D01*
X99943880Y-53177378D01*
X99328358Y-52948184D01*
X98671981Y-52971986D01*
X98176120Y-53177378D01*
X98075498Y-53445893D01*
X97690755Y-53445893D01*
X97456437Y-53211166D01*
X96849845Y-52959287D01*
X96193037Y-52958714D01*
X95586005Y-53209534D01*
X95249821Y-53545132D01*
X94916437Y-53211166D01*
X94570590Y-53067558D01*
X91777566Y-50274534D01*
X91409346Y-50028497D01*
X90975000Y-49942100D01*
X73641700Y-49942100D01*
X73207354Y-50028497D01*
X72839134Y-50274534D01*
X70152783Y-52960885D01*
X69551005Y-53209534D01*
X69214821Y-53545132D01*
X68881437Y-53211166D01*
X68274845Y-52959287D01*
X67618037Y-52958714D01*
X67011005Y-53209534D01*
X66587435Y-53632366D01*
X66569107Y-53625498D01*
X65584605Y-54610000D01*
X66569107Y-55594502D01*
X66587917Y-55587453D01*
X67008563Y-56008834D01*
X67615155Y-56260713D01*
X68271963Y-56261286D01*
X68878995Y-56010466D01*
X69215179Y-55674868D01*
X69548563Y-56008834D01*
X70155155Y-56260713D01*
X70811963Y-56261286D01*
X71418995Y-56010466D01*
X71755179Y-55674868D01*
X72088563Y-56008834D01*
X72695155Y-56260713D01*
X73351963Y-56261286D01*
X73958995Y-56010466D01*
X74295179Y-55674868D01*
X74628563Y-56008834D01*
X75235155Y-56260713D01*
X75891963Y-56261286D01*
X76498995Y-56010466D01*
X76963834Y-55546437D01*
X77215713Y-54939845D01*
X77216286Y-54283037D01*
X76984636Y-53722400D01*
X87236560Y-53722400D01*
X87236560Y-55626000D01*
X87280838Y-55861317D01*
X87419910Y-56077441D01*
X87632110Y-56222431D01*
X87765000Y-56249342D01*
X87765000Y-59055000D01*
X87851397Y-59489346D01*
X88097434Y-59857566D01*
X91710534Y-63470666D01*
X91710226Y-63823694D01*
X91958538Y-64424655D01*
X92417927Y-64884846D01*
X93018453Y-65134206D01*
X93374385Y-65134517D01*
X94628000Y-66388132D01*
X94628000Y-70091702D01*
X94272073Y-69735154D01*
X93671547Y-69485794D01*
X93021306Y-69485226D01*
X92420345Y-69733538D01*
X91960154Y-70192927D01*
X91710794Y-70793453D01*
X91710226Y-71443694D01*
X91958538Y-72044655D01*
X92417927Y-72504846D01*
X93018453Y-72754206D01*
X93668694Y-72754774D01*
X94269655Y-72506462D01*
X94628000Y-72148742D01*
X94628000Y-78618000D01*
X94714397Y-79052346D01*
X94795915Y-79174346D01*
X94960434Y-79420566D01*
X96191729Y-80651861D01*
X96191911Y-80652301D01*
X96511019Y-80971967D01*
X96928168Y-81145182D01*
X97289737Y-81145497D01*
X97289424Y-81504850D01*
X97461911Y-81922301D01*
X97781019Y-82241967D01*
X98198168Y-82415182D01*
X98649850Y-82415576D01*
X98651244Y-82415000D01*
X103034868Y-82415000D01*
X110676600Y-90056732D01*
X110676600Y-96414946D01*
X110171659Y-96205276D01*
X109541107Y-96204725D01*
X108958343Y-96445519D01*
X108860663Y-96543029D01*
X108729090Y-96338559D01*
X108516890Y-96193569D01*
X108265000Y-96142560D01*
X106365000Y-96142560D01*
X106129683Y-96186838D01*
X105913559Y-96325910D01*
X105768569Y-96538110D01*
X105717560Y-96790000D01*
X105717560Y-98790000D01*
X105761838Y-99025317D01*
X105900910Y-99241441D01*
X106113110Y-99386431D01*
X106365000Y-99437440D01*
X107495928Y-99437440D01*
X101841934Y-105091434D01*
X101824200Y-105117975D01*
X101824200Y-101324200D01*
X101824101Y-101323703D01*
X101737804Y-100889855D01*
X101491766Y-100521634D01*
X98740018Y-97769886D01*
X98740275Y-97476107D01*
X98499481Y-96893343D01*
X98054003Y-96447086D01*
X97471659Y-96205276D01*
X96841107Y-96204725D01*
X96258343Y-96445519D01*
X96160663Y-96543029D01*
X96029090Y-96338559D01*
X95816890Y-96193569D01*
X95565000Y-96142560D01*
X93665000Y-96142560D01*
X93429683Y-96186838D01*
X93213559Y-96325910D01*
X93068569Y-96538110D01*
X93017560Y-96790000D01*
X93017560Y-98790000D01*
X93061838Y-99025317D01*
X93200910Y-99241441D01*
X93413110Y-99386431D01*
X93665000Y-99437440D01*
X95565000Y-99437440D01*
X95800317Y-99393162D01*
X96016441Y-99254090D01*
X96161431Y-99041890D01*
X96162055Y-99038808D01*
X96255997Y-99132914D01*
X96838341Y-99374724D01*
X97134851Y-99374983D01*
X99554200Y-101794332D01*
X99554200Y-108495468D01*
X86037066Y-94978334D01*
X85668846Y-94732297D01*
X85234500Y-94645900D01*
X35664100Y-94645900D01*
X35229754Y-94732297D01*
X34861533Y-94978334D01*
X33634886Y-96204982D01*
X33341107Y-96204725D01*
X32758343Y-96445519D01*
X32660663Y-96543029D01*
X32529090Y-96338559D01*
X32316890Y-96193569D01*
X32065000Y-96142560D01*
X30165000Y-96142560D01*
X29929683Y-96186838D01*
X29713559Y-96325910D01*
X29568569Y-96538110D01*
X29517560Y-96790000D01*
X29517560Y-98790000D01*
X29561838Y-99025317D01*
X29700910Y-99241441D01*
X29913110Y-99386431D01*
X30165000Y-99437440D01*
X32065000Y-99437440D01*
X32300317Y-99393162D01*
X32516441Y-99254090D01*
X32661431Y-99041890D01*
X32662055Y-99038808D01*
X32755997Y-99132914D01*
X33338341Y-99374724D01*
X33968893Y-99375275D01*
X34551657Y-99134481D01*
X34997914Y-98689003D01*
X35239724Y-98106659D01*
X35239983Y-97810149D01*
X36134233Y-96915900D01*
X42217560Y-96915900D01*
X42217560Y-98790000D01*
X42261838Y-99025317D01*
X42400910Y-99241441D01*
X42613110Y-99386431D01*
X42680000Y-99399977D01*
X42680000Y-99790300D01*
X42766397Y-100224646D01*
X43012434Y-100592866D01*
X43380654Y-100838903D01*
X43815000Y-100925300D01*
X52564400Y-100925300D01*
X52998746Y-100838903D01*
X53366966Y-100592866D01*
X54957511Y-99002321D01*
X54961838Y-99025317D01*
X55100910Y-99241441D01*
X55313110Y-99386431D01*
X55565000Y-99437440D01*
X57465000Y-99437440D01*
X57700317Y-99393162D01*
X57916441Y-99254090D01*
X58061431Y-99041890D01*
X58062055Y-99038808D01*
X58155997Y-99132914D01*
X58738341Y-99374724D01*
X59368893Y-99375275D01*
X59951657Y-99134481D01*
X60397914Y-98689003D01*
X60639724Y-98106659D01*
X60640275Y-97476107D01*
X60408801Y-96915900D01*
X67617560Y-96915900D01*
X67617560Y-98790000D01*
X67661838Y-99025317D01*
X67800910Y-99241441D01*
X68013110Y-99386431D01*
X68265000Y-99437440D01*
X70165000Y-99437440D01*
X70400317Y-99393162D01*
X70616441Y-99254090D01*
X70761431Y-99041890D01*
X70762055Y-99038808D01*
X70855997Y-99132914D01*
X71438341Y-99374724D01*
X72068893Y-99375275D01*
X72651657Y-99134481D01*
X72861504Y-98925000D01*
X74149868Y-98925000D01*
X84132959Y-108908091D01*
X83558343Y-109145519D01*
X83460663Y-109243029D01*
X83329090Y-109038559D01*
X83116890Y-108893569D01*
X82865000Y-108842560D01*
X80965000Y-108842560D01*
X80729683Y-108886838D01*
X80513559Y-109025910D01*
X80368569Y-109238110D01*
X80360043Y-109280211D01*
X78766966Y-107687134D01*
X78398746Y-107441097D01*
X77964400Y-107354700D01*
X69215000Y-107354700D01*
X68780654Y-107441097D01*
X68412434Y-107687134D01*
X68166397Y-108055354D01*
X68080000Y-108489700D01*
X68080000Y-108877370D01*
X68029683Y-108886838D01*
X67813559Y-109025910D01*
X67668569Y-109238110D01*
X67617560Y-109490000D01*
X67617560Y-111490000D01*
X67661838Y-111725317D01*
X67800910Y-111941441D01*
X68013110Y-112086431D01*
X68265000Y-112137440D01*
X70165000Y-112137440D01*
X70400317Y-112093162D01*
X70616441Y-111954090D01*
X70620000Y-111948881D01*
X70620000Y-122610967D01*
X60190000Y-133040968D01*
X60190000Y-111596554D01*
X60397914Y-111389003D01*
X60639724Y-110806659D01*
X60640275Y-110176107D01*
X60399481Y-109593343D01*
X59954003Y-109147086D01*
X59371659Y-108905276D01*
X58741107Y-108904725D01*
X58158343Y-109145519D01*
X58060663Y-109243029D01*
X57929090Y-109038559D01*
X57716890Y-108893569D01*
X57465000Y-108842560D01*
X55565000Y-108842560D01*
X55329683Y-108886838D01*
X55113559Y-109025910D01*
X54968569Y-109238110D01*
X54944898Y-109355000D01*
X54564700Y-109355000D01*
X54130355Y-109441396D01*
X53762134Y-109687434D01*
X51853991Y-111595577D01*
X47995358Y-107737025D01*
X47793686Y-107602276D01*
X47627146Y-107490997D01*
X47627140Y-107490996D01*
X47627134Y-107490992D01*
X47400141Y-107445843D01*
X47192800Y-107404600D01*
X43815000Y-107404600D01*
X43380654Y-107490997D01*
X43012434Y-107737034D01*
X42766397Y-108105254D01*
X42680000Y-108539600D01*
X42680000Y-108877370D01*
X42629683Y-108886838D01*
X42413559Y-109025910D01*
X42268569Y-109238110D01*
X42217560Y-109490000D01*
X42217560Y-111490000D01*
X42261838Y-111725317D01*
X42400910Y-111941441D01*
X42613110Y-112086431D01*
X42865000Y-112137440D01*
X44641227Y-112137440D01*
X21682800Y-135095868D01*
X21682800Y-129986032D01*
X34457566Y-117211266D01*
X34703603Y-116843046D01*
X34790000Y-116408700D01*
X34790000Y-111596554D01*
X34997914Y-111389003D01*
X35239724Y-110806659D01*
X35240275Y-110176107D01*
X34999481Y-109593343D01*
X34554003Y-109147086D01*
X33971659Y-108905276D01*
X33341107Y-108904725D01*
X32758343Y-109145519D01*
X32660663Y-109243029D01*
X32529090Y-109038559D01*
X32316890Y-108893569D01*
X32065000Y-108842560D01*
X30165000Y-108842560D01*
X29929683Y-108886838D01*
X29713559Y-109025910D01*
X29568569Y-109238110D01*
X29517560Y-109490000D01*
X29517560Y-111490000D01*
X29561838Y-111725317D01*
X29700910Y-111941441D01*
X29913110Y-112086431D01*
X30165000Y-112137440D01*
X32065000Y-112137440D01*
X32300317Y-112093162D01*
X32516441Y-111954090D01*
X32520000Y-111948881D01*
X32520000Y-115938568D01*
X19745234Y-128713334D01*
X19499197Y-129081554D01*
X19412800Y-129515900D01*
X14680000Y-129515900D01*
X14680000Y-79191665D01*
X31000870Y-79191665D01*
X31290278Y-79892086D01*
X31825695Y-80428439D01*
X32525610Y-80719068D01*
X33283465Y-80719730D01*
X33983886Y-80430322D01*
X34520239Y-79894905D01*
X34810868Y-79194990D01*
X34811463Y-78514269D01*
X39539296Y-73786436D01*
X43691939Y-73786436D01*
X43711764Y-74544032D01*
X43963543Y-75151880D01*
X44258423Y-75283572D01*
X45426595Y-74115400D01*
X44258423Y-72947228D01*
X43963543Y-73078920D01*
X43691939Y-73786436D01*
X39539296Y-73786436D01*
X43347566Y-69978166D01*
X43593604Y-69609945D01*
X43680000Y-69175600D01*
X43680000Y-56251049D01*
X43796317Y-56229162D01*
X44012441Y-56090090D01*
X44100713Y-55960900D01*
X44148563Y-56008834D01*
X44755155Y-56260713D01*
X45411963Y-56261286D01*
X46018995Y-56010466D01*
X46355179Y-55674868D01*
X46688563Y-56008834D01*
X46741600Y-56030857D01*
X46741600Y-67498960D01*
X44336200Y-67498960D01*
X44100883Y-67543238D01*
X43884759Y-67682310D01*
X43739769Y-67894510D01*
X43688760Y-68146400D01*
X43688760Y-70686400D01*
X43733038Y-70921717D01*
X43872110Y-71137841D01*
X44084310Y-71282831D01*
X44336200Y-71333840D01*
X46741600Y-71333840D01*
X46741600Y-72694241D01*
X46642680Y-72472743D01*
X45935164Y-72201139D01*
X45177568Y-72220964D01*
X44569720Y-72472743D01*
X44438028Y-72767623D01*
X45606200Y-73935795D01*
X45620343Y-73921653D01*
X45799948Y-74101258D01*
X45785805Y-74115400D01*
X45799948Y-74129543D01*
X45620343Y-74309148D01*
X45606200Y-74295005D01*
X44438028Y-75463177D01*
X44569720Y-75758057D01*
X45277236Y-76029661D01*
X46034832Y-76009836D01*
X46642680Y-75758057D01*
X46741600Y-75536559D01*
X46741600Y-76073867D01*
X45905806Y-76909661D01*
X45228935Y-76909070D01*
X44528514Y-77198478D01*
X43992161Y-77733895D01*
X43701532Y-78433810D01*
X43700870Y-79191665D01*
X43990278Y-79892086D01*
X44525695Y-80428439D01*
X45225610Y-80719068D01*
X45983465Y-80719730D01*
X46683886Y-80430322D01*
X47220239Y-79894905D01*
X47510868Y-79194990D01*
X47511463Y-78514270D01*
X48679166Y-77346567D01*
X48925203Y-76978346D01*
X48938983Y-76909070D01*
X49011600Y-76544000D01*
X49011600Y-55791492D01*
X49228563Y-56008834D01*
X49835155Y-56260713D01*
X50491963Y-56261286D01*
X51098995Y-56010466D01*
X51435179Y-55674868D01*
X51570000Y-55809924D01*
X51570000Y-73213200D01*
X51656397Y-73647546D01*
X51848999Y-73935795D01*
X51902434Y-74015766D01*
X56401461Y-78514793D01*
X56400870Y-79191665D01*
X56690278Y-79892086D01*
X57225695Y-80428439D01*
X57925610Y-80719068D01*
X58683465Y-80719730D01*
X59383886Y-80430322D01*
X59920239Y-79894905D01*
X60210868Y-79194990D01*
X60211530Y-78437135D01*
X59922122Y-77736714D01*
X59386705Y-77200361D01*
X58686790Y-76909732D01*
X58006069Y-76909137D01*
X56560109Y-75463177D01*
X57138028Y-75463177D01*
X57269720Y-75758057D01*
X57977236Y-76029661D01*
X58734832Y-76009836D01*
X59342680Y-75758057D01*
X59474372Y-75463177D01*
X58306200Y-74295005D01*
X57138028Y-75463177D01*
X56560109Y-75463177D01*
X54883368Y-73786436D01*
X56391939Y-73786436D01*
X56411764Y-74544032D01*
X56663543Y-75151880D01*
X56958423Y-75283572D01*
X58126595Y-74115400D01*
X58485805Y-74115400D01*
X59653977Y-75283572D01*
X59948857Y-75151880D01*
X60220461Y-74444364D01*
X60200636Y-73686768D01*
X59948857Y-73078920D01*
X59653977Y-72947228D01*
X58485805Y-74115400D01*
X58126595Y-74115400D01*
X56958423Y-72947228D01*
X56663543Y-73078920D01*
X56391939Y-73786436D01*
X54883368Y-73786436D01*
X53864555Y-72767623D01*
X57138028Y-72767623D01*
X58306200Y-73935795D01*
X59474372Y-72767623D01*
X59342680Y-72472743D01*
X58635164Y-72201139D01*
X57877568Y-72220964D01*
X57269720Y-72472743D01*
X57138028Y-72767623D01*
X53864555Y-72767623D01*
X53840000Y-72743068D01*
X53840000Y-55809811D01*
X53975179Y-55674868D01*
X54110000Y-55809924D01*
X54110000Y-64084900D01*
X54196397Y-64519246D01*
X54430361Y-64869397D01*
X54442434Y-64887466D01*
X57053927Y-67498960D01*
X57036200Y-67498960D01*
X56800883Y-67543238D01*
X56584759Y-67682310D01*
X56439769Y-67894510D01*
X56388760Y-68146400D01*
X56388760Y-70686400D01*
X56433038Y-70921717D01*
X56572110Y-71137841D01*
X56784310Y-71282831D01*
X57036200Y-71333840D01*
X59576200Y-71333840D01*
X59811517Y-71289562D01*
X60027641Y-71150490D01*
X60172631Y-70938290D01*
X60223640Y-70686400D01*
X60223640Y-68146400D01*
X60179362Y-67911083D01*
X60040290Y-67694959D01*
X59828090Y-67549969D01*
X59576200Y-67498960D01*
X59441200Y-67498960D01*
X59441200Y-67146100D01*
X59405496Y-66966603D01*
X59354804Y-66711755D01*
X59108767Y-66343534D01*
X56380000Y-63614768D01*
X56380000Y-55809811D01*
X56515179Y-55674868D01*
X56650000Y-55809924D01*
X56650000Y-60462600D01*
X56736397Y-60896946D01*
X56982434Y-61265166D01*
X62769600Y-67052332D01*
X62769600Y-71712800D01*
X62855997Y-72147146D01*
X62905321Y-72220964D01*
X63102034Y-72515366D01*
X69101461Y-78514793D01*
X69100870Y-79191665D01*
X69390278Y-79892086D01*
X69925695Y-80428439D01*
X70625610Y-80719068D01*
X71383465Y-80719730D01*
X72083886Y-80430322D01*
X72620239Y-79894905D01*
X72910868Y-79194990D01*
X72911530Y-78437135D01*
X72622122Y-77736714D01*
X72086705Y-77200361D01*
X71386790Y-76909732D01*
X70706069Y-76909137D01*
X69260109Y-75463177D01*
X69838028Y-75463177D01*
X69969720Y-75758057D01*
X70677236Y-76029661D01*
X71434832Y-76009836D01*
X72042680Y-75758057D01*
X72174372Y-75463177D01*
X71006200Y-74295005D01*
X69838028Y-75463177D01*
X69260109Y-75463177D01*
X67583368Y-73786436D01*
X69091939Y-73786436D01*
X69111764Y-74544032D01*
X69363543Y-75151880D01*
X69658423Y-75283572D01*
X70826595Y-74115400D01*
X71185805Y-74115400D01*
X72353977Y-75283572D01*
X72648857Y-75151880D01*
X72920461Y-74444364D01*
X72900636Y-73686768D01*
X72648857Y-73078920D01*
X72353977Y-72947228D01*
X71185805Y-74115400D01*
X70826595Y-74115400D01*
X69658423Y-72947228D01*
X69363543Y-73078920D01*
X69091939Y-73786436D01*
X67583368Y-73786436D01*
X66564555Y-72767623D01*
X69838028Y-72767623D01*
X71006200Y-73935795D01*
X72174372Y-72767623D01*
X72042680Y-72472743D01*
X71335164Y-72201139D01*
X70577568Y-72220964D01*
X69969720Y-72472743D01*
X69838028Y-72767623D01*
X66564555Y-72767623D01*
X65039600Y-71242668D01*
X65039600Y-68146400D01*
X69088760Y-68146400D01*
X69088760Y-70686400D01*
X69133038Y-70921717D01*
X69272110Y-71137841D01*
X69484310Y-71282831D01*
X69736200Y-71333840D01*
X72276200Y-71333840D01*
X72511517Y-71289562D01*
X72727641Y-71150490D01*
X72872631Y-70938290D01*
X72923640Y-70686400D01*
X72923640Y-68146400D01*
X72879362Y-67911083D01*
X72740290Y-67694959D01*
X72528090Y-67549969D01*
X72276200Y-67498960D01*
X69736200Y-67498960D01*
X69500883Y-67543238D01*
X69284759Y-67682310D01*
X69139769Y-67894510D01*
X69088760Y-68146400D01*
X65039600Y-68146400D01*
X65039600Y-66582200D01*
X64953203Y-66147854D01*
X64707166Y-65779634D01*
X58920000Y-59992468D01*
X58920000Y-55809811D01*
X59055179Y-55674868D01*
X59388563Y-56008834D01*
X59995155Y-56260713D01*
X60651963Y-56261286D01*
X61258995Y-56010466D01*
X61595179Y-55674868D01*
X61928563Y-56008834D01*
X62535155Y-56260713D01*
X63191963Y-56261286D01*
X63798995Y-56010466D01*
X64035766Y-55774107D01*
X64420498Y-55774107D01*
X64521120Y-56042622D01*
X65136642Y-56271816D01*
X65793019Y-56248014D01*
X66288880Y-56042622D01*
X66389502Y-55774107D01*
X65405000Y-54789605D01*
X64420498Y-55774107D01*
X64035766Y-55774107D01*
X64222565Y-55587634D01*
X64240893Y-55594502D01*
X65225395Y-54610000D01*
X64240893Y-53625498D01*
X64222083Y-53632547D01*
X64035755Y-53445893D01*
X64420498Y-53445893D01*
X65405000Y-54430395D01*
X66389502Y-53445893D01*
X66288880Y-53177378D01*
X65673358Y-52948184D01*
X65016981Y-52971986D01*
X64521120Y-53177378D01*
X64420498Y-53445893D01*
X64035755Y-53445893D01*
X64000000Y-53410076D01*
X64000000Y-52942632D01*
X68322035Y-48620597D01*
X68878995Y-48390466D01*
X69115766Y-48154107D01*
X69500498Y-48154107D01*
X69601120Y-48422622D01*
X70216642Y-48651816D01*
X70873019Y-48628014D01*
X71368880Y-48422622D01*
X71469502Y-48154107D01*
X72040498Y-48154107D01*
X72141120Y-48422622D01*
X72756642Y-48651816D01*
X73413019Y-48628014D01*
X73908880Y-48422622D01*
X74009502Y-48154107D01*
X74580498Y-48154107D01*
X74681120Y-48422622D01*
X75296642Y-48651816D01*
X75953019Y-48628014D01*
X76448880Y-48422622D01*
X76549502Y-48154107D01*
X75565000Y-47169605D01*
X74580498Y-48154107D01*
X74009502Y-48154107D01*
X73025000Y-47169605D01*
X72040498Y-48154107D01*
X71469502Y-48154107D01*
X70485000Y-47169605D01*
X69500498Y-48154107D01*
X69115766Y-48154107D01*
X69302565Y-47967634D01*
X69320893Y-47974502D01*
X70305395Y-46990000D01*
X70664605Y-46990000D01*
X71649107Y-47974502D01*
X71755000Y-47934820D01*
X71860893Y-47974502D01*
X72845395Y-46990000D01*
X73204605Y-46990000D01*
X74189107Y-47974502D01*
X74295000Y-47934820D01*
X74400893Y-47974502D01*
X75385395Y-46990000D01*
X75744605Y-46990000D01*
X76729107Y-47974502D01*
X76997622Y-47873880D01*
X77204994Y-47316963D01*
X87248714Y-47316963D01*
X87499534Y-47923995D01*
X87963563Y-48388834D01*
X88570155Y-48640713D01*
X89226963Y-48641286D01*
X89833995Y-48390466D01*
X90170179Y-48054868D01*
X90503563Y-48388834D01*
X91110155Y-48640713D01*
X91766963Y-48641286D01*
X92373995Y-48390466D01*
X92610766Y-48154107D01*
X92995498Y-48154107D01*
X93096120Y-48422622D01*
X93711642Y-48651816D01*
X94368019Y-48628014D01*
X94863880Y-48422622D01*
X94964502Y-48154107D01*
X93980000Y-47169605D01*
X92995498Y-48154107D01*
X92610766Y-48154107D01*
X92797565Y-47967634D01*
X92815893Y-47974502D01*
X93800395Y-46990000D01*
X94159605Y-46990000D01*
X95144107Y-47974502D01*
X95162917Y-47967453D01*
X95583563Y-48388834D01*
X96190155Y-48640713D01*
X96846963Y-48641286D01*
X97453995Y-48390466D01*
X97790179Y-48054868D01*
X98123563Y-48388834D01*
X98730155Y-48640713D01*
X99386963Y-48641286D01*
X99993995Y-48390466D01*
X100330179Y-48054868D01*
X100663563Y-48388834D01*
X101270155Y-48640713D01*
X101926963Y-48641286D01*
X102533995Y-48390466D01*
X102770766Y-48154107D01*
X103155498Y-48154107D01*
X103256120Y-48422622D01*
X103871642Y-48651816D01*
X104528019Y-48628014D01*
X105023880Y-48422622D01*
X105124502Y-48154107D01*
X104140000Y-47169605D01*
X103155498Y-48154107D01*
X102770766Y-48154107D01*
X102957565Y-47967634D01*
X102975893Y-47974502D01*
X103960395Y-46990000D01*
X104319605Y-46990000D01*
X105304107Y-47974502D01*
X105322917Y-47967453D01*
X105743563Y-48388834D01*
X106350155Y-48640713D01*
X107006963Y-48641286D01*
X107613995Y-48390466D01*
X107950179Y-48054868D01*
X108283563Y-48388834D01*
X108890155Y-48640713D01*
X109546963Y-48641286D01*
X110153995Y-48390466D01*
X110390766Y-48154107D01*
X110775498Y-48154107D01*
X110876120Y-48422622D01*
X111491642Y-48651816D01*
X112148019Y-48628014D01*
X112643880Y-48422622D01*
X112744502Y-48154107D01*
X111760000Y-47169605D01*
X110775498Y-48154107D01*
X110390766Y-48154107D01*
X110577565Y-47967634D01*
X110595893Y-47974502D01*
X111580395Y-46990000D01*
X111939605Y-46990000D01*
X112924107Y-47974502D01*
X112942917Y-47967453D01*
X113363563Y-48388834D01*
X113970155Y-48640713D01*
X114626963Y-48641286D01*
X115233995Y-48390466D01*
X115570179Y-48054868D01*
X115903563Y-48388834D01*
X116510155Y-48640713D01*
X117166963Y-48641286D01*
X117773995Y-48390466D01*
X118110179Y-48054868D01*
X118443563Y-48388834D01*
X119050155Y-48640713D01*
X119706963Y-48641286D01*
X120313995Y-48390466D01*
X120650179Y-48054868D01*
X120983563Y-48388834D01*
X121590155Y-48640713D01*
X122246963Y-48641286D01*
X122853995Y-48390466D01*
X123090766Y-48154107D01*
X123475498Y-48154107D01*
X123576120Y-48422622D01*
X124191642Y-48651816D01*
X124848019Y-48628014D01*
X125343880Y-48422622D01*
X125444502Y-48154107D01*
X124460000Y-47169605D01*
X123475498Y-48154107D01*
X123090766Y-48154107D01*
X123277565Y-47967634D01*
X123295893Y-47974502D01*
X124280395Y-46990000D01*
X124639605Y-46990000D01*
X125624107Y-47974502D01*
X125642917Y-47967453D01*
X126063563Y-48388834D01*
X126670155Y-48640713D01*
X127326963Y-48641286D01*
X127933995Y-48390466D01*
X128170766Y-48154107D01*
X128555498Y-48154107D01*
X128656120Y-48422622D01*
X129271642Y-48651816D01*
X129928019Y-48628014D01*
X130423880Y-48422622D01*
X130524502Y-48154107D01*
X129540000Y-47169605D01*
X128555498Y-48154107D01*
X128170766Y-48154107D01*
X128357565Y-47967634D01*
X128375893Y-47974502D01*
X129360395Y-46990000D01*
X129719605Y-46990000D01*
X130704107Y-47974502D01*
X130722917Y-47967453D01*
X131143563Y-48388834D01*
X131750155Y-48640713D01*
X132406963Y-48641286D01*
X133013995Y-48390466D01*
X133350179Y-48054868D01*
X133683563Y-48388834D01*
X134290155Y-48640713D01*
X134946963Y-48641286D01*
X135553995Y-48390466D01*
X135890179Y-48054868D01*
X136223563Y-48388834D01*
X136830155Y-48640713D01*
X137486963Y-48641286D01*
X138093995Y-48390466D01*
X138558834Y-47926437D01*
X138810713Y-47319845D01*
X138811286Y-46663037D01*
X138560466Y-46056005D01*
X138096437Y-45591166D01*
X137489845Y-45339287D01*
X136833037Y-45338714D01*
X136226005Y-45589534D01*
X135889821Y-45925132D01*
X135556437Y-45591166D01*
X134949845Y-45339287D01*
X134293037Y-45338714D01*
X133686005Y-45589534D01*
X133349821Y-45925132D01*
X133016437Y-45591166D01*
X132409845Y-45339287D01*
X131753037Y-45338714D01*
X131146005Y-45589534D01*
X130722435Y-46012366D01*
X130704107Y-46005498D01*
X129719605Y-46990000D01*
X129360395Y-46990000D01*
X128375893Y-46005498D01*
X128357083Y-46012547D01*
X128170755Y-45825893D01*
X128555498Y-45825893D01*
X129540000Y-46810395D01*
X130524502Y-45825893D01*
X130423880Y-45557378D01*
X129808358Y-45328184D01*
X129151981Y-45351986D01*
X128656120Y-45557378D01*
X128555498Y-45825893D01*
X128170755Y-45825893D01*
X127936437Y-45591166D01*
X127329845Y-45339287D01*
X126673037Y-45338714D01*
X126066005Y-45589534D01*
X125642435Y-46012366D01*
X125624107Y-46005498D01*
X124639605Y-46990000D01*
X124280395Y-46990000D01*
X123295893Y-46005498D01*
X123277083Y-46012547D01*
X123090755Y-45825893D01*
X123475498Y-45825893D01*
X124460000Y-46810395D01*
X125444502Y-45825893D01*
X125343880Y-45557378D01*
X124728358Y-45328184D01*
X124071981Y-45351986D01*
X123576120Y-45557378D01*
X123475498Y-45825893D01*
X123090755Y-45825893D01*
X122856437Y-45591166D01*
X122249845Y-45339287D01*
X121593037Y-45338714D01*
X120986005Y-45589534D01*
X120649821Y-45925132D01*
X120316437Y-45591166D01*
X119709845Y-45339287D01*
X119053037Y-45338714D01*
X118446005Y-45589534D01*
X118109821Y-45925132D01*
X117776437Y-45591166D01*
X117169845Y-45339287D01*
X116513037Y-45338714D01*
X115906005Y-45589534D01*
X115569821Y-45925132D01*
X115236437Y-45591166D01*
X114629845Y-45339287D01*
X113973037Y-45338714D01*
X113366005Y-45589534D01*
X112942435Y-46012366D01*
X112924107Y-46005498D01*
X111939605Y-46990000D01*
X111580395Y-46990000D01*
X110595893Y-46005498D01*
X110577083Y-46012547D01*
X110390755Y-45825893D01*
X110775498Y-45825893D01*
X111760000Y-46810395D01*
X112744502Y-45825893D01*
X112643880Y-45557378D01*
X112028358Y-45328184D01*
X111371981Y-45351986D01*
X110876120Y-45557378D01*
X110775498Y-45825893D01*
X110390755Y-45825893D01*
X110156437Y-45591166D01*
X109549845Y-45339287D01*
X108893037Y-45338714D01*
X108286005Y-45589534D01*
X107949821Y-45925132D01*
X107616437Y-45591166D01*
X107009845Y-45339287D01*
X106353037Y-45338714D01*
X105746005Y-45589534D01*
X105322435Y-46012366D01*
X105304107Y-46005498D01*
X104319605Y-46990000D01*
X103960395Y-46990000D01*
X102975893Y-46005498D01*
X102957083Y-46012547D01*
X102770755Y-45825893D01*
X103155498Y-45825893D01*
X104140000Y-46810395D01*
X105124502Y-45825893D01*
X105023880Y-45557378D01*
X104408358Y-45328184D01*
X103751981Y-45351986D01*
X103256120Y-45557378D01*
X103155498Y-45825893D01*
X102770755Y-45825893D01*
X102536437Y-45591166D01*
X101929845Y-45339287D01*
X101273037Y-45338714D01*
X100666005Y-45589534D01*
X100329821Y-45925132D01*
X99996437Y-45591166D01*
X99389845Y-45339287D01*
X98733037Y-45338714D01*
X98126005Y-45589534D01*
X97789821Y-45925132D01*
X97456437Y-45591166D01*
X96849845Y-45339287D01*
X96193037Y-45338714D01*
X95586005Y-45589534D01*
X95162435Y-46012366D01*
X95144107Y-46005498D01*
X94159605Y-46990000D01*
X93800395Y-46990000D01*
X92815893Y-46005498D01*
X92797083Y-46012547D01*
X92610755Y-45825893D01*
X92995498Y-45825893D01*
X93980000Y-46810395D01*
X94964502Y-45825893D01*
X94863880Y-45557378D01*
X94248358Y-45328184D01*
X93591981Y-45351986D01*
X93096120Y-45557378D01*
X92995498Y-45825893D01*
X92610755Y-45825893D01*
X92376437Y-45591166D01*
X91769845Y-45339287D01*
X91113037Y-45338714D01*
X90506005Y-45589534D01*
X90169821Y-45925132D01*
X89836437Y-45591166D01*
X89229845Y-45339287D01*
X88573037Y-45338714D01*
X87966005Y-45589534D01*
X87501166Y-46053563D01*
X87249287Y-46660155D01*
X87248714Y-47316963D01*
X77204994Y-47316963D01*
X77226816Y-47258358D01*
X77203014Y-46601981D01*
X76997622Y-46106120D01*
X76729107Y-46005498D01*
X75744605Y-46990000D01*
X75385395Y-46990000D01*
X74400893Y-46005498D01*
X74295000Y-46045180D01*
X74189107Y-46005498D01*
X73204605Y-46990000D01*
X72845395Y-46990000D01*
X71860893Y-46005498D01*
X71755000Y-46045180D01*
X71649107Y-46005498D01*
X70664605Y-46990000D01*
X70305395Y-46990000D01*
X69320893Y-46005498D01*
X69302083Y-46012547D01*
X69115755Y-45825893D01*
X69500498Y-45825893D01*
X70485000Y-46810395D01*
X71469502Y-45825893D01*
X72040498Y-45825893D01*
X73025000Y-46810395D01*
X74009502Y-45825893D01*
X74580498Y-45825893D01*
X75565000Y-46810395D01*
X76549502Y-45825893D01*
X76448880Y-45557378D01*
X75833358Y-45328184D01*
X75176981Y-45351986D01*
X74681120Y-45557378D01*
X74580498Y-45825893D01*
X74009502Y-45825893D01*
X73908880Y-45557378D01*
X73293358Y-45328184D01*
X72636981Y-45351986D01*
X72141120Y-45557378D01*
X72040498Y-45825893D01*
X71469502Y-45825893D01*
X71368880Y-45557378D01*
X70753358Y-45328184D01*
X70096981Y-45351986D01*
X69601120Y-45557378D01*
X69500498Y-45825893D01*
X69115755Y-45825893D01*
X68881437Y-45591166D01*
X68274845Y-45339287D01*
X67618037Y-45338714D01*
X67011005Y-45589534D01*
X66674821Y-45925132D01*
X66341437Y-45591166D01*
X65734845Y-45339287D01*
X65078037Y-45338714D01*
X64471005Y-45589534D01*
X64134821Y-45925132D01*
X63801437Y-45591166D01*
X63194845Y-45339287D01*
X62538037Y-45338714D01*
X61931005Y-45589534D01*
X61594821Y-45925132D01*
X61261437Y-45591166D01*
X60654845Y-45339287D01*
X59998037Y-45338714D01*
X59391005Y-45589534D01*
X59054821Y-45925132D01*
X58721437Y-45591166D01*
X58114845Y-45339287D01*
X57458037Y-45338714D01*
X56851005Y-45589534D01*
X56514821Y-45925132D01*
X56181437Y-45591166D01*
X55574845Y-45339287D01*
X54918037Y-45338714D01*
X54311005Y-45589534D01*
X53974821Y-45925132D01*
X53641437Y-45591166D01*
X53034845Y-45339287D01*
X52378037Y-45338714D01*
X51771005Y-45589534D01*
X51434821Y-45925132D01*
X51101437Y-45591166D01*
X50494845Y-45339287D01*
X49838037Y-45338714D01*
X49231005Y-45589534D01*
X48894821Y-45925132D01*
X48561437Y-45591166D01*
X47954845Y-45339287D01*
X47298037Y-45338714D01*
X46691005Y-45589534D01*
X46354821Y-45925132D01*
X46021437Y-45591166D01*
X45414845Y-45339287D01*
X44758037Y-45338714D01*
X44151005Y-45589534D01*
X43814821Y-45925132D01*
X43481437Y-45591166D01*
X42874845Y-45339287D01*
X42218037Y-45338714D01*
X41611005Y-45589534D01*
X41146166Y-46053563D01*
X40894287Y-46660155D01*
X40893714Y-47316963D01*
X41144534Y-47923995D01*
X41608563Y-48388834D01*
X42215155Y-48640713D01*
X42871963Y-48641286D01*
X43478995Y-48390466D01*
X43815179Y-48054868D01*
X44148563Y-48388834D01*
X44755155Y-48640713D01*
X45411963Y-48641286D01*
X46018995Y-48390466D01*
X46355179Y-48054868D01*
X46688563Y-48388834D01*
X47295155Y-48640713D01*
X47951963Y-48641286D01*
X48558995Y-48390466D01*
X48895179Y-48054868D01*
X49228563Y-48388834D01*
X49835155Y-48640713D01*
X50491963Y-48641286D01*
X51098995Y-48390466D01*
X51435179Y-48054868D01*
X51768563Y-48388834D01*
X52375155Y-48640713D01*
X53031963Y-48641286D01*
X53638995Y-48390466D01*
X53975179Y-48054868D01*
X54308563Y-48388834D01*
X54915155Y-48640713D01*
X55571963Y-48641286D01*
X56178995Y-48390466D01*
X56515179Y-48054868D01*
X56848563Y-48388834D01*
X57455155Y-48640713D01*
X58111963Y-48641286D01*
X58718995Y-48390466D01*
X59055179Y-48054868D01*
X59388563Y-48388834D01*
X59995155Y-48640713D01*
X60651963Y-48641286D01*
X61258995Y-48390466D01*
X61595179Y-48054868D01*
X61928563Y-48388834D01*
X62535155Y-48640713D01*
X63191963Y-48641286D01*
X63798995Y-48390466D01*
X64135179Y-48054868D01*
X64468563Y-48388834D01*
X65075155Y-48640713D01*
X65091641Y-48640727D01*
X62062434Y-51669934D01*
X61816397Y-52038154D01*
X61730000Y-52472500D01*
X61730000Y-53410189D01*
X61594821Y-53545132D01*
X61261437Y-53211166D01*
X60654845Y-52959287D01*
X59998037Y-52958714D01*
X59391005Y-53209534D01*
X59054821Y-53545132D01*
X58721437Y-53211166D01*
X58114845Y-52959287D01*
X57458037Y-52958714D01*
X56851005Y-53209534D01*
X56514821Y-53545132D01*
X56181437Y-53211166D01*
X55574845Y-52959287D01*
X54918037Y-52958714D01*
X54311005Y-53209534D01*
X53974821Y-53545132D01*
X53641437Y-53211166D01*
X53034845Y-52959287D01*
X52378037Y-52958714D01*
X51771005Y-53209534D01*
X51434821Y-53545132D01*
X51101437Y-53211166D01*
X50494845Y-52959287D01*
X49838037Y-52958714D01*
X49231005Y-53209534D01*
X48894821Y-53545132D01*
X48561437Y-53211166D01*
X47954845Y-52959287D01*
X47298037Y-52958714D01*
X46691005Y-53209534D01*
X46354821Y-53545132D01*
X46021437Y-53211166D01*
X45414845Y-52959287D01*
X44758037Y-52958714D01*
X44151005Y-53209534D01*
X44100579Y-53259872D01*
X44025090Y-53142559D01*
X43812890Y-52997569D01*
X43561000Y-52946560D01*
X41529000Y-52946560D01*
X41293683Y-52990838D01*
X41077559Y-53129910D01*
X40932569Y-53342110D01*
X40881560Y-53594000D01*
X40881560Y-55626000D01*
X40925838Y-55861317D01*
X41064910Y-56077441D01*
X41277110Y-56222431D01*
X41410000Y-56249342D01*
X41410000Y-68705468D01*
X33205807Y-76909661D01*
X32528935Y-76909070D01*
X31828514Y-77198478D01*
X31292161Y-77733895D01*
X31001532Y-78433810D01*
X31000870Y-79191665D01*
X14680000Y-79191665D01*
X14680000Y-75463177D01*
X31738028Y-75463177D01*
X31869720Y-75758057D01*
X32577236Y-76029661D01*
X33334832Y-76009836D01*
X33942680Y-75758057D01*
X34074372Y-75463177D01*
X32906200Y-74295005D01*
X31738028Y-75463177D01*
X14680000Y-75463177D01*
X14680000Y-73786436D01*
X30991939Y-73786436D01*
X31011764Y-74544032D01*
X31263543Y-75151880D01*
X31558423Y-75283572D01*
X32726595Y-74115400D01*
X33085805Y-74115400D01*
X34253977Y-75283572D01*
X34548857Y-75151880D01*
X34820461Y-74444364D01*
X34800636Y-73686768D01*
X34548857Y-73078920D01*
X34253977Y-72947228D01*
X33085805Y-74115400D01*
X32726595Y-74115400D01*
X31558423Y-72947228D01*
X31263543Y-73078920D01*
X30991939Y-73786436D01*
X14680000Y-73786436D01*
X14680000Y-72767623D01*
X31738028Y-72767623D01*
X32906200Y-73935795D01*
X34074372Y-72767623D01*
X33942680Y-72472743D01*
X33235164Y-72201139D01*
X32477568Y-72220964D01*
X31869720Y-72472743D01*
X31738028Y-72767623D01*
X14680000Y-72767623D01*
X14680000Y-68146400D01*
X30988760Y-68146400D01*
X30988760Y-70686400D01*
X31033038Y-70921717D01*
X31172110Y-71137841D01*
X31384310Y-71282831D01*
X31636200Y-71333840D01*
X34176200Y-71333840D01*
X34411517Y-71289562D01*
X34627641Y-71150490D01*
X34772631Y-70938290D01*
X34823640Y-70686400D01*
X34823640Y-68146400D01*
X34779362Y-67911083D01*
X34640290Y-67694959D01*
X34428090Y-67549969D01*
X34176200Y-67498960D01*
X31636200Y-67498960D01*
X31400883Y-67543238D01*
X31184759Y-67682310D01*
X31039769Y-67894510D01*
X30988760Y-68146400D01*
X14680000Y-68146400D01*
X14680000Y-51085750D01*
X23215600Y-51085750D01*
X23215600Y-52676370D01*
X23312273Y-52909759D01*
X23490902Y-53088387D01*
X23724291Y-53185060D01*
X25314910Y-53185060D01*
X25473660Y-53026310D01*
X25473660Y-50927000D01*
X25727660Y-50927000D01*
X25727660Y-53026310D01*
X25886410Y-53185060D01*
X26553977Y-53185060D01*
X26398899Y-53284850D01*
X26253909Y-53497050D01*
X26202900Y-53748940D01*
X26202900Y-57249060D01*
X26247178Y-57484377D01*
X26386250Y-57700501D01*
X26598450Y-57845491D01*
X26850340Y-57896500D01*
X30350460Y-57896500D01*
X30585777Y-57852222D01*
X30801901Y-57713150D01*
X30946891Y-57500950D01*
X30997900Y-57249060D01*
X30997900Y-53748940D01*
X30953622Y-53513623D01*
X30814550Y-53297499D01*
X30668197Y-53197500D01*
X33350200Y-53197500D01*
X33585517Y-53153222D01*
X33801641Y-53014150D01*
X33946631Y-52801950D01*
X33997640Y-52550060D01*
X33997640Y-49049940D01*
X33953362Y-48814623D01*
X33814290Y-48598499D01*
X33602090Y-48453509D01*
X33350200Y-48402500D01*
X29850080Y-48402500D01*
X29614763Y-48446778D01*
X29398639Y-48585850D01*
X29253649Y-48798050D01*
X29202640Y-49049940D01*
X29202640Y-52550060D01*
X29246918Y-52785377D01*
X29385990Y-53001501D01*
X29532343Y-53101500D01*
X27678760Y-53101500D01*
X27710418Y-53088387D01*
X27889047Y-52909759D01*
X27985720Y-52676370D01*
X27985720Y-51085750D01*
X27826970Y-50927000D01*
X25727660Y-50927000D01*
X25473660Y-50927000D01*
X23374350Y-50927000D01*
X23215600Y-51085750D01*
X14680000Y-51085750D01*
X14680000Y-48923630D01*
X23215600Y-48923630D01*
X23215600Y-50514250D01*
X23374350Y-50673000D01*
X25473660Y-50673000D01*
X25473660Y-48573690D01*
X25727660Y-48573690D01*
X25727660Y-50673000D01*
X27826970Y-50673000D01*
X27985720Y-50514250D01*
X27985720Y-48923630D01*
X27889047Y-48690241D01*
X27710418Y-48511613D01*
X27477029Y-48414940D01*
X25886410Y-48414940D01*
X25727660Y-48573690D01*
X25473660Y-48573690D01*
X25314910Y-48414940D01*
X23724291Y-48414940D01*
X23490902Y-48511613D01*
X23312273Y-48690241D01*
X23215600Y-48923630D01*
X14680000Y-48923630D01*
X14680000Y-38810000D01*
X141530000Y-38810000D01*
X141530000Y-156770000D01*
G36*
X80317560Y-98790000D02*
X80361838Y-99025317D01*
X80500910Y-99241441D01*
X80713110Y-99386431D01*
X80965000Y-99437440D01*
X82865000Y-99437440D01*
X83100317Y-99393162D01*
X83316441Y-99254090D01*
X83461431Y-99041890D01*
X83462055Y-99038808D01*
X83555997Y-99132914D01*
X84138341Y-99374724D01*
X84768893Y-99375275D01*
X85351657Y-99134481D01*
X85797914Y-98689003D01*
X86014903Y-98166435D01*
X96778898Y-108930430D01*
X96258343Y-109145519D01*
X96160663Y-109243029D01*
X96029090Y-109038559D01*
X95816890Y-108893569D01*
X95565000Y-108842560D01*
X93665000Y-108842560D01*
X93429683Y-108886838D01*
X93213559Y-109025910D01*
X93068569Y-109238110D01*
X93017560Y-109490000D01*
X93017560Y-111490000D01*
X93061838Y-111725317D01*
X93200910Y-111941441D01*
X93413110Y-112086431D01*
X93665000Y-112137440D01*
X94791827Y-112137440D01*
X66334668Y-140594600D01*
X66322432Y-140594600D01*
X92191066Y-114725966D01*
X92201400Y-114710500D01*
X92437103Y-114357746D01*
X92523500Y-113923400D01*
X92523500Y-107244291D01*
X92523697Y-107018525D01*
X92351267Y-106601214D01*
X92032265Y-106281655D01*
X91615256Y-106108497D01*
X91163725Y-106108103D01*
X90746414Y-106280533D01*
X90426855Y-106599535D01*
X90253697Y-107016544D01*
X90253303Y-107468075D01*
X90253500Y-107468552D01*
X90253500Y-113453268D01*
X69682524Y-134024244D01*
X69570200Y-133753071D01*
X69334588Y-133691417D01*
X68580005Y-134446000D01*
X68594148Y-134460143D01*
X68414543Y-134639748D01*
X68400400Y-134625605D01*
X67645817Y-135380188D01*
X67707471Y-135615800D01*
X67991130Y-135715638D01*
X64612568Y-139094200D01*
X61961875Y-139094200D01*
X62127819Y-138622878D01*
X62099064Y-138092560D01*
X61951442Y-137736169D01*
X61715675Y-137674331D01*
X60960005Y-138430000D01*
X60974148Y-138444142D01*
X60794542Y-138623748D01*
X60780400Y-138609605D01*
X60766258Y-138623748D01*
X60586652Y-138444142D01*
X60600795Y-138430000D01*
X59845125Y-137674331D01*
X59609358Y-137736169D01*
X59432981Y-138237122D01*
X59461736Y-138767440D01*
X59597084Y-139094200D01*
X58016700Y-139094200D01*
X57582354Y-139180597D01*
X57305964Y-139365275D01*
X57214134Y-139426634D01*
X54547534Y-142093234D01*
X54301497Y-142461454D01*
X54215100Y-142895800D01*
X54215100Y-143929068D01*
X53712469Y-144431699D01*
X53470466Y-143846005D01*
X53033228Y-143408004D01*
X58946507Y-137494725D01*
X60024731Y-137494725D01*
X60780400Y-138250395D01*
X61536069Y-137494725D01*
X61474231Y-137258958D01*
X60973278Y-137082581D01*
X60442960Y-137111336D01*
X60086569Y-137258958D01*
X60024731Y-137494725D01*
X58946507Y-137494725D01*
X62187752Y-134253480D01*
X67054473Y-134253480D01*
X67083252Y-134783199D01*
X67230600Y-135138929D01*
X67466212Y-135200583D01*
X68220795Y-134446000D01*
X67466212Y-133691417D01*
X67230600Y-133753071D01*
X67054473Y-134253480D01*
X62187752Y-134253480D01*
X62929420Y-133511812D01*
X67645817Y-133511812D01*
X68400400Y-134266395D01*
X69154983Y-133511812D01*
X69093329Y-133276200D01*
X68592920Y-133100073D01*
X68063201Y-133128852D01*
X67707471Y-133276200D01*
X67645817Y-133511812D01*
X62929420Y-133511812D01*
X72557566Y-123883667D01*
X72803603Y-123515446D01*
X72833787Y-123363700D01*
X72890000Y-123081100D01*
X72890000Y-111596554D01*
X73097914Y-111389003D01*
X73339724Y-110806659D01*
X73340275Y-110176107D01*
X73112437Y-109624700D01*
X77494268Y-109624700D01*
X79162134Y-111292566D01*
X79530354Y-111538603D01*
X79964700Y-111625000D01*
X80342962Y-111625000D01*
X80361838Y-111725317D01*
X80500910Y-111941441D01*
X80713110Y-112086431D01*
X80965000Y-112137440D01*
X82865000Y-112137440D01*
X83100317Y-112093162D01*
X83316441Y-111954090D01*
X83461431Y-111741890D01*
X83462055Y-111738808D01*
X83555997Y-111832914D01*
X84138341Y-112074724D01*
X84768893Y-112075275D01*
X85351657Y-111834481D01*
X85797914Y-111389003D01*
X85971996Y-110969765D01*
X86052735Y-111050645D01*
X86469744Y-111223803D01*
X86921275Y-111224197D01*
X87338586Y-111051767D01*
X87658145Y-110732765D01*
X87831303Y-110315756D01*
X87831697Y-109864225D01*
X87830445Y-109861194D01*
X87745103Y-109432154D01*
X87499066Y-109063934D01*
X75422566Y-96987434D01*
X75315508Y-96915900D01*
X80317560Y-96915900D01*
X80317560Y-98790000D01*
X80317560Y-98790000D01*
G37*
X80317560Y-98790000D02*
X80361838Y-99025317D01*
X80500910Y-99241441D01*
X80713110Y-99386431D01*
X80965000Y-99437440D01*
X82865000Y-99437440D01*
X83100317Y-99393162D01*
X83316441Y-99254090D01*
X83461431Y-99041890D01*
X83462055Y-99038808D01*
X83555997Y-99132914D01*
X84138341Y-99374724D01*
X84768893Y-99375275D01*
X85351657Y-99134481D01*
X85797914Y-98689003D01*
X86014903Y-98166435D01*
X96778898Y-108930430D01*
X96258343Y-109145519D01*
X96160663Y-109243029D01*
X96029090Y-109038559D01*
X95816890Y-108893569D01*
X95565000Y-108842560D01*
X93665000Y-108842560D01*
X93429683Y-108886838D01*
X93213559Y-109025910D01*
X93068569Y-109238110D01*
X93017560Y-109490000D01*
X93017560Y-111490000D01*
X93061838Y-111725317D01*
X93200910Y-111941441D01*
X93413110Y-112086431D01*
X93665000Y-112137440D01*
X94791827Y-112137440D01*
X66334668Y-140594600D01*
X66322432Y-140594600D01*
X92191066Y-114725966D01*
X92201400Y-114710500D01*
X92437103Y-114357746D01*
X92523500Y-113923400D01*
X92523500Y-107244291D01*
X92523697Y-107018525D01*
X92351267Y-106601214D01*
X92032265Y-106281655D01*
X91615256Y-106108497D01*
X91163725Y-106108103D01*
X90746414Y-106280533D01*
X90426855Y-106599535D01*
X90253697Y-107016544D01*
X90253303Y-107468075D01*
X90253500Y-107468552D01*
X90253500Y-113453268D01*
X69682524Y-134024244D01*
X69570200Y-133753071D01*
X69334588Y-133691417D01*
X68580005Y-134446000D01*
X68594148Y-134460143D01*
X68414543Y-134639748D01*
X68400400Y-134625605D01*
X67645817Y-135380188D01*
X67707471Y-135615800D01*
X67991130Y-135715638D01*
X64612568Y-139094200D01*
X61961875Y-139094200D01*
X62127819Y-138622878D01*
X62099064Y-138092560D01*
X61951442Y-137736169D01*
X61715675Y-137674331D01*
X60960005Y-138430000D01*
X60974148Y-138444142D01*
X60794542Y-138623748D01*
X60780400Y-138609605D01*
X60766258Y-138623748D01*
X60586652Y-138444142D01*
X60600795Y-138430000D01*
X59845125Y-137674331D01*
X59609358Y-137736169D01*
X59432981Y-138237122D01*
X59461736Y-138767440D01*
X59597084Y-139094200D01*
X58016700Y-139094200D01*
X57582354Y-139180597D01*
X57305964Y-139365275D01*
X57214134Y-139426634D01*
X54547534Y-142093234D01*
X54301497Y-142461454D01*
X54215100Y-142895800D01*
X54215100Y-143929068D01*
X53712469Y-144431699D01*
X53470466Y-143846005D01*
X53033228Y-143408004D01*
X58946507Y-137494725D01*
X60024731Y-137494725D01*
X60780400Y-138250395D01*
X61536069Y-137494725D01*
X61474231Y-137258958D01*
X60973278Y-137082581D01*
X60442960Y-137111336D01*
X60086569Y-137258958D01*
X60024731Y-137494725D01*
X58946507Y-137494725D01*
X62187752Y-134253480D01*
X67054473Y-134253480D01*
X67083252Y-134783199D01*
X67230600Y-135138929D01*
X67466212Y-135200583D01*
X68220795Y-134446000D01*
X67466212Y-133691417D01*
X67230600Y-133753071D01*
X67054473Y-134253480D01*
X62187752Y-134253480D01*
X62929420Y-133511812D01*
X67645817Y-133511812D01*
X68400400Y-134266395D01*
X69154983Y-133511812D01*
X69093329Y-133276200D01*
X68592920Y-133100073D01*
X68063201Y-133128852D01*
X67707471Y-133276200D01*
X67645817Y-133511812D01*
X62929420Y-133511812D01*
X72557566Y-123883667D01*
X72803603Y-123515446D01*
X72833787Y-123363700D01*
X72890000Y-123081100D01*
X72890000Y-111596554D01*
X73097914Y-111389003D01*
X73339724Y-110806659D01*
X73340275Y-110176107D01*
X73112437Y-109624700D01*
X77494268Y-109624700D01*
X79162134Y-111292566D01*
X79530354Y-111538603D01*
X79964700Y-111625000D01*
X80342962Y-111625000D01*
X80361838Y-111725317D01*
X80500910Y-111941441D01*
X80713110Y-112086431D01*
X80965000Y-112137440D01*
X82865000Y-112137440D01*
X83100317Y-112093162D01*
X83316441Y-111954090D01*
X83461431Y-111741890D01*
X83462055Y-111738808D01*
X83555997Y-111832914D01*
X84138341Y-112074724D01*
X84768893Y-112075275D01*
X85351657Y-111834481D01*
X85797914Y-111389003D01*
X85971996Y-110969765D01*
X86052735Y-111050645D01*
X86469744Y-111223803D01*
X86921275Y-111224197D01*
X87338586Y-111051767D01*
X87658145Y-110732765D01*
X87831303Y-110315756D01*
X87831697Y-109864225D01*
X87830445Y-109861194D01*
X87745103Y-109432154D01*
X87499066Y-109063934D01*
X75422566Y-96987434D01*
X75315508Y-96915900D01*
X80317560Y-96915900D01*
X80317560Y-98790000D01*
G36*
X112530000Y-132768568D02*
X110957434Y-134341134D01*
X110711397Y-134709354D01*
X110625000Y-135143700D01*
X110625000Y-135518951D01*
X110508683Y-135540838D01*
X110292559Y-135679910D01*
X110204287Y-135809100D01*
X110156437Y-135761166D01*
X109549845Y-135509287D01*
X108893037Y-135508714D01*
X108286005Y-135759534D01*
X107949821Y-136095132D01*
X107616437Y-135761166D01*
X107009845Y-135509287D01*
X106353037Y-135508714D01*
X105746005Y-135759534D01*
X105322435Y-136182366D01*
X105304107Y-136175498D01*
X104319605Y-137160000D01*
X105304107Y-138144502D01*
X105322917Y-138137453D01*
X105743563Y-138558834D01*
X106350155Y-138810713D01*
X107006963Y-138811286D01*
X107613995Y-138560466D01*
X107950179Y-138224868D01*
X108157468Y-138432519D01*
X108171397Y-138502546D01*
X108372353Y-138803297D01*
X108417434Y-138870766D01*
X109533534Y-139986866D01*
X109901754Y-140232903D01*
X110336100Y-140319300D01*
X112615868Y-140319300D01*
X111511168Y-141424000D01*
X111105300Y-141424000D01*
X110670954Y-141510397D01*
X110494051Y-141628600D01*
X110302734Y-141756434D01*
X108930421Y-143128747D01*
X108893037Y-143128714D01*
X108286005Y-143379534D01*
X107949821Y-143715132D01*
X107616437Y-143381166D01*
X107009845Y-143129287D01*
X106353037Y-143128714D01*
X105746005Y-143379534D01*
X105409821Y-143715132D01*
X105076437Y-143381166D01*
X104469845Y-143129287D01*
X103813037Y-143128714D01*
X103206005Y-143379534D01*
X102869821Y-143715132D01*
X102536437Y-143381166D01*
X101929845Y-143129287D01*
X101273037Y-143128714D01*
X100666005Y-143379534D01*
X100329821Y-143715132D01*
X99996437Y-143381166D01*
X99389845Y-143129287D01*
X98733037Y-143128714D01*
X98126005Y-143379534D01*
X97789821Y-143715132D01*
X97456437Y-143381166D01*
X96849845Y-143129287D01*
X96193037Y-143128714D01*
X95586005Y-143379534D01*
X95249821Y-143715132D01*
X94916437Y-143381166D01*
X94356486Y-143148654D01*
X90168166Y-138960334D01*
X89989040Y-138840646D01*
X89799946Y-138714297D01*
X89571615Y-138668879D01*
X89833995Y-138560466D01*
X90070766Y-138324107D01*
X90455498Y-138324107D01*
X90556120Y-138592622D01*
X91171642Y-138821816D01*
X91828019Y-138798014D01*
X92323880Y-138592622D01*
X92424502Y-138324107D01*
X91440000Y-137339605D01*
X90455498Y-138324107D01*
X90070766Y-138324107D01*
X90257565Y-138137634D01*
X90275893Y-138144502D01*
X91260395Y-137160000D01*
X91619605Y-137160000D01*
X92604107Y-138144502D01*
X92622917Y-138137453D01*
X93043563Y-138558834D01*
X93650155Y-138810713D01*
X94306963Y-138811286D01*
X94913995Y-138560466D01*
X95250179Y-138224868D01*
X95583563Y-138558834D01*
X96190155Y-138810713D01*
X96846963Y-138811286D01*
X97453995Y-138560466D01*
X97790179Y-138224868D01*
X98123563Y-138558834D01*
X98730155Y-138810713D01*
X99386963Y-138811286D01*
X99993995Y-138560466D01*
X100330179Y-138224868D01*
X100663563Y-138558834D01*
X101270155Y-138810713D01*
X101926963Y-138811286D01*
X102533995Y-138560466D01*
X102770766Y-138324107D01*
X103155498Y-138324107D01*
X103256120Y-138592622D01*
X103871642Y-138821816D01*
X104528019Y-138798014D01*
X105023880Y-138592622D01*
X105124502Y-138324107D01*
X104140000Y-137339605D01*
X103155498Y-138324107D01*
X102770766Y-138324107D01*
X102957565Y-138137634D01*
X102975893Y-138144502D01*
X103960395Y-137160000D01*
X102975893Y-136175498D01*
X102957083Y-136182547D01*
X102770755Y-135995893D01*
X103155498Y-135995893D01*
X104140000Y-136980395D01*
X105124502Y-135995893D01*
X105023880Y-135727378D01*
X104408358Y-135498184D01*
X103751981Y-135521986D01*
X103256120Y-135727378D01*
X103155498Y-135995893D01*
X102770755Y-135995893D01*
X102536437Y-135761166D01*
X101929845Y-135509287D01*
X101273037Y-135508714D01*
X100666005Y-135759534D01*
X100329821Y-136095132D01*
X99996437Y-135761166D01*
X99389845Y-135509287D01*
X98733037Y-135508714D01*
X98126005Y-135759534D01*
X97789821Y-136095132D01*
X97456437Y-135761166D01*
X96849845Y-135509287D01*
X96193037Y-135508714D01*
X95586005Y-135759534D01*
X95249821Y-136095132D01*
X94916437Y-135761166D01*
X94309845Y-135509287D01*
X93653037Y-135508714D01*
X93046005Y-135759534D01*
X92622435Y-136182366D01*
X92604107Y-136175498D01*
X91619605Y-137160000D01*
X91260395Y-137160000D01*
X90275893Y-136175498D01*
X90257083Y-136182547D01*
X90070755Y-135995893D01*
X90455498Y-135995893D01*
X91440000Y-136980395D01*
X92424502Y-135995893D01*
X92323880Y-135727378D01*
X91708358Y-135498184D01*
X91051981Y-135521986D01*
X90556120Y-135727378D01*
X90455498Y-135995893D01*
X90070755Y-135995893D01*
X89836437Y-135761166D01*
X89229845Y-135509287D01*
X88573037Y-135508714D01*
X87966005Y-135759534D01*
X87629821Y-136095132D01*
X87296437Y-135761166D01*
X86689845Y-135509287D01*
X86033037Y-135508714D01*
X85797835Y-135605897D01*
X105876266Y-115527466D01*
X105919096Y-115463366D01*
X106122303Y-115159246D01*
X106208700Y-114724900D01*
X106208700Y-112105788D01*
X106365000Y-112137440D01*
X108265000Y-112137440D01*
X108500317Y-112093162D01*
X108716441Y-111954090D01*
X108861431Y-111741890D01*
X108862055Y-111738808D01*
X108955997Y-111832914D01*
X109538341Y-112074724D01*
X110168893Y-112075275D01*
X110751657Y-111834481D01*
X111197914Y-111389003D01*
X111439724Y-110806659D01*
X111440275Y-110176107D01*
X111199481Y-109593343D01*
X110754003Y-109147086D01*
X110171659Y-108905276D01*
X109541107Y-108904725D01*
X108958343Y-109145519D01*
X108860663Y-109243029D01*
X108729090Y-109038559D01*
X108516890Y-108893569D01*
X108265000Y-108842560D01*
X106365000Y-108842560D01*
X106208700Y-108871970D01*
X106208700Y-106134132D01*
X112530000Y-99812833D01*
X112530000Y-132768568D01*
X112530000Y-132768568D01*
G37*
X112530000Y-132768568D02*
X110957434Y-134341134D01*
X110711397Y-134709354D01*
X110625000Y-135143700D01*
X110625000Y-135518951D01*
X110508683Y-135540838D01*
X110292559Y-135679910D01*
X110204287Y-135809100D01*
X110156437Y-135761166D01*
X109549845Y-135509287D01*
X108893037Y-135508714D01*
X108286005Y-135759534D01*
X107949821Y-136095132D01*
X107616437Y-135761166D01*
X107009845Y-135509287D01*
X106353037Y-135508714D01*
X105746005Y-135759534D01*
X105322435Y-136182366D01*
X105304107Y-136175498D01*
X104319605Y-137160000D01*
X105304107Y-138144502D01*
X105322917Y-138137453D01*
X105743563Y-138558834D01*
X106350155Y-138810713D01*
X107006963Y-138811286D01*
X107613995Y-138560466D01*
X107950179Y-138224868D01*
X108157468Y-138432519D01*
X108171397Y-138502546D01*
X108372353Y-138803297D01*
X108417434Y-138870766D01*
X109533534Y-139986866D01*
X109901754Y-140232903D01*
X110336100Y-140319300D01*
X112615868Y-140319300D01*
X111511168Y-141424000D01*
X111105300Y-141424000D01*
X110670954Y-141510397D01*
X110494051Y-141628600D01*
X110302734Y-141756434D01*
X108930421Y-143128747D01*
X108893037Y-143128714D01*
X108286005Y-143379534D01*
X107949821Y-143715132D01*
X107616437Y-143381166D01*
X107009845Y-143129287D01*
X106353037Y-143128714D01*
X105746005Y-143379534D01*
X105409821Y-143715132D01*
X105076437Y-143381166D01*
X104469845Y-143129287D01*
X103813037Y-143128714D01*
X103206005Y-143379534D01*
X102869821Y-143715132D01*
X102536437Y-143381166D01*
X101929845Y-143129287D01*
X101273037Y-143128714D01*
X100666005Y-143379534D01*
X100329821Y-143715132D01*
X99996437Y-143381166D01*
X99389845Y-143129287D01*
X98733037Y-143128714D01*
X98126005Y-143379534D01*
X97789821Y-143715132D01*
X97456437Y-143381166D01*
X96849845Y-143129287D01*
X96193037Y-143128714D01*
X95586005Y-143379534D01*
X95249821Y-143715132D01*
X94916437Y-143381166D01*
X94356486Y-143148654D01*
X90168166Y-138960334D01*
X89989040Y-138840646D01*
X89799946Y-138714297D01*
X89571615Y-138668879D01*
X89833995Y-138560466D01*
X90070766Y-138324107D01*
X90455498Y-138324107D01*
X90556120Y-138592622D01*
X91171642Y-138821816D01*
X91828019Y-138798014D01*
X92323880Y-138592622D01*
X92424502Y-138324107D01*
X91440000Y-137339605D01*
X90455498Y-138324107D01*
X90070766Y-138324107D01*
X90257565Y-138137634D01*
X90275893Y-138144502D01*
X91260395Y-137160000D01*
X91619605Y-137160000D01*
X92604107Y-138144502D01*
X92622917Y-138137453D01*
X93043563Y-138558834D01*
X93650155Y-138810713D01*
X94306963Y-138811286D01*
X94913995Y-138560466D01*
X95250179Y-138224868D01*
X95583563Y-138558834D01*
X96190155Y-138810713D01*
X96846963Y-138811286D01*
X97453995Y-138560466D01*
X97790179Y-138224868D01*
X98123563Y-138558834D01*
X98730155Y-138810713D01*
X99386963Y-138811286D01*
X99993995Y-138560466D01*
X100330179Y-138224868D01*
X100663563Y-138558834D01*
X101270155Y-138810713D01*
X101926963Y-138811286D01*
X102533995Y-138560466D01*
X102770766Y-138324107D01*
X103155498Y-138324107D01*
X103256120Y-138592622D01*
X103871642Y-138821816D01*
X104528019Y-138798014D01*
X105023880Y-138592622D01*
X105124502Y-138324107D01*
X104140000Y-137339605D01*
X103155498Y-138324107D01*
X102770766Y-138324107D01*
X102957565Y-138137634D01*
X102975893Y-138144502D01*
X103960395Y-137160000D01*
X102975893Y-136175498D01*
X102957083Y-136182547D01*
X102770755Y-135995893D01*
X103155498Y-135995893D01*
X104140000Y-136980395D01*
X105124502Y-135995893D01*
X105023880Y-135727378D01*
X104408358Y-135498184D01*
X103751981Y-135521986D01*
X103256120Y-135727378D01*
X103155498Y-135995893D01*
X102770755Y-135995893D01*
X102536437Y-135761166D01*
X101929845Y-135509287D01*
X101273037Y-135508714D01*
X100666005Y-135759534D01*
X100329821Y-136095132D01*
X99996437Y-135761166D01*
X99389845Y-135509287D01*
X98733037Y-135508714D01*
X98126005Y-135759534D01*
X97789821Y-136095132D01*
X97456437Y-135761166D01*
X96849845Y-135509287D01*
X96193037Y-135508714D01*
X95586005Y-135759534D01*
X95249821Y-136095132D01*
X94916437Y-135761166D01*
X94309845Y-135509287D01*
X93653037Y-135508714D01*
X93046005Y-135759534D01*
X92622435Y-136182366D01*
X92604107Y-136175498D01*
X91619605Y-137160000D01*
X91260395Y-137160000D01*
X90275893Y-136175498D01*
X90257083Y-136182547D01*
X90070755Y-135995893D01*
X90455498Y-135995893D01*
X91440000Y-136980395D01*
X92424502Y-135995893D01*
X92323880Y-135727378D01*
X91708358Y-135498184D01*
X91051981Y-135521986D01*
X90556120Y-135727378D01*
X90455498Y-135995893D01*
X90070755Y-135995893D01*
X89836437Y-135761166D01*
X89229845Y-135509287D01*
X88573037Y-135508714D01*
X87966005Y-135759534D01*
X87629821Y-136095132D01*
X87296437Y-135761166D01*
X86689845Y-135509287D01*
X86033037Y-135508714D01*
X85797835Y-135605897D01*
X105876266Y-115527466D01*
X105919096Y-115463366D01*
X106122303Y-115159246D01*
X106208700Y-114724900D01*
X106208700Y-112105788D01*
X106365000Y-112137440D01*
X108265000Y-112137440D01*
X108500317Y-112093162D01*
X108716441Y-111954090D01*
X108861431Y-111741890D01*
X108862055Y-111738808D01*
X108955997Y-111832914D01*
X109538341Y-112074724D01*
X110168893Y-112075275D01*
X110751657Y-111834481D01*
X111197914Y-111389003D01*
X111439724Y-110806659D01*
X111440275Y-110176107D01*
X111199481Y-109593343D01*
X110754003Y-109147086D01*
X110171659Y-108905276D01*
X109541107Y-108904725D01*
X108958343Y-109145519D01*
X108860663Y-109243029D01*
X108729090Y-109038559D01*
X108516890Y-108893569D01*
X108265000Y-108842560D01*
X106365000Y-108842560D01*
X106208700Y-108871970D01*
X106208700Y-106134132D01*
X112530000Y-99812833D01*
X112530000Y-132768568D01*
G36*
X50248859Y-113200709D02*
X48727434Y-114722134D01*
X48481397Y-115090354D01*
X48395000Y-115524700D01*
X48395000Y-135960189D01*
X48259821Y-136095132D01*
X47926437Y-135761166D01*
X47319845Y-135509287D01*
X46663037Y-135508714D01*
X46056005Y-135759534D01*
X45632435Y-136182366D01*
X45614107Y-136175498D01*
X44629605Y-137160000D01*
X45614107Y-138144502D01*
X45632917Y-138137453D01*
X46053563Y-138558834D01*
X46149922Y-138598846D01*
X41620022Y-143128746D01*
X41583037Y-143128714D01*
X40976005Y-143379534D01*
X40639821Y-143715132D01*
X40306437Y-143381166D01*
X39699845Y-143129287D01*
X39043037Y-143128714D01*
X38436005Y-143379534D01*
X38099821Y-143715132D01*
X37766437Y-143381166D01*
X37159845Y-143129287D01*
X36503037Y-143128714D01*
X35896005Y-143379534D01*
X35559821Y-143715132D01*
X35226437Y-143381166D01*
X34619845Y-143129287D01*
X33963037Y-143128714D01*
X33356005Y-143379534D01*
X33019821Y-143715132D01*
X32686437Y-143381166D01*
X32079845Y-143129287D01*
X32037182Y-143129250D01*
X27957266Y-139049334D01*
X27824068Y-138960334D01*
X27589046Y-138803297D01*
X27202422Y-138726392D01*
X27603995Y-138560466D01*
X27940179Y-138224868D01*
X28273563Y-138558834D01*
X28880155Y-138810713D01*
X29536963Y-138811286D01*
X30143995Y-138560466D01*
X30380766Y-138324107D01*
X30765498Y-138324107D01*
X30866120Y-138592622D01*
X31481642Y-138821816D01*
X32138019Y-138798014D01*
X32633880Y-138592622D01*
X32734502Y-138324107D01*
X31750000Y-137339605D01*
X30765498Y-138324107D01*
X30380766Y-138324107D01*
X30567565Y-138137634D01*
X30585893Y-138144502D01*
X31570395Y-137160000D01*
X31929605Y-137160000D01*
X32914107Y-138144502D01*
X32932917Y-138137453D01*
X33353563Y-138558834D01*
X33960155Y-138810713D01*
X34616963Y-138811286D01*
X35223995Y-138560466D01*
X35560179Y-138224868D01*
X35893563Y-138558834D01*
X36500155Y-138810713D01*
X37156963Y-138811286D01*
X37763995Y-138560466D01*
X38100179Y-138224868D01*
X38433563Y-138558834D01*
X39040155Y-138810713D01*
X39696963Y-138811286D01*
X40303995Y-138560466D01*
X40640179Y-138224868D01*
X40973563Y-138558834D01*
X41580155Y-138810713D01*
X42236963Y-138811286D01*
X42843995Y-138560466D01*
X43080766Y-138324107D01*
X43465498Y-138324107D01*
X43566120Y-138592622D01*
X44181642Y-138821816D01*
X44838019Y-138798014D01*
X45333880Y-138592622D01*
X45434502Y-138324107D01*
X44450000Y-137339605D01*
X43465498Y-138324107D01*
X43080766Y-138324107D01*
X43267565Y-138137634D01*
X43285893Y-138144502D01*
X44270395Y-137160000D01*
X43285893Y-136175498D01*
X43267083Y-136182547D01*
X43080755Y-135995893D01*
X43465498Y-135995893D01*
X44450000Y-136980395D01*
X45434502Y-135995893D01*
X45333880Y-135727378D01*
X44718358Y-135498184D01*
X44061981Y-135521986D01*
X43566120Y-135727378D01*
X43465498Y-135995893D01*
X43080755Y-135995893D01*
X42846437Y-135761166D01*
X42239845Y-135509287D01*
X41583037Y-135508714D01*
X40976005Y-135759534D01*
X40639821Y-136095132D01*
X40306437Y-135761166D01*
X39699845Y-135509287D01*
X39043037Y-135508714D01*
X38436005Y-135759534D01*
X38099821Y-136095132D01*
X37766437Y-135761166D01*
X37159845Y-135509287D01*
X36503037Y-135508714D01*
X35896005Y-135759534D01*
X35559821Y-136095132D01*
X35226437Y-135761166D01*
X34619845Y-135509287D01*
X33963037Y-135508714D01*
X33356005Y-135759534D01*
X32932435Y-136182366D01*
X32914107Y-136175498D01*
X31929605Y-137160000D01*
X31570395Y-137160000D01*
X30585893Y-136175498D01*
X30567083Y-136182547D01*
X30380755Y-135995893D01*
X30765498Y-135995893D01*
X31750000Y-136980395D01*
X32734502Y-135995893D01*
X32633880Y-135727378D01*
X32018358Y-135498184D01*
X31361981Y-135521986D01*
X30866120Y-135727378D01*
X30765498Y-135995893D01*
X30380755Y-135995893D01*
X30146437Y-135761166D01*
X29539845Y-135509287D01*
X28883037Y-135508714D01*
X28276005Y-135759534D01*
X27939821Y-136095132D01*
X27606437Y-135761166D01*
X26999845Y-135509287D01*
X26343037Y-135508714D01*
X25736005Y-135759534D01*
X25399821Y-136095132D01*
X25066437Y-135761166D01*
X24473836Y-135515096D01*
X47157566Y-112831367D01*
X47403603Y-112463146D01*
X47416536Y-112398126D01*
X47490000Y-112028800D01*
X47490000Y-111596554D01*
X47697914Y-111389003D01*
X47914795Y-110866695D01*
X50248859Y-113200709D01*
X50248859Y-113200709D01*
G37*
X50248859Y-113200709D02*
X48727434Y-114722134D01*
X48481397Y-115090354D01*
X48395000Y-115524700D01*
X48395000Y-135960189D01*
X48259821Y-136095132D01*
X47926437Y-135761166D01*
X47319845Y-135509287D01*
X46663037Y-135508714D01*
X46056005Y-135759534D01*
X45632435Y-136182366D01*
X45614107Y-136175498D01*
X44629605Y-137160000D01*
X45614107Y-138144502D01*
X45632917Y-138137453D01*
X46053563Y-138558834D01*
X46149922Y-138598846D01*
X41620022Y-143128746D01*
X41583037Y-143128714D01*
X40976005Y-143379534D01*
X40639821Y-143715132D01*
X40306437Y-143381166D01*
X39699845Y-143129287D01*
X39043037Y-143128714D01*
X38436005Y-143379534D01*
X38099821Y-143715132D01*
X37766437Y-143381166D01*
X37159845Y-143129287D01*
X36503037Y-143128714D01*
X35896005Y-143379534D01*
X35559821Y-143715132D01*
X35226437Y-143381166D01*
X34619845Y-143129287D01*
X33963037Y-143128714D01*
X33356005Y-143379534D01*
X33019821Y-143715132D01*
X32686437Y-143381166D01*
X32079845Y-143129287D01*
X32037182Y-143129250D01*
X27957266Y-139049334D01*
X27824068Y-138960334D01*
X27589046Y-138803297D01*
X27202422Y-138726392D01*
X27603995Y-138560466D01*
X27940179Y-138224868D01*
X28273563Y-138558834D01*
X28880155Y-138810713D01*
X29536963Y-138811286D01*
X30143995Y-138560466D01*
X30380766Y-138324107D01*
X30765498Y-138324107D01*
X30866120Y-138592622D01*
X31481642Y-138821816D01*
X32138019Y-138798014D01*
X32633880Y-138592622D01*
X32734502Y-138324107D01*
X31750000Y-137339605D01*
X30765498Y-138324107D01*
X30380766Y-138324107D01*
X30567565Y-138137634D01*
X30585893Y-138144502D01*
X31570395Y-137160000D01*
X31929605Y-137160000D01*
X32914107Y-138144502D01*
X32932917Y-138137453D01*
X33353563Y-138558834D01*
X33960155Y-138810713D01*
X34616963Y-138811286D01*
X35223995Y-138560466D01*
X35560179Y-138224868D01*
X35893563Y-138558834D01*
X36500155Y-138810713D01*
X37156963Y-138811286D01*
X37763995Y-138560466D01*
X38100179Y-138224868D01*
X38433563Y-138558834D01*
X39040155Y-138810713D01*
X39696963Y-138811286D01*
X40303995Y-138560466D01*
X40640179Y-138224868D01*
X40973563Y-138558834D01*
X41580155Y-138810713D01*
X42236963Y-138811286D01*
X42843995Y-138560466D01*
X43080766Y-138324107D01*
X43465498Y-138324107D01*
X43566120Y-138592622D01*
X44181642Y-138821816D01*
X44838019Y-138798014D01*
X45333880Y-138592622D01*
X45434502Y-138324107D01*
X44450000Y-137339605D01*
X43465498Y-138324107D01*
X43080766Y-138324107D01*
X43267565Y-138137634D01*
X43285893Y-138144502D01*
X44270395Y-137160000D01*
X43285893Y-136175498D01*
X43267083Y-136182547D01*
X43080755Y-135995893D01*
X43465498Y-135995893D01*
X44450000Y-136980395D01*
X45434502Y-135995893D01*
X45333880Y-135727378D01*
X44718358Y-135498184D01*
X44061981Y-135521986D01*
X43566120Y-135727378D01*
X43465498Y-135995893D01*
X43080755Y-135995893D01*
X42846437Y-135761166D01*
X42239845Y-135509287D01*
X41583037Y-135508714D01*
X40976005Y-135759534D01*
X40639821Y-136095132D01*
X40306437Y-135761166D01*
X39699845Y-135509287D01*
X39043037Y-135508714D01*
X38436005Y-135759534D01*
X38099821Y-136095132D01*
X37766437Y-135761166D01*
X37159845Y-135509287D01*
X36503037Y-135508714D01*
X35896005Y-135759534D01*
X35559821Y-136095132D01*
X35226437Y-135761166D01*
X34619845Y-135509287D01*
X33963037Y-135508714D01*
X33356005Y-135759534D01*
X32932435Y-136182366D01*
X32914107Y-136175498D01*
X31929605Y-137160000D01*
X31570395Y-137160000D01*
X30585893Y-136175498D01*
X30567083Y-136182547D01*
X30380755Y-135995893D01*
X30765498Y-135995893D01*
X31750000Y-136980395D01*
X32734502Y-135995893D01*
X32633880Y-135727378D01*
X32018358Y-135498184D01*
X31361981Y-135521986D01*
X30866120Y-135727378D01*
X30765498Y-135995893D01*
X30380755Y-135995893D01*
X30146437Y-135761166D01*
X29539845Y-135509287D01*
X28883037Y-135508714D01*
X28276005Y-135759534D01*
X27939821Y-136095132D01*
X27606437Y-135761166D01*
X26999845Y-135509287D01*
X26343037Y-135508714D01*
X25736005Y-135759534D01*
X25399821Y-136095132D01*
X25066437Y-135761166D01*
X24473836Y-135515096D01*
X47157566Y-112831367D01*
X47403603Y-112463146D01*
X47416536Y-112398126D01*
X47490000Y-112028800D01*
X47490000Y-111596554D01*
X47697914Y-111389003D01*
X47914795Y-110866695D01*
X50248859Y-113200709D01*
M02*
