G04 #@! TF.FileFunction,Legend,Top*
%FSLAX46Y46*%
G04 Gerber Fmt 4.6, Leading zero omitted, Abs format (unit mm)*
G04 Created by KiCad (PCBNEW 4.0.2-stable) date Wednesday, 03 August 2016 'pmt' 15:26:21*
%MOMM*%
G01*
G04 APERTURE LIST*
%ADD10C,0.100000*%
%ADD11C,0.150000*%
%ADD12C,0.304800*%
%ADD13C,0.222250*%
G04 APERTURE END LIST*
D10*
D11*
X67130400Y-145241000D02*
X67130400Y-145241000D01*
X67130400Y-145241000D02*
X67130400Y-145241000D01*
X67130400Y-145241000D02*
X67130400Y-145241000D01*
X67130400Y-145241000D02*
X67130400Y-135716000D01*
X67130400Y-135716000D02*
X69670400Y-135716000D01*
X69670400Y-135716000D02*
X69670400Y-145241000D01*
X69670400Y-145241000D02*
X67130400Y-145241000D01*
X67765400Y-145241000D02*
X67765400Y-145241000D01*
X67765400Y-145241000D02*
X67765400Y-145876000D01*
X67765400Y-145876000D02*
X69035400Y-145876000D01*
X69035400Y-145876000D02*
X69035400Y-145241000D01*
X68400400Y-147146000D02*
X68400400Y-147146000D01*
X68400400Y-147146000D02*
X68400400Y-145876000D01*
X68400400Y-145876000D02*
X68400400Y-145876000D01*
X68400400Y-145876000D02*
X68400400Y-145876000D01*
X68400400Y-135716000D02*
X68400400Y-135716000D01*
X68400400Y-135716000D02*
X68400400Y-135716000D01*
X68400400Y-135716000D02*
X68400400Y-134446000D01*
X68400400Y-134446000D02*
X68400400Y-134446000D01*
X68400400Y-134446000D02*
X68400400Y-134446000D01*
X68400400Y-134446000D02*
X68400400Y-134446000D01*
X118400000Y-142660000D02*
X118400000Y-136660000D01*
X122900000Y-136660000D02*
X122900000Y-142660000D01*
X127000000Y-145241000D02*
X127000000Y-145241000D01*
X127000000Y-145241000D02*
X127000000Y-145241000D01*
X127000000Y-145241000D02*
X127000000Y-145241000D01*
X127000000Y-145241000D02*
X127000000Y-135716000D01*
X127000000Y-135716000D02*
X129540000Y-135716000D01*
X129540000Y-135716000D02*
X129540000Y-145241000D01*
X129540000Y-145241000D02*
X127000000Y-145241000D01*
X127635000Y-145241000D02*
X127635000Y-145241000D01*
X127635000Y-145241000D02*
X127635000Y-145876000D01*
X127635000Y-145876000D02*
X128905000Y-145876000D01*
X128905000Y-145876000D02*
X128905000Y-145241000D01*
X128270000Y-147146000D02*
X128270000Y-147146000D01*
X128270000Y-147146000D02*
X128270000Y-145876000D01*
X128270000Y-145876000D02*
X128270000Y-145876000D01*
X128270000Y-145876000D02*
X128270000Y-145876000D01*
X128270000Y-135716000D02*
X128270000Y-135716000D01*
X128270000Y-135716000D02*
X128270000Y-135716000D01*
X128270000Y-135716000D02*
X128270000Y-134446000D01*
X128270000Y-134446000D02*
X128270000Y-134446000D01*
X128270000Y-134446000D02*
X128270000Y-134446000D01*
X128270000Y-134446000D02*
X128270000Y-134446000D01*
X58530400Y-143930000D02*
X58530400Y-137930000D01*
X63030400Y-137930000D02*
X63030400Y-143930000D01*
X24574500Y-67254120D02*
X24574500Y-76255880D01*
X21074380Y-67254120D02*
X21074380Y-76255880D01*
X21074380Y-76255880D02*
X35575240Y-76255880D01*
X35575240Y-76255880D02*
X35575240Y-67254120D01*
X35575240Y-67254120D02*
X21074380Y-67254120D01*
X24185112Y-114554904D02*
G75*
G03X24170000Y-111530000I2484888J1524904D01*
G01*
X24170000Y-114530000D02*
X24170000Y-111530000D01*
X29187936Y-113030000D02*
G75*
G03X29187936Y-113030000I-2517936J0D01*
G01*
X36885112Y-114554904D02*
G75*
G03X36870000Y-111530000I2484888J1524904D01*
G01*
X36870000Y-114530000D02*
X36870000Y-111530000D01*
X41887936Y-113030000D02*
G75*
G03X41887936Y-113030000I-2517936J0D01*
G01*
X49585112Y-114554904D02*
G75*
G03X49570000Y-111530000I2484888J1524904D01*
G01*
X49570000Y-114530000D02*
X49570000Y-111530000D01*
X54587936Y-113030000D02*
G75*
G03X54587936Y-113030000I-2517936J0D01*
G01*
X62285112Y-114554904D02*
G75*
G03X62270000Y-111530000I2484888J1524904D01*
G01*
X62270000Y-114530000D02*
X62270000Y-111530000D01*
X67287936Y-113030000D02*
G75*
G03X67287936Y-113030000I-2517936J0D01*
G01*
X74985112Y-114554904D02*
G75*
G03X74970000Y-111530000I2484888J1524904D01*
G01*
X74970000Y-114530000D02*
X74970000Y-111530000D01*
X79987936Y-113030000D02*
G75*
G03X79987936Y-113030000I-2517936J0D01*
G01*
X87685112Y-114554904D02*
G75*
G03X87670000Y-111530000I2484888J1524904D01*
G01*
X87670000Y-114530000D02*
X87670000Y-111530000D01*
X92687936Y-113030000D02*
G75*
G03X92687936Y-113030000I-2517936J0D01*
G01*
X100385112Y-114554904D02*
G75*
G03X100370000Y-111530000I2484888J1524904D01*
G01*
X100370000Y-114530000D02*
X100370000Y-111530000D01*
X105387936Y-113030000D02*
G75*
G03X105387936Y-113030000I-2517936J0D01*
G01*
X113085112Y-114554904D02*
G75*
G03X113070000Y-111530000I2484888J1524904D01*
G01*
X113070000Y-114530000D02*
X113070000Y-111530000D01*
X118087936Y-113030000D02*
G75*
G03X118087936Y-113030000I-2517936J0D01*
G01*
X24185112Y-127254904D02*
G75*
G03X24170000Y-124230000I2484888J1524904D01*
G01*
X24170000Y-127230000D02*
X24170000Y-124230000D01*
X29187936Y-125730000D02*
G75*
G03X29187936Y-125730000I-2517936J0D01*
G01*
X36885112Y-127254904D02*
G75*
G03X36870000Y-124230000I2484888J1524904D01*
G01*
X36870000Y-127230000D02*
X36870000Y-124230000D01*
X41887936Y-125730000D02*
G75*
G03X41887936Y-125730000I-2517936J0D01*
G01*
X49585112Y-127254904D02*
G75*
G03X49570000Y-124230000I2484888J1524904D01*
G01*
X49570000Y-127230000D02*
X49570000Y-124230000D01*
X54587936Y-125730000D02*
G75*
G03X54587936Y-125730000I-2517936J0D01*
G01*
X62285112Y-127254904D02*
G75*
G03X62270000Y-124230000I2484888J1524904D01*
G01*
X62270000Y-127230000D02*
X62270000Y-124230000D01*
X67287936Y-125730000D02*
G75*
G03X67287936Y-125730000I-2517936J0D01*
G01*
X87685112Y-127254904D02*
G75*
G03X87670000Y-124230000I2484888J1524904D01*
G01*
X87670000Y-127230000D02*
X87670000Y-124230000D01*
X92687936Y-125730000D02*
G75*
G03X92687936Y-125730000I-2517936J0D01*
G01*
X74985112Y-127254904D02*
G75*
G03X74970000Y-124230000I2484888J1524904D01*
G01*
X74970000Y-127230000D02*
X74970000Y-124230000D01*
X79987936Y-125730000D02*
G75*
G03X79987936Y-125730000I-2517936J0D01*
G01*
X100385112Y-127254904D02*
G75*
G03X100370000Y-124230000I2484888J1524904D01*
G01*
X100370000Y-127230000D02*
X100370000Y-124230000D01*
X105387936Y-125730000D02*
G75*
G03X105387936Y-125730000I-2517936J0D01*
G01*
X113085112Y-127254904D02*
G75*
G03X113070000Y-124230000I2484888J1524904D01*
G01*
X113070000Y-127230000D02*
X113070000Y-124230000D01*
X118087936Y-125730000D02*
G75*
G03X118087936Y-125730000I-2517936J0D01*
G01*
X99060000Y-149860000D02*
X104140000Y-149860000D01*
X104140000Y-149860000D02*
X104140000Y-152400000D01*
X104140000Y-152400000D02*
X99060000Y-152400000D01*
X99060000Y-152400000D02*
X99060000Y-149860000D01*
X99060000Y-151130000D02*
X97790000Y-151130000D01*
X104140000Y-151130000D02*
X105410000Y-151130000D01*
X36830000Y-149860000D02*
X41910000Y-149860000D01*
X41910000Y-149860000D02*
X41910000Y-152400000D01*
X41910000Y-152400000D02*
X36830000Y-152400000D01*
X36830000Y-152400000D02*
X36830000Y-149860000D01*
X36830000Y-151130000D02*
X35560000Y-151130000D01*
X41910000Y-151130000D02*
X43180000Y-151130000D01*
D12*
X40640000Y-75565000D02*
X74930000Y-75565000D01*
X74930000Y-75565000D02*
X74930000Y-66675000D01*
X74930000Y-66675000D02*
X40640000Y-66675000D01*
X40640000Y-66675000D02*
X40640000Y-75565000D01*
X112395000Y-136525000D02*
X83185000Y-136525000D01*
X83185000Y-136525000D02*
X83185000Y-145415000D01*
X83185000Y-145415000D02*
X112395000Y-145415000D01*
X112395000Y-145415000D02*
X112395000Y-136525000D01*
X52705000Y-136525000D02*
X23495000Y-136525000D01*
X23495000Y-136525000D02*
X23495000Y-145415000D01*
X23495000Y-145415000D02*
X52705000Y-145415000D01*
X52705000Y-145415000D02*
X52705000Y-136525000D01*
D11*
X98855000Y-102030000D02*
X98855000Y-98630000D01*
X98852056Y-102027056D02*
G75*
G02X94755000Y-100330000I-1697056J1697056D01*
G01*
X98852056Y-98632944D02*
G75*
G03X94755000Y-100330000I-1697056J-1697056D01*
G01*
X129335000Y-102030000D02*
X129335000Y-98630000D01*
X129332056Y-102027056D02*
G75*
G02X125235000Y-100330000I-1697056J1697056D01*
G01*
X129332056Y-98632944D02*
G75*
G03X125235000Y-100330000I-1697056J-1697056D01*
G01*
X114095000Y-102030000D02*
X114095000Y-98630000D01*
X114092056Y-102027056D02*
G75*
G02X109995000Y-100330000I-1697056J1697056D01*
G01*
X114092056Y-98632944D02*
G75*
G03X109995000Y-100330000I-1697056J-1697056D01*
G01*
X94615000Y-82550000D02*
X99695000Y-82550000D01*
X99695000Y-82550000D02*
X99695000Y-85090000D01*
X99695000Y-85090000D02*
X94615000Y-85090000D01*
X94615000Y-85090000D02*
X94615000Y-82550000D01*
X94615000Y-83820000D02*
X93345000Y-83820000D01*
X99695000Y-83820000D02*
X100965000Y-83820000D01*
X94615000Y-90170000D02*
X99695000Y-90170000D01*
X99695000Y-90170000D02*
X99695000Y-92710000D01*
X99695000Y-92710000D02*
X94615000Y-92710000D01*
X94615000Y-92710000D02*
X94615000Y-90170000D01*
X94615000Y-91440000D02*
X93345000Y-91440000D01*
X99695000Y-91440000D02*
X100965000Y-91440000D01*
X109855000Y-82550000D02*
X114935000Y-82550000D01*
X114935000Y-82550000D02*
X114935000Y-85090000D01*
X114935000Y-85090000D02*
X109855000Y-85090000D01*
X109855000Y-85090000D02*
X109855000Y-82550000D01*
X109855000Y-83820000D02*
X108585000Y-83820000D01*
X114935000Y-83820000D02*
X116205000Y-83820000D01*
X109855000Y-90170000D02*
X114935000Y-90170000D01*
X114935000Y-90170000D02*
X114935000Y-92710000D01*
X114935000Y-92710000D02*
X109855000Y-92710000D01*
X109855000Y-92710000D02*
X109855000Y-90170000D01*
X109855000Y-91440000D02*
X108585000Y-91440000D01*
X114935000Y-91440000D02*
X116205000Y-91440000D01*
X125095000Y-82550000D02*
X130175000Y-82550000D01*
X130175000Y-82550000D02*
X130175000Y-85090000D01*
X130175000Y-85090000D02*
X125095000Y-85090000D01*
X125095000Y-85090000D02*
X125095000Y-82550000D01*
X125095000Y-83820000D02*
X123825000Y-83820000D01*
X130175000Y-83820000D02*
X131445000Y-83820000D01*
X125095000Y-90170000D02*
X130175000Y-90170000D01*
X130175000Y-90170000D02*
X130175000Y-92710000D01*
X130175000Y-92710000D02*
X125095000Y-92710000D01*
X125095000Y-92710000D02*
X125095000Y-90170000D01*
X125095000Y-91440000D02*
X123825000Y-91440000D01*
X130175000Y-91440000D02*
X131445000Y-91440000D01*
X61227200Y-89355400D02*
X68085200Y-89355400D01*
X68085200Y-89355400D02*
X68085200Y-102055400D01*
X68085200Y-102055400D02*
X61227200Y-102055400D01*
X61227200Y-102055400D02*
X61227200Y-89355400D01*
X48527200Y-89355400D02*
X55385200Y-89355400D01*
X55385200Y-89355400D02*
X55385200Y-102055400D01*
X55385200Y-102055400D02*
X48527200Y-102055400D01*
X48527200Y-102055400D02*
X48527200Y-89355400D01*
X35827200Y-89355400D02*
X42685200Y-89355400D01*
X42685200Y-89355400D02*
X42685200Y-102055400D01*
X42685200Y-102055400D02*
X35827200Y-102055400D01*
X35827200Y-102055400D02*
X35827200Y-89355400D01*
X23127200Y-89355400D02*
X29985200Y-89355400D01*
X29985200Y-89355400D02*
X29985200Y-102055400D01*
X29985200Y-102055400D02*
X23127200Y-102055400D01*
X23127200Y-102055400D02*
X23127200Y-89355400D01*
D12*
X84455000Y-70485000D02*
X133985000Y-70485000D01*
X133985000Y-70485000D02*
X133985000Y-66675000D01*
X133985000Y-66675000D02*
X84455000Y-66675000D01*
X84455000Y-66675000D02*
X84455000Y-70485000D01*
D11*
X68757543Y-140962666D02*
X68805162Y-141010285D01*
X68852781Y-141153142D01*
X68852781Y-141248380D01*
X68805162Y-141391238D01*
X68709924Y-141486476D01*
X68614686Y-141534095D01*
X68424210Y-141581714D01*
X68281352Y-141581714D01*
X68090876Y-141534095D01*
X67995638Y-141486476D01*
X67900400Y-141391238D01*
X67852781Y-141248380D01*
X67852781Y-141153142D01*
X67900400Y-141010285D01*
X67948019Y-140962666D01*
X68852781Y-140010285D02*
X68852781Y-140581714D01*
X68852781Y-140296000D02*
X67852781Y-140296000D01*
X67995638Y-140391238D01*
X68090876Y-140486476D01*
X68138495Y-140581714D01*
X117507143Y-139826666D02*
X117554762Y-139874285D01*
X117602381Y-140017142D01*
X117602381Y-140112380D01*
X117554762Y-140255238D01*
X117459524Y-140350476D01*
X117364286Y-140398095D01*
X117173810Y-140445714D01*
X117030952Y-140445714D01*
X116840476Y-140398095D01*
X116745238Y-140350476D01*
X116650000Y-140255238D01*
X116602381Y-140112380D01*
X116602381Y-140017142D01*
X116650000Y-139874285D01*
X116697619Y-139826666D01*
X116697619Y-139445714D02*
X116650000Y-139398095D01*
X116602381Y-139302857D01*
X116602381Y-139064761D01*
X116650000Y-138969523D01*
X116697619Y-138921904D01*
X116792857Y-138874285D01*
X116888095Y-138874285D01*
X117030952Y-138921904D01*
X117602381Y-139493333D01*
X117602381Y-138874285D01*
X128627143Y-140962666D02*
X128674762Y-141010285D01*
X128722381Y-141153142D01*
X128722381Y-141248380D01*
X128674762Y-141391238D01*
X128579524Y-141486476D01*
X128484286Y-141534095D01*
X128293810Y-141581714D01*
X128150952Y-141581714D01*
X127960476Y-141534095D01*
X127865238Y-141486476D01*
X127770000Y-141391238D01*
X127722381Y-141248380D01*
X127722381Y-141153142D01*
X127770000Y-141010285D01*
X127817619Y-140962666D01*
X127722381Y-140629333D02*
X127722381Y-140010285D01*
X128103333Y-140343619D01*
X128103333Y-140200761D01*
X128150952Y-140105523D01*
X128198571Y-140057904D01*
X128293810Y-140010285D01*
X128531905Y-140010285D01*
X128627143Y-140057904D01*
X128674762Y-140105523D01*
X128722381Y-140200761D01*
X128722381Y-140486476D01*
X128674762Y-140581714D01*
X128627143Y-140629333D01*
X57637543Y-141096666D02*
X57685162Y-141144285D01*
X57732781Y-141287142D01*
X57732781Y-141382380D01*
X57685162Y-141525238D01*
X57589924Y-141620476D01*
X57494686Y-141668095D01*
X57304210Y-141715714D01*
X57161352Y-141715714D01*
X56970876Y-141668095D01*
X56875638Y-141620476D01*
X56780400Y-141525238D01*
X56732781Y-141382380D01*
X56732781Y-141287142D01*
X56780400Y-141144285D01*
X56828019Y-141096666D01*
X57066114Y-140239523D02*
X57732781Y-140239523D01*
X56685162Y-140477619D02*
X57399448Y-140715714D01*
X57399448Y-140096666D01*
X39031183Y-72969285D02*
X39078802Y-73016904D01*
X39126421Y-73159761D01*
X39126421Y-73254999D01*
X39078802Y-73397857D01*
X38983564Y-73493095D01*
X38888326Y-73540714D01*
X38697850Y-73588333D01*
X38554992Y-73588333D01*
X38364516Y-73540714D01*
X38269278Y-73493095D01*
X38174040Y-73397857D01*
X38126421Y-73254999D01*
X38126421Y-73159761D01*
X38174040Y-73016904D01*
X38221659Y-72969285D01*
X38126421Y-72350238D02*
X38126421Y-72159761D01*
X38174040Y-72064523D01*
X38269278Y-71969285D01*
X38459754Y-71921666D01*
X38793088Y-71921666D01*
X38983564Y-71969285D01*
X39078802Y-72064523D01*
X39126421Y-72159761D01*
X39126421Y-72350238D01*
X39078802Y-72445476D01*
X38983564Y-72540714D01*
X38793088Y-72588333D01*
X38459754Y-72588333D01*
X38269278Y-72540714D01*
X38174040Y-72445476D01*
X38126421Y-72350238D01*
X39126421Y-71493095D02*
X38126421Y-71493095D01*
X39126421Y-70921666D01*
X38126421Y-70921666D01*
X39126421Y-69921666D02*
X39126421Y-70493095D01*
X39126421Y-70207381D02*
X38126421Y-70207381D01*
X38269278Y-70302619D01*
X38364516Y-70397857D01*
X38412135Y-70493095D01*
X26185905Y-117546381D02*
X26185905Y-116546381D01*
X26424000Y-116546381D01*
X26566858Y-116594000D01*
X26662096Y-116689238D01*
X26709715Y-116784476D01*
X26757334Y-116974952D01*
X26757334Y-117117810D01*
X26709715Y-117308286D01*
X26662096Y-117403524D01*
X26566858Y-117498762D01*
X26424000Y-117546381D01*
X26185905Y-117546381D01*
X27709715Y-117546381D02*
X27138286Y-117546381D01*
X27424000Y-117546381D02*
X27424000Y-116546381D01*
X27328762Y-116689238D01*
X27233524Y-116784476D01*
X27138286Y-116832095D01*
X23233095Y-115387381D02*
X23233095Y-114387381D01*
X23804524Y-115387381D02*
X23375952Y-114815952D01*
X23804524Y-114387381D02*
X23233095Y-114958810D01*
X38885905Y-117546381D02*
X38885905Y-116546381D01*
X39124000Y-116546381D01*
X39266858Y-116594000D01*
X39362096Y-116689238D01*
X39409715Y-116784476D01*
X39457334Y-116974952D01*
X39457334Y-117117810D01*
X39409715Y-117308286D01*
X39362096Y-117403524D01*
X39266858Y-117498762D01*
X39124000Y-117546381D01*
X38885905Y-117546381D01*
X39838286Y-116641619D02*
X39885905Y-116594000D01*
X39981143Y-116546381D01*
X40219239Y-116546381D01*
X40314477Y-116594000D01*
X40362096Y-116641619D01*
X40409715Y-116736857D01*
X40409715Y-116832095D01*
X40362096Y-116974952D01*
X39790667Y-117546381D01*
X40409715Y-117546381D01*
X35933095Y-115387381D02*
X35933095Y-114387381D01*
X36504524Y-115387381D02*
X36075952Y-114815952D01*
X36504524Y-114387381D02*
X35933095Y-114958810D01*
X51585905Y-117546381D02*
X51585905Y-116546381D01*
X51824000Y-116546381D01*
X51966858Y-116594000D01*
X52062096Y-116689238D01*
X52109715Y-116784476D01*
X52157334Y-116974952D01*
X52157334Y-117117810D01*
X52109715Y-117308286D01*
X52062096Y-117403524D01*
X51966858Y-117498762D01*
X51824000Y-117546381D01*
X51585905Y-117546381D01*
X52490667Y-116546381D02*
X53109715Y-116546381D01*
X52776381Y-116927333D01*
X52919239Y-116927333D01*
X53014477Y-116974952D01*
X53062096Y-117022571D01*
X53109715Y-117117810D01*
X53109715Y-117355905D01*
X53062096Y-117451143D01*
X53014477Y-117498762D01*
X52919239Y-117546381D01*
X52633524Y-117546381D01*
X52538286Y-117498762D01*
X52490667Y-117451143D01*
X48633095Y-115387381D02*
X48633095Y-114387381D01*
X49204524Y-115387381D02*
X48775952Y-114815952D01*
X49204524Y-114387381D02*
X48633095Y-114958810D01*
X64285905Y-117546381D02*
X64285905Y-116546381D01*
X64524000Y-116546381D01*
X64666858Y-116594000D01*
X64762096Y-116689238D01*
X64809715Y-116784476D01*
X64857334Y-116974952D01*
X64857334Y-117117810D01*
X64809715Y-117308286D01*
X64762096Y-117403524D01*
X64666858Y-117498762D01*
X64524000Y-117546381D01*
X64285905Y-117546381D01*
X65714477Y-116879714D02*
X65714477Y-117546381D01*
X65476381Y-116498762D02*
X65238286Y-117213048D01*
X65857334Y-117213048D01*
X61333095Y-115387381D02*
X61333095Y-114387381D01*
X61904524Y-115387381D02*
X61475952Y-114815952D01*
X61904524Y-114387381D02*
X61333095Y-114958810D01*
X76985905Y-117546381D02*
X76985905Y-116546381D01*
X77224000Y-116546381D01*
X77366858Y-116594000D01*
X77462096Y-116689238D01*
X77509715Y-116784476D01*
X77557334Y-116974952D01*
X77557334Y-117117810D01*
X77509715Y-117308286D01*
X77462096Y-117403524D01*
X77366858Y-117498762D01*
X77224000Y-117546381D01*
X76985905Y-117546381D01*
X78462096Y-116546381D02*
X77985905Y-116546381D01*
X77938286Y-117022571D01*
X77985905Y-116974952D01*
X78081143Y-116927333D01*
X78319239Y-116927333D01*
X78414477Y-116974952D01*
X78462096Y-117022571D01*
X78509715Y-117117810D01*
X78509715Y-117355905D01*
X78462096Y-117451143D01*
X78414477Y-117498762D01*
X78319239Y-117546381D01*
X78081143Y-117546381D01*
X77985905Y-117498762D01*
X77938286Y-117451143D01*
X74033095Y-115387381D02*
X74033095Y-114387381D01*
X74604524Y-115387381D02*
X74175952Y-114815952D01*
X74604524Y-114387381D02*
X74033095Y-114958810D01*
X89685905Y-117546381D02*
X89685905Y-116546381D01*
X89924000Y-116546381D01*
X90066858Y-116594000D01*
X90162096Y-116689238D01*
X90209715Y-116784476D01*
X90257334Y-116974952D01*
X90257334Y-117117810D01*
X90209715Y-117308286D01*
X90162096Y-117403524D01*
X90066858Y-117498762D01*
X89924000Y-117546381D01*
X89685905Y-117546381D01*
X91114477Y-116546381D02*
X90924000Y-116546381D01*
X90828762Y-116594000D01*
X90781143Y-116641619D01*
X90685905Y-116784476D01*
X90638286Y-116974952D01*
X90638286Y-117355905D01*
X90685905Y-117451143D01*
X90733524Y-117498762D01*
X90828762Y-117546381D01*
X91019239Y-117546381D01*
X91114477Y-117498762D01*
X91162096Y-117451143D01*
X91209715Y-117355905D01*
X91209715Y-117117810D01*
X91162096Y-117022571D01*
X91114477Y-116974952D01*
X91019239Y-116927333D01*
X90828762Y-116927333D01*
X90733524Y-116974952D01*
X90685905Y-117022571D01*
X90638286Y-117117810D01*
X86733095Y-115387381D02*
X86733095Y-114387381D01*
X87304524Y-115387381D02*
X86875952Y-114815952D01*
X87304524Y-114387381D02*
X86733095Y-114958810D01*
X102385905Y-117546381D02*
X102385905Y-116546381D01*
X102624000Y-116546381D01*
X102766858Y-116594000D01*
X102862096Y-116689238D01*
X102909715Y-116784476D01*
X102957334Y-116974952D01*
X102957334Y-117117810D01*
X102909715Y-117308286D01*
X102862096Y-117403524D01*
X102766858Y-117498762D01*
X102624000Y-117546381D01*
X102385905Y-117546381D01*
X103290667Y-116546381D02*
X103957334Y-116546381D01*
X103528762Y-117546381D01*
X99433095Y-115387381D02*
X99433095Y-114387381D01*
X100004524Y-115387381D02*
X99575952Y-114815952D01*
X100004524Y-114387381D02*
X99433095Y-114958810D01*
X115085905Y-117546381D02*
X115085905Y-116546381D01*
X115324000Y-116546381D01*
X115466858Y-116594000D01*
X115562096Y-116689238D01*
X115609715Y-116784476D01*
X115657334Y-116974952D01*
X115657334Y-117117810D01*
X115609715Y-117308286D01*
X115562096Y-117403524D01*
X115466858Y-117498762D01*
X115324000Y-117546381D01*
X115085905Y-117546381D01*
X116228762Y-116974952D02*
X116133524Y-116927333D01*
X116085905Y-116879714D01*
X116038286Y-116784476D01*
X116038286Y-116736857D01*
X116085905Y-116641619D01*
X116133524Y-116594000D01*
X116228762Y-116546381D01*
X116419239Y-116546381D01*
X116514477Y-116594000D01*
X116562096Y-116641619D01*
X116609715Y-116736857D01*
X116609715Y-116784476D01*
X116562096Y-116879714D01*
X116514477Y-116927333D01*
X116419239Y-116974952D01*
X116228762Y-116974952D01*
X116133524Y-117022571D01*
X116085905Y-117070190D01*
X116038286Y-117165429D01*
X116038286Y-117355905D01*
X116085905Y-117451143D01*
X116133524Y-117498762D01*
X116228762Y-117546381D01*
X116419239Y-117546381D01*
X116514477Y-117498762D01*
X116562096Y-117451143D01*
X116609715Y-117355905D01*
X116609715Y-117165429D01*
X116562096Y-117070190D01*
X116514477Y-117022571D01*
X116419239Y-116974952D01*
X112133095Y-115387381D02*
X112133095Y-114387381D01*
X112704524Y-115387381D02*
X112275952Y-114815952D01*
X112704524Y-114387381D02*
X112133095Y-114958810D01*
X26185905Y-130246381D02*
X26185905Y-129246381D01*
X26424000Y-129246381D01*
X26566858Y-129294000D01*
X26662096Y-129389238D01*
X26709715Y-129484476D01*
X26757334Y-129674952D01*
X26757334Y-129817810D01*
X26709715Y-130008286D01*
X26662096Y-130103524D01*
X26566858Y-130198762D01*
X26424000Y-130246381D01*
X26185905Y-130246381D01*
X27233524Y-130246381D02*
X27424000Y-130246381D01*
X27519239Y-130198762D01*
X27566858Y-130151143D01*
X27662096Y-130008286D01*
X27709715Y-129817810D01*
X27709715Y-129436857D01*
X27662096Y-129341619D01*
X27614477Y-129294000D01*
X27519239Y-129246381D01*
X27328762Y-129246381D01*
X27233524Y-129294000D01*
X27185905Y-129341619D01*
X27138286Y-129436857D01*
X27138286Y-129674952D01*
X27185905Y-129770190D01*
X27233524Y-129817810D01*
X27328762Y-129865429D01*
X27519239Y-129865429D01*
X27614477Y-129817810D01*
X27662096Y-129770190D01*
X27709715Y-129674952D01*
X23233095Y-128087381D02*
X23233095Y-127087381D01*
X23804524Y-128087381D02*
X23375952Y-127515952D01*
X23804524Y-127087381D02*
X23233095Y-127658810D01*
X38409714Y-130246381D02*
X38409714Y-129246381D01*
X38647809Y-129246381D01*
X38790667Y-129294000D01*
X38885905Y-129389238D01*
X38933524Y-129484476D01*
X38981143Y-129674952D01*
X38981143Y-129817810D01*
X38933524Y-130008286D01*
X38885905Y-130103524D01*
X38790667Y-130198762D01*
X38647809Y-130246381D01*
X38409714Y-130246381D01*
X39933524Y-130246381D02*
X39362095Y-130246381D01*
X39647809Y-130246381D02*
X39647809Y-129246381D01*
X39552571Y-129389238D01*
X39457333Y-129484476D01*
X39362095Y-129532095D01*
X40552571Y-129246381D02*
X40647810Y-129246381D01*
X40743048Y-129294000D01*
X40790667Y-129341619D01*
X40838286Y-129436857D01*
X40885905Y-129627333D01*
X40885905Y-129865429D01*
X40838286Y-130055905D01*
X40790667Y-130151143D01*
X40743048Y-130198762D01*
X40647810Y-130246381D01*
X40552571Y-130246381D01*
X40457333Y-130198762D01*
X40409714Y-130151143D01*
X40362095Y-130055905D01*
X40314476Y-129865429D01*
X40314476Y-129627333D01*
X40362095Y-129436857D01*
X40409714Y-129341619D01*
X40457333Y-129294000D01*
X40552571Y-129246381D01*
X35933095Y-128087381D02*
X35933095Y-127087381D01*
X36504524Y-128087381D02*
X36075952Y-127515952D01*
X36504524Y-127087381D02*
X35933095Y-127658810D01*
X51109714Y-130246381D02*
X51109714Y-129246381D01*
X51347809Y-129246381D01*
X51490667Y-129294000D01*
X51585905Y-129389238D01*
X51633524Y-129484476D01*
X51681143Y-129674952D01*
X51681143Y-129817810D01*
X51633524Y-130008286D01*
X51585905Y-130103524D01*
X51490667Y-130198762D01*
X51347809Y-130246381D01*
X51109714Y-130246381D01*
X52633524Y-130246381D02*
X52062095Y-130246381D01*
X52347809Y-130246381D02*
X52347809Y-129246381D01*
X52252571Y-129389238D01*
X52157333Y-129484476D01*
X52062095Y-129532095D01*
X53585905Y-130246381D02*
X53014476Y-130246381D01*
X53300190Y-130246381D02*
X53300190Y-129246381D01*
X53204952Y-129389238D01*
X53109714Y-129484476D01*
X53014476Y-129532095D01*
X48633095Y-128087381D02*
X48633095Y-127087381D01*
X49204524Y-128087381D02*
X48775952Y-127515952D01*
X49204524Y-127087381D02*
X48633095Y-127658810D01*
X63809714Y-130246381D02*
X63809714Y-129246381D01*
X64047809Y-129246381D01*
X64190667Y-129294000D01*
X64285905Y-129389238D01*
X64333524Y-129484476D01*
X64381143Y-129674952D01*
X64381143Y-129817810D01*
X64333524Y-130008286D01*
X64285905Y-130103524D01*
X64190667Y-130198762D01*
X64047809Y-130246381D01*
X63809714Y-130246381D01*
X65333524Y-130246381D02*
X64762095Y-130246381D01*
X65047809Y-130246381D02*
X65047809Y-129246381D01*
X64952571Y-129389238D01*
X64857333Y-129484476D01*
X64762095Y-129532095D01*
X65714476Y-129341619D02*
X65762095Y-129294000D01*
X65857333Y-129246381D01*
X66095429Y-129246381D01*
X66190667Y-129294000D01*
X66238286Y-129341619D01*
X66285905Y-129436857D01*
X66285905Y-129532095D01*
X66238286Y-129674952D01*
X65666857Y-130246381D01*
X66285905Y-130246381D01*
X61333095Y-128087381D02*
X61333095Y-127087381D01*
X61904524Y-128087381D02*
X61475952Y-127515952D01*
X61904524Y-127087381D02*
X61333095Y-127658810D01*
X89209714Y-130246381D02*
X89209714Y-129246381D01*
X89447809Y-129246381D01*
X89590667Y-129294000D01*
X89685905Y-129389238D01*
X89733524Y-129484476D01*
X89781143Y-129674952D01*
X89781143Y-129817810D01*
X89733524Y-130008286D01*
X89685905Y-130103524D01*
X89590667Y-130198762D01*
X89447809Y-130246381D01*
X89209714Y-130246381D01*
X90733524Y-130246381D02*
X90162095Y-130246381D01*
X90447809Y-130246381D02*
X90447809Y-129246381D01*
X90352571Y-129389238D01*
X90257333Y-129484476D01*
X90162095Y-129532095D01*
X91066857Y-129246381D02*
X91685905Y-129246381D01*
X91352571Y-129627333D01*
X91495429Y-129627333D01*
X91590667Y-129674952D01*
X91638286Y-129722571D01*
X91685905Y-129817810D01*
X91685905Y-130055905D01*
X91638286Y-130151143D01*
X91590667Y-130198762D01*
X91495429Y-130246381D01*
X91209714Y-130246381D01*
X91114476Y-130198762D01*
X91066857Y-130151143D01*
X86733095Y-128087381D02*
X86733095Y-127087381D01*
X87304524Y-128087381D02*
X86875952Y-127515952D01*
X87304524Y-127087381D02*
X86733095Y-127658810D01*
X76509714Y-130246381D02*
X76509714Y-129246381D01*
X76747809Y-129246381D01*
X76890667Y-129294000D01*
X76985905Y-129389238D01*
X77033524Y-129484476D01*
X77081143Y-129674952D01*
X77081143Y-129817810D01*
X77033524Y-130008286D01*
X76985905Y-130103524D01*
X76890667Y-130198762D01*
X76747809Y-130246381D01*
X76509714Y-130246381D01*
X78033524Y-130246381D02*
X77462095Y-130246381D01*
X77747809Y-130246381D02*
X77747809Y-129246381D01*
X77652571Y-129389238D01*
X77557333Y-129484476D01*
X77462095Y-129532095D01*
X78890667Y-129579714D02*
X78890667Y-130246381D01*
X78652571Y-129198762D02*
X78414476Y-129913048D01*
X79033524Y-129913048D01*
X74033095Y-128087381D02*
X74033095Y-127087381D01*
X74604524Y-128087381D02*
X74175952Y-127515952D01*
X74604524Y-127087381D02*
X74033095Y-127658810D01*
X101909714Y-130246381D02*
X101909714Y-129246381D01*
X102147809Y-129246381D01*
X102290667Y-129294000D01*
X102385905Y-129389238D01*
X102433524Y-129484476D01*
X102481143Y-129674952D01*
X102481143Y-129817810D01*
X102433524Y-130008286D01*
X102385905Y-130103524D01*
X102290667Y-130198762D01*
X102147809Y-130246381D01*
X101909714Y-130246381D01*
X103433524Y-130246381D02*
X102862095Y-130246381D01*
X103147809Y-130246381D02*
X103147809Y-129246381D01*
X103052571Y-129389238D01*
X102957333Y-129484476D01*
X102862095Y-129532095D01*
X104338286Y-129246381D02*
X103862095Y-129246381D01*
X103814476Y-129722571D01*
X103862095Y-129674952D01*
X103957333Y-129627333D01*
X104195429Y-129627333D01*
X104290667Y-129674952D01*
X104338286Y-129722571D01*
X104385905Y-129817810D01*
X104385905Y-130055905D01*
X104338286Y-130151143D01*
X104290667Y-130198762D01*
X104195429Y-130246381D01*
X103957333Y-130246381D01*
X103862095Y-130198762D01*
X103814476Y-130151143D01*
X99433095Y-128087381D02*
X99433095Y-127087381D01*
X100004524Y-128087381D02*
X99575952Y-127515952D01*
X100004524Y-127087381D02*
X99433095Y-127658810D01*
X114609714Y-130246381D02*
X114609714Y-129246381D01*
X114847809Y-129246381D01*
X114990667Y-129294000D01*
X115085905Y-129389238D01*
X115133524Y-129484476D01*
X115181143Y-129674952D01*
X115181143Y-129817810D01*
X115133524Y-130008286D01*
X115085905Y-130103524D01*
X114990667Y-130198762D01*
X114847809Y-130246381D01*
X114609714Y-130246381D01*
X116133524Y-130246381D02*
X115562095Y-130246381D01*
X115847809Y-130246381D02*
X115847809Y-129246381D01*
X115752571Y-129389238D01*
X115657333Y-129484476D01*
X115562095Y-129532095D01*
X116990667Y-129246381D02*
X116800190Y-129246381D01*
X116704952Y-129294000D01*
X116657333Y-129341619D01*
X116562095Y-129484476D01*
X116514476Y-129674952D01*
X116514476Y-130055905D01*
X116562095Y-130151143D01*
X116609714Y-130198762D01*
X116704952Y-130246381D01*
X116895429Y-130246381D01*
X116990667Y-130198762D01*
X117038286Y-130151143D01*
X117085905Y-130055905D01*
X117085905Y-129817810D01*
X117038286Y-129722571D01*
X116990667Y-129674952D01*
X116895429Y-129627333D01*
X116704952Y-129627333D01*
X116609714Y-129674952D01*
X116562095Y-129722571D01*
X116514476Y-129817810D01*
X112133095Y-128087381D02*
X112133095Y-127087381D01*
X112704524Y-128087381D02*
X112275952Y-127515952D01*
X112704524Y-127087381D02*
X112133095Y-127658810D01*
X101682254Y-148082261D02*
X101348920Y-147606070D01*
X101110825Y-148082261D02*
X101110825Y-147082261D01*
X101491778Y-147082261D01*
X101587016Y-147129880D01*
X101634635Y-147177499D01*
X101682254Y-147272737D01*
X101682254Y-147415594D01*
X101634635Y-147510832D01*
X101587016Y-147558451D01*
X101491778Y-147606070D01*
X101110825Y-147606070D01*
X102634635Y-148082261D02*
X102063206Y-148082261D01*
X102348920Y-148082261D02*
X102348920Y-147082261D01*
X102253682Y-147225118D01*
X102158444Y-147320356D01*
X102063206Y-147367975D01*
X39452254Y-148082261D02*
X39118920Y-147606070D01*
X38880825Y-148082261D02*
X38880825Y-147082261D01*
X39261778Y-147082261D01*
X39357016Y-147129880D01*
X39404635Y-147177499D01*
X39452254Y-147272737D01*
X39452254Y-147415594D01*
X39404635Y-147510832D01*
X39357016Y-147558451D01*
X39261778Y-147606070D01*
X38880825Y-147606070D01*
X39833206Y-147177499D02*
X39880825Y-147129880D01*
X39976063Y-147082261D01*
X40214159Y-147082261D01*
X40309397Y-147129880D01*
X40357016Y-147177499D01*
X40404635Y-147272737D01*
X40404635Y-147367975D01*
X40357016Y-147510832D01*
X39785587Y-148082261D01*
X40404635Y-148082261D01*
D13*
X40788167Y-75353333D02*
X41507833Y-75353333D01*
X41592500Y-75311000D01*
X41634833Y-75268667D01*
X41677167Y-75184000D01*
X41677167Y-75014667D01*
X41634833Y-74930000D01*
X41592500Y-74887667D01*
X41507833Y-74845333D01*
X40788167Y-74845333D01*
X41677167Y-73956334D02*
X41677167Y-74464334D01*
X41677167Y-74210334D02*
X40788167Y-74210334D01*
X40915167Y-74295000D01*
X40999833Y-74379667D01*
X41042167Y-74464334D01*
D12*
D13*
X41677167Y-78486000D02*
X40788167Y-78486000D01*
X41423167Y-78189667D01*
X40788167Y-77893334D01*
X41677167Y-77893334D01*
X41592500Y-76962000D02*
X41634833Y-77004334D01*
X41677167Y-77131334D01*
X41677167Y-77216000D01*
X41634833Y-77343000D01*
X41550167Y-77427667D01*
X41465500Y-77470000D01*
X41296167Y-77512334D01*
X41169167Y-77512334D01*
X40999833Y-77470000D01*
X40915167Y-77427667D01*
X40830500Y-77343000D01*
X40788167Y-77216000D01*
X40788167Y-77131334D01*
X40830500Y-77004334D01*
X40872833Y-76962000D01*
X41677167Y-76581000D02*
X40788167Y-76581000D01*
X40788167Y-76242334D01*
X40830500Y-76157667D01*
X40872833Y-76115334D01*
X40957500Y-76073000D01*
X41084500Y-76073000D01*
X41169167Y-76115334D01*
X41211500Y-76157667D01*
X41253833Y-76242334D01*
X41253833Y-76581000D01*
X40872833Y-75734334D02*
X40830500Y-75692000D01*
X40788167Y-75607334D01*
X40788167Y-75395667D01*
X40830500Y-75311000D01*
X40872833Y-75268667D01*
X40957500Y-75226334D01*
X41042167Y-75226334D01*
X41169167Y-75268667D01*
X41677167Y-75776667D01*
X41677167Y-75226334D01*
X40788167Y-74930000D02*
X40788167Y-74379667D01*
X41126833Y-74676000D01*
X41126833Y-74549000D01*
X41169167Y-74464333D01*
X41211500Y-74422000D01*
X41296167Y-74379667D01*
X41507833Y-74379667D01*
X41592500Y-74422000D01*
X41634833Y-74464333D01*
X41677167Y-74549000D01*
X41677167Y-74803000D01*
X41634833Y-74887667D01*
X41592500Y-74930000D01*
X40788167Y-73829333D02*
X40788167Y-73744666D01*
X40830500Y-73660000D01*
X40872833Y-73617666D01*
X40957500Y-73575333D01*
X41126833Y-73533000D01*
X41338500Y-73533000D01*
X41507833Y-73575333D01*
X41592500Y-73617666D01*
X41634833Y-73660000D01*
X41677167Y-73744666D01*
X41677167Y-73829333D01*
X41634833Y-73914000D01*
X41592500Y-73956333D01*
X41507833Y-73998666D01*
X41338500Y-74041000D01*
X41126833Y-74041000D01*
X40957500Y-73998666D01*
X40872833Y-73956333D01*
X40830500Y-73914000D01*
X40788167Y-73829333D01*
X41677167Y-72686333D02*
X41677167Y-73194333D01*
X41677167Y-72940333D02*
X40788167Y-72940333D01*
X40915167Y-73024999D01*
X40999833Y-73109666D01*
X41042167Y-73194333D01*
X40788167Y-72389999D02*
X40788167Y-71797332D01*
X41677167Y-72178332D01*
D12*
D13*
X111273167Y-138091333D02*
X111992833Y-138091333D01*
X112077500Y-138049000D01*
X112119833Y-138006667D01*
X112162167Y-137922000D01*
X112162167Y-137752667D01*
X112119833Y-137668000D01*
X112077500Y-137625667D01*
X111992833Y-137583333D01*
X111273167Y-137583333D01*
X111273167Y-137244667D02*
X111273167Y-136694334D01*
X111611833Y-136990667D01*
X111611833Y-136863667D01*
X111654167Y-136779000D01*
X111696500Y-136736667D01*
X111781167Y-136694334D01*
X111992833Y-136694334D01*
X112077500Y-136736667D01*
X112119833Y-136779000D01*
X112162167Y-136863667D01*
X112162167Y-137117667D01*
X112119833Y-137202334D01*
X112077500Y-137244667D01*
D12*
D13*
X112162167Y-139700000D02*
X111273167Y-139700000D01*
X111908167Y-139403667D01*
X111273167Y-139107334D01*
X112162167Y-139107334D01*
X111908167Y-138726334D02*
X111908167Y-138303000D01*
X112162167Y-138811000D02*
X111273167Y-138514667D01*
X112162167Y-138218334D01*
X111273167Y-138006667D02*
X112162167Y-137414000D01*
X111273167Y-137414000D02*
X112162167Y-138006667D01*
X111273167Y-137160000D02*
X111273167Y-136567333D01*
X112162167Y-136948333D01*
X111357833Y-136271000D02*
X111315500Y-136228666D01*
X111273167Y-136144000D01*
X111273167Y-135932333D01*
X111315500Y-135847666D01*
X111357833Y-135805333D01*
X111442500Y-135763000D01*
X111527167Y-135763000D01*
X111654167Y-135805333D01*
X112162167Y-136313333D01*
X112162167Y-135763000D01*
X111357833Y-135424333D02*
X111315500Y-135381999D01*
X111273167Y-135297333D01*
X111273167Y-135085666D01*
X111315500Y-135000999D01*
X111357833Y-134958666D01*
X111442500Y-134916333D01*
X111527167Y-134916333D01*
X111654167Y-134958666D01*
X112162167Y-135466666D01*
X112162167Y-134916333D01*
X112162167Y-134069666D02*
X112162167Y-134577666D01*
X112162167Y-134323666D02*
X111273167Y-134323666D01*
X111400167Y-134408332D01*
X111484833Y-134492999D01*
X111527167Y-134577666D01*
D12*
D13*
X51583167Y-138091333D02*
X52302833Y-138091333D01*
X52387500Y-138049000D01*
X52429833Y-138006667D01*
X52472167Y-137922000D01*
X52472167Y-137752667D01*
X52429833Y-137668000D01*
X52387500Y-137625667D01*
X52302833Y-137583333D01*
X51583167Y-137583333D01*
X51879500Y-136779000D02*
X52472167Y-136779000D01*
X51540833Y-136990667D02*
X52175833Y-137202334D01*
X52175833Y-136652000D01*
D12*
D13*
X52472167Y-139700000D02*
X51583167Y-139700000D01*
X52218167Y-139403667D01*
X51583167Y-139107334D01*
X52472167Y-139107334D01*
X52218167Y-138726334D02*
X52218167Y-138303000D01*
X52472167Y-138811000D02*
X51583167Y-138514667D01*
X52472167Y-138218334D01*
X51583167Y-138006667D02*
X52472167Y-137414000D01*
X51583167Y-137414000D02*
X52472167Y-138006667D01*
X51583167Y-137160000D02*
X51583167Y-136567333D01*
X52472167Y-136948333D01*
X51667833Y-136271000D02*
X51625500Y-136228666D01*
X51583167Y-136144000D01*
X51583167Y-135932333D01*
X51625500Y-135847666D01*
X51667833Y-135805333D01*
X51752500Y-135763000D01*
X51837167Y-135763000D01*
X51964167Y-135805333D01*
X52472167Y-136313333D01*
X52472167Y-135763000D01*
X51667833Y-135424333D02*
X51625500Y-135381999D01*
X51583167Y-135297333D01*
X51583167Y-135085666D01*
X51625500Y-135000999D01*
X51667833Y-134958666D01*
X51752500Y-134916333D01*
X51837167Y-134916333D01*
X51964167Y-134958666D01*
X52472167Y-135466666D01*
X52472167Y-134916333D01*
X52472167Y-134069666D02*
X52472167Y-134577666D01*
X52472167Y-134323666D02*
X51583167Y-134323666D01*
X51710167Y-134408332D01*
X51794833Y-134492999D01*
X51837167Y-134577666D01*
D12*
D11*
X93702619Y-101695238D02*
X93655000Y-101790476D01*
X93559762Y-101885714D01*
X93416905Y-102028571D01*
X93369286Y-102123810D01*
X93369286Y-102219048D01*
X93607381Y-102171429D02*
X93559762Y-102266667D01*
X93464524Y-102361905D01*
X93274048Y-102409524D01*
X92940714Y-102409524D01*
X92750238Y-102361905D01*
X92655000Y-102266667D01*
X92607381Y-102171429D01*
X92607381Y-101980952D01*
X92655000Y-101885714D01*
X92750238Y-101790476D01*
X92940714Y-101742857D01*
X93274048Y-101742857D01*
X93464524Y-101790476D01*
X93559762Y-101885714D01*
X93607381Y-101980952D01*
X93607381Y-102171429D01*
X93607381Y-100790476D02*
X93607381Y-101361905D01*
X93607381Y-101076191D02*
X92607381Y-101076191D01*
X92750238Y-101171429D01*
X92845476Y-101266667D01*
X92893095Y-101361905D01*
X124182619Y-101695238D02*
X124135000Y-101790476D01*
X124039762Y-101885714D01*
X123896905Y-102028571D01*
X123849286Y-102123810D01*
X123849286Y-102219048D01*
X124087381Y-102171429D02*
X124039762Y-102266667D01*
X123944524Y-102361905D01*
X123754048Y-102409524D01*
X123420714Y-102409524D01*
X123230238Y-102361905D01*
X123135000Y-102266667D01*
X123087381Y-102171429D01*
X123087381Y-101980952D01*
X123135000Y-101885714D01*
X123230238Y-101790476D01*
X123420714Y-101742857D01*
X123754048Y-101742857D01*
X123944524Y-101790476D01*
X124039762Y-101885714D01*
X124087381Y-101980952D01*
X124087381Y-102171429D01*
X123182619Y-101361905D02*
X123135000Y-101314286D01*
X123087381Y-101219048D01*
X123087381Y-100980952D01*
X123135000Y-100885714D01*
X123182619Y-100838095D01*
X123277857Y-100790476D01*
X123373095Y-100790476D01*
X123515952Y-100838095D01*
X124087381Y-101409524D01*
X124087381Y-100790476D01*
X108942619Y-101695238D02*
X108895000Y-101790476D01*
X108799762Y-101885714D01*
X108656905Y-102028571D01*
X108609286Y-102123810D01*
X108609286Y-102219048D01*
X108847381Y-102171429D02*
X108799762Y-102266667D01*
X108704524Y-102361905D01*
X108514048Y-102409524D01*
X108180714Y-102409524D01*
X107990238Y-102361905D01*
X107895000Y-102266667D01*
X107847381Y-102171429D01*
X107847381Y-101980952D01*
X107895000Y-101885714D01*
X107990238Y-101790476D01*
X108180714Y-101742857D01*
X108514048Y-101742857D01*
X108704524Y-101790476D01*
X108799762Y-101885714D01*
X108847381Y-101980952D01*
X108847381Y-102171429D01*
X107847381Y-101409524D02*
X107847381Y-100790476D01*
X108228333Y-101123810D01*
X108228333Y-100980952D01*
X108275952Y-100885714D01*
X108323571Y-100838095D01*
X108418810Y-100790476D01*
X108656905Y-100790476D01*
X108752143Y-100838095D01*
X108799762Y-100885714D01*
X108847381Y-100980952D01*
X108847381Y-101266667D01*
X108799762Y-101361905D01*
X108752143Y-101409524D01*
X97237254Y-80772261D02*
X96903920Y-80296070D01*
X96665825Y-80772261D02*
X96665825Y-79772261D01*
X97046778Y-79772261D01*
X97142016Y-79819880D01*
X97189635Y-79867499D01*
X97237254Y-79962737D01*
X97237254Y-80105594D01*
X97189635Y-80200832D01*
X97142016Y-80248451D01*
X97046778Y-80296070D01*
X96665825Y-80296070D01*
X97570587Y-79772261D02*
X98189635Y-79772261D01*
X97856301Y-80153213D01*
X97999159Y-80153213D01*
X98094397Y-80200832D01*
X98142016Y-80248451D01*
X98189635Y-80343690D01*
X98189635Y-80581785D01*
X98142016Y-80677023D01*
X98094397Y-80724642D01*
X97999159Y-80772261D01*
X97713444Y-80772261D01*
X97618206Y-80724642D01*
X97570587Y-80677023D01*
X97237254Y-88392261D02*
X96903920Y-87916070D01*
X96665825Y-88392261D02*
X96665825Y-87392261D01*
X97046778Y-87392261D01*
X97142016Y-87439880D01*
X97189635Y-87487499D01*
X97237254Y-87582737D01*
X97237254Y-87725594D01*
X97189635Y-87820832D01*
X97142016Y-87868451D01*
X97046778Y-87916070D01*
X96665825Y-87916070D01*
X98094397Y-87725594D02*
X98094397Y-88392261D01*
X97856301Y-87344642D02*
X97618206Y-88058928D01*
X98237254Y-88058928D01*
X112477254Y-80772261D02*
X112143920Y-80296070D01*
X111905825Y-80772261D02*
X111905825Y-79772261D01*
X112286778Y-79772261D01*
X112382016Y-79819880D01*
X112429635Y-79867499D01*
X112477254Y-79962737D01*
X112477254Y-80105594D01*
X112429635Y-80200832D01*
X112382016Y-80248451D01*
X112286778Y-80296070D01*
X111905825Y-80296070D01*
X113382016Y-79772261D02*
X112905825Y-79772261D01*
X112858206Y-80248451D01*
X112905825Y-80200832D01*
X113001063Y-80153213D01*
X113239159Y-80153213D01*
X113334397Y-80200832D01*
X113382016Y-80248451D01*
X113429635Y-80343690D01*
X113429635Y-80581785D01*
X113382016Y-80677023D01*
X113334397Y-80724642D01*
X113239159Y-80772261D01*
X113001063Y-80772261D01*
X112905825Y-80724642D01*
X112858206Y-80677023D01*
X112477254Y-88392261D02*
X112143920Y-87916070D01*
X111905825Y-88392261D02*
X111905825Y-87392261D01*
X112286778Y-87392261D01*
X112382016Y-87439880D01*
X112429635Y-87487499D01*
X112477254Y-87582737D01*
X112477254Y-87725594D01*
X112429635Y-87820832D01*
X112382016Y-87868451D01*
X112286778Y-87916070D01*
X111905825Y-87916070D01*
X113334397Y-87392261D02*
X113143920Y-87392261D01*
X113048682Y-87439880D01*
X113001063Y-87487499D01*
X112905825Y-87630356D01*
X112858206Y-87820832D01*
X112858206Y-88201785D01*
X112905825Y-88297023D01*
X112953444Y-88344642D01*
X113048682Y-88392261D01*
X113239159Y-88392261D01*
X113334397Y-88344642D01*
X113382016Y-88297023D01*
X113429635Y-88201785D01*
X113429635Y-87963690D01*
X113382016Y-87868451D01*
X113334397Y-87820832D01*
X113239159Y-87773213D01*
X113048682Y-87773213D01*
X112953444Y-87820832D01*
X112905825Y-87868451D01*
X112858206Y-87963690D01*
X127717254Y-80772261D02*
X127383920Y-80296070D01*
X127145825Y-80772261D02*
X127145825Y-79772261D01*
X127526778Y-79772261D01*
X127622016Y-79819880D01*
X127669635Y-79867499D01*
X127717254Y-79962737D01*
X127717254Y-80105594D01*
X127669635Y-80200832D01*
X127622016Y-80248451D01*
X127526778Y-80296070D01*
X127145825Y-80296070D01*
X128050587Y-79772261D02*
X128717254Y-79772261D01*
X128288682Y-80772261D01*
X127717254Y-88392261D02*
X127383920Y-87916070D01*
X127145825Y-88392261D02*
X127145825Y-87392261D01*
X127526778Y-87392261D01*
X127622016Y-87439880D01*
X127669635Y-87487499D01*
X127717254Y-87582737D01*
X127717254Y-87725594D01*
X127669635Y-87820832D01*
X127622016Y-87868451D01*
X127526778Y-87916070D01*
X127145825Y-87916070D01*
X128288682Y-87820832D02*
X128193444Y-87773213D01*
X128145825Y-87725594D01*
X128098206Y-87630356D01*
X128098206Y-87582737D01*
X128145825Y-87487499D01*
X128193444Y-87439880D01*
X128288682Y-87392261D01*
X128479159Y-87392261D01*
X128574397Y-87439880D01*
X128622016Y-87487499D01*
X128669635Y-87582737D01*
X128669635Y-87630356D01*
X128622016Y-87725594D01*
X128574397Y-87773213D01*
X128479159Y-87820832D01*
X128288682Y-87820832D01*
X128193444Y-87868451D01*
X128145825Y-87916070D01*
X128098206Y-88011309D01*
X128098206Y-88201785D01*
X128145825Y-88297023D01*
X128193444Y-88344642D01*
X128288682Y-88392261D01*
X128479159Y-88392261D01*
X128574397Y-88344642D01*
X128622016Y-88297023D01*
X128669635Y-88201785D01*
X128669635Y-88011309D01*
X128622016Y-87916070D01*
X128574397Y-87868451D01*
X128479159Y-87820832D01*
X67600962Y-97038733D02*
X67648581Y-96895876D01*
X67648581Y-96657780D01*
X67600962Y-96562542D01*
X67553343Y-96514923D01*
X67458105Y-96467304D01*
X67362867Y-96467304D01*
X67267629Y-96514923D01*
X67220010Y-96562542D01*
X67172390Y-96657780D01*
X67124771Y-96848257D01*
X67077152Y-96943495D01*
X67029533Y-96991114D01*
X66934295Y-97038733D01*
X66839057Y-97038733D01*
X66743819Y-96991114D01*
X66696200Y-96943495D01*
X66648581Y-96848257D01*
X66648581Y-96610161D01*
X66696200Y-96467304D01*
X66648581Y-96133971D02*
X67648581Y-95895876D01*
X66934295Y-95705399D01*
X67648581Y-95514923D01*
X66648581Y-95276828D01*
X67648581Y-94372066D02*
X67648581Y-94943495D01*
X67648581Y-94657781D02*
X66648581Y-94657781D01*
X66791438Y-94753019D01*
X66886676Y-94848257D01*
X66934295Y-94943495D01*
X54900962Y-97038733D02*
X54948581Y-96895876D01*
X54948581Y-96657780D01*
X54900962Y-96562542D01*
X54853343Y-96514923D01*
X54758105Y-96467304D01*
X54662867Y-96467304D01*
X54567629Y-96514923D01*
X54520010Y-96562542D01*
X54472390Y-96657780D01*
X54424771Y-96848257D01*
X54377152Y-96943495D01*
X54329533Y-96991114D01*
X54234295Y-97038733D01*
X54139057Y-97038733D01*
X54043819Y-96991114D01*
X53996200Y-96943495D01*
X53948581Y-96848257D01*
X53948581Y-96610161D01*
X53996200Y-96467304D01*
X53948581Y-96133971D02*
X54948581Y-95895876D01*
X54234295Y-95705399D01*
X54948581Y-95514923D01*
X53948581Y-95276828D01*
X54043819Y-94943495D02*
X53996200Y-94895876D01*
X53948581Y-94800638D01*
X53948581Y-94562542D01*
X53996200Y-94467304D01*
X54043819Y-94419685D01*
X54139057Y-94372066D01*
X54234295Y-94372066D01*
X54377152Y-94419685D01*
X54948581Y-94991114D01*
X54948581Y-94372066D01*
X42200962Y-97038733D02*
X42248581Y-96895876D01*
X42248581Y-96657780D01*
X42200962Y-96562542D01*
X42153343Y-96514923D01*
X42058105Y-96467304D01*
X41962867Y-96467304D01*
X41867629Y-96514923D01*
X41820010Y-96562542D01*
X41772390Y-96657780D01*
X41724771Y-96848257D01*
X41677152Y-96943495D01*
X41629533Y-96991114D01*
X41534295Y-97038733D01*
X41439057Y-97038733D01*
X41343819Y-96991114D01*
X41296200Y-96943495D01*
X41248581Y-96848257D01*
X41248581Y-96610161D01*
X41296200Y-96467304D01*
X41248581Y-96133971D02*
X42248581Y-95895876D01*
X41534295Y-95705399D01*
X42248581Y-95514923D01*
X41248581Y-95276828D01*
X41248581Y-94991114D02*
X41248581Y-94372066D01*
X41629533Y-94705400D01*
X41629533Y-94562542D01*
X41677152Y-94467304D01*
X41724771Y-94419685D01*
X41820010Y-94372066D01*
X42058105Y-94372066D01*
X42153343Y-94419685D01*
X42200962Y-94467304D01*
X42248581Y-94562542D01*
X42248581Y-94848257D01*
X42200962Y-94943495D01*
X42153343Y-94991114D01*
X29500962Y-97038733D02*
X29548581Y-96895876D01*
X29548581Y-96657780D01*
X29500962Y-96562542D01*
X29453343Y-96514923D01*
X29358105Y-96467304D01*
X29262867Y-96467304D01*
X29167629Y-96514923D01*
X29120010Y-96562542D01*
X29072390Y-96657780D01*
X29024771Y-96848257D01*
X28977152Y-96943495D01*
X28929533Y-96991114D01*
X28834295Y-97038733D01*
X28739057Y-97038733D01*
X28643819Y-96991114D01*
X28596200Y-96943495D01*
X28548581Y-96848257D01*
X28548581Y-96610161D01*
X28596200Y-96467304D01*
X28548581Y-96133971D02*
X29548581Y-95895876D01*
X28834295Y-95705399D01*
X29548581Y-95514923D01*
X28548581Y-95276828D01*
X28881914Y-94467304D02*
X29548581Y-94467304D01*
X28500962Y-94705400D02*
X29215248Y-94943495D01*
X29215248Y-94324447D01*
D13*
X84603167Y-70273333D02*
X85322833Y-70273333D01*
X85407500Y-70231000D01*
X85449833Y-70188667D01*
X85492167Y-70104000D01*
X85492167Y-69934667D01*
X85449833Y-69850000D01*
X85407500Y-69807667D01*
X85322833Y-69765333D01*
X84603167Y-69765333D01*
X84687833Y-69384334D02*
X84645500Y-69342000D01*
X84603167Y-69257334D01*
X84603167Y-69045667D01*
X84645500Y-68961000D01*
X84687833Y-68918667D01*
X84772500Y-68876334D01*
X84857167Y-68876334D01*
X84984167Y-68918667D01*
X85492167Y-69426667D01*
X85492167Y-68876334D01*
D12*
D13*
X85492167Y-74654832D02*
X84603167Y-74654832D01*
X84603167Y-74316166D01*
X84645500Y-74231499D01*
X84687833Y-74189166D01*
X84772500Y-74146832D01*
X84899500Y-74146832D01*
X84984167Y-74189166D01*
X85026500Y-74231499D01*
X85068833Y-74316166D01*
X85068833Y-74654832D01*
X85492167Y-73765832D02*
X84899500Y-73765832D01*
X84603167Y-73765832D02*
X84645500Y-73808166D01*
X84687833Y-73765832D01*
X84645500Y-73723499D01*
X84603167Y-73765832D01*
X84687833Y-73765832D01*
X84687833Y-73384833D02*
X84645500Y-73342499D01*
X84603167Y-73257833D01*
X84603167Y-73046166D01*
X84645500Y-72961499D01*
X84687833Y-72919166D01*
X84772500Y-72876833D01*
X84857167Y-72876833D01*
X84984167Y-72919166D01*
X85492167Y-73427166D01*
X85492167Y-72876833D01*
X85576833Y-72707499D02*
X85576833Y-72030166D01*
X85407500Y-71310499D02*
X85449833Y-71352833D01*
X85492167Y-71479833D01*
X85492167Y-71564499D01*
X85449833Y-71691499D01*
X85365167Y-71776166D01*
X85280500Y-71818499D01*
X85111167Y-71860833D01*
X84984167Y-71860833D01*
X84814833Y-71818499D01*
X84730167Y-71776166D01*
X84645500Y-71691499D01*
X84603167Y-71564499D01*
X84603167Y-71479833D01*
X84645500Y-71352833D01*
X84687833Y-71310499D01*
X85492167Y-70802499D02*
X85449833Y-70887166D01*
X85407500Y-70929499D01*
X85322833Y-70971833D01*
X85068833Y-70971833D01*
X84984167Y-70929499D01*
X84941833Y-70887166D01*
X84899500Y-70802499D01*
X84899500Y-70675499D01*
X84941833Y-70590833D01*
X84984167Y-70548499D01*
X85068833Y-70506166D01*
X85322833Y-70506166D01*
X85407500Y-70548499D01*
X85449833Y-70590833D01*
X85492167Y-70675499D01*
X85492167Y-70802499D01*
X84899500Y-70125166D02*
X85492167Y-70125166D01*
X84984167Y-70125166D02*
X84941833Y-70082833D01*
X84899500Y-69998166D01*
X84899500Y-69871166D01*
X84941833Y-69786500D01*
X85026500Y-69744166D01*
X85492167Y-69744166D01*
X84899500Y-69320833D02*
X85492167Y-69320833D01*
X84984167Y-69320833D02*
X84941833Y-69278500D01*
X84899500Y-69193833D01*
X84899500Y-69066833D01*
X84941833Y-68982167D01*
X85026500Y-68939833D01*
X85492167Y-68939833D01*
X85449833Y-68177834D02*
X85492167Y-68262500D01*
X85492167Y-68431834D01*
X85449833Y-68516500D01*
X85365167Y-68558834D01*
X85026500Y-68558834D01*
X84941833Y-68516500D01*
X84899500Y-68431834D01*
X84899500Y-68262500D01*
X84941833Y-68177834D01*
X85026500Y-68135500D01*
X85111167Y-68135500D01*
X85195833Y-68558834D01*
X85449833Y-67373500D02*
X85492167Y-67458167D01*
X85492167Y-67627500D01*
X85449833Y-67712167D01*
X85407500Y-67754500D01*
X85322833Y-67796834D01*
X85068833Y-67796834D01*
X84984167Y-67754500D01*
X84941833Y-67712167D01*
X84899500Y-67627500D01*
X84899500Y-67458167D01*
X84941833Y-67373500D01*
X84899500Y-67119500D02*
X84899500Y-66780834D01*
X84603167Y-66992500D02*
X85365167Y-66992500D01*
X85449833Y-66950167D01*
X85492167Y-66865500D01*
X85492167Y-66780834D01*
X85492167Y-66357500D02*
X85449833Y-66442167D01*
X85407500Y-66484500D01*
X85322833Y-66526834D01*
X85068833Y-66526834D01*
X84984167Y-66484500D01*
X84941833Y-66442167D01*
X84899500Y-66357500D01*
X84899500Y-66230500D01*
X84941833Y-66145834D01*
X84984167Y-66103500D01*
X85068833Y-66061167D01*
X85322833Y-66061167D01*
X85407500Y-66103500D01*
X85449833Y-66145834D01*
X85492167Y-66230500D01*
X85492167Y-66357500D01*
X85492167Y-65680167D02*
X84899500Y-65680167D01*
X85068833Y-65680167D02*
X84984167Y-65637834D01*
X84941833Y-65595501D01*
X84899500Y-65510834D01*
X84899500Y-65426167D01*
D12*
M02*
