G04 #@! TF.FileFunction,Legend,Top*
%FSLAX46Y46*%
G04 Gerber Fmt 4.6, Leading zero omitted, Abs format (unit mm)*
G04 Created by KiCad (PCBNEW 4.0.2-stable) date Wednesday, 27 July 2016 'pmt' 16:31:02*
%MOMM*%
G01*
G04 APERTURE LIST*
%ADD10C,0.100000*%
%ADD11C,0.150000*%
%ADD12C,0.304800*%
%ADD13C,0.222250*%
G04 APERTURE END LIST*
D10*
D11*
X67130400Y-145241000D02*
X67130400Y-145241000D01*
X67130400Y-145241000D02*
X67130400Y-145241000D01*
X67130400Y-145241000D02*
X67130400Y-145241000D01*
X67130400Y-145241000D02*
X67130400Y-135716000D01*
X67130400Y-135716000D02*
X69670400Y-135716000D01*
X69670400Y-135716000D02*
X69670400Y-145241000D01*
X69670400Y-145241000D02*
X67130400Y-145241000D01*
X67765400Y-145241000D02*
X67765400Y-145241000D01*
X67765400Y-145241000D02*
X67765400Y-145876000D01*
X67765400Y-145876000D02*
X69035400Y-145876000D01*
X69035400Y-145876000D02*
X69035400Y-145241000D01*
X68400400Y-147146000D02*
X68400400Y-147146000D01*
X68400400Y-147146000D02*
X68400400Y-145876000D01*
X68400400Y-145876000D02*
X68400400Y-145876000D01*
X68400400Y-145876000D02*
X68400400Y-145876000D01*
X68400400Y-135716000D02*
X68400400Y-135716000D01*
X68400400Y-135716000D02*
X68400400Y-135716000D01*
X68400400Y-135716000D02*
X68400400Y-134446000D01*
X68400400Y-134446000D02*
X68400400Y-134446000D01*
X68400400Y-134446000D02*
X68400400Y-134446000D01*
X68400400Y-134446000D02*
X68400400Y-134446000D01*
X118400000Y-142660000D02*
X118400000Y-136660000D01*
X122900000Y-136660000D02*
X122900000Y-142660000D01*
X127000000Y-145241000D02*
X127000000Y-145241000D01*
X127000000Y-145241000D02*
X127000000Y-145241000D01*
X127000000Y-145241000D02*
X127000000Y-145241000D01*
X127000000Y-145241000D02*
X127000000Y-135716000D01*
X127000000Y-135716000D02*
X129540000Y-135716000D01*
X129540000Y-135716000D02*
X129540000Y-145241000D01*
X129540000Y-145241000D02*
X127000000Y-145241000D01*
X127635000Y-145241000D02*
X127635000Y-145241000D01*
X127635000Y-145241000D02*
X127635000Y-145876000D01*
X127635000Y-145876000D02*
X128905000Y-145876000D01*
X128905000Y-145876000D02*
X128905000Y-145241000D01*
X128270000Y-147146000D02*
X128270000Y-147146000D01*
X128270000Y-147146000D02*
X128270000Y-145876000D01*
X128270000Y-145876000D02*
X128270000Y-145876000D01*
X128270000Y-145876000D02*
X128270000Y-145876000D01*
X128270000Y-135716000D02*
X128270000Y-135716000D01*
X128270000Y-135716000D02*
X128270000Y-135716000D01*
X128270000Y-135716000D02*
X128270000Y-134446000D01*
X128270000Y-134446000D02*
X128270000Y-134446000D01*
X128270000Y-134446000D02*
X128270000Y-134446000D01*
X128270000Y-134446000D02*
X128270000Y-134446000D01*
X58530400Y-143930000D02*
X58530400Y-137930000D01*
X63030400Y-137930000D02*
X63030400Y-143930000D01*
X21399500Y-46299120D02*
X21399500Y-55300880D01*
X17899380Y-46299120D02*
X17899380Y-55300880D01*
X17899380Y-55300880D02*
X32400240Y-55300880D01*
X32400240Y-55300880D02*
X32400240Y-46299120D01*
X32400240Y-46299120D02*
X17899380Y-46299120D01*
X29900112Y-99314904D02*
G75*
G03X29885000Y-96290000I2484888J1524904D01*
G01*
X29885000Y-99290000D02*
X29885000Y-96290000D01*
X34902936Y-97790000D02*
G75*
G03X34902936Y-97790000I-2517936J0D01*
G01*
X42600112Y-99314904D02*
G75*
G03X42585000Y-96290000I2484888J1524904D01*
G01*
X42585000Y-99290000D02*
X42585000Y-96290000D01*
X47602936Y-97790000D02*
G75*
G03X47602936Y-97790000I-2517936J0D01*
G01*
X55300112Y-99314904D02*
G75*
G03X55285000Y-96290000I2484888J1524904D01*
G01*
X55285000Y-99290000D02*
X55285000Y-96290000D01*
X60302936Y-97790000D02*
G75*
G03X60302936Y-97790000I-2517936J0D01*
G01*
X68000112Y-99314904D02*
G75*
G03X67985000Y-96290000I2484888J1524904D01*
G01*
X67985000Y-99290000D02*
X67985000Y-96290000D01*
X73002936Y-97790000D02*
G75*
G03X73002936Y-97790000I-2517936J0D01*
G01*
X80700112Y-99314904D02*
G75*
G03X80685000Y-96290000I2484888J1524904D01*
G01*
X80685000Y-99290000D02*
X80685000Y-96290000D01*
X85702936Y-97790000D02*
G75*
G03X85702936Y-97790000I-2517936J0D01*
G01*
X93400112Y-99314904D02*
G75*
G03X93385000Y-96290000I2484888J1524904D01*
G01*
X93385000Y-99290000D02*
X93385000Y-96290000D01*
X98402936Y-97790000D02*
G75*
G03X98402936Y-97790000I-2517936J0D01*
G01*
X106100112Y-99314904D02*
G75*
G03X106085000Y-96290000I2484888J1524904D01*
G01*
X106085000Y-99290000D02*
X106085000Y-96290000D01*
X111102936Y-97790000D02*
G75*
G03X111102936Y-97790000I-2517936J0D01*
G01*
X118800112Y-99314904D02*
G75*
G03X118785000Y-96290000I2484888J1524904D01*
G01*
X118785000Y-99290000D02*
X118785000Y-96290000D01*
X123802936Y-97790000D02*
G75*
G03X123802936Y-97790000I-2517936J0D01*
G01*
X29900112Y-112014904D02*
G75*
G03X29885000Y-108990000I2484888J1524904D01*
G01*
X29885000Y-111990000D02*
X29885000Y-108990000D01*
X34902936Y-110490000D02*
G75*
G03X34902936Y-110490000I-2517936J0D01*
G01*
X42600112Y-112014904D02*
G75*
G03X42585000Y-108990000I2484888J1524904D01*
G01*
X42585000Y-111990000D02*
X42585000Y-108990000D01*
X47602936Y-110490000D02*
G75*
G03X47602936Y-110490000I-2517936J0D01*
G01*
X55300112Y-112014904D02*
G75*
G03X55285000Y-108990000I2484888J1524904D01*
G01*
X55285000Y-111990000D02*
X55285000Y-108990000D01*
X60302936Y-110490000D02*
G75*
G03X60302936Y-110490000I-2517936J0D01*
G01*
X68000112Y-112014904D02*
G75*
G03X67985000Y-108990000I2484888J1524904D01*
G01*
X67985000Y-111990000D02*
X67985000Y-108990000D01*
X73002936Y-110490000D02*
G75*
G03X73002936Y-110490000I-2517936J0D01*
G01*
X93400112Y-112014904D02*
G75*
G03X93385000Y-108990000I2484888J1524904D01*
G01*
X93385000Y-111990000D02*
X93385000Y-108990000D01*
X98402936Y-110490000D02*
G75*
G03X98402936Y-110490000I-2517936J0D01*
G01*
X80700112Y-112014904D02*
G75*
G03X80685000Y-108990000I2484888J1524904D01*
G01*
X80685000Y-111990000D02*
X80685000Y-108990000D01*
X85702936Y-110490000D02*
G75*
G03X85702936Y-110490000I-2517936J0D01*
G01*
X106100112Y-112014904D02*
G75*
G03X106085000Y-108990000I2484888J1524904D01*
G01*
X106085000Y-111990000D02*
X106085000Y-108990000D01*
X111102936Y-110490000D02*
G75*
G03X111102936Y-110490000I-2517936J0D01*
G01*
X118800112Y-112014904D02*
G75*
G03X118785000Y-108990000I2484888J1524904D01*
G01*
X118785000Y-111990000D02*
X118785000Y-108990000D01*
X123802936Y-110490000D02*
G75*
G03X123802936Y-110490000I-2517936J0D01*
G01*
X99060000Y-149860000D02*
X104140000Y-149860000D01*
X104140000Y-149860000D02*
X104140000Y-152400000D01*
X104140000Y-152400000D02*
X99060000Y-152400000D01*
X99060000Y-152400000D02*
X99060000Y-149860000D01*
X99060000Y-151130000D02*
X97790000Y-151130000D01*
X104140000Y-151130000D02*
X105410000Y-151130000D01*
X36830000Y-149860000D02*
X41910000Y-149860000D01*
X41910000Y-149860000D02*
X41910000Y-152400000D01*
X41910000Y-152400000D02*
X36830000Y-152400000D01*
X36830000Y-152400000D02*
X36830000Y-149860000D01*
X36830000Y-151130000D02*
X35560000Y-151130000D01*
X41910000Y-151130000D02*
X43180000Y-151130000D01*
D12*
X41910000Y-55245000D02*
X76200000Y-55245000D01*
X76200000Y-55245000D02*
X76200000Y-46355000D01*
X76200000Y-46355000D02*
X41910000Y-46355000D01*
X41910000Y-46355000D02*
X41910000Y-55245000D01*
X88265000Y-55245000D02*
X137795000Y-55245000D01*
X137795000Y-55245000D02*
X137795000Y-46355000D01*
X137795000Y-46355000D02*
X88265000Y-46355000D01*
X88265000Y-46355000D02*
X88265000Y-55245000D01*
X112395000Y-136525000D02*
X83185000Y-136525000D01*
X83185000Y-136525000D02*
X83185000Y-145415000D01*
X83185000Y-145415000D02*
X112395000Y-145415000D01*
X112395000Y-145415000D02*
X112395000Y-136525000D01*
X52705000Y-136525000D02*
X23495000Y-136525000D01*
X23495000Y-136525000D02*
X23495000Y-145415000D01*
X23495000Y-145415000D02*
X52705000Y-145415000D01*
X52705000Y-145415000D02*
X52705000Y-136525000D01*
D11*
X100125000Y-81710000D02*
X100125000Y-78310000D01*
X100122056Y-81707056D02*
G75*
G02X96025000Y-80010000I-1697056J1697056D01*
G01*
X100122056Y-78312944D02*
G75*
G03X96025000Y-80010000I-1697056J-1697056D01*
G01*
X130605000Y-81710000D02*
X130605000Y-78310000D01*
X130602056Y-81707056D02*
G75*
G02X126505000Y-80010000I-1697056J1697056D01*
G01*
X130602056Y-78312944D02*
G75*
G03X126505000Y-80010000I-1697056J-1697056D01*
G01*
X115365000Y-81710000D02*
X115365000Y-78310000D01*
X115362056Y-81707056D02*
G75*
G02X111265000Y-80010000I-1697056J1697056D01*
G01*
X115362056Y-78312944D02*
G75*
G03X111265000Y-80010000I-1697056J-1697056D01*
G01*
X95885000Y-62230000D02*
X100965000Y-62230000D01*
X100965000Y-62230000D02*
X100965000Y-64770000D01*
X100965000Y-64770000D02*
X95885000Y-64770000D01*
X95885000Y-64770000D02*
X95885000Y-62230000D01*
X95885000Y-63500000D02*
X94615000Y-63500000D01*
X100965000Y-63500000D02*
X102235000Y-63500000D01*
X95885000Y-69850000D02*
X100965000Y-69850000D01*
X100965000Y-69850000D02*
X100965000Y-72390000D01*
X100965000Y-72390000D02*
X95885000Y-72390000D01*
X95885000Y-72390000D02*
X95885000Y-69850000D01*
X95885000Y-71120000D02*
X94615000Y-71120000D01*
X100965000Y-71120000D02*
X102235000Y-71120000D01*
X111125000Y-62230000D02*
X116205000Y-62230000D01*
X116205000Y-62230000D02*
X116205000Y-64770000D01*
X116205000Y-64770000D02*
X111125000Y-64770000D01*
X111125000Y-64770000D02*
X111125000Y-62230000D01*
X111125000Y-63500000D02*
X109855000Y-63500000D01*
X116205000Y-63500000D02*
X117475000Y-63500000D01*
X111125000Y-69850000D02*
X116205000Y-69850000D01*
X116205000Y-69850000D02*
X116205000Y-72390000D01*
X116205000Y-72390000D02*
X111125000Y-72390000D01*
X111125000Y-72390000D02*
X111125000Y-69850000D01*
X111125000Y-71120000D02*
X109855000Y-71120000D01*
X116205000Y-71120000D02*
X117475000Y-71120000D01*
X126365000Y-62230000D02*
X131445000Y-62230000D01*
X131445000Y-62230000D02*
X131445000Y-64770000D01*
X131445000Y-64770000D02*
X126365000Y-64770000D01*
X126365000Y-64770000D02*
X126365000Y-62230000D01*
X126365000Y-63500000D02*
X125095000Y-63500000D01*
X131445000Y-63500000D02*
X132715000Y-63500000D01*
X126365000Y-69850000D02*
X131445000Y-69850000D01*
X131445000Y-69850000D02*
X131445000Y-72390000D01*
X131445000Y-72390000D02*
X126365000Y-72390000D01*
X126365000Y-72390000D02*
X126365000Y-69850000D01*
X126365000Y-71120000D02*
X125095000Y-71120000D01*
X131445000Y-71120000D02*
X132715000Y-71120000D01*
X67577200Y-67765400D02*
X74435200Y-67765400D01*
X74435200Y-67765400D02*
X74435200Y-80465400D01*
X74435200Y-80465400D02*
X67577200Y-80465400D01*
X67577200Y-80465400D02*
X67577200Y-67765400D01*
X54877200Y-67765400D02*
X61735200Y-67765400D01*
X61735200Y-67765400D02*
X61735200Y-80465400D01*
X61735200Y-80465400D02*
X54877200Y-80465400D01*
X54877200Y-80465400D02*
X54877200Y-67765400D01*
X42177200Y-67765400D02*
X49035200Y-67765400D01*
X49035200Y-67765400D02*
X49035200Y-80465400D01*
X49035200Y-80465400D02*
X42177200Y-80465400D01*
X42177200Y-80465400D02*
X42177200Y-67765400D01*
X29477200Y-67765400D02*
X36335200Y-67765400D01*
X36335200Y-67765400D02*
X36335200Y-80465400D01*
X36335200Y-80465400D02*
X29477200Y-80465400D01*
X29477200Y-80465400D02*
X29477200Y-67765400D01*
X68757543Y-140962666D02*
X68805162Y-141010285D01*
X68852781Y-141153142D01*
X68852781Y-141248380D01*
X68805162Y-141391238D01*
X68709924Y-141486476D01*
X68614686Y-141534095D01*
X68424210Y-141581714D01*
X68281352Y-141581714D01*
X68090876Y-141534095D01*
X67995638Y-141486476D01*
X67900400Y-141391238D01*
X67852781Y-141248380D01*
X67852781Y-141153142D01*
X67900400Y-141010285D01*
X67948019Y-140962666D01*
X68852781Y-140010285D02*
X68852781Y-140581714D01*
X68852781Y-140296000D02*
X67852781Y-140296000D01*
X67995638Y-140391238D01*
X68090876Y-140486476D01*
X68138495Y-140581714D01*
X117507143Y-139826666D02*
X117554762Y-139874285D01*
X117602381Y-140017142D01*
X117602381Y-140112380D01*
X117554762Y-140255238D01*
X117459524Y-140350476D01*
X117364286Y-140398095D01*
X117173810Y-140445714D01*
X117030952Y-140445714D01*
X116840476Y-140398095D01*
X116745238Y-140350476D01*
X116650000Y-140255238D01*
X116602381Y-140112380D01*
X116602381Y-140017142D01*
X116650000Y-139874285D01*
X116697619Y-139826666D01*
X116697619Y-139445714D02*
X116650000Y-139398095D01*
X116602381Y-139302857D01*
X116602381Y-139064761D01*
X116650000Y-138969523D01*
X116697619Y-138921904D01*
X116792857Y-138874285D01*
X116888095Y-138874285D01*
X117030952Y-138921904D01*
X117602381Y-139493333D01*
X117602381Y-138874285D01*
X128627143Y-140962666D02*
X128674762Y-141010285D01*
X128722381Y-141153142D01*
X128722381Y-141248380D01*
X128674762Y-141391238D01*
X128579524Y-141486476D01*
X128484286Y-141534095D01*
X128293810Y-141581714D01*
X128150952Y-141581714D01*
X127960476Y-141534095D01*
X127865238Y-141486476D01*
X127770000Y-141391238D01*
X127722381Y-141248380D01*
X127722381Y-141153142D01*
X127770000Y-141010285D01*
X127817619Y-140962666D01*
X127722381Y-140629333D02*
X127722381Y-140010285D01*
X128103333Y-140343619D01*
X128103333Y-140200761D01*
X128150952Y-140105523D01*
X128198571Y-140057904D01*
X128293810Y-140010285D01*
X128531905Y-140010285D01*
X128627143Y-140057904D01*
X128674762Y-140105523D01*
X128722381Y-140200761D01*
X128722381Y-140486476D01*
X128674762Y-140581714D01*
X128627143Y-140629333D01*
X57637543Y-141096666D02*
X57685162Y-141144285D01*
X57732781Y-141287142D01*
X57732781Y-141382380D01*
X57685162Y-141525238D01*
X57589924Y-141620476D01*
X57494686Y-141668095D01*
X57304210Y-141715714D01*
X57161352Y-141715714D01*
X56970876Y-141668095D01*
X56875638Y-141620476D01*
X56780400Y-141525238D01*
X56732781Y-141382380D01*
X56732781Y-141287142D01*
X56780400Y-141144285D01*
X56828019Y-141096666D01*
X57066114Y-140239523D02*
X57732781Y-140239523D01*
X56685162Y-140477619D02*
X57399448Y-140715714D01*
X57399448Y-140096666D01*
X35856183Y-52014285D02*
X35903802Y-52061904D01*
X35951421Y-52204761D01*
X35951421Y-52299999D01*
X35903802Y-52442857D01*
X35808564Y-52538095D01*
X35713326Y-52585714D01*
X35522850Y-52633333D01*
X35379992Y-52633333D01*
X35189516Y-52585714D01*
X35094278Y-52538095D01*
X34999040Y-52442857D01*
X34951421Y-52299999D01*
X34951421Y-52204761D01*
X34999040Y-52061904D01*
X35046659Y-52014285D01*
X34951421Y-51395238D02*
X34951421Y-51204761D01*
X34999040Y-51109523D01*
X35094278Y-51014285D01*
X35284754Y-50966666D01*
X35618088Y-50966666D01*
X35808564Y-51014285D01*
X35903802Y-51109523D01*
X35951421Y-51204761D01*
X35951421Y-51395238D01*
X35903802Y-51490476D01*
X35808564Y-51585714D01*
X35618088Y-51633333D01*
X35284754Y-51633333D01*
X35094278Y-51585714D01*
X34999040Y-51490476D01*
X34951421Y-51395238D01*
X35951421Y-50538095D02*
X34951421Y-50538095D01*
X35951421Y-49966666D01*
X34951421Y-49966666D01*
X35951421Y-48966666D02*
X35951421Y-49538095D01*
X35951421Y-49252381D02*
X34951421Y-49252381D01*
X35094278Y-49347619D01*
X35189516Y-49442857D01*
X35237135Y-49538095D01*
X31900905Y-102306381D02*
X31900905Y-101306381D01*
X32139000Y-101306381D01*
X32281858Y-101354000D01*
X32377096Y-101449238D01*
X32424715Y-101544476D01*
X32472334Y-101734952D01*
X32472334Y-101877810D01*
X32424715Y-102068286D01*
X32377096Y-102163524D01*
X32281858Y-102258762D01*
X32139000Y-102306381D01*
X31900905Y-102306381D01*
X33424715Y-102306381D02*
X32853286Y-102306381D01*
X33139000Y-102306381D02*
X33139000Y-101306381D01*
X33043762Y-101449238D01*
X32948524Y-101544476D01*
X32853286Y-101592095D01*
X28948095Y-100147381D02*
X28948095Y-99147381D01*
X29519524Y-100147381D02*
X29090952Y-99575952D01*
X29519524Y-99147381D02*
X28948095Y-99718810D01*
X44600905Y-102306381D02*
X44600905Y-101306381D01*
X44839000Y-101306381D01*
X44981858Y-101354000D01*
X45077096Y-101449238D01*
X45124715Y-101544476D01*
X45172334Y-101734952D01*
X45172334Y-101877810D01*
X45124715Y-102068286D01*
X45077096Y-102163524D01*
X44981858Y-102258762D01*
X44839000Y-102306381D01*
X44600905Y-102306381D01*
X45553286Y-101401619D02*
X45600905Y-101354000D01*
X45696143Y-101306381D01*
X45934239Y-101306381D01*
X46029477Y-101354000D01*
X46077096Y-101401619D01*
X46124715Y-101496857D01*
X46124715Y-101592095D01*
X46077096Y-101734952D01*
X45505667Y-102306381D01*
X46124715Y-102306381D01*
X41648095Y-100147381D02*
X41648095Y-99147381D01*
X42219524Y-100147381D02*
X41790952Y-99575952D01*
X42219524Y-99147381D02*
X41648095Y-99718810D01*
X57300905Y-102306381D02*
X57300905Y-101306381D01*
X57539000Y-101306381D01*
X57681858Y-101354000D01*
X57777096Y-101449238D01*
X57824715Y-101544476D01*
X57872334Y-101734952D01*
X57872334Y-101877810D01*
X57824715Y-102068286D01*
X57777096Y-102163524D01*
X57681858Y-102258762D01*
X57539000Y-102306381D01*
X57300905Y-102306381D01*
X58205667Y-101306381D02*
X58824715Y-101306381D01*
X58491381Y-101687333D01*
X58634239Y-101687333D01*
X58729477Y-101734952D01*
X58777096Y-101782571D01*
X58824715Y-101877810D01*
X58824715Y-102115905D01*
X58777096Y-102211143D01*
X58729477Y-102258762D01*
X58634239Y-102306381D01*
X58348524Y-102306381D01*
X58253286Y-102258762D01*
X58205667Y-102211143D01*
X54348095Y-100147381D02*
X54348095Y-99147381D01*
X54919524Y-100147381D02*
X54490952Y-99575952D01*
X54919524Y-99147381D02*
X54348095Y-99718810D01*
X70000905Y-102306381D02*
X70000905Y-101306381D01*
X70239000Y-101306381D01*
X70381858Y-101354000D01*
X70477096Y-101449238D01*
X70524715Y-101544476D01*
X70572334Y-101734952D01*
X70572334Y-101877810D01*
X70524715Y-102068286D01*
X70477096Y-102163524D01*
X70381858Y-102258762D01*
X70239000Y-102306381D01*
X70000905Y-102306381D01*
X71429477Y-101639714D02*
X71429477Y-102306381D01*
X71191381Y-101258762D02*
X70953286Y-101973048D01*
X71572334Y-101973048D01*
X67048095Y-100147381D02*
X67048095Y-99147381D01*
X67619524Y-100147381D02*
X67190952Y-99575952D01*
X67619524Y-99147381D02*
X67048095Y-99718810D01*
X82700905Y-102306381D02*
X82700905Y-101306381D01*
X82939000Y-101306381D01*
X83081858Y-101354000D01*
X83177096Y-101449238D01*
X83224715Y-101544476D01*
X83272334Y-101734952D01*
X83272334Y-101877810D01*
X83224715Y-102068286D01*
X83177096Y-102163524D01*
X83081858Y-102258762D01*
X82939000Y-102306381D01*
X82700905Y-102306381D01*
X84177096Y-101306381D02*
X83700905Y-101306381D01*
X83653286Y-101782571D01*
X83700905Y-101734952D01*
X83796143Y-101687333D01*
X84034239Y-101687333D01*
X84129477Y-101734952D01*
X84177096Y-101782571D01*
X84224715Y-101877810D01*
X84224715Y-102115905D01*
X84177096Y-102211143D01*
X84129477Y-102258762D01*
X84034239Y-102306381D01*
X83796143Y-102306381D01*
X83700905Y-102258762D01*
X83653286Y-102211143D01*
X79748095Y-100147381D02*
X79748095Y-99147381D01*
X80319524Y-100147381D02*
X79890952Y-99575952D01*
X80319524Y-99147381D02*
X79748095Y-99718810D01*
X95400905Y-102306381D02*
X95400905Y-101306381D01*
X95639000Y-101306381D01*
X95781858Y-101354000D01*
X95877096Y-101449238D01*
X95924715Y-101544476D01*
X95972334Y-101734952D01*
X95972334Y-101877810D01*
X95924715Y-102068286D01*
X95877096Y-102163524D01*
X95781858Y-102258762D01*
X95639000Y-102306381D01*
X95400905Y-102306381D01*
X96829477Y-101306381D02*
X96639000Y-101306381D01*
X96543762Y-101354000D01*
X96496143Y-101401619D01*
X96400905Y-101544476D01*
X96353286Y-101734952D01*
X96353286Y-102115905D01*
X96400905Y-102211143D01*
X96448524Y-102258762D01*
X96543762Y-102306381D01*
X96734239Y-102306381D01*
X96829477Y-102258762D01*
X96877096Y-102211143D01*
X96924715Y-102115905D01*
X96924715Y-101877810D01*
X96877096Y-101782571D01*
X96829477Y-101734952D01*
X96734239Y-101687333D01*
X96543762Y-101687333D01*
X96448524Y-101734952D01*
X96400905Y-101782571D01*
X96353286Y-101877810D01*
X92448095Y-100147381D02*
X92448095Y-99147381D01*
X93019524Y-100147381D02*
X92590952Y-99575952D01*
X93019524Y-99147381D02*
X92448095Y-99718810D01*
X108100905Y-102306381D02*
X108100905Y-101306381D01*
X108339000Y-101306381D01*
X108481858Y-101354000D01*
X108577096Y-101449238D01*
X108624715Y-101544476D01*
X108672334Y-101734952D01*
X108672334Y-101877810D01*
X108624715Y-102068286D01*
X108577096Y-102163524D01*
X108481858Y-102258762D01*
X108339000Y-102306381D01*
X108100905Y-102306381D01*
X109005667Y-101306381D02*
X109672334Y-101306381D01*
X109243762Y-102306381D01*
X105148095Y-100147381D02*
X105148095Y-99147381D01*
X105719524Y-100147381D02*
X105290952Y-99575952D01*
X105719524Y-99147381D02*
X105148095Y-99718810D01*
X120800905Y-102306381D02*
X120800905Y-101306381D01*
X121039000Y-101306381D01*
X121181858Y-101354000D01*
X121277096Y-101449238D01*
X121324715Y-101544476D01*
X121372334Y-101734952D01*
X121372334Y-101877810D01*
X121324715Y-102068286D01*
X121277096Y-102163524D01*
X121181858Y-102258762D01*
X121039000Y-102306381D01*
X120800905Y-102306381D01*
X121943762Y-101734952D02*
X121848524Y-101687333D01*
X121800905Y-101639714D01*
X121753286Y-101544476D01*
X121753286Y-101496857D01*
X121800905Y-101401619D01*
X121848524Y-101354000D01*
X121943762Y-101306381D01*
X122134239Y-101306381D01*
X122229477Y-101354000D01*
X122277096Y-101401619D01*
X122324715Y-101496857D01*
X122324715Y-101544476D01*
X122277096Y-101639714D01*
X122229477Y-101687333D01*
X122134239Y-101734952D01*
X121943762Y-101734952D01*
X121848524Y-101782571D01*
X121800905Y-101830190D01*
X121753286Y-101925429D01*
X121753286Y-102115905D01*
X121800905Y-102211143D01*
X121848524Y-102258762D01*
X121943762Y-102306381D01*
X122134239Y-102306381D01*
X122229477Y-102258762D01*
X122277096Y-102211143D01*
X122324715Y-102115905D01*
X122324715Y-101925429D01*
X122277096Y-101830190D01*
X122229477Y-101782571D01*
X122134239Y-101734952D01*
X117848095Y-100147381D02*
X117848095Y-99147381D01*
X118419524Y-100147381D02*
X117990952Y-99575952D01*
X118419524Y-99147381D02*
X117848095Y-99718810D01*
X31900905Y-115006381D02*
X31900905Y-114006381D01*
X32139000Y-114006381D01*
X32281858Y-114054000D01*
X32377096Y-114149238D01*
X32424715Y-114244476D01*
X32472334Y-114434952D01*
X32472334Y-114577810D01*
X32424715Y-114768286D01*
X32377096Y-114863524D01*
X32281858Y-114958762D01*
X32139000Y-115006381D01*
X31900905Y-115006381D01*
X32948524Y-115006381D02*
X33139000Y-115006381D01*
X33234239Y-114958762D01*
X33281858Y-114911143D01*
X33377096Y-114768286D01*
X33424715Y-114577810D01*
X33424715Y-114196857D01*
X33377096Y-114101619D01*
X33329477Y-114054000D01*
X33234239Y-114006381D01*
X33043762Y-114006381D01*
X32948524Y-114054000D01*
X32900905Y-114101619D01*
X32853286Y-114196857D01*
X32853286Y-114434952D01*
X32900905Y-114530190D01*
X32948524Y-114577810D01*
X33043762Y-114625429D01*
X33234239Y-114625429D01*
X33329477Y-114577810D01*
X33377096Y-114530190D01*
X33424715Y-114434952D01*
X28948095Y-112847381D02*
X28948095Y-111847381D01*
X29519524Y-112847381D02*
X29090952Y-112275952D01*
X29519524Y-111847381D02*
X28948095Y-112418810D01*
X44124714Y-115006381D02*
X44124714Y-114006381D01*
X44362809Y-114006381D01*
X44505667Y-114054000D01*
X44600905Y-114149238D01*
X44648524Y-114244476D01*
X44696143Y-114434952D01*
X44696143Y-114577810D01*
X44648524Y-114768286D01*
X44600905Y-114863524D01*
X44505667Y-114958762D01*
X44362809Y-115006381D01*
X44124714Y-115006381D01*
X45648524Y-115006381D02*
X45077095Y-115006381D01*
X45362809Y-115006381D02*
X45362809Y-114006381D01*
X45267571Y-114149238D01*
X45172333Y-114244476D01*
X45077095Y-114292095D01*
X46267571Y-114006381D02*
X46362810Y-114006381D01*
X46458048Y-114054000D01*
X46505667Y-114101619D01*
X46553286Y-114196857D01*
X46600905Y-114387333D01*
X46600905Y-114625429D01*
X46553286Y-114815905D01*
X46505667Y-114911143D01*
X46458048Y-114958762D01*
X46362810Y-115006381D01*
X46267571Y-115006381D01*
X46172333Y-114958762D01*
X46124714Y-114911143D01*
X46077095Y-114815905D01*
X46029476Y-114625429D01*
X46029476Y-114387333D01*
X46077095Y-114196857D01*
X46124714Y-114101619D01*
X46172333Y-114054000D01*
X46267571Y-114006381D01*
X41648095Y-112847381D02*
X41648095Y-111847381D01*
X42219524Y-112847381D02*
X41790952Y-112275952D01*
X42219524Y-111847381D02*
X41648095Y-112418810D01*
X56824714Y-115006381D02*
X56824714Y-114006381D01*
X57062809Y-114006381D01*
X57205667Y-114054000D01*
X57300905Y-114149238D01*
X57348524Y-114244476D01*
X57396143Y-114434952D01*
X57396143Y-114577810D01*
X57348524Y-114768286D01*
X57300905Y-114863524D01*
X57205667Y-114958762D01*
X57062809Y-115006381D01*
X56824714Y-115006381D01*
X58348524Y-115006381D02*
X57777095Y-115006381D01*
X58062809Y-115006381D02*
X58062809Y-114006381D01*
X57967571Y-114149238D01*
X57872333Y-114244476D01*
X57777095Y-114292095D01*
X59300905Y-115006381D02*
X58729476Y-115006381D01*
X59015190Y-115006381D02*
X59015190Y-114006381D01*
X58919952Y-114149238D01*
X58824714Y-114244476D01*
X58729476Y-114292095D01*
X54348095Y-112847381D02*
X54348095Y-111847381D01*
X54919524Y-112847381D02*
X54490952Y-112275952D01*
X54919524Y-111847381D02*
X54348095Y-112418810D01*
X69524714Y-115006381D02*
X69524714Y-114006381D01*
X69762809Y-114006381D01*
X69905667Y-114054000D01*
X70000905Y-114149238D01*
X70048524Y-114244476D01*
X70096143Y-114434952D01*
X70096143Y-114577810D01*
X70048524Y-114768286D01*
X70000905Y-114863524D01*
X69905667Y-114958762D01*
X69762809Y-115006381D01*
X69524714Y-115006381D01*
X71048524Y-115006381D02*
X70477095Y-115006381D01*
X70762809Y-115006381D02*
X70762809Y-114006381D01*
X70667571Y-114149238D01*
X70572333Y-114244476D01*
X70477095Y-114292095D01*
X71429476Y-114101619D02*
X71477095Y-114054000D01*
X71572333Y-114006381D01*
X71810429Y-114006381D01*
X71905667Y-114054000D01*
X71953286Y-114101619D01*
X72000905Y-114196857D01*
X72000905Y-114292095D01*
X71953286Y-114434952D01*
X71381857Y-115006381D01*
X72000905Y-115006381D01*
X67048095Y-112847381D02*
X67048095Y-111847381D01*
X67619524Y-112847381D02*
X67190952Y-112275952D01*
X67619524Y-111847381D02*
X67048095Y-112418810D01*
X94924714Y-115006381D02*
X94924714Y-114006381D01*
X95162809Y-114006381D01*
X95305667Y-114054000D01*
X95400905Y-114149238D01*
X95448524Y-114244476D01*
X95496143Y-114434952D01*
X95496143Y-114577810D01*
X95448524Y-114768286D01*
X95400905Y-114863524D01*
X95305667Y-114958762D01*
X95162809Y-115006381D01*
X94924714Y-115006381D01*
X96448524Y-115006381D02*
X95877095Y-115006381D01*
X96162809Y-115006381D02*
X96162809Y-114006381D01*
X96067571Y-114149238D01*
X95972333Y-114244476D01*
X95877095Y-114292095D01*
X96781857Y-114006381D02*
X97400905Y-114006381D01*
X97067571Y-114387333D01*
X97210429Y-114387333D01*
X97305667Y-114434952D01*
X97353286Y-114482571D01*
X97400905Y-114577810D01*
X97400905Y-114815905D01*
X97353286Y-114911143D01*
X97305667Y-114958762D01*
X97210429Y-115006381D01*
X96924714Y-115006381D01*
X96829476Y-114958762D01*
X96781857Y-114911143D01*
X92448095Y-112847381D02*
X92448095Y-111847381D01*
X93019524Y-112847381D02*
X92590952Y-112275952D01*
X93019524Y-111847381D02*
X92448095Y-112418810D01*
X82224714Y-115006381D02*
X82224714Y-114006381D01*
X82462809Y-114006381D01*
X82605667Y-114054000D01*
X82700905Y-114149238D01*
X82748524Y-114244476D01*
X82796143Y-114434952D01*
X82796143Y-114577810D01*
X82748524Y-114768286D01*
X82700905Y-114863524D01*
X82605667Y-114958762D01*
X82462809Y-115006381D01*
X82224714Y-115006381D01*
X83748524Y-115006381D02*
X83177095Y-115006381D01*
X83462809Y-115006381D02*
X83462809Y-114006381D01*
X83367571Y-114149238D01*
X83272333Y-114244476D01*
X83177095Y-114292095D01*
X84605667Y-114339714D02*
X84605667Y-115006381D01*
X84367571Y-113958762D02*
X84129476Y-114673048D01*
X84748524Y-114673048D01*
X79748095Y-112847381D02*
X79748095Y-111847381D01*
X80319524Y-112847381D02*
X79890952Y-112275952D01*
X80319524Y-111847381D02*
X79748095Y-112418810D01*
X107624714Y-115006381D02*
X107624714Y-114006381D01*
X107862809Y-114006381D01*
X108005667Y-114054000D01*
X108100905Y-114149238D01*
X108148524Y-114244476D01*
X108196143Y-114434952D01*
X108196143Y-114577810D01*
X108148524Y-114768286D01*
X108100905Y-114863524D01*
X108005667Y-114958762D01*
X107862809Y-115006381D01*
X107624714Y-115006381D01*
X109148524Y-115006381D02*
X108577095Y-115006381D01*
X108862809Y-115006381D02*
X108862809Y-114006381D01*
X108767571Y-114149238D01*
X108672333Y-114244476D01*
X108577095Y-114292095D01*
X110053286Y-114006381D02*
X109577095Y-114006381D01*
X109529476Y-114482571D01*
X109577095Y-114434952D01*
X109672333Y-114387333D01*
X109910429Y-114387333D01*
X110005667Y-114434952D01*
X110053286Y-114482571D01*
X110100905Y-114577810D01*
X110100905Y-114815905D01*
X110053286Y-114911143D01*
X110005667Y-114958762D01*
X109910429Y-115006381D01*
X109672333Y-115006381D01*
X109577095Y-114958762D01*
X109529476Y-114911143D01*
X105148095Y-112847381D02*
X105148095Y-111847381D01*
X105719524Y-112847381D02*
X105290952Y-112275952D01*
X105719524Y-111847381D02*
X105148095Y-112418810D01*
X120324714Y-115006381D02*
X120324714Y-114006381D01*
X120562809Y-114006381D01*
X120705667Y-114054000D01*
X120800905Y-114149238D01*
X120848524Y-114244476D01*
X120896143Y-114434952D01*
X120896143Y-114577810D01*
X120848524Y-114768286D01*
X120800905Y-114863524D01*
X120705667Y-114958762D01*
X120562809Y-115006381D01*
X120324714Y-115006381D01*
X121848524Y-115006381D02*
X121277095Y-115006381D01*
X121562809Y-115006381D02*
X121562809Y-114006381D01*
X121467571Y-114149238D01*
X121372333Y-114244476D01*
X121277095Y-114292095D01*
X122705667Y-114006381D02*
X122515190Y-114006381D01*
X122419952Y-114054000D01*
X122372333Y-114101619D01*
X122277095Y-114244476D01*
X122229476Y-114434952D01*
X122229476Y-114815905D01*
X122277095Y-114911143D01*
X122324714Y-114958762D01*
X122419952Y-115006381D01*
X122610429Y-115006381D01*
X122705667Y-114958762D01*
X122753286Y-114911143D01*
X122800905Y-114815905D01*
X122800905Y-114577810D01*
X122753286Y-114482571D01*
X122705667Y-114434952D01*
X122610429Y-114387333D01*
X122419952Y-114387333D01*
X122324714Y-114434952D01*
X122277095Y-114482571D01*
X122229476Y-114577810D01*
X117848095Y-112847381D02*
X117848095Y-111847381D01*
X118419524Y-112847381D02*
X117990952Y-112275952D01*
X118419524Y-111847381D02*
X117848095Y-112418810D01*
X101682254Y-148082261D02*
X101348920Y-147606070D01*
X101110825Y-148082261D02*
X101110825Y-147082261D01*
X101491778Y-147082261D01*
X101587016Y-147129880D01*
X101634635Y-147177499D01*
X101682254Y-147272737D01*
X101682254Y-147415594D01*
X101634635Y-147510832D01*
X101587016Y-147558451D01*
X101491778Y-147606070D01*
X101110825Y-147606070D01*
X102634635Y-148082261D02*
X102063206Y-148082261D01*
X102348920Y-148082261D02*
X102348920Y-147082261D01*
X102253682Y-147225118D01*
X102158444Y-147320356D01*
X102063206Y-147367975D01*
X39452254Y-148082261D02*
X39118920Y-147606070D01*
X38880825Y-148082261D02*
X38880825Y-147082261D01*
X39261778Y-147082261D01*
X39357016Y-147129880D01*
X39404635Y-147177499D01*
X39452254Y-147272737D01*
X39452254Y-147415594D01*
X39404635Y-147510832D01*
X39357016Y-147558451D01*
X39261778Y-147606070D01*
X38880825Y-147606070D01*
X39833206Y-147177499D02*
X39880825Y-147129880D01*
X39976063Y-147082261D01*
X40214159Y-147082261D01*
X40309397Y-147129880D01*
X40357016Y-147177499D01*
X40404635Y-147272737D01*
X40404635Y-147367975D01*
X40357016Y-147510832D01*
X39785587Y-148082261D01*
X40404635Y-148082261D01*
D13*
X42058167Y-55033333D02*
X42777833Y-55033333D01*
X42862500Y-54991000D01*
X42904833Y-54948667D01*
X42947167Y-54864000D01*
X42947167Y-54694667D01*
X42904833Y-54610000D01*
X42862500Y-54567667D01*
X42777833Y-54525333D01*
X42058167Y-54525333D01*
X42947167Y-53636334D02*
X42947167Y-54144334D01*
X42947167Y-53890334D02*
X42058167Y-53890334D01*
X42185167Y-53975000D01*
X42269833Y-54059667D01*
X42312167Y-54144334D01*
D12*
D13*
X42947167Y-58166000D02*
X42058167Y-58166000D01*
X42693167Y-57869667D01*
X42058167Y-57573334D01*
X42947167Y-57573334D01*
X42862500Y-56642000D02*
X42904833Y-56684334D01*
X42947167Y-56811334D01*
X42947167Y-56896000D01*
X42904833Y-57023000D01*
X42820167Y-57107667D01*
X42735500Y-57150000D01*
X42566167Y-57192334D01*
X42439167Y-57192334D01*
X42269833Y-57150000D01*
X42185167Y-57107667D01*
X42100500Y-57023000D01*
X42058167Y-56896000D01*
X42058167Y-56811334D01*
X42100500Y-56684334D01*
X42142833Y-56642000D01*
X42947167Y-56261000D02*
X42058167Y-56261000D01*
X42058167Y-55922334D01*
X42100500Y-55837667D01*
X42142833Y-55795334D01*
X42227500Y-55753000D01*
X42354500Y-55753000D01*
X42439167Y-55795334D01*
X42481500Y-55837667D01*
X42523833Y-55922334D01*
X42523833Y-56261000D01*
X42142833Y-55414334D02*
X42100500Y-55372000D01*
X42058167Y-55287334D01*
X42058167Y-55075667D01*
X42100500Y-54991000D01*
X42142833Y-54948667D01*
X42227500Y-54906334D01*
X42312167Y-54906334D01*
X42439167Y-54948667D01*
X42947167Y-55456667D01*
X42947167Y-54906334D01*
X42058167Y-54610000D02*
X42058167Y-54059667D01*
X42396833Y-54356000D01*
X42396833Y-54229000D01*
X42439167Y-54144333D01*
X42481500Y-54102000D01*
X42566167Y-54059667D01*
X42777833Y-54059667D01*
X42862500Y-54102000D01*
X42904833Y-54144333D01*
X42947167Y-54229000D01*
X42947167Y-54483000D01*
X42904833Y-54567667D01*
X42862500Y-54610000D01*
X42058167Y-53509333D02*
X42058167Y-53424666D01*
X42100500Y-53340000D01*
X42142833Y-53297666D01*
X42227500Y-53255333D01*
X42396833Y-53213000D01*
X42608500Y-53213000D01*
X42777833Y-53255333D01*
X42862500Y-53297666D01*
X42904833Y-53340000D01*
X42947167Y-53424666D01*
X42947167Y-53509333D01*
X42904833Y-53594000D01*
X42862500Y-53636333D01*
X42777833Y-53678666D01*
X42608500Y-53721000D01*
X42396833Y-53721000D01*
X42227500Y-53678666D01*
X42142833Y-53636333D01*
X42100500Y-53594000D01*
X42058167Y-53509333D01*
X42947167Y-52366333D02*
X42947167Y-52874333D01*
X42947167Y-52620333D02*
X42058167Y-52620333D01*
X42185167Y-52704999D01*
X42269833Y-52789666D01*
X42312167Y-52874333D01*
X42058167Y-52069999D02*
X42058167Y-51477332D01*
X42947167Y-51858332D01*
D12*
D13*
X88413167Y-55033333D02*
X89132833Y-55033333D01*
X89217500Y-54991000D01*
X89259833Y-54948667D01*
X89302167Y-54864000D01*
X89302167Y-54694667D01*
X89259833Y-54610000D01*
X89217500Y-54567667D01*
X89132833Y-54525333D01*
X88413167Y-54525333D01*
X88497833Y-54144334D02*
X88455500Y-54102000D01*
X88413167Y-54017334D01*
X88413167Y-53805667D01*
X88455500Y-53721000D01*
X88497833Y-53678667D01*
X88582500Y-53636334D01*
X88667167Y-53636334D01*
X88794167Y-53678667D01*
X89302167Y-54186667D01*
X89302167Y-53636334D01*
D12*
D13*
X89302167Y-59414832D02*
X88413167Y-59414832D01*
X88413167Y-59076166D01*
X88455500Y-58991499D01*
X88497833Y-58949166D01*
X88582500Y-58906832D01*
X88709500Y-58906832D01*
X88794167Y-58949166D01*
X88836500Y-58991499D01*
X88878833Y-59076166D01*
X88878833Y-59414832D01*
X89302167Y-58525832D02*
X88709500Y-58525832D01*
X88413167Y-58525832D02*
X88455500Y-58568166D01*
X88497833Y-58525832D01*
X88455500Y-58483499D01*
X88413167Y-58525832D01*
X88497833Y-58525832D01*
X88497833Y-58144833D02*
X88455500Y-58102499D01*
X88413167Y-58017833D01*
X88413167Y-57806166D01*
X88455500Y-57721499D01*
X88497833Y-57679166D01*
X88582500Y-57636833D01*
X88667167Y-57636833D01*
X88794167Y-57679166D01*
X89302167Y-58187166D01*
X89302167Y-57636833D01*
X89386833Y-57467499D02*
X89386833Y-56790166D01*
X89217500Y-56070499D02*
X89259833Y-56112833D01*
X89302167Y-56239833D01*
X89302167Y-56324499D01*
X89259833Y-56451499D01*
X89175167Y-56536166D01*
X89090500Y-56578499D01*
X88921167Y-56620833D01*
X88794167Y-56620833D01*
X88624833Y-56578499D01*
X88540167Y-56536166D01*
X88455500Y-56451499D01*
X88413167Y-56324499D01*
X88413167Y-56239833D01*
X88455500Y-56112833D01*
X88497833Y-56070499D01*
X89302167Y-55562499D02*
X89259833Y-55647166D01*
X89217500Y-55689499D01*
X89132833Y-55731833D01*
X88878833Y-55731833D01*
X88794167Y-55689499D01*
X88751833Y-55647166D01*
X88709500Y-55562499D01*
X88709500Y-55435499D01*
X88751833Y-55350833D01*
X88794167Y-55308499D01*
X88878833Y-55266166D01*
X89132833Y-55266166D01*
X89217500Y-55308499D01*
X89259833Y-55350833D01*
X89302167Y-55435499D01*
X89302167Y-55562499D01*
X88709500Y-54885166D02*
X89302167Y-54885166D01*
X88794167Y-54885166D02*
X88751833Y-54842833D01*
X88709500Y-54758166D01*
X88709500Y-54631166D01*
X88751833Y-54546500D01*
X88836500Y-54504166D01*
X89302167Y-54504166D01*
X88709500Y-54080833D02*
X89302167Y-54080833D01*
X88794167Y-54080833D02*
X88751833Y-54038500D01*
X88709500Y-53953833D01*
X88709500Y-53826833D01*
X88751833Y-53742167D01*
X88836500Y-53699833D01*
X89302167Y-53699833D01*
X89259833Y-52937834D02*
X89302167Y-53022500D01*
X89302167Y-53191834D01*
X89259833Y-53276500D01*
X89175167Y-53318834D01*
X88836500Y-53318834D01*
X88751833Y-53276500D01*
X88709500Y-53191834D01*
X88709500Y-53022500D01*
X88751833Y-52937834D01*
X88836500Y-52895500D01*
X88921167Y-52895500D01*
X89005833Y-53318834D01*
X89259833Y-52133500D02*
X89302167Y-52218167D01*
X89302167Y-52387500D01*
X89259833Y-52472167D01*
X89217500Y-52514500D01*
X89132833Y-52556834D01*
X88878833Y-52556834D01*
X88794167Y-52514500D01*
X88751833Y-52472167D01*
X88709500Y-52387500D01*
X88709500Y-52218167D01*
X88751833Y-52133500D01*
X88709500Y-51879500D02*
X88709500Y-51540834D01*
X88413167Y-51752500D02*
X89175167Y-51752500D01*
X89259833Y-51710167D01*
X89302167Y-51625500D01*
X89302167Y-51540834D01*
X89302167Y-51117500D02*
X89259833Y-51202167D01*
X89217500Y-51244500D01*
X89132833Y-51286834D01*
X88878833Y-51286834D01*
X88794167Y-51244500D01*
X88751833Y-51202167D01*
X88709500Y-51117500D01*
X88709500Y-50990500D01*
X88751833Y-50905834D01*
X88794167Y-50863500D01*
X88878833Y-50821167D01*
X89132833Y-50821167D01*
X89217500Y-50863500D01*
X89259833Y-50905834D01*
X89302167Y-50990500D01*
X89302167Y-51117500D01*
X89302167Y-50440167D02*
X88709500Y-50440167D01*
X88878833Y-50440167D02*
X88794167Y-50397834D01*
X88751833Y-50355501D01*
X88709500Y-50270834D01*
X88709500Y-50186167D01*
D12*
D13*
X111273167Y-138091333D02*
X111992833Y-138091333D01*
X112077500Y-138049000D01*
X112119833Y-138006667D01*
X112162167Y-137922000D01*
X112162167Y-137752667D01*
X112119833Y-137668000D01*
X112077500Y-137625667D01*
X111992833Y-137583333D01*
X111273167Y-137583333D01*
X111273167Y-137244667D02*
X111273167Y-136694334D01*
X111611833Y-136990667D01*
X111611833Y-136863667D01*
X111654167Y-136779000D01*
X111696500Y-136736667D01*
X111781167Y-136694334D01*
X111992833Y-136694334D01*
X112077500Y-136736667D01*
X112119833Y-136779000D01*
X112162167Y-136863667D01*
X112162167Y-137117667D01*
X112119833Y-137202334D01*
X112077500Y-137244667D01*
D12*
D13*
X112162167Y-139700000D02*
X111273167Y-139700000D01*
X111908167Y-139403667D01*
X111273167Y-139107334D01*
X112162167Y-139107334D01*
X111908167Y-138726334D02*
X111908167Y-138303000D01*
X112162167Y-138811000D02*
X111273167Y-138514667D01*
X112162167Y-138218334D01*
X111273167Y-138006667D02*
X112162167Y-137414000D01*
X111273167Y-137414000D02*
X112162167Y-138006667D01*
X111273167Y-137160000D02*
X111273167Y-136567333D01*
X112162167Y-136948333D01*
X111357833Y-136271000D02*
X111315500Y-136228666D01*
X111273167Y-136144000D01*
X111273167Y-135932333D01*
X111315500Y-135847666D01*
X111357833Y-135805333D01*
X111442500Y-135763000D01*
X111527167Y-135763000D01*
X111654167Y-135805333D01*
X112162167Y-136313333D01*
X112162167Y-135763000D01*
X111357833Y-135424333D02*
X111315500Y-135381999D01*
X111273167Y-135297333D01*
X111273167Y-135085666D01*
X111315500Y-135000999D01*
X111357833Y-134958666D01*
X111442500Y-134916333D01*
X111527167Y-134916333D01*
X111654167Y-134958666D01*
X112162167Y-135466666D01*
X112162167Y-134916333D01*
X112162167Y-134069666D02*
X112162167Y-134577666D01*
X112162167Y-134323666D02*
X111273167Y-134323666D01*
X111400167Y-134408332D01*
X111484833Y-134492999D01*
X111527167Y-134577666D01*
D12*
D13*
X51583167Y-138091333D02*
X52302833Y-138091333D01*
X52387500Y-138049000D01*
X52429833Y-138006667D01*
X52472167Y-137922000D01*
X52472167Y-137752667D01*
X52429833Y-137668000D01*
X52387500Y-137625667D01*
X52302833Y-137583333D01*
X51583167Y-137583333D01*
X51879500Y-136779000D02*
X52472167Y-136779000D01*
X51540833Y-136990667D02*
X52175833Y-137202334D01*
X52175833Y-136652000D01*
D12*
D13*
X52472167Y-139700000D02*
X51583167Y-139700000D01*
X52218167Y-139403667D01*
X51583167Y-139107334D01*
X52472167Y-139107334D01*
X52218167Y-138726334D02*
X52218167Y-138303000D01*
X52472167Y-138811000D02*
X51583167Y-138514667D01*
X52472167Y-138218334D01*
X51583167Y-138006667D02*
X52472167Y-137414000D01*
X51583167Y-137414000D02*
X52472167Y-138006667D01*
X51583167Y-137160000D02*
X51583167Y-136567333D01*
X52472167Y-136948333D01*
X51667833Y-136271000D02*
X51625500Y-136228666D01*
X51583167Y-136144000D01*
X51583167Y-135932333D01*
X51625500Y-135847666D01*
X51667833Y-135805333D01*
X51752500Y-135763000D01*
X51837167Y-135763000D01*
X51964167Y-135805333D01*
X52472167Y-136313333D01*
X52472167Y-135763000D01*
X51667833Y-135424333D02*
X51625500Y-135381999D01*
X51583167Y-135297333D01*
X51583167Y-135085666D01*
X51625500Y-135000999D01*
X51667833Y-134958666D01*
X51752500Y-134916333D01*
X51837167Y-134916333D01*
X51964167Y-134958666D01*
X52472167Y-135466666D01*
X52472167Y-134916333D01*
X52472167Y-134069666D02*
X52472167Y-134577666D01*
X52472167Y-134323666D02*
X51583167Y-134323666D01*
X51710167Y-134408332D01*
X51794833Y-134492999D01*
X51837167Y-134577666D01*
D12*
D11*
X94972619Y-81375238D02*
X94925000Y-81470476D01*
X94829762Y-81565714D01*
X94686905Y-81708571D01*
X94639286Y-81803810D01*
X94639286Y-81899048D01*
X94877381Y-81851429D02*
X94829762Y-81946667D01*
X94734524Y-82041905D01*
X94544048Y-82089524D01*
X94210714Y-82089524D01*
X94020238Y-82041905D01*
X93925000Y-81946667D01*
X93877381Y-81851429D01*
X93877381Y-81660952D01*
X93925000Y-81565714D01*
X94020238Y-81470476D01*
X94210714Y-81422857D01*
X94544048Y-81422857D01*
X94734524Y-81470476D01*
X94829762Y-81565714D01*
X94877381Y-81660952D01*
X94877381Y-81851429D01*
X94877381Y-80470476D02*
X94877381Y-81041905D01*
X94877381Y-80756191D02*
X93877381Y-80756191D01*
X94020238Y-80851429D01*
X94115476Y-80946667D01*
X94163095Y-81041905D01*
X125452619Y-81375238D02*
X125405000Y-81470476D01*
X125309762Y-81565714D01*
X125166905Y-81708571D01*
X125119286Y-81803810D01*
X125119286Y-81899048D01*
X125357381Y-81851429D02*
X125309762Y-81946667D01*
X125214524Y-82041905D01*
X125024048Y-82089524D01*
X124690714Y-82089524D01*
X124500238Y-82041905D01*
X124405000Y-81946667D01*
X124357381Y-81851429D01*
X124357381Y-81660952D01*
X124405000Y-81565714D01*
X124500238Y-81470476D01*
X124690714Y-81422857D01*
X125024048Y-81422857D01*
X125214524Y-81470476D01*
X125309762Y-81565714D01*
X125357381Y-81660952D01*
X125357381Y-81851429D01*
X124452619Y-81041905D02*
X124405000Y-80994286D01*
X124357381Y-80899048D01*
X124357381Y-80660952D01*
X124405000Y-80565714D01*
X124452619Y-80518095D01*
X124547857Y-80470476D01*
X124643095Y-80470476D01*
X124785952Y-80518095D01*
X125357381Y-81089524D01*
X125357381Y-80470476D01*
X110212619Y-81375238D02*
X110165000Y-81470476D01*
X110069762Y-81565714D01*
X109926905Y-81708571D01*
X109879286Y-81803810D01*
X109879286Y-81899048D01*
X110117381Y-81851429D02*
X110069762Y-81946667D01*
X109974524Y-82041905D01*
X109784048Y-82089524D01*
X109450714Y-82089524D01*
X109260238Y-82041905D01*
X109165000Y-81946667D01*
X109117381Y-81851429D01*
X109117381Y-81660952D01*
X109165000Y-81565714D01*
X109260238Y-81470476D01*
X109450714Y-81422857D01*
X109784048Y-81422857D01*
X109974524Y-81470476D01*
X110069762Y-81565714D01*
X110117381Y-81660952D01*
X110117381Y-81851429D01*
X109117381Y-81089524D02*
X109117381Y-80470476D01*
X109498333Y-80803810D01*
X109498333Y-80660952D01*
X109545952Y-80565714D01*
X109593571Y-80518095D01*
X109688810Y-80470476D01*
X109926905Y-80470476D01*
X110022143Y-80518095D01*
X110069762Y-80565714D01*
X110117381Y-80660952D01*
X110117381Y-80946667D01*
X110069762Y-81041905D01*
X110022143Y-81089524D01*
X98507254Y-60452261D02*
X98173920Y-59976070D01*
X97935825Y-60452261D02*
X97935825Y-59452261D01*
X98316778Y-59452261D01*
X98412016Y-59499880D01*
X98459635Y-59547499D01*
X98507254Y-59642737D01*
X98507254Y-59785594D01*
X98459635Y-59880832D01*
X98412016Y-59928451D01*
X98316778Y-59976070D01*
X97935825Y-59976070D01*
X98840587Y-59452261D02*
X99459635Y-59452261D01*
X99126301Y-59833213D01*
X99269159Y-59833213D01*
X99364397Y-59880832D01*
X99412016Y-59928451D01*
X99459635Y-60023690D01*
X99459635Y-60261785D01*
X99412016Y-60357023D01*
X99364397Y-60404642D01*
X99269159Y-60452261D01*
X98983444Y-60452261D01*
X98888206Y-60404642D01*
X98840587Y-60357023D01*
X98507254Y-68072261D02*
X98173920Y-67596070D01*
X97935825Y-68072261D02*
X97935825Y-67072261D01*
X98316778Y-67072261D01*
X98412016Y-67119880D01*
X98459635Y-67167499D01*
X98507254Y-67262737D01*
X98507254Y-67405594D01*
X98459635Y-67500832D01*
X98412016Y-67548451D01*
X98316778Y-67596070D01*
X97935825Y-67596070D01*
X99364397Y-67405594D02*
X99364397Y-68072261D01*
X99126301Y-67024642D02*
X98888206Y-67738928D01*
X99507254Y-67738928D01*
X113747254Y-60452261D02*
X113413920Y-59976070D01*
X113175825Y-60452261D02*
X113175825Y-59452261D01*
X113556778Y-59452261D01*
X113652016Y-59499880D01*
X113699635Y-59547499D01*
X113747254Y-59642737D01*
X113747254Y-59785594D01*
X113699635Y-59880832D01*
X113652016Y-59928451D01*
X113556778Y-59976070D01*
X113175825Y-59976070D01*
X114652016Y-59452261D02*
X114175825Y-59452261D01*
X114128206Y-59928451D01*
X114175825Y-59880832D01*
X114271063Y-59833213D01*
X114509159Y-59833213D01*
X114604397Y-59880832D01*
X114652016Y-59928451D01*
X114699635Y-60023690D01*
X114699635Y-60261785D01*
X114652016Y-60357023D01*
X114604397Y-60404642D01*
X114509159Y-60452261D01*
X114271063Y-60452261D01*
X114175825Y-60404642D01*
X114128206Y-60357023D01*
X113747254Y-68072261D02*
X113413920Y-67596070D01*
X113175825Y-68072261D02*
X113175825Y-67072261D01*
X113556778Y-67072261D01*
X113652016Y-67119880D01*
X113699635Y-67167499D01*
X113747254Y-67262737D01*
X113747254Y-67405594D01*
X113699635Y-67500832D01*
X113652016Y-67548451D01*
X113556778Y-67596070D01*
X113175825Y-67596070D01*
X114604397Y-67072261D02*
X114413920Y-67072261D01*
X114318682Y-67119880D01*
X114271063Y-67167499D01*
X114175825Y-67310356D01*
X114128206Y-67500832D01*
X114128206Y-67881785D01*
X114175825Y-67977023D01*
X114223444Y-68024642D01*
X114318682Y-68072261D01*
X114509159Y-68072261D01*
X114604397Y-68024642D01*
X114652016Y-67977023D01*
X114699635Y-67881785D01*
X114699635Y-67643690D01*
X114652016Y-67548451D01*
X114604397Y-67500832D01*
X114509159Y-67453213D01*
X114318682Y-67453213D01*
X114223444Y-67500832D01*
X114175825Y-67548451D01*
X114128206Y-67643690D01*
X128987254Y-60452261D02*
X128653920Y-59976070D01*
X128415825Y-60452261D02*
X128415825Y-59452261D01*
X128796778Y-59452261D01*
X128892016Y-59499880D01*
X128939635Y-59547499D01*
X128987254Y-59642737D01*
X128987254Y-59785594D01*
X128939635Y-59880832D01*
X128892016Y-59928451D01*
X128796778Y-59976070D01*
X128415825Y-59976070D01*
X129320587Y-59452261D02*
X129987254Y-59452261D01*
X129558682Y-60452261D01*
X128987254Y-68072261D02*
X128653920Y-67596070D01*
X128415825Y-68072261D02*
X128415825Y-67072261D01*
X128796778Y-67072261D01*
X128892016Y-67119880D01*
X128939635Y-67167499D01*
X128987254Y-67262737D01*
X128987254Y-67405594D01*
X128939635Y-67500832D01*
X128892016Y-67548451D01*
X128796778Y-67596070D01*
X128415825Y-67596070D01*
X129558682Y-67500832D02*
X129463444Y-67453213D01*
X129415825Y-67405594D01*
X129368206Y-67310356D01*
X129368206Y-67262737D01*
X129415825Y-67167499D01*
X129463444Y-67119880D01*
X129558682Y-67072261D01*
X129749159Y-67072261D01*
X129844397Y-67119880D01*
X129892016Y-67167499D01*
X129939635Y-67262737D01*
X129939635Y-67310356D01*
X129892016Y-67405594D01*
X129844397Y-67453213D01*
X129749159Y-67500832D01*
X129558682Y-67500832D01*
X129463444Y-67548451D01*
X129415825Y-67596070D01*
X129368206Y-67691309D01*
X129368206Y-67881785D01*
X129415825Y-67977023D01*
X129463444Y-68024642D01*
X129558682Y-68072261D01*
X129749159Y-68072261D01*
X129844397Y-68024642D01*
X129892016Y-67977023D01*
X129939635Y-67881785D01*
X129939635Y-67691309D01*
X129892016Y-67596070D01*
X129844397Y-67548451D01*
X129749159Y-67500832D01*
X73950962Y-75448733D02*
X73998581Y-75305876D01*
X73998581Y-75067780D01*
X73950962Y-74972542D01*
X73903343Y-74924923D01*
X73808105Y-74877304D01*
X73712867Y-74877304D01*
X73617629Y-74924923D01*
X73570010Y-74972542D01*
X73522390Y-75067780D01*
X73474771Y-75258257D01*
X73427152Y-75353495D01*
X73379533Y-75401114D01*
X73284295Y-75448733D01*
X73189057Y-75448733D01*
X73093819Y-75401114D01*
X73046200Y-75353495D01*
X72998581Y-75258257D01*
X72998581Y-75020161D01*
X73046200Y-74877304D01*
X72998581Y-74543971D02*
X73998581Y-74305876D01*
X73284295Y-74115399D01*
X73998581Y-73924923D01*
X72998581Y-73686828D01*
X73998581Y-72782066D02*
X73998581Y-73353495D01*
X73998581Y-73067781D02*
X72998581Y-73067781D01*
X73141438Y-73163019D01*
X73236676Y-73258257D01*
X73284295Y-73353495D01*
X61250962Y-75448733D02*
X61298581Y-75305876D01*
X61298581Y-75067780D01*
X61250962Y-74972542D01*
X61203343Y-74924923D01*
X61108105Y-74877304D01*
X61012867Y-74877304D01*
X60917629Y-74924923D01*
X60870010Y-74972542D01*
X60822390Y-75067780D01*
X60774771Y-75258257D01*
X60727152Y-75353495D01*
X60679533Y-75401114D01*
X60584295Y-75448733D01*
X60489057Y-75448733D01*
X60393819Y-75401114D01*
X60346200Y-75353495D01*
X60298581Y-75258257D01*
X60298581Y-75020161D01*
X60346200Y-74877304D01*
X60298581Y-74543971D02*
X61298581Y-74305876D01*
X60584295Y-74115399D01*
X61298581Y-73924923D01*
X60298581Y-73686828D01*
X60393819Y-73353495D02*
X60346200Y-73305876D01*
X60298581Y-73210638D01*
X60298581Y-72972542D01*
X60346200Y-72877304D01*
X60393819Y-72829685D01*
X60489057Y-72782066D01*
X60584295Y-72782066D01*
X60727152Y-72829685D01*
X61298581Y-73401114D01*
X61298581Y-72782066D01*
X48550962Y-75448733D02*
X48598581Y-75305876D01*
X48598581Y-75067780D01*
X48550962Y-74972542D01*
X48503343Y-74924923D01*
X48408105Y-74877304D01*
X48312867Y-74877304D01*
X48217629Y-74924923D01*
X48170010Y-74972542D01*
X48122390Y-75067780D01*
X48074771Y-75258257D01*
X48027152Y-75353495D01*
X47979533Y-75401114D01*
X47884295Y-75448733D01*
X47789057Y-75448733D01*
X47693819Y-75401114D01*
X47646200Y-75353495D01*
X47598581Y-75258257D01*
X47598581Y-75020161D01*
X47646200Y-74877304D01*
X47598581Y-74543971D02*
X48598581Y-74305876D01*
X47884295Y-74115399D01*
X48598581Y-73924923D01*
X47598581Y-73686828D01*
X47598581Y-73401114D02*
X47598581Y-72782066D01*
X47979533Y-73115400D01*
X47979533Y-72972542D01*
X48027152Y-72877304D01*
X48074771Y-72829685D01*
X48170010Y-72782066D01*
X48408105Y-72782066D01*
X48503343Y-72829685D01*
X48550962Y-72877304D01*
X48598581Y-72972542D01*
X48598581Y-73258257D01*
X48550962Y-73353495D01*
X48503343Y-73401114D01*
X35850962Y-75448733D02*
X35898581Y-75305876D01*
X35898581Y-75067780D01*
X35850962Y-74972542D01*
X35803343Y-74924923D01*
X35708105Y-74877304D01*
X35612867Y-74877304D01*
X35517629Y-74924923D01*
X35470010Y-74972542D01*
X35422390Y-75067780D01*
X35374771Y-75258257D01*
X35327152Y-75353495D01*
X35279533Y-75401114D01*
X35184295Y-75448733D01*
X35089057Y-75448733D01*
X34993819Y-75401114D01*
X34946200Y-75353495D01*
X34898581Y-75258257D01*
X34898581Y-75020161D01*
X34946200Y-74877304D01*
X34898581Y-74543971D02*
X35898581Y-74305876D01*
X35184295Y-74115399D01*
X35898581Y-73924923D01*
X34898581Y-73686828D01*
X35231914Y-72877304D02*
X35898581Y-72877304D01*
X34850962Y-73115400D02*
X35565248Y-73353495D01*
X35565248Y-72734447D01*
M02*
