M48
;DRILL file {KiCad 4.0.2-stable} date Wednesday, 27 July 2016 'pmt' 16:31:09
;FORMAT={-:-/ absolute / inch / decimal}
FMAT,2
INCH,TZ
T1C0.024
T2C0.030
T3C0.032
T4C0.035
T5C0.039
T6C0.060
%
G90
G05
M72
T1
X3.4132Y-4.3342
X3.598Y-4.2222
X3.717Y-5.8702
X3.7847Y-4.5142
X3.825Y-3.15
X3.875Y-3.1
X3.875Y-3.2
X4.425Y-3.15
X4.475Y-3.1
X4.475Y-3.2
X4.5501Y-5.4138
X5.025Y-3.15
X5.075Y-3.1
X5.075Y-3.2
T2
X0.95Y-5.4
X0.95Y-5.7
X1.05Y-5.4
X1.05Y-5.7
X1.15Y-5.4
X1.15Y-5.7
X1.25Y-5.4
X1.25Y-5.7
X1.35Y-5.4
X1.35Y-5.7
X1.45Y-5.4
X1.45Y-5.7
X1.55Y-5.4
X1.55Y-5.7
X1.65Y-5.4
X1.65Y-5.7
X1.675Y-1.85
X1.675Y-2.15
X1.75Y-5.4
X1.75Y-5.7
X1.775Y-1.85
X1.775Y-2.15
X1.85Y-5.4
X1.85Y-5.7
X1.875Y-1.85
X1.875Y-2.15
X1.95Y-5.4
X1.95Y-5.7
X1.975Y-1.85
X1.975Y-2.15
X2.05Y-5.4
X2.05Y-5.7
X2.075Y-1.85
X2.075Y-2.15
X2.175Y-1.85
X2.175Y-2.15
X2.275Y-1.85
X2.275Y-2.15
X2.375Y-1.85
X2.375Y-2.15
X2.475Y-1.85
X2.475Y-2.15
X2.575Y-1.85
X2.575Y-2.15
X2.675Y-1.85
X2.675Y-2.15
X2.775Y-1.85
X2.775Y-2.15
X2.875Y-1.85
X2.875Y-2.15
X2.975Y-1.85
X2.975Y-2.15
X3.3Y-5.4
X3.3Y-5.7
X3.4Y-5.4
X3.4Y-5.7
X3.5Y-1.85
X3.5Y-2.15
X3.5Y-5.4
X3.5Y-5.7
X3.6Y-1.85
X3.6Y-2.15
X3.6Y-5.4
X3.6Y-5.7
X3.7Y-1.85
X3.7Y-2.15
X3.7Y-5.4
X3.7Y-5.7
X3.8Y-1.85
X3.8Y-2.15
X3.8Y-5.4
X3.8Y-5.7
X3.9Y-1.85
X3.9Y-2.15
X3.9Y-5.4
X3.9Y-5.7
X4.Y-1.85
X4.Y-2.15
X4.Y-5.4
X4.Y-5.7
X4.1Y-1.85
X4.1Y-2.15
X4.1Y-5.4
X4.1Y-5.7
X4.2Y-1.85
X4.2Y-2.15
X4.2Y-5.4
X4.2Y-5.7
X4.3Y-1.85
X4.3Y-2.15
X4.3Y-5.4
X4.3Y-5.7
X4.4Y-1.85
X4.4Y-2.15
X4.4Y-5.4
X4.4Y-5.7
X4.5Y-1.85
X4.5Y-2.15
X4.6Y-1.85
X4.6Y-2.15
X4.7Y-1.85
X4.7Y-2.15
X4.8Y-1.85
X4.8Y-2.15
X4.9Y-1.85
X4.9Y-2.15
X5.Y-1.85
X5.Y-2.15
X5.1Y-1.85
X5.1Y-2.15
X5.2Y-1.85
X5.2Y-2.15
X5.3Y-1.85
X5.3Y-2.15
X5.4Y-1.85
X5.4Y-2.15
T3
X2.6929Y-5.2931
X2.6929Y-5.7931
X5.05Y-5.2931
X5.05Y-5.7931
T4
X2.3929Y-5.45
X2.3929Y-5.6469
X4.75Y-5.4
X4.75Y-5.5969
T5
X1.225Y-3.85
X1.225Y-4.35
X1.325Y-3.85
X1.325Y-4.35
X1.35Y-5.95
X1.725Y-3.85
X1.725Y-4.35
X1.75Y-5.95
X1.825Y-3.85
X1.825Y-4.35
X2.225Y-3.85
X2.225Y-4.35
X2.325Y-3.85
X2.325Y-4.35
X2.725Y-3.85
X2.725Y-4.35
X2.825Y-3.85
X2.825Y-4.35
X3.225Y-3.85
X3.225Y-4.35
X3.325Y-3.85
X3.325Y-4.35
X3.675Y-2.5
X3.675Y-2.8
X3.725Y-3.85
X3.725Y-4.35
X3.8Y-5.95
X3.825Y-3.85
X3.825Y-4.35
X4.075Y-2.5
X4.075Y-2.8
X4.2Y-5.95
X4.225Y-3.85
X4.225Y-4.35
X4.275Y-2.5
X4.275Y-2.8
X4.325Y-3.85
X4.325Y-4.35
X4.675Y-2.5
X4.675Y-2.8
X4.725Y-3.85
X4.725Y-4.35
X4.825Y-3.85
X4.825Y-4.35
X4.875Y-2.5
X4.875Y-2.8
X5.275Y-2.5
X5.275Y-2.8
T6
X1.2955Y-2.7329
X1.2955Y-2.9179
X1.2955Y-3.1029
X1.7955Y-2.7329
X1.7955Y-2.9179
X1.7955Y-3.1029
X2.2955Y-2.7329
X2.2955Y-2.9179
X2.2955Y-3.1029
X2.7955Y-2.7329
X2.7955Y-2.9179
X2.7955Y-3.1029
T5
X1.0079Y-1.9607G85X1.0079Y-2.0393
G05
X1.0866Y-2.185G85X1.1653Y-2.185
G05
X1.2441Y-1.9607G85X1.2441Y-2.0393
G05
T0
M30
