G04 #@! TF.FileFunction,Legend,Top*
%FSLAX46Y46*%
G04 Gerber Fmt 4.6, Leading zero omitted, Abs format (unit mm)*
G04 Created by KiCad (PCBNEW 4.0.2-stable) date Friday, 12 August 2016 'pmt' 16:38:06*
%MOMM*%
G01*
G04 APERTURE LIST*
%ADD10C,0.100000*%
%ADD11C,0.150000*%
%ADD12C,0.304800*%
%ADD13C,0.222250*%
G04 APERTURE END LIST*
D10*
D11*
X215265000Y-92710000D02*
X220345000Y-92710000D01*
X220345000Y-92710000D02*
X220345000Y-90170000D01*
X220345000Y-90170000D02*
X215265000Y-90170000D01*
X212445000Y-89890000D02*
X213995000Y-89890000D01*
X215265000Y-90170000D02*
X215265000Y-92710000D01*
X213995000Y-92990000D02*
X212445000Y-92990000D01*
X212445000Y-92990000D02*
X212445000Y-89890000D01*
X215265000Y-97155000D02*
X220345000Y-97155000D01*
X220345000Y-97155000D02*
X220345000Y-94615000D01*
X220345000Y-94615000D02*
X215265000Y-94615000D01*
X212445000Y-94335000D02*
X213995000Y-94335000D01*
X215265000Y-94615000D02*
X215265000Y-97155000D01*
X213995000Y-97435000D02*
X212445000Y-97435000D01*
X212445000Y-97435000D02*
X212445000Y-94335000D01*
X215265000Y-88265000D02*
X220345000Y-88265000D01*
X220345000Y-88265000D02*
X220345000Y-85725000D01*
X220345000Y-85725000D02*
X215265000Y-85725000D01*
X212445000Y-85445000D02*
X213995000Y-85445000D01*
X215265000Y-85725000D02*
X215265000Y-88265000D01*
X213995000Y-88545000D02*
X212445000Y-88545000D01*
X212445000Y-88545000D02*
X212445000Y-85445000D01*
D12*
X173355000Y-95250000D02*
X207645000Y-95250000D01*
X207645000Y-95250000D02*
X207645000Y-86360000D01*
X207645000Y-86360000D02*
X173355000Y-86360000D01*
X173355000Y-86360000D02*
X173355000Y-95250000D01*
D11*
X143129000Y-83566000D02*
X136271000Y-83566000D01*
X136271000Y-83566000D02*
X136271000Y-70866000D01*
X136271000Y-70866000D02*
X143129000Y-70866000D01*
X143129000Y-70866000D02*
X143129000Y-83566000D01*
X168529000Y-83566000D02*
X161671000Y-83566000D01*
X161671000Y-83566000D02*
X161671000Y-70866000D01*
X161671000Y-70866000D02*
X168529000Y-70866000D01*
X168529000Y-70866000D02*
X168529000Y-83566000D01*
X181229000Y-83566000D02*
X174371000Y-83566000D01*
X174371000Y-83566000D02*
X174371000Y-70866000D01*
X174371000Y-70866000D02*
X181229000Y-70866000D01*
X181229000Y-70866000D02*
X181229000Y-83566000D01*
X193929000Y-83566000D02*
X187071000Y-83566000D01*
X187071000Y-83566000D02*
X187071000Y-70866000D01*
X187071000Y-70866000D02*
X193929000Y-70866000D01*
X193929000Y-70866000D02*
X193929000Y-83566000D01*
X206629000Y-83566000D02*
X199771000Y-83566000D01*
X199771000Y-83566000D02*
X199771000Y-70866000D01*
X199771000Y-70866000D02*
X206629000Y-70866000D01*
X206629000Y-70866000D02*
X206629000Y-83566000D01*
X219329000Y-83566000D02*
X212471000Y-83566000D01*
X212471000Y-83566000D02*
X212471000Y-70866000D01*
X212471000Y-70866000D02*
X219329000Y-70866000D01*
X219329000Y-70866000D02*
X219329000Y-83566000D01*
X232029000Y-83566000D02*
X225171000Y-83566000D01*
X225171000Y-83566000D02*
X225171000Y-70866000D01*
X225171000Y-70866000D02*
X232029000Y-70866000D01*
X232029000Y-70866000D02*
X232029000Y-83566000D01*
X155829000Y-83566000D02*
X148971000Y-83566000D01*
X148971000Y-83566000D02*
X148971000Y-70866000D01*
X148971000Y-70866000D02*
X155829000Y-70866000D01*
X155829000Y-70866000D02*
X155829000Y-83566000D01*
X231420000Y-90140000D02*
X229870000Y-90140000D01*
X231420000Y-91440000D02*
X231420000Y-90140000D01*
X229997000Y-95631000D02*
X229997000Y-101473000D01*
X229997000Y-101473000D02*
X229743000Y-101473000D01*
X229743000Y-101473000D02*
X229743000Y-95631000D01*
X229743000Y-95631000D02*
X229870000Y-95631000D01*
X229870000Y-95631000D02*
X229870000Y-101473000D01*
X230124000Y-92964000D02*
X230124000Y-92583000D01*
X229616000Y-92964000D02*
X229616000Y-92583000D01*
X227584000Y-92964000D02*
X227584000Y-92583000D01*
X227076000Y-92964000D02*
X227076000Y-92583000D01*
X225044000Y-92964000D02*
X225044000Y-92583000D01*
X224536000Y-92964000D02*
X224536000Y-92583000D01*
X221996000Y-92964000D02*
X221996000Y-92583000D01*
X222504000Y-92964000D02*
X222504000Y-92583000D01*
X231140000Y-92964000D02*
X231140000Y-95504000D01*
X228600000Y-92964000D02*
X228600000Y-95504000D01*
X228600000Y-92964000D02*
X226060000Y-92964000D01*
X226060000Y-92964000D02*
X226060000Y-95504000D01*
X227584000Y-95504000D02*
X227584000Y-101600000D01*
X227584000Y-101600000D02*
X227076000Y-101600000D01*
X227076000Y-101600000D02*
X227076000Y-95504000D01*
X226060000Y-95504000D02*
X228600000Y-95504000D01*
X228600000Y-95504000D02*
X231140000Y-95504000D01*
X229616000Y-101600000D02*
X229616000Y-95504000D01*
X230124000Y-101600000D02*
X229616000Y-101600000D01*
X230124000Y-95504000D02*
X230124000Y-101600000D01*
X228600000Y-92964000D02*
X228600000Y-95504000D01*
X231140000Y-92964000D02*
X228600000Y-92964000D01*
X223520000Y-92964000D02*
X223520000Y-95504000D01*
X223520000Y-92964000D02*
X220980000Y-92964000D01*
X220980000Y-92964000D02*
X220980000Y-95504000D01*
X222504000Y-95504000D02*
X222504000Y-101600000D01*
X222504000Y-101600000D02*
X221996000Y-101600000D01*
X221996000Y-101600000D02*
X221996000Y-95504000D01*
X220980000Y-95504000D02*
X223520000Y-95504000D01*
X223520000Y-95504000D02*
X226060000Y-95504000D01*
X224536000Y-101600000D02*
X224536000Y-95504000D01*
X225044000Y-101600000D02*
X224536000Y-101600000D01*
X225044000Y-95504000D02*
X225044000Y-101600000D01*
X223520000Y-92964000D02*
X223520000Y-95504000D01*
X226060000Y-92964000D02*
X223520000Y-92964000D01*
X226060000Y-92964000D02*
X226060000Y-95504000D01*
X209347381Y-92178095D02*
X208347381Y-92178095D01*
X208347381Y-91797142D01*
X208395000Y-91701904D01*
X208442619Y-91654285D01*
X208537857Y-91606666D01*
X208680714Y-91606666D01*
X208775952Y-91654285D01*
X208823571Y-91701904D01*
X208871190Y-91797142D01*
X208871190Y-92178095D01*
X208680714Y-90749523D02*
X209347381Y-90749523D01*
X208299762Y-90987619D02*
X209014048Y-91225714D01*
X209014048Y-90606666D01*
X209347381Y-96623095D02*
X208347381Y-96623095D01*
X208347381Y-96242142D01*
X208395000Y-96146904D01*
X208442619Y-96099285D01*
X208537857Y-96051666D01*
X208680714Y-96051666D01*
X208775952Y-96099285D01*
X208823571Y-96146904D01*
X208871190Y-96242142D01*
X208871190Y-96623095D01*
X208347381Y-95718333D02*
X208347381Y-95099285D01*
X208728333Y-95432619D01*
X208728333Y-95289761D01*
X208775952Y-95194523D01*
X208823571Y-95146904D01*
X208918810Y-95099285D01*
X209156905Y-95099285D01*
X209252143Y-95146904D01*
X209299762Y-95194523D01*
X209347381Y-95289761D01*
X209347381Y-95575476D01*
X209299762Y-95670714D01*
X209252143Y-95718333D01*
X209347381Y-87733095D02*
X208347381Y-87733095D01*
X208347381Y-87352142D01*
X208395000Y-87256904D01*
X208442619Y-87209285D01*
X208537857Y-87161666D01*
X208680714Y-87161666D01*
X208775952Y-87209285D01*
X208823571Y-87256904D01*
X208871190Y-87352142D01*
X208871190Y-87733095D01*
X208442619Y-86780714D02*
X208395000Y-86733095D01*
X208347381Y-86637857D01*
X208347381Y-86399761D01*
X208395000Y-86304523D01*
X208442619Y-86256904D01*
X208537857Y-86209285D01*
X208633095Y-86209285D01*
X208775952Y-86256904D01*
X209347381Y-86828333D01*
X209347381Y-86209285D01*
D13*
X173503167Y-95038333D02*
X174222833Y-95038333D01*
X174307500Y-94996000D01*
X174349833Y-94953667D01*
X174392167Y-94869000D01*
X174392167Y-94699667D01*
X174349833Y-94615000D01*
X174307500Y-94572667D01*
X174222833Y-94530333D01*
X173503167Y-94530333D01*
X174392167Y-93641334D02*
X174392167Y-94149334D01*
X174392167Y-93895334D02*
X173503167Y-93895334D01*
X173630167Y-93980000D01*
X173714833Y-94064667D01*
X173757167Y-94149334D01*
D12*
D13*
X174392167Y-98171000D02*
X173503167Y-98171000D01*
X174138167Y-97874667D01*
X173503167Y-97578334D01*
X174392167Y-97578334D01*
X174307500Y-96647000D02*
X174349833Y-96689334D01*
X174392167Y-96816334D01*
X174392167Y-96901000D01*
X174349833Y-97028000D01*
X174265167Y-97112667D01*
X174180500Y-97155000D01*
X174011167Y-97197334D01*
X173884167Y-97197334D01*
X173714833Y-97155000D01*
X173630167Y-97112667D01*
X173545500Y-97028000D01*
X173503167Y-96901000D01*
X173503167Y-96816334D01*
X173545500Y-96689334D01*
X173587833Y-96647000D01*
X174392167Y-96266000D02*
X173503167Y-96266000D01*
X173503167Y-95927334D01*
X173545500Y-95842667D01*
X173587833Y-95800334D01*
X173672500Y-95758000D01*
X173799500Y-95758000D01*
X173884167Y-95800334D01*
X173926500Y-95842667D01*
X173968833Y-95927334D01*
X173968833Y-96266000D01*
X173587833Y-95419334D02*
X173545500Y-95377000D01*
X173503167Y-95292334D01*
X173503167Y-95080667D01*
X173545500Y-94996000D01*
X173587833Y-94953667D01*
X173672500Y-94911334D01*
X173757167Y-94911334D01*
X173884167Y-94953667D01*
X174392167Y-95461667D01*
X174392167Y-94911334D01*
X173503167Y-94615000D02*
X173503167Y-94064667D01*
X173841833Y-94361000D01*
X173841833Y-94234000D01*
X173884167Y-94149333D01*
X173926500Y-94107000D01*
X174011167Y-94064667D01*
X174222833Y-94064667D01*
X174307500Y-94107000D01*
X174349833Y-94149333D01*
X174392167Y-94234000D01*
X174392167Y-94488000D01*
X174349833Y-94572667D01*
X174307500Y-94615000D01*
X173503167Y-93514333D02*
X173503167Y-93429666D01*
X173545500Y-93345000D01*
X173587833Y-93302666D01*
X173672500Y-93260333D01*
X173841833Y-93218000D01*
X174053500Y-93218000D01*
X174222833Y-93260333D01*
X174307500Y-93302666D01*
X174349833Y-93345000D01*
X174392167Y-93429666D01*
X174392167Y-93514333D01*
X174349833Y-93599000D01*
X174307500Y-93641333D01*
X174222833Y-93683666D01*
X174053500Y-93726000D01*
X173841833Y-93726000D01*
X173672500Y-93683666D01*
X173587833Y-93641333D01*
X173545500Y-93599000D01*
X173503167Y-93514333D01*
X174392167Y-92371333D02*
X174392167Y-92879333D01*
X174392167Y-92625333D02*
X173503167Y-92625333D01*
X173630167Y-92709999D01*
X173714833Y-92794666D01*
X173757167Y-92879333D01*
X173503167Y-92074999D02*
X173503167Y-91482332D01*
X174392167Y-91863332D01*
D12*
D11*
X137564762Y-78549333D02*
X137612381Y-78406476D01*
X137612381Y-78168380D01*
X137564762Y-78073142D01*
X137517143Y-78025523D01*
X137421905Y-77977904D01*
X137326667Y-77977904D01*
X137231429Y-78025523D01*
X137183810Y-78073142D01*
X137136190Y-78168380D01*
X137088571Y-78358857D01*
X137040952Y-78454095D01*
X136993333Y-78501714D01*
X136898095Y-78549333D01*
X136802857Y-78549333D01*
X136707619Y-78501714D01*
X136660000Y-78454095D01*
X136612381Y-78358857D01*
X136612381Y-78120761D01*
X136660000Y-77977904D01*
X136612381Y-77644571D02*
X137612381Y-77406476D01*
X136898095Y-77215999D01*
X137612381Y-77025523D01*
X136612381Y-76787428D01*
X137612381Y-75882666D02*
X137612381Y-76454095D01*
X137612381Y-76168381D02*
X136612381Y-76168381D01*
X136755238Y-76263619D01*
X136850476Y-76358857D01*
X136898095Y-76454095D01*
X162964762Y-78549333D02*
X163012381Y-78406476D01*
X163012381Y-78168380D01*
X162964762Y-78073142D01*
X162917143Y-78025523D01*
X162821905Y-77977904D01*
X162726667Y-77977904D01*
X162631429Y-78025523D01*
X162583810Y-78073142D01*
X162536190Y-78168380D01*
X162488571Y-78358857D01*
X162440952Y-78454095D01*
X162393333Y-78501714D01*
X162298095Y-78549333D01*
X162202857Y-78549333D01*
X162107619Y-78501714D01*
X162060000Y-78454095D01*
X162012381Y-78358857D01*
X162012381Y-78120761D01*
X162060000Y-77977904D01*
X162012381Y-77644571D02*
X163012381Y-77406476D01*
X162298095Y-77215999D01*
X163012381Y-77025523D01*
X162012381Y-76787428D01*
X162012381Y-76501714D02*
X162012381Y-75882666D01*
X162393333Y-76216000D01*
X162393333Y-76073142D01*
X162440952Y-75977904D01*
X162488571Y-75930285D01*
X162583810Y-75882666D01*
X162821905Y-75882666D01*
X162917143Y-75930285D01*
X162964762Y-75977904D01*
X163012381Y-76073142D01*
X163012381Y-76358857D01*
X162964762Y-76454095D01*
X162917143Y-76501714D01*
X175664762Y-78549333D02*
X175712381Y-78406476D01*
X175712381Y-78168380D01*
X175664762Y-78073142D01*
X175617143Y-78025523D01*
X175521905Y-77977904D01*
X175426667Y-77977904D01*
X175331429Y-78025523D01*
X175283810Y-78073142D01*
X175236190Y-78168380D01*
X175188571Y-78358857D01*
X175140952Y-78454095D01*
X175093333Y-78501714D01*
X174998095Y-78549333D01*
X174902857Y-78549333D01*
X174807619Y-78501714D01*
X174760000Y-78454095D01*
X174712381Y-78358857D01*
X174712381Y-78120761D01*
X174760000Y-77977904D01*
X174712381Y-77644571D02*
X175712381Y-77406476D01*
X174998095Y-77215999D01*
X175712381Y-77025523D01*
X174712381Y-76787428D01*
X175045714Y-75977904D02*
X175712381Y-75977904D01*
X174664762Y-76216000D02*
X175379048Y-76454095D01*
X175379048Y-75835047D01*
X188364762Y-78549333D02*
X188412381Y-78406476D01*
X188412381Y-78168380D01*
X188364762Y-78073142D01*
X188317143Y-78025523D01*
X188221905Y-77977904D01*
X188126667Y-77977904D01*
X188031429Y-78025523D01*
X187983810Y-78073142D01*
X187936190Y-78168380D01*
X187888571Y-78358857D01*
X187840952Y-78454095D01*
X187793333Y-78501714D01*
X187698095Y-78549333D01*
X187602857Y-78549333D01*
X187507619Y-78501714D01*
X187460000Y-78454095D01*
X187412381Y-78358857D01*
X187412381Y-78120761D01*
X187460000Y-77977904D01*
X187412381Y-77644571D02*
X188412381Y-77406476D01*
X187698095Y-77215999D01*
X188412381Y-77025523D01*
X187412381Y-76787428D01*
X187412381Y-75930285D02*
X187412381Y-76406476D01*
X187888571Y-76454095D01*
X187840952Y-76406476D01*
X187793333Y-76311238D01*
X187793333Y-76073142D01*
X187840952Y-75977904D01*
X187888571Y-75930285D01*
X187983810Y-75882666D01*
X188221905Y-75882666D01*
X188317143Y-75930285D01*
X188364762Y-75977904D01*
X188412381Y-76073142D01*
X188412381Y-76311238D01*
X188364762Y-76406476D01*
X188317143Y-76454095D01*
X201064762Y-78549333D02*
X201112381Y-78406476D01*
X201112381Y-78168380D01*
X201064762Y-78073142D01*
X201017143Y-78025523D01*
X200921905Y-77977904D01*
X200826667Y-77977904D01*
X200731429Y-78025523D01*
X200683810Y-78073142D01*
X200636190Y-78168380D01*
X200588571Y-78358857D01*
X200540952Y-78454095D01*
X200493333Y-78501714D01*
X200398095Y-78549333D01*
X200302857Y-78549333D01*
X200207619Y-78501714D01*
X200160000Y-78454095D01*
X200112381Y-78358857D01*
X200112381Y-78120761D01*
X200160000Y-77977904D01*
X200112381Y-77644571D02*
X201112381Y-77406476D01*
X200398095Y-77215999D01*
X201112381Y-77025523D01*
X200112381Y-76787428D01*
X200112381Y-75977904D02*
X200112381Y-76168381D01*
X200160000Y-76263619D01*
X200207619Y-76311238D01*
X200350476Y-76406476D01*
X200540952Y-76454095D01*
X200921905Y-76454095D01*
X201017143Y-76406476D01*
X201064762Y-76358857D01*
X201112381Y-76263619D01*
X201112381Y-76073142D01*
X201064762Y-75977904D01*
X201017143Y-75930285D01*
X200921905Y-75882666D01*
X200683810Y-75882666D01*
X200588571Y-75930285D01*
X200540952Y-75977904D01*
X200493333Y-76073142D01*
X200493333Y-76263619D01*
X200540952Y-76358857D01*
X200588571Y-76406476D01*
X200683810Y-76454095D01*
X213764762Y-78549333D02*
X213812381Y-78406476D01*
X213812381Y-78168380D01*
X213764762Y-78073142D01*
X213717143Y-78025523D01*
X213621905Y-77977904D01*
X213526667Y-77977904D01*
X213431429Y-78025523D01*
X213383810Y-78073142D01*
X213336190Y-78168380D01*
X213288571Y-78358857D01*
X213240952Y-78454095D01*
X213193333Y-78501714D01*
X213098095Y-78549333D01*
X213002857Y-78549333D01*
X212907619Y-78501714D01*
X212860000Y-78454095D01*
X212812381Y-78358857D01*
X212812381Y-78120761D01*
X212860000Y-77977904D01*
X212812381Y-77644571D02*
X213812381Y-77406476D01*
X213098095Y-77215999D01*
X213812381Y-77025523D01*
X212812381Y-76787428D01*
X212812381Y-76501714D02*
X212812381Y-75835047D01*
X213812381Y-76263619D01*
X226464762Y-78549333D02*
X226512381Y-78406476D01*
X226512381Y-78168380D01*
X226464762Y-78073142D01*
X226417143Y-78025523D01*
X226321905Y-77977904D01*
X226226667Y-77977904D01*
X226131429Y-78025523D01*
X226083810Y-78073142D01*
X226036190Y-78168380D01*
X225988571Y-78358857D01*
X225940952Y-78454095D01*
X225893333Y-78501714D01*
X225798095Y-78549333D01*
X225702857Y-78549333D01*
X225607619Y-78501714D01*
X225560000Y-78454095D01*
X225512381Y-78358857D01*
X225512381Y-78120761D01*
X225560000Y-77977904D01*
X225512381Y-77644571D02*
X226512381Y-77406476D01*
X225798095Y-77215999D01*
X226512381Y-77025523D01*
X225512381Y-76787428D01*
X225940952Y-76263619D02*
X225893333Y-76358857D01*
X225845714Y-76406476D01*
X225750476Y-76454095D01*
X225702857Y-76454095D01*
X225607619Y-76406476D01*
X225560000Y-76358857D01*
X225512381Y-76263619D01*
X225512381Y-76073142D01*
X225560000Y-75977904D01*
X225607619Y-75930285D01*
X225702857Y-75882666D01*
X225750476Y-75882666D01*
X225845714Y-75930285D01*
X225893333Y-75977904D01*
X225940952Y-76073142D01*
X225940952Y-76263619D01*
X225988571Y-76358857D01*
X226036190Y-76406476D01*
X226131429Y-76454095D01*
X226321905Y-76454095D01*
X226417143Y-76406476D01*
X226464762Y-76358857D01*
X226512381Y-76263619D01*
X226512381Y-76073142D01*
X226464762Y-75977904D01*
X226417143Y-75930285D01*
X226321905Y-75882666D01*
X226131429Y-75882666D01*
X226036190Y-75930285D01*
X225988571Y-75977904D01*
X225940952Y-76073142D01*
X150264762Y-78549333D02*
X150312381Y-78406476D01*
X150312381Y-78168380D01*
X150264762Y-78073142D01*
X150217143Y-78025523D01*
X150121905Y-77977904D01*
X150026667Y-77977904D01*
X149931429Y-78025523D01*
X149883810Y-78073142D01*
X149836190Y-78168380D01*
X149788571Y-78358857D01*
X149740952Y-78454095D01*
X149693333Y-78501714D01*
X149598095Y-78549333D01*
X149502857Y-78549333D01*
X149407619Y-78501714D01*
X149360000Y-78454095D01*
X149312381Y-78358857D01*
X149312381Y-78120761D01*
X149360000Y-77977904D01*
X149312381Y-77644571D02*
X150312381Y-77406476D01*
X149598095Y-77215999D01*
X150312381Y-77025523D01*
X149312381Y-76787428D01*
X149407619Y-76454095D02*
X149360000Y-76406476D01*
X149312381Y-76311238D01*
X149312381Y-76073142D01*
X149360000Y-75977904D01*
X149407619Y-75930285D01*
X149502857Y-75882666D01*
X149598095Y-75882666D01*
X149740952Y-75930285D01*
X150312381Y-76501714D01*
X150312381Y-75882666D01*
X235422381Y-92178095D02*
X234422381Y-92178095D01*
X234422381Y-91797142D01*
X234470000Y-91701904D01*
X234517619Y-91654285D01*
X234612857Y-91606666D01*
X234755714Y-91606666D01*
X234850952Y-91654285D01*
X234898571Y-91701904D01*
X234946190Y-91797142D01*
X234946190Y-92178095D01*
X235422381Y-90654285D02*
X235422381Y-91225714D01*
X235422381Y-90940000D02*
X234422381Y-90940000D01*
X234565238Y-91035238D01*
X234660476Y-91130476D01*
X234708095Y-91225714D01*
M02*
